<svg width="64" height="64" viewBox="0 0 64 64" fill="none" xmlns="http://www.w3.org/2000/svg">
<mask id="path-1-outside-1_34_137" maskUnits="userSpaceOnUse" x="14.7266" y="14.4387" width="37" height="37" fill="black">
<rect fill="white" x="14.7266" y="14.4387" width="37" height="37"/>
<path d="M20.457 16.4465C20.9215 16.474 21.424 16.5746 21.9395 16.72C22.9701 17.0108 24.1588 17.5136 25.3936 18.1399L25.4014 18.1438L25.4082 18.1487C26.4324 18.6902 26.9817 19.0358 27.5312 19.3821C27.9983 19.6766 28.1381 20.2938 27.8438 20.761C27.5493 21.2277 26.9329 21.3675 26.4658 21.0735C25.9375 20.7406 25.4392 20.4268 24.4893 19.9241C23.4647 19.4044 22.5263 19.0014 21.7334 18.7463C21.8773 19.2734 22.0011 19.5825 22.1543 19.8743C22.8251 20.9315 23.8479 22.3692 25.0098 24.0159C26.8963 26.297 28.9189 28.143 31.2021 30.4299C31.5679 30.7963 31.9674 31.1835 32.3916 31.5891C33.6293 30.3274 35.0646 29.0279 36.5146 27.7366C38.3645 26.0892 40.2397 24.4521 41.8535 22.8577L41.8623 22.8489C42.979 21.7698 43.9537 21.0059 44.9971 20.3792L45.0137 20.3684L45.0322 20.3577C45.0907 20.3257 45.1504 20.2966 45.209 20.2659C44.9852 20.1919 44.7575 20.1214 44.5283 20.0569C43.3902 19.7368 42.3451 19.5831 41.6855 19.635C41.1352 19.6784 40.654 19.2673 40.6104 18.717C40.567 18.1666 40.9779 17.6854 41.5283 17.6418C42.5375 17.5624 43.8511 17.7882 45.0703 18.1311C46.3052 18.4785 47.5716 18.9815 48.5029 19.5374L48.9443 19.8L48.9873 20.3127C49.0519 21.0816 48.8215 21.9153 48.5625 22.6692C48.3116 23.3996 47.9287 24.328 47.6357 25.1243C47.3828 25.8631 47.2598 26.3383 47.2236 27.0569C47.1957 27.6082 46.7261 28.0327 46.1748 28.0051C45.6236 27.9771 45.1981 27.5075 45.2256 26.9563C45.2746 25.9842 45.4554 25.3144 45.7422 24.4768L45.7461 24.4661L45.751 24.4563C46.1042 23.4939 46.4123 22.7716 46.6709 22.0188C46.7055 21.9181 46.7348 21.8213 46.7637 21.7297C46.5044 21.8497 46.2556 21.9688 46.0127 22.1008C45.133 22.6309 44.2834 23.2913 43.2598 24.2795L42.624 24.8967C41.1169 26.3408 39.4409 27.8083 37.8447 29.2297C36.3993 30.517 35.0204 31.7673 33.8486 32.9592C35.6598 34.6352 37.7444 36.487 39.7246 38.2375C42.7444 40.9071 45.5646 43.3795 46.6709 44.5481C47.0502 44.9491 47.0326 45.5826 46.6318 45.9622C46.2308 46.3416 45.5974 46.3239 45.2178 45.9231C44.1913 44.8389 41.4767 42.4551 38.4004 39.7356C36.4302 37.9939 34.3291 36.1276 32.4902 34.426C30.4633 36.761 28.3326 39.8464 25.4727 44.4094C25.4711 44.4123 25.4695 44.416 25.4678 44.4192C25.4535 44.4459 25.4318 44.4852 25.4053 44.5344C25.3521 44.6332 25.2753 44.7742 25.1807 44.9456C24.9912 45.2889 24.7273 45.7568 24.4316 46.2522C24.137 46.7458 23.8043 47.2776 23.4775 47.7444C23.1666 48.1885 22.8073 48.6539 22.4561 48.9495C22.0335 49.3048 21.4024 49.2508 21.0469 48.8284C20.6915 48.4058 20.7464 47.7747 21.1689 47.4192C21.3035 47.3059 21.5353 47.0315 21.8389 46.5979C22.1268 46.1866 22.4327 45.7005 22.7148 45.2278C22.9957 44.7573 23.2474 44.3099 23.4297 43.9797C23.5206 43.815 23.5943 43.6795 23.6445 43.5862C23.6696 43.5396 23.6893 43.503 23.7021 43.4788C23.7084 43.467 23.7137 43.4583 23.7168 43.4524C23.7184 43.4494 23.719 43.446 23.7197 43.4446L23.7207 43.4436L23.7373 43.4114L23.7578 43.3792C26.6592 38.7486 28.8751 35.5302 31.0322 33.0559C30.5885 32.6319 30.1694 32.2269 29.7861 31.843C27.5739 29.6272 25.4175 27.6529 23.4443 25.262L23.4209 25.2327L23.3984 25.2014C22.2347 23.5519 21.1546 22.0338 20.4453 20.9124L20.4258 20.8811L20.4082 20.8489C20.2946 20.6363 20.1962 20.4247 20.1055 20.1965C20.089 20.354 20.072 20.5157 20.0557 20.6809C19.9934 21.3112 19.9337 21.9673 19.8779 22.5901C19.8224 23.2105 19.7701 23.8014 19.7217 24.2913C19.6673 24.8408 19.1774 25.243 18.6279 25.1887C18.0785 25.1342 17.6771 24.6435 17.7314 24.094C17.7788 23.6158 17.8298 23.0366 17.8857 22.4124C17.9415 21.7901 18.0021 21.1244 18.0654 20.4836C18.173 19.3946 18.2974 18.2945 18.4424 17.592L18.5059 17.3157L18.6279 16.8479L19.0713 16.6526C19.513 16.4585 20.0017 16.4197 20.457 16.4465Z"/>
</mask>
<path d="M20.457 16.4465C20.9215 16.474 21.424 16.5746 21.9395 16.72C22.9701 17.0108 24.1588 17.5136 25.3936 18.1399L25.4014 18.1438L25.4082 18.1487C26.4324 18.6902 26.9817 19.0358 27.5312 19.3821C27.9983 19.6766 28.1381 20.2938 27.8438 20.761C27.5493 21.2277 26.9329 21.3675 26.4658 21.0735C25.9375 20.7406 25.4392 20.4268 24.4893 19.9241C23.4647 19.4044 22.5263 19.0014 21.7334 18.7463C21.8773 19.2734 22.0011 19.5825 22.1543 19.8743C22.8251 20.9315 23.8479 22.3692 25.0098 24.0159C26.8963 26.297 28.9189 28.143 31.2021 30.4299C31.5679 30.7963 31.9674 31.1835 32.3916 31.5891C33.6293 30.3274 35.0646 29.0279 36.5146 27.7366C38.3645 26.0892 40.2397 24.4521 41.8535 22.8577L41.8623 22.8489C42.979 21.7698 43.9537 21.0059 44.9971 20.3792L45.0137 20.3684L45.0322 20.3577C45.0907 20.3257 45.1504 20.2966 45.209 20.2659C44.9852 20.1919 44.7575 20.1214 44.5283 20.0569C43.3902 19.7368 42.3451 19.5831 41.6855 19.635C41.1352 19.6784 40.654 19.2673 40.6104 18.717C40.567 18.1666 40.9779 17.6854 41.5283 17.6418C42.5375 17.5624 43.8511 17.7882 45.0703 18.1311C46.3052 18.4785 47.5716 18.9815 48.5029 19.5374L48.9443 19.8L48.9873 20.3127C49.0519 21.0816 48.8215 21.9153 48.5625 22.6692C48.3116 23.3996 47.9287 24.328 47.6357 25.1243C47.3828 25.8631 47.2598 26.3383 47.2236 27.0569C47.1957 27.6082 46.7261 28.0327 46.1748 28.0051C45.6236 27.9771 45.1981 27.5075 45.2256 26.9563C45.2746 25.9842 45.4554 25.3144 45.7422 24.4768L45.7461 24.4661L45.751 24.4563C46.1042 23.4939 46.4123 22.7716 46.6709 22.0188C46.7055 21.9181 46.7348 21.8213 46.7637 21.7297C46.5044 21.8497 46.2556 21.9688 46.0127 22.1008C45.133 22.6309 44.2834 23.2913 43.2598 24.2795L42.624 24.8967C41.1169 26.3408 39.4409 27.8083 37.8447 29.2297C36.3993 30.517 35.0204 31.7673 33.8486 32.9592C35.6598 34.6352 37.7444 36.487 39.7246 38.2375C42.7444 40.9071 45.5646 43.3795 46.6709 44.5481C47.0502 44.9491 47.0326 45.5826 46.6318 45.9622C46.2308 46.3416 45.5974 46.3239 45.2178 45.9231C44.1913 44.8389 41.4767 42.4551 38.4004 39.7356C36.4302 37.9939 34.3291 36.1276 32.4902 34.426C30.4633 36.761 28.3326 39.8464 25.4727 44.4094C25.4711 44.4123 25.4695 44.416 25.4678 44.4192C25.4535 44.4459 25.4318 44.4852 25.4053 44.5344C25.3521 44.6332 25.2753 44.7742 25.1807 44.9456C24.9912 45.2889 24.7273 45.7568 24.4316 46.2522C24.137 46.7458 23.8043 47.2776 23.4775 47.7444C23.1666 48.1885 22.8073 48.6539 22.4561 48.9495C22.0335 49.3048 21.4024 49.2508 21.0469 48.8284C20.6915 48.4058 20.7464 47.7747 21.1689 47.4192C21.3035 47.3059 21.5353 47.0315 21.8389 46.5979C22.1268 46.1866 22.4327 45.7005 22.7148 45.2278C22.9957 44.7573 23.2474 44.3099 23.4297 43.9797C23.5206 43.815 23.5943 43.6795 23.6445 43.5862C23.6696 43.5396 23.6893 43.503 23.7021 43.4788C23.7084 43.467 23.7137 43.4583 23.7168 43.4524C23.7184 43.4494 23.719 43.446 23.7197 43.4446L23.7207 43.4436L23.7373 43.4114L23.7578 43.3792C26.6592 38.7486 28.8751 35.5302 31.0322 33.0559C30.5885 32.6319 30.1694 32.2269 29.7861 31.843C27.5739 29.6272 25.4175 27.6529 23.4443 25.262L23.4209 25.2327L23.3984 25.2014C22.2347 23.5519 21.1546 22.0338 20.4453 20.9124L20.4258 20.8811L20.4082 20.8489C20.2946 20.6363 20.1962 20.4247 20.1055 20.1965C20.089 20.354 20.072 20.5157 20.0557 20.6809C19.9934 21.3112 19.9337 21.9673 19.8779 22.5901C19.8224 23.2105 19.7701 23.8014 19.7217 24.2913C19.6673 24.8408 19.1774 25.243 18.6279 25.1887C18.0785 25.1342 17.6771 24.6435 17.7314 24.094C17.7788 23.6158 17.8298 23.0366 17.8857 22.4124C17.9415 21.7901 18.0021 21.1244 18.0654 20.4836C18.173 19.3946 18.2974 18.2945 18.4424 17.592L18.5059 17.3157L18.6279 16.8479L19.0713 16.6526C19.513 16.4585 20.0017 16.4197 20.457 16.4465Z" fill="black"/>
<path d="M20.457 16.4465L20.575 14.45L20.5747 14.45L20.457 16.4465ZM21.9395 16.72L22.4826 14.7951L22.4825 14.7951L21.9395 16.72ZM25.3936 18.1399L24.4888 19.9236L24.4991 19.9287L25.3936 18.1399ZM25.4014 18.1438L26.5638 16.5163L26.4362 16.4251L26.2958 16.3549L25.4014 18.1438ZM25.4082 18.1487L24.2457 19.7761L24.3549 19.8541L24.4735 19.9168L25.4082 18.1487ZM27.5312 19.3821L28.5979 17.6903L28.5975 17.69L27.5312 19.3821ZM27.8438 20.761L29.5352 21.8282L29.5358 21.8272L27.8438 20.761ZM26.4658 21.0735L25.3996 22.7656L25.4004 22.7661L26.4658 21.0735ZM24.4893 19.9241L25.4248 18.1564L25.4094 18.1482L25.394 18.1404L24.4893 19.9241ZM21.7334 18.7463L22.3459 16.8424L18.8315 15.7119L19.804 19.2732L21.7334 18.7463ZM22.1543 19.8743L20.3836 20.8041L20.4217 20.8766L20.4656 20.9458L22.1543 19.8743ZM25.0098 24.0159L23.3756 25.1689L23.4197 25.2315L23.4685 25.2905L25.0098 24.0159ZM31.2021 30.4299L29.7868 31.843L29.7868 31.843L31.2021 30.4299ZM32.3916 31.5891L31.0095 33.0347L32.4366 34.3992L33.8193 32.9897L32.3916 31.5891ZM36.5146 27.7366L35.1845 26.243L35.1845 26.243L36.5146 27.7366ZM41.8535 22.8577L43.2592 24.2804L43.2677 24.2719L41.8535 22.8577ZM41.8623 22.8489L40.4726 21.4106L40.4602 21.4225L40.4481 21.4347L41.8623 22.8489ZM44.9971 20.3792L46.027 22.0936L46.0556 22.0764L46.0836 22.0583L44.9971 20.3792ZM45.0137 20.3684L44.0116 18.6376L43.9687 18.6624L43.9272 18.6893L45.0137 20.3684ZM45.0322 20.3577L44.0724 18.6031L44.0511 18.6147L44.0302 18.6268L45.0322 20.3577ZM45.209 20.2659L46.1388 22.0366L50.3117 19.8452L45.8363 18.3668L45.209 20.2659ZM44.5283 20.0569L45.0699 18.1316L45.0698 18.1316L44.5283 20.0569ZM41.6855 19.635L41.5286 17.6412L41.5285 17.6412L41.6855 19.635ZM40.6104 18.717L38.6165 18.8742L38.6166 18.8752L40.6104 18.717ZM41.5283 17.6418L41.3713 15.648L41.3706 15.6481L41.5283 17.6418ZM45.0703 18.1311L45.6119 16.2058L45.6118 16.2058L45.0703 18.1311ZM48.5029 19.5374L47.4779 21.2547L47.4801 21.256L48.5029 19.5374ZM48.9443 19.8L50.9373 19.633L50.8514 18.6076L49.9672 18.0814L48.9443 19.8ZM48.9873 20.3127L46.9943 20.4798L46.9943 20.4802L48.9873 20.3127ZM48.5625 22.6692L50.454 23.319L50.454 23.319L48.5625 22.6692ZM47.6357 25.1243L45.7587 24.4337L45.7509 24.4549L45.7436 24.4764L47.6357 25.1243ZM47.2236 27.0569L49.2211 27.158L49.2211 27.1576L47.2236 27.0569ZM46.1748 28.0051L46.0733 30.0026L46.0749 30.0026L46.1748 28.0051ZM45.2256 26.9563L43.2281 26.8556L43.2281 26.8566L45.2256 26.9563ZM45.7422 24.4768L43.8626 23.7933L43.8561 23.8111L43.85 23.8289L45.7422 24.4768ZM45.7461 24.4661L43.9572 23.5716L43.9058 23.6745L43.8665 23.7826L45.7461 24.4661ZM45.751 24.4563L47.5398 25.3507L47.5899 25.2505L47.6285 25.1454L45.751 24.4563ZM46.6709 22.0188L48.5624 22.6686L48.5624 22.6685L46.6709 22.0188ZM46.7637 21.7297L48.6713 22.3304L50.0299 18.0155L45.9241 19.9145L46.7637 21.7297ZM46.0127 22.1008L45.0572 20.3438L45.0184 20.3649L44.9806 20.3877L46.0127 22.1008ZM43.2598 24.2795L41.8706 22.8407L41.8666 22.8445L43.2598 24.2795ZM42.624 24.8967L44.0077 26.3409L44.0171 26.3317L42.624 24.8967ZM37.8447 29.2297L36.5146 27.7361L36.5146 27.7361L37.8447 29.2297ZM33.8486 32.9592L32.4224 31.5571L30.9772 33.0271L32.4903 34.4272L33.8486 32.9592ZM39.7246 38.2375L38.4 39.736L38.4 39.736L39.7246 38.2375ZM46.6709 44.5481L48.1239 43.1738L48.1233 43.1731L46.6709 44.5481ZM46.6318 45.9622L48.0064 47.4149L48.0072 47.4142L46.6318 45.9622ZM45.2178 45.9231L43.7654 47.2981L43.7657 47.2984L45.2178 45.9231ZM38.4004 39.7356L39.725 38.2372L39.725 38.2372L38.4004 39.7356ZM32.4902 34.426L33.8486 32.9581L32.3333 31.5559L30.9799 33.1149L32.4902 34.426ZM25.4727 44.4094L23.778 43.3473L23.7401 43.4078L23.7065 43.4709L25.4727 44.4094ZM25.4678 44.4192L27.2333 45.3587L27.2334 45.3586L25.4678 44.4192ZM25.4053 44.5344L27.1666 45.4818L27.1667 45.4818L25.4053 44.5344ZM25.1807 44.9456L26.9316 45.912L26.9316 45.912L25.1807 44.9456ZM24.4316 46.2522L26.149 47.2772L26.149 47.2772L24.4316 46.2522ZM23.4775 47.7444L25.1159 48.8914L25.1159 48.8914L23.4775 47.7444ZM22.4561 48.9495L23.7432 50.4803L23.7438 50.4797L22.4561 48.9495ZM21.0469 48.8284L19.5163 50.1157L19.5167 50.1162L21.0469 48.8284ZM21.1689 47.4192L22.4567 48.9495L22.457 48.9492L21.1689 47.4192ZM21.8389 46.5979L23.4772 47.745L23.4772 47.745L21.8389 46.5979ZM22.7148 45.2278L24.4322 46.2528L24.4322 46.2528L22.7148 45.2278ZM23.4297 43.9797L25.1807 44.9462L25.1807 44.9462L23.4297 43.9797ZM23.6445 43.5862L25.4059 44.5336L25.4059 44.5335L23.6445 43.5862ZM23.7021 43.4788L21.9376 42.5373L21.9365 42.5393L23.7021 43.4788ZM23.7168 43.4524L25.4839 44.3891L25.4846 44.3878L23.7168 43.4524ZM23.7197 43.4446L22.3055 42.0304L22.0924 42.2435L21.9515 42.51L23.7197 43.4446ZM23.7207 43.4436L25.1349 44.8578L25.3557 44.6371L25.4987 44.3595L23.7207 43.4436ZM23.7373 43.4114L22.05 42.3376L22.0011 42.4145L21.9594 42.4955L23.7373 43.4114ZM23.7578 43.3792L25.4452 44.4529L25.4526 44.4411L23.7578 43.3792ZM31.0322 33.0559L32.5397 34.3702L33.7955 32.9299L32.4139 31.6099L31.0322 33.0559ZM29.7861 31.843L31.2015 30.4299L31.2015 30.4299L29.7861 31.843ZM23.4443 25.262L21.8826 26.5114L21.8921 26.5232L21.9018 26.535L23.4443 25.262ZM23.4209 25.2327L21.7969 26.3999L21.827 26.4418L21.8592 26.4821L23.4209 25.2327ZM23.3984 25.2014L21.7642 26.3543L21.7693 26.3615L21.7744 26.3687L23.3984 25.2014ZM20.4453 20.9124L18.7493 21.9724L18.755 21.9814L20.4453 20.9124ZM20.4258 20.8811L18.67 21.8388L18.6984 21.8908L18.7298 21.9411L20.4258 20.8811ZM20.4082 20.8489L18.6442 21.7914L18.6483 21.799L18.6524 21.8066L20.4082 20.8489ZM20.1055 20.1965L21.9641 19.458L18.1163 19.9888L20.1055 20.1965ZM20.0557 20.6809L18.0654 20.4843L18.0654 20.4843L20.0557 20.6809ZM19.8779 22.5901L21.87 22.7685L21.87 22.7685L19.8779 22.5901ZM19.7217 24.2913L21.7119 24.4883L21.712 24.4882L19.7217 24.2913ZM18.6279 25.1887L18.4305 27.1789L18.4314 27.179L18.6279 25.1887ZM17.7314 24.094L19.7217 24.2909L19.7217 24.2909L17.7314 24.094ZM17.8857 22.4124L15.8937 22.2339L15.8937 22.2339L17.8857 22.4124ZM18.0654 20.4836L16.0751 20.287L16.0751 20.287L18.0654 20.4836ZM18.4424 17.592L16.4931 17.1443L16.4882 17.166L16.4837 17.1877L18.4424 17.592ZM18.5059 17.3157L16.5707 16.8107L16.5632 16.8392L16.5566 16.868L18.5059 17.3157ZM18.6279 16.8479L17.8216 15.0176L16.9369 15.4074L16.6927 16.3429L18.6279 16.8479ZM19.0713 16.6526L18.2667 14.8216L18.265 14.8223L19.0713 16.6526ZM20.457 16.4465L20.3391 18.4431C20.6128 18.4592 20.9656 18.5233 21.3964 18.6448L21.9395 16.72L22.4825 14.7951C21.8825 14.6258 21.2303 14.4887 20.575 14.45L20.457 16.4465ZM21.9395 16.72L21.3963 18.6448C22.255 18.8871 23.3159 19.3286 24.4889 19.9236L25.3936 18.1399L26.2983 16.3562C25.0017 15.6986 23.6852 15.1345 22.4826 14.7951L21.9395 16.72ZM25.3936 18.1399L24.4991 19.9287L24.5069 19.9327L25.4014 18.1438L26.2958 16.3549L26.288 16.351L25.3936 18.1399ZM25.4014 18.1438L24.2389 19.7713L24.2457 19.7761L25.4082 18.1487L26.5707 16.5212L26.5638 16.5163L25.4014 18.1438ZM25.4082 18.1487L24.4735 19.9168C25.4335 20.4243 25.9344 20.7398 26.465 21.0742L27.5312 19.3821L28.5975 17.69C28.0289 17.3317 27.4314 16.956 26.3429 16.3806L25.4082 18.1487ZM27.5312 19.3821L26.4646 21.0739C25.997 20.779 25.8576 20.1614 26.1517 19.6948L27.8438 20.761L29.5358 21.8272C30.4186 20.4262 29.9997 18.5741 28.5979 17.6903L27.5312 19.3821ZM27.8438 20.761L26.1523 19.6938C26.4469 19.2268 27.0644 19.087 27.5312 19.3809L26.4658 21.0735L25.4004 22.7661C26.8013 23.6479 28.6516 23.2286 29.5352 21.8282L27.8438 20.761ZM26.4658 21.0735L27.532 19.3814C26.9851 19.0367 26.4387 18.6929 25.4248 18.1564L24.4893 19.9241L23.5537 21.6918C24.4397 22.1606 24.8899 22.4444 25.3996 22.7656L26.4658 21.0735ZM24.4893 19.9241L25.394 18.1404C24.3117 17.5914 23.2717 17.1403 22.3459 16.8424L21.7334 18.7463L21.1209 20.6502C21.7809 20.8626 22.6178 21.2174 23.5846 21.7077L24.4893 19.9241ZM21.7334 18.7463L19.804 19.2732C19.9766 19.905 20.1481 20.3555 20.3836 20.8041L22.1543 19.8743L23.925 18.9445C23.8541 18.8094 23.7781 18.6419 23.6628 18.2195L21.7334 18.7463ZM22.1543 19.8743L20.4656 20.9458C21.17 22.0559 22.2315 23.5473 23.3756 25.1689L25.0098 24.0159L26.644 22.8629C25.4644 21.191 24.4802 19.807 23.843 18.8028L22.1543 19.8743ZM25.0098 24.0159L23.4685 25.2905C25.4346 27.6678 27.5845 29.6372 29.7868 31.843L31.2021 30.4299L32.6175 29.0168C30.2532 26.6488 28.358 24.9262 26.551 22.7413L25.0098 24.0159ZM31.2021 30.4299L29.7868 31.843C30.1681 32.2249 30.58 32.624 31.0095 33.0347L32.3916 31.5891L33.7737 30.1435C33.3548 29.743 32.9678 29.3677 32.6175 29.0168L31.2021 30.4299ZM32.3916 31.5891L33.8193 32.9897C35.0051 31.7809 36.3951 30.5211 37.8448 29.2302L36.5146 27.7366L35.1845 26.243C33.734 27.5347 32.2536 28.8738 30.9639 30.1885L32.3916 31.5891ZM36.5146 27.7366L37.8448 29.2302C39.6691 27.6055 41.598 25.9216 43.2592 24.2804L41.8535 22.8577L40.4478 21.435C38.8814 22.9827 37.0599 24.5729 35.1845 26.243L36.5146 27.7366ZM41.8535 22.8577L43.2677 24.2719L43.2765 24.2631L41.8623 22.8489L40.4481 21.4347L40.4393 21.4435L41.8535 22.8577ZM41.8623 22.8489L43.252 24.2872C44.2842 23.2898 45.14 22.6264 46.027 22.0936L44.9971 20.3792L43.9671 18.6647C42.7674 19.3855 41.6738 20.2499 40.4726 21.4106L41.8623 22.8489ZM44.9971 20.3792L46.0836 22.0583L46.1002 22.0475L45.0137 20.3684L43.9272 18.6893L43.9106 18.7L44.9971 20.3792ZM45.0137 20.3684L46.0157 22.0993L46.0343 22.0885L45.0322 20.3577L44.0302 18.6268L44.0116 18.6376L45.0137 20.3684ZM45.0322 20.3577L45.9921 22.1123C46.0476 22.0819 45.9906 22.1144 46.1388 22.0366L45.209 20.2659L44.2791 18.4952C44.2629 18.5037 44.2503 18.51 44.2104 18.5304C44.1778 18.5471 44.1275 18.5729 44.0724 18.6031L45.0322 20.3577ZM45.209 20.2659L45.8363 18.3668C45.5893 18.2852 45.3327 18.2055 45.0699 18.1316L44.5283 20.0569L43.9868 21.9822C44.1824 22.0372 44.3811 22.0987 44.5816 22.1649L45.209 20.2659ZM44.5283 20.0569L45.0698 18.1316C43.8505 17.7886 42.5376 17.5617 41.5286 17.6412L41.6855 19.635L41.8425 21.6288C42.1526 21.6044 42.9298 21.6849 43.9868 21.9822L44.5283 20.0569ZM41.6855 19.635L41.5285 17.6412C42.0798 17.5978 42.5605 18.0095 42.6041 18.5589L40.6104 18.717L38.6166 18.8752C38.7475 20.5252 40.1905 21.759 41.8426 21.6288L41.6855 19.635ZM40.6104 18.717L42.6042 18.5599C42.6476 19.1108 42.2361 19.5921 41.686 19.6356L41.5283 17.6418L41.3706 15.6481C39.7197 15.7787 38.4863 17.2223 38.6165 18.8742L40.6104 18.717ZM41.5283 17.6418L41.6853 19.6357C42.3465 19.5836 43.3933 19.737 44.5288 20.0564L45.0703 18.1311L45.6118 16.2058C44.309 15.8394 42.7284 15.5412 41.3713 15.648L41.5283 17.6418ZM45.0703 18.1311L44.5287 20.0564C45.6504 20.3719 46.741 20.8149 47.4779 21.2547L48.5029 19.5374L49.528 17.82C48.4021 17.148 46.96 16.585 45.6119 16.2058L45.0703 18.1311ZM48.5029 19.5374L47.4801 21.256L47.9215 21.5187L48.9443 19.8L49.9672 18.0814L49.5258 17.8187L48.5029 19.5374ZM48.9443 19.8L46.9513 19.9671L46.9943 20.4798L48.9873 20.3127L50.9803 20.1457L50.9373 19.633L48.9443 19.8ZM48.9873 20.3127L46.9943 20.4802C47.0211 20.7985 46.9229 21.2862 46.671 22.0194L48.5625 22.6692L50.454 23.319C50.7201 22.5443 51.0827 21.3648 50.9803 20.1453L48.9873 20.3127ZM48.5625 22.6692L46.671 22.0193C46.4182 22.7552 46.1045 23.494 45.7587 24.4337L47.6357 25.1243L49.5127 25.8148C49.7529 25.162 50.2049 24.0439 50.454 23.319L48.5625 22.6692ZM47.6357 25.1243L45.7436 24.4764C45.4575 25.3118 45.2753 25.9823 45.2262 26.9562L47.2236 27.0569L49.2211 27.1576C49.2444 26.6943 49.308 26.4144 49.5279 25.7722L47.6357 25.1243ZM47.2236 27.0569L45.2262 26.9558C45.2541 26.4041 45.7236 25.9801 46.2747 26.0076L46.1748 28.0051L46.0749 30.0026C47.7287 30.0853 49.1373 28.8123 49.2211 27.158L47.2236 27.0569ZM46.1748 28.0051L46.2763 26.0077C46.8249 26.0356 47.2508 26.5021 47.2231 27.056L45.2256 26.9563L43.2281 26.8566C43.1454 28.513 44.4223 29.9187 46.0733 30.0026L46.1748 28.0051ZM45.2256 26.9563L47.223 27.057C47.2593 26.3387 47.3814 25.8635 47.6343 25.1247L45.7422 24.4768L43.85 23.8289C43.5294 24.7652 43.2899 25.6297 43.2281 26.8556L45.2256 26.9563ZM45.7422 24.4768L47.6218 25.1603L47.6257 25.1496L45.7461 24.4661L43.8665 23.7826L43.8626 23.7933L45.7422 24.4768ZM45.7461 24.4661L47.5349 25.3605L47.5398 25.3507L45.751 24.4563L43.9621 23.5619L43.9572 23.5716L45.7461 24.4661ZM45.751 24.4563L47.6285 25.1454C47.9216 24.3469 48.3097 23.4042 48.5624 22.6686L46.6709 22.0188L44.7794 21.369C44.5149 22.139 44.2868 22.6408 43.8734 23.7672L45.751 24.4563ZM46.6709 22.0188L48.5624 22.6685C48.6081 22.5354 48.6505 22.3966 48.6713 22.3304L46.7637 21.7297L44.856 21.1291C44.8192 21.246 44.8028 21.3007 44.7794 21.3691L46.6709 22.0188ZM46.7637 21.7297L45.9241 19.9145C45.6529 20.0399 45.3576 20.1805 45.0572 20.3438L46.0127 22.1008L46.9682 23.8578C47.1535 23.757 47.3559 23.6594 47.6032 23.545L46.7637 21.7297ZM46.0127 22.1008L44.9806 20.3877C43.9449 21.0117 42.9773 21.7723 41.8706 22.8407L43.2598 24.2795L44.6489 25.7184C45.5895 24.8103 46.321 24.25 47.0448 23.8139L46.0127 22.1008ZM43.2598 24.2795L41.8666 22.8445L41.2309 23.4617L42.624 24.8967L44.0171 26.3317L44.6529 25.7145L43.2598 24.2795ZM42.624 24.8967L41.2404 23.4526C39.7673 24.864 38.1304 26.2972 36.5146 27.7361L37.8447 29.2297L39.1748 30.7233C40.7513 29.3194 42.4665 27.8175 44.0077 26.3408L42.624 24.8967ZM37.8447 29.2297L36.5146 27.7361C35.0685 29.024 33.6453 30.3132 32.4224 31.5571L33.8486 32.9592L35.2748 34.3613C36.3955 33.2214 37.7301 32.0099 39.1748 30.7233L37.8447 29.2297ZM33.8486 32.9592L32.4903 34.4272C34.32 36.1203 36.4202 37.9858 38.4 39.736L39.7246 38.2375L41.0493 36.7391C39.0686 34.9882 36.9996 33.15 35.207 31.4913L33.8486 32.9592ZM39.7246 38.2375L38.4 39.736C41.4762 42.4554 44.1922 44.839 45.2185 45.9231L46.6709 44.5481L48.1233 43.1731C46.9369 41.92 44.0126 39.3588 41.0493 36.7391L39.7246 38.2375ZM46.6709 44.5481L45.2179 45.9224C44.838 45.5208 44.8563 44.8892 45.2564 44.5102L46.6318 45.9622L48.0072 47.4142C49.2089 46.2759 49.2623 44.3774 48.1239 43.1738L46.6709 44.5481ZM46.6318 45.9622L45.2572 44.5094C45.6591 44.1292 46.291 44.1478 46.6699 44.5478L45.2178 45.9231L43.7657 47.2984C44.9038 48.5001 46.8025 48.554 48.0064 47.4149L46.6318 45.9622ZM45.2178 45.9231L46.6701 44.5481C45.5636 43.3794 42.7448 40.9067 39.725 38.2372L38.4004 39.7356L37.0757 41.234C40.2086 44.0036 42.8189 46.2984 43.7654 47.2981L45.2178 45.9231ZM38.4004 39.7356L39.725 38.2372C37.7544 36.4951 35.6688 34.6425 33.8486 32.9581L32.4902 34.426L31.1318 35.8939C32.9893 37.6128 35.1059 39.4926 37.0757 41.234L38.4004 39.7356ZM32.4902 34.426L30.9799 33.1149C28.8465 35.5726 26.6485 38.7674 23.778 43.3473L25.4727 44.4094L27.1673 45.4716C30.0167 40.9254 32.0801 37.9494 34.0006 35.7371L32.4902 34.426ZM25.4727 44.4094L23.7065 43.4709C23.6999 43.4834 23.6943 43.4943 23.6899 43.5029C23.6855 43.5115 23.6819 43.5188 23.6792 43.5242C23.6766 43.5295 23.6744 43.5339 23.6732 43.5364C23.6726 43.5377 23.6721 43.5388 23.6717 43.5394C23.6716 43.5397 23.6714 43.54 23.6714 43.5402C23.671 43.5409 23.6715 43.5399 23.6712 43.5405C23.671 43.5408 23.6718 43.5392 23.6729 43.537C23.674 43.5347 23.6759 43.5309 23.6783 43.526C23.6807 43.5212 23.684 43.5147 23.6878 43.5072C23.6917 43.4996 23.6965 43.4904 23.7021 43.4798L25.4678 44.4192L27.2334 45.3586C27.2395 45.3472 27.2447 45.3371 27.249 45.3287C27.2533 45.3204 27.2569 45.3131 27.2598 45.3074C27.2626 45.3017 27.2649 45.297 27.2664 45.2939C27.2679 45.2909 27.2691 45.2884 27.2694 45.2879C27.2699 45.2867 27.2693 45.2881 27.2686 45.2895C27.2678 45.2912 27.266 45.2947 27.2638 45.2992C27.2615 45.3038 27.2583 45.3103 27.2543 45.3182C27.2503 45.326 27.245 45.3361 27.2388 45.348L25.4727 44.4094ZM25.4678 44.4192L23.7022 43.4796C23.7024 43.4793 23.7014 43.4812 23.6981 43.4873C23.6948 43.4933 23.691 43.5003 23.6854 43.5105C23.675 43.5297 23.6603 43.5566 23.6439 43.587L25.4053 44.5344L27.1667 45.4818C27.1767 45.463 27.1862 45.4457 27.1968 45.4262C27.2054 45.4105 27.2202 45.3834 27.2333 45.3587L25.4678 44.4192ZM25.4053 44.5344L23.6439 43.587C23.5952 43.6775 23.522 43.8117 23.4297 43.9791L25.1807 44.9456L26.9316 45.912C27.0285 45.7366 27.109 45.589 27.1666 45.4818L25.4053 44.5344ZM25.1807 44.9456L23.4297 43.9791C23.2475 44.3091 22.9952 44.7565 22.7143 45.2272L24.4316 46.2522L26.149 47.2772C26.4595 46.757 26.7348 46.2686 26.9316 45.912L25.1807 44.9456ZM24.4316 46.2522L22.7143 45.2272C22.4321 45.6999 22.1271 46.1861 21.8392 46.5973L23.4775 47.7444L25.1159 48.8914C25.4816 48.3692 25.8419 47.7917 26.149 47.2772L24.4316 46.2522ZM23.4775 47.7444L21.8392 46.5973C21.5355 47.031 21.303 47.3059 21.1683 47.4192L22.4561 48.9495L23.7438 50.4797C24.3117 50.0018 24.7976 49.3461 25.1159 48.8914L23.4775 47.7444ZM22.4561 48.9495L21.1689 47.4187C21.5903 47.0644 22.2205 47.1169 22.5771 47.5405L21.0469 48.8284L19.5167 50.1162C20.5843 51.3847 22.4767 51.5451 23.7432 50.4803L22.4561 48.9495ZM21.0469 48.8284L22.5775 47.541C22.9343 47.9653 22.8775 48.5953 22.4567 48.9495L21.1689 47.4192L19.8812 45.8889C18.6154 46.9541 18.4486 48.8463 19.5163 50.1157L21.0469 48.8284ZM21.1689 47.4192L22.457 48.9492C22.8106 48.6515 23.1709 48.1824 23.4772 47.745L21.8389 46.5979L20.2005 45.4508C20.0704 45.6367 19.9681 45.7704 19.8962 45.8578C19.8605 45.9012 19.838 45.9261 19.8285 45.9363C19.8153 45.9504 19.8342 45.9285 19.8809 45.8892L21.1689 47.4192ZM21.8389 46.5979L23.4772 47.745C23.8033 47.2793 24.1365 46.7482 24.4322 46.2528L22.7148 45.2278L20.9975 44.2028C20.7289 44.6528 20.4504 45.0939 20.2005 45.4508L21.8389 46.5979ZM22.7148 45.2278L24.4322 46.2528C24.7283 45.7566 24.9918 45.2884 25.1807 44.9462L23.4297 43.9797L21.6787 43.0132C21.503 43.3315 21.263 43.7579 20.9975 44.2028L22.7148 45.2278ZM23.4297 43.9797L25.1807 44.9462C25.2746 44.7761 25.3518 44.6342 25.4059 44.5336L23.6445 43.5862L21.8832 42.6388C21.8369 42.7248 21.7667 42.8538 21.6787 43.0133L23.4297 43.9797ZM23.6445 43.5862L25.4059 44.5335C25.4303 44.4883 25.4523 44.4472 25.4678 44.4182L23.7021 43.4788L21.9365 42.5393C21.9262 42.5587 21.9089 42.591 21.8831 42.6389L23.6445 43.5862ZM23.7021 43.4788L25.4667 44.4203C25.4575 44.4374 25.4504 44.45 25.4503 44.4501C25.4503 44.4501 25.4503 44.4501 25.4504 44.45C25.4504 44.4499 25.4505 44.4497 25.4506 44.4495C25.4508 44.4492 25.4513 44.4483 25.4518 44.4475C25.4527 44.4459 25.4547 44.4424 25.457 44.4382C25.4594 44.4341 25.4629 44.4277 25.4672 44.42C25.4714 44.4124 25.4772 44.4018 25.4839 44.3891L23.7168 43.4524L21.9497 42.5157C21.9557 42.5045 21.9606 42.4954 21.9639 42.4894C21.9672 42.4834 21.9698 42.4788 21.9711 42.4764C21.9724 42.4741 21.9733 42.4726 21.9731 42.4729C21.973 42.4731 21.9729 42.4733 21.9725 42.474C21.9722 42.4746 21.9717 42.4755 21.971 42.4766C21.966 42.4855 21.953 42.5083 21.9376 42.5373L23.7021 43.4788ZM23.7168 43.4524L25.4846 44.3878C25.5092 44.3413 25.5294 44.2987 25.5458 44.2616C25.5623 44.2245 25.5757 44.1912 25.5864 44.1632C25.597 44.1352 25.6056 44.111 25.612 44.0922C25.6183 44.0735 25.6232 44.0583 25.626 44.0495C25.6274 44.045 25.6285 44.0415 25.629 44.0398C25.6292 44.039 25.6295 44.0383 25.6295 44.0382C25.6296 44.0379 25.6294 44.0384 25.6292 44.039C25.6289 44.04 25.6278 44.0438 25.6262 44.0486C25.6247 44.0534 25.6222 44.0611 25.6191 44.0706C25.616 44.0801 25.6117 44.093 25.6063 44.1084C25.6009 44.1237 25.5937 44.1436 25.5847 44.1668C25.5758 44.1898 25.5639 44.2193 25.5489 44.2532C25.5413 44.2704 25.5326 44.2896 25.5226 44.3104C25.5127 44.3311 25.5011 44.3542 25.488 44.3791L23.7197 43.4446L21.9515 42.51C21.9383 42.5351 21.9267 42.5583 21.9167 42.5791C21.9067 42.5999 21.8979 42.6192 21.8902 42.6365C21.8752 42.6706 21.8632 42.7004 21.8542 42.7236C21.8451 42.747 21.8378 42.7672 21.8324 42.7827C21.8269 42.7983 21.8224 42.8116 21.8192 42.8213C21.816 42.8311 21.8135 42.8391 21.8118 42.8442C21.8102 42.8493 21.809 42.8534 21.8086 42.8547C21.8084 42.8552 21.8083 42.8555 21.8083 42.8557C21.8082 42.8558 21.8082 42.8559 21.8082 42.8559C21.8082 42.856 21.8082 42.856 21.8082 42.856C21.8082 42.856 21.8082 42.856 21.8082 42.856C21.8081 42.8561 21.8083 42.8556 21.8085 42.855C21.8089 42.8536 21.8099 42.8504 21.8112 42.8463C21.8138 42.8381 21.8184 42.8237 21.8245 42.8057C21.8306 42.7877 21.8389 42.7642 21.8493 42.737C21.8596 42.7098 21.8727 42.6773 21.8889 42.6409C21.905 42.6046 21.9248 42.5627 21.949 42.517L23.7168 43.4524ZM23.7197 43.4446L25.1339 44.8588L25.1349 44.8578L23.7207 43.4436L22.3065 42.0294L22.3055 42.0304L23.7197 43.4446ZM23.7207 43.4436L25.4987 44.3595L25.5153 44.3273L23.7373 43.4114L21.9594 42.4955L21.9428 42.5277L23.7207 43.4436ZM23.7373 43.4114L25.4246 44.4851L25.4451 44.4529L23.7578 43.3792L22.0705 42.3054L22.05 42.3376L23.7373 43.4114ZM23.7578 43.3792L25.4526 44.4411C28.3433 39.8275 30.491 36.7201 32.5397 34.3702L31.0322 33.0559L29.5247 31.7416C27.2592 34.3402 24.975 37.6698 22.063 42.3172L23.7578 43.3792ZM31.0322 33.0559L32.4139 31.6099C31.974 31.1895 31.5681 30.7972 31.2015 30.4299L29.7861 31.843L28.3708 33.2561C28.7706 33.6566 29.203 34.0743 29.6506 34.502L31.0322 33.0559ZM29.7861 31.843L31.2015 30.4299C28.9095 28.1343 26.8798 26.2826 24.9869 23.9889L23.4443 25.262L21.9018 26.535C23.9553 29.0232 26.2382 31.1201 28.3708 33.2561L29.7861 31.843ZM23.4443 25.262L25.0061 24.0126L24.9826 23.9833L23.4209 25.2327L21.8592 26.4821L21.8826 26.5114L23.4443 25.262ZM23.4209 25.2327L25.0449 24.0654L25.0225 24.0341L23.3984 25.2014L21.7744 26.3687L21.7969 26.3999L23.4209 25.2327ZM23.3984 25.2014L25.0327 24.0485C23.8512 22.3737 22.8105 20.9103 22.1356 19.8433L20.4453 20.9124L18.755 21.9814C19.4988 23.1573 20.6183 24.7301 21.7642 26.3543L23.3984 25.2014ZM20.4453 20.9124L22.1413 19.8524L22.1218 19.8211L20.4258 20.8811L18.7298 21.9411L18.7493 21.9724L20.4453 20.9124ZM20.4258 20.8811L22.1816 19.9234L22.164 19.8912L20.4082 20.8489L18.6524 21.8066L18.67 21.8388L20.4258 20.8811ZM20.4082 20.8489L22.1722 19.9063C22.0936 19.7593 22.0268 19.6158 21.9641 19.458L20.1055 20.1965L18.2468 20.9351C18.3655 21.2337 18.4957 21.5134 18.6442 21.7914L20.4082 20.8489ZM20.1055 20.1965L18.1163 19.9888C18.1001 20.1436 18.0824 20.3121 18.0654 20.4843L20.0557 20.6809L22.046 20.8776C22.0616 20.7193 22.0779 20.5644 22.0946 20.4043L20.1055 20.1965ZM20.0557 20.6809L18.0654 20.4843C18.0021 21.1242 17.9418 21.7879 17.8859 22.4116L19.8779 22.5901L21.87 22.7685C21.9257 22.1468 21.9846 21.4982 22.046 20.8776L20.0557 20.6809ZM19.8779 22.5901L17.8859 22.4116C17.8298 23.0377 17.7787 23.6162 17.7314 24.0944L19.7217 24.2913L21.712 24.4882C21.7616 23.9865 21.8149 23.3833 21.87 22.7685L19.8779 22.5901ZM19.7217 24.2913L17.7314 24.0942C17.7857 23.5462 18.2734 23.144 18.8244 23.1984L18.6279 25.1887L18.4314 27.179C20.0814 27.342 21.5489 26.1353 21.7119 24.4883L19.7217 24.2913ZM18.6279 25.1887L18.8254 23.1985C19.3773 23.2533 19.7759 23.7438 19.7217 24.2909L17.7314 24.094L15.7412 23.8971C15.5783 25.5432 16.7796 27.0151 18.4305 27.1789L18.6279 25.1887ZM17.7314 24.094L19.7217 24.2909C19.7702 23.8008 19.8224 23.2089 19.8778 22.5908L17.8857 22.4124L15.8937 22.2339C15.8372 22.8643 15.7873 23.4307 15.7412 23.8971L17.7314 24.094ZM17.8857 22.4124L19.8778 22.5908C19.9334 21.9699 19.9934 21.3115 20.0557 20.6803L18.0654 20.4836L16.0751 20.287C16.0109 20.9372 15.9496 21.6104 15.8937 22.2339L17.8857 22.4124ZM18.0654 20.4836L20.0557 20.6803C20.165 19.5744 20.2808 18.5789 20.4011 17.9964L18.4424 17.592L16.4837 17.1877C16.3139 18.0101 16.1811 19.2148 16.0751 20.287L18.0654 20.4836ZM18.4424 17.592L20.3916 18.0397L20.4551 17.7634L18.5059 17.3157L16.5566 16.868L16.4931 17.1443L18.4424 17.592ZM18.5059 17.3157L20.4411 17.8207L20.5631 17.3529L18.6279 16.8479L16.6927 16.3429L16.5707 16.8107L18.5059 17.3157ZM18.6279 16.8479L19.4342 18.6782L19.8776 18.4829L19.0713 16.6526L18.265 14.8223L17.8216 15.0176L18.6279 16.8479ZM19.0713 16.6526L19.8759 18.4836C19.8931 18.476 19.9365 18.4605 20.0181 18.4499C20.1007 18.4391 20.2072 18.4353 20.3393 18.4431L20.457 16.4465L20.5747 14.45C19.9467 14.413 19.1062 14.4526 18.2667 14.8216L19.0713 16.6526Z" fill="white" mask="url(#path-1-outside-1_34_137)"/>
</svg>
