<svg width="64" height="64" viewBox="0 0 64 64" fill="none" xmlns="http://www.w3.org/2000/svg">
<mask id="path-1-outside-1_34_157" maskUnits="userSpaceOnUse" x="19.0715" y="8.82324" width="27" height="43" fill="black">
<rect fill="white" x="19.0715" y="8.82324" width="27" height="43"/>
<path d="M27.4338 11.9785C28.169 12.2119 28.8514 12.7429 29.4495 13.2695C30.0291 13.78 30.742 14.4881 31.3665 15.0625C31.9531 15.5781 32.3457 15.8722 32.9963 16.1797C33.4953 16.4157 33.7084 17.0116 33.4729 17.5107C33.2369 18.0101 32.6402 18.2242 32.1409 17.9883C31.2609 17.5724 30.7112 17.1499 30.0461 16.5654L30.0374 16.5586L30.0295 16.5508C29.2745 15.8574 28.7255 15.2966 28.1282 14.7705C28.0481 14.7 27.9695 14.6359 27.8958 14.5742C27.9078 14.8597 27.9229 15.1352 27.9524 15.4102C28.107 16.4256 28.3938 17.4629 28.9172 18.7861L29.2454 19.6084C30.0058 21.5523 30.7233 23.6621 31.429 25.6797C31.5768 26.1025 31.726 26.5206 31.8733 26.9336C32.8447 24.7037 33.7733 22.5468 34.9875 20.4033L35.0061 20.3701L35.0276 20.3389C36.1524 18.6625 37.1838 17.1112 37.9778 16.0479L37.9993 16.0176L38.0237 15.9902C38.1817 15.8081 38.3448 15.6409 38.5256 15.4746C38.3726 15.5155 38.2152 15.5568 38.0549 15.6006C37.444 15.7677 36.8098 15.9468 36.2083 16.1172C35.6091 16.2869 35.0385 16.4483 34.5637 16.5781C34.031 16.7237 33.4809 16.4106 33.3352 15.8779C33.1898 15.3453 33.5037 14.795 34.0364 14.6494C34.4999 14.5227 35.0593 14.3642 35.6624 14.1934C36.2634 14.0231 36.9066 13.8407 37.5276 13.6709C38.5833 13.3822 39.6556 13.1058 40.3635 12.9902L40.6438 12.9502L41.1243 12.8975L41.4651 13.2412C41.8043 13.5844 42.0149 14.028 42.1526 14.4629C42.2929 14.9065 42.3796 15.411 42.428 15.9443C42.5247 17.0109 42.4789 18.3007 42.3352 19.6777V19.6875L42.3333 19.6953C42.1935 20.8455 42.0667 21.4821 41.9397 22.1191C41.8314 22.6604 41.3043 23.0113 40.7629 22.9033C40.2217 22.795 39.8709 22.2689 39.9788 21.7275C40.1009 21.1151 40.2159 20.5377 40.3459 19.4707C40.4652 18.3283 40.5063 17.3082 40.4612 16.4766C40.0204 16.7993 39.7766 17.0251 39.5588 17.2725C38.8112 18.2767 37.833 19.7453 36.7102 21.4189C35.2538 23.9961 34.2528 26.5454 32.9329 29.4951C32.9135 29.5383 32.8947 29.5821 32.8752 29.626C33.2098 30.4741 33.5481 31.274 33.8967 32.0059C35.2838 34.9178 37.388 38.1983 40.7463 42.9043C40.7484 42.9067 40.751 42.9094 40.7532 42.9121C40.7724 42.9354 40.8 42.9697 40.8352 43.0127C40.9063 43.0996 41.0084 43.2248 41.1311 43.3779C41.3762 43.684 41.7077 44.1062 42.053 44.5684C42.397 45.0289 42.7617 45.5395 43.0686 46.0195C43.3607 46.4763 43.6538 46.9854 43.7932 47.4229C43.9609 47.9491 43.67 48.512 43.1438 48.6797C42.6177 48.8471 42.0546 48.5563 41.887 48.0303C41.8335 47.8627 41.6692 47.5427 41.384 47.0967C41.1137 46.6738 40.7807 46.2065 40.4514 45.7656C40.1234 45.3265 39.8054 44.9223 39.5696 44.6279C39.4521 44.4812 39.3554 44.3622 39.2883 44.2803C39.2549 44.2395 39.2287 44.2077 39.2112 44.1865C39.2025 44.176 39.196 44.1673 39.1917 44.1621C39.1895 44.1596 39.1868 44.1574 39.1858 44.1562V44.1553L39.1614 44.127L39.1399 44.0957C35.7582 39.3583 33.5609 35.951 32.0911 32.8652C31.9883 32.6495 31.8872 32.4284 31.7864 32.2031C30.7934 34.6456 29.7055 37.5252 28.6868 40.2441C27.2725 44.0187 25.9698 47.5364 25.2737 48.9873C25.0346 49.4848 24.4374 49.6948 23.9397 49.4561C23.4419 49.2171 23.2321 48.6189 23.4709 48.1211C24.1168 46.7748 25.3732 43.3877 26.8137 39.543C28.0948 36.1238 29.5093 32.383 30.7131 29.5811C30.3141 28.5311 29.9251 27.4374 29.5413 26.3398C28.7234 24.0015 27.9246 21.6438 27.0657 19.5439L27.0618 19.5322C26.49 18.0887 26.1546 16.8967 25.9729 15.6934L25.97 15.6729L25.968 15.6523C25.9607 15.5862 25.9556 15.5199 25.9495 15.4541C25.7958 15.6328 25.6442 15.8166 25.4973 16.0039C24.7674 16.9341 24.2261 17.8411 24.0227 18.4707C23.8529 18.9962 23.2894 19.2849 22.7639 19.1152C22.2386 18.9454 21.9508 18.3819 22.1204 17.8564C22.4316 16.8932 23.1412 15.765 23.9231 14.7686C24.715 13.7594 25.6625 12.78 26.5315 12.1309L26.9426 11.8232L27.4338 11.9785Z"/>
</mask>
<path d="M27.4338 11.9785C28.169 12.2119 28.8514 12.7429 29.4495 13.2695C30.0291 13.78 30.742 14.4881 31.3665 15.0625C31.9531 15.5781 32.3457 15.8722 32.9963 16.1797C33.4953 16.4157 33.7084 17.0116 33.4729 17.5107C33.2369 18.0101 32.6402 18.2242 32.1409 17.9883C31.2609 17.5724 30.7112 17.1499 30.0461 16.5654L30.0374 16.5586L30.0295 16.5508C29.2745 15.8574 28.7255 15.2966 28.1282 14.7705C28.0481 14.7 27.9695 14.6359 27.8958 14.5742C27.9078 14.8597 27.9229 15.1352 27.9524 15.4102C28.107 16.4256 28.3938 17.4629 28.9172 18.7861L29.2454 19.6084C30.0058 21.5523 30.7233 23.6621 31.429 25.6797C31.5768 26.1025 31.726 26.5206 31.8733 26.9336C32.8447 24.7037 33.7733 22.5468 34.9875 20.4033L35.0061 20.3701L35.0276 20.3389C36.1524 18.6625 37.1838 17.1112 37.9778 16.0479L37.9993 16.0176L38.0237 15.9902C38.1817 15.8081 38.3448 15.6409 38.5256 15.4746C38.3726 15.5155 38.2152 15.5568 38.0549 15.6006C37.444 15.7677 36.8098 15.9468 36.2083 16.1172C35.6091 16.2869 35.0385 16.4483 34.5637 16.5781C34.031 16.7237 33.4809 16.4106 33.3352 15.8779C33.1898 15.3453 33.5037 14.795 34.0364 14.6494C34.4999 14.5227 35.0593 14.3642 35.6624 14.1934C36.2634 14.0231 36.9066 13.8407 37.5276 13.6709C38.5833 13.3822 39.6556 13.1058 40.3635 12.9902L40.6438 12.9502L41.1243 12.8975L41.4651 13.2412C41.8043 13.5844 42.0149 14.028 42.1526 14.4629C42.2929 14.9065 42.3796 15.411 42.428 15.9443C42.5247 17.0109 42.4789 18.3007 42.3352 19.6777V19.6875L42.3333 19.6953C42.1935 20.8455 42.0667 21.4821 41.9397 22.1191C41.8314 22.6604 41.3043 23.0113 40.7629 22.9033C40.2217 22.795 39.8709 22.2689 39.9788 21.7275C40.1009 21.1151 40.2159 20.5377 40.3459 19.4707C40.4652 18.3283 40.5063 17.3082 40.4612 16.4766C40.0204 16.7993 39.7766 17.0251 39.5588 17.2725C38.8112 18.2767 37.833 19.7453 36.7102 21.4189C35.2538 23.9961 34.2528 26.5454 32.9329 29.4951C32.9135 29.5383 32.8947 29.5821 32.8752 29.626C33.2098 30.4741 33.5481 31.274 33.8967 32.0059C35.2838 34.9178 37.388 38.1983 40.7463 42.9043C40.7484 42.9067 40.751 42.9094 40.7532 42.9121C40.7724 42.9354 40.8 42.9697 40.8352 43.0127C40.9063 43.0996 41.0084 43.2248 41.1311 43.3779C41.3762 43.684 41.7077 44.1062 42.053 44.5684C42.397 45.0289 42.7617 45.5395 43.0686 46.0195C43.3607 46.4763 43.6538 46.9854 43.7932 47.4229C43.9609 47.9491 43.67 48.512 43.1438 48.6797C42.6177 48.8471 42.0546 48.5563 41.887 48.0303C41.8335 47.8627 41.6692 47.5427 41.384 47.0967C41.1137 46.6738 40.7807 46.2065 40.4514 45.7656C40.1234 45.3265 39.8054 44.9223 39.5696 44.6279C39.4521 44.4812 39.3554 44.3622 39.2883 44.2803C39.2549 44.2395 39.2287 44.2077 39.2112 44.1865C39.2025 44.176 39.196 44.1673 39.1917 44.1621C39.1895 44.1596 39.1868 44.1574 39.1858 44.1562V44.1553L39.1614 44.127L39.1399 44.0957C35.7582 39.3583 33.5609 35.951 32.0911 32.8652C31.9883 32.6495 31.8872 32.4284 31.7864 32.2031C30.7934 34.6456 29.7055 37.5252 28.6868 40.2441C27.2725 44.0187 25.9698 47.5364 25.2737 48.9873C25.0346 49.4848 24.4374 49.6948 23.9397 49.4561C23.4419 49.2171 23.2321 48.6189 23.4709 48.1211C24.1168 46.7748 25.3732 43.3877 26.8137 39.543C28.0948 36.1238 29.5093 32.383 30.7131 29.5811C30.3141 28.5311 29.9251 27.4374 29.5413 26.3398C28.7234 24.0015 27.9246 21.6438 27.0657 19.5439L27.0618 19.5322C26.49 18.0887 26.1546 16.8967 25.9729 15.6934L25.97 15.6729L25.968 15.6523C25.9607 15.5862 25.9556 15.5199 25.9495 15.4541C25.7958 15.6328 25.6442 15.8166 25.4973 16.0039C24.7674 16.9341 24.2261 17.8411 24.0227 18.4707C23.8529 18.9962 23.2894 19.2849 22.7639 19.1152C22.2386 18.9454 21.9508 18.3819 22.1204 17.8564C22.4316 16.8932 23.1412 15.765 23.9231 14.7686C24.715 13.7594 25.6625 12.78 26.5315 12.1309L26.9426 11.8232L27.4338 11.9785Z" fill="black"/>
<path d="M27.4338 11.9785L28.0391 10.0723L28.0366 10.0715L27.4338 11.9785ZM29.4495 13.2695L30.7713 11.7686L30.7712 11.7686L29.4495 13.2695ZM31.3665 15.0625L30.0125 16.5345L30.0292 16.5498L30.0462 16.5648L31.3665 15.0625ZM32.9963 16.1797L33.8514 14.3717L33.8508 14.3714L32.9963 16.1797ZM33.4729 17.5107L35.2812 18.3652L35.2816 18.3643L33.4729 17.5107ZM32.1409 17.9883L31.2863 19.7965L31.2864 19.7966L32.1409 17.9883ZM30.0461 16.5654L31.3664 15.0632L31.3214 15.0236L31.274 14.9867L30.0461 16.5654ZM30.0374 16.5586L28.6231 17.9728L28.7112 18.0609L28.8095 18.1373L30.0374 16.5586ZM30.0295 16.5508L31.4438 15.1366L31.4137 15.1065L31.3823 15.0777L30.0295 16.5508ZM28.1282 14.7705L29.45 13.2696L29.45 13.2696L28.1282 14.7705ZM27.8958 14.5742L29.1783 13.0396L25.7072 10.1386L25.8975 14.6584L27.8958 14.5742ZM27.9524 15.4102L25.9638 15.6237L25.9685 15.6676L25.9752 15.7112L27.9524 15.4102ZM28.9172 18.7861L27.0575 19.5219L27.0597 19.5274L28.9172 18.7861ZM29.2454 19.6084L31.1079 18.8797L31.1029 18.8671L29.2454 19.6084ZM31.429 25.6797L29.5411 26.34L29.5411 26.34L31.429 25.6797ZM31.8733 26.9336L29.9895 27.6055L31.6878 32.3671L33.7069 27.7324L31.8733 26.9336ZM34.9875 20.4033L36.7278 21.3891L36.7334 21.379L34.9875 20.4033ZM35.0061 20.3701L33.358 19.2371L33.3055 19.3135L33.2602 19.3945L35.0061 20.3701ZM35.0276 20.3389L36.6757 21.4719L36.6821 21.4626L36.6884 21.4532L35.0276 20.3389ZM37.9778 16.0479L39.5803 17.2445L39.5948 17.2251L39.6088 17.2053L37.9778 16.0479ZM37.9993 16.0176L36.5074 14.6855L36.4329 14.7689L36.3683 14.8601L37.9993 16.0176ZM38.0237 15.9902L39.5156 17.3223L39.525 17.3117L39.5343 17.3009L38.0237 15.9902ZM38.5256 15.4746L39.8796 16.9466L38.0088 13.5425L38.5256 15.4746ZM38.0549 15.6006L37.5274 13.6714L37.5274 13.6714L38.0549 15.6006ZM36.2083 16.1172L36.7534 18.0414L36.7534 18.0414L36.2083 16.1172ZM34.5637 16.5781L35.091 18.5074L35.0911 18.5074L34.5637 16.5781ZM33.3352 15.8779L31.4058 16.4048L31.4061 16.4056L33.3352 15.8779ZM34.0364 14.6494L34.5637 16.5786L34.5637 16.5786L34.0364 14.6494ZM35.6624 14.1934L35.1172 12.2691L35.1172 12.2691L35.6624 14.1934ZM37.5276 13.6709L37 11.7417L37 11.7417L37.5276 13.6709ZM40.3635 12.9902L40.0807 11.0103L40.061 11.0132L40.0413 11.0164L40.3635 12.9902ZM40.6438 12.9502L40.4256 10.9621L40.3932 10.9657L40.361 10.9703L40.6438 12.9502ZM41.1243 12.8975L42.5445 11.4893L41.8652 10.8041L40.9061 10.9094L41.1243 12.8975ZM41.4651 13.2412L42.8876 11.8354L42.8853 11.8331L41.4651 13.2412ZM42.1526 14.4629L44.0594 13.8596L44.0594 13.8594L42.1526 14.4629ZM42.428 15.9443L44.4198 15.7638L44.4198 15.7637L42.428 15.9443ZM42.3352 19.6777L40.346 19.4702L40.3352 19.5737V19.6777H42.3352ZM42.3352 19.6875L44.2755 20.1726L44.3352 19.9337V19.6875H42.3352ZM42.3333 19.6953L40.393 19.2102L40.3628 19.3308L40.3478 19.4541L42.3333 19.6953ZM41.9397 22.1191L43.9008 22.5116L43.9011 22.5103L41.9397 22.1191ZM40.7629 22.9033L40.3705 24.8644L40.3718 24.8647L40.7629 22.9033ZM39.9788 21.7275L38.0174 21.3364L38.0173 21.3367L39.9788 21.7275ZM40.3459 19.4707L42.3312 19.7127L42.3333 19.6955L42.3351 19.6783L40.3459 19.4707ZM40.4612 16.4766L42.4582 16.3683L42.2584 12.6819L39.2797 14.8629L40.4612 16.4766ZM39.5588 17.2725L38.0577 15.9509L38.0036 16.0124L37.9546 16.0781L39.5588 17.2725ZM36.7102 21.4189L35.0494 20.3047L35.0067 20.3683L34.969 20.435L36.7102 21.4189ZM32.9329 29.4951L31.1073 28.6782L31.1073 28.6782L32.9329 29.4951ZM32.8752 29.626L31.0476 28.8138L30.7071 29.58L31.0148 30.3599L32.8752 29.626ZM33.8967 32.0059L32.0911 32.8659L32.0911 32.8659L33.8967 32.0059ZM40.7463 42.9043L39.1184 44.0661L39.1657 44.1324L39.2182 44.1946L40.7463 42.9043ZM40.7532 42.9121L42.2949 41.6381L42.2948 41.6379L40.7532 42.9121ZM40.8352 43.0127L39.2878 44.2798L39.2879 44.2799L40.8352 43.0127ZM41.1311 43.3779L42.6921 42.1276L42.6921 42.1276L41.1311 43.3779ZM42.053 44.5684L43.6553 43.3714L43.6553 43.3714L42.053 44.5684ZM43.0686 46.0195L44.7536 44.9422L44.7536 44.9421L43.0686 46.0195ZM43.7932 47.4229L45.6988 46.8158L45.6988 46.8157L43.7932 47.4229ZM43.1438 48.6797L43.7502 50.5856L43.7509 50.5853L43.1438 48.6797ZM41.887 48.0303L43.7925 47.4229L43.7925 47.4228L41.887 48.0303ZM41.384 47.0967L43.0691 46.0194L43.069 46.0193L41.384 47.0967ZM40.4514 45.7656L42.0537 44.5687L42.0537 44.5687L40.4514 45.7656ZM39.5696 44.6279L41.1306 43.3776L41.1306 43.3776L39.5696 44.6279ZM39.2883 44.2803L40.8357 43.0131L40.8356 43.013L39.2883 44.2803ZM39.2112 44.1865L40.7527 42.9123L40.7526 42.9122L39.2112 44.1865ZM39.1917 44.1621L40.7306 42.8848L40.7255 42.8786L40.7203 42.8724L39.1917 44.1621ZM39.1858 44.1562H37.1858V44.8789L37.6477 45.4347L39.1858 44.1562ZM39.1858 44.1553H41.1858V43.4122L40.7006 42.8494L39.1858 44.1553ZM39.1614 44.127L37.5133 45.26L37.5752 45.3501L37.6466 45.4328L39.1614 44.127ZM39.1399 44.0957L40.788 42.9626L40.778 42.9481L40.7677 42.9337L39.1399 44.0957ZM32.0911 32.8652L30.2854 33.7253L30.2854 33.7253L32.0911 32.8652ZM31.7864 32.2031L33.6118 31.3859L31.6978 27.1107L29.9336 31.4499L31.7864 32.2031ZM28.6868 40.2441L26.8139 39.5424L26.8139 39.5424L28.6868 40.2441ZM25.2737 48.9873L27.0763 49.8536L27.0769 49.8524L25.2737 48.9873ZM23.9397 49.4561L23.0741 51.259L23.0747 51.2593L23.9397 49.4561ZM23.4709 48.1211L25.2742 48.9862L25.2742 48.9861L23.4709 48.1211ZM26.8137 39.543L28.6866 40.2447L28.6866 40.2447L26.8137 39.543ZM30.7131 29.5811L32.5507 30.3706L32.8702 29.627L32.5827 28.8706L30.7131 29.5811ZM29.5413 26.3398L27.6534 27.0001L27.6534 27.0001L29.5413 26.3398ZM27.0657 19.5439L25.1683 20.1764L25.1893 20.2395L25.2145 20.3011L27.0657 19.5439ZM27.0618 19.5322L28.9591 18.8998L28.9416 18.8472L28.9212 18.7958L27.0618 19.5322ZM25.9729 15.6934L23.993 15.9762L23.9941 15.9841L23.9953 15.992L25.9729 15.6934ZM25.97 15.6729L23.979 15.8625L23.9834 15.9092L23.9901 15.9557L25.97 15.6729ZM25.968 15.6523L27.959 15.4627L27.9576 15.4482L27.956 15.4338L25.968 15.6523ZM25.9495 15.4541L27.9409 15.2696L27.5062 10.5759L24.433 14.1502L25.9495 15.4541ZM25.4973 16.0039L23.9239 14.7693L23.9238 14.7693L25.4973 16.0039ZM24.0227 18.4707L25.9258 19.0856L25.9258 19.0856L24.0227 18.4707ZM22.7639 19.1152L22.1488 21.0183L22.1494 21.0185L22.7639 19.1152ZM22.1204 17.8564L20.2172 17.2416L20.217 17.2422L22.1204 17.8564ZM23.9231 14.7686L22.3496 13.534L22.3496 13.534L23.9231 14.7686ZM26.5315 12.1309L27.7285 13.7331L27.7297 13.7322L26.5315 12.1309ZM26.9426 11.8232L27.5454 9.91625L26.5665 9.6068L25.7445 10.2219L26.9426 11.8232ZM27.4338 11.9785L26.8286 13.8847C27.1326 13.9813 27.5454 14.2577 28.1277 14.7705L29.4495 13.2695L30.7712 11.7686C30.1574 11.228 29.2054 10.4426 28.0391 10.0723L27.4338 11.9785ZM29.4495 13.2695L28.1276 14.7704C28.7112 15.2844 29.2763 15.8573 30.0125 16.5345L31.3665 15.0625L32.7204 13.5905C32.2076 13.1188 31.3469 12.2755 30.7713 11.7686L29.4495 13.2695ZM31.3665 15.0625L30.0462 16.5648C30.7107 17.1488 31.261 17.5717 32.1418 17.988L32.9963 16.1797L33.8508 14.3714C33.4305 14.1728 33.1955 14.0074 32.6868 13.5602L31.3665 15.0625ZM32.9963 16.1797L32.1413 17.9877C31.6411 17.7511 31.4292 17.1552 31.6642 16.6572L33.4729 17.5107L35.2816 18.3643C35.9877 16.868 35.3495 15.0802 33.8514 14.3717L32.9963 16.1797ZM33.4729 17.5107L31.6646 16.6562C31.9 16.1582 32.4947 15.9434 32.9954 16.18L32.1409 17.9883L31.2864 19.7966C32.7857 20.5051 34.5739 19.8619 35.2812 18.3652L33.4729 17.5107ZM32.1409 17.9883L32.9954 16.18C32.3456 15.8729 31.9536 15.5792 31.3664 15.0632L30.0461 16.5654L28.7259 18.0677C29.4688 18.7206 30.1761 19.2718 31.2863 19.7965L32.1409 17.9883ZM30.0461 16.5654L31.274 14.9867L31.2652 14.9799L30.0374 16.5586L28.8095 18.1373L28.8183 18.1441L30.0461 16.5654ZM30.0374 16.5586L31.4516 15.1444L31.4438 15.1366L30.0295 16.5508L28.6153 17.965L28.6231 17.9728L30.0374 16.5586ZM30.0295 16.5508L31.3823 15.0777C30.7621 14.5081 30.0306 13.781 29.45 13.2696L28.1282 14.7705L26.8063 16.2714C27.4203 16.8122 27.7869 17.2067 28.6768 18.0239L30.0295 16.5508ZM28.1282 14.7705L29.45 13.2696C29.3441 13.1764 29.2294 13.0823 29.1783 13.0396L27.8958 14.5742L26.6132 16.1088C26.7096 16.1894 26.7522 16.2237 26.8064 16.2715L28.1282 14.7705ZM27.8958 14.5742L25.8975 14.6584C25.9101 14.956 25.9273 15.2832 25.9638 15.6237L27.9524 15.4102L29.941 15.1966C29.9185 14.9873 29.9055 14.7633 29.894 14.4901L27.8958 14.5742ZM27.9524 15.4102L25.9752 15.7112C26.1572 16.9067 26.4916 18.0913 27.0575 19.5219L28.9172 18.7861L30.777 18.0504C30.296 16.8345 30.0568 15.9445 29.9296 15.1091L27.9524 15.4102ZM28.9172 18.7861L27.0597 19.5274L27.3878 20.3497L29.2454 19.6084L31.1029 18.8671L30.7748 18.0449L28.9172 18.7861ZM29.2454 19.6084L27.3828 20.337C28.1261 22.2369 28.8266 24.297 29.5411 26.34L31.429 25.6797L33.3168 25.0194C32.6201 23.0273 31.8856 20.8676 31.1079 18.8797L29.2454 19.6084ZM31.429 25.6797L29.5411 26.34C29.6913 26.7696 29.8426 27.1935 29.9895 27.6055L31.8733 26.9336L33.7571 26.2617C33.6094 25.8477 33.4623 25.4354 33.3168 25.0194L31.429 25.6797ZM31.8733 26.9336L33.7069 27.7324C34.6875 25.4812 35.5746 23.4248 36.7277 21.3891L34.9875 20.4033L33.2474 19.4176C31.9721 21.6689 31.0019 23.9262 30.0397 26.1348L31.8733 26.9336ZM34.9875 20.4033L36.7334 21.379L36.752 21.3458L35.0061 20.3701L33.2602 19.3945L33.2417 19.4277L34.9875 20.4033ZM35.0061 20.3701L36.6542 21.5032L36.6757 21.4719L35.0276 20.3389L33.3795 19.2058L33.358 19.2371L35.0061 20.3701ZM35.0276 20.3389L36.6884 21.4532C37.8307 19.7507 38.8249 18.2561 39.5803 17.2445L37.9778 16.0479L36.3753 14.8512C35.5427 15.9662 34.4741 17.5742 33.3668 19.2245L35.0276 20.3389ZM37.9778 16.0479L39.6088 17.2053L39.6303 17.1751L37.9993 16.0176L36.3683 14.8601L36.3468 14.8904L37.9778 16.0479ZM37.9993 16.0176L39.4911 17.3496L39.5156 17.3223L38.0237 15.9902L36.5318 14.6582L36.5074 14.6855L37.9993 16.0176ZM38.0237 15.9902L39.5343 17.3009C39.6408 17.1782 39.7513 17.0646 39.8796 16.9466L38.5256 15.4746L37.1717 14.0026C36.9383 14.2172 36.7225 14.4381 36.513 14.6795L38.0237 15.9902ZM38.5256 15.4746L38.0088 13.5425C37.8699 13.5797 37.6941 13.6258 37.5274 13.6714L38.0549 15.6006L38.5825 17.5298C38.7362 17.4877 38.8753 17.4514 39.0424 17.4067L38.5256 15.4746ZM38.0549 15.6006L37.5274 13.6714C36.9067 13.8412 36.2646 14.0225 35.6631 14.1929L36.2083 16.1172L36.7534 18.0414C37.355 17.871 37.9813 17.6942 38.5825 17.5297L38.0549 15.6006ZM36.2083 16.1172L35.6631 14.1929C35.062 14.3632 34.5006 14.522 34.0364 14.6489L34.5637 16.5781L35.0911 18.5074C35.5764 18.3747 36.1563 18.2106 36.7534 18.0414L36.2083 16.1172ZM34.5637 16.5781L34.0364 14.6489C34.5668 14.5039 35.118 14.8153 35.2643 15.3502L33.3352 15.8779L31.4061 16.4056C31.8438 18.0058 33.4953 18.9435 35.091 18.5074L34.5637 16.5781ZM33.3352 15.8779L35.2646 15.3511C35.4099 15.8834 35.0968 16.4329 34.5637 16.5786L34.0364 14.6494L33.5091 12.7202C31.9107 13.1571 30.9696 14.8072 31.4058 16.4048L33.3352 15.8779ZM34.0364 14.6494L34.5637 16.5786C35.0381 16.449 35.6074 16.2876 36.2075 16.1176L35.6624 14.1934L35.1172 12.2691C34.5112 12.4408 33.9618 12.5964 33.509 12.7202L34.0364 14.6494ZM35.6624 14.1934L36.2075 16.1176C36.8105 15.9468 37.4446 15.767 38.0552 15.6001L37.5276 13.6709L37 11.7417C36.3686 11.9144 35.7163 12.0993 35.1172 12.2691L35.6624 14.1934ZM37.5276 13.6709L38.0552 15.6001C39.1259 15.3072 40.0983 15.06 40.6857 14.9641L40.3635 12.9902L40.0413 11.0164C39.2129 11.1516 38.0407 11.4571 37 11.7417L37.5276 13.6709ZM40.3635 12.9902L40.6464 14.9701L40.9266 14.9301L40.6438 12.9502L40.361 10.9703L40.0807 11.0103L40.3635 12.9902ZM40.6438 12.9502L40.862 14.9383L41.3425 14.8855L41.1243 12.8975L40.9061 10.9094L40.4256 10.9621L40.6438 12.9502ZM41.1243 12.8975L39.704 14.3056L40.0448 14.6494L41.4651 13.2412L42.8853 11.8331L42.5445 11.4893L41.1243 12.8975ZM41.4651 13.2412L40.0425 14.647C40.0551 14.6597 40.0849 14.6943 40.1241 14.7671C40.1639 14.8407 40.2056 14.9393 40.2458 15.0663L42.1526 14.4629L44.0594 13.8594C43.8702 13.2616 43.5334 12.4888 42.8876 11.8354L41.4651 13.2412ZM42.1526 14.4629L40.2457 15.0662C40.3292 15.33 40.3961 15.6828 40.4362 16.125L42.428 15.9443L44.4198 15.7637C44.3632 15.1392 44.2567 14.483 44.0594 13.8596L42.1526 14.4629ZM42.428 15.9443L40.4361 16.1249C40.5166 17.0127 40.4826 18.1608 40.346 19.4702L42.3352 19.6777L44.3244 19.8853C44.4751 18.4406 44.5327 17.009 44.4198 15.7638L42.428 15.9443ZM42.3352 19.6777H40.3352V19.6875H42.3352H44.3352V19.6777H42.3352ZM42.3352 19.6875L40.3949 19.2024L40.393 19.2102L42.3333 19.6953L44.2735 20.1804L44.2755 20.1726L42.3352 19.6875ZM42.3333 19.6953L40.3478 19.4541C40.2169 20.5319 40.1011 21.1125 39.9783 21.728L41.9397 22.1191L43.9011 22.5103C44.0324 21.8517 44.1701 21.159 44.3187 19.9365L42.3333 19.6953ZM41.9397 22.1191L39.9786 21.7267C40.0873 21.1833 40.6148 20.8344 41.1541 20.9419L40.7629 22.9033L40.3718 24.8647C41.9939 25.1882 43.5755 24.1374 43.9008 22.5116L41.9397 22.1191ZM40.7629 22.9033L41.1554 20.9422C41.6971 21.0506 42.048 21.5775 41.9402 22.1184L39.9788 21.7275L38.0173 21.3367C37.6938 22.9602 38.7464 24.5394 40.3705 24.8644L40.7629 22.9033ZM39.9788 21.7275L41.9401 22.1187C42.0666 21.4846 42.1924 20.8516 42.3312 19.7127L40.3459 19.4707L38.3606 19.2287C38.2393 20.2238 38.1352 20.7456 38.0174 21.3364L39.9788 21.7275ZM40.3459 19.4707L42.3351 19.6783C42.4611 18.4715 42.5109 17.3394 42.4582 16.3683L40.4612 16.4766L38.4641 16.5848C38.5016 17.277 38.4692 18.185 38.3567 19.2631L40.3459 19.4707ZM40.4612 16.4766L39.2797 14.8629C38.7504 15.2504 38.3919 15.5713 38.0577 15.9509L39.5588 17.2725L41.06 18.594C41.1614 18.4789 41.2903 18.3483 41.6427 18.0903L40.4612 16.4766ZM39.5588 17.2725L37.9546 16.0781C37.1696 17.1325 36.1558 18.6555 35.0494 20.3047L36.7102 21.4189L38.3711 22.5332C39.5103 20.8351 40.4527 19.4209 41.1631 18.4668L39.5588 17.2725ZM36.7102 21.4189L34.969 20.435C33.4512 23.1207 32.3803 25.8336 31.1073 28.6782L32.9329 29.4951L34.7584 30.312C36.1254 27.2572 37.0564 24.8714 38.4514 22.4029L36.7102 21.4189ZM32.9329 29.4951L31.1073 28.6782C31.0938 28.7083 31.0813 28.737 31.0718 28.7587C31.0613 28.7826 31.0544 28.7983 31.0476 28.8138L32.8752 29.626L34.7029 30.4382C34.7503 30.3316 34.7264 30.3835 34.7584 30.312L32.9329 29.4951ZM32.8752 29.626L31.0148 30.3599C31.3597 31.2344 31.7165 32.0794 32.0911 32.8659L33.8967 32.0059L35.7023 31.1458C35.3798 30.4686 35.0599 29.7138 34.7357 28.892L32.8752 29.626ZM33.8967 32.0059L32.0911 32.8659C33.5579 35.9453 35.749 39.3446 39.1184 44.0661L40.7463 42.9043L42.3743 41.7425C39.0271 37.0521 37.0097 33.8904 35.7023 31.1458L33.8967 32.0059ZM40.7463 42.9043L39.2182 44.1946C39.2259 44.2037 39.2326 44.2114 39.2378 44.2175C39.2431 44.2235 39.2475 44.2286 39.2507 44.2321C39.2538 44.2356 39.2563 44.2384 39.2575 44.2398C39.2581 44.2405 39.2587 44.2411 39.2589 44.2413C39.2592 44.2416 39.259 44.2415 39.2589 44.2413C39.2585 44.241 39.257 44.2392 39.255 44.2369C39.2529 44.2346 39.2497 44.231 39.2459 44.2266C39.2386 44.2182 39.2264 44.2042 39.2116 44.1863L40.7532 42.9121L42.2948 41.6379C42.2789 41.6187 42.2655 41.6033 42.257 41.5935C42.2487 41.584 42.2419 41.5765 42.2405 41.5749C42.2403 41.5746 42.24 41.5744 42.2399 41.5742C42.2398 41.5741 42.2398 41.5741 42.2397 41.574C42.2397 41.5739 42.2397 41.5739 42.2396 41.5739C42.2395 41.5738 42.2398 41.574 42.2401 41.5744C42.2407 41.5751 42.2427 41.5773 42.2452 41.5802C42.2498 41.5854 42.2607 41.5977 42.2744 41.614L40.7463 42.9043ZM40.7532 42.9121L39.2115 44.1861C39.2323 44.2113 39.2308 44.2102 39.2878 44.2798L40.8352 43.0127L42.3826 41.7456C42.3678 41.7275 42.3544 41.711 42.3403 41.6937C42.3281 41.6787 42.3108 41.6574 42.2949 41.6381L40.7532 42.9121ZM40.8352 43.0127L39.2879 44.2799C39.3561 44.3632 39.4534 44.4825 39.5701 44.6282L41.1311 43.3779L42.6921 42.1276C42.5635 41.967 42.4565 41.8359 42.3825 41.7455L40.8352 43.0127ZM41.1311 43.3779L39.5701 44.6282C39.8051 44.9216 40.1222 45.3256 40.4507 45.7653L42.053 44.5684L43.6553 43.3714C43.2932 42.8868 42.9473 42.4463 42.6921 42.1276L41.1311 43.3779ZM42.053 44.5684L40.4507 45.7653C40.7797 46.2057 41.1129 46.6735 41.3836 47.0969L43.0686 46.0195L44.7536 44.9421C44.4104 44.4054 44.0143 43.8521 43.6553 43.3714L42.053 44.5684ZM43.0686 46.0195L41.3836 47.0969C41.669 47.5433 41.8342 47.8625 41.8876 48.03L43.7932 47.4229L45.6988 46.8157C45.4734 46.1083 45.0523 45.4093 44.7536 44.9422L43.0686 46.0195ZM43.7932 47.4229L41.8876 48.03C41.72 47.504 42.0102 46.9418 42.5367 46.7741L43.1438 48.6797L43.7509 50.5853C45.3299 50.0823 46.2017 48.3941 45.6988 46.8158L43.7932 47.4229ZM43.1438 48.6797L42.5374 46.7738C43.0626 46.6067 43.6245 46.896 43.7925 47.4229L41.887 48.0303L39.9814 48.6377C40.4847 50.2166 42.1728 51.0874 43.7502 50.5856L43.1438 48.6797ZM41.887 48.0303L43.7925 47.4228C43.653 46.9854 43.3607 46.4755 43.0691 46.0194L41.384 47.0967L39.699 48.174C39.8202 48.3636 39.9041 48.5084 39.9569 48.6076C39.9832 48.657 39.9977 48.6874 40.0036 48.7005C40.0117 48.7183 39.9993 48.6939 39.9815 48.6378L41.887 48.0303ZM41.384 47.0967L43.069 46.0193C42.7623 45.5397 42.3979 45.0295 42.0537 44.5687L40.4514 45.7656L38.8491 46.9625C39.1635 47.3834 39.465 47.808 39.699 48.1741L41.384 47.0967ZM40.4514 45.7656L42.0537 44.5687C41.708 44.106 41.3754 43.6832 41.1306 43.3776L39.5696 44.6279L38.0086 45.8782C38.2354 46.1615 38.5387 46.547 38.8491 46.9626L40.4514 45.7656ZM39.5696 44.6279L41.1306 43.3776C41.0087 43.2255 40.9075 43.1008 40.8357 43.0131L39.2883 44.2803L37.741 45.5475C37.8033 45.6236 37.8954 45.737 38.0086 45.8783L39.5696 44.6279ZM39.2883 44.2803L40.8356 43.013C40.7996 42.9691 40.7713 42.9348 40.7527 42.9123L39.2112 44.1865L37.6696 45.4607C37.6861 45.4807 37.7103 45.5099 37.741 45.5475L39.2883 44.2803ZM39.2112 44.1865L40.7526 42.9122C40.7639 42.9258 40.772 42.9362 40.7716 42.9356C40.7708 42.9347 40.7716 42.9356 40.7697 42.9332C40.7686 42.9318 40.7663 42.9289 40.7636 42.9254C40.7608 42.922 40.7566 42.9167 40.7516 42.9104C40.7466 42.9042 40.7394 42.8953 40.7306 42.8848L39.1917 44.1621L37.6527 45.4394C37.645 45.4302 37.639 45.4227 37.6352 45.418C37.6313 45.4132 37.6284 45.4096 37.627 45.4078C37.6257 45.4061 37.6248 45.405 37.6252 45.4055C37.6254 45.4058 37.6256 45.406 37.6261 45.4067C37.6266 45.4072 37.6272 45.4081 37.628 45.4091C37.6341 45.4168 37.6498 45.4367 37.6698 45.4609L39.2112 44.1865ZM39.1917 44.1621L40.7203 42.8724C40.6971 42.8449 40.6757 42.821 40.6572 42.8011C40.6386 42.7811 40.6219 42.7638 40.6079 42.7498C40.5939 42.7357 40.5817 42.7239 40.5723 42.7149C40.563 42.706 40.5554 42.6989 40.5511 42.6949C40.549 42.6929 40.5473 42.6913 40.5466 42.6907C40.5463 42.6904 40.5459 42.6901 40.546 42.6901C40.546 42.6901 40.546 42.6902 40.5461 42.6902C40.5461 42.6902 40.5461 42.6903 40.5462 42.6903C40.5463 42.6904 40.5465 42.6906 40.5467 42.6908C40.5474 42.6914 40.5495 42.6934 40.5522 42.6959C40.5549 42.6984 40.559 42.7023 40.5641 42.7071C40.5692 42.7119 40.5761 42.7185 40.5842 42.7264C40.5922 42.7343 40.6027 42.7446 40.6147 42.757C40.6267 42.7692 40.642 42.7851 40.6595 42.8041C40.6683 42.8137 40.6781 42.8247 40.6887 42.8367C40.6993 42.8488 40.7111 42.8625 40.7239 42.8778L39.1858 44.1562L37.6477 45.4347C37.6728 45.4649 37.6952 45.4899 37.7125 45.5089C37.7301 45.528 37.7456 45.5441 37.7577 45.5565C37.77 45.569 37.7806 45.5795 37.7888 45.5876C37.7971 45.5957 37.8042 45.6025 37.8095 45.6075C37.8148 45.6125 37.8192 45.6167 37.8222 45.6194C37.8251 45.6221 37.8274 45.6243 37.8283 45.6252C37.8289 45.6256 37.8293 45.626 37.8294 45.6261C37.8296 45.6263 37.8294 45.6261 37.8292 45.6259C37.8288 45.6255 37.8273 45.6242 37.8254 45.6224C37.8217 45.619 37.8147 45.6124 37.8059 45.604C37.7971 45.5956 37.7855 45.5843 37.7721 45.5708C37.7587 45.5573 37.7425 45.5407 37.7245 45.5213C37.7065 45.5019 37.6857 45.4787 37.663 45.4518L39.1917 44.1621ZM39.1858 44.1562H41.1858V44.1553H39.1858H37.1858V44.1562H39.1858ZM39.1858 44.1553L40.7006 42.8494L40.6762 42.8211L39.1614 44.127L37.6466 45.4328L37.671 45.4612L39.1858 44.1553ZM39.1614 44.127L40.8095 42.9939L40.788 42.9626L39.1399 44.0957L37.4918 45.2288L37.5133 45.26L39.1614 44.127ZM39.1399 44.0957L40.7677 42.9337C37.397 38.2118 35.2868 34.9234 33.8967 32.0052L32.0911 32.8652L30.2854 33.7253C31.8351 36.9787 34.1193 40.5049 37.5121 45.2577L39.1399 44.0957ZM32.0911 32.8652L33.8967 32.0052C33.8029 31.8082 33.7087 31.6023 33.6118 31.3859L31.7864 32.2031L29.961 33.0204C30.0658 33.2545 30.1737 33.4908 30.2854 33.7253L32.0911 32.8652ZM31.7864 32.2031L29.9336 31.4499C28.9289 33.9213 27.8321 36.825 26.8139 39.5424L28.6868 40.2441L30.5596 40.9459C31.579 38.2253 32.6579 35.3699 33.6391 32.9564L31.7864 32.2031ZM28.6868 40.2441L26.8139 39.5424C25.3735 43.3867 24.1163 46.7761 23.4705 48.1222L25.2737 48.9873L27.0769 49.8524C27.8233 48.2967 29.1715 44.6507 30.5596 40.9459L28.6868 40.2441ZM25.2737 48.9873L23.471 48.121C23.7098 47.6242 24.3063 47.4137 24.8047 47.6528L23.9397 49.4561L23.0747 51.2593C24.5686 51.9759 26.3594 51.3455 27.0763 49.8536L25.2737 48.9873ZM23.9397 49.4561L24.8053 47.6531C25.3042 47.8926 25.5125 48.4895 25.2742 48.9862L23.4709 48.1211L21.6677 47.256C20.9517 48.7484 21.5797 50.5415 23.0741 51.259L23.9397 49.4561ZM23.4709 48.1211L25.2742 48.9861C25.9703 47.5349 27.2725 44.0188 28.6866 40.2447L26.8137 39.543L24.9409 38.8412C23.4739 42.7566 22.2632 46.0146 21.6677 47.2561L23.4709 48.1211ZM26.8137 39.543L28.6866 40.2447C29.971 36.8167 31.3688 33.1214 32.5507 30.3706L30.7131 29.5811L28.8756 28.7915C27.6497 31.6447 26.2187 35.4309 24.9409 38.8412L26.8137 39.543ZM30.7131 29.5811L32.5827 28.8706C32.1933 27.846 31.8114 26.7726 31.4291 25.6796L29.5413 26.3398L27.6534 27.0001C28.0389 28.1023 28.4349 29.2161 28.8436 30.2915L30.7131 29.5811ZM29.5413 26.3398L31.4291 25.6796C30.6225 23.3733 29.8009 20.9482 28.9168 18.7868L27.0657 19.5439L25.2145 20.3011C26.0483 22.3394 26.8244 24.6298 27.6534 27.0001L29.5413 26.3398ZM27.0657 19.5439L28.963 18.9115L28.9591 18.8998L27.0618 19.5322L25.1644 20.1647L25.1683 20.1764L27.0657 19.5439ZM27.0618 19.5322L28.9212 18.7958C28.3924 17.4606 28.1049 16.417 27.9505 15.3947L25.9729 15.6934L23.9953 15.992C24.2044 17.3764 24.5876 18.7168 25.2023 20.2687L27.0618 19.5322ZM25.9729 15.6934L27.9528 15.4105L27.9499 15.39L25.97 15.6729L23.9901 15.9557L23.993 15.9762L25.9729 15.6934ZM25.97 15.6729L27.961 15.4832L27.959 15.4627L25.968 15.6523L23.977 15.842L23.979 15.8625L25.97 15.6729ZM25.968 15.6523L27.956 15.4338C27.9511 15.3891 27.9507 15.3746 27.9409 15.2696L25.9495 15.4541L23.958 15.6386C23.9605 15.6652 23.9704 15.7833 23.98 15.8709L25.968 15.6523ZM25.9495 15.4541L24.433 14.1502C24.2613 14.3499 24.0906 14.5568 23.9239 14.7693L25.4973 16.0039L27.0708 17.2385C27.1979 17.0764 27.3304 16.9157 27.466 16.758L25.9495 15.4541ZM25.4973 16.0039L23.9238 14.7693C23.1431 15.7644 22.4311 16.8917 22.1196 17.8558L24.0227 18.4707L25.9258 19.0856C26.0211 18.7906 26.3918 18.1039 27.0708 17.2385L25.4973 16.0039ZM24.0227 18.4707L22.1196 17.8558C22.289 17.3315 22.8518 17.0419 23.3785 17.212L22.7639 19.1152L22.1494 21.0185C23.727 21.5279 25.4169 20.6608 25.9258 19.0856L24.0227 18.4707ZM22.7639 19.1152L23.379 17.2122C23.9063 17.3826 24.1926 17.9473 24.0237 18.4707L22.1204 17.8564L20.217 17.2422C19.709 18.8165 20.5708 20.5083 22.1488 21.0183L22.7639 19.1152ZM22.1204 17.8564L24.0235 18.4713C24.2273 17.8404 24.7681 16.9315 25.4966 16.0031L23.9231 14.7686L22.3496 13.534C21.5143 14.5985 20.6358 15.9459 20.2172 17.2416L22.1204 17.8564ZM23.9231 14.7686L25.4966 16.0032C26.2161 15.0862 27.0411 14.2466 27.7285 13.7331L26.5315 12.1309L25.3345 10.5286C24.2839 11.3135 23.2138 12.4326 22.3496 13.534L23.9231 14.7686ZM26.5315 12.1309L27.7297 13.7322L28.1408 13.4246L26.9426 11.8232L25.7445 10.2219L25.3333 10.5295L26.5315 12.1309ZM26.9426 11.8232L26.3398 13.7302L26.831 13.8855L27.4338 11.9785L28.0366 10.0715L27.5454 9.91625L26.9426 11.8232Z" fill="white" mask="url(#path-1-outside-1_34_157)"/>
</svg>
