<svg width="64" height="64" viewBox="0 0 64 64" fill="none" xmlns="http://www.w3.org/2000/svg">
<mask id="path-1-outside-1_34_86" maskUnits="userSpaceOnUse" x="13.6895" y="12.545" width="36" height="37" fill="black">
<rect fill="white" x="13.6895" y="12.545" width="36" height="37"/>
<path d="M42.1631 15.7813C42.5847 15.4248 43.2156 15.477 43.5723 15.8985C43.9287 16.3202 43.8758 16.9521 43.4541 17.3087C43.3198 17.4224 43.0876 17.6968 42.7852 18.1309C42.4982 18.5429 42.194 19.0297 41.9131 19.503C41.6334 19.9743 41.3826 20.4223 41.2012 20.753C41.1106 20.918 41.0373 21.0531 40.9873 21.1465C40.9624 21.1931 40.9435 21.2297 40.9307 21.254C40.9243 21.266 40.9192 21.2753 40.916 21.2813C40.9146 21.2841 40.9138 21.2867 40.9131 21.2881L40.9121 21.2891L40.8945 21.3223L40.875 21.3546C37.7965 26.2943 35.4914 29.6302 33.2051 32.171C33.1985 32.1783 33.1912 32.1851 33.1846 32.1924C33.6929 32.5735 34.1727 32.9378 34.6123 33.2842C37.0716 35.2223 39.4468 36.9271 41.6895 39.0674L41.7158 39.0938L41.7422 39.1221C43.0931 40.6221 44.3454 42.0008 45.1826 43.0303L45.2061 43.0587L45.2275 43.0899C45.3653 43.2873 45.4875 43.4857 45.6045 43.7012C45.6022 43.5429 45.601 43.3799 45.5977 43.2139C45.5848 42.5809 45.5662 41.9226 45.5479 41.2979C45.5295 40.6753 45.5119 40.0821 45.502 39.5899C45.4908 39.0378 45.9285 38.5807 46.4805 38.5694C47.0326 38.5583 47.4898 38.9977 47.501 39.5499C47.5107 40.0304 47.5284 40.6117 47.5469 41.2383C47.5653 41.8628 47.5836 42.5302 47.5967 43.1739C47.6189 44.2683 47.6262 45.3761 47.5654 46.0909L47.5352 46.3721L47.4697 46.8516L47.0527 47.0977C46.6371 47.3428 46.1556 47.4386 45.7002 47.4659C45.2357 47.4937 44.7253 47.4545 44.1963 47.3712C43.1385 47.2045 41.8988 46.8457 40.5986 46.3702L40.5898 46.3672L40.582 46.3633C39.501 45.9471 38.9148 45.6694 38.3281 45.3907C37.8295 45.1536 37.6176 44.5564 37.8545 44.0577C38.0916 43.5592 38.6878 43.3471 39.1865 43.584C39.7506 43.852 40.2822 44.1046 41.2852 44.4913C42.364 44.8859 43.3436 45.1747 44.1611 45.334C43.9558 44.8279 43.796 44.5362 43.6094 44.2647C42.818 43.2944 41.6322 41.987 40.2832 40.4893C38.1397 38.4478 35.9122 36.8548 33.374 34.8546C32.8917 34.4744 32.3596 34.0697 31.791 33.6456C30.6713 34.7581 29.4202 35.8973 28.1562 37.0284C26.3104 38.6802 24.439 40.3216 22.8291 41.92L22.8203 41.9278C21.7061 43.0096 20.7333 43.777 19.6914 44.4063L19.6738 44.4161L19.6562 44.4268C19.5979 44.4589 19.538 44.4887 19.4795 44.5196C19.7035 44.593 19.9317 44.6627 20.1611 44.7266C21.3001 45.044 22.3455 45.1962 23.0049 45.1426C23.5553 45.0979 24.0372 45.5073 24.082 46.0577C24.1266 46.608 23.7173 47.09 23.167 47.1348C22.158 47.2168 20.8441 46.9934 19.624 46.6534C18.3883 46.309 17.1203 45.8096 16.1875 45.2559L15.7461 44.9942L15.7012 44.4815C15.6347 43.7128 15.8629 42.8786 16.1201 42.1241C16.3693 41.3932 16.75 40.464 17.041 39.6671C17.2922 38.9277 17.4138 38.452 17.4482 37.7335C17.4748 37.1821 17.9437 36.7561 18.4951 36.7823C19.0464 36.809 19.4726 37.2778 19.4463 37.8292C19.3996 38.8014 19.2203 39.4713 18.9355 40.3096L18.9326 40.3204L18.9277 40.3311C18.5769 41.2941 18.2704 42.0163 18.0137 42.7696C17.9793 42.8705 17.9496 42.9679 17.9209 43.0596C18.1798 42.9391 18.4284 42.8192 18.6709 42.6866C19.5494 42.1544 20.3977 41.4918 21.4189 40.501L22.0527 39.8819C23.5563 38.4342 25.2296 36.9634 26.8223 35.5381C28.0053 34.4795 29.1431 33.4449 30.1592 32.4483C28.2318 31.0556 26.0573 29.5442 23.9873 28.1124C20.6725 25.8194 17.579 23.6983 16.3418 22.669C15.9176 22.3157 15.8598 21.6842 16.2129 21.2598C16.5662 20.8356 17.1976 20.7787 17.6221 21.1319C18.7701 22.087 21.7475 24.1322 25.124 26.4678C27.2667 27.9499 29.5516 29.5376 31.5654 30.9981C31.6166 30.9422 31.6697 30.8887 31.7197 30.8331C33.8772 28.4354 36.0989 25.2341 39.1572 20.3282C39.1587 20.3253 39.1604 20.3216 39.1621 20.3184C39.1763 20.2916 39.1982 20.2526 39.2246 20.2032C39.2775 20.1042 39.354 19.9629 39.4482 19.7911C39.6369 19.4473 39.8998 18.9787 40.1943 18.4825C40.4877 17.9882 40.8189 17.4558 41.1445 16.9883C41.4544 16.5435 41.8126 16.0778 42.1631 15.7813Z"/>
</mask>
<path d="M42.1631 15.7813C42.5847 15.4248 43.2156 15.477 43.5723 15.8985C43.9287 16.3202 43.8758 16.9521 43.4541 17.3087C43.3198 17.4224 43.0876 17.6968 42.7852 18.1309C42.4982 18.5429 42.194 19.0297 41.9131 19.503C41.6334 19.9743 41.3826 20.4223 41.2012 20.753C41.1106 20.918 41.0373 21.0531 40.9873 21.1465C40.9624 21.1931 40.9435 21.2297 40.9307 21.254C40.9243 21.266 40.9192 21.2753 40.916 21.2813C40.9146 21.2841 40.9138 21.2867 40.9131 21.2881L40.9121 21.2891L40.8945 21.3223L40.875 21.3546C37.7965 26.2943 35.4914 29.6302 33.2051 32.171C33.1985 32.1783 33.1912 32.1851 33.1846 32.1924C33.6929 32.5735 34.1727 32.9378 34.6123 33.2842C37.0716 35.2223 39.4468 36.9271 41.6895 39.0674L41.7158 39.0938L41.7422 39.1221C43.0931 40.6221 44.3454 42.0008 45.1826 43.0303L45.2061 43.0587L45.2275 43.0899C45.3653 43.2873 45.4875 43.4857 45.6045 43.7012C45.6022 43.5429 45.601 43.3799 45.5977 43.2139C45.5848 42.5809 45.5662 41.9226 45.5479 41.2979C45.5295 40.6753 45.5119 40.0821 45.502 39.5899C45.4908 39.0378 45.9285 38.5807 46.4805 38.5694C47.0326 38.5583 47.4898 38.9977 47.501 39.5499C47.5107 40.0304 47.5284 40.6117 47.5469 41.2383C47.5653 41.8628 47.5836 42.5302 47.5967 43.1739C47.6189 44.2683 47.6262 45.3761 47.5654 46.0909L47.5352 46.3721L47.4697 46.8516L47.0527 47.0977C46.6371 47.3428 46.1556 47.4386 45.7002 47.4659C45.2357 47.4937 44.7253 47.4545 44.1963 47.3712C43.1385 47.2045 41.8988 46.8457 40.5986 46.3702L40.5898 46.3672L40.582 46.3633C39.501 45.9471 38.9148 45.6694 38.3281 45.3907C37.8295 45.1536 37.6176 44.5564 37.8545 44.0577C38.0916 43.5592 38.6878 43.3471 39.1865 43.584C39.7506 43.852 40.2822 44.1046 41.2852 44.4913C42.364 44.8859 43.3436 45.1747 44.1611 45.334C43.9558 44.8279 43.796 44.5362 43.6094 44.2647C42.818 43.2944 41.6322 41.987 40.2832 40.4893C38.1397 38.4478 35.9122 36.8548 33.374 34.8546C32.8917 34.4744 32.3596 34.0697 31.791 33.6456C30.6713 34.7581 29.4202 35.8973 28.1562 37.0284C26.3104 38.6802 24.439 40.3216 22.8291 41.92L22.8203 41.9278C21.7061 43.0096 20.7333 43.777 19.6914 44.4063L19.6738 44.4161L19.6562 44.4268C19.5979 44.4589 19.538 44.4887 19.4795 44.5196C19.7035 44.593 19.9317 44.6627 20.1611 44.7266C21.3001 45.044 22.3455 45.1962 23.0049 45.1426C23.5553 45.0979 24.0372 45.5073 24.082 46.0577C24.1266 46.608 23.7173 47.09 23.167 47.1348C22.158 47.2168 20.8441 46.9934 19.624 46.6534C18.3883 46.309 17.1203 45.8096 16.1875 45.2559L15.7461 44.9942L15.7012 44.4815C15.6347 43.7128 15.8629 42.8786 16.1201 42.1241C16.3693 41.3932 16.75 40.464 17.041 39.6671C17.2922 38.9277 17.4138 38.452 17.4482 37.7335C17.4748 37.1821 17.9437 36.7561 18.4951 36.7823C19.0464 36.809 19.4726 37.2778 19.4463 37.8292C19.3996 38.8014 19.2203 39.4713 18.9355 40.3096L18.9326 40.3204L18.9277 40.3311C18.5769 41.2941 18.2704 42.0163 18.0137 42.7696C17.9793 42.8705 17.9496 42.9679 17.9209 43.0596C18.1798 42.9391 18.4284 42.8192 18.6709 42.6866C19.5494 42.1544 20.3977 41.4918 21.4189 40.501L22.0527 39.8819C23.5563 38.4342 25.2296 36.9634 26.8223 35.5381C28.0053 34.4795 29.1431 33.4449 30.1592 32.4483C28.2318 31.0556 26.0573 29.5442 23.9873 28.1124C20.6725 25.8194 17.579 23.6983 16.3418 22.669C15.9176 22.3157 15.8598 21.6842 16.2129 21.2598C16.5662 20.8356 17.1976 20.7787 17.6221 21.1319C18.7701 22.087 21.7475 24.1322 25.124 26.4678C27.2667 27.9499 29.5516 29.5376 31.5654 30.9981C31.6166 30.9422 31.6697 30.8887 31.7197 30.8331C33.8772 28.4354 36.0989 25.2341 39.1572 20.3282C39.1587 20.3253 39.1604 20.3216 39.1621 20.3184C39.1763 20.2916 39.1982 20.2526 39.2246 20.2032C39.2775 20.1042 39.354 19.9629 39.4482 19.7911C39.6369 19.4473 39.8998 18.9787 40.1943 18.4825C40.4877 17.9882 40.8189 17.4558 41.1445 16.9883C41.4544 16.5435 41.8126 16.0778 42.1631 15.7813Z" fill="black"/>
<path d="M42.1631 15.7813L40.8718 14.254L40.8716 14.2542L42.1631 15.7813ZM43.5723 15.8985L45.0997 14.6075L45.099 14.6066L43.5723 15.8985ZM43.4541 17.3087L42.1627 15.7815L42.1619 15.7822L43.4541 17.3087ZM42.7852 18.1309L41.144 16.9878L41.144 16.9879L42.7852 18.1309ZM41.9131 19.503L40.1932 18.4821L40.1932 18.4822L41.9131 19.503ZM41.2012 20.753L39.4479 19.7907L39.4479 19.7908L41.2012 20.753ZM40.9873 21.1465L39.2236 20.2034L39.2236 20.2035L40.9873 21.1465ZM40.9307 21.254L39.1628 20.3188L39.1626 20.319L40.9307 21.254ZM40.916 21.2813L39.1462 20.3498L39.1419 20.3581L40.916 21.2813ZM40.9131 21.2881L42.3273 22.7024L42.5826 22.4471L42.7325 22.1186L40.9131 21.2881ZM40.9121 21.2891L39.4979 19.8749L39.2852 20.0876L39.1445 20.3533L40.9121 21.2891ZM40.8945 21.3223L42.6049 22.3589L42.635 22.3093L42.6621 22.2581L40.8945 21.3223ZM40.875 21.3546L42.5724 22.4124L42.5789 22.4018L42.5854 22.3912L40.875 21.3546ZM33.2051 32.171L34.6918 33.5088L34.6918 33.5088L33.2051 32.171ZM33.1846 32.1924L31.6993 30.853L30.2328 32.4793L31.985 33.7927L33.1846 32.1924ZM34.6123 33.2842L33.3744 34.8551L33.3744 34.8551L34.6123 33.2842ZM41.6895 39.0674L43.1037 37.6532L43.0872 37.6367L43.0703 37.6206L41.6895 39.0674ZM41.7158 39.0938L43.1796 37.731L43.1553 37.7048L43.13 37.6796L41.7158 39.0938ZM41.7422 39.1221L43.2283 37.7837L43.2172 37.7714L43.206 37.7593L41.7422 39.1221ZM45.1826 43.0303L43.6309 44.2922L43.6363 44.2988L43.6418 44.3055L45.1826 43.0303ZM45.2061 43.0587L46.8541 41.9256L46.8037 41.8522L46.7468 41.7835L45.2061 43.0587ZM45.2275 43.0899L43.5795 44.223L43.5835 44.2288L43.5876 44.2347L45.2275 43.0899ZM45.6045 43.7012L43.8465 44.6549L47.6043 43.6718L45.6045 43.7012ZM45.5977 43.2139L47.5972 43.1734L47.5972 43.1733L45.5977 43.2139ZM45.5479 41.2979L47.547 41.2391L47.547 41.2391L45.5479 41.2979ZM45.502 39.5899L43.5024 39.6302L43.5024 39.6302L45.502 39.5899ZM46.4805 38.5694L46.4402 36.5698L46.4395 36.5698L46.4805 38.5694ZM47.501 39.5499L45.5014 39.5902L45.5014 39.5902L47.501 39.5499ZM47.5469 41.2383L49.546 41.1795L49.546 41.1795L47.5469 41.2383ZM47.5967 43.1739L49.5963 43.1333L49.5963 43.1333L47.5967 43.1739ZM47.5654 46.0909L49.5539 46.3049L49.5563 46.2827L49.5582 46.2604L47.5654 46.0909ZM47.5352 46.3721L49.5168 46.6425L49.5206 46.6144L49.5237 46.5862L47.5352 46.3721ZM47.4697 46.8516L48.4862 48.574L49.3204 48.0817L49.4514 47.122L47.4697 46.8516ZM47.0527 47.0977L48.0687 48.8205L48.0692 48.8201L47.0527 47.0977ZM45.7002 47.4659L45.8196 49.4623L45.8198 49.4623L45.7002 47.4659ZM44.1963 47.3712L43.885 49.3468L43.8851 49.3468L44.1963 47.3712ZM40.5986 46.3702L41.2856 44.4919L41.2585 44.4819L41.2311 44.4728L40.5986 46.3702ZM40.5898 46.3672L39.6954 48.1561L39.8225 48.2197L39.9574 48.2646L40.5898 46.3672ZM40.582 46.3633L41.4765 44.5745L41.3904 44.5315L41.3007 44.4969L40.582 46.3633ZM38.3281 45.3907L37.4694 47.197L37.4699 47.1972L38.3281 45.3907ZM37.8545 44.0577L36.0484 43.1985L36.048 43.1995L37.8545 44.0577ZM39.1865 43.584L38.3283 45.3906L38.3283 45.3906L39.1865 43.584ZM41.2852 44.4913L40.5657 46.3574L40.5819 46.3636L40.5982 46.3696L41.2852 44.4913ZM44.1611 45.334L43.7786 47.2971L47.4021 48.0032L46.0145 44.5823L44.1611 45.334ZM43.6094 44.2647L45.2575 43.1318L45.2111 43.0642L45.1593 43.0007L43.6094 44.2647ZM40.2832 40.4893L41.7693 39.1508L41.718 39.0939L41.6625 39.0411L40.2832 40.4893ZM33.374 34.8546L34.6119 33.2837L34.6119 33.2837L33.374 34.8546ZM31.791 33.6456L32.9868 32.0424L31.6046 31.0114L30.3813 32.2268L31.791 33.6456ZM28.1562 37.0284L29.49 38.5188L29.49 38.5187L28.1562 37.0284ZM22.8291 41.92L24.1578 43.4148L24.1991 43.3782L24.2382 43.3393L22.8291 41.92ZM22.8203 41.9278L21.4916 40.433L21.4587 40.4622L21.4271 40.4929L22.8203 41.9278ZM19.6914 44.4063L20.6627 46.1546L20.6944 46.137L20.7255 46.1182L19.6914 44.4063ZM19.6738 44.4161L18.7025 42.6678L18.6663 42.6879L18.6309 42.7095L19.6738 44.4161ZM19.6562 44.4268L20.6204 46.1791L20.6603 46.1571L20.6992 46.1334L19.6562 44.4268ZM19.4795 44.5196L18.5454 42.7512L14.3779 44.9525L18.8567 46.4202L19.4795 44.5196ZM20.1611 44.7266L19.6243 46.6532L19.6243 46.6532L20.1611 44.7266ZM23.0049 45.1426L22.843 43.1492L22.8429 43.1492L23.0049 45.1426ZM24.082 46.0577L26.0755 45.8961L26.0754 45.8955L24.082 46.0577ZM23.167 47.1348L23.3289 49.1283L23.3295 49.1282L23.167 47.1348ZM19.624 46.6534L19.0871 48.58L19.0872 48.58L19.624 46.6534ZM16.1875 45.2559L17.2084 43.5361L17.2075 43.5356L16.1875 45.2559ZM15.7461 44.9942L13.7537 45.1688L13.8433 46.1911L14.7261 46.7145L15.7461 44.9942ZM15.7012 44.4815L13.7086 44.6537L13.7088 44.6561L15.7012 44.4815ZM16.1201 42.1241L14.2271 41.4788L14.2271 41.4788L16.1201 42.1241ZM17.041 39.6671L18.9197 40.3531L18.9274 40.3318L18.9347 40.3104L17.041 39.6671ZM17.4482 37.7335L15.4506 37.6372L15.4505 37.6376L17.4482 37.7335ZM18.4951 36.7823L18.5918 34.7846L18.5901 34.7845L18.4951 36.7823ZM19.4463 37.8292L21.444 37.925L21.444 37.9244L19.4463 37.8292ZM18.9355 40.3096L17.0418 39.6663L17.0221 39.7243L17.006 39.7834L18.9355 40.3096ZM18.9326 40.3204L20.7534 41.148L20.8199 41.0017L20.8621 40.8466L18.9326 40.3204ZM18.9277 40.3311L17.107 39.5035L17.075 39.5739L17.0485 39.6466L18.9277 40.3311ZM18.0137 42.7696L16.1206 42.1243L16.1206 42.1244L18.0137 42.7696ZM17.9209 43.0596L16.0118 42.4636L14.6636 46.7818L18.7648 44.8728L17.9209 43.0596ZM18.6709 42.6866L19.6306 44.4413L19.6693 44.4201L19.7071 44.3972L18.6709 42.6866ZM21.4189 40.501L22.8116 41.9365L22.8165 41.9317L21.4189 40.501ZM22.0527 39.8819L20.6656 38.4411L20.6603 38.4462L20.6552 38.4512L22.0527 39.8819ZM26.8223 35.5381L28.156 37.0285L28.156 37.0285L26.8223 35.5381ZM30.1592 32.4483L31.5596 33.8762L33.2524 32.2159L31.3305 30.8272L30.1592 32.4483ZM23.9873 28.1124L25.1251 26.4675L25.1251 26.4675L23.9873 28.1124ZM16.3418 22.669L15.0618 24.2058L15.0626 24.2064L16.3418 22.669ZM16.2129 21.2598L14.676 19.98L14.6755 19.9806L16.2129 21.2598ZM17.6221 21.1319L16.3429 22.6693L16.343 22.6694L17.6221 21.1319ZM25.124 26.4678L23.9863 28.1127L23.9863 28.1127L25.124 26.4678ZM31.5654 30.9981L30.3912 32.6171L31.8361 33.665L33.0409 32.3483L31.5654 30.9981ZM31.7197 30.8331L33.2064 32.1709L33.2064 32.1709L31.7197 30.8331ZM39.1572 20.3282L40.8544 21.3862L40.8922 21.3256L40.9256 21.2625L39.1572 20.3282ZM39.1621 20.3184L37.3942 19.3833L37.3942 19.3833L39.1621 20.3184ZM39.2246 20.2032L37.461 19.26L37.4609 19.2601L39.2246 20.2032ZM39.4482 19.7911L37.6949 18.8288L37.6949 18.8288L39.4482 19.7911ZM40.1943 18.4825L38.4745 17.4616L38.4745 17.4616L40.1943 18.4825ZM41.1445 16.9883L39.5034 15.8452L39.5034 15.8453L41.1445 16.9883ZM42.1631 15.7813L43.4544 17.3086C43.0342 17.6639 42.4034 17.6133 42.0455 17.1904L43.5723 15.8985L45.099 14.6066C44.0279 13.3408 42.1353 13.1858 40.8718 14.254L42.1631 15.7813ZM43.5723 15.8985L42.0448 17.1895C41.6882 16.7677 41.7411 16.138 42.1627 15.7815L43.4541 17.3087L44.7455 18.8358C46.0104 17.7662 46.1692 15.8727 45.0997 14.6075L43.5723 15.8985ZM43.4541 17.3087L42.1619 15.7822C41.8115 16.0788 41.453 16.5442 41.144 16.9878L42.7852 18.1309L44.4263 19.2741C44.5549 19.0893 44.6565 18.9563 44.7279 18.8694C44.7634 18.8261 44.7859 18.8011 44.7958 18.7906C44.8091 18.7763 44.7913 18.7971 44.7463 18.8351L43.4541 17.3087ZM42.7852 18.1309L41.144 16.9879C40.8187 17.4549 40.4871 17.9871 40.1932 18.4821L41.9131 19.503L43.6329 20.5238C43.901 20.0723 44.1778 19.6308 44.4263 19.274L42.7852 18.1309ZM41.9131 19.503L40.1932 18.4822C39.8982 18.9792 39.6359 19.4482 39.4479 19.7907L41.2012 20.753L42.9545 21.7152C43.1294 21.3964 43.3685 20.9693 43.6329 20.5238L41.9131 19.503ZM41.2012 20.753L39.4479 19.7908C39.3555 19.9591 39.2783 20.1011 39.2236 20.2034L40.9873 21.1465L42.751 22.0897C42.7962 22.0051 42.8658 21.8769 42.9545 21.7152L41.2012 20.753ZM40.9873 21.1465L39.2236 20.2035C39.2077 20.2332 39.1941 20.2591 39.1834 20.2795C39.1705 20.3041 39.1671 20.3105 39.1628 20.3188L40.9307 21.254L42.6986 22.1891C42.7038 22.1793 42.7089 22.1695 42.713 22.1617C42.7177 22.1527 42.7211 22.1462 42.7256 22.1377C42.7337 22.1221 42.742 22.1064 42.751 22.0896L40.9873 21.1465ZM40.9307 21.254L39.1626 20.319C39.1635 20.3175 39.1638 20.3169 39.162 20.3203C39.1615 20.3211 39.1592 20.3255 39.1573 20.329C39.1553 20.3326 39.1511 20.3404 39.1462 20.3498L40.916 21.2813L42.6858 22.2129C42.684 22.2164 42.6825 22.2191 42.6817 22.2206C42.6809 22.2222 42.6803 22.2232 42.6802 22.2234C42.6801 22.2237 42.6801 22.2236 42.6805 22.2228C42.6807 22.2224 42.681 22.222 42.6813 22.2215C42.6816 22.2209 42.6819 22.2203 42.6823 22.2195C42.6854 22.2138 42.6915 22.2025 42.6987 22.1889L40.9307 21.254ZM40.916 21.2813L39.1419 20.3581C39.096 20.4463 39.0667 20.5187 39.0556 20.5467C39.0528 20.5539 39.0505 20.5596 39.0499 20.5612C39.0483 20.5652 39.0504 20.56 39.0516 20.5568C39.0533 20.5525 39.0578 20.541 39.0638 20.5264C39.0697 20.5122 39.0799 20.4877 39.0937 20.4577L40.9131 21.2881L42.7325 22.1186C42.7464 22.0882 42.7568 22.0633 42.7629 22.0487C42.769 22.0336 42.7737 22.0217 42.7756 22.0169C42.7771 22.0132 42.7793 22.0075 42.778 22.0109C42.7775 22.012 42.7755 22.0171 42.7729 22.0237C42.7627 22.0494 42.7346 22.1191 42.6902 22.2045L40.916 21.2813ZM40.9131 21.2881L39.4989 19.8739L39.4979 19.8749L40.9121 21.2891L42.3263 22.7033L42.3273 22.7024L40.9131 21.2881ZM40.9121 21.2891L39.1445 20.3533L39.127 20.3866L40.8945 21.3223L42.6621 22.2581L42.6797 22.2249L40.9121 21.2891ZM40.8945 21.3223L39.1841 20.2857L39.1646 20.3179L40.875 21.3546L42.5854 22.3912L42.6049 22.3589L40.8945 21.3223ZM40.875 21.3546L39.1776 20.2967C36.1093 25.2202 33.8806 28.4302 31.7184 30.8332L33.2051 32.171L34.6918 33.5088C37.1021 30.8301 39.4837 27.3685 42.5724 22.4124L40.875 21.3546ZM33.2051 32.171L31.7184 30.8331C31.7358 30.8138 31.75 30.7989 31.7579 30.7906C31.762 30.7863 31.7652 30.7831 31.7668 30.7814C31.7682 30.78 31.7693 30.7789 31.7682 30.78C31.7677 30.7805 31.765 30.7833 31.762 30.7864C31.7588 30.7897 31.754 30.7946 31.7483 30.8005C31.7371 30.8121 31.7198 30.8304 31.6993 30.853L33.1846 32.1924L34.6698 33.5318C34.6527 33.5509 34.6388 33.5655 34.631 33.5735C34.627 33.5777 34.624 33.5808 34.6225 33.5823C34.6212 33.5836 34.6202 33.5846 34.6215 33.5834C34.6221 33.5827 34.6249 33.5799 34.628 33.5767C34.6314 33.5733 34.6363 33.5682 34.6421 33.5622C34.6535 33.5503 34.6711 33.5318 34.6918 33.5088L33.2051 32.171ZM33.1846 32.1924L31.985 33.7927C32.4885 34.1702 32.9535 34.5234 33.3744 34.8551L34.6123 33.2842L35.8502 31.7134C35.3919 31.3522 34.8973 30.9768 34.3842 30.5921L33.1846 32.1924ZM34.6123 33.2842L33.3744 34.8551C35.9224 36.8631 38.1572 38.461 40.3086 40.5143L41.6895 39.0674L43.0703 37.6206C40.7364 35.3932 38.2208 33.5816 35.8502 31.7134L34.6123 33.2842ZM41.6895 39.0674L40.2752 40.4817L40.3016 40.508L41.7158 39.0938L43.13 37.6796L43.1037 37.6532L41.6895 39.0674ZM41.7158 39.0938L40.252 40.4566L40.2784 40.485L41.7422 39.1221L43.206 37.7593L43.1796 37.731L41.7158 39.0938ZM41.7422 39.1221L40.2561 40.4606C41.628 41.9839 42.8344 43.3127 43.6309 44.2922L45.1826 43.0303L46.7343 41.7685C45.8564 40.6889 44.5582 39.2603 43.2283 37.7837L41.7422 39.1221ZM45.1826 43.0303L43.6418 44.3055L43.6653 44.3338L45.2061 43.0587L46.7468 41.7835L46.7234 41.7552L45.1826 43.0303ZM45.2061 43.0587L43.558 44.1917L43.5795 44.223L45.2275 43.0899L46.8756 41.9568L46.8541 41.9256L45.2061 43.0587ZM45.2275 43.0899L43.5876 44.2347C43.6813 44.3689 43.7643 44.5034 43.8465 44.6549L45.6045 43.7012L47.3625 42.7476C47.2108 42.4679 47.0493 42.2056 46.8675 41.9451L45.2275 43.0899ZM45.6045 43.7012L47.6043 43.6718C47.6023 43.5368 47.6007 43.3439 47.5972 43.1734L45.5977 43.2139L43.5981 43.2545C43.6013 43.4159 43.602 43.549 43.6047 43.7306L45.6045 43.7012ZM45.5977 43.2139L47.5972 43.1733C47.5842 42.5306 47.5654 41.8645 47.547 41.2391L45.5479 41.2979L43.5487 41.3568C43.5671 41.9807 43.5854 42.6313 43.5981 43.2545L45.5977 43.2139ZM45.5479 41.2979L47.547 41.2391C47.5286 40.6129 47.5112 40.0304 47.5015 39.5496L45.502 39.5899L43.5024 39.6302C43.5125 40.1338 43.5305 40.7378 43.5487 41.3568L45.5479 41.2979ZM45.502 39.5899L47.5015 39.5496C47.5126 40.0981 47.077 40.5576 46.5215 40.569L46.4805 38.5694L46.4395 36.5698C44.7799 36.6038 43.4691 37.9776 43.5024 39.6302L45.502 39.5899ZM46.4805 38.5694L46.5208 40.569C45.9678 40.5801 45.5125 40.1416 45.5014 39.5902L47.501 39.5499L49.5006 39.5096C49.4672 37.8538 48.0974 36.5364 46.4402 36.5698L46.4805 38.5694ZM47.501 39.5499L45.5014 39.5902C45.5113 40.0826 45.5295 40.676 45.5477 41.2972L47.5469 41.2383L49.546 41.1795C49.5274 40.5473 49.51 39.9783 49.5006 39.5095L47.501 39.5499ZM47.5469 41.2383L45.5477 41.2972C45.5661 41.9196 45.5842 42.5799 45.5971 43.2145L47.5967 43.1739L49.5963 43.1333C49.583 42.4805 49.5644 41.806 49.546 41.1795L47.5469 41.2383ZM47.5967 43.1739L45.5971 43.2145C45.6197 44.3267 45.623 45.329 45.5726 45.9214L47.5654 46.0909L49.5582 46.2604C49.6294 45.4232 49.6181 44.2099 49.5963 43.1333L47.5967 43.1739ZM47.5654 46.0909L45.5769 45.8768L45.5466 46.1581L47.5352 46.3721L49.5237 46.5862L49.5539 46.3049L47.5654 46.0909ZM47.5352 46.3721L45.5535 46.1017L45.4881 46.5812L47.4697 46.8516L49.4514 47.122L49.5168 46.6425L47.5352 46.3721ZM47.4697 46.8516L46.4532 45.1292L46.0362 45.3753L47.0527 47.0977L48.0692 48.8201L48.4862 48.574L47.4697 46.8516ZM47.0527 47.0977L46.0368 45.375C46.0217 45.3839 45.981 45.4043 45.9009 45.4246C45.8198 45.4451 45.7139 45.4615 45.5806 45.4695L45.7002 47.4659L45.8198 49.4623C46.445 49.4248 47.2769 49.2874 48.0687 48.8205L47.0527 47.0977ZM45.7002 47.4659L45.5808 45.4695C45.3047 45.486 44.9462 45.4646 44.5075 45.3955L44.1963 47.3712L43.8851 49.3468C44.5043 49.4443 45.1668 49.5014 45.8196 49.4623L45.7002 47.4659ZM44.1963 47.3712L44.5075 45.3955C43.6266 45.2567 42.5213 44.9438 41.2856 44.4919L40.5986 46.3702L39.9117 48.2485C41.2764 48.7476 42.6504 49.1523 43.885 49.3468L44.1963 47.3712ZM40.5986 46.3702L41.2311 44.4728L41.2223 44.4699L40.5898 46.3672L39.9574 48.2646L39.9662 48.2675L40.5986 46.3702ZM40.5898 46.3672L41.4843 44.5784L41.4765 44.5745L40.582 46.3633L39.6876 48.1522L39.6954 48.1561L40.5898 46.3672ZM40.582 46.3633L41.3007 44.4969C40.2871 44.1066 39.7521 43.853 39.1863 43.5842L38.3281 45.3907L37.4699 47.1972C38.0775 47.4858 38.715 47.7876 39.8634 48.2298L40.582 46.3633ZM38.3281 45.3907L39.1868 43.5844C39.6872 43.8223 39.8971 44.4188 39.661 44.9158L37.8545 44.0577L36.048 43.1995C35.338 44.6941 35.9717 46.4849 37.4694 47.197L38.3281 45.3907ZM37.8545 44.0577L39.6606 44.9168C39.4234 45.4154 38.827 45.6275 38.3283 45.3906L39.1865 43.584L40.0447 41.7775C38.5487 41.0668 36.7599 41.703 36.0484 43.1985L37.8545 44.0577ZM39.1865 43.584L38.3283 45.3906C38.9119 45.6678 39.495 45.9446 40.5657 46.3574L41.2852 44.4913L42.0046 42.6252C41.0695 42.2646 40.5893 42.0362 40.0447 41.7775L39.1865 43.584ZM41.2852 44.4913L40.5982 46.3696C41.738 46.7865 42.8241 47.1111 43.7786 47.2971L44.1611 45.334L44.5437 43.371C43.8631 43.2384 42.9901 42.9853 41.9721 42.613L41.2852 44.4913ZM44.1611 45.334L46.0145 44.5823C45.7676 43.9736 45.5435 43.5477 45.2575 43.1318L43.6094 44.2647L41.9612 45.3977C42.0486 45.5248 42.1441 45.6822 42.3078 46.0858L44.1611 45.334ZM43.6094 44.2647L45.1593 43.0007C44.3284 41.9819 43.0984 40.6264 41.7693 39.1508L40.2832 40.4893L38.7971 41.8278C40.166 43.3475 41.3077 44.6069 42.0595 45.5288L43.6094 44.2647ZM40.2832 40.4893L41.6625 39.0411C39.4287 36.9135 37.0597 35.2127 34.6119 33.2837L33.374 34.8546L32.1361 36.4254C34.7647 38.4969 36.8507 39.9822 38.9039 41.9376L40.2832 40.4893ZM33.374 34.8546L34.6119 33.2837C34.1111 32.8891 33.564 32.473 32.9868 32.0424L31.791 33.6456L30.5953 35.2487C31.1552 35.6664 31.6722 36.0598 32.1361 36.4254L33.374 34.8546ZM31.791 33.6456L30.3813 32.2268C29.3009 33.3004 28.0825 34.4105 26.8225 35.538L28.1562 37.0284L29.49 38.5187C30.758 37.384 32.0418 36.2158 33.2007 35.0643L31.791 33.6456ZM28.1562 37.0284L26.8225 35.538C25.0023 37.167 23.0772 38.8554 21.42 40.5007L22.8291 41.92L24.2382 43.3393C25.8009 41.7878 27.6185 40.1935 29.49 38.5188L28.1562 37.0284ZM22.8291 41.92L21.5004 40.4252L21.4916 40.433L22.8203 41.9278L24.149 43.4226L24.1578 43.4148L22.8291 41.92ZM22.8203 41.9278L21.4271 40.4929C20.3965 41.4935 19.5424 42.1598 18.6573 42.6944L19.6914 44.4063L20.7255 46.1182C21.9242 45.3942 23.0157 44.5257 24.2135 43.3627L22.8203 41.9278ZM19.6914 44.4063L18.7201 42.658L18.7025 42.6678L19.6738 44.4161L20.6451 46.1644L20.6627 46.1546L19.6914 44.4063ZM19.6738 44.4161L18.6309 42.7095L18.6133 42.7203L19.6562 44.4268L20.6992 46.1334L20.7167 46.1226L19.6738 44.4161ZM19.6562 44.4268L18.6921 42.6746C18.6444 42.7008 18.6721 42.6842 18.5454 42.7512L19.4795 44.5196L20.4136 46.288C20.4332 46.2777 20.4477 46.2703 20.4875 46.2497C20.5205 46.2326 20.5683 46.2077 20.6204 46.1791L19.6562 44.4268ZM19.4795 44.5196L18.8567 46.4202C19.1065 46.502 19.3634 46.5805 19.6243 46.6532L20.1611 44.7266L20.698 42.8C20.5 42.7449 20.3006 42.684 20.1023 42.619L19.4795 44.5196ZM20.1611 44.7266L19.6243 46.6532C20.8426 46.9927 22.1569 47.2181 23.1668 47.1361L23.0049 45.1426L22.8429 43.1492C22.5341 43.1743 21.7576 43.0953 20.698 42.8L20.1611 44.7266ZM23.0049 45.1426L23.1668 47.1361C22.6167 47.1807 22.1334 46.7707 22.0886 46.2199L24.082 46.0577L26.0754 45.8955C25.941 44.2439 24.4938 43.0151 22.843 43.1492L23.0049 45.1426ZM24.082 46.0577L22.0886 46.2193C22.044 45.6694 22.4538 45.1863 23.0045 45.1414L23.167 47.1348L23.3295 49.1282C24.9807 48.9936 26.2093 47.5466 26.0755 45.8961L24.082 46.0577ZM23.167 47.1348L23.005 45.1414C22.3448 45.195 21.2985 45.0438 20.1609 44.7268L19.624 46.6534L19.0872 48.58C20.3898 48.943 21.9713 49.2386 23.3289 49.1283L23.167 47.1348ZM19.624 46.6534L20.1609 44.7268C19.0378 44.4138 17.9459 43.9739 17.2084 43.5361L16.1875 45.2559L15.1666 46.9758C16.2946 47.6453 17.7388 48.2042 19.0871 48.58L19.624 46.6534ZM16.1875 45.2559L17.2075 43.5356L16.7661 43.2739L15.7461 44.9942L14.7261 46.7145L15.1675 46.9763L16.1875 45.2559ZM15.7461 44.9942L17.7385 44.8196L17.6935 44.3069L15.7012 44.4815L13.7088 44.6561L13.7537 45.1688L15.7461 44.9942ZM15.7012 44.4815L17.6937 44.3093C17.6662 43.9909 17.7632 43.5027 18.0132 42.7693L16.1201 42.1241L14.2271 41.4788C13.9627 42.2545 13.6033 43.4347 13.7086 44.6537L15.7012 44.4815ZM16.1201 42.1241L18.0132 42.7694C18.2643 42.0326 18.5759 41.2943 18.9197 40.3531L17.041 39.6671L15.1624 38.981C14.924 39.6336 14.4742 40.7537 14.2271 41.4788L16.1201 42.1241ZM17.041 39.6671L18.9347 40.3104C19.2189 39.4738 19.3992 38.8028 19.4459 37.8294L17.4482 37.7335L15.4505 37.6376C15.4283 38.1011 15.3654 38.3816 15.1473 39.0237L17.041 39.6671ZM17.4482 37.7335L19.4459 37.8298C19.4193 38.3812 18.9514 38.8063 18.4001 38.78L18.4951 36.7823L18.5901 34.7845C16.936 34.7059 15.5303 35.9829 15.4506 37.6372L17.4482 37.7335ZM18.4951 36.7823L18.3984 38.7799C17.8478 38.7533 17.4222 38.2861 17.4486 37.7339L19.4463 37.8292L21.444 37.9244C21.5229 36.2695 20.2451 34.8647 18.5918 34.7846L18.4951 36.7823ZM19.4463 37.8292L17.4486 37.7333C17.4141 38.4514 17.2931 38.9265 17.0418 39.6663L18.9355 40.3096L20.8293 40.9529C21.1475 40.0162 21.3851 39.1513 21.444 37.925L19.4463 37.8292ZM18.9355 40.3096L17.006 39.7834L17.0031 39.7941L18.9326 40.3204L20.8621 40.8466L20.8651 40.8359L18.9355 40.3096ZM18.9326 40.3204L17.1119 39.4928L17.107 39.5035L18.9277 40.3311L20.7485 41.1587L20.7534 41.148L18.9326 40.3204ZM18.9277 40.3311L17.0485 39.6466C16.7584 40.4429 16.3711 41.3895 16.1206 42.1243L18.0137 42.7696L19.9067 43.4149C20.1698 42.6431 20.3954 42.1453 20.8069 41.0157L18.9277 40.3311ZM18.0137 42.7696L16.1206 42.1244C16.0755 42.2567 16.0355 42.3875 16.0118 42.4636L17.9209 43.0596L19.83 43.6557C19.8636 43.5482 19.883 43.4844 19.9067 43.4148L18.0137 42.7696ZM17.9209 43.0596L18.7648 44.8728C19.0367 44.7463 19.3312 44.605 19.6306 44.4413L18.6709 42.6866L17.7112 40.9319C17.5256 41.0334 17.323 41.1319 17.077 41.2464L17.9209 43.0596ZM18.6709 42.6866L19.7071 44.3972C20.7413 43.7708 21.7074 43.0077 22.8116 41.9365L21.4189 40.501L20.0263 39.0655C19.088 39.9759 18.3575 40.5381 17.6347 40.976L18.6709 42.6866ZM21.4189 40.501L22.8165 41.9317L23.4503 41.3125L22.0527 39.8819L20.6552 38.4512L20.0214 39.0704L21.4189 40.501ZM22.0527 39.8819L23.4399 41.3227C24.9094 39.9078 26.5428 38.4721 28.156 37.0285L26.8223 35.5381L25.4886 34.0478C23.9163 35.4547 22.2033 36.9607 20.6656 38.4411L22.0527 39.8819ZM26.8223 35.5381L28.156 37.0285C29.3426 35.9666 30.509 34.9066 31.5596 33.8762L30.1592 32.4483L28.7588 31.0204C27.7771 31.9832 26.6679 32.9924 25.4885 34.0478L26.8223 35.5381ZM30.1592 32.4483L31.3305 30.8272C29.3847 29.4212 27.1949 27.8993 25.1251 26.4675L23.9873 28.1124L22.8495 29.7572C24.9197 31.1892 27.0789 32.6901 28.9878 34.0694L30.1592 32.4483ZM23.9873 28.1124L25.1251 26.4675C21.7483 24.1318 18.7687 22.0865 17.621 21.1316L16.3418 22.669L15.0626 24.2064C16.3892 25.3102 19.5966 27.5071 22.8495 29.7572L23.9873 28.1124ZM16.3418 22.669L17.6218 21.1322C18.0458 21.4854 18.1036 22.1144 17.7503 22.539L16.2129 21.2598L14.6755 19.9806C13.6159 21.2541 13.7895 23.146 15.0618 24.2058L16.3418 22.669ZM16.2129 21.2598L17.7498 22.5397C17.3942 22.9666 16.7646 23.0202 16.3429 22.6693L17.6221 21.1319L18.9013 19.5945C17.6306 18.5372 15.7381 18.7046 14.676 19.98L16.2129 21.2598ZM17.6221 21.1319L16.343 22.6694C17.5803 23.6988 20.6717 25.8199 23.9863 28.1127L25.124 26.4678L26.2618 24.823C22.8234 22.4445 19.9598 20.4751 18.9012 19.5944L17.6221 21.1319ZM25.124 26.4678L23.9863 28.1127C26.1296 29.5953 28.3977 31.1714 30.3912 32.6171L31.5654 30.9981L32.7396 29.3791C30.7056 27.9039 28.4037 26.3046 26.2618 24.823L25.124 26.4678ZM31.5654 30.9981L33.0409 32.3483C33.0514 32.3368 33.0629 32.3246 33.0938 32.2921C33.1193 32.2652 33.1617 32.2206 33.2064 32.1709L31.7197 30.8331L30.233 29.4953C30.2277 29.5012 30.2185 29.5111 30.1922 29.5388C30.1712 29.561 30.1306 29.6036 30.0899 29.648L31.5654 30.9981ZM31.7197 30.8331L33.2064 32.1709C35.488 29.6353 37.7862 26.308 40.8544 21.3862L39.1572 20.3282L37.46 19.2701C34.4115 24.1603 32.2663 27.2356 30.233 29.4953L31.7197 30.8331ZM39.1572 20.3282L40.9256 21.2625C40.9316 21.2511 40.9367 21.2412 40.9407 21.2334C40.9446 21.2256 40.9479 21.2189 40.9504 21.2141C40.9528 21.2092 40.9547 21.2053 40.9558 21.203C40.9564 21.2018 40.9569 21.2008 40.9572 21.2002C40.9573 21.1999 40.9575 21.1996 40.9576 21.1994C40.9578 21.1989 40.9575 21.1995 40.9577 21.1991C40.9579 21.1988 40.9572 21.2002 40.9562 21.2021C40.9552 21.2042 40.9535 21.2076 40.9514 21.212C40.9473 21.2202 40.9398 21.235 40.93 21.2536L39.1621 20.3184L37.3942 19.3833C37.3835 19.4034 37.3752 19.42 37.3703 19.4298C37.3677 19.435 37.3656 19.4393 37.3642 19.4422C37.3629 19.4449 37.3617 19.4472 37.3615 19.4477C37.3609 19.4489 37.3615 19.4476 37.3621 19.4464C37.3629 19.4449 37.3644 19.4418 37.3664 19.4377C37.3684 19.4337 37.3714 19.4278 37.3749 19.4207C37.3785 19.4137 37.3832 19.4046 37.3889 19.3939L39.1572 20.3282ZM39.1621 20.3184L40.93 21.2536C40.9283 21.2568 40.9281 21.257 40.9311 21.2517C40.934 21.2462 40.9374 21.2401 40.9433 21.2292C40.9541 21.2095 40.9702 21.1801 40.9883 21.1463L39.2246 20.2032L37.4609 19.2601C37.4526 19.2756 37.4445 19.2905 37.4342 19.3093C37.4296 19.3178 37.4232 19.3295 37.4172 19.3405C37.4112 19.3515 37.403 19.3666 37.3942 19.3833L39.1621 20.3184ZM39.2246 20.2032L40.9883 21.1463C41.0374 21.0544 41.1104 20.9195 41.2016 20.7533L39.4482 19.7911L37.6949 18.8288C37.5976 19.0063 37.5177 19.154 37.461 19.26L39.2246 20.2032ZM39.4482 19.7911L41.2016 20.7533C41.3828 20.4231 41.6342 19.975 41.9142 19.5033L40.1943 18.4825L38.4745 17.4616C38.1654 17.9824 37.8911 18.4714 37.6949 18.8288L39.4482 19.7911ZM40.1943 18.4825L41.9142 19.5033C42.1952 19.0298 42.4988 18.5432 42.7857 18.1314L41.1445 16.9883L39.5034 15.8453C39.139 16.3685 38.7802 16.9466 38.4745 17.4616L40.1943 18.4825ZM41.1445 16.9883L42.7857 18.1314C43.0876 17.6979 43.3198 17.4224 43.4546 17.3084L42.1631 15.7813L40.8716 14.2542C40.3053 14.7331 39.8212 15.389 39.5034 15.8452L41.1445 16.9883Z" fill="white" mask="url(#path-1-outside-1_34_86)"/>
</svg>
