<svg width="64" height="64" viewBox="0 0 64 64" fill="none" xmlns="http://www.w3.org/2000/svg">
<mask id="path-1-outside-1_34_104" maskUnits="userSpaceOnUse" x="16.2012" y="11.3986" width="31" height="42" fill="black">
<rect fill="white" x="16.2012" y="11.3986" width="31" height="42"/>
<path d="M39.2354 14.9142C39.5028 14.4317 40.1108 14.2568 40.5938 14.5236C41.0769 14.7909 41.2516 15.3997 40.9844 15.8829C40.2618 17.1895 38.812 20.4988 37.1514 24.254C36.004 26.8485 34.7638 29.6315 33.6289 32.0236C34.5592 33.5502 35.4789 35.2848 36.3848 37.0333C37.5242 39.2328 38.6474 41.4546 39.7939 43.4122L39.7988 43.423C40.5687 44.7717 41.0693 45.9045 41.4189 47.0704L41.4248 47.09L41.4297 47.1095C41.4462 47.174 41.4602 47.2395 41.4756 47.3038C41.6025 47.1052 41.7266 46.9017 41.8457 46.6954C42.4371 45.6715 42.8455 44.697 42.958 44.045C43.052 43.5009 43.5692 43.1358 44.1133 43.2296C44.6573 43.3237 45.0215 43.8409 44.9277 44.3849C44.7555 45.3825 44.2116 46.5996 43.5781 47.6964C42.9365 48.8072 42.1369 49.9107 41.3682 50.6759L41.0049 51.0382L40.4971 50.9532C39.7361 50.8259 38.9849 50.3973 38.3184 49.9601C37.6727 49.5366 36.8681 48.9357 36.1689 48.4552C35.5155 48.0276 35.0848 47.7918 34.3975 47.5792C33.8701 47.416 33.5744 46.8557 33.7373 46.3282C33.9005 45.8007 34.4617 45.5049 34.9893 45.6681C35.9189 45.9556 36.523 46.2957 37.2637 46.7804L37.2725 46.7872L37.2822 46.7941C38.1274 47.3739 38.7505 47.8507 39.416 48.2872C39.5052 48.3457 39.5921 48.3987 39.6738 48.4493C39.6217 48.1685 39.567 47.8979 39.499 47.63C39.2027 46.6465 38.7723 45.6592 38.0674 44.423L37.627 43.6554C36.5999 41.8383 35.5926 39.8511 34.6094 37.9532C33.9234 36.6291 33.2483 35.349 32.5791 34.1769C32.4621 34.4091 32.3499 34.6356 32.2373 34.8527C30.7952 37.632 29.5652 40.2843 27.8838 42.8888L27.8633 42.921L27.8408 42.9513C26.621 44.5598 25.5016 46.049 24.6475 47.0646L24.624 47.0929L24.5977 47.1193C24.4295 47.2918 24.2574 47.4492 24.0674 47.6046C24.2226 47.5726 24.3824 47.5405 24.5449 47.506C25.1644 47.3745 25.8076 47.2321 26.418 47.0968C27.0261 46.962 27.6053 46.8337 28.0869 46.7316C28.627 46.6172 29.1578 46.962 29.2725 47.5021C29.3869 48.0422 29.0419 48.5729 28.502 48.6876C28.0317 48.7873 27.4637 48.9142 26.8516 49.0499C26.2418 49.1851 25.5897 49.3294 24.96 49.463C23.8892 49.6902 22.8023 49.9042 22.0889 49.9786L21.8066 50.0021L21.3232 50.0275L21.0029 49.6642C20.6842 49.302 20.5 48.8475 20.3877 48.4054C20.2732 47.9544 20.2167 47.4455 20.1992 46.9103C20.1644 45.8398 20.2837 44.5543 20.5068 43.1876L20.5078 43.1788L20.5107 43.171C20.7167 42.0311 20.8793 41.4031 21.043 40.7745C21.1822 40.2404 21.7285 39.9199 22.2627 40.0587C22.7969 40.1981 23.1176 40.7441 22.9785 41.2784C22.8212 41.8828 22.673 42.4522 22.4814 43.5099C22.2963 44.6437 22.1964 45.6604 22.1934 46.4933C22.6521 46.1965 22.9089 45.9845 23.1406 45.7501C23.9452 44.7907 25.0059 43.3804 26.2236 41.7745C27.8265 39.2861 28.9736 36.8 30.4619 33.9318C30.744 33.3882 31.0397 32.7905 31.3486 32.1544C31.3232 32.1157 31.2989 32.0765 31.2734 32.0382C29.4895 29.3511 26.9435 26.401 22.9551 22.2159C22.9528 22.2139 22.9498 22.2114 22.9473 22.2091C22.9248 22.1887 22.8918 22.1581 22.8506 22.1202C22.7679 22.0443 22.6498 21.9352 22.5068 21.8009C22.2209 21.5325 21.8329 21.161 21.4258 20.7521C21.0203 20.3447 20.5874 19.891 20.2158 19.4591C19.8623 19.0482 19.5005 18.5853 19.3008 18.172C19.0606 17.6747 19.2693 17.0763 19.7666 16.8361C20.2638 16.5961 20.8614 16.8047 21.1016 17.3019C21.1781 17.4603 21.3863 17.7531 21.7314 18.1544C22.0588 18.535 22.4545 18.9509 22.8428 19.3409C23.2295 19.7294 23.601 20.0847 23.876 20.3429C24.0132 20.4717 24.1261 20.5759 24.2041 20.6476C24.2431 20.6834 24.2736 20.7111 24.2939 20.7296C24.304 20.7388 24.3114 20.7466 24.3164 20.7511C24.3186 20.753 24.3211 20.754 24.3223 20.755L24.3232 20.756L24.3506 20.7814L24.377 20.8087C27.9878 24.5964 30.4978 27.4557 32.3418 30.0636C33.3132 27.975 34.3447 25.656 35.3223 23.4454C36.9525 19.759 38.4565 16.3224 39.2354 14.9142Z"/>
</mask>
<path d="M39.2354 14.9142C39.5028 14.4317 40.1108 14.2568 40.5938 14.5236C41.0769 14.7909 41.2516 15.3997 40.9844 15.8829C40.2618 17.1895 38.812 20.4988 37.1514 24.254C36.004 26.8485 34.7638 29.6315 33.6289 32.0236C34.5592 33.5502 35.4789 35.2848 36.3848 37.0333C37.5242 39.2328 38.6474 41.4546 39.7939 43.4122L39.7988 43.423C40.5687 44.7717 41.0693 45.9045 41.4189 47.0704L41.4248 47.09L41.4297 47.1095C41.4462 47.174 41.4602 47.2395 41.4756 47.3038C41.6025 47.1052 41.7266 46.9017 41.8457 46.6954C42.4371 45.6715 42.8455 44.697 42.958 44.045C43.052 43.5009 43.5692 43.1358 44.1133 43.2296C44.6573 43.3237 45.0215 43.8409 44.9277 44.3849C44.7555 45.3825 44.2116 46.5996 43.5781 47.6964C42.9365 48.8072 42.1369 49.9107 41.3682 50.6759L41.0049 51.0382L40.4971 50.9532C39.7361 50.8259 38.9849 50.3973 38.3184 49.9601C37.6727 49.5366 36.8681 48.9357 36.1689 48.4552C35.5155 48.0276 35.0848 47.7918 34.3975 47.5792C33.8701 47.416 33.5744 46.8557 33.7373 46.3282C33.9005 45.8007 34.4617 45.5049 34.9893 45.6681C35.9189 45.9556 36.523 46.2957 37.2637 46.7804L37.2725 46.7872L37.2822 46.7941C38.1274 47.3739 38.7505 47.8507 39.416 48.2872C39.5052 48.3457 39.5921 48.3987 39.6738 48.4493C39.6217 48.1685 39.567 47.8979 39.499 47.63C39.2027 46.6465 38.7723 45.6592 38.0674 44.423L37.627 43.6554C36.5999 41.8383 35.5926 39.8511 34.6094 37.9532C33.9234 36.6291 33.2483 35.349 32.5791 34.1769C32.4621 34.4091 32.3499 34.6356 32.2373 34.8527C30.7952 37.632 29.5652 40.2843 27.8838 42.8888L27.8633 42.921L27.8408 42.9513C26.621 44.5598 25.5016 46.049 24.6475 47.0646L24.624 47.0929L24.5977 47.1193C24.4295 47.2918 24.2574 47.4492 24.0674 47.6046C24.2226 47.5726 24.3824 47.5405 24.5449 47.506C25.1644 47.3745 25.8076 47.2321 26.418 47.0968C27.0261 46.962 27.6053 46.8337 28.0869 46.7316C28.627 46.6172 29.1578 46.962 29.2725 47.5021C29.3869 48.0422 29.0419 48.5729 28.502 48.6876C28.0317 48.7873 27.4637 48.9142 26.8516 49.0499C26.2418 49.1851 25.5897 49.3294 24.96 49.463C23.8892 49.6902 22.8023 49.9042 22.0889 49.9786L21.8066 50.0021L21.3232 50.0275L21.0029 49.6642C20.6842 49.302 20.5 48.8475 20.3877 48.4054C20.2732 47.9544 20.2167 47.4455 20.1992 46.9103C20.1644 45.8398 20.2837 44.5543 20.5068 43.1876L20.5078 43.1788L20.5107 43.171C20.7167 42.0311 20.8793 41.4031 21.043 40.7745C21.1822 40.2404 21.7285 39.9199 22.2627 40.0587C22.7969 40.1981 23.1176 40.7441 22.9785 41.2784C22.8212 41.8828 22.673 42.4522 22.4814 43.5099C22.2963 44.6437 22.1964 45.6604 22.1934 46.4933C22.6521 46.1965 22.9089 45.9845 23.1406 45.7501C23.9452 44.7907 25.0059 43.3804 26.2236 41.7745C27.8265 39.2861 28.9736 36.8 30.4619 33.9318C30.744 33.3882 31.0397 32.7905 31.3486 32.1544C31.3232 32.1157 31.2989 32.0765 31.2734 32.0382C29.4895 29.3511 26.9435 26.401 22.9551 22.2159C22.9528 22.2139 22.9498 22.2114 22.9473 22.2091C22.9248 22.1887 22.8918 22.1581 22.8506 22.1202C22.7679 22.0443 22.6498 21.9352 22.5068 21.8009C22.2209 21.5325 21.8329 21.161 21.4258 20.7521C21.0203 20.3447 20.5874 19.891 20.2158 19.4591C19.8623 19.0482 19.5005 18.5853 19.3008 18.172C19.0606 17.6747 19.2693 17.0763 19.7666 16.8361C20.2638 16.5961 20.8614 16.8047 21.1016 17.3019C21.1781 17.4603 21.3863 17.7531 21.7314 18.1544C22.0588 18.535 22.4545 18.9509 22.8428 19.3409C23.2295 19.7294 23.601 20.0847 23.876 20.3429C24.0132 20.4717 24.1261 20.5759 24.2041 20.6476C24.2431 20.6834 24.2736 20.7111 24.2939 20.7296C24.304 20.7388 24.3114 20.7466 24.3164 20.7511C24.3186 20.753 24.3211 20.754 24.3223 20.755L24.3232 20.756L24.3506 20.7814L24.377 20.8087C27.9878 24.5964 30.4978 27.4557 32.3418 30.0636C33.3132 27.975 34.3447 25.656 35.3223 23.4454C36.9525 19.759 38.4565 16.3224 39.2354 14.9142Z" fill="black"/>
<path d="M39.2354 14.9142L37.4861 13.9445L37.4852 13.9462L39.2354 14.9142ZM40.5938 14.5236L41.5622 12.7737L41.5607 12.7729L40.5938 14.5236ZM40.9844 15.8829L39.2342 14.915L39.2342 14.915L40.9844 15.8829ZM37.1514 24.254L38.9805 25.0629L38.9805 25.0629L37.1514 24.254ZM33.6289 32.0236L31.822 31.1663L31.359 32.142L31.921 33.0643L33.6289 32.0236ZM36.3848 37.0333L38.1606 36.1133L38.1606 36.1133L36.3848 37.0333ZM39.7939 43.4122L41.6147 42.5846L41.5719 42.4906L41.5198 42.4015L39.7939 43.4122ZM39.7988 43.423L37.9781 44.2506L38.0162 44.3344L38.0619 44.4144L39.7988 43.423ZM41.4189 47.0704L39.5033 47.645L39.5033 47.6451L41.4189 47.0704ZM41.4248 47.09L43.3651 46.6049L43.3538 46.5598L43.3405 46.5153L41.4248 47.09ZM41.4297 47.1095L39.4894 47.5946L39.4924 47.6063L41.4297 47.1095ZM41.4756 47.3038L39.5301 47.7675L40.6228 52.3523L43.1608 48.3808L41.4756 47.3038ZM41.8457 46.6954L43.5776 47.6957L43.5776 47.6957L41.8457 46.6954ZM42.958 44.045L40.9872 43.7045L40.9872 43.7049L42.958 44.045ZM44.1133 43.2296L44.454 41.2589L44.4532 41.2587L44.1133 43.2296ZM44.9277 44.3849L46.8986 44.7251L46.8987 44.7245L44.9277 44.3849ZM43.5781 47.6964L45.31 48.6967L45.31 48.6967L43.5781 47.6964ZM41.3682 50.6759L39.9572 49.2585L39.9559 49.2598L41.3682 50.6759ZM41.0049 51.0382L40.6749 53.0108L41.6891 53.1805L42.4172 52.4543L41.0049 51.0382ZM40.4971 50.9532L40.167 52.9258L40.167 52.9258L40.4971 50.9532ZM38.3184 49.9601L37.2215 51.6324L37.2215 51.6325L38.3184 49.9601ZM36.1689 48.4552L37.3017 46.8069L37.2831 46.7941L37.2641 46.7817L36.1689 48.4552ZM34.3975 47.5792L33.8061 49.4898L33.8065 49.4899L34.3975 47.5792ZM33.7373 46.3282L31.8267 45.737L31.8264 45.7381L33.7373 46.3282ZM34.9893 45.6681L35.5803 43.7574L35.5801 43.7574L34.9893 45.6681ZM37.2637 46.7804L38.4916 45.2017L38.4271 45.1516L38.3588 45.1069L37.2637 46.7804ZM37.2725 46.7872L36.0446 48.3659L36.0843 48.3968L36.1255 48.4257L37.2725 46.7872ZM37.2822 46.7941L36.1353 48.4325L36.143 48.4379L36.1508 48.4432L37.2822 46.7941ZM39.416 48.2872L38.3191 49.9596L38.3192 49.9597L39.416 48.2872ZM39.6738 48.4493L38.6206 50.1495L42.4662 52.5318L41.6402 48.0841L39.6738 48.4493ZM39.499 47.63L41.4376 47.1381L41.4267 47.0953L41.414 47.053L39.499 47.63ZM38.0674 44.423L39.8048 43.4322L39.8021 43.4276L38.0674 44.423ZM37.627 43.6554L35.8858 44.6395L35.8922 44.6508L37.627 43.6554ZM34.6094 37.9532L36.3852 37.0333L36.3852 37.0333L34.6094 37.9532ZM32.5791 34.1769L34.3159 33.1852L32.469 29.9504L30.793 33.277L32.5791 34.1769ZM32.2373 34.8527L34.0126 35.7738L34.0126 35.7738L32.2373 34.8527ZM27.8838 42.8888L26.2035 41.804L26.1965 41.815L27.8838 42.8888ZM27.8633 42.921L29.4695 44.1127L29.5122 44.0552L29.5506 43.9948L27.8633 42.921ZM27.8408 42.9513L29.4344 44.1598L29.4407 44.1514L29.447 44.143L27.8408 42.9513ZM24.6475 47.0646L23.1168 45.7772L23.1117 45.7833L23.1067 45.7894L24.6475 47.0646ZM24.624 47.0929L26.0382 48.5071L26.1048 48.4405L26.1648 48.368L24.624 47.0929ZM24.5977 47.1193L23.1834 45.705L23.1744 45.7141L23.1654 45.7233L24.5977 47.1193ZM24.0674 47.6046L22.8008 46.0568L24.4716 49.5633L24.0674 47.6046ZM24.5449 47.506L24.96 49.4624L24.96 49.4624L24.5449 47.506ZM26.418 47.0968L25.985 45.1442L25.985 45.1442L26.418 47.0968ZM28.0869 46.7316L27.6726 44.775L27.6721 44.7751L28.0869 46.7316ZM29.2725 47.5021L31.229 47.0875L31.2289 47.0868L29.2725 47.5021ZM28.502 48.6876L28.9168 50.6441L28.9177 50.6439L28.502 48.6876ZM26.8516 49.0499L27.2845 51.0025L27.2845 51.0025L26.8516 49.0499ZM24.96 49.463L25.3751 51.4195L25.3751 51.4195L24.96 49.463ZM22.0889 49.9786L22.2544 51.9718L22.2754 51.97L22.2964 51.9678L22.0889 49.9786ZM21.8066 50.0021L21.9115 51.9993L21.9419 51.9977L21.9722 51.9952L21.8066 50.0021ZM21.3232 50.0275L19.8231 51.3502L20.4626 52.0754L21.4281 52.0247L21.3232 50.0275ZM21.0029 49.6642L19.5015 50.9854L19.5028 50.9869L21.0029 49.6642ZM20.3877 48.4054L18.4492 48.8974L18.4492 48.8977L20.3877 48.4054ZM20.1992 46.9103L18.2003 46.9754L18.2003 46.9754L20.1992 46.9103ZM20.5068 43.1876L22.4807 43.5099L22.489 43.4594L22.4946 43.4085L20.5068 43.1876ZM20.5078 43.1788L18.6352 42.4766L18.5476 42.7101L18.52 42.958L20.5078 43.1788ZM20.5107 43.171L22.3834 43.8733L22.4468 43.7043L22.4789 43.5266L20.5107 43.171ZM21.043 40.7745L19.1076 40.2701L19.1075 40.2706L21.043 40.7745ZM22.2627 40.0587L22.7676 38.1235L22.7656 38.123L22.2627 40.0587ZM22.9785 41.2784L21.043 40.7745L21.043 40.7745L22.9785 41.2784ZM22.4814 43.5099L20.5135 43.1534L20.5104 43.1705L20.5076 43.1876L22.4814 43.5099ZM22.1934 46.4933L20.1934 46.4859L20.1798 50.1776L23.2796 48.1726L22.1934 46.4933ZM23.1406 45.7501L24.5629 47.1563L24.6205 47.098L24.6731 47.0352L23.1406 45.7501ZM26.2236 41.7745L27.8173 42.983L27.8635 42.922L27.905 42.8576L26.2236 41.7745ZM30.4619 33.9318L32.2372 34.8529L32.2372 34.8529L30.4619 33.9318ZM31.3486 32.1544L33.1477 33.0282L33.6439 32.0064L33.0206 31.0569L31.3486 32.1544ZM31.2734 32.0382L32.9397 30.932L32.9397 30.932L31.2734 32.0382ZM22.9551 22.2159L24.4029 20.8361L24.3536 20.7844L24.3008 20.7364L22.9551 22.2159ZM22.9473 22.2091L21.6009 23.688L21.6083 23.6948L21.6158 23.7015L22.9473 22.2091ZM22.8506 22.1202L21.4975 23.593L21.4975 23.593L22.8506 22.1202ZM22.5068 21.8009L21.1378 23.2589L21.1378 23.2589L22.5068 21.8009ZM21.4258 20.7521L20.0084 22.1631L20.0084 22.1631L21.4258 20.7521ZM20.2158 19.4591L18.6996 20.7634L18.6997 20.7634L20.2158 19.4591ZM19.3008 18.172L17.4998 19.0418L17.5 19.0422L19.3008 18.172ZM19.7666 16.8361L18.8974 15.0348L18.8967 15.0351L19.7666 16.8361ZM21.1016 17.3019L19.3006 18.1718L19.3008 18.1721L21.1016 17.3019ZM21.7314 18.1544L20.2152 19.4587L20.2153 19.4587L21.7314 18.1544ZM22.8428 19.3409L21.4253 20.7519L21.4254 20.752L22.8428 19.3409ZM23.876 20.3429L25.245 18.8849L25.245 18.8849L23.876 20.3429ZM24.2041 20.6476L22.851 22.1204L22.8511 22.1204L24.2041 20.6476ZM24.2939 20.7296L25.6406 19.2509L25.6404 19.2507L24.2939 20.7296ZM24.3164 20.7511L22.973 22.2327L22.9903 22.2485L23.008 22.2638L24.3164 20.7511ZM24.3223 20.755L25.7365 19.3408L25.6578 19.2621L25.5709 19.1927L24.3223 20.755ZM24.3232 20.756L22.909 22.1702L22.9352 22.1964L22.9623 22.2216L24.3232 20.756ZM24.3506 20.7814L25.7903 19.3931L25.7519 19.3534L25.7115 19.3158L24.3506 20.7814ZM24.377 20.8087L25.8246 19.4287L25.8166 19.4204L24.377 20.8087ZM32.3418 30.0636L30.7088 31.2183L32.7004 34.035L34.1553 30.907L32.3418 30.0636ZM35.3223 23.4454L37.1514 24.2543L37.1514 24.2543L35.3223 23.4454ZM39.2354 14.9142L40.9846 15.8838C40.7171 16.3663 40.1098 16.5411 39.6268 16.2742L40.5938 14.5236L41.5607 12.7729C40.1119 11.9726 38.2885 12.4971 37.4861 13.9445L39.2354 14.9142ZM40.5938 14.5236L39.6253 16.2734C39.1411 16.0055 38.9676 15.3971 39.2342 14.915L40.9844 15.8829L42.7345 16.8509C43.5357 15.4024 43.0126 13.5764 41.5622 12.7737L40.5938 14.5236ZM40.9844 15.8829L39.2342 14.915C38.4553 16.3234 36.9522 19.7593 35.3222 23.4452L37.1514 24.254L38.9805 25.0629C40.6718 21.2383 42.0683 18.0556 42.7346 16.8508L40.9844 15.8829ZM37.1514 24.254L35.3222 23.4452C34.1746 26.0403 32.9442 28.801 31.822 31.1663L33.6289 32.0236L35.4358 32.8809C36.5835 30.4619 37.8335 27.6567 38.9805 25.0629L37.1514 24.254ZM33.6289 32.0236L31.921 33.0643C32.8121 34.5265 33.7043 36.2071 34.6089 37.9533L36.3848 37.0333L38.1606 36.1133C37.2536 34.3625 36.3063 32.5739 35.3368 30.9828L33.6289 32.0236ZM36.3848 37.0333L34.6089 37.9533C35.7326 40.1224 36.888 42.4078 38.0681 44.423L39.7939 43.4122L41.5198 42.4015C40.4069 40.5013 39.3158 38.3433 38.1606 36.1133L36.3848 37.0333ZM39.7939 43.4122L37.9732 44.2398L37.9781 44.2506L39.7988 43.423L41.6196 42.5954L41.6147 42.5846L39.7939 43.4122ZM39.7988 43.423L38.0619 44.4144C38.7741 45.6622 39.2063 46.6548 39.5033 47.645L41.4189 47.0704L43.3346 46.4959C42.9322 45.1543 42.3632 43.8812 41.5358 42.4315L39.7988 43.423ZM41.4189 47.0704L39.5033 47.6451L39.5092 47.6647L41.4248 47.09L43.3405 46.5153L43.3346 46.4957L41.4189 47.0704ZM41.4248 47.09L39.4845 47.575L39.4894 47.5946L41.4297 47.1095L43.37 46.6244L43.3651 46.6049L41.4248 47.09ZM41.4297 47.1095L39.4924 47.6063C39.5054 47.6569 39.4985 47.6349 39.5301 47.7675L41.4756 47.3038L43.4211 46.8401C43.4157 46.8174 43.412 46.801 43.4019 46.7573C43.3936 46.721 43.3815 46.6693 43.367 46.6127L41.4297 47.1095ZM41.4756 47.3038L43.1608 48.3808C43.3031 48.1582 43.4428 47.9291 43.5776 47.6957L41.8457 46.6954L40.1138 45.6951C40.0104 45.8742 39.902 46.0522 39.7903 46.2268L41.4756 47.3038ZM41.8457 46.6954L43.5776 47.6957C44.21 46.6008 44.7565 45.3841 44.9289 44.3852L42.958 44.045L40.9872 43.7049C40.9345 44.01 40.6643 44.7421 40.1138 45.6952L41.8457 46.6954ZM42.958 44.045L44.9288 44.3856C44.8349 44.9288 44.3184 45.2945 43.7734 45.2005L44.1133 43.2296L44.4532 41.2587C42.8199 40.977 41.2691 42.0731 40.9872 43.7045L42.958 44.045ZM44.1133 43.2296L43.7726 45.2004C43.2264 45.1059 42.8634 44.5872 42.9568 44.0453L44.9277 44.3849L46.8987 44.7245C47.1795 43.0946 46.0882 41.5414 44.454 41.2589L44.1133 43.2296ZM44.9277 44.3849L42.9569 44.0447C42.8442 44.6977 42.4367 45.6737 41.8462 46.6961L43.5781 47.6964L45.31 48.6967C45.9865 47.5254 46.6669 46.0672 46.8986 44.7251L44.9277 44.3849ZM43.5781 47.6964L41.8463 46.6961C41.263 47.7059 40.5649 48.6535 39.9572 49.2585L41.3682 50.6759L42.7791 52.0934C43.7088 51.1679 44.61 49.9086 45.31 48.6967L43.5781 47.6964ZM41.3682 50.6759L39.9559 49.2598L39.5926 49.6221L41.0049 51.0382L42.4172 52.4543L42.7805 52.092L41.3682 50.6759ZM41.0049 51.0382L41.3349 49.0656L40.8271 48.9807L40.4971 50.9532L40.167 52.9258L40.6749 53.0108L41.0049 51.0382ZM40.4971 50.9532L40.8271 48.9807C40.5115 48.9279 40.0623 48.7121 39.4152 48.2877L38.3184 49.9601L37.2215 51.6325C37.9075 52.0824 38.9607 52.724 40.167 52.9258L40.4971 50.9532ZM38.3184 49.9601L39.4153 48.2877C38.7633 47.8601 38.1301 47.3762 37.3017 46.8069L36.1689 48.4552L35.0361 50.1035C35.6061 50.4952 36.5821 51.2131 37.2215 51.6324L38.3184 49.9601ZM36.1689 48.4552L37.2641 46.7817C36.5233 46.2969 35.9185 45.9562 34.9884 45.6685L34.3975 47.5792L33.8065 49.4899C34.2511 49.6274 34.5077 49.7582 35.0738 50.1287L36.1689 48.4552ZM34.3975 47.5792L34.9888 45.6686C35.5161 45.8318 35.8112 46.3908 35.6483 46.9184L33.7373 46.3282L31.8264 45.7381C31.3377 47.3205 32.2241 49.0002 33.8061 49.4898L34.3975 47.5792ZM33.7373 46.3282L35.6479 46.9195C35.4845 47.4477 34.9253 47.7417 34.3984 47.5788L34.9893 45.6681L35.5801 43.7574C33.9981 43.2682 32.3166 44.1538 31.8267 45.737L33.7373 46.3282ZM34.9893 45.6681L34.3983 47.5788C35.0856 47.7914 35.5158 48.0268 36.1685 48.4539L37.2637 46.7804L38.3588 45.1069C37.5302 44.5646 36.7521 44.1199 35.5803 43.7574L34.9893 45.6681ZM37.2637 46.7804L36.0358 48.3591L36.0446 48.3659L37.2725 46.7872L38.5003 45.2085L38.4916 45.2017L37.2637 46.7804ZM37.2725 46.7872L36.1255 48.4257L36.1353 48.4325L37.2822 46.7941L38.4292 45.1556L38.4194 45.1488L37.2725 46.7872ZM37.2822 46.7941L36.1508 48.4432C36.8505 48.9233 37.6695 49.5335 38.3191 49.9596L39.416 48.2872L40.5129 46.6149C39.8315 46.1679 39.4044 45.8246 38.4137 45.1449L37.2822 46.7941ZM39.416 48.2872L38.3192 49.9597C38.4363 50.0364 38.5543 50.1085 38.6206 50.1495L39.6738 48.4493L40.7271 46.7491C40.6299 46.689 40.5741 46.655 40.5128 46.6148L39.416 48.2872ZM39.6738 48.4493L41.6402 48.0841C41.5849 47.7862 41.5211 47.4671 41.4376 47.1381L39.499 47.63L37.5604 48.1219C37.6129 48.3287 37.6585 48.5509 37.7075 48.8145L39.6738 48.4493ZM39.499 47.63L41.414 47.053C41.0652 45.8953 40.567 44.7689 39.8048 43.4322L38.0674 44.423L36.33 45.4137C36.9777 46.5495 37.3402 47.3976 37.5841 48.207L39.499 47.63ZM38.0674 44.423L39.8021 43.4276L39.3617 42.66L37.627 43.6554L35.8922 44.6508L36.3327 45.4183L38.0674 44.423ZM37.627 43.6554L39.3681 42.6713C38.3643 40.8953 37.381 38.9554 36.3852 37.0333L34.6094 37.9532L32.8335 38.8732C33.8041 40.7468 34.8355 42.7812 35.8858 44.6395L37.627 43.6554ZM34.6094 37.9532L36.3852 37.0333C35.697 35.7048 35.0064 34.3945 34.3159 33.1852L32.5791 34.1769L30.8423 35.1685C31.4902 36.3034 32.1498 37.5535 32.8335 38.8732L34.6094 37.9532ZM32.5791 34.1769L30.793 33.277C30.6675 33.5261 30.5674 33.7285 30.4621 33.9315L32.2373 34.8527L34.0126 35.7738C34.1325 35.5427 34.2567 35.2921 34.3652 35.0768L32.5791 34.1769ZM32.2373 34.8527L30.4621 33.9315C28.9685 36.81 27.8166 39.3055 26.2035 41.804L27.8838 42.8888L29.564 43.9736C31.3139 41.2632 32.6219 38.4539 34.0126 35.7738L32.2373 34.8527ZM27.8838 42.8888L26.1965 41.815L26.176 41.8473L27.8633 42.921L29.5506 43.9948L29.5711 43.9625L27.8838 42.8888ZM27.8633 42.921L26.2571 41.7293L26.2346 41.7596L27.8408 42.9513L29.447 44.143L29.4695 44.1127L27.8633 42.921ZM27.8408 42.9513L26.2473 41.7428C25.0083 43.3764 23.9295 44.8111 23.1168 45.7772L24.6475 47.0646L26.1781 48.3519C27.0737 47.287 28.2336 45.7431 29.4344 44.1598L27.8408 42.9513ZM24.6475 47.0646L23.1067 45.7894L23.0832 45.8178L24.624 47.0929L26.1648 48.368L26.1882 48.3397L24.6475 47.0646ZM24.624 47.0929L23.2098 45.6787L23.1834 45.705L24.5977 47.1193L26.0119 48.5335L26.0382 48.5071L24.624 47.0929ZM24.5977 47.1193L23.1654 45.7233C23.0514 45.8403 22.9348 45.9472 22.8008 46.0568L24.0674 47.6046L25.3339 49.1525C25.58 48.9512 25.8076 48.7433 26.0299 48.5152L24.5977 47.1193ZM24.0674 47.6046L24.4716 49.5633C24.6129 49.5342 24.7909 49.4983 24.96 49.4624L24.5449 47.506L24.1298 45.5495C23.974 45.5826 23.8323 45.611 23.6632 45.6459L24.0674 47.6046ZM24.5449 47.506L24.96 49.4624C25.5898 49.3288 26.2416 49.1845 26.8509 49.0494L26.418 47.0968L25.985 45.1442C25.3737 45.2798 24.7391 45.4203 24.1298 45.5495L24.5449 47.506ZM26.418 47.0968L26.8509 49.0494C27.4613 48.914 28.031 48.7879 28.5018 48.6881L28.0869 46.7316L27.6721 44.7751C27.1797 44.8795 26.5908 45.0099 25.985 45.1442L26.418 47.0968ZM28.0869 46.7316L28.5012 48.6882C27.962 48.8024 27.4309 48.4583 27.316 47.9173L29.2725 47.5021L31.2289 47.0868C30.8848 45.4657 29.292 44.432 27.6726 44.775L28.0869 46.7316ZM29.2725 47.5021L27.3159 47.9167C27.2014 47.3765 27.5464 46.846 28.0862 46.7313L28.502 48.6876L28.9177 50.6439C30.5375 50.2997 31.5724 48.7079 31.229 47.0875L29.2725 47.5021ZM28.502 48.6876L28.0871 46.7311C27.6052 46.8333 27.0244 46.963 26.4186 47.0974L26.8516 49.0499L27.2845 51.0025C27.903 50.8654 28.4583 50.7413 28.9168 50.6441L28.502 48.6876ZM26.8516 49.0499L26.4186 47.0974C25.8082 47.2327 25.1645 47.3751 24.5448 47.5066L24.96 49.463L25.3751 51.4195C26.0149 51.2837 26.6753 51.1376 27.2845 51.0025L26.8516 49.0499ZM24.96 49.463L24.5449 47.5066C23.4588 47.737 22.4734 47.9277 21.8814 47.9894L22.0889 49.9786L22.2964 51.9678C23.1313 51.8807 24.3196 51.6434 25.3751 51.4195L24.96 49.463ZM22.0889 49.9786L21.9233 47.9855L21.6411 48.0089L21.8066 50.0021L21.9722 51.9952L22.2544 51.9718L22.0889 49.9786ZM21.8066 50.0021L21.7017 48.0048L21.2183 48.0302L21.3232 50.0275L21.4281 52.0247L21.9115 51.9993L21.8066 50.0021ZM21.3232 50.0275L22.8234 48.7048L22.5031 48.3415L21.0029 49.6642L19.5028 50.9869L19.8231 51.3502L21.3232 50.0275ZM21.0029 49.6642L22.5044 48.343C22.4928 48.3298 22.4651 48.2937 22.4303 48.219C22.395 48.1434 22.3591 48.0426 22.3262 47.9131L20.3877 48.4054L18.4492 48.8977C18.6034 49.5047 18.8944 50.2955 19.5015 50.9854L21.0029 49.6642ZM20.3877 48.4054L22.3262 47.9134C22.2586 47.6469 22.2127 47.2914 22.1982 46.8452L20.1992 46.9103L18.2003 46.9754C18.2206 47.5997 18.2879 48.2619 18.4492 48.8974L20.3877 48.4054ZM20.1992 46.9103L22.1982 46.8452C22.1691 45.9533 22.2687 44.8082 22.4807 43.5099L20.5068 43.1876L18.533 42.8654C18.2987 44.3004 18.1596 45.7263 18.2003 46.9754L20.1992 46.9103ZM20.5068 43.1876L22.4946 43.4085L22.4956 43.3997L20.5078 43.1788L18.52 42.958L18.5191 42.9668L20.5068 43.1876ZM20.5078 43.1788L22.3805 43.8811L22.3834 43.8733L20.5107 43.171L18.6381 42.4688L18.6352 42.4766L20.5078 43.1788ZM20.5107 43.171L22.4789 43.5266C22.672 42.4575 22.8207 41.8843 22.9784 41.2785L21.043 40.7745L19.1075 40.2706C18.9379 40.9219 18.7614 41.6046 18.5426 42.8154L20.5107 43.171ZM21.043 40.7745L22.9783 41.279C22.8389 41.8137 22.2935 42.1331 21.7598 41.9945L22.2627 40.0587L22.7656 38.123C21.1635 37.7068 19.5255 38.6671 19.1076 40.2701L21.043 40.7745ZM22.2627 40.0587L21.7578 41.9939C21.225 41.8549 20.9036 41.3103 21.043 40.7745L22.9785 41.2784L24.914 41.7824C25.3317 40.178 24.3687 38.5413 22.7676 38.1235L22.2627 40.0587ZM22.9785 41.2784L21.043 40.7745C20.8802 41.4001 20.718 42.0245 20.5135 43.1534L22.4814 43.5099L24.4494 43.8663C24.6281 42.88 24.7622 42.3655 24.914 41.7824L22.9785 41.2784ZM22.4814 43.5099L20.5076 43.1876C20.312 44.3856 20.1969 45.5135 20.1934 46.4859L22.1934 46.4933L24.1933 46.5006C24.1959 45.8072 24.2806 44.9019 24.4553 43.8322L22.4814 43.5099ZM22.1934 46.4933L23.2796 48.1726C23.8316 47.8156 24.208 47.5151 24.5629 47.1563L23.1406 45.7501L21.7184 44.344C21.6097 44.4539 21.4727 44.5775 21.1071 44.814L22.1934 46.4933ZM23.1406 45.7501L24.6731 47.0352C25.518 46.0278 26.6181 44.5643 27.8173 42.983L26.2236 41.7745L24.63 40.5661C23.3937 42.1965 22.3724 43.5537 21.6082 44.465L23.1406 45.7501ZM26.2236 41.7745L27.905 42.8576C29.5755 40.2642 30.8016 37.6196 32.2372 34.8529L30.4619 33.9318L28.6867 33.0106C27.1457 35.9805 26.0775 38.308 24.5423 40.6915L26.2236 41.7745ZM30.4619 33.9318L32.2372 34.8529C32.531 34.2865 32.8355 33.6709 33.1477 33.0282L31.3486 32.1544L29.5496 31.2807C29.2438 31.9102 28.9569 32.4898 28.6867 33.0106L30.4619 33.9318ZM31.3486 32.1544L33.0206 31.0569C33.0154 31.049 33.01 31.0405 32.9951 31.0174C32.9828 30.9982 32.9624 30.9663 32.9397 30.932L31.2734 32.0382L29.6072 33.1444C29.6643 33.2305 29.5795 33.1039 29.6767 33.252L31.3486 32.1544ZM31.2734 32.0382L32.9397 30.932C31.0531 28.0904 28.4043 25.0348 24.4029 20.8361L22.9551 22.2159L21.5073 23.5957C25.4827 27.7671 27.9258 30.6118 29.6072 33.1444L31.2734 32.0382ZM22.9551 22.2159L24.3008 20.7364C24.2875 20.7243 24.2767 20.7148 24.2706 20.7094C24.2645 20.7041 24.2594 20.6997 24.2585 20.6989C24.2583 20.6988 24.2581 20.6986 24.258 20.6985C24.2579 20.6984 24.2579 20.6984 24.2578 20.6983C24.2577 20.6982 24.2578 20.6983 24.258 20.6985C24.2584 20.6988 24.2595 20.6998 24.2611 20.7012C24.264 20.7037 24.2705 20.7093 24.2787 20.7167L22.9473 22.2091L21.6158 23.7015C21.6254 23.71 21.6332 23.7168 21.6374 23.7205C21.6396 23.7225 21.6415 23.7241 21.6425 23.725C21.6432 23.7255 21.6447 23.7268 21.6441 23.7263C21.6441 23.7263 21.6439 23.7261 21.6435 23.7258C21.6432 23.7255 21.6427 23.7251 21.642 23.7245C21.6407 23.7234 21.6386 23.7215 21.6359 23.7192C21.6333 23.7169 21.6297 23.7137 21.6254 23.7099C21.6211 23.7061 21.6157 23.7012 21.6094 23.6955L22.9551 22.2159ZM22.9473 22.2091L24.2937 20.7302C24.2751 20.7133 24.2546 20.6942 24.2037 20.6474L22.8506 22.1202L21.4975 23.593C21.5291 23.6221 21.5746 23.6641 21.6009 23.688L22.9473 22.2091ZM22.8506 22.1202L24.2037 20.6474C24.1252 20.5753 24.0125 20.4712 23.8758 20.3429L22.5068 21.8009L21.1378 23.2589C21.2871 23.3991 21.4107 23.5133 21.4975 23.593L22.8506 22.1202ZM22.5068 21.8009L23.8758 20.3429C23.6016 20.0853 23.2304 19.73 22.8432 19.3411L21.4258 20.7521L20.0084 22.1631C20.4354 22.592 20.8403 22.9796 21.1378 23.2589L22.5068 21.8009ZM21.4258 20.7521L22.8432 19.3411C22.4552 18.9513 22.0596 18.5356 21.732 18.1548L20.2158 19.4591L18.6997 20.7634C19.1152 21.2465 19.5853 21.7381 20.0084 22.1631L21.4258 20.7521ZM20.2158 19.4591L21.732 18.1548C21.3873 17.7541 21.1783 17.4607 21.1016 17.3018L19.3008 18.172L17.5 19.0422C17.8227 19.7099 18.3374 20.3423 18.6996 20.7634L20.2158 19.4591ZM19.3008 18.172L21.1017 17.3021C21.3421 17.7997 21.1335 18.3969 20.6365 18.637L19.7666 16.8361L18.8967 15.0351C17.4051 15.7556 16.7791 17.5496 17.4998 19.0418L19.3008 18.172ZM19.7666 16.8361L20.6358 18.6373C20.138 18.8775 19.5405 18.6684 19.3006 18.1718L21.1016 17.3019L22.9025 16.432C22.1823 14.9409 20.3897 14.3147 18.8974 15.0348L19.7666 16.8361ZM21.1016 17.3019L19.3008 18.1721C19.5012 18.5868 19.8645 19.051 20.2152 19.4587L21.7314 18.1544L23.2477 16.8502C23.1003 16.6789 22.9964 16.5471 22.9299 16.4561C22.8968 16.4108 22.8782 16.3829 22.8706 16.371C22.8601 16.3546 22.8762 16.3777 22.9023 16.4317L21.1016 17.3019ZM21.7314 18.1544L20.2153 19.4587C20.5866 19.8903 21.0195 20.3442 21.4253 20.7519L22.8428 19.3409L24.2602 17.93C23.8895 17.5576 23.531 17.1796 23.2476 16.8501L21.7314 18.1544ZM22.8428 19.3409L21.4254 20.752C21.8325 21.1609 22.221 21.5324 22.507 21.8009L23.876 20.3429L25.245 18.8849C24.981 18.637 24.6266 18.298 24.2602 17.9299L22.8428 19.3409ZM23.876 20.3429L22.507 21.8009C22.6511 21.9362 22.7696 22.0456 22.851 22.1204L24.2041 20.6476L25.5572 19.1748C25.4826 19.1062 25.3753 19.0072 25.245 18.8849L23.876 20.3429ZM24.2041 20.6476L22.8511 22.1204C22.8942 22.1601 22.9292 22.1918 22.9475 22.2085L24.2939 20.7296L25.6404 19.2507C25.6181 19.2305 25.5919 19.2067 25.5571 19.1747L24.2041 20.6476ZM24.2939 20.7296L22.9473 22.2083C22.9248 22.1879 22.9085 22.1717 22.907 22.1704C22.9069 22.1702 22.9068 22.1701 22.9072 22.1705C22.9073 22.1706 22.9082 22.1715 22.9089 22.1721C22.9103 22.1735 22.9138 22.177 22.9181 22.1812C22.9224 22.1853 22.9293 22.192 22.9377 22.2C22.9461 22.2079 22.9582 22.2193 22.973 22.2327L24.3164 20.7511L25.6598 19.2695C25.6734 19.2817 25.6842 19.2919 25.6911 19.2985C25.6982 19.3052 25.7036 19.3104 25.7063 19.3131C25.7078 19.3145 25.7089 19.3156 25.7096 19.3163C25.71 19.3166 25.7102 19.3169 25.7104 19.3171C25.7105 19.3171 25.7105 19.3172 25.7106 19.3172C25.7106 19.3173 25.7106 19.3173 25.7106 19.3173C25.7106 19.3173 25.7106 19.3173 25.7106 19.3173C25.7106 19.3173 25.7106 19.3173 25.7106 19.3173C25.7105 19.3172 25.7105 19.3172 25.7104 19.3171C25.7103 19.317 25.7102 19.3169 25.7101 19.3168C25.71 19.3167 25.7099 19.3166 25.7097 19.3164C25.7092 19.3158 25.7082 19.3149 25.7071 19.3138C25.6982 19.3051 25.6731 19.2805 25.6406 19.2509L24.2939 20.7296ZM24.3164 20.7511L23.008 22.2638C23.0787 22.3249 23.1428 22.3718 23.1921 22.4053C23.2405 22.4383 23.2801 22.4621 23.2973 22.4723C23.305 22.4769 23.3127 22.4814 23.3098 22.4797C23.3094 22.4795 23.3067 22.4779 23.3031 22.4758C23.2995 22.4736 23.2935 22.4701 23.2862 22.4657C23.2728 22.4575 23.2465 22.4414 23.214 22.4199C23.1823 22.3988 23.1322 22.3641 23.0736 22.3173L24.3223 20.755L25.5709 19.1927C25.5406 19.1684 25.5132 19.148 25.4901 19.1314C25.467 19.1148 25.4464 19.1007 25.4295 19.0894C25.3967 19.0676 25.37 19.0513 25.3561 19.0429C25.3486 19.0383 25.3424 19.0346 25.3385 19.0323C25.3347 19.0301 25.3317 19.0284 25.3311 19.028C25.3278 19.026 25.335 19.0303 25.3421 19.0345C25.3583 19.0441 25.3968 19.0672 25.4441 19.0995C25.4922 19.1322 25.5552 19.1782 25.6248 19.2384L24.3164 20.7511ZM24.3223 20.755L22.9081 22.1692L22.909 22.1702L24.3232 20.756L25.7375 19.3418L25.7365 19.3408L24.3223 20.755ZM24.3232 20.756L22.9623 22.2216L22.9897 22.247L24.3506 20.7814L25.7115 19.3158L25.6841 19.2904L24.3232 20.756ZM24.3506 20.7814L22.9109 22.1696L22.9373 22.197L24.377 20.8087L25.8166 19.4204L25.7903 19.3931L24.3506 20.7814ZM24.377 20.8087L22.9293 22.1887C26.5257 25.9612 28.9525 28.7344 30.7088 31.2183L32.3418 30.0636L33.9748 28.9089C32.0431 26.177 29.4499 23.2316 25.8246 19.4287L24.377 20.8087ZM32.3418 30.0636L34.1553 30.907C35.1355 28.7994 36.1738 26.4649 37.1514 24.2543L35.3223 23.4454L33.4931 22.6366C32.5156 24.847 31.4909 27.1505 30.5283 29.2202L32.3418 30.0636ZM35.3223 23.4454L37.1514 24.2543C38.8117 20.4998 40.2629 17.1886 40.9855 15.8821L39.2354 14.9142L37.4852 13.9462C36.6501 15.4562 35.0932 19.0182 33.4931 22.6366L35.3223 23.4454Z" fill="white" mask="url(#path-1-outside-1_34_104)"/>
</svg>
