<svg width="64" height="64" viewBox="0 0 64 64" fill="none" xmlns="http://www.w3.org/2000/svg">
<mask id="path-1-outside-1_34_189" maskUnits="userSpaceOnUse" x="20.3857" y="27.2685" width="26" height="11" fill="black">
<rect fill="white" x="20.3857" y="27.2685" width="26" height="11"/>
<path d="M22.6016 32.164C22.73 31.6272 23.2687 31.2958 23.8057 31.4238C24.3675 31.5578 24.8378 31.7124 25.1943 31.9296C25.5487 32.1457 25.827 32.4488 25.9531 32.8525L25.998 33.0322L26.0195 33.1826C26.0911 33.9277 25.651 34.5758 25.1904 34.9394C24.941 35.1363 24.6053 35.3197 24.2734 35.413C24.1154 35.4574 23.8641 35.5082 23.5869 35.4628C23.2651 35.41 22.8426 35.2017 22.6631 34.7089C22.3866 33.9499 22.3857 33.3139 22.3857 33.1484C22.3858 32.924 22.461 32.7175 22.5859 32.5507C22.5664 32.4258 22.5704 32.2946 22.6016 32.164ZM32.0684 31.5947C32.2912 31.1308 32.8367 30.9069 33.3262 31.0937C33.8842 31.3069 34.383 31.5865 34.6865 32.0204C35.049 32.5389 34.9955 33.0628 34.9014 33.3994C34.73 34.0115 34.2911 34.5697 33.6533 34.8544C33.3769 34.9777 33.0127 35.0752 32.6543 35.0761C32.3932 35.0767 31.5683 35.0086 31.2969 34.1865C31.0324 33.385 31.0293 32.7666 31.0293 32.5927C31.0295 32.0406 31.4771 31.5927 32.0293 31.5927C32.0422 31.5927 32.0555 31.5942 32.0684 31.5947ZM41.7568 30.2773C42.4659 30.3719 43.1648 30.7511 43.4443 31.4736L43.4941 31.623L43.5273 31.7587C43.6669 32.4408 43.3908 33.1423 42.8984 33.5654C42.6532 33.776 42.3223 33.9509 41.9727 34.0204C41.6606 34.0824 40.9789 34.1093 40.5518 33.5009C40.3215 33.1729 40.1609 32.8635 40.0547 32.6025C39.9658 32.384 39.8722 32.0959 39.8721 31.8329C39.8721 31.333 40.2395 30.9196 40.7188 30.8456C40.8986 30.4603 41.313 30.2182 41.7568 30.2773Z"/>
</mask>
<path d="M22.6016 32.164C22.73 31.6272 23.2687 31.2958 23.8057 31.4238C24.3675 31.5578 24.8378 31.7124 25.1943 31.9296C25.5487 32.1457 25.827 32.4488 25.9531 32.8525L25.998 33.0322L26.0195 33.1826C26.0911 33.9277 25.651 34.5758 25.1904 34.9394C24.941 35.1363 24.6053 35.3197 24.2734 35.413C24.1154 35.4574 23.8641 35.5082 23.5869 35.4628C23.2651 35.41 22.8426 35.2017 22.6631 34.7089C22.3866 33.9499 22.3857 33.3139 22.3857 33.1484C22.3858 32.924 22.461 32.7175 22.5859 32.5507C22.5664 32.4258 22.5704 32.2946 22.6016 32.164ZM32.0684 31.5947C32.2912 31.1308 32.8367 30.9069 33.3262 31.0937C33.8842 31.3069 34.383 31.5865 34.6865 32.0204C35.049 32.5389 34.9955 33.0628 34.9014 33.3994C34.73 34.0115 34.2911 34.5697 33.6533 34.8544C33.3769 34.9777 33.0127 35.0752 32.6543 35.0761C32.3932 35.0767 31.5683 35.0086 31.2969 34.1865C31.0324 33.385 31.0293 32.7666 31.0293 32.5927C31.0295 32.0406 31.4771 31.5927 32.0293 31.5927C32.0422 31.5927 32.0555 31.5942 32.0684 31.5947ZM41.7568 30.2773C42.4659 30.3719 43.1648 30.7511 43.4443 31.4736L43.4941 31.623L43.5273 31.7587C43.6669 32.4408 43.3908 33.1423 42.8984 33.5654C42.6532 33.776 42.3223 33.9509 41.9727 34.0204C41.6606 34.0824 40.9789 34.1093 40.5518 33.5009C40.3215 33.1729 40.1609 32.8635 40.0547 32.6025C39.9658 32.384 39.8722 32.0959 39.8721 31.8329C39.8721 31.333 40.2395 30.9196 40.7188 30.8456C40.8986 30.4603 41.313 30.2182 41.7568 30.2773Z" fill="black"/>
<path d="M22.6016 32.164L20.6565 31.6986L20.6562 31.6998L22.6016 32.164ZM23.8057 31.4238L24.2699 29.4784L24.2695 29.4783L23.8057 31.4238ZM25.1943 31.9296L26.2357 30.2221L26.2352 30.2218L25.1943 31.9296ZM25.9531 32.8525L27.8934 32.3674L27.8793 32.3112L27.862 32.2558L25.9531 32.8525ZM25.998 33.0322L27.9779 32.7493L27.9634 32.6472L27.9383 32.5471L25.998 33.0322ZM26.0195 33.1826L28.0104 32.9914L28.006 32.9454L27.9994 32.8997L26.0195 33.1826ZM25.1904 34.9394L26.4294 36.5094L26.4298 36.5091L25.1904 34.9394ZM24.2734 35.413L24.8144 37.3385L24.8149 37.3383L24.2734 35.413ZM23.5869 35.4628L23.2631 37.4364L23.2635 37.4365L23.5869 35.4628ZM22.6631 34.7089L20.7838 35.3934L20.7839 35.3936L22.6631 34.7089ZM22.3857 33.1484L20.3857 33.1477V33.1484H22.3857ZM22.5859 32.5507L24.187 33.7494L24.6922 33.0745L24.5619 32.2416L22.5859 32.5507ZM32.0684 31.5947L31.9915 33.5932L33.3028 33.6436L33.8711 32.4607L32.0684 31.5947ZM33.3262 31.0937L34.04 29.2254L34.0394 29.2252L33.3262 31.0937ZM34.6865 32.0204L36.3256 30.8744L36.3253 30.8739L34.6865 32.0204ZM34.9014 33.3994L36.8273 33.9384L36.8275 33.9378L34.9014 33.3994ZM33.6533 34.8544L34.4679 36.681L34.4686 36.6807L33.6533 34.8544ZM32.6543 35.0761L32.6585 37.0761L32.6596 37.0761L32.6543 35.0761ZM31.2969 34.1865L29.3976 34.8132L29.3977 34.8135L31.2969 34.1865ZM31.0293 32.5927L29.0293 32.5921L29.0293 32.5928L31.0293 32.5927ZM32.0293 31.5927L32.0347 29.5927H32.0293V31.5927ZM41.7568 30.2773L42.0215 28.2949L42.0207 28.2948L41.7568 30.2773ZM43.4443 31.4736L45.3417 30.8411L45.3267 30.7961L45.3096 30.7518L43.4443 31.4736ZM43.4941 31.623L45.4369 31.1478L45.4174 31.0682L45.3915 30.9905L43.4941 31.623ZM43.5273 31.7587L45.4868 31.3578L45.4791 31.3205L45.4701 31.2835L43.5273 31.7587ZM42.8984 33.5654L44.2016 35.0825L44.2019 35.0823L42.8984 33.5654ZM41.9727 34.0204L42.3624 35.9821L42.363 35.982L41.9727 34.0204ZM40.5518 33.5009L38.9148 34.6499L38.915 34.6503L40.5518 33.5009ZM40.0547 32.6025L38.2021 33.3561L38.2022 33.3562L40.0547 32.6025ZM39.8721 31.8329L37.8721 31.8329L37.8721 31.8337L39.8721 31.8329ZM40.7188 30.8456L41.0238 32.8222L42.0794 32.6593L42.5311 31.6914L40.7188 30.8456ZM22.6016 32.164L24.5466 32.6295C24.4185 33.1649 23.8802 33.4976 23.3418 33.3692L23.8057 31.4238L24.2695 29.4783C22.6573 29.0939 21.0415 30.0896 20.6565 31.6986L22.6016 32.164ZM23.8057 31.4238L23.3415 33.3692C23.85 33.4905 24.0717 33.5876 24.1535 33.6374L25.1943 31.9296L26.2352 30.2218C25.604 29.8371 24.885 29.6252 24.2699 29.4784L23.8057 31.4238ZM25.1943 31.9296L24.153 33.6372C24.1754 33.6508 24.1612 33.6465 24.1323 33.6124C24.1003 33.5745 24.0656 33.5176 24.0442 33.4491L25.9531 32.8525L27.862 32.2558C27.5596 31.2882 26.9045 30.63 26.2357 30.2221L25.1943 31.9296ZM25.9531 32.8525L24.0128 33.3375L24.0578 33.5172L25.998 33.0322L27.9383 32.5471L27.8934 32.3674L25.9531 32.8525ZM25.998 33.0322L24.0181 33.315L24.0396 33.4654L26.0195 33.1826L27.9994 32.8997L27.9779 32.7493L25.998 33.0322ZM26.0195 33.1826L24.0287 33.3737C24.025 33.3357 24.0287 33.3035 24.0334 33.2827C24.0376 33.2637 24.0413 33.26 24.0357 33.2706C24.03 33.2815 24.0184 33.2999 23.9999 33.3217C23.9812 33.3437 23.9629 33.3603 23.9511 33.3697L25.1904 34.9394L26.4298 36.5091C27.2132 35.8906 28.1689 34.6426 28.0104 32.9914L26.0195 33.1826ZM25.1904 34.9394L23.9515 33.3694C23.9278 33.388 23.886 33.4165 23.8338 33.4439C23.781 33.4716 23.7438 33.4844 23.732 33.4877L24.2734 35.413L24.8149 37.3383C25.4309 37.1651 25.9994 36.8487 26.4294 36.5094L25.1904 34.9394ZM24.2734 35.413L23.7325 33.4876C23.7267 33.4892 23.7376 33.4856 23.7615 33.483C23.7852 33.4805 23.8375 33.4772 23.9103 33.4891L23.5869 35.4628L23.2635 37.4365C23.9508 37.5491 24.5251 37.4197 24.8144 37.3385L24.2734 35.413ZM23.5869 35.4628L23.9107 33.4892C24.0103 33.5055 24.1209 33.5425 24.2346 33.6237C24.3662 33.7178 24.4823 33.8598 24.5422 34.0242L22.6631 34.7089L20.7839 35.3936C21.2818 36.76 22.459 37.3045 23.2631 37.4364L23.5869 35.4628ZM22.6631 34.7089L24.5423 34.0245C24.3846 33.5914 24.3857 33.2303 24.3857 33.1484H22.3857H20.3857C20.3857 33.3975 20.3886 34.3083 20.7838 35.3934L22.6631 34.7089ZM22.3857 33.1484L24.3857 33.1491C24.3857 33.3802 24.3064 33.5898 24.187 33.7494L22.5859 32.5507L20.9849 31.3521C20.6157 31.8453 20.386 32.4678 20.3857 33.1477L22.3857 33.1484ZM22.5859 32.5507L24.5619 32.2416C24.5819 32.3696 24.5773 32.5012 24.547 32.6282L22.6016 32.164L20.6562 31.6998C20.5635 32.0881 20.5509 32.482 20.61 32.8598L22.5859 32.5507ZM32.0684 31.5947L33.8711 32.4607C33.6484 32.9244 33.1055 33.1502 32.613 32.9622L33.3262 31.0937L34.0394 29.2252C32.568 28.6635 30.9341 29.3371 30.2656 30.7286L32.0684 31.5947ZM33.3262 31.0937L32.6123 32.962C32.8122 33.0383 32.9376 33.1031 33.0131 33.152C33.0847 33.1985 33.0769 33.2086 33.0478 33.167L34.6865 32.0204L36.3253 30.8739C35.6732 29.9419 34.713 29.4825 34.04 29.2254L33.3262 31.0937ZM34.6865 32.0204L33.0475 33.1665C33.0326 33.1453 33.0138 33.1116 32.9982 33.0671C32.983 33.0236 32.9753 32.9821 32.9723 32.947C32.9668 32.8823 32.9782 32.8503 32.9752 32.8609L34.9014 33.3994L36.8275 33.9378C37.0099 33.2854 37.1604 32.0684 36.3256 30.8744L34.6865 32.0204ZM34.9014 33.3994L32.9754 32.8603C32.9658 32.8944 32.9466 32.9325 32.9193 32.9652C32.8937 32.9957 32.8662 33.0156 32.838 33.0281L33.6533 34.8544L34.4686 36.6807C35.688 36.1364 36.5073 35.0818 36.8273 33.9384L34.9014 33.3994ZM33.6533 34.8544L32.8388 33.0278C32.8154 33.0382 32.7753 33.0529 32.7287 33.0638C32.7068 33.0689 32.6878 33.0722 32.6727 33.0741C32.6653 33.075 32.6595 33.0755 32.6553 33.0758C32.6511 33.0761 32.649 33.0761 32.649 33.0761L32.6543 35.0761L32.6596 37.0761C33.3461 37.0743 33.9859 36.896 34.4679 36.681L33.6533 34.8544ZM32.6543 35.0761L32.6501 33.0761C32.6699 33.0761 32.6802 33.0771 32.6898 33.0786C32.6979 33.08 32.7315 33.0857 32.7832 33.1084C32.8381 33.1325 32.926 33.1815 33.015 33.2723C33.1098 33.3691 33.1683 33.4753 33.196 33.5594L31.2969 34.1865L29.3977 34.8135C29.744 35.8624 30.4876 36.4692 31.1757 36.7712C31.804 37.0469 32.3863 37.0767 32.6585 37.0761L32.6543 35.0761ZM31.2969 34.1865L33.1961 33.5598C33.0265 33.0457 33.0293 32.6671 33.0293 32.5927L31.0293 32.5927L29.0293 32.5928C29.0293 32.8661 29.0383 33.7244 29.3976 34.8132L31.2969 34.1865ZM31.0293 32.5927L33.0293 32.5933C33.0291 33.1447 32.5823 33.5927 32.0293 33.5927V31.5927V29.5927C30.372 29.5927 29.0298 30.9365 29.0293 32.5921L31.0293 32.5927ZM32.0293 31.5927L32.0238 33.5927C31.9919 33.5926 31.9661 33.5917 31.9496 33.591C31.9335 33.5902 31.9217 33.5895 31.9201 33.5894C31.9195 33.5893 31.9186 33.5893 31.9216 33.5895C31.9235 33.5896 31.9283 33.5899 31.9338 33.5903C31.9446 33.5909 31.9656 33.5922 31.9915 33.5932L32.0684 31.5947L32.1452 29.5961C32.1647 29.5969 32.1793 29.5978 32.1835 29.5981C32.1858 29.5982 32.1873 29.5983 32.186 29.5982C32.1857 29.5982 32.1815 29.5979 32.1776 29.5977C32.1695 29.5971 32.1511 29.596 32.1285 29.595C32.1054 29.5939 32.0731 29.5928 32.0347 29.5927L32.0293 31.5927ZM41.7568 30.2773L41.4922 32.2597C41.5399 32.2661 41.5806 32.2764 41.6118 32.2875C41.6431 32.2986 41.6579 32.3079 41.6598 32.3091C41.6608 32.3098 41.6472 32.3009 41.6281 32.2781C41.6079 32.2539 41.5904 32.2245 41.5791 32.1953L43.4443 31.4736L45.3096 30.7518C44.6797 29.124 43.1793 28.4495 42.0215 28.2949L41.7568 30.2773ZM43.4443 31.4736L41.547 32.106L41.5968 32.2554L43.4941 31.623L45.3915 30.9905L45.3417 30.8411L43.4443 31.4736ZM43.4941 31.623L41.5514 32.0982L41.5846 32.2339L43.5273 31.7587L45.4701 31.2835L45.4369 31.1478L43.4941 31.623ZM43.5273 31.7587L41.5679 32.1596C41.5583 32.1124 41.5669 32.0848 41.5686 32.0804C41.5696 32.0774 41.5708 32.0749 41.5731 32.0716C41.5753 32.0684 41.5815 32.0601 41.595 32.0484L42.8984 33.5654L44.2019 35.0823C45.2048 34.2205 45.782 32.8007 45.4868 31.3578L43.5273 31.7587ZM42.8984 33.5654L41.5953 32.0482C41.5984 32.0455 41.5978 32.0463 41.5935 32.0492C41.5894 32.0519 41.5841 32.0551 41.5785 32.0579C41.5728 32.0607 41.5692 32.062 41.5684 32.0623C41.5676 32.0626 41.5721 32.0609 41.5823 32.0589L41.9727 34.0204L42.363 35.982C43.0807 35.8392 43.7202 35.4961 44.2016 35.0825L42.8984 33.5654ZM41.9727 34.0204L41.583 32.0588C41.6144 32.0525 41.6678 32.0428 41.7617 32.0648C41.8188 32.0782 41.8986 32.1058 41.9845 32.1605C42.0742 32.2177 42.1433 32.2872 42.1885 32.3516L40.5518 33.5009L38.915 34.6503C40.0405 36.2531 41.7979 36.0943 42.3624 35.9821L41.9727 34.0204ZM40.5518 33.5009L42.1887 32.3519C42.0459 32.1484 41.9573 31.9718 41.9072 31.8487L40.0547 32.6025L38.2022 33.3562C38.3645 33.7553 38.5972 34.1975 38.9148 34.6499L40.5518 33.5009ZM40.0547 32.6025L41.9073 31.8489C41.8965 31.8224 41.8873 31.7981 41.8799 31.7763C41.8723 31.7543 41.8677 31.7385 41.8652 31.7289C41.8626 31.7189 41.8637 31.7212 41.8657 31.7346C41.8668 31.7418 41.8683 31.7534 41.8696 31.7691C41.8709 31.7848 41.8721 31.806 41.8721 31.8322L39.8721 31.8329L37.8721 31.8337C37.8723 32.4967 38.0897 33.0797 38.2021 33.3561L40.0547 32.6025ZM39.8721 31.8329H41.8721C41.8721 32.3384 41.5012 32.7486 41.0238 32.8222L40.7188 30.8456L40.4137 28.869C38.9777 29.0907 37.8721 30.3275 37.8721 31.8329H39.8721ZM40.7188 30.8456L42.5311 31.6914C42.3527 32.0737 41.9413 32.3195 41.493 32.2598L41.7568 30.2773L42.0207 28.2948C40.6847 28.1169 39.4445 28.8469 38.9064 29.9999L40.7188 30.8456Z" fill="white" mask="url(#path-1-outside-1_34_189)"/>
</svg>
