<svg width="64" height="64" viewBox="0 0 64 64" fill="none" xmlns="http://www.w3.org/2000/svg">
<mask id="path-1-outside-1_34_52" maskUnits="userSpaceOnUse" x="14.8101" y="12.9763" width="34" height="36" fill="black">
<rect fill="white" x="14.8101" y="12.9763" width="34" height="36"/>
<path d="M43.0884 15.3006C44.3441 15.2354 45.5894 15.1917 46.2476 15.2605L46.6089 15.2986L46.8042 15.6062C47.0328 15.9677 47.1376 16.4013 47.1772 16.8338C47.2175 17.2736 47.1946 17.7666 47.1294 18.2869C46.9989 19.3273 46.685 20.5614 46.2534 21.868L46.2495 21.8787C45.8706 22.9637 45.6129 23.5517 45.354 24.1443C45.1882 24.5237 44.7471 24.6975 44.3677 24.532C43.9882 24.3662 43.8142 23.9242 43.98 23.5447C44.2324 22.967 44.4725 22.4181 44.8335 21.3846C45.2468 20.1316 45.5278 19.0037 45.6411 18.0994C45.6445 18.0722 45.6468 18.045 45.6499 18.0183C44.8726 18.3358 44.4901 18.5454 44.1362 18.8064C43.1825 19.635 41.9014 20.8747 40.4419 22.2752C38.4566 24.4951 36.9203 26.7894 35.0083 29.3797C34.3327 30.295 33.5763 31.3811 32.7788 32.5594C35.0322 34.7625 38.0435 37.0974 42.5396 40.2644C42.5445 40.2674 42.5507 40.2703 42.5571 40.2742C42.5828 40.2897 42.62 40.3126 42.6675 40.3416C42.7627 40.3996 42.8993 40.4833 43.0649 40.5867C43.396 40.7934 43.8469 41.0812 44.3228 41.4012C44.7971 41.7201 45.3049 42.0766 45.7466 42.4226C46.172 42.756 46.5932 43.1234 46.8481 43.4617C47.0972 43.7925 47.0314 44.2633 46.7007 44.5125C46.37 44.7613 45.9001 44.6945 45.6509 44.364C45.5238 44.1953 45.2388 43.9318 44.8208 43.6043C44.419 43.2895 43.9451 42.9541 43.4858 42.6453C43.0279 42.3374 42.5916 42.06 42.27 41.8592C42.1098 41.7591 41.9783 41.6784 41.8872 41.6228C41.8416 41.5951 41.8056 41.5728 41.7817 41.5584C41.7702 41.5514 41.7612 41.5463 41.7554 41.5428C41.7526 41.5411 41.75 41.5396 41.7485 41.5388L41.7466 41.5379L41.7222 41.5232L41.6997 41.5066C37.3064 38.4127 34.2544 36.0619 31.9292 33.823C30.8197 35.4898 29.6628 37.277 28.5562 38.99C26.3642 42.3829 24.3515 45.5252 23.3706 46.783C23.1159 47.1096 22.6445 47.1675 22.3179 46.9129C21.9916 46.6581 21.9326 46.1876 22.187 45.8611C23.1141 44.6725 25.0734 41.6166 27.2964 38.1756C28.4553 36.3817 29.6808 34.4926 30.8521 32.7381C29.5338 31.3449 28.1725 29.6744 26.8169 27.9763C25.2741 26.0438 23.735 24.0754 22.2241 22.3719L22.2183 22.365C21.2106 21.203 20.5117 20.2045 19.9526 19.1492L19.9458 19.1346L19.939 19.1219C19.825 18.8839 19.7222 18.644 19.6245 18.406C19.4529 18.8002 19.2918 19.2157 19.1489 19.6355C18.7647 20.7645 18.5437 21.8326 18.561 22.5379C18.5713 22.9519 18.2436 23.297 17.8296 23.3074C17.4157 23.3175 17.0714 22.9898 17.061 22.576C17.037 21.6078 17.3234 20.3412 17.728 19.1521C18.1366 17.9515 18.6992 16.7357 19.2886 15.8592L19.5034 15.5398L19.8872 15.5281C20.6019 15.5066 21.38 15.762 22.1167 16.0603C22.8362 16.3517 23.7194 16.774 24.519 17.118C25.2552 17.4152 25.7467 17.5711 26.4937 17.6492C26.9054 17.6923 27.2044 18.0616 27.1616 18.4734C27.1186 18.8853 26.7502 19.1843 26.3384 19.1414C25.4017 19.0435 24.7665 18.8362 23.9575 18.5096L23.9497 18.5066L23.9419 18.5027C23.0198 18.1068 22.289 17.7489 21.5532 17.451C21.2513 17.3287 20.9845 17.2323 20.7485 17.1629C20.9224 17.6196 21.086 18.0431 21.2827 18.4558C21.776 19.3853 22.402 20.2873 23.3462 21.3767L23.9272 22.0418C25.2833 23.6189 26.654 25.3667 27.9897 27.0398C29.2681 28.6411 30.5157 30.1728 31.7114 31.4617C32.4552 30.3673 33.1624 29.3546 33.8013 28.489C35.6692 25.9585 37.2872 23.549 39.3452 21.2517L39.3638 21.2312L39.3833 21.2117C40.8431 19.8111 42.1758 18.521 43.1724 17.657L43.1929 17.6394L43.2144 17.6228C43.6622 17.2886 44.1186 17.035 44.8276 16.7332C44.3426 16.7442 43.7737 16.7671 43.1655 16.7986C42.5319 16.8315 41.8734 16.8709 41.2495 16.909C40.6272 16.947 40.0366 16.9842 39.5464 17.0096C39.1328 17.0309 38.7797 16.7122 38.7583 16.2986C38.7372 15.8854 39.0551 15.5322 39.4683 15.5105C39.9498 15.4856 40.5323 15.4501 41.1577 15.4119C41.7813 15.3738 42.4468 15.3339 43.0884 15.3006Z"/>
</mask>
<path d="M43.0884 15.3006C44.3441 15.2354 45.5894 15.1917 46.2476 15.2605L46.6089 15.2986L46.8042 15.6062C47.0328 15.9677 47.1376 16.4013 47.1772 16.8338C47.2175 17.2736 47.1946 17.7666 47.1294 18.2869C46.9989 19.3273 46.685 20.5614 46.2534 21.868L46.2495 21.8787C45.8706 22.9637 45.6129 23.5517 45.354 24.1443C45.1882 24.5237 44.7471 24.6975 44.3677 24.532C43.9882 24.3662 43.8142 23.9242 43.98 23.5447C44.2324 22.967 44.4725 22.4181 44.8335 21.3846C45.2468 20.1316 45.5278 19.0037 45.6411 18.0994C45.6445 18.0722 45.6468 18.045 45.6499 18.0183C44.8726 18.3358 44.4901 18.5454 44.1362 18.8064C43.1825 19.635 41.9014 20.8747 40.4419 22.2752C38.4566 24.4951 36.9203 26.7894 35.0083 29.3797C34.3327 30.295 33.5763 31.3811 32.7788 32.5594C35.0322 34.7625 38.0435 37.0974 42.5396 40.2644C42.5445 40.2674 42.5507 40.2703 42.5571 40.2742C42.5828 40.2897 42.62 40.3126 42.6675 40.3416C42.7627 40.3996 42.8993 40.4833 43.0649 40.5867C43.396 40.7934 43.8469 41.0812 44.3228 41.4012C44.7971 41.7201 45.3049 42.0766 45.7466 42.4226C46.172 42.756 46.5932 43.1234 46.8481 43.4617C47.0972 43.7925 47.0314 44.2633 46.7007 44.5125C46.37 44.7613 45.9001 44.6945 45.6509 44.364C45.5238 44.1953 45.2388 43.9318 44.8208 43.6043C44.419 43.2895 43.9451 42.9541 43.4858 42.6453C43.0279 42.3374 42.5916 42.06 42.27 41.8592C42.1098 41.7591 41.9783 41.6784 41.8872 41.6228C41.8416 41.5951 41.8056 41.5728 41.7817 41.5584C41.7702 41.5514 41.7612 41.5463 41.7554 41.5428C41.7526 41.5411 41.75 41.5396 41.7485 41.5388L41.7466 41.5379L41.7222 41.5232L41.6997 41.5066C37.3064 38.4127 34.2544 36.0619 31.9292 33.823C30.8197 35.4898 29.6628 37.277 28.5562 38.99C26.3642 42.3829 24.3515 45.5252 23.3706 46.783C23.1159 47.1096 22.6445 47.1675 22.3179 46.9129C21.9916 46.6581 21.9326 46.1876 22.187 45.8611C23.1141 44.6725 25.0734 41.6166 27.2964 38.1756C28.4553 36.3817 29.6808 34.4926 30.8521 32.7381C29.5338 31.3449 28.1725 29.6744 26.8169 27.9763C25.2741 26.0438 23.735 24.0754 22.2241 22.3719L22.2183 22.365C21.2106 21.203 20.5117 20.2045 19.9526 19.1492L19.9458 19.1346L19.939 19.1219C19.825 18.8839 19.7222 18.644 19.6245 18.406C19.4529 18.8002 19.2918 19.2157 19.1489 19.6355C18.7647 20.7645 18.5437 21.8326 18.561 22.5379C18.5713 22.9519 18.2436 23.297 17.8296 23.3074C17.4157 23.3175 17.0714 22.9898 17.061 22.576C17.037 21.6078 17.3234 20.3412 17.728 19.1521C18.1366 17.9515 18.6992 16.7357 19.2886 15.8592L19.5034 15.5398L19.8872 15.5281C20.6019 15.5066 21.38 15.762 22.1167 16.0603C22.8362 16.3517 23.7194 16.774 24.519 17.118C25.2552 17.4152 25.7467 17.5711 26.4937 17.6492C26.9054 17.6923 27.2044 18.0616 27.1616 18.4734C27.1186 18.8853 26.7502 19.1843 26.3384 19.1414C25.4017 19.0435 24.7665 18.8362 23.9575 18.5096L23.9497 18.5066L23.9419 18.5027C23.0198 18.1068 22.289 17.7489 21.5532 17.451C21.2513 17.3287 20.9845 17.2323 20.7485 17.1629C20.9224 17.6196 21.086 18.0431 21.2827 18.4558C21.776 19.3853 22.402 20.2873 23.3462 21.3767L23.9272 22.0418C25.2833 23.6189 26.654 25.3667 27.9897 27.0398C29.2681 28.6411 30.5157 30.1728 31.7114 31.4617C32.4552 30.3673 33.1624 29.3546 33.8013 28.489C35.6692 25.9585 37.2872 23.549 39.3452 21.2517L39.3638 21.2312L39.3833 21.2117C40.8431 19.8111 42.1758 18.521 43.1724 17.657L43.1929 17.6394L43.2144 17.6228C43.6622 17.2886 44.1186 17.035 44.8276 16.7332C44.3426 16.7442 43.7737 16.7671 43.1655 16.7986C42.5319 16.8315 41.8734 16.8709 41.2495 16.909C40.6272 16.947 40.0366 16.9842 39.5464 17.0096C39.1328 17.0309 38.7797 16.7122 38.7583 16.2986C38.7372 15.8854 39.0551 15.5322 39.4683 15.5105C39.9498 15.4856 40.5323 15.4501 41.1577 15.4119C41.7813 15.3738 42.4468 15.3339 43.0884 15.3006Z" fill="black"/>
<path d="M43.0884 15.3006L43.0106 13.8026L43.0106 13.8026L43.0884 15.3006ZM46.2476 15.2605L46.4048 13.7688L46.4035 13.7687L46.2476 15.2605ZM46.6089 15.2986L47.8752 14.4946L47.4868 13.8828L46.7661 13.8069L46.6089 15.2986ZM46.8042 15.6062L48.072 14.8045L48.0705 14.8022L46.8042 15.6062ZM47.1772 16.8338L48.671 16.697L48.671 16.6967L47.1772 16.8338ZM47.1294 18.2869L48.6177 18.4735L48.6178 18.4734L47.1294 18.2869ZM46.2534 21.868L47.6631 22.3806L47.6707 22.3596L47.6777 22.3385L46.2534 21.868ZM46.2495 21.8787L44.8398 21.3661L44.8365 21.3751L44.8334 21.3842L46.2495 21.8787ZM45.354 24.1443L43.9795 23.5437L43.9795 23.5437L45.354 24.1443ZM44.3677 24.532L43.7671 25.9065L43.7681 25.907L44.3677 24.532ZM43.98 23.5447L42.6055 22.9441L42.6053 22.9444L43.98 23.5447ZM44.8335 21.3846L46.2496 21.8791L46.2539 21.8668L46.258 21.8545L44.8335 21.3846ZM45.6411 18.0994L47.1295 18.2859L47.1296 18.2849L45.6411 18.0994ZM45.6499 18.0183L47.14 18.1906L47.4312 15.6707L45.0828 16.6297L45.6499 18.0183ZM44.1362 18.8064L43.2458 17.5993L43.1977 17.6348L43.1525 17.6741L44.1362 18.8064ZM40.4419 22.2752L39.4034 21.1929L39.362 21.2325L39.3238 21.2753L40.4419 22.2752ZM35.0083 29.3797L36.2151 30.2705L36.2151 30.2705L35.0083 29.3797ZM32.7788 32.5594L31.5366 31.7186L30.8344 32.7561L31.7302 33.6319L32.7788 32.5594ZM42.5396 40.2644L41.6757 41.4907L41.7205 41.5223L41.7674 41.5504L42.5396 40.2644ZM42.5571 40.2742L43.332 38.9898L43.3319 38.9898L42.5571 40.2742ZM42.6675 40.3416L43.4481 39.0607L43.4481 39.0607L42.6675 40.3416ZM43.0649 40.5867L43.8594 39.3144L43.8594 39.3144L43.0649 40.5867ZM44.3228 41.4012L45.1597 40.1564L45.1597 40.1564L44.3228 41.4012ZM45.7466 42.4226L46.6718 41.242L46.6717 41.2419L45.7466 42.4226ZM46.8481 43.4617L48.0464 42.5594L48.0461 42.559L46.8481 43.4617ZM46.7007 44.5125L47.6025 45.7111L47.6034 45.7104L46.7007 44.5125ZM45.6509 44.364L44.4529 45.2667L44.4532 45.2671L45.6509 44.364ZM44.8208 43.6043L45.746 42.4236L45.746 42.4236L44.8208 43.6043ZM43.4858 42.6453L44.3228 41.4005L44.3228 41.4005L43.4858 42.6453ZM42.27 41.8592L43.0645 40.5868L43.0645 40.5868L42.27 41.8592ZM41.8872 41.6228L42.6678 40.342L42.6678 40.3419L41.8872 41.6228ZM41.7817 41.5584L41.0065 42.8425L41.0069 42.8428L41.7817 41.5584ZM41.7554 41.5428L42.5289 40.2576L42.5275 40.2567L41.7554 41.5428ZM41.7485 41.5388L42.4518 40.2139L42.4357 40.2054L42.4194 40.1972L41.7485 41.5388ZM41.7466 41.5379L40.9748 42.8241L41.0242 42.8538L41.0758 42.8795L41.7466 41.5379ZM41.7222 41.5232L40.8306 42.7295L40.8886 42.7724L40.9504 42.8095L41.7222 41.5232ZM41.6997 41.5066L42.5913 40.3004L42.5775 40.2901L42.5634 40.2802L41.6997 41.5066ZM31.9292 33.823L32.9696 32.7425L31.6758 31.4967L30.6805 32.9919L31.9292 33.823ZM28.5562 38.99L27.2962 38.176L27.2962 38.176L28.5562 38.99ZM23.3706 46.783L24.5534 47.7055L24.5534 47.7055L23.3706 46.783ZM22.3179 46.9129L21.3948 48.0952L21.3955 48.0958L22.3179 46.9129ZM22.187 45.8611L21.0042 44.9386L21.0038 44.9392L22.187 45.8611ZM27.2964 38.1756L26.0364 37.3616L26.0364 37.3616L27.2964 38.1756ZM30.8521 32.7381L32.0996 33.5709L32.7638 32.576L31.9416 31.7071L30.8521 32.7381ZM26.8169 27.9763L25.6446 28.9122L25.6446 28.9122L26.8169 27.9763ZM22.2241 22.3719L21.0852 23.348L21.0935 23.3577L21.1019 23.3672L22.2241 22.3719ZM22.2183 22.365L23.3572 21.3888L23.3515 21.3823L22.2183 22.365ZM19.9526 19.1492L18.5934 19.7835L18.6094 19.8179L18.6271 19.8514L19.9526 19.1492ZM19.9458 19.1346L21.3051 18.5002L21.2869 18.4613L21.2665 18.4234L19.9458 19.1346ZM19.939 19.1219L18.5862 19.77L18.6015 19.8019L18.6183 19.833L19.939 19.1219ZM19.6245 18.406L21.0123 17.8367L19.6657 14.5545L18.2492 17.8072L19.6245 18.406ZM19.1489 19.6355L17.7289 19.1522L17.7289 19.1523L19.1489 19.6355ZM18.561 22.5379L17.0615 22.5747L17.0615 22.5751L18.561 22.5379ZM17.8296 23.3074L17.8661 24.807L17.8673 24.8069L17.8296 23.3074ZM17.061 22.576L15.5615 22.6131L15.5615 22.6137L17.061 22.576ZM17.728 19.1521L16.308 18.6688L16.308 18.6689L17.728 19.1521ZM19.2886 15.8592L18.044 15.0218L18.0438 15.0222L19.2886 15.8592ZM19.5034 15.5398L19.4576 14.0405L18.6884 14.064L18.2589 14.7025L19.5034 15.5398ZM19.8872 15.5281L19.842 14.0288L19.8414 14.0288L19.8872 15.5281ZM22.1167 16.0603L22.6797 14.67L22.6797 14.67L22.1167 16.0603ZM24.519 17.118L23.9264 18.4959L23.9419 18.5026L23.9575 18.5089L24.519 17.118ZM26.4937 17.6492L26.6498 16.1573L26.6497 16.1573L26.4937 17.6492ZM27.1616 18.4734L28.6535 18.6294L28.6536 18.6286L27.1616 18.4734ZM26.3384 19.1414L26.1824 20.6333L26.1829 20.6333L26.3384 19.1414ZM23.9575 18.5096L24.5191 17.1186L24.5017 17.1116L24.4842 17.1051L23.9575 18.5096ZM23.9497 18.5066L23.2789 19.8483L23.3493 19.8835L23.423 19.9111L23.9497 18.5066ZM23.9419 18.5027L24.6127 17.1611L24.5738 17.1416L24.5337 17.1244L23.9419 18.5027ZM21.5532 17.451L22.1162 16.0606L22.1162 16.0606L21.5532 17.451ZM20.7485 17.1629L21.1722 15.7239L18.2704 14.8696L19.3467 17.6966L20.7485 17.1629ZM21.2827 18.4558L19.9287 19.1012L19.9426 19.1305L19.9578 19.1591L21.2827 18.4558ZM23.3462 21.3767L22.2127 22.3592L22.2166 22.3637L23.3462 21.3767ZM23.9272 22.0418L25.0647 21.0638L25.0568 21.0548L23.9272 22.0418ZM27.9897 27.0398L26.8175 27.9757L26.8175 27.9757L27.9897 27.0398ZM31.7114 31.4617L30.6118 32.4819L31.8931 33.863L32.952 32.3048L31.7114 31.4617ZM33.8013 28.489L35.0081 29.3798L35.0081 29.3798L33.8013 28.489ZM39.3452 21.2517L38.2329 20.2454L38.228 20.2509L39.3452 21.2517ZM39.3638 21.2312L38.3031 20.1706L38.2766 20.1971L38.2515 20.2249L39.3638 21.2312ZM39.3833 21.2117L38.3448 20.1293L38.3336 20.1401L38.3226 20.151L39.3833 21.2117ZM43.1724 17.657L42.1962 16.5181L42.1898 16.5237L43.1724 17.657ZM43.1929 17.6394L42.2757 16.4525L42.2456 16.4758L42.2167 16.5005L43.1929 17.6394ZM43.2144 17.6228L42.3172 16.4207L42.3071 16.4282L42.2972 16.4359L43.2144 17.6228ZM44.8276 16.7332L45.4151 18.1134L44.7937 15.2336L44.8276 16.7332ZM43.1655 16.7986L43.0878 15.3006L43.0878 15.3006L43.1655 16.7986ZM41.2495 16.909L41.1581 15.4118L41.1581 15.4118L41.2495 16.909ZM39.5464 17.0096L39.6238 18.5076L39.6239 18.5075L39.5464 17.0096ZM38.7583 16.2986L37.2603 16.3752L37.2603 16.3762L38.7583 16.2986ZM39.4683 15.5105L39.3907 14.0125L39.3895 14.0126L39.4683 15.5105ZM41.1577 15.4119L41.0663 13.9147L41.0663 13.9147L41.1577 15.4119ZM43.0884 15.3006L43.1661 16.7986C44.4605 16.7314 45.5751 16.6984 46.0916 16.7524L46.2476 15.2605L46.4035 13.7687C45.6036 13.685 44.2277 13.7394 43.0106 13.8026L43.0884 15.3006ZM46.2476 15.2605L46.0903 16.7523L46.4516 16.7904L46.6089 15.2986L46.7661 13.8069L46.4048 13.7688L46.2476 15.2605ZM46.6089 15.2986L45.3426 16.1026L45.5379 16.4102L46.8042 15.6062L48.0705 14.8022L47.8752 14.4946L46.6089 15.2986ZM46.8042 15.6062L45.5364 16.408C45.591 16.4943 45.6557 16.6675 45.6835 16.9708L47.1772 16.8338L48.671 16.6967C48.6194 16.135 48.4745 15.4411 48.072 14.8045L46.8042 15.6062ZM47.1772 16.8338L45.6835 16.9706C45.7106 17.2669 45.6982 17.6445 45.641 18.1004L47.1294 18.2869L48.6178 18.4734C48.691 17.8887 48.7244 17.2803 48.671 16.697L47.1772 16.8338ZM47.1294 18.2869L45.641 18.1003C45.5273 19.0079 45.2444 20.1403 44.8291 21.3974L46.2534 21.868L47.6777 22.3385C48.1257 20.9825 48.4706 19.6468 48.6177 18.4735L47.1294 18.2869ZM46.2534 21.868L44.8437 21.3553L44.8398 21.3661L46.2495 21.8787L47.6592 22.3913L47.6631 22.3806L46.2534 21.868ZM46.2495 21.8787L44.8334 21.3842C44.4728 22.4168 44.2324 22.965 43.9795 23.5437L45.354 24.1443L46.7285 24.7449C46.9935 24.1384 47.2684 23.5107 47.6656 22.3732L46.2495 21.8787ZM45.354 24.1443L43.9795 23.5437C44.1442 23.1668 44.5853 22.9905 44.9673 23.1571L44.3677 24.532L43.7681 25.907C44.9089 26.4045 46.2323 25.8806 46.7285 24.7449L45.354 24.1443ZM44.3677 24.532L44.9682 23.1575C45.3456 23.3223 45.5213 23.7633 45.3546 24.145L43.98 23.5447L42.6053 22.9444C42.1071 24.0852 42.6308 25.41 43.7671 25.9065L44.3677 24.532ZM43.98 23.5447L45.3545 24.1453C45.6133 23.5529 45.8706 22.9646 46.2496 21.8791L44.8335 21.3846L43.4174 20.89C43.0745 21.8717 42.8515 22.381 42.6055 22.9441L43.98 23.5447ZM44.8335 21.3846L46.258 21.8545C46.6877 20.5518 46.9995 19.3226 47.1295 18.2859L45.6411 18.0994L44.1528 17.9129C44.056 18.6848 43.806 19.7113 43.409 20.9146L44.8335 21.3846ZM45.6411 18.0994L47.1296 18.2849C47.1335 18.2537 47.1363 18.226 47.1378 18.2118C47.1387 18.2027 47.1391 18.1993 47.1396 18.1945C47.14 18.1907 47.1401 18.1899 47.14 18.1906L45.6499 18.0183L44.1598 17.8461C44.1582 17.8601 44.1569 17.8727 44.1559 17.8823C44.1549 17.891 44.1539 17.9011 44.1535 17.9056C44.1521 17.9184 44.1521 17.9179 44.1526 17.9139L45.6411 18.0994ZM45.6499 18.0183L45.0828 16.6297C44.2471 16.971 43.7389 17.2356 43.2458 17.5993L44.1362 18.8064L45.0266 20.0136C45.2413 19.8552 45.4982 19.7005 46.217 19.407L45.6499 18.0183ZM44.1362 18.8064L43.1525 17.6741C42.1629 18.5338 40.8458 19.8088 39.4034 21.1929L40.4419 22.2752L41.4804 23.3575C42.9571 21.9406 44.2021 20.7362 45.12 19.9388L44.1362 18.8064ZM40.4419 22.2752L39.3238 21.2753C37.276 23.5651 35.6629 25.967 33.8015 28.4889L35.0083 29.3797L36.2151 30.2705C38.1776 27.6118 39.6373 25.4251 41.56 23.2751L40.4419 22.2752ZM35.0083 29.3797L33.8015 28.4889C33.1087 29.4274 32.3396 30.5322 31.5366 31.7186L32.7788 32.5594L34.021 33.4001C34.813 32.2301 35.5566 31.1626 36.2151 30.2705L35.0083 29.3797ZM32.7788 32.5594L31.7302 33.6319C34.0738 35.9233 37.1673 38.315 41.6757 41.4907L42.5396 40.2644L43.4034 39.0381C38.9197 35.8798 35.9905 33.6017 33.8275 31.4868L32.7788 32.5594ZM42.5396 40.2644L41.7674 41.5504C41.7807 41.5584 41.7924 41.5652 41.8018 41.5705C41.8112 41.5758 41.8191 41.5802 41.8249 41.5834C41.8307 41.5865 41.8354 41.589 41.8379 41.5904C41.8393 41.5911 41.8404 41.5917 41.841 41.592C41.8413 41.5922 41.8416 41.5923 41.8417 41.5924C41.8419 41.5925 41.8419 41.5925 41.8419 41.5925C41.8419 41.5925 41.8414 41.5922 41.8407 41.5919C41.84 41.5915 41.8389 41.5909 41.8376 41.5902C41.8349 41.5888 41.8308 41.5865 41.8258 41.5837C41.8158 41.5782 41.8006 41.5697 41.7823 41.5586L42.5571 40.2742L43.3319 38.9898C43.3104 38.9768 43.292 38.9664 43.2789 38.9592C43.2664 38.9522 43.2561 38.9467 43.2537 38.9455C43.2533 38.9453 43.253 38.9451 43.2528 38.945C43.2525 38.9448 43.2525 38.9448 43.2524 38.9448C43.2522 38.9447 43.2526 38.9449 43.2532 38.9452C43.2544 38.9458 43.2577 38.9476 43.262 38.95C43.2665 38.9524 43.2731 38.956 43.2811 38.9606C43.2892 38.9652 43.2996 38.9712 43.3117 38.9784L42.5396 40.2644ZM42.5571 40.2742L41.7823 41.5586C41.8058 41.5727 41.8267 41.5858 41.8869 41.6225L42.6675 40.3416L43.4481 39.0607C43.4132 39.0394 43.3598 39.0066 43.332 38.9898L42.5571 40.2742ZM42.6675 40.3416L41.8869 41.6225C41.9791 41.6787 42.1109 41.7594 42.2705 41.859L43.0649 40.5867L43.8594 39.3144C43.6877 39.2072 43.5462 39.1205 43.4481 39.0607L42.6675 40.3416ZM43.0649 40.5867L42.2705 41.859C42.5911 42.0593 43.0273 42.3377 43.4858 42.646L44.3228 41.4012L45.1597 40.1564C44.6665 39.8248 44.2009 39.5276 43.8594 39.3144L43.0649 40.5867ZM44.3228 41.4012L43.4858 42.6459C43.946 42.9554 44.4204 43.2891 44.8214 43.6034L45.7466 42.4226L46.6717 41.2419C46.1895 40.864 45.6481 40.4848 45.1597 40.1564L44.3228 41.4012ZM45.7466 42.4226L44.8214 43.6033C45.2368 43.9289 45.5222 44.1945 45.6502 44.3644L46.8481 43.4617L48.0461 42.559C47.6643 42.0523 47.1072 41.5831 46.6718 41.242L45.7466 42.4226ZM46.8481 43.4617L45.6499 44.364C45.4016 44.0343 45.4661 43.5646 45.7979 43.3146L46.7007 44.5125L47.6034 45.7104C48.5967 44.9619 48.7929 43.5507 48.0464 42.5594L46.8481 43.4617ZM46.7007 44.5125L45.7989 43.3138C46.1315 43.0636 46.6008 43.1323 46.8486 43.461L45.6509 44.364L44.4532 45.2671C45.1994 46.2567 46.6084 46.459 47.6025 45.7111L46.7007 44.5125ZM45.6509 44.364L46.8489 43.4614C46.5925 43.1211 46.1669 42.7534 45.746 42.4236L44.8208 43.6043L43.8956 44.7849C44.0832 44.932 44.2275 45.0542 44.3307 45.1489C44.4453 45.254 44.4706 45.2902 44.4529 45.2667L45.6509 44.364ZM44.8208 43.6043L45.746 42.4236C45.3054 42.0783 44.7991 41.7207 44.3228 41.4005L43.4858 42.6453L42.6489 43.8901C43.0911 44.1874 43.5327 44.5006 43.8956 44.785L44.8208 43.6043ZM43.4858 42.6453L44.3228 41.4005C43.8462 41.0801 43.3947 40.793 43.0645 40.5868L42.27 41.8592L41.4755 43.1315C41.7885 43.3269 42.2096 43.5948 42.6489 43.8901L43.4858 42.6453ZM42.27 41.8592L43.0645 40.5868C42.8992 40.4837 42.7631 40.4 42.6678 40.342L41.8872 41.6228L41.1066 42.9037C41.1935 42.9567 41.3204 43.0346 41.4756 43.1315L42.27 41.8592ZM41.8872 41.6228L42.6678 40.3419C42.6375 40.3235 42.5817 40.2892 42.5565 40.274L41.7817 41.5584L41.0069 42.8428C41.0295 42.8564 41.0458 42.8666 41.1066 42.9037L41.8872 41.6228ZM41.7817 41.5584L42.557 40.2743C42.5436 40.2662 42.5325 40.2596 42.5262 40.2559C42.5247 40.2551 42.5232 40.2542 42.5225 40.2537C42.522 40.2535 42.5217 40.2533 42.5215 40.2532C42.5213 40.253 42.5212 40.253 42.5212 40.253C42.5212 40.253 42.5213 40.2531 42.5216 40.2532C42.5219 40.2534 42.5224 40.2537 42.523 40.254C42.5241 40.2547 42.5262 40.2559 42.5289 40.2576L41.7554 41.5428L40.9819 42.8279C40.9897 42.8327 40.9964 42.8366 40.9995 42.8384C41.0013 42.8395 41.003 42.8405 41.004 42.8411C41.0053 42.8418 41.0059 42.8422 41.0067 42.8426C41.0092 42.8441 41.0083 42.8436 41.0065 42.8425L41.7817 41.5584ZM41.7554 41.5428L42.5275 40.2567C42.5079 40.245 42.4818 40.2298 42.4518 40.2139L41.7485 41.5388L41.0453 42.8638C41.029 42.8551 41.0164 42.8481 41.0094 42.8441C41.0011 42.8393 40.9924 42.8343 40.9833 42.8288L41.7554 41.5428ZM41.7485 41.5388L42.4194 40.1972L42.4174 40.1962L41.7466 41.5379L41.0758 42.8795L41.0777 42.8805L41.7485 41.5388ZM41.7466 41.5379L42.5183 40.2516L42.4939 40.237L41.7222 41.5232L40.9504 42.8095L40.9748 42.8241L41.7466 41.5379ZM41.7222 41.5232L42.6138 40.317L42.5913 40.3004L41.6997 41.5066L40.8081 42.7129L40.8306 42.7295L41.7222 41.5232ZM41.6997 41.5066L42.5634 40.2802C38.1828 37.1952 35.2085 34.8983 32.9696 32.7425L31.9292 33.823L30.8888 34.9036C33.3003 37.2256 36.4301 39.6302 40.836 42.733L41.6997 41.5066ZM31.9292 33.823L30.6805 32.9919C29.5646 34.6683 28.4025 36.4636 27.2962 38.176L28.5562 38.99L29.8161 39.804C30.9232 38.0904 32.0748 36.3113 33.1779 34.6542L31.9292 33.823ZM28.5562 38.99L27.2962 38.176C25.0738 41.6161 23.1151 44.6715 22.1878 45.8605L23.3706 46.783L24.5534 47.7055C25.5879 46.379 27.6547 43.1497 29.8161 39.804L28.5562 38.99ZM23.3706 46.783L22.1878 45.8604C22.4433 45.5329 22.9146 45.476 23.2402 45.73L22.3179 46.9129L21.3955 48.0958C22.3744 48.859 23.7884 48.6862 24.5534 47.7055L23.3706 46.783ZM22.3179 46.9129L23.2409 45.7305C23.5648 45.9834 23.6265 46.4541 23.3702 46.7831L22.187 45.8611L21.0038 44.9392C20.2387 45.9211 20.4184 47.3329 21.3948 48.0952L22.3179 46.9129ZM22.187 45.8611L23.3698 46.7836C24.3506 45.5262 26.3641 42.3829 28.5563 38.9895L27.2964 38.1756L26.0364 37.3616C23.7826 40.8502 21.8777 43.8188 21.0042 44.9386L22.187 45.8611ZM27.2964 38.1756L28.5563 38.9895C29.715 37.1961 30.9351 35.3152 32.0996 33.5709L30.8521 32.7381L29.6045 31.9052C28.4264 33.6699 27.1956 35.5673 26.0364 37.3616L27.2964 38.1756ZM30.8521 32.7381L31.9416 31.7071C30.6714 30.3648 29.3453 28.7392 27.9891 27.0405L26.8169 27.9763L25.6446 28.9122C26.9997 30.6095 28.3961 32.325 29.7625 33.7691L30.8521 32.7381ZM26.8169 27.9763L27.9891 27.0405C26.4626 25.1283 24.8904 23.1175 23.3463 21.3765L22.2241 22.3719L21.1019 23.3672C22.5797 25.0333 24.0855 26.9593 25.6446 28.9122L26.8169 27.9763ZM22.2241 22.3719L23.363 21.3957L23.3571 21.3888L22.2183 22.365L21.0794 23.3412L21.0852 23.348L22.2241 22.3719ZM22.2183 22.365L23.3515 21.3823C22.4013 20.2866 21.773 19.3812 21.2781 18.447L19.9526 19.1492L18.6271 19.8514C19.2503 21.0278 20.0199 22.1195 21.085 23.3478L22.2183 22.365ZM19.9526 19.1492L21.3119 18.5149L21.3051 18.5002L19.9458 19.1346L18.5865 19.7689L18.5934 19.7835L19.9526 19.1492ZM19.9458 19.1346L21.2665 18.4234L21.2597 18.4107L19.939 19.1219L18.6183 19.833L18.6251 19.8457L19.9458 19.1346ZM19.939 19.1219L21.2917 18.4737C21.1951 18.272 21.1044 18.0613 21.0123 17.8367L19.6245 18.406L18.2368 18.9754C18.3399 19.2268 18.4549 19.4959 18.5862 19.77L19.939 19.1219ZM19.6245 18.406L18.2492 17.8072C18.061 18.2394 17.8851 18.6934 17.7289 19.1522L19.1489 19.6355L20.5689 20.1188C20.6986 19.7379 20.8447 19.361 20.9998 19.0049L19.6245 18.406ZM19.1489 19.6355L17.7289 19.1523C17.3244 20.3408 17.0377 21.6066 17.0615 22.5747L18.561 22.5379L20.0606 22.5011C20.0497 22.0586 20.205 21.1882 20.5689 20.1188L19.1489 19.6355ZM18.561 22.5379L17.0615 22.5751C17.0513 22.1626 17.3764 21.8183 17.7919 21.8079L17.8296 23.3074L17.8673 24.8069C19.1107 24.7757 20.0914 23.7411 20.0606 22.5007L18.561 22.5379ZM17.8296 23.3074L17.7931 21.8078C18.207 21.7978 18.5502 22.1244 18.5606 22.5382L17.061 22.576L15.5615 22.6137C15.5927 23.8552 16.6245 24.8372 17.8661 24.807L17.8296 23.3074ZM17.061 22.576L18.5606 22.5388C18.5431 21.8331 18.764 20.7639 19.1481 19.6354L17.728 19.1521L16.308 18.6689C15.8827 19.9185 15.531 21.3825 15.5615 22.6131L17.061 22.576ZM17.728 19.1521L19.148 19.6354C19.528 18.519 20.0384 17.4322 20.5333 16.6961L19.2886 15.8592L18.0438 15.0222C17.3599 16.0393 16.7453 17.384 16.308 18.6688L17.728 19.1521ZM19.2886 15.8592L20.5331 16.6965L20.748 16.3771L19.5034 15.5398L18.2589 14.7025L18.044 15.0218L19.2886 15.8592ZM19.5034 15.5398L19.5492 17.0391L19.933 17.0274L19.8872 15.5281L19.8414 14.0288L19.4576 14.0405L19.5034 15.5398ZM19.8872 15.5281L19.9324 17.0274C20.3082 17.0161 20.8328 17.1588 21.5537 17.4507L22.1167 16.0603L22.6797 14.67C21.9272 14.3653 20.8955 13.997 19.842 14.0288L19.8872 15.5281ZM22.1167 16.0603L21.5537 17.4507C22.2786 17.7442 23.0193 18.1058 23.9264 18.4959L24.519 17.118L25.1117 15.74C24.4194 15.4423 23.3937 14.9591 22.6797 14.67L22.1167 16.0603ZM24.519 17.118L23.9575 18.5089C24.7663 18.8354 25.4012 19.0431 26.3376 19.1411L26.4937 17.6492L26.6497 16.1573C26.0922 16.099 25.7441 15.9949 25.0806 15.727L24.519 17.118ZM26.4937 17.6492L26.3375 19.1411C25.9242 19.0978 25.627 18.7285 25.6697 18.3183L27.1616 18.4734L28.6536 18.6286C28.7819 17.3948 27.8867 16.2868 26.6498 16.1573L26.4937 17.6492ZM27.1616 18.4734L25.6698 18.3174C25.7127 17.9065 26.081 17.6065 26.4938 17.6495L26.3384 19.1414L26.1829 20.6333C27.4195 20.7622 28.5244 19.8641 28.6535 18.6294L27.1616 18.4734ZM26.3384 19.1414L26.4943 17.6495C25.7466 17.5713 25.2546 17.4156 24.5191 17.1186L23.9575 18.5096L23.3959 19.9005C24.2784 20.2568 25.0568 20.5156 26.1824 20.6333L26.3384 19.1414ZM23.9575 18.5096L24.4842 17.1051L24.4764 17.1021L23.9497 18.5066L23.423 19.9111L23.4308 19.914L23.9575 18.5096ZM23.9497 18.5066L24.6205 17.165L24.6127 17.1611L23.9419 18.5027L23.2711 19.8444L23.2789 19.8483L23.9497 18.5066ZM23.9419 18.5027L24.5337 17.1244C23.7312 16.7798 22.8397 16.3536 22.1162 16.0606L21.5532 17.451L20.9902 18.8413C21.7383 19.1442 22.3083 19.4337 23.3501 19.881L23.9419 18.5027ZM21.5532 17.451L22.1162 16.0606C21.7868 15.9273 21.471 15.8119 21.1722 15.7239L20.7485 17.1629L20.3249 18.6018C20.498 18.6528 20.7158 18.7302 20.9903 18.8413L21.5532 17.451ZM20.7485 17.1629L19.3467 17.6966C19.5191 18.1495 19.7024 18.6265 19.9287 19.1012L21.2827 18.4558L22.6368 17.8105C22.4696 17.4598 22.3257 17.0896 22.1504 16.6292L20.7485 17.1629ZM21.2827 18.4558L19.9578 19.1591C20.5149 20.2088 21.2111 21.2035 22.2127 22.3591L23.3462 21.3767L24.4797 20.3943C23.593 19.3712 23.0371 18.5618 22.6077 17.7526L21.2827 18.4558ZM23.3462 21.3767L22.2166 22.3637L22.7977 23.0287L23.9272 22.0418L25.0568 21.0548L24.4758 20.3898L23.3462 21.3767ZM23.9272 22.0418L22.7899 23.0197C24.1228 24.5699 25.4691 26.2867 26.8175 27.9757L27.9897 27.0398L29.162 26.104C27.8389 24.4467 26.4437 22.6678 25.0646 21.0638L23.9272 22.0418ZM27.9897 27.0398L26.8175 27.9757C28.096 29.5771 29.3743 31.1479 30.6118 32.4819L31.7114 31.4617L32.8111 30.4415C31.6571 29.1976 30.4403 27.7052 29.162 26.104L27.9897 27.0398ZM31.7114 31.4617L32.952 32.3048C33.6904 31.2184 34.3855 30.2234 35.0081 29.3798L33.8013 28.489L32.5944 27.5982C31.9393 28.4858 31.2199 29.5163 30.4708 30.6186L31.7114 31.4617ZM33.8013 28.489L35.0081 29.3798C36.9257 26.7819 38.4676 24.4795 40.4625 22.2526L39.3452 21.2517L38.228 20.2509C36.1069 22.6186 34.4126 25.135 32.5944 27.5982L33.8013 28.489ZM39.3452 21.2517L40.4575 22.2581L40.4761 22.2376L39.3638 21.2312L38.2515 20.2249L38.2329 20.2454L39.3452 21.2517ZM39.3638 21.2312L40.4244 22.2919L40.444 22.2724L39.3833 21.2117L38.3226 20.151L38.3031 20.1706L39.3638 21.2312ZM39.3833 21.2117L40.4218 22.2941C41.8989 20.8768 43.195 19.6227 44.155 18.7904L43.1724 17.657L42.1898 16.5237C41.1566 17.4194 39.7872 18.7453 38.3448 20.1293L39.3833 21.2117ZM43.1724 17.657L44.1486 18.7959L44.1691 18.7783L43.1929 17.6394L42.2167 16.5005L42.1962 16.5181L43.1724 17.657ZM43.1929 17.6394L44.11 18.8264L44.1315 18.8098L43.2144 17.6228L42.2972 16.4359L42.2757 16.4525L43.1929 17.6394ZM43.2144 17.6228L44.1115 18.825C44.438 18.5813 44.7821 18.3828 45.4151 18.1134L44.8276 16.7332L44.2402 15.353C43.4551 15.6872 42.8865 15.9959 42.3172 16.4207L43.2144 17.6228ZM44.8276 16.7332L44.7937 15.2336C44.2897 15.245 43.7056 15.2686 43.0878 15.3006L43.1655 16.7986L43.2433 18.2966C43.8419 18.2655 44.3954 18.2434 44.8616 18.2328L44.8276 16.7332ZM43.1655 16.7986L43.0878 15.3006C42.4468 15.3339 41.7826 15.3736 41.1581 15.4118L41.2495 16.909L41.3409 18.4062C41.9642 18.3681 42.6169 18.3291 43.2433 18.2966L43.1655 16.7986ZM41.2495 16.909L41.1581 15.4118C40.5302 15.4501 39.95 15.4867 39.4689 15.5116L39.5464 17.0096L39.6239 18.5075C40.1232 18.4817 40.7241 18.4438 41.3409 18.4062L41.2495 16.909ZM39.5464 17.0096L39.469 15.5115C39.8836 15.4901 40.2349 15.8084 40.2563 16.2211L38.7583 16.2986L37.2603 16.3762C37.3245 17.6161 38.382 18.5717 39.6238 18.5076L39.5464 17.0096ZM38.7583 16.2986L40.2563 16.222C40.2774 16.6341 39.9614 16.9867 39.547 17.0085L39.4683 15.5105L39.3895 14.0126C38.1487 14.0778 37.1969 15.1366 37.2603 16.3752L38.7583 16.2986ZM39.4683 15.5105L39.5458 17.0085C40.0357 16.9832 40.6259 16.9472 41.2491 16.9091L41.1577 15.4119L41.0663 13.9147C40.4388 13.953 39.8638 13.988 39.3907 14.0125L39.4683 15.5105ZM41.1577 15.4119L41.2491 16.9091C41.8724 16.871 42.532 16.8315 43.1661 16.7986L43.0884 15.3006L43.0106 13.8026C42.3616 13.8363 41.6901 13.8766 41.0663 13.9147L41.1577 15.4119Z" fill="white" mask="url(#path-1-outside-1_34_52)"/>
</svg>
