<svg width="64" height="64" viewBox="0 0 64 64" fill="none" xmlns="http://www.w3.org/2000/svg">
<mask id="path-1-outside-1_34_52" maskUnits="userSpaceOnUse" x="14.8101" y="12.9763" width="35" height="37" fill="black">
<rect fill="white" x="14.8101" y="12.9763" width="35" height="37"/>
<path d="M45.9917 14.991L46.2739 15.0125L46.7554 15.0623L47.0151 15.4715C47.2733 15.8792 47.3846 16.357 47.4263 16.8113C47.4687 17.2747 47.445 17.7858 47.3784 18.3172C47.2453 19.3798 46.925 20.6303 46.4907 21.9451L46.4888 21.9539L46.4849 21.9617C46.1029 23.0555 45.8436 23.6506 45.5835 24.2459C45.3622 24.7516 44.772 24.9816 44.2661 24.7605C43.7608 24.5391 43.5307 23.9508 43.7515 23.4451C44.0015 22.8728 44.2365 22.3328 44.5913 21.3181C44.9516 20.2275 45.2098 19.2398 45.3433 18.4178C44.8437 18.639 44.5571 18.8075 44.2915 19.0027C43.3467 19.8243 42.0778 21.0506 40.6235 22.4461C38.6507 24.6529 37.1286 26.9291 35.2095 29.5291C34.5693 30.3964 33.8555 31.4175 33.103 32.5262C35.3237 34.6711 38.2859 36.962 42.6772 40.0555C42.6799 40.057 42.6831 40.0586 42.686 40.0603C42.712 40.076 42.7496 40.0996 42.7974 40.1287C42.8932 40.1871 43.0305 40.2709 43.1968 40.3748C43.5294 40.5825 43.9826 40.8712 44.4614 41.1931C44.9385 41.5139 45.4514 41.8749 45.8999 42.2263C46.3267 42.5607 46.7721 42.9447 47.0483 43.3113C47.3803 43.7524 47.292 44.3795 46.8511 44.7117C46.41 45.0438 45.783 44.9554 45.4507 44.5144C45.3448 44.374 45.0832 44.1271 44.6665 43.8006C44.2714 43.491 43.8029 43.1594 43.3462 42.8523C42.8913 42.5465 42.4572 42.2709 42.1372 42.0711C41.9778 41.9715 41.8468 41.8908 41.7563 41.8357C41.7115 41.8084 41.6763 41.7874 41.6528 41.7732C41.6412 41.7662 41.6323 41.7601 41.6265 41.7566C41.6238 41.755 41.621 41.7544 41.6196 41.7537L41.6187 41.7527L41.5864 41.7332L41.5552 41.7117C37.2954 38.7118 34.2851 36.4025 31.9731 34.2117C30.9162 35.8038 29.8192 37.4962 28.7671 39.1248C26.5798 42.5105 24.5566 45.6694 23.5669 46.9383C23.2272 47.373 22.5988 47.4503 22.1636 47.1111C21.7283 46.7714 21.6511 46.1422 21.9907 45.7068C22.909 44.5293 24.8585 41.4884 27.0864 38.0398C28.2085 36.303 29.3943 34.4744 30.5337 32.7644C29.2498 31.3921 27.9309 29.7704 26.6226 28.1316C25.077 26.1957 23.543 24.2352 22.0376 22.5379L22.0298 22.5291C21.0123 21.3558 20.3017 20.341 19.7319 19.2654L19.7222 19.2478L19.7134 19.2293C19.6846 19.1692 19.6579 19.1078 19.6304 19.0476C19.5445 19.2672 19.462 19.4911 19.3853 19.7166C19.0043 20.836 18.7936 21.8716 18.8101 22.533C18.8235 23.0847 18.3881 23.5424 17.8364 23.5564C17.2845 23.5701 16.8261 23.1346 16.812 22.5828C16.7869 21.5708 17.0836 20.2711 17.4917 19.0721C17.905 17.8577 18.4744 16.6197 19.0796 15.7195L19.3667 15.2928L19.8804 15.2771C20.6516 15.254 21.4716 15.5297 22.2104 15.8289C22.9263 16.1188 23.8334 16.5511 24.6128 16.8865C25.3368 17.1788 25.8046 17.3263 26.52 17.4012C27.0691 17.4587 27.4678 17.9507 27.4106 18.4998C27.3531 19.0488 26.8611 19.4477 26.312 19.3904C25.3439 19.2892 24.6848 19.0735 23.8638 18.742L23.854 18.7371L23.8433 18.7322C22.9014 18.3278 22.1972 17.9812 21.4595 17.6824C21.3607 17.6424 21.2652 17.6077 21.1753 17.574C21.2811 17.8394 21.3875 18.0939 21.5063 18.3435C21.9883 19.2507 22.6018 20.1352 23.5337 21.2107L24.1157 21.8777C25.4766 23.4604 26.8515 25.2142 28.1851 26.8846C29.3884 28.3918 30.5597 29.83 31.6831 31.0613C32.3637 30.0644 33.0112 29.1407 33.6011 28.3416C35.4605 25.8225 37.0893 23.3947 39.1577 21.0857L39.1831 21.0574L39.2104 21.031C40.6671 19.6334 42.0056 18.3379 43.0083 17.4685L43.0366 17.4441L43.0659 17.4226C43.2591 17.2785 43.4544 17.1491 43.6665 17.0252C43.5082 17.0325 43.3451 17.039 43.1792 17.0476C42.5467 17.0805 41.8892 17.1209 41.2651 17.159C40.6436 17.1969 40.0516 17.2331 39.5601 17.2586C39.0086 17.2871 38.538 16.8637 38.5093 16.3123C38.4807 15.7607 38.905 15.2901 39.4565 15.2615C39.9366 15.2367 40.5173 15.2011 41.1431 15.1629C41.7665 15.1248 42.4328 15.0839 43.0757 15.0506C44.1687 14.9938 45.2754 14.9528 45.9917 14.991Z"/>
</mask>
<path d="M45.9917 14.991L46.2739 15.0125L46.7554 15.0623L47.0151 15.4715C47.2733 15.8792 47.3846 16.357 47.4263 16.8113C47.4687 17.2747 47.445 17.7858 47.3784 18.3172C47.2453 19.3798 46.925 20.6303 46.4907 21.9451L46.4888 21.9539L46.4849 21.9617C46.1029 23.0555 45.8436 23.6506 45.5835 24.2459C45.3622 24.7516 44.772 24.9816 44.2661 24.7605C43.7608 24.5391 43.5307 23.9508 43.7515 23.4451C44.0015 22.8728 44.2365 22.3328 44.5913 21.3181C44.9516 20.2275 45.2098 19.2398 45.3433 18.4178C44.8437 18.639 44.5571 18.8075 44.2915 19.0027C43.3467 19.8243 42.0778 21.0506 40.6235 22.4461C38.6507 24.6529 37.1286 26.9291 35.2095 29.5291C34.5693 30.3964 33.8555 31.4175 33.103 32.5262C35.3237 34.6711 38.2859 36.962 42.6772 40.0555C42.6799 40.057 42.6831 40.0586 42.686 40.0603C42.712 40.076 42.7496 40.0996 42.7974 40.1287C42.8932 40.1871 43.0305 40.2709 43.1968 40.3748C43.5294 40.5825 43.9826 40.8712 44.4614 41.1931C44.9385 41.5139 45.4514 41.8749 45.8999 42.2263C46.3267 42.5607 46.7721 42.9447 47.0483 43.3113C47.3803 43.7524 47.292 44.3795 46.8511 44.7117C46.41 45.0438 45.783 44.9554 45.4507 44.5144C45.3448 44.374 45.0832 44.1271 44.6665 43.8006C44.2714 43.491 43.8029 43.1594 43.3462 42.8523C42.8913 42.5465 42.4572 42.2709 42.1372 42.0711C41.9778 41.9715 41.8468 41.8908 41.7563 41.8357C41.7115 41.8084 41.6763 41.7874 41.6528 41.7732C41.6412 41.7662 41.6323 41.7601 41.6265 41.7566C41.6238 41.755 41.621 41.7544 41.6196 41.7537L41.6187 41.7527L41.5864 41.7332L41.5552 41.7117C37.2954 38.7118 34.2851 36.4025 31.9731 34.2117C30.9162 35.8038 29.8192 37.4962 28.7671 39.1248C26.5798 42.5105 24.5566 45.6694 23.5669 46.9383C23.2272 47.373 22.5988 47.4503 22.1636 47.1111C21.7283 46.7714 21.6511 46.1422 21.9907 45.7068C22.909 44.5293 24.8585 41.4884 27.0864 38.0398C28.2085 36.303 29.3943 34.4744 30.5337 32.7644C29.2498 31.3921 27.9309 29.7704 26.6226 28.1316C25.077 26.1957 23.543 24.2352 22.0376 22.5379L22.0298 22.5291C21.0123 21.3558 20.3017 20.341 19.7319 19.2654L19.7222 19.2478L19.7134 19.2293C19.6846 19.1692 19.6579 19.1078 19.6304 19.0476C19.5445 19.2672 19.462 19.4911 19.3853 19.7166C19.0043 20.836 18.7936 21.8716 18.8101 22.533C18.8235 23.0847 18.3881 23.5424 17.8364 23.5564C17.2845 23.5701 16.8261 23.1346 16.812 22.5828C16.7869 21.5708 17.0836 20.2711 17.4917 19.0721C17.905 17.8577 18.4744 16.6197 19.0796 15.7195L19.3667 15.2928L19.8804 15.2771C20.6516 15.254 21.4716 15.5297 22.2104 15.8289C22.9263 16.1188 23.8334 16.5511 24.6128 16.8865C25.3368 17.1788 25.8046 17.3263 26.52 17.4012C27.0691 17.4587 27.4678 17.9507 27.4106 18.4998C27.3531 19.0488 26.8611 19.4477 26.312 19.3904C25.3439 19.2892 24.6848 19.0735 23.8638 18.742L23.854 18.7371L23.8433 18.7322C22.9014 18.3278 22.1972 17.9812 21.4595 17.6824C21.3607 17.6424 21.2652 17.6077 21.1753 17.574C21.2811 17.8394 21.3875 18.0939 21.5063 18.3435C21.9883 19.2507 22.6018 20.1352 23.5337 21.2107L24.1157 21.8777C25.4766 23.4604 26.8515 25.2142 28.1851 26.8846C29.3884 28.3918 30.5597 29.83 31.6831 31.0613C32.3637 30.0644 33.0112 29.1407 33.6011 28.3416C35.4605 25.8225 37.0893 23.3947 39.1577 21.0857L39.1831 21.0574L39.2104 21.031C40.6671 19.6334 42.0056 18.3379 43.0083 17.4685L43.0366 17.4441L43.0659 17.4226C43.2591 17.2785 43.4544 17.1491 43.6665 17.0252C43.5082 17.0325 43.3451 17.039 43.1792 17.0476C42.5467 17.0805 41.8892 17.1209 41.2651 17.159C40.6436 17.1969 40.0516 17.2331 39.5601 17.2586C39.0086 17.2871 38.538 16.8637 38.5093 16.3123C38.4807 15.7607 38.905 15.2901 39.4565 15.2615C39.9366 15.2367 40.5173 15.2011 41.1431 15.1629C41.7665 15.1248 42.4328 15.0839 43.0757 15.0506C44.1687 14.9938 45.2754 14.9528 45.9917 14.991Z" fill="black"/>
<path d="M45.9917 14.991L46.1435 12.9968L46.1209 12.995L46.0982 12.9938L45.9917 14.991ZM46.2739 15.0125L46.4797 13.0231L46.4528 13.0203L46.4257 13.0183L46.2739 15.0125ZM46.7554 15.0623L48.4439 13.9904L47.9247 13.1726L46.9612 13.0729L46.7554 15.0623ZM47.0151 15.4715L48.705 14.4017L48.7036 14.3995L47.0151 15.4715ZM47.4263 16.8113L49.4179 16.6289L49.4179 16.6287L47.4263 16.8113ZM47.3784 18.3172L49.3629 18.5659L49.3629 18.5658L47.3784 18.3172ZM46.4907 21.9451L44.5917 21.3178L44.5601 21.4132L44.5383 21.5112L46.4907 21.9451ZM46.4888 21.9539L48.2776 22.8483L48.3877 22.6281L48.4411 22.3877L46.4888 21.9539ZM46.4849 21.9617L44.696 21.0673L44.6388 21.1816L44.5967 21.3023L46.4849 21.9617ZM45.5835 24.2459L47.4157 25.0478L47.4162 25.0466L45.5835 24.2459ZM44.2661 24.7605L43.4635 26.5924L43.4653 26.5932L44.2661 24.7605ZM43.7515 23.4451L41.9188 22.6443L41.9185 22.645L43.7515 23.4451ZM44.5913 21.3181L46.4792 21.9783L46.4849 21.962L46.4904 21.9455L44.5913 21.3181ZM45.3433 18.4178L47.3174 18.7382L47.909 15.0941L44.5334 16.5891L45.3433 18.4178ZM44.2915 19.0027L43.107 17.3912L43.041 17.4397L42.9792 17.4935L44.2915 19.0027ZM40.6235 22.4461L39.2388 21.003L39.1835 21.056L39.1325 21.1131L40.6235 22.4461ZM35.2095 29.5291L33.6003 28.3413L33.6003 28.3414L35.2095 29.5291ZM33.103 32.5262L31.4482 31.403L30.5031 32.7955L31.7136 33.9647L33.103 32.5262ZM42.6772 40.0555L41.5254 41.6905L41.591 41.7367L41.6601 41.7775L42.6772 40.0555ZM42.686 40.0603L43.7191 38.3478L43.7152 38.3454L42.686 40.0603ZM42.7974 40.1287L41.7565 41.8365L41.7566 41.8365L42.7974 40.1287ZM43.1968 40.3748L44.2561 38.6784L44.2561 38.6783L43.1968 40.3748ZM44.4614 41.1931L45.5774 39.5334L45.5773 39.5334L44.4614 41.1931ZM45.8999 42.2263L47.1335 40.6521L47.1334 40.6521L45.8999 42.2263ZM47.0483 43.3113L48.6463 42.1086L48.6457 42.1077L47.0483 43.3113ZM46.8511 44.7117L48.0542 46.3094L48.0546 46.309L46.8511 44.7117ZM45.4507 44.5144L47.0479 43.3108L47.0478 43.3106L45.4507 44.5144ZM44.6665 43.8006L45.9001 42.2263L45.9 42.2263L44.6665 43.8006ZM43.3462 42.8523L44.4621 41.1926L44.4621 41.1926L43.3462 42.8523ZM42.1372 42.0711L43.1965 40.3746L43.1965 40.3746L42.1372 42.0711ZM41.7563 41.8357L42.7971 40.1279L42.7971 40.1278L41.7563 41.8357ZM41.6528 41.7732L42.6859 40.0607L42.6857 40.0606L41.6528 41.7732ZM41.6265 41.7566L42.6561 40.042L42.6445 40.0351L42.6329 40.0283L41.6265 41.7566ZM41.6196 41.7537L40.2054 43.1679L40.4037 43.3661L40.6488 43.5022L41.6196 41.7537ZM41.6187 41.7527L43.0329 40.3385L42.862 40.1676L42.6553 40.0423L41.6187 41.7527ZM41.5864 41.7332L40.4534 43.3813L40.5007 43.4138L40.5498 43.4436L41.5864 41.7332ZM41.5552 41.7117L40.4036 43.3469L40.4128 43.3534L40.4221 43.3598L41.5552 41.7117ZM31.9731 34.2117L33.3488 32.76L31.6224 31.124L30.3069 33.1056L31.9731 34.2117ZM28.7671 39.1248L27.0872 38.0395L27.0872 38.0395L28.7671 39.1248ZM23.5669 46.9383L25.1427 48.1698L25.1439 48.1683L23.5669 46.9383ZM22.1636 47.1111L20.9331 48.6878L20.934 48.6885L22.1636 47.1111ZM21.9907 45.7068L23.5677 46.9369L23.5678 46.9368L21.9907 45.7068ZM27.0864 38.0398L28.7663 39.1251L28.7663 39.1251L27.0864 38.0398ZM30.5337 32.7644L32.198 33.8735L33.0766 32.555L31.9942 31.3981L30.5337 32.7644ZM26.6226 28.1316L25.0596 29.3794L25.0596 29.3794L26.6226 28.1316ZM22.0376 22.5379L23.5339 21.2108L23.5324 21.2091L22.0376 22.5379ZM22.0298 22.5291L20.5188 23.8394L20.5268 23.8487L20.535 23.8578L22.0298 22.5291ZM19.7319 19.2654L21.4993 18.3292L21.4899 18.3116L21.4802 18.2941L19.7319 19.2654ZM19.7222 19.2478L17.9147 20.104L17.9424 20.1625L17.9739 20.2191L19.7222 19.2478ZM19.7134 19.2293L21.5209 18.3731L21.5171 18.3652L19.7134 19.2293ZM19.6304 19.0476L21.4485 18.2144L19.485 13.9298L17.7678 18.319L19.6304 19.0476ZM19.3853 19.7166L17.4919 19.0722L17.4919 19.0723L19.3853 19.7166ZM18.8101 22.533L20.8095 22.4843L20.8094 22.4834L18.8101 22.533ZM17.8364 23.5564L17.8861 25.5558L17.8871 25.5558L17.8364 23.5564ZM16.812 22.5828L14.8126 22.6324L14.8127 22.6338L16.812 22.5828ZM17.4917 19.0721L15.5983 18.4277L15.5983 18.4277L17.4917 19.0721ZM19.0796 15.7195L17.4202 14.6031L17.4198 14.6036L19.0796 15.7195ZM19.3667 15.2928L19.3059 13.2937L18.2801 13.3249L17.7073 14.1764L19.3667 15.2928ZM19.8804 15.2771L19.8204 13.278L19.8196 13.2781L19.8804 15.2771ZM22.2104 15.8289L22.9611 13.9751L22.9611 13.9751L22.2104 15.8289ZM24.6128 16.8865L23.8222 18.7236L23.843 18.7326L23.864 18.7411L24.6128 16.8865ZM26.52 17.4012L26.7285 15.412L26.7281 15.412L26.52 17.4012ZM27.4106 18.4998L29.3997 18.7083L29.3999 18.707L27.4106 18.4998ZM26.312 19.3904L26.104 21.3796L26.1046 21.3796L26.312 19.3904ZM23.8638 18.742L22.9693 20.5308L23.0409 20.5666L23.115 20.5965L23.8638 18.742ZM23.854 18.7371L24.7484 16.9482L24.7153 16.9317L24.6816 16.9164L23.854 18.7371ZM23.8433 18.7322L24.6709 16.9115L24.6517 16.9028L24.6324 16.8945L23.8433 18.7322ZM21.4595 17.6824L22.2102 15.8286L22.21 15.8285L21.4595 17.6824ZM21.1753 17.574L21.8778 15.7014L17.6422 14.1126L19.3175 18.3147L21.1753 17.574ZM21.5063 18.3435L19.7005 19.2031L19.7194 19.2429L19.7402 19.2819L21.5063 18.3435ZM23.5337 21.2107L22.0222 22.5204L22.0268 22.5257L23.5337 21.2107ZM24.1157 21.8777L25.6322 20.5738L25.6274 20.5682L25.6227 20.5627L24.1157 21.8777ZM28.1851 26.8846L26.6221 28.1324L26.6221 28.1324L28.1851 26.8846ZM31.6831 31.0613L30.2057 32.4093L31.9096 34.2768L33.3349 32.189L31.6831 31.0613ZM33.6011 28.3416L35.2102 29.5293L35.2102 29.5293L33.6011 28.3416ZM39.1577 21.0857L37.6686 19.7506L37.668 19.7513L39.1577 21.0857ZM39.1831 21.0574L37.7948 19.6177L37.7425 19.6682L37.694 19.7223L39.1831 21.0574ZM39.2104 21.031L37.8258 19.5879L37.8222 19.5913L39.2104 21.031ZM43.0083 17.4685L41.7024 15.9537L41.6981 15.9574L43.0083 17.4685ZM43.0366 17.4441L41.8539 15.8313L41.7904 15.8779L41.7307 15.9293L43.0366 17.4441ZM43.0659 17.4226L44.2486 19.0354L44.2554 19.0305L44.262 19.0256L43.0659 17.4226ZM43.6665 17.0252L44.675 18.7523L43.574 15.0273L43.6665 17.0252ZM43.1792 17.0476L43.0755 15.0503L43.0755 15.0503L43.1792 17.0476ZM41.2651 17.159L41.387 19.1552L41.387 19.1552L41.2651 17.159ZM39.5601 17.2586L39.6634 19.2559L39.6635 19.2559L39.5601 17.2586ZM38.5093 16.3123L36.512 16.4157L36.512 16.4163L38.5093 16.3123ZM39.4565 15.2615L39.5599 17.2588L39.5599 17.2588L39.4565 15.2615ZM41.1431 15.1629L41.0212 13.1666L41.0212 13.1666L41.1431 15.1629ZM43.0757 15.0506L42.972 13.0533L42.972 13.0533L43.0757 15.0506ZM45.9917 14.991L45.8399 16.9852L46.1221 17.0067L46.2739 15.0125L46.4257 13.0183L46.1435 12.9968L45.9917 14.991ZM46.2739 15.0125L46.0681 17.0019L46.5496 17.0517L46.7554 15.0623L46.9612 13.0729L46.4797 13.0231L46.2739 15.0125ZM46.7554 15.0623L45.0669 16.1342L45.3267 16.5434L47.0151 15.4715L48.7036 14.3995L48.4439 13.9904L46.7554 15.0623ZM47.0151 15.4715L45.3253 16.5413C45.3351 16.5568 45.3569 16.5972 45.3797 16.6765C45.4028 16.7567 45.4225 16.8616 45.4346 16.9939L47.4263 16.8113L49.4179 16.6287C49.3606 16.0031 49.1959 15.1772 48.705 14.4017L47.0151 15.4715ZM47.4263 16.8113L45.4346 16.9937C45.4597 17.2677 45.4494 17.6258 45.3939 18.0685L47.3784 18.3172L49.3629 18.5658C49.4406 17.9459 49.4777 17.2816 49.4179 16.6289L47.4263 16.8113ZM47.3784 18.3172L45.3939 18.0685C45.2831 18.9529 45.0047 20.0674 44.5917 21.3178L46.4907 21.9451L48.3898 22.5724C48.8454 21.1933 49.2074 19.8067 49.3629 18.5659L47.3784 18.3172ZM46.4907 21.9451L44.5383 21.5112L44.5364 21.52L46.4888 21.9539L48.4411 22.3877L48.4431 22.379L46.4907 21.9451ZM46.4888 21.9539L44.6999 21.0595L44.696 21.0673L46.4849 21.9617L48.2737 22.8561L48.2776 22.8483L46.4888 21.9539ZM46.4849 21.9617L44.5967 21.3023C44.2385 22.3279 44.0017 22.8709 43.7508 23.4451L45.5835 24.2459L47.4162 25.0466C47.6855 24.4303 47.9672 23.7832 48.373 22.6211L46.4849 21.9617ZM45.5835 24.2459L43.7513 23.444C43.9741 22.9349 44.5644 22.7083 45.0669 22.9278L44.2661 24.7605L43.4653 26.5932C44.9796 27.2549 46.7502 26.5682 47.4157 25.0478L45.5835 24.2459ZM44.2661 24.7605L45.0687 22.9286C45.575 23.1505 45.8048 23.7404 45.5844 24.2452L43.7515 23.4451L41.9185 22.645C41.2567 24.1612 41.9466 25.9278 43.4635 26.5924L44.2661 24.7605ZM43.7515 23.4451L45.5842 24.2459C45.8437 23.6519 46.1008 23.0604 46.4792 21.9783L44.5913 21.3181L42.7034 20.6579C42.3721 21.6053 42.1593 22.0938 41.9188 22.6443L43.7515 23.4451ZM44.5913 21.3181L46.4904 21.9455C46.8708 20.794 47.1615 19.6985 47.3174 18.7382L45.3433 18.4178L43.3691 18.0973C43.2581 18.7811 43.0324 19.661 42.6923 20.6908L44.5913 21.3181ZM45.3433 18.4178L44.5334 16.5891C43.9342 16.8544 43.5149 17.0914 43.107 17.3912L44.2915 19.0027L45.476 20.6142C45.5992 20.5237 45.7531 20.4236 46.1531 20.2464L45.3433 18.4178ZM44.2915 19.0027L42.9792 17.4935C41.9871 18.3562 40.6715 19.6282 39.2388 21.003L40.6235 22.4461L42.0083 23.8892C43.4841 22.473 44.7062 21.2925 45.6038 20.5119L44.2915 19.0027ZM40.6235 22.4461L39.1325 21.1131C37.0765 23.413 35.4514 25.8336 33.6003 28.3413L35.2095 29.5291L36.8186 30.7168C38.8059 28.0245 40.2249 25.8928 42.1146 23.779L40.6235 22.4461ZM35.2095 29.5291L33.6003 28.3414C32.9387 29.2378 32.2087 30.2825 31.4482 31.403L33.103 32.5262L34.7579 33.6493C35.5023 32.5525 36.1999 31.5551 36.8186 30.7168L35.2095 29.5291ZM33.103 32.5262L31.7136 33.9647C34.0504 36.2218 37.1174 38.5853 41.5254 41.6905L42.6772 40.0555L43.829 38.4204C39.4543 35.3386 36.597 33.1204 34.4925 31.0876L33.103 32.5262ZM42.6772 40.0555L41.6601 41.7775C41.6737 41.7855 41.6856 41.7923 41.6953 41.7978C41.7049 41.8032 41.7131 41.8078 41.7191 41.8111C41.7251 41.8143 41.7299 41.8169 41.7325 41.8183C41.7338 41.819 41.7349 41.8196 41.7354 41.8199C41.7357 41.82 41.7359 41.8201 41.736 41.8202C41.7361 41.8202 41.736 41.8202 41.7359 41.8201C41.7357 41.82 41.7332 41.8187 41.7298 41.8169C41.7264 41.815 41.721 41.8121 41.7145 41.8085C41.7018 41.8014 41.6815 41.79 41.6569 41.7752L42.686 40.0603L43.7152 38.3454C43.689 38.3298 43.6672 38.3175 43.653 38.3096C43.6458 38.3056 43.6397 38.3023 43.6355 38.3C43.6314 38.2978 43.6281 38.296 43.6272 38.2955C43.6269 38.2953 43.6266 38.2952 43.6266 38.2952C43.6264 38.2951 43.6265 38.2951 43.6265 38.2952C43.6267 38.2952 43.6274 38.2956 43.6284 38.2961C43.6302 38.2971 43.6343 38.2993 43.6395 38.3022C43.6448 38.3051 43.6523 38.3092 43.6613 38.3143C43.6702 38.3193 43.6815 38.3258 43.6944 38.3334L42.6772 40.0555ZM42.686 40.0603L41.653 41.7729C41.6527 41.7727 41.6547 41.7739 41.6605 41.7775C41.6663 41.781 41.673 41.7852 41.6828 41.7913C41.7013 41.8026 41.7271 41.8186 41.7565 41.8365L42.7974 40.1287L43.8382 38.4209C43.8198 38.4097 43.803 38.3993 43.7842 38.3877C43.7688 38.3782 43.7429 38.3621 43.7191 38.3478L42.686 40.0603ZM42.7974 40.1287L41.7566 41.8365C41.8502 41.8936 41.9803 41.9731 42.1375 42.0712L43.1968 40.3748L44.2561 38.6783C44.0806 38.5688 43.9362 38.4806 43.8382 38.4208L42.7974 40.1287ZM43.1968 40.3748L42.1375 42.0712C42.4573 42.2709 42.8906 42.547 43.3455 42.8529L44.4614 41.1931L45.5773 39.5334C45.0746 39.1954 44.6015 38.894 44.2561 38.6784L43.1968 40.3748ZM44.4614 41.1931L43.3455 42.8529C43.8017 43.1596 44.2708 43.4907 44.6664 43.8006L45.8999 42.2263L47.1334 40.6521C46.632 40.2591 46.0752 39.8682 45.5774 39.5334L44.4614 41.1931ZM45.8999 42.2263L44.6663 43.8006C45.083 44.1271 45.3451 44.3742 45.451 44.5149L47.0483 43.3113L48.6457 42.1077C48.1991 41.5151 47.5704 40.9944 47.1335 40.6521L45.8999 42.2263ZM47.0483 43.3113L45.4504 44.514C45.1184 44.0729 45.2066 43.4466 45.6475 43.1144L46.8511 44.7117L48.0546 46.309C49.3775 45.3123 49.6423 43.4318 48.6463 42.1086L47.0483 43.3113ZM46.8511 44.7117L45.648 43.114C46.0897 42.7814 46.7161 42.8705 47.0479 43.3108L45.4507 44.5144L43.8534 45.7181C44.8498 47.0403 46.7303 47.3063 48.0542 46.3094L46.8511 44.7117ZM45.4507 44.5144L47.0478 43.3106C46.7702 42.9423 46.3224 42.5572 45.9001 42.2263L44.6665 43.8006L43.4329 45.3748C43.611 45.5144 43.7389 45.6236 43.8221 45.7001C43.8635 45.7381 43.8872 45.762 43.897 45.7722C43.9104 45.7863 43.8899 45.7665 43.8536 45.7183L45.4507 44.5144ZM44.6665 43.8006L45.9 42.2263C45.453 41.876 44.9414 41.5148 44.4621 41.1926L43.3462 42.8523L42.2303 44.5121C42.6644 44.8039 43.0897 45.1059 43.433 45.3749L44.6665 43.8006ZM43.3462 42.8523L44.4621 41.1926C43.9816 40.8695 43.5269 40.5809 43.1965 40.3746L42.1372 42.0711L41.0779 43.7675C41.3875 43.9608 41.8009 44.2234 42.2303 44.5121L43.3462 42.8523ZM42.1372 42.0711L43.1965 40.3746C43.0318 40.2718 42.8946 40.1873 42.7971 40.1279L41.7563 41.8357L40.7155 43.5436C40.7989 43.5944 40.9237 43.6712 41.0779 43.7675L42.1372 42.0711ZM41.7563 41.8357L42.7971 40.1278C42.7475 40.0976 42.6999 40.0691 42.6859 40.0607L41.6528 41.7732L40.6198 43.4858C40.6527 43.5056 40.6754 43.5191 40.7156 43.5436L41.7563 41.8357ZM41.6528 41.7732L42.6857 40.0606C42.7049 40.0722 42.719 40.0813 42.7194 40.0815C42.7194 40.0815 42.7193 40.0815 42.7189 40.0812C42.7187 40.081 42.7177 40.0804 42.717 40.0799C42.7154 40.0789 42.7119 40.0767 42.7077 40.074C42.7035 40.0713 42.6969 40.0672 42.689 40.0622C42.6811 40.0572 42.6697 40.0502 42.6561 40.042L41.6265 41.7566L40.5969 43.4713C40.5846 43.4639 40.5748 43.4578 40.5686 43.4539C40.5623 43.45 40.5574 43.4469 40.555 43.4454C40.5527 43.4439 40.5511 43.4428 40.5516 43.4432C40.5518 43.4433 40.5519 43.4434 40.5528 43.4439C40.5534 43.4443 40.5544 43.445 40.5555 43.4457C40.5647 43.4516 40.5891 43.4673 40.62 43.4859L41.6528 41.7732ZM41.6265 41.7566L42.6329 40.0283C42.5524 39.9814 42.481 39.9473 42.4267 39.9236C42.3733 39.9002 42.3303 39.8842 42.3122 39.8775C42.3074 39.8758 42.3036 39.8744 42.3017 39.8737C42.3011 39.8735 42.2974 39.8722 42.3001 39.8731C42.3008 39.8734 42.3042 39.8746 42.3086 39.8762C42.3132 39.8779 42.3203 39.8805 42.3292 39.8839C42.338 39.8872 42.3499 39.8918 42.364 39.8974C42.378 39.903 42.3958 39.9103 42.4162 39.9192C42.4366 39.928 42.4616 39.9393 42.49 39.953C42.5182 39.9667 42.5523 39.984 42.5905 40.0051L41.6196 41.7537L40.6488 43.5022C40.6871 43.5235 40.7214 43.5409 40.7498 43.5547C40.7784 43.5684 40.8036 43.5798 40.8242 43.5887C40.8448 43.5977 40.8628 43.6051 40.8771 43.6108C40.8914 43.6165 40.9035 43.6212 40.9126 43.6246C40.9217 43.6281 40.9291 43.6308 40.9339 43.6326C40.9386 43.6343 40.9423 43.6356 40.9433 43.636C40.9437 43.6361 40.9444 43.6364 40.9441 43.6363C40.944 43.6362 40.9434 43.636 40.9425 43.6357C40.9408 43.6351 40.9373 43.6338 40.9329 43.6322C40.924 43.6289 40.9091 43.6234 40.8907 43.6161C40.8722 43.6088 40.8489 43.5993 40.8222 43.5877C40.7692 43.5645 40.6992 43.531 40.62 43.4849L41.6265 41.7566ZM41.6196 41.7537L43.0338 40.3395L43.0329 40.3385L41.6187 41.7527L40.2044 43.1669L40.2054 43.1679L41.6196 41.7537ZM41.6187 41.7527L42.6553 40.0423L42.623 40.0228L41.5864 41.7332L40.5498 43.4436L40.582 43.4631L41.6187 41.7527ZM41.5864 41.7332L42.7195 40.0851L42.6882 40.0636L41.5552 41.7117L40.4221 43.3598L40.4534 43.3813L41.5864 41.7332ZM41.5552 41.7117L42.7067 40.0765C38.4642 37.0887 35.5514 34.8472 33.3488 32.76L31.9731 34.2117L30.5975 35.6634C33.0188 37.9579 36.1266 40.3349 40.4036 43.3469L41.5552 41.7117ZM31.9731 34.2117L30.3069 33.1056C29.2425 34.709 28.1396 36.4104 27.0872 38.0395L28.7671 39.1248L30.447 40.2101C31.4988 38.582 32.59 36.8987 33.6394 35.3178L31.9731 34.2117ZM28.7671 39.1248L27.0872 38.0395C24.8593 41.488 22.9081 44.531 21.9899 45.7082L23.5669 46.9383L25.1439 48.1683C26.2052 46.8077 28.3003 43.533 30.447 40.2101L28.7671 39.1248ZM23.5669 46.9383L21.9911 45.7067C22.3312 45.2715 22.9583 45.1948 23.3931 45.5337L22.1636 47.1111L20.934 48.6885C22.2393 49.7059 24.1231 49.4744 25.1427 48.1698L23.5669 46.9383ZM22.1636 47.1111L23.3941 45.5345C23.8308 45.8753 23.9062 46.5029 23.5677 46.9369L21.9907 45.7068L20.4137 44.4768C19.396 45.7815 19.6257 47.6675 20.9331 48.6878L22.1636 47.1111ZM21.9907 45.7068L23.5678 46.9368C24.5577 45.6675 26.5797 42.5098 28.7663 39.1251L27.0864 38.0398L25.4065 36.9545C23.1374 40.4669 21.2604 43.3911 20.4136 44.4769L21.9907 45.7068ZM27.0864 38.0398L28.7663 39.1251C29.8881 37.3888 31.0672 35.5706 32.198 33.8735L30.5337 32.7644L28.8693 31.6554C27.7214 33.3782 26.5289 35.2172 25.4065 36.9545L27.0864 38.0398ZM30.5337 32.7644L31.9942 31.3981C30.7697 30.0892 29.4945 28.5234 28.1856 26.8838L26.6226 28.1316L25.0596 29.3794C26.3673 31.0175 27.7299 32.6949 29.0732 34.1308L30.5337 32.7644ZM26.6226 28.1316L28.1856 26.8838C26.6612 24.9744 25.0834 22.9579 23.5339 21.2108L22.0376 22.5379L20.5413 23.865C22.0026 25.5125 23.4929 27.417 25.0596 29.3794L26.6226 28.1316ZM22.0376 22.5379L23.5324 21.2091L23.5246 21.2004L22.0298 22.5291L20.535 23.8578L20.5428 23.8666L22.0376 22.5379ZM22.0298 22.5291L23.5408 21.2188C22.6003 20.1343 21.9837 19.2437 21.4993 18.3292L19.7319 19.2654L17.9646 20.2016C18.6197 21.4384 19.4244 22.5774 20.5188 23.8394L22.0298 22.5291ZM19.7319 19.2654L21.4802 18.2941L21.4705 18.2765L19.7222 19.2478L17.9739 20.2191L17.9836 20.2367L19.7319 19.2654ZM19.7222 19.2478L21.5296 18.3917L21.5209 18.3731L19.7134 19.2293L17.9059 20.0855L17.9147 20.104L19.7222 19.2478ZM19.7134 19.2293L21.5171 18.3652C21.4958 18.3207 21.5009 18.3286 21.4485 18.2144L19.6304 19.0476L17.8122 19.8809C17.815 19.887 17.8734 20.0176 17.9097 20.0934L19.7134 19.2293ZM19.6304 19.0476L17.7678 18.319C17.6722 18.5634 17.5793 18.8155 17.4919 19.0722L19.3853 19.7166L21.2786 20.3609C21.3447 20.1667 21.4167 19.9711 21.4929 19.7763L19.6304 19.0476ZM19.3853 19.7166L17.4919 19.0723C17.0843 20.2699 16.7855 21.5698 16.8107 22.5826L18.8101 22.533L20.8094 22.4834C20.8017 22.1734 20.9243 21.402 21.2786 20.3609L19.3853 19.7166ZM18.8101 22.533L16.8107 22.5817C16.7972 22.0304 17.2335 21.5711 17.7858 21.5571L17.8364 23.5564L17.8871 25.5558C19.5427 25.5138 20.8497 24.139 20.8095 22.4843L18.8101 22.533ZM17.8364 23.5564L17.7868 21.557C18.3374 21.5434 18.7973 21.9787 18.8114 22.5318L16.812 22.5828L14.8127 22.6338C14.8549 24.2904 16.2317 25.5969 17.8861 25.5558L17.8364 23.5564ZM16.812 22.5828L18.8114 22.5332C18.795 21.8707 19.0047 20.834 19.3851 19.7164L17.4917 19.0721L15.5983 18.4277C15.1625 19.7083 14.7788 21.2709 14.8126 22.6324L16.812 22.5828ZM17.4917 19.0721L19.3851 19.7164C19.7608 18.6122 20.261 17.5468 20.7394 16.8354L19.0796 15.7195L17.4198 14.6036C16.6878 15.6925 16.0491 17.1033 15.5983 18.4277L17.4917 19.0721ZM19.0796 15.7195L20.739 16.8359L21.0261 16.4092L19.3667 15.2928L17.7073 14.1764L17.4202 14.6031L19.0796 15.7195ZM19.3667 15.2928L19.4275 17.2918L19.9412 17.2762L19.8804 15.2771L19.8196 13.2781L19.3059 13.2937L19.3667 15.2928ZM19.8804 15.2771L19.9403 17.2762C20.2588 17.2667 20.7397 17.3911 21.4598 17.6827L22.2104 15.8289L22.9611 13.9751C22.2035 13.6683 21.0444 13.2413 19.8204 13.278L19.8804 15.2771ZM22.2104 15.8289L21.4598 17.6827C22.1807 17.9746 22.9033 18.3282 23.8222 18.7236L24.6128 16.8865L25.4034 15.0494C24.7634 14.774 23.672 14.263 22.9611 13.9751L22.2104 15.8289ZM24.6128 16.8865L23.864 18.7411C24.6844 19.0723 25.3435 19.289 26.312 19.3903L26.52 17.4012L26.7281 15.412C26.2656 15.3636 25.9891 15.2853 25.3616 15.032L24.6128 16.8865ZM26.52 17.4012L26.3116 19.3903C25.7621 19.3327 25.3643 18.8412 25.4214 18.2926L27.4106 18.4998L29.3999 18.707C29.5714 17.0603 28.376 15.5847 26.7285 15.412L26.52 17.4012ZM27.4106 18.4998L25.4215 18.2913C25.4791 17.7421 25.9704 17.3439 26.5194 17.4012L26.312 19.3904L26.1046 21.3796C27.7518 21.5514 29.2271 20.3555 29.3997 18.7083L27.4106 18.4998ZM26.312 19.3904L26.52 17.4013C25.8035 17.3263 25.3352 17.1792 24.6125 16.8874L23.8638 18.742L23.115 20.5965C24.0344 20.9677 24.8843 21.252 26.104 21.3796L26.312 19.3904ZM23.8638 18.742L24.7582 16.9531L24.7484 16.9482L23.854 18.7371L22.9596 20.5259L22.9693 20.5308L23.8638 18.742ZM23.854 18.7371L24.6816 16.9164L24.6709 16.9115L23.8433 18.7322L23.0157 20.5529L23.0264 20.5578L23.854 18.7371ZM23.8433 18.7322L24.6324 16.8945C23.8527 16.5597 22.9303 16.1202 22.2102 15.8286L21.4595 17.6824L20.7088 19.5362C21.4642 19.8421 21.9501 20.0959 23.0542 20.57L23.8433 18.7322ZM21.4595 17.6824L22.21 15.8285C22.0796 15.7758 21.9428 15.7258 21.8778 15.7014L21.1753 17.574L20.4728 19.4466C20.5876 19.4896 20.6419 19.5091 20.709 19.5363L21.4595 17.6824ZM21.1753 17.574L19.3175 18.3147C19.4304 18.5978 19.555 18.8974 19.7005 19.2031L21.5063 18.3435L23.3122 17.484C23.2201 17.2904 23.1318 17.081 23.0331 16.8333L21.1753 17.574ZM21.5063 18.3435L19.7402 19.2819C20.3072 20.3492 21.0141 21.3571 22.0222 22.5204L23.5337 21.2107L25.0452 19.901C24.1894 18.9134 23.6694 18.1521 23.2725 17.4051L21.5063 18.3435ZM23.5337 21.2107L22.0268 22.5257L22.6088 23.1927L24.1157 21.8777L25.6227 20.5627L25.0406 19.8957L23.5337 21.2107ZM24.1157 21.8777L22.5992 23.1817C23.9293 24.7285 25.2715 26.4406 26.6221 28.1324L28.1851 26.8846L29.7481 25.6367C28.4316 23.9878 27.0239 22.1923 25.6322 20.5738L24.1157 21.8777ZM28.1851 26.8846L26.6221 28.1324C27.8269 29.6416 29.0339 31.1251 30.2057 32.4093L31.6831 31.0613L33.1605 29.7133C32.0855 28.535 30.9498 27.142 29.7481 25.6367L28.1851 26.8846ZM31.6831 31.0613L33.3349 32.189C34.0081 31.2028 34.6405 30.3011 35.2102 29.5293L33.6011 28.3416L31.992 27.1538C31.382 27.9802 30.7192 28.9261 30.0313 29.9337L31.6831 31.0613ZM33.6011 28.3416L35.2102 29.5293C37.1368 26.9193 38.6632 24.6353 40.6474 22.4202L39.1577 21.0857L37.668 19.7513C35.5155 22.1542 33.7843 24.7256 31.992 27.1538L33.6011 28.3416ZM39.1577 21.0857L40.6469 22.4208L40.6722 22.3925L39.1831 21.0574L37.694 19.7223L37.6686 19.7506L39.1577 21.0857ZM39.1831 21.0574L40.5714 22.4971L40.5987 22.4707L39.2104 21.031L37.8222 19.5913L37.7948 19.6177L39.1831 21.0574ZM39.2104 21.031L40.5951 22.4742C42.0747 21.0545 43.3646 19.8067 44.3185 18.9796L43.0083 17.4685L41.6981 15.9574C40.6467 16.869 39.2596 18.2122 37.8258 19.5879L39.2104 21.031ZM43.0083 17.4685L44.3142 18.9834L44.3425 18.9589L43.0366 17.4441L41.7307 15.9293L41.7024 15.9537L43.0083 17.4685ZM43.0366 17.4441L44.2193 19.0569L44.2486 19.0354L43.0659 17.4226L41.8832 15.8098L41.8539 15.8313L43.0366 17.4441ZM43.0659 17.4226L44.262 19.0256C44.3951 18.9263 44.5277 18.8383 44.675 18.7523L43.6665 17.0252L42.658 15.2981C42.381 15.4598 42.1232 15.6307 41.8698 15.8197L43.0659 17.4226ZM43.6665 17.0252L43.574 15.0273C43.4339 15.0338 43.2475 15.0414 43.0755 15.0503L43.1792 17.0476L43.2829 19.045C43.4428 19.0366 43.5825 19.0312 43.759 19.023L43.6665 17.0252ZM43.1792 17.0476L43.0755 15.0503C42.4321 15.0837 41.7648 15.1247 41.1432 15.1627L41.2651 17.159L41.387 19.1552C42.0135 19.117 42.6613 19.0772 43.2829 19.0449L43.1792 17.0476ZM41.2651 17.159L41.1432 15.1627C40.5186 15.2008 39.9369 15.2364 39.4567 15.2613L39.5601 17.2586L39.6635 19.2559C40.1663 19.2299 40.7686 19.193 41.387 19.1552L41.2651 17.159ZM39.5601 17.2586L39.4567 15.2612C40.006 15.2328 40.4778 15.6548 40.5066 16.2083L38.5093 16.3123L36.512 16.4163C36.5982 18.0726 38.0112 19.3414 39.6634 19.2559L39.5601 17.2586ZM38.5093 16.3123L40.5066 16.2089C40.5351 16.7602 40.1117 17.2303 39.5599 17.2588L39.4565 15.2615L39.3532 13.2642C37.6983 13.3498 36.4263 14.7613 36.512 16.4157L38.5093 16.3123ZM39.4565 15.2615L39.5599 17.2588C40.0513 17.2334 40.6426 17.1972 41.265 17.1592L41.1431 15.1629L41.0212 13.1666C40.392 13.205 39.8219 13.2399 39.3531 13.2642L39.4565 15.2615ZM41.1431 15.1629L41.265 17.1592C41.8906 17.121 42.5473 17.0807 43.1793 17.0479L43.0757 15.0506L42.972 13.0533C42.3183 13.0872 41.6424 13.1287 41.0212 13.1666L41.1431 15.1629ZM43.0757 15.0506L43.1793 17.0479C44.2876 16.9904 45.2907 16.9565 45.8852 16.9882L45.9917 14.991L46.0982 12.9938C45.2601 12.9492 44.0497 12.9973 42.972 13.0533L43.0757 15.0506Z" fill="white" mask="url(#path-1-outside-1_34_52)"/>
</svg>
