<svg width="64" height="64" viewBox="0 0 64 64" fill="none" xmlns="http://www.w3.org/2000/svg">
<mask id="path-1-outside-1_34_67" maskUnits="userSpaceOnUse" x="11.1052" y="17.5037" width="44" height="27" fill="black">
<rect fill="white" x="11.1052" y="17.5037" width="44" height="27"/>
<path d="M44.655 21.1209C44.8665 20.611 45.4516 20.3688 45.9617 20.5799C46.4057 20.7639 46.9457 20.981 47.5271 21.2156C48.1063 21.4493 48.7254 21.6998 49.3201 21.9461C50.3314 22.365 51.349 22.8038 51.9792 23.1463L52.2253 23.2869L52.6375 23.5389L52.696 24.0203C52.7537 24.4993 52.6486 24.9782 52.491 25.4061C52.33 25.8426 52.0882 26.2938 51.7996 26.7449C51.2224 27.6471 50.3967 28.6392 49.4392 29.6395L49.4333 29.6463L49.4265 29.6512C48.6113 30.4745 48.1214 30.9004 47.6306 31.326C47.2134 31.6875 46.5822 31.6416 46.2205 31.2244C45.859 30.8072 45.904 30.177 46.321 29.8152C46.7929 29.4061 47.2372 29.0201 47.9939 28.2567C48.7883 27.4268 49.4457 26.6456 49.9197 25.9608C49.3735 25.9457 49.0422 25.9749 48.7185 26.0369C47.5122 26.3724 45.8394 26.9337 43.9265 27.5682C41.1965 28.7122 38.8435 30.1125 35.9929 31.6346C35.7638 31.7569 35.5276 31.8871 35.2839 32.0213C38.042 32.8112 41.4506 33.4743 46.1345 34.2029C46.1378 34.2032 46.1416 34.2026 46.1453 34.2029C46.1754 34.2055 46.2195 34.2098 46.2751 34.2147C46.387 34.2245 46.5476 34.2392 46.7429 34.2586C47.1332 34.2973 47.6672 34.3552 48.239 34.4315C48.8088 34.5074 49.4283 34.6034 49.9861 34.7195C50.5167 34.83 51.0857 34.9764 51.4958 35.1824C51.9892 35.4304 52.188 36.0318 51.9402 36.5252C51.6921 37.0185 51.0908 37.2185 50.5974 36.9705C50.4402 36.8916 50.097 36.7854 49.5789 36.6776C49.0873 36.5752 48.52 36.4866 47.9744 36.4139C47.431 36.3414 46.92 36.286 46.5447 36.2488C46.3576 36.2303 46.2048 36.2161 46.0994 36.2068C46.0467 36.2022 46.0056 36.1994 45.9783 36.1971C45.9649 36.196 45.9547 36.1937 45.948 36.1932H45.9382L45.9011 36.1902L45.864 36.1844C40.1135 35.2907 36.1417 34.4798 32.908 33.3738C30.7526 34.6344 28.3356 36.1171 26.0496 37.5272C22.619 39.6432 19.4351 41.6255 17.9958 42.3455C17.5021 42.5922 16.9011 42.3919 16.6541 41.8983C16.4072 41.4044 16.6076 40.8036 17.1013 40.5565C18.4366 39.8884 21.5051 37.9816 24.9998 35.826C26.8079 34.7107 28.7181 33.5365 30.5251 32.4588C29.2048 31.908 27.8306 31.277 26.4578 30.6346C24.2141 29.5847 21.9698 28.507 19.8679 27.6531L19.8572 27.6483C18.4251 27.0478 17.3379 26.4544 16.3503 25.743L16.3337 25.7313L16.3171 25.7186C16.2647 25.6775 16.2142 25.6333 16.1628 25.5916C16.1832 25.8265 16.2088 26.0645 16.24 26.3006C16.3949 27.4727 16.6655 28.4934 16.9734 29.0789C17.2304 29.5677 17.0422 30.1724 16.5535 30.4295C16.065 30.6863 15.4611 30.4987 15.2039 30.0106C14.7326 29.1147 14.4225 27.818 14.2566 26.5623C14.0886 25.2905 14.0497 23.9276 14.1931 22.8524L14.2615 22.3436L14.7156 22.1014C15.3965 21.7389 16.2538 21.6217 17.0486 21.5623C17.8186 21.5048 18.8226 21.491 19.6697 21.4461C20.4484 21.3871 20.9335 21.3116 21.6082 21.0613C22.1258 20.8695 22.7011 21.1337 22.8933 21.6512C23.0852 22.1689 22.8212 22.7453 22.3035 22.9373C21.391 23.2758 20.7047 23.3733 19.822 23.4402L19.8103 23.4412H19.7996C18.7758 23.4964 17.9908 23.4971 17.197 23.5565C17.0907 23.5644 16.9899 23.5761 16.8943 23.5858C17.1068 23.7767 17.3148 23.9586 17.532 24.1297C18.366 24.7289 19.3081 25.249 20.6199 25.7996L21.4382 26.1404C23.3595 26.9555 25.3688 27.9173 27.3044 28.8231C29.2088 29.7142 31.0428 30.5492 32.7087 31.1756C33.544 30.6946 34.3338 30.2541 35.0515 29.8709C37.8135 28.3962 40.328 26.9049 43.1882 25.7098L43.2234 25.6951L43.2595 25.6834C45.1756 25.048 46.9415 24.4541 48.2205 24.1004L48.2556 24.0897L48.2917 24.0828C48.5282 24.0357 48.7598 24.0038 49.0046 23.9832C48.8586 23.9218 48.7089 23.8573 48.5554 23.7938C47.9702 23.5514 47.3589 23.3051 46.7791 23.0711C46.2015 22.8381 45.6518 22.616 45.197 22.4276C44.6869 22.2162 44.4438 21.6311 44.655 21.1209Z"/>
</mask>
<path d="M44.655 21.1209C44.8665 20.611 45.4516 20.3688 45.9617 20.5799C46.4057 20.7639 46.9457 20.981 47.5271 21.2156C48.1063 21.4493 48.7254 21.6998 49.3201 21.9461C50.3314 22.365 51.349 22.8038 51.9792 23.1463L52.2253 23.2869L52.6375 23.5389L52.696 24.0203C52.7537 24.4993 52.6486 24.9782 52.491 25.4061C52.33 25.8426 52.0882 26.2938 51.7996 26.7449C51.2224 27.6471 50.3967 28.6392 49.4392 29.6395L49.4333 29.6463L49.4265 29.6512C48.6113 30.4745 48.1214 30.9004 47.6306 31.326C47.2134 31.6875 46.5822 31.6416 46.2205 31.2244C45.859 30.8072 45.904 30.177 46.321 29.8152C46.7929 29.4061 47.2372 29.0201 47.9939 28.2567C48.7883 27.4268 49.4457 26.6456 49.9197 25.9608C49.3735 25.9457 49.0422 25.9749 48.7185 26.0369C47.5122 26.3724 45.8394 26.9337 43.9265 27.5682C41.1965 28.7122 38.8435 30.1125 35.9929 31.6346C35.7638 31.7569 35.5276 31.8871 35.2839 32.0213C38.042 32.8112 41.4506 33.4743 46.1345 34.2029C46.1378 34.2032 46.1416 34.2026 46.1453 34.2029C46.1754 34.2055 46.2195 34.2098 46.2751 34.2147C46.387 34.2245 46.5476 34.2392 46.7429 34.2586C47.1332 34.2973 47.6672 34.3552 48.239 34.4315C48.8088 34.5074 49.4283 34.6034 49.9861 34.7195C50.5167 34.83 51.0857 34.9764 51.4958 35.1824C51.9892 35.4304 52.188 36.0318 51.9402 36.5252C51.6921 37.0185 51.0908 37.2185 50.5974 36.9705C50.4402 36.8916 50.097 36.7854 49.5789 36.6776C49.0873 36.5752 48.52 36.4866 47.9744 36.4139C47.431 36.3414 46.92 36.286 46.5447 36.2488C46.3576 36.2303 46.2048 36.2161 46.0994 36.2068C46.0467 36.2022 46.0056 36.1994 45.9783 36.1971C45.9649 36.196 45.9547 36.1937 45.948 36.1932H45.9382L45.9011 36.1902L45.864 36.1844C40.1135 35.2907 36.1417 34.4798 32.908 33.3738C30.7526 34.6344 28.3356 36.1171 26.0496 37.5272C22.619 39.6432 19.4351 41.6255 17.9958 42.3455C17.5021 42.5922 16.9011 42.3919 16.6541 41.8983C16.4072 41.4044 16.6076 40.8036 17.1013 40.5565C18.4366 39.8884 21.5051 37.9816 24.9998 35.826C26.8079 34.7107 28.7181 33.5365 30.5251 32.4588C29.2048 31.908 27.8306 31.277 26.4578 30.6346C24.2141 29.5847 21.9698 28.507 19.8679 27.6531L19.8572 27.6483C18.4251 27.0478 17.3379 26.4544 16.3503 25.743L16.3337 25.7313L16.3171 25.7186C16.2647 25.6775 16.2142 25.6333 16.1628 25.5916C16.1832 25.8265 16.2088 26.0645 16.24 26.3006C16.3949 27.4727 16.6655 28.4934 16.9734 29.0789C17.2304 29.5677 17.0422 30.1724 16.5535 30.4295C16.065 30.6863 15.4611 30.4987 15.2039 30.0106C14.7326 29.1147 14.4225 27.818 14.2566 26.5623C14.0886 25.2905 14.0497 23.9276 14.1931 22.8524L14.2615 22.3436L14.7156 22.1014C15.3965 21.7389 16.2538 21.6217 17.0486 21.5623C17.8186 21.5048 18.8226 21.491 19.6697 21.4461C20.4484 21.3871 20.9335 21.3116 21.6082 21.0613C22.1258 20.8695 22.7011 21.1337 22.8933 21.6512C23.0852 22.1689 22.8212 22.7453 22.3035 22.9373C21.391 23.2758 20.7047 23.3733 19.822 23.4402L19.8103 23.4412H19.7996C18.7758 23.4964 17.9908 23.4971 17.197 23.5565C17.0907 23.5644 16.9899 23.5761 16.8943 23.5858C17.1068 23.7767 17.3148 23.9586 17.532 24.1297C18.366 24.7289 19.3081 25.249 20.6199 25.7996L21.4382 26.1404C23.3595 26.9555 25.3688 27.9173 27.3044 28.8231C29.2088 29.7142 31.0428 30.5492 32.7087 31.1756C33.544 30.6946 34.3338 30.2541 35.0515 29.8709C37.8135 28.3962 40.328 26.9049 43.1882 25.7098L43.2234 25.6951L43.2595 25.6834C45.1756 25.048 46.9415 24.4541 48.2205 24.1004L48.2556 24.0897L48.2917 24.0828C48.5282 24.0357 48.7598 24.0038 49.0046 23.9832C48.8586 23.9218 48.7089 23.8573 48.5554 23.7938C47.9702 23.5514 47.3589 23.3051 46.7791 23.0711C46.2015 22.8381 45.6518 22.616 45.197 22.4276C44.6869 22.2162 44.4438 21.6311 44.655 21.1209Z" fill="black"/>
<path d="M44.655 21.1209L42.8076 20.3548L42.8072 20.3557L44.655 21.1209ZM45.9617 20.5799L46.7272 18.7322L46.7264 18.7319L45.9617 20.5799ZM47.5271 21.2156L48.2755 19.3609L48.2755 19.3609L47.5271 21.2156ZM49.3201 21.9461L50.0854 20.0983L50.0854 20.0983L49.3201 21.9461ZM51.9792 23.1463L52.9715 21.4098L52.953 21.3992L52.9342 21.389L51.9792 23.1463ZM52.2253 23.2869L53.2686 21.5806L53.2433 21.5651L53.2176 21.5504L52.2253 23.2869ZM52.6375 23.5389L54.6228 23.2973L54.5059 22.3371L53.6807 21.8325L52.6375 23.5389ZM52.696 24.0203L54.6817 23.7813L54.6814 23.7787L52.696 24.0203ZM52.491 25.4061L54.3675 26.0978L54.3676 26.0976L52.491 25.4061ZM51.7996 26.7449L53.4843 27.8228L53.4843 27.8228L51.7996 26.7449ZM49.4392 29.6395L47.9945 28.2565L47.9565 28.2962L47.9207 28.3379L49.4392 29.6395ZM49.4333 29.6463L50.5958 31.2738L50.7937 31.1325L50.9519 30.9479L49.4333 29.6463ZM49.4265 29.6512L48.264 28.0237L48.1253 28.1228L48.0054 28.2439L49.4265 29.6512ZM47.6306 31.326L48.9402 32.8376L48.9409 32.837L47.6306 31.326ZM46.2205 31.2244L44.7087 32.5339L44.7095 32.5347L46.2205 31.2244ZM46.321 29.8152L45.0108 28.3042L45.0106 28.3044L46.321 29.8152ZM47.9939 28.2567L49.4144 29.6645L49.4266 29.6522L49.4386 29.6397L47.9939 28.2567ZM49.9197 25.9608L51.5642 27.099L53.6652 24.0634L49.9749 23.9615L49.9197 25.9608ZM48.7185 26.0369L48.3421 24.0727L48.2616 24.0881L48.1827 24.11L48.7185 26.0369ZM43.9265 27.5682L43.2969 25.6699L43.2242 25.694L43.1535 25.7236L43.9265 27.5682ZM35.9929 31.6346L35.0509 29.8703L35.0509 29.8703L35.9929 31.6346ZM35.2839 32.0213L34.3192 30.2694L30.0709 32.6087L34.7333 33.944L35.2839 32.0213ZM46.1345 34.2029L45.8271 36.1792L45.8977 36.1902L45.9689 36.1961L46.1345 34.2029ZM46.1453 34.2029L46.312 32.2099L46.3119 32.2099L46.1453 34.2029ZM46.2751 34.2147L46.0995 36.2069L46.0995 36.2069L46.2751 34.2147ZM46.7429 34.2586L46.9402 32.2684L46.9402 32.2684L46.7429 34.2586ZM48.239 34.4315L48.5033 32.449L48.5033 32.449L48.239 34.4315ZM49.9861 34.7195L50.3937 32.7615L50.3937 32.7615L49.9861 34.7195ZM51.4958 35.1824L52.394 33.3954L52.3936 33.3953L51.4958 35.1824ZM51.9402 36.5252L53.727 37.4238L53.7274 37.4229L51.9402 36.5252ZM50.5974 36.9705L51.4955 35.1835L51.495 35.1832L50.5974 36.9705ZM49.5789 36.6776L49.9865 34.7195L49.9865 34.7195L49.5789 36.6776ZM47.9744 36.4139L48.2387 34.4314L48.2387 34.4314L47.9744 36.4139ZM46.5447 36.2488L46.742 34.2586L46.7419 34.2586L46.5447 36.2488ZM46.0994 36.2068L46.275 34.2146L46.2749 34.2146L46.0994 36.2068ZM45.9783 36.1971L46.1449 34.204L46.1447 34.204L45.9783 36.1971ZM45.948 36.1932L46.1168 34.2003L46.0325 34.1932H45.948V36.1932ZM45.9382 36.1932L45.7808 38.187L45.8594 38.1932H45.9382V36.1932ZM45.9011 36.1902L45.5892 38.1658L45.6661 38.1779L45.7437 38.184L45.9011 36.1902ZM45.864 36.1844L46.1759 34.2089L46.1711 34.2081L45.864 36.1844ZM32.908 33.3738L33.5552 31.4815L32.6887 31.1851L31.8982 31.6474L32.908 33.3738ZM26.0496 37.5272L24.9996 35.8249L24.9996 35.8249L26.0496 37.5272ZM17.9958 42.3455L18.8898 44.1346L18.8907 44.1342L17.9958 42.3455ZM16.6541 41.8983L14.8651 42.7926L14.8656 42.7934L16.6541 41.8983ZM17.1013 40.5565L16.2065 38.7678L16.2061 38.768L17.1013 40.5565ZM24.9998 35.826L26.0497 37.5282L26.0497 37.5282L24.9998 35.826ZM30.5251 32.4588L31.5496 34.1765L34.9609 32.1421L31.2951 30.613L30.5251 32.4588ZM26.4578 30.6346L25.6101 32.4461L25.6101 32.4461L26.4578 30.6346ZM19.8679 27.6531L19.0403 29.4739L19.0774 29.4907L19.1152 29.5061L19.8679 27.6531ZM19.8572 27.6483L20.6848 25.8275L20.6578 25.8153L20.6305 25.8038L19.8572 27.6483ZM16.3503 25.743L17.5193 24.1202L17.5115 24.1146L17.5037 24.109L16.3503 25.743ZM16.3337 25.7313L15.1188 27.32L15.1492 27.3432L15.1804 27.3652L16.3337 25.7313ZM16.3171 25.7186L15.0836 27.2929L15.0929 27.3001L15.1022 27.3073L16.3171 25.7186ZM16.1628 25.5916L17.4231 24.0386L13.7632 21.0688L14.1703 25.7644L16.1628 25.5916ZM16.24 26.3006L14.2572 26.5626L14.2572 26.5626L16.24 26.3006ZM16.9734 29.0789L18.7435 28.148L18.7435 28.1479L16.9734 29.0789ZM16.5535 30.4295L17.484 32.1998L17.4847 32.1995L16.5535 30.4295ZM15.2039 30.0106L13.4338 30.9416L13.4345 30.943L15.2039 30.0106ZM14.2566 26.5623L12.2738 26.8243L12.2738 26.8243L14.2566 26.5623ZM14.1931 22.8524L12.2109 22.586L12.2107 22.588L14.1931 22.8524ZM14.2615 22.3436L13.3203 20.5789L12.4158 21.0613L12.2793 22.0772L14.2615 22.3436ZM14.7156 22.1014L13.7757 20.336L13.7744 20.3367L14.7156 22.1014ZM17.0486 21.5623L16.8995 19.5679L16.8994 19.5679L17.0486 21.5623ZM19.6697 21.4461L19.7756 23.4433L19.7982 23.4421L19.8208 23.4404L19.6697 21.4461ZM21.6082 21.0613L20.913 19.186L20.9126 19.1862L21.6082 21.0613ZM22.8933 21.6512L24.7686 20.956L24.7682 20.9549L22.8933 21.6512ZM22.3035 22.9373L22.999 24.8125L22.9991 24.8125L22.3035 22.9373ZM19.822 23.4402L19.6708 21.446L19.6634 21.4465L19.6559 21.4472L19.822 23.4402ZM19.8103 23.4412V25.4412H19.8935L19.9764 25.4343L19.8103 23.4412ZM19.7996 23.4412V21.4412H19.7457L19.692 21.4441L19.7996 23.4412ZM17.197 23.5565L17.0479 21.562L17.0478 21.562L17.197 23.5565ZM16.8943 23.5858L16.6936 21.5958L12.1927 22.0497L15.5575 25.0734L16.8943 23.5858ZM17.532 24.1297L16.2945 25.7009L16.3292 25.7282L16.365 25.754L17.532 24.1297ZM20.6199 25.7996L19.8458 27.6437L19.851 27.6459L20.6199 25.7996ZM21.4382 26.1404L22.2194 24.2992L22.2072 24.2942L21.4382 26.1404ZM27.3044 28.8231L26.4568 30.6345L26.4568 30.6345L27.3044 28.8231ZM32.7087 31.1756L32.0049 33.0477L32.8887 33.3799L33.7069 32.9087L32.7087 31.1756ZM35.0515 29.8709L35.9935 31.6352L35.9935 31.6352L35.0515 29.8709ZM43.1882 25.7098L42.419 23.8636L42.4172 23.8644L43.1882 25.7098ZM43.2234 25.6951L42.6064 23.7927L42.5291 23.8177L42.4542 23.849L43.2234 25.6951ZM43.2595 25.6834L43.8765 27.5859L43.8891 27.5817L43.2595 25.6834ZM48.2205 24.1004L48.7535 26.0281L48.7793 26.0209L48.8049 26.0131L48.2205 24.1004ZM48.2556 24.0897L47.8838 22.1245L47.7761 22.1449L47.6712 22.177L48.2556 24.0897ZM48.2917 24.0828L48.6635 26.048L48.6729 26.0462L48.6823 26.0443L48.2917 24.0828ZM49.0046 23.9832L49.1725 25.9762L49.7802 22.1397L49.0046 23.9832ZM48.5554 23.7938L49.3207 21.946L49.3207 21.946L48.5554 23.7938ZM46.7791 23.0711L46.0307 24.9258L46.0307 24.9258L46.7791 23.0711ZM45.197 22.4276L44.4315 24.2752L44.4315 24.2752L45.197 22.4276ZM44.655 21.1209L46.5025 21.887C46.2908 22.3974 45.7065 22.6388 45.1969 22.4279L45.9617 20.5799L46.7264 18.7319C45.1968 18.0989 43.4421 18.8246 42.8076 20.3548L44.655 21.1209ZM45.9617 20.5799L45.1961 22.4276C45.6511 22.6161 46.2025 22.8378 46.7787 23.0703L47.5271 21.2156L48.2755 19.3609C47.6889 19.1242 47.1604 18.9117 46.7272 18.7322L45.9617 20.5799ZM47.5271 21.2156L46.7787 23.0703C47.3577 23.304 47.9693 23.5514 48.5548 23.7939L49.3201 21.9461L50.0854 20.0983C49.4814 19.8482 48.8548 19.5947 48.2755 19.3609L47.5271 21.2156ZM49.3201 21.9461L48.5548 23.7939C49.5809 24.2189 50.5014 24.6194 51.0243 24.9036L51.9792 23.1463L52.9342 21.389C52.1966 20.9881 51.0818 20.511 50.0854 20.0983L49.3201 21.9461ZM51.9792 23.1463L50.987 24.8828L51.2331 25.0234L52.2253 23.2869L53.2176 21.5504L52.9715 21.4098L51.9792 23.1463ZM52.2253 23.2869L51.1821 24.9933L51.5942 25.2452L52.6375 23.5389L53.6807 21.8325L53.2686 21.5806L52.2253 23.2869ZM52.6375 23.5389L50.6521 23.7805L50.7107 24.2619L52.696 24.0203L54.6814 23.7787L54.6228 23.2973L52.6375 23.5389ZM52.696 24.0203L50.7104 24.2593C50.7125 24.2773 50.7149 24.323 50.7014 24.4042C50.6877 24.4864 50.6603 24.5897 50.6143 24.7146L52.491 25.4061L54.3676 26.0976C54.5845 25.5089 54.7914 24.6927 54.6817 23.7813L52.696 24.0203ZM52.491 25.4061L50.6144 24.7143C50.5197 24.9712 50.3564 25.2896 50.1149 25.6671L51.7996 26.7449L53.4843 27.8228C53.82 27.2981 54.1403 26.7141 54.3675 26.0978L52.491 25.4061ZM51.7996 26.7449L50.1149 25.6671C49.6338 26.4189 48.9038 27.3065 47.9945 28.2565L49.4392 29.6395L50.884 31.0225C51.8897 29.9719 52.8109 28.8752 53.4843 27.8228L51.7996 26.7449ZM49.4392 29.6395L47.9207 28.3379L47.9148 28.3447L49.4333 29.6463L50.9519 30.9479L50.9577 30.941L49.4392 29.6395ZM49.4333 29.6463L48.2709 28.0188L48.264 28.0237L49.4265 29.6512L50.589 31.2787L50.5958 31.2738L49.4333 29.6463ZM49.4265 29.6512L48.0054 28.2439C47.2408 29.0161 46.7934 29.4048 46.3204 29.815L47.6306 31.326L48.9409 32.837C49.4494 32.396 49.9818 31.9329 50.8477 31.0584L49.4265 29.6512ZM47.6306 31.326L46.321 29.8144C46.7408 29.4507 47.3719 29.4995 47.7315 29.9141L46.2205 31.2244L44.7095 32.5347C45.7925 33.7836 47.6859 33.9242 48.9402 32.8376L47.6306 31.326ZM46.2205 31.2244L47.7322 29.915C48.0937 30.3323 48.0485 30.9644 47.6315 31.3261L46.321 29.8152L45.0106 28.3044C43.7596 29.3895 43.6244 31.2821 44.7087 32.5339L46.2205 31.2244ZM46.321 29.8152L47.6313 31.3263C48.1204 30.9022 48.6071 30.4791 49.4144 29.6645L47.9939 28.2567L46.5734 26.8488C45.8673 27.5612 45.4653 27.9101 45.0108 28.3042L46.321 29.8152ZM47.9939 28.2567L49.4386 29.6397C50.2781 28.7628 51.0109 27.8984 51.5642 27.099L49.9197 25.9608L48.2752 24.8225C47.8804 25.3928 47.2985 26.0909 46.5492 26.8736L47.9939 28.2567ZM49.9197 25.9608L49.9749 23.9615C49.3186 23.9434 48.8383 23.9776 48.3421 24.0727L48.7185 26.0369L49.0949 28.0012C49.2461 27.9722 49.4285 27.948 49.8645 27.96L49.9197 25.9608ZM48.7185 26.0369L48.1827 24.11C46.9161 24.4623 45.1816 25.0448 43.2969 25.6699L43.9265 27.5682L44.5561 29.4665C46.4973 28.8227 48.1083 28.2825 49.2543 27.9638L48.7185 26.0369ZM43.9265 27.5682L43.1535 25.7236C40.3084 26.9158 37.8004 28.4023 35.0509 29.8703L35.9929 31.6346L36.9349 33.3988C39.8867 31.8228 42.0845 30.5085 44.6995 29.4128L43.9265 27.5682ZM35.9929 31.6346L35.0509 29.8703C34.8081 30 34.5597 30.1369 34.3192 30.2694L35.2839 32.0213L36.2487 33.7732C36.4954 33.6374 36.7195 33.5139 36.9349 33.3988L35.9929 31.6346ZM35.2839 32.0213L34.7333 33.944C37.6139 34.769 41.1213 35.4472 45.8271 36.1792L46.1345 34.2029L46.4419 32.2267C41.7799 31.5015 38.4702 30.8534 35.8346 30.0986L35.2839 32.0213ZM46.1345 34.2029L45.9689 36.1961C46.0144 36.1999 46.0539 36.2016 46.0853 36.2024C46.1167 36.2032 46.1432 36.2031 46.1625 36.2029C46.1817 36.2026 46.1971 36.2021 46.2056 36.2019C46.21 36.2017 46.2135 36.2016 46.2155 36.2015C46.2169 36.2014 46.219 36.2014 46.218 36.2014C46.2179 36.2014 46.216 36.2015 46.2134 36.2016C46.2108 36.2017 46.2067 36.2018 46.2018 36.202C46.192 36.2023 46.1764 36.2027 46.1571 36.2028C46.1378 36.2029 46.1127 36.2028 46.0833 36.2019C46.0539 36.2011 46.0186 36.1993 45.9786 36.196L46.1453 34.2029L46.3119 32.2099C46.271 32.2065 46.2348 32.2047 46.2045 32.2038C46.1742 32.2029 46.1482 32.2028 46.1279 32.2029C46.1077 32.2031 46.0911 32.2035 46.0805 32.2038C46.075 32.204 46.0705 32.2041 46.0674 32.2042C46.0645 32.2043 46.0621 32.2044 46.0615 32.2045C46.0601 32.2045 46.0616 32.2045 46.0627 32.2044C46.0641 32.2044 46.0672 32.2042 46.0712 32.2041C46.0788 32.2039 46.0933 32.2034 46.1116 32.2032C46.13 32.2029 46.1556 32.2029 46.1862 32.2036C46.2168 32.2044 46.2555 32.2061 46.3002 32.2098L46.1345 34.2029ZM46.1453 34.2029L45.9786 36.196C46.0114 36.1987 46.0089 36.1989 46.0995 36.2069L46.2751 34.2147L46.4508 32.2224C46.4274 32.2203 46.4062 32.2184 46.3839 32.2163C46.3646 32.2145 46.337 32.212 46.312 32.2099L46.1453 34.2029ZM46.2751 34.2147L46.0995 36.2069C46.2049 36.2162 46.3583 36.2303 46.5456 36.2489L46.7429 34.2586L46.9402 32.2684C46.737 32.2482 46.5691 32.2328 46.4508 32.2224L46.2751 34.2147ZM46.7429 34.2586L46.5456 36.2489C46.9206 36.286 47.4312 36.3415 47.9747 36.4139L48.239 34.4315L48.5033 32.449C47.9031 32.369 47.3458 32.3086 46.9402 32.2684L46.7429 34.2586ZM48.239 34.4315L47.9747 36.4139C48.5199 36.4866 49.0868 36.5752 49.5785 36.6776L49.9861 34.7195L50.3937 32.7615C49.7699 32.6317 49.0976 32.5282 48.5033 32.449L48.239 34.4315ZM49.9861 34.7195L49.5784 36.6776C50.0968 36.7855 50.4407 36.8906 50.5981 36.9696L51.4958 35.1824L52.3936 33.3953C51.7306 33.0622 50.9367 32.8746 50.3937 32.7615L49.9861 34.7195ZM51.4958 35.1824L50.5977 36.9694C50.1032 36.7209 49.9057 36.1198 50.1529 35.6275L51.9402 36.5252L53.7274 37.4229C54.4703 35.9437 53.8753 34.1399 52.394 33.3954L51.4958 35.1824ZM51.9402 36.5252L50.1534 35.6267C50.3999 35.1364 50.9991 34.934 51.4955 35.1835L50.5974 36.9705L49.6993 38.7575C51.1826 39.503 52.9843 38.9006 53.727 37.4238L51.9402 36.5252ZM50.5974 36.9705L51.495 35.1832C51.085 34.9774 50.5171 34.83 49.9865 34.7195L49.5789 36.6776L49.1712 38.6356C49.3913 38.6814 49.5533 38.7226 49.661 38.7542C49.7145 38.7699 49.7463 38.7807 49.7598 38.7857C49.7781 38.7923 49.7522 38.7841 49.6999 38.7578L50.5974 36.9705ZM49.5789 36.6776L49.9865 34.7195C49.4287 34.6034 48.8086 34.5074 48.2387 34.4314L47.9744 36.4139L47.7101 38.3963C48.2314 38.4659 48.746 38.547 49.1712 38.6356L49.5789 36.6776ZM47.9744 36.4139L48.2387 34.4314C47.6668 34.3552 47.1324 34.2973 46.742 34.2586L46.5447 36.2488L46.3474 38.2391C46.7077 38.2748 47.1953 38.3277 47.7101 38.3963L47.9744 36.4139ZM46.5447 36.2488L46.7419 34.2586C46.5483 34.2394 46.3883 34.2246 46.275 34.2146L46.0994 36.2068L45.9237 38.1991C46.0214 38.2077 46.1669 38.2212 46.3474 38.2391L46.5447 36.2488ZM46.0994 36.2068L46.2749 34.2146C46.2389 34.2114 46.2078 34.2089 46.1843 34.2071C46.1763 34.2065 46.1591 34.2052 46.1558 34.2049C46.1522 34.2046 46.1496 34.2044 46.1477 34.2043C46.1456 34.2041 46.1449 34.204 46.1449 34.204L45.9783 36.1971L45.8116 38.1901C45.8248 38.1912 45.8375 38.1922 45.8468 38.1929C45.8606 38.194 45.8621 38.1941 45.8744 38.1951C45.8914 38.1964 45.9072 38.1977 45.9238 38.1991L46.0994 36.2068ZM45.9783 36.1971L46.1447 34.204C46.2046 34.209 46.2504 34.216 46.2602 34.2175C46.2614 34.2177 46.2621 34.2178 46.262 34.2178C46.2619 34.2177 46.2619 34.2177 46.2614 34.2177C46.2611 34.2176 46.2605 34.2175 46.2598 34.2174C46.2576 34.2171 46.25 34.2159 46.2407 34.2146C46.2313 34.2132 46.2157 34.211 46.1965 34.2086C46.1775 34.2063 46.1499 34.2031 46.1168 34.2003L45.948 36.1932L45.7792 38.186C45.7477 38.1834 45.722 38.1804 45.7048 38.1783C45.6875 38.1762 45.6739 38.1742 45.6667 38.1732C45.6628 38.1726 45.6596 38.1721 45.6577 38.1718C45.6558 38.1716 45.6544 38.1714 45.6542 38.1713C45.6541 38.1713 45.6541 38.1713 45.6543 38.1713C45.6545 38.1714 45.655 38.1714 45.6556 38.1715C45.6566 38.1717 45.6586 38.172 45.661 38.1724C45.6809 38.1754 45.7385 38.184 45.8119 38.1901L45.9783 36.1971ZM45.948 36.1932V34.1932H45.9382V36.1932V38.1932H45.948V36.1932ZM45.9382 36.1932L46.0956 34.1994L46.0585 34.1965L45.9011 36.1902L45.7437 38.184L45.7808 38.187L45.9382 36.1932ZM45.9011 36.1902L46.213 34.2147L46.1759 34.2089L45.864 36.1844L45.5521 38.1599L45.5892 38.1658L45.9011 36.1902ZM45.864 36.1844L46.1711 34.2081C40.4394 33.3174 36.6134 32.5274 33.5552 31.4815L32.908 33.3738L32.2607 35.2662C35.67 36.4322 39.7876 37.2641 45.5569 38.1607L45.864 36.1844ZM32.908 33.3738L31.8982 31.6474C29.7202 32.9213 27.285 34.4153 24.9996 35.8249L26.0496 37.5272L27.0995 39.2294C29.3861 37.819 31.785 36.3476 33.9177 35.1002L32.908 33.3738ZM26.0496 37.5272L24.9996 35.8249C21.5049 37.9806 18.4362 39.8889 17.101 40.5569L17.9958 42.3455L18.8907 44.1342C20.434 43.3621 23.7332 41.3058 27.0995 39.2294L26.0496 37.5272ZM17.9958 42.3455L17.1019 40.5564C17.596 40.3095 18.1956 40.5097 18.4426 41.0031L16.6541 41.8983L14.8656 42.7934C15.6066 44.2741 17.4081 44.8749 18.8898 44.1346L17.9958 42.3455ZM16.6541 41.8983L18.443 41.0039C18.6903 41.4986 18.4894 42.0982 17.9965 42.3449L17.1013 40.5565L16.2061 38.768C14.7259 39.5089 14.1241 41.3103 14.8651 42.7926L16.6541 41.8983ZM17.1013 40.5565L17.9962 42.3451C19.4355 41.625 22.6193 39.6442 26.0497 37.5282L24.9998 35.826L23.9498 34.1238C20.3908 36.319 17.4377 38.1518 16.2065 38.7678L17.1013 40.5565ZM24.9998 35.826L26.0497 37.5282C27.8578 36.413 29.7567 35.2458 31.5496 34.1765L30.5251 32.4588L29.5007 30.7411C27.6795 31.8272 25.758 33.0084 23.9498 34.1238L24.9998 35.826ZM30.5251 32.4588L31.2951 30.613C30.016 30.0794 28.6736 29.4634 27.3054 28.8231L26.4578 30.6346L25.6101 32.4461C26.9875 33.0906 28.3936 33.7367 29.7552 34.3046L30.5251 32.4588ZM26.4578 30.6346L27.3054 28.8231C25.093 27.7878 22.7842 26.6791 20.6207 25.8002L19.8679 27.6531L19.1152 29.5061C21.1554 30.3349 23.3353 31.3816 25.6101 32.4461L26.4578 30.6346ZM19.8679 27.6531L20.6955 25.8324L20.6848 25.8275L19.8572 27.6483L19.0296 29.469L19.0403 29.4739L19.8679 27.6531ZM19.8572 27.6483L20.6305 25.8038C19.3057 25.2484 18.3582 24.7244 17.5193 24.1202L16.3503 25.743L15.1814 27.3658C16.3177 28.1843 17.5445 28.8473 19.0839 29.4927L19.8572 27.6483ZM16.3503 25.743L17.5037 24.109L17.4871 24.0973L16.3337 25.7313L15.1804 27.3652L15.197 27.3769L16.3503 25.743ZM16.3337 25.7313L17.5486 24.1425L17.532 24.1299L16.3171 25.7186L15.1022 27.3073L15.1188 27.32L16.3337 25.7313ZM16.3171 25.7186L17.5507 24.1443C17.5508 24.1444 17.5455 24.1402 17.5221 24.1206C17.5057 24.1069 17.4634 24.0713 17.4231 24.0386L16.1628 25.5916L14.9026 27.1446C14.9137 27.1536 14.9223 27.1609 14.9571 27.19C14.9849 27.2132 15.031 27.2516 15.0836 27.2929L16.3171 25.7186ZM16.1628 25.5916L14.1703 25.7644C14.1931 26.0267 14.2218 26.2946 14.2572 26.5626L16.24 26.3006L18.2228 26.0386C18.1958 25.8344 18.1733 25.6263 18.1554 25.4189L16.1628 25.5916ZM16.24 26.3006L14.2572 26.5626C14.4231 27.8174 14.7319 29.1137 15.2033 30.0099L16.9734 29.0789L18.7435 28.1479C18.599 27.8732 18.3667 27.128 18.2227 26.0386L16.24 26.3006ZM16.9734 29.0789L15.2033 30.0099C14.9455 29.5197 15.1349 28.9159 15.6222 28.6595L16.5535 30.4295L17.4847 32.1995C18.9494 31.4288 19.5154 29.6156 18.7435 28.148L16.9734 29.0789ZM16.5535 30.4295L15.6229 28.6592C16.1118 28.4022 16.7161 28.5903 16.9732 29.0781L15.2039 30.0106L13.4345 30.943C14.2062 32.4072 16.0181 32.9704 17.484 32.1998L16.5535 30.4295ZM15.2039 30.0106L16.9739 29.0796C16.6656 28.4932 16.394 27.4709 16.2394 26.3003L14.2566 26.5623L12.2738 26.8243C12.451 28.165 12.7997 29.7361 13.4338 30.9416L15.2039 30.0106ZM14.2566 26.5623L16.2394 26.3003C16.0865 25.1435 16.0623 23.9662 16.1756 23.1167L14.1931 22.8524L12.2107 22.588C12.0372 23.8889 12.0906 25.4375 12.2738 26.8243L14.2566 26.5623ZM14.1931 22.8524L16.1753 23.1187L16.2437 22.6099L14.2615 22.3436L12.2793 22.0772L12.2109 22.586L14.1931 22.8524ZM14.2615 22.3436L15.2027 24.1083L15.6568 23.8661L14.7156 22.1014L13.7744 20.3367L13.3203 20.5789L14.2615 22.3436ZM14.7156 22.1014L15.6554 23.8668C15.9373 23.7167 16.4245 23.6146 17.1977 23.5567L17.0486 21.5623L16.8994 19.5679C16.0831 19.6289 14.8558 19.761 13.7757 20.336L14.7156 22.1014ZM17.0486 21.5623L17.1976 23.5568C17.9753 23.4986 18.772 23.4965 19.7756 23.4433L19.6697 21.4461L19.5637 19.4489C18.8732 19.4855 17.662 19.5109 16.8995 19.5679L17.0486 21.5623ZM19.6697 21.4461L19.8208 23.4404C20.7039 23.3735 21.3909 23.2751 22.3037 22.9365L21.6082 21.0613L20.9126 19.1862C20.4761 19.3481 20.193 19.4007 19.5185 19.4518L19.6697 21.4461ZM21.6082 21.0613L22.3033 22.9367C21.7848 23.1288 21.2103 22.8642 21.0184 22.3475L22.8933 21.6512L24.7682 20.9549C24.1919 19.4032 22.4668 18.6101 20.913 19.186L21.6082 21.0613ZM22.8933 21.6512L21.018 22.3463C20.8266 21.83 21.0887 21.2548 21.6079 21.0622L22.3035 22.9373L22.9991 24.8125C24.5537 24.2357 25.3438 22.5078 24.7686 20.956L22.8933 21.6512ZM22.3035 22.9373L21.6079 21.0622C20.9343 21.312 20.4503 21.3869 19.6708 21.446L19.822 23.4402L19.9732 25.4345C20.959 25.3598 21.8477 25.2395 22.999 24.8125L22.3035 22.9373ZM19.822 23.4402L19.6559 21.4472L19.6442 21.4481L19.8103 23.4412L19.9764 25.4343L19.9881 25.4333L19.822 23.4402ZM19.8103 23.4412V21.4412H19.7996V23.4412V25.4412H19.8103V23.4412ZM19.7996 23.4412L19.692 21.4441C18.8494 21.4895 17.8203 21.5043 17.0479 21.562L17.197 23.5565L17.3461 25.5509C18.1613 25.4899 18.7023 25.5032 19.9071 25.4383L19.7996 23.4412ZM17.197 23.5565L17.0478 21.562C16.9072 21.5725 16.7509 21.5901 16.6936 21.5958L16.8943 23.5858L17.095 25.5757C17.2289 25.5621 17.2742 25.5563 17.3462 25.5509L17.197 23.5565ZM16.8943 23.5858L15.5575 25.0734C15.7801 25.2734 16.026 25.4894 16.2945 25.7009L17.532 24.1297L18.7695 22.5585C18.6036 22.4278 18.4335 22.2801 18.2311 22.0981L16.8943 23.5858ZM17.532 24.1297L16.365 25.754C17.347 26.4594 18.4276 27.0484 19.8458 27.6437L20.6199 25.7996L21.394 23.9555C20.1885 23.4495 19.3851 22.9984 18.6989 22.5054L17.532 24.1297ZM20.6199 25.7996L19.851 27.6459L20.6693 27.9867L21.4382 26.1404L22.2072 24.2942L21.3888 23.9533L20.6199 25.7996ZM21.4382 26.1404L20.6571 27.9816C22.5349 28.7783 24.4965 29.7172 26.4568 30.6345L27.3044 28.8231L28.1521 27.0116C26.241 26.1173 24.1842 25.1328 22.2193 24.2993L21.4382 26.1404ZM27.3044 28.8231L26.4568 30.6345C28.361 31.5256 30.2582 32.3909 32.0049 33.0477L32.7087 31.1756L33.4126 29.3035C31.8274 28.7075 30.0565 27.9027 28.1521 27.0116L27.3044 28.8231ZM32.7087 31.1756L33.7069 32.9087C34.5279 32.4359 35.2987 32.0062 35.9935 31.6352L35.0515 29.8709L34.1095 28.1066C33.369 28.5021 32.56 28.9533 31.7106 29.4425L32.7087 31.1756ZM35.0515 29.8709L35.9935 31.6352C38.8551 30.1073 41.2154 28.7017 43.9593 27.5552L43.1882 25.7098L42.4172 23.8644C39.4406 25.1081 36.7718 26.6851 34.1095 28.1067L35.0515 29.8709ZM43.1882 25.7098L43.9575 27.5559L43.9926 27.5413L43.2234 25.6951L42.4542 23.849L42.419 23.8636L43.1882 25.7098ZM43.2234 25.6951L43.8404 27.5976L43.8765 27.5859L43.2595 25.6834L42.6425 23.781L42.6064 23.7927L43.2234 25.6951ZM43.2595 25.6834L43.8891 27.5817C45.835 26.9364 47.5367 26.3645 48.7535 26.0281L48.2205 24.1004L47.6874 22.1727C46.3463 22.5436 44.5162 23.1595 42.63 23.7851L43.2595 25.6834ZM48.2205 24.1004L48.8049 26.0131L48.8401 26.0024L48.2556 24.0897L47.6712 22.177L47.636 22.1877L48.2205 24.1004ZM48.2556 24.0897L48.6274 26.0548L48.6635 26.048L48.2917 24.0828L47.92 22.1177L47.8838 22.1245L48.2556 24.0897ZM48.2917 24.0828L48.6823 26.0443C48.8402 26.0129 48.9972 25.9909 49.1725 25.9762L49.0046 23.9832L48.8368 21.9903C48.5225 22.0167 48.2162 22.0586 47.9012 22.1213L48.2917 24.0828ZM49.0046 23.9832L49.7802 22.1397C49.6577 22.0882 49.4778 22.011 49.3207 21.946L48.5554 23.7938L47.7901 25.6415C47.94 25.7036 48.0595 25.7554 48.2291 25.8267L49.0046 23.9832ZM48.5554 23.7938L49.3207 21.946C48.7253 21.6994 48.1048 21.4494 47.5274 21.2164L46.7791 23.0711L46.0307 24.9258C46.613 25.1608 47.2151 25.4034 47.7901 25.6416L48.5554 23.7938ZM46.7791 23.0711L47.5274 21.2164C46.9481 20.9826 46.4072 20.7641 45.9626 20.5799L45.197 22.4276L44.4315 24.2752C44.8963 24.4678 45.455 24.6935 46.0307 24.9258L46.7791 23.0711ZM45.197 22.4276L45.9626 20.5799C46.4704 20.7903 46.7151 21.3735 46.5029 21.8861L44.655 21.1209L42.8072 20.3557C42.1724 21.8887 42.9034 23.6421 44.4315 24.2752L45.197 22.4276Z" fill="white" mask="url(#path-1-outside-1_34_67)"/>
</svg>
