<svg width="64" height="64" viewBox="0 0 64 64" fill="none" xmlns="http://www.w3.org/2000/svg">
<mask id="path-1-outside-1_34_127" maskUnits="userSpaceOnUse" x="9.36914" y="18.5259" width="45" height="27" fill="black">
<rect fill="white" x="9.36914" y="18.5259" width="45" height="27"/>
<path d="M44.7754 22.2046C44.953 21.6818 45.5202 21.4022 46.043 21.5796C47.0015 21.9053 48.1189 22.6323 49.1035 23.4292C50.1007 24.2363 51.0662 25.1979 51.7021 26.0767L52.0029 26.4927L51.8398 26.981C51.5953 27.7126 51.0543 28.3869 50.5186 28.9771C49.9994 29.5488 49.281 30.251 48.6973 30.8667C48.1729 31.4455 47.8719 31.8332 47.5547 32.479C47.3112 32.9744 46.7124 33.1792 46.2168 32.936C45.7214 32.6925 45.5165 32.0927 45.7598 31.5972C46.1889 30.7236 46.6195 30.18 47.2139 29.5239L47.2217 29.5151L47.2295 29.5073C47.9342 28.7629 48.5031 28.2226 49.0381 27.6333C49.1097 27.5544 49.1746 27.4766 49.2373 27.4038C48.9519 27.4115 48.6766 27.4224 48.4014 27.4478C47.3836 27.587 46.3418 27.8584 45.0107 28.3618L44.1836 28.6772C42.2284 29.4083 40.1081 30.094 38.0801 30.769C36.5961 31.263 35.1611 31.7507 33.8486 32.2534C36.1811 32.794 38.7959 33.3492 41.2812 33.8706C45.2261 34.6982 48.9 35.4535 50.4395 35.9224C50.9675 36.0835 51.2653 36.6423 51.1045 37.1704C50.9435 37.6984 50.3845 37.996 49.8564 37.8354C48.4282 37.4005 44.8897 36.6707 40.8711 35.8276C37.4466 35.1092 33.7118 34.3134 30.8086 33.5737C28.0954 34.9149 24.9886 36.8726 20.7168 39.8247C20.7144 39.8267 20.7117 39.8293 20.709 39.8315C20.6853 39.8505 20.6502 39.8778 20.6064 39.9126C20.5185 39.9824 20.3922 40.0824 20.2373 40.2026C19.9277 40.4431 19.5004 40.7678 19.0332 41.106C18.5676 41.4429 18.0519 41.8005 17.5674 42.1001C17.1062 42.3852 16.5918 42.6705 16.1523 42.8032C15.6239 42.9626 15.0661 42.6636 14.9062 42.1353C14.7468 41.6067 15.0457 41.0479 15.5742 40.8882C15.7426 40.8373 16.0644 40.6773 16.5146 40.3989C16.9416 40.1349 17.4145 39.8095 17.8604 39.4868C18.3043 39.1655 18.7128 38.8539 19.0107 38.6226C19.1594 38.5071 19.2803 38.4121 19.3633 38.3462C19.4047 38.3133 19.4366 38.2872 19.458 38.27C19.4686 38.2615 19.4772 38.2557 19.4824 38.2515C19.4851 38.2493 19.4871 38.2466 19.4883 38.2456H19.4893L19.5186 38.2222L19.5498 38.2007C22.8965 35.8872 25.5845 34.1425 27.9609 32.8159C25.4959 32.1607 23.1223 31.5552 20.7158 30.6392L20.6807 30.6255L20.6455 30.6099C18.8185 29.7514 17.129 28.9665 15.958 28.3423L15.9258 28.3247L15.8945 28.3042C15.6908 28.1756 15.5002 28.0407 15.3086 27.8872C15.3722 28.0323 15.4373 28.1817 15.5049 28.3335C15.7623 28.9121 16.0356 29.5117 16.2949 30.0806C16.5532 30.6471 16.799 31.1865 16.999 31.6362C17.2234 32.1408 16.9967 32.732 16.4922 32.9565C15.9877 33.1808 15.3963 32.9542 15.1719 32.4497C14.9765 32.0105 14.7348 31.4812 14.4746 30.9106C14.2155 30.3422 13.9395 29.7342 13.6777 29.146C13.2328 28.146 12.7964 27.1282 12.5752 26.4458L12.4941 26.1743L12.3691 25.7065L12.6572 25.3179C12.9453 24.9307 13.3516 24.6554 13.7607 24.4536C14.178 24.2479 14.6638 24.0869 15.1836 23.9585C16.2234 23.7017 17.5055 23.5519 18.8887 23.4858L18.8975 23.4849L18.9062 23.4858C20.0642 23.4502 20.7124 23.478 21.3613 23.5073C21.9127 23.5325 22.3393 24.0008 22.3145 24.5522C22.2893 25.1037 21.8221 25.5303 21.2705 25.5054C20.6467 25.4772 20.0588 25.4512 18.9844 25.4839C17.8369 25.5387 16.8221 25.6525 16.0068 25.8228C16.3923 26.2096 16.6523 26.4164 16.9297 26.5942C18.0355 27.1816 19.6357 27.9266 21.46 28.7837C24.2275 29.8339 26.8983 30.4383 30.0137 31.2974C30.2047 31.3501 30.4024 31.4001 30.6045 31.4536C30.6984 31.4096 30.7915 31.3655 30.8848 31.3228C32.8052 30.4434 35.1194 29.6471 37.4492 28.8716C39.7994 28.0893 42.1688 27.3265 44.2812 26.4995L44.293 26.4956C45.7452 25.9456 46.9423 25.6279 48.1484 25.4644L48.168 25.4614L48.1895 25.4595C48.2557 25.4532 48.3219 25.4499 48.3877 25.4448C48.2113 25.2884 48.0298 25.1337 47.8447 24.9839C46.9256 24.24 46.0268 23.685 45.4004 23.4722C44.8776 23.2945 44.598 22.7274 44.7754 22.2046Z"/>
</mask>
<path d="M44.7754 22.2046C44.953 21.6818 45.5202 21.4022 46.043 21.5796C47.0015 21.9053 48.1189 22.6323 49.1035 23.4292C50.1007 24.2363 51.0662 25.1979 51.7021 26.0767L52.0029 26.4927L51.8398 26.981C51.5953 27.7126 51.0543 28.3869 50.5186 28.9771C49.9994 29.5488 49.281 30.251 48.6973 30.8667C48.1729 31.4455 47.8719 31.8332 47.5547 32.479C47.3112 32.9744 46.7124 33.1792 46.2168 32.936C45.7214 32.6925 45.5165 32.0927 45.7598 31.5972C46.1889 30.7236 46.6195 30.18 47.2139 29.5239L47.2217 29.5151L47.2295 29.5073C47.9342 28.7629 48.5031 28.2226 49.0381 27.6333C49.1097 27.5544 49.1746 27.4766 49.2373 27.4038C48.9519 27.4115 48.6766 27.4224 48.4014 27.4478C47.3836 27.587 46.3418 27.8584 45.0107 28.3618L44.1836 28.6772C42.2284 29.4083 40.1081 30.094 38.0801 30.769C36.5961 31.263 35.1611 31.7507 33.8486 32.2534C36.1811 32.794 38.7959 33.3492 41.2812 33.8706C45.2261 34.6982 48.9 35.4535 50.4395 35.9224C50.9675 36.0835 51.2653 36.6423 51.1045 37.1704C50.9435 37.6984 50.3845 37.996 49.8564 37.8354C48.4282 37.4005 44.8897 36.6707 40.8711 35.8276C37.4466 35.1092 33.7118 34.3134 30.8086 33.5737C28.0954 34.9149 24.9886 36.8726 20.7168 39.8247C20.7144 39.8267 20.7117 39.8293 20.709 39.8315C20.6853 39.8505 20.6502 39.8778 20.6064 39.9126C20.5185 39.9824 20.3922 40.0824 20.2373 40.2026C19.9277 40.4431 19.5004 40.7678 19.0332 41.106C18.5676 41.4429 18.0519 41.8005 17.5674 42.1001C17.1062 42.3852 16.5918 42.6705 16.1523 42.8032C15.6239 42.9626 15.0661 42.6636 14.9062 42.1353C14.7468 41.6067 15.0457 41.0479 15.5742 40.8882C15.7426 40.8373 16.0644 40.6773 16.5146 40.3989C16.9416 40.1349 17.4145 39.8095 17.8604 39.4868C18.3043 39.1655 18.7128 38.8539 19.0107 38.6226C19.1594 38.5071 19.2803 38.4121 19.3633 38.3462C19.4047 38.3133 19.4366 38.2872 19.458 38.27C19.4686 38.2615 19.4772 38.2557 19.4824 38.2515C19.4851 38.2493 19.4871 38.2466 19.4883 38.2456H19.4893L19.5186 38.2222L19.5498 38.2007C22.8965 35.8872 25.5845 34.1425 27.9609 32.8159C25.4959 32.1607 23.1223 31.5552 20.7158 30.6392L20.6807 30.6255L20.6455 30.6099C18.8185 29.7514 17.129 28.9665 15.958 28.3423L15.9258 28.3247L15.8945 28.3042C15.6908 28.1756 15.5002 28.0407 15.3086 27.8872C15.3722 28.0323 15.4373 28.1817 15.5049 28.3335C15.7623 28.9121 16.0356 29.5117 16.2949 30.0806C16.5532 30.6471 16.799 31.1865 16.999 31.6362C17.2234 32.1408 16.9967 32.732 16.4922 32.9565C15.9877 33.1808 15.3963 32.9542 15.1719 32.4497C14.9765 32.0105 14.7348 31.4812 14.4746 30.9106C14.2155 30.3422 13.9395 29.7342 13.6777 29.146C13.2328 28.146 12.7964 27.1282 12.5752 26.4458L12.4941 26.1743L12.3691 25.7065L12.6572 25.3179C12.9453 24.9307 13.3516 24.6554 13.7607 24.4536C14.178 24.2479 14.6638 24.0869 15.1836 23.9585C16.2234 23.7017 17.5055 23.5519 18.8887 23.4858L18.8975 23.4849L18.9062 23.4858C20.0642 23.4502 20.7124 23.478 21.3613 23.5073C21.9127 23.5325 22.3393 24.0008 22.3145 24.5522C22.2893 25.1037 21.8221 25.5303 21.2705 25.5054C20.6467 25.4772 20.0588 25.4512 18.9844 25.4839C17.8369 25.5387 16.8221 25.6525 16.0068 25.8228C16.3923 26.2096 16.6523 26.4164 16.9297 26.5942C18.0355 27.1816 19.6357 27.9266 21.46 28.7837C24.2275 29.8339 26.8983 30.4383 30.0137 31.2974C30.2047 31.3501 30.4024 31.4001 30.6045 31.4536C30.6984 31.4096 30.7915 31.3655 30.8848 31.3228C32.8052 30.4434 35.1194 29.6471 37.4492 28.8716C39.7994 28.0893 42.1688 27.3265 44.2812 26.4995L44.293 26.4956C45.7452 25.9456 46.9423 25.6279 48.1484 25.4644L48.168 25.4614L48.1895 25.4595C48.2557 25.4532 48.3219 25.4499 48.3877 25.4448C48.2113 25.2884 48.0298 25.1337 47.8447 24.9839C46.9256 24.24 46.0268 23.685 45.4004 23.4722C44.8776 23.2945 44.598 22.7274 44.7754 22.2046Z" fill="black"/>
<path d="M44.7754 22.2046L42.8817 21.5611L42.8815 21.5618L44.7754 22.2046ZM46.043 21.5796L46.6865 19.6859L46.6855 19.6856L46.043 21.5796ZM49.1035 23.4292L50.3618 21.8746L50.3617 21.8746L49.1035 23.4292ZM51.7021 26.0767L53.3229 24.9048L53.3224 24.9041L51.7021 26.0767ZM52.0029 26.4927L53.8999 27.1263L54.2251 26.1527L53.6237 25.3209L52.0029 26.4927ZM51.8398 26.981L53.7367 27.6148L53.7368 27.6146L51.8398 26.981ZM50.5186 28.9771L51.9993 30.3214L51.9994 30.3214L50.5186 28.9771ZM48.6973 30.8667L47.2459 29.4906L47.2303 29.5071L47.2151 29.5238L48.6973 30.8667ZM47.5547 32.479L49.3496 33.3612L49.3498 33.3608L47.5547 32.479ZM46.2168 32.936L45.3345 34.7309L45.3358 34.7315L46.2168 32.936ZM45.7598 31.5972L43.9646 30.7154L43.9644 30.7159L45.7598 31.5972ZM47.2139 29.5239L48.696 30.8667L48.7024 30.8597L48.7087 30.8527L47.2139 29.5239ZM47.2217 29.5151L45.8075 28.1009L45.7659 28.1425L45.7269 28.1864L47.2217 29.5151ZM47.2295 29.5073L48.6437 30.9215L48.6631 30.9021L48.682 30.8822L47.2295 29.5073ZM49.0381 27.6333L50.5188 28.9777L50.5189 28.9776L49.0381 27.6333ZM49.2373 27.4038L50.7524 28.7094L53.7053 25.2825L49.1833 25.4045L49.2373 27.4038ZM48.4014 27.4478L48.2179 25.4562L48.174 25.4602L48.1302 25.4662L48.4014 27.4478ZM45.0107 28.3618L44.3032 26.4911L44.2981 26.4931L45.0107 28.3618ZM44.1836 28.6772L44.884 30.5506L44.8962 30.546L44.1836 28.6772ZM38.0801 30.769L37.4484 28.8714L37.4484 28.8714L38.0801 30.769ZM33.8486 32.2534L33.1332 30.3858L27.026 32.7252L33.3971 34.2018L33.8486 32.2534ZM41.2812 33.8706L40.8706 35.828L40.8706 35.828L41.2812 33.8706ZM50.4395 35.9224L51.0232 34.0094L51.0221 34.0091L50.4395 35.9224ZM51.1045 37.1704L53.0175 37.7539L53.0177 37.7531L51.1045 37.1704ZM49.8564 37.8354L49.2738 39.7487L49.2746 39.7489L49.8564 37.8354ZM40.8711 35.8276L41.2818 33.8703L41.2818 33.8703L40.8711 35.8276ZM30.8086 33.5737L31.3023 31.6356L30.5855 31.453L29.9223 31.7808L30.8086 33.5737ZM20.7168 39.8247L19.5798 38.1794L19.5142 38.2247L19.4525 38.275L20.7168 39.8247ZM20.709 39.8315L21.9596 41.3923L21.9597 41.3922L20.709 39.8315ZM20.6064 39.9126L21.8501 41.4789L21.8501 41.4789L20.6064 39.9126ZM20.2373 40.2026L21.4639 41.7824L21.4639 41.7824L20.2373 40.2026ZM19.0332 41.106L20.2058 42.7262L20.2058 42.7261L19.0332 41.106ZM17.5674 42.1001L18.6192 43.8012L18.6192 43.8012L17.5674 42.1001ZM16.1523 42.8032L16.7299 44.718L16.7307 44.7178L16.1523 42.8032ZM14.9062 42.1353L12.9915 42.713L12.9919 42.7143L14.9062 42.1353ZM15.5742 40.8882L16.1528 42.8027L16.1528 42.8027L15.5742 40.8882ZM16.5146 40.3989L17.5664 42.1001L17.5664 42.1L16.5146 40.3989ZM17.8604 39.4868L19.0329 41.107L19.0329 41.107L17.8604 39.4868ZM19.0107 38.6226L20.2373 40.2023L20.2373 40.2023L19.0107 38.6226ZM19.3633 38.3462L20.607 39.9125L20.607 39.9125L19.3633 38.3462ZM19.458 38.27L20.7087 39.8307L20.7089 39.8305L19.458 38.27ZM19.4824 38.2515L20.7348 39.8108L20.7367 39.8093L19.4824 38.2515ZM19.4883 38.2456V36.2456H18.7827L18.2332 36.6884L19.4883 38.2456ZM19.4893 38.2456V40.2456H20.1908L20.7386 39.8073L19.4893 38.2456ZM19.5186 38.2222L18.3855 36.5741L18.3258 36.6151L18.2692 36.6604L19.5186 38.2222ZM19.5498 38.2007L20.6829 39.8488L20.6871 39.8459L19.5498 38.2007ZM27.9609 32.8159L28.9358 34.5622L33.2518 32.1529L28.4747 30.883L27.9609 32.8159ZM20.7158 30.6392L19.9909 32.5032L19.9976 32.5058L20.0043 32.5083L20.7158 30.6392ZM20.6807 30.6255L19.8684 32.4531L19.9116 32.4723L19.9558 32.4895L20.6807 30.6255ZM20.6455 30.6099L19.7949 32.42L19.814 32.4289L19.8332 32.4375L20.6455 30.6099ZM15.958 28.3423L15.0003 30.0981L15.0088 30.1027L15.0173 30.1072L15.958 28.3423ZM15.9258 28.3247L14.8285 29.9968L14.8966 30.0415L14.9681 30.0805L15.9258 28.3247ZM15.8945 28.3042L16.9918 26.6321L16.977 26.6224L16.962 26.6129L15.8945 28.3042ZM15.3086 27.8872L16.5591 26.3264L13.4768 28.69L15.3086 27.8872ZM15.5049 28.3335L13.6776 29.1465L13.6776 29.1465L15.5049 28.3335ZM16.2949 30.0806L18.1147 29.2509L18.1147 29.2509L16.2949 30.0806ZM16.999 31.6362L18.8264 30.8234L18.8264 30.8234L16.999 31.6362ZM16.4922 32.9565L17.3046 34.7841L17.3053 34.7838L16.4922 32.9565ZM15.1719 32.4497L13.3445 33.2625L13.3446 33.2628L15.1719 32.4497ZM14.4746 30.9106L12.6548 31.7403L12.6548 31.7403L14.4746 30.9106ZM13.6777 29.146L11.8504 29.959L11.8504 29.959L13.6777 29.146ZM12.5752 26.4458L10.6588 27.018L10.6655 27.0404L10.6727 27.0626L12.5752 26.4458ZM12.4941 26.1743L10.5619 26.6906L10.5694 26.7187L10.5777 26.7465L12.4941 26.1743ZM12.3691 25.7065L10.7624 24.5156L10.1879 25.2907L10.4369 26.2229L12.3691 25.7065ZM12.6572 25.3179L11.0526 24.1241L11.0505 24.1269L12.6572 25.3179ZM13.7607 24.4536L12.8763 22.6598L12.8761 22.6599L13.7607 24.4536ZM15.1836 23.9585L14.7041 22.0168L14.704 22.0168L15.1836 23.9585ZM18.8887 23.4858L18.9841 25.4836L19.047 25.4806L19.1095 25.4736L18.8887 23.4858ZM18.8975 23.4849L19.1183 21.4971L18.8975 21.4726L18.6766 21.4971L18.8975 23.4849ZM18.9062 23.4858L18.6854 25.4736L18.8262 25.4893L18.9678 25.4849L18.9062 23.4858ZM21.3613 23.5073L21.4525 21.5094L21.4516 21.5094L21.3613 23.5073ZM22.3145 24.5522L24.3124 24.6435L24.3124 24.6421L22.3145 24.5522ZM21.2705 25.5054L21.3608 23.5074L21.3608 23.5074L21.2705 25.5054ZM18.9844 25.4839L18.9236 23.4848L18.9063 23.4853L18.889 23.4862L18.9844 25.4839ZM16.0068 25.8228L15.598 23.865L11.9842 24.6197L14.5902 27.2346L16.0068 25.8228ZM16.9297 26.5942L15.8501 28.2778L15.9191 28.3221L15.9915 28.3605L16.9297 26.5942ZM21.46 28.7837L20.6095 30.5938L20.6788 30.6264L20.7504 30.6536L21.46 28.7837ZM30.0137 31.2974L29.482 33.2254L29.482 33.2254L30.0137 31.2974ZM30.6045 31.4536L30.0924 33.3869L30.7952 33.5731L31.4535 33.2644L30.6045 31.4536ZM30.8848 31.3228L30.0521 29.5043L30.052 29.5044L30.8848 31.3228ZM37.4492 28.8716L36.8175 26.974L36.8175 26.974L37.4492 28.8716ZM44.2812 26.4995L43.6488 24.6021L43.6 24.6184L43.5522 24.6371L44.2812 26.4995ZM44.293 26.4956L44.9254 28.393L44.9636 28.3802L45.0013 28.366L44.293 26.4956ZM48.1484 25.4644L48.4171 27.4462L48.4311 27.4443L48.4451 27.4422L48.1484 25.4644ZM48.168 25.4614L47.9869 23.4696L47.9289 23.4749L47.8713 23.4836L48.168 25.4614ZM48.1895 25.4595L48.3705 27.4513L48.3776 27.4506L48.1895 25.4595ZM48.3877 25.4448L48.5421 27.4389L53.2414 27.0749L49.7144 23.9482L48.3877 25.4448ZM47.8447 24.9839L49.103 23.4293L49.1029 23.4292L47.8447 24.9839ZM45.4004 23.4722L44.7568 25.3658L44.7569 25.3658L45.4004 23.4722ZM44.7754 22.2046L46.669 22.8481C46.4914 23.3708 45.9233 23.6509 45.4004 23.4736L46.043 21.5796L46.6855 19.6856C45.1171 19.1535 43.4147 19.9929 42.8817 21.5611L44.7754 22.2046ZM46.043 21.5796L45.3995 23.4732C46.027 23.6865 46.9277 24.2412 47.8453 24.9838L49.1035 23.4292L50.3617 21.8746C49.3101 21.0235 47.9759 20.1241 46.6865 19.6859L46.043 21.5796ZM49.1035 23.4292L47.8453 24.9838C48.7522 25.7178 49.5794 26.5549 50.0819 27.2492L51.7021 26.0767L53.3224 24.9041C52.553 23.841 51.4492 22.7547 50.3618 21.8746L49.1035 23.4292ZM51.7021 26.0767L50.0814 27.2485L50.3822 27.6645L52.0029 26.4927L53.6237 25.3209L53.3229 24.9048L51.7021 26.0767ZM52.0029 26.4927L50.1059 25.8591L49.9429 26.3474L51.8398 26.981L53.7368 27.6146L53.8999 27.1263L52.0029 26.4927ZM51.8398 26.981L49.943 26.3471C49.8418 26.6497 49.5591 27.0584 49.0378 27.6327L50.5186 28.9771L51.9994 30.3214C52.5494 29.7155 53.3489 28.7755 53.7367 27.6148L51.8398 26.981ZM50.5186 28.9771L49.0378 27.6327C48.5155 28.2079 47.933 28.766 47.2459 29.4906L48.6973 30.8667L50.1486 32.2428C50.6291 31.736 51.4833 30.8898 51.9993 30.3214L50.5186 28.9771ZM48.6973 30.8667L47.2151 29.5238C46.6229 30.1775 46.1898 30.7213 45.7596 31.5973L47.5547 32.479L49.3498 33.3608C49.554 32.945 49.7229 32.7134 50.1794 32.2096L48.6973 30.8667ZM47.5547 32.479L45.7598 31.5968C46.0026 31.1027 46.601 30.8967 47.0978 31.1406L46.2168 32.936L45.3358 34.7315C46.8238 35.4617 48.6197 34.8462 49.3496 33.3612L47.5547 32.479ZM46.2168 32.936L47.0991 31.1412C47.5938 31.3844 47.7988 31.9821 47.5551 32.4784L45.7598 31.5972L43.9644 30.7159C43.2343 32.2034 43.8489 34.0006 45.3345 34.7309L46.2168 32.936ZM45.7598 31.5972L47.5549 32.479C47.8719 31.8335 48.1717 31.4455 48.696 30.8667L47.2139 29.5239L45.7317 28.1811C45.0673 28.9145 44.5058 29.6137 43.9646 30.7154L45.7598 31.5972ZM47.2139 29.5239L48.7087 30.8527L48.7165 30.8439L47.2217 29.5151L45.7269 28.1864L45.719 28.1952L47.2139 29.5239ZM47.2217 29.5151L48.6359 30.9294L48.6437 30.9215L47.2295 29.5073L45.8153 28.0931L45.8075 28.1009L47.2217 29.5151ZM47.2295 29.5073L48.682 30.8822C49.2608 30.2707 49.9988 29.5505 50.5188 28.9777L49.0381 27.6333L47.5573 26.2889C47.0074 26.8947 46.6075 27.2551 45.777 28.1324L47.2295 29.5073ZM49.0381 27.6333L50.5189 28.9776C50.6136 28.8733 50.7169 28.7505 50.7524 28.7094L49.2373 27.4038L47.7222 26.0983C47.6323 26.2026 47.6058 26.2355 47.5573 26.289L49.0381 27.6333ZM49.2373 27.4038L49.1833 25.4045C48.8858 25.4126 48.5588 25.4248 48.2179 25.4562L48.4014 27.4478L48.5848 29.4393C48.7943 29.42 49.0179 29.4105 49.2913 29.4031L49.2373 27.4038ZM48.4014 27.4478L48.1302 25.4662C46.9319 25.6302 45.7419 25.947 44.3032 26.4912L45.0107 28.3618L45.7183 30.2325C46.9417 29.7697 47.8354 29.5438 48.6725 29.4293L48.4014 27.4478ZM45.0107 28.3618L44.2981 26.4931L43.471 26.8085L44.1836 28.6772L44.8962 30.546L45.7234 30.2305L45.0107 28.3618ZM44.1836 28.6772L43.4832 26.8039C41.5723 27.5184 39.5017 28.1879 37.4484 28.8714L38.0801 30.769L38.7118 32.6667C40.7144 32 42.8846 31.2981 44.884 30.5506L44.1836 28.6772ZM38.0801 30.769L37.4484 28.8714C35.9625 29.366 34.4908 29.8657 33.1332 30.3858L33.8486 32.2534L34.5641 34.1211C35.8315 33.6356 37.2297 33.16 38.7118 32.6667L38.0801 30.769ZM33.8486 32.2534L33.3971 34.2018C35.752 34.7476 38.3853 35.3066 40.8706 35.828L41.2812 33.8706L41.6919 31.9132C39.2066 31.3918 36.6101 30.8404 34.3002 30.3051L33.8486 32.2534ZM41.2812 33.8706L40.8706 35.828C44.8889 36.671 48.4286 37.4006 49.8568 37.8356L50.4395 35.9224L51.0221 34.0091C49.3714 33.5064 45.5633 32.7254 41.6919 31.9132L41.2812 33.8706ZM50.4395 35.9224L49.8557 37.8353C49.3282 37.6743 49.0303 37.1164 49.1913 36.5877L51.1045 37.1704L53.0177 37.7531C53.5004 36.1682 52.6067 34.4926 51.0232 34.0094L50.4395 35.9224ZM51.1045 37.1704L49.1915 36.587C49.3528 36.058 49.9112 35.7617 50.4383 35.922L49.8564 37.8354L49.2746 39.7489C50.8579 40.2304 52.5341 39.3387 53.0175 37.7539L51.1045 37.1704ZM49.8564 37.8354L50.4391 35.9222C48.8995 35.4533 45.2261 34.6978 41.2818 33.8703L40.8711 35.8276L40.4604 37.785C44.5532 38.6437 47.9568 39.3476 49.2738 39.7487L49.8564 37.8354ZM40.8711 35.8276L41.2818 33.8703C37.8506 33.1504 34.1575 32.363 31.3023 31.6356L30.8086 33.5737L30.3148 35.5118C33.2662 36.2637 37.0426 37.068 40.4604 37.785L40.8711 35.8276ZM30.8086 33.5737L29.9223 31.7808C27.0733 33.1892 23.8686 35.2155 19.5798 38.1794L20.7168 39.8247L21.8538 41.4701C26.1087 38.5297 29.1176 36.6406 31.6949 35.3666L30.8086 33.5737ZM20.7168 39.8247L19.4525 38.275C19.4365 38.2881 19.4228 38.2996 19.4121 38.3089C19.4013 38.3181 19.3924 38.326 19.386 38.3317C19.3796 38.3374 19.3745 38.342 19.3719 38.3444C19.3705 38.3456 19.3694 38.3466 19.3689 38.3471C19.3686 38.3473 19.3684 38.3475 19.3683 38.3476C19.3682 38.3477 19.3683 38.3476 19.3684 38.3475C19.3687 38.3472 19.3714 38.3448 19.375 38.3415C19.3787 38.3382 19.3845 38.333 19.3917 38.3267C19.3988 38.3204 19.4081 38.3124 19.419 38.3032C19.4299 38.294 19.4431 38.283 19.4582 38.2709L20.709 39.8315L21.9597 41.3922C21.9907 41.3673 22.0152 41.3462 22.0304 41.3329C22.0382 41.3261 22.0446 41.3203 22.049 41.3163C22.0533 41.3125 22.0567 41.3094 22.0576 41.3086C22.0579 41.3084 22.0581 41.3081 22.0582 41.3081C22.0583 41.308 22.0582 41.308 22.0581 41.3081C22.0579 41.3083 22.0571 41.309 22.0561 41.31C22.0541 41.3118 22.0496 41.3158 22.0439 41.3209C22.0381 41.3261 22.0298 41.3334 22.0197 41.3421C22.0096 41.3508 21.9965 41.3618 21.9811 41.3744L20.7168 39.8247ZM20.709 39.8315L19.4584 38.2708C19.4318 38.2921 19.4356 38.2885 19.3628 38.3463L20.6064 39.9126L21.8501 41.4789C21.8684 41.4644 21.885 41.4513 21.9026 41.4374C21.9178 41.4255 21.9398 41.4082 21.9596 41.3923L20.709 39.8315ZM20.6064 39.9126L19.3628 38.3463C19.2778 38.4138 19.1577 38.5088 19.0107 38.6229L20.2373 40.2026L21.4639 41.7824C21.6267 41.6559 21.7593 41.551 21.8501 41.4789L20.6064 39.9126ZM20.2373 40.2026L19.0107 38.6229C18.7145 38.8529 18.3056 39.1637 17.8606 39.4858L19.0332 41.106L20.2058 42.7261C20.6952 42.372 21.1408 42.0332 21.4639 41.7824L20.2373 40.2026ZM19.0332 41.106L17.8606 39.4858C17.4137 39.8092 16.9418 40.1354 16.5155 40.399L17.5674 42.1001L18.6192 43.8012C19.1621 43.4655 19.7215 43.0766 20.2058 42.7262L19.0332 41.106ZM17.5674 42.1001L16.5156 40.399C16.0666 40.6766 15.7432 40.8376 15.574 40.8887L16.1523 42.8032L16.7307 44.7178C17.4404 44.5034 18.1458 44.0939 18.6192 43.8012L17.5674 42.1001ZM16.1523 42.8032L15.5748 40.8884C16.1033 40.729 16.6608 41.0279 16.8206 41.5562L14.9062 42.1353L12.9919 42.7143C13.4713 44.2992 15.1445 45.1962 16.7299 44.718L16.1523 42.8032ZM14.9062 42.1353L16.821 41.5575C16.9799 42.0842 16.6832 42.6424 16.1528 42.8027L15.5742 40.8882L14.9956 38.9737C13.4082 39.4535 12.5136 41.1292 12.9915 42.713L14.9062 42.1353ZM15.5742 40.8882L16.1528 42.8027C16.5939 42.6693 17.1092 42.3827 17.5664 42.1001L16.5146 40.3989L15.4629 38.6978C15.2706 38.8167 15.1242 38.8988 15.0239 38.9503C14.974 38.976 14.9435 38.99 14.9305 38.9957C14.9128 39.0034 14.9382 38.9911 14.9956 38.9737L15.5742 40.8882ZM16.5146 40.3989L17.5664 42.1C18.0497 41.8012 18.5654 41.4454 19.0329 41.107L17.8604 39.4868L16.6878 37.8666C16.2635 38.1737 15.8335 38.4687 15.4629 38.6978L16.5146 40.3989ZM17.8604 39.4868L19.0329 41.107C19.5009 40.7683 19.9283 40.4422 20.2373 40.2023L19.0107 38.6226L17.7842 37.0428C17.4974 37.2655 17.1078 37.5626 16.6878 37.8666L17.8604 39.4868ZM19.0107 38.6226L20.2373 40.2023C20.3908 40.0831 20.5174 39.9836 20.607 39.9125L19.3633 38.3462L18.1196 36.7799C18.0431 36.8406 17.928 36.9311 17.7842 37.0428L19.0107 38.6226ZM19.3633 38.3462L20.607 39.9125C20.6338 39.8911 20.657 39.8725 20.675 39.858C20.6968 39.8403 20.702 39.8361 20.7087 39.8307L19.458 38.27L18.2073 36.7094C18.1983 36.7166 18.1894 36.7237 18.1825 36.7294C18.1742 36.736 18.169 36.7403 18.1613 36.7465C18.1477 36.7575 18.1341 36.7684 18.1196 36.7799L19.3633 38.3462ZM19.458 38.27L20.7089 39.8305C20.684 39.8506 20.6644 39.865 20.6616 39.867C20.6614 39.8672 20.6612 39.8673 20.6615 39.8671C20.6617 39.867 20.6618 39.8669 20.6622 39.8666C20.6625 39.8664 20.6629 39.8661 20.6633 39.8658C20.6649 39.8646 20.669 39.8616 20.6739 39.858C20.6788 39.8543 20.6867 39.8483 20.6962 39.8411C20.7057 39.8338 20.719 39.8235 20.7348 39.8108L19.4824 38.2515L18.23 36.6921C18.2445 36.6805 18.2565 36.6713 18.2644 36.6652C18.2724 36.6591 18.2787 36.6544 18.2819 36.652C18.2836 36.6507 18.285 36.6496 18.2858 36.6491C18.2862 36.6487 18.2865 36.6485 18.2867 36.6484C18.2868 36.6483 18.2869 36.6482 18.2869 36.6482C18.287 36.6482 18.287 36.6481 18.287 36.6481C18.287 36.6481 18.287 36.6481 18.287 36.6482C18.287 36.6482 18.287 36.6482 18.2869 36.6482C18.2869 36.6482 18.2868 36.6483 18.2867 36.6483C18.2866 36.6484 18.2862 36.6487 18.2859 36.649C18.2852 36.6495 18.2841 36.6503 18.2828 36.6513C18.2718 36.6594 18.2426 36.681 18.2071 36.7095L19.458 38.27ZM19.4824 38.2515L20.7367 39.8093C20.771 39.7817 20.8009 39.7558 20.8262 39.7328C20.8516 39.7098 20.8735 39.6888 20.8915 39.671C20.9096 39.6531 20.9247 39.6374 20.9364 39.625C20.948 39.6128 20.9573 39.6028 20.9627 39.5969C20.9654 39.5939 20.9675 39.5915 20.9686 39.5904C20.9691 39.5898 20.9695 39.5894 20.9695 39.5893C20.9697 39.5891 20.9694 39.5894 20.9691 39.5898C20.9685 39.5905 20.9662 39.5929 20.9634 39.5961C20.9604 39.5993 20.9558 39.6044 20.95 39.6106C20.9442 39.6167 20.9363 39.6252 20.9267 39.6352C20.9171 39.645 20.9046 39.6578 20.8896 39.6726C20.8747 39.6872 20.8554 39.7057 20.8323 39.7267C20.8206 39.7373 20.8074 39.749 20.7928 39.7616C20.7782 39.7742 20.7617 39.788 20.7433 39.8028L19.4883 38.2456L18.2332 36.6884C18.2148 36.7033 18.1982 36.7172 18.1835 36.7298C18.1689 36.7424 18.1556 36.7542 18.1438 36.7649C18.1205 36.7861 18.101 36.8048 18.086 36.8195C18.0708 36.8344 18.0581 36.8474 18.0484 36.8575C18.0386 36.8676 18.0304 36.8763 18.0245 36.8827C18.0185 36.8891 18.0136 36.8944 18.0105 36.8979C18.0074 36.9012 18.0049 36.9039 18.0041 36.9049C18.0039 36.9051 18.0036 36.9054 18.0035 36.9055C18.0035 36.9056 18.0034 36.9056 18.0034 36.9057C18.0034 36.9057 18.0033 36.9057 18.0033 36.9057C18.0033 36.9057 18.0033 36.9057 18.0033 36.9057C18.0032 36.9058 18.0036 36.9055 18.0039 36.905C18.0047 36.9042 18.0066 36.9021 18.0091 36.8993C18.014 36.894 18.0227 36.8845 18.0338 36.8728C18.0449 36.8611 18.0596 36.8459 18.077 36.8286C18.0945 36.8113 18.1158 36.7909 18.1405 36.7685C18.1653 36.7461 18.1945 36.7207 18.2281 36.6937L19.4824 38.2515ZM19.4883 38.2456V40.2456H19.4893V38.2456V36.2456H19.4883V38.2456ZM19.4893 38.2456L20.7386 39.8073L20.7679 39.7839L19.5186 38.2222L18.2692 36.6604L18.2399 36.6839L19.4893 38.2456ZM19.5186 38.2222L20.6516 39.8703L20.6829 39.8488L19.5498 38.2007L18.4167 36.5526L18.3855 36.5741L19.5186 38.2222ZM19.5498 38.2007L20.6871 39.8459C24.0165 37.5443 26.6429 35.8422 28.9358 34.5622L27.9609 32.8159L26.9861 31.0696C24.5261 32.4428 21.7766 34.2301 18.4125 36.5555L19.5498 38.2007ZM27.9609 32.8159L28.4747 30.883C25.9762 30.2189 23.7156 29.641 21.4273 28.77L20.7158 30.6392L20.0043 32.5083C22.529 33.4693 25.0157 34.1025 27.4471 34.7488L27.9609 32.8159ZM20.7158 30.6392L21.4407 28.7752L21.4056 28.7615L20.6807 30.6255L19.9558 32.4895L19.9909 32.5032L20.7158 30.6392ZM20.6807 30.6255L21.4929 28.7979L21.4578 28.7822L20.6455 30.6099L19.8332 32.4375L19.8684 32.4531L20.6807 30.6255ZM20.6455 30.6099L21.4961 28.7997C19.6403 27.9277 18.0128 27.1712 16.8988 26.5773L15.958 28.3423L15.0173 30.1072C16.2452 30.7618 17.9967 31.575 19.7949 32.42L20.6455 30.6099ZM15.958 28.3423L16.9157 26.5865L16.8835 26.5689L15.9258 28.3247L14.9681 30.0805L15.0003 30.0981L15.958 28.3423ZM15.9258 28.3247L17.0231 26.6526L16.9918 26.6321L15.8945 28.3042L14.7972 29.9763L14.8285 29.9968L15.9258 28.3247ZM15.8945 28.3042L16.962 26.6129C16.8185 26.5223 16.6894 26.4308 16.5591 26.3264L15.3086 27.8872L14.0581 29.448C14.311 29.6507 14.563 29.8288 14.8271 29.9955L15.8945 28.3042ZM15.3086 27.8872L13.4768 28.69C13.5385 28.8308 13.6071 28.9881 13.6776 29.1465L15.5049 28.3335L17.3322 27.5205C17.2676 27.3754 17.2059 27.2339 17.1404 27.0844L15.3086 27.8872ZM15.5049 28.3335L13.6776 29.1465C13.9394 29.7348 14.2163 30.3426 14.4751 30.9103L16.2949 30.0806L18.1147 29.2509C17.8548 28.6809 17.5853 28.0894 17.3322 27.5205L15.5049 28.3335ZM16.2949 30.0806L14.4751 30.9103C14.7344 31.4789 14.9761 32.0095 15.1716 32.449L16.999 31.6362L18.8264 30.8234C18.6219 30.3636 18.372 29.8152 18.1147 29.2509L16.2949 30.0806ZM16.999 31.6362L15.1716 32.449C14.9478 31.9457 15.1733 31.3544 15.679 31.1293L16.4922 32.9565L17.3053 34.7838C18.8201 34.1097 19.4991 32.3359 18.8264 30.8234L16.999 31.6362ZM16.4922 32.9565L15.6798 31.129C16.1825 30.9055 16.7739 31.1303 16.9991 31.6366L15.1719 32.4497L13.3446 33.2628C14.0188 34.778 15.7928 35.4561 17.3046 34.7841L16.4922 32.9565ZM15.1719 32.4497L16.9993 31.6369C16.7992 31.187 16.5526 30.6474 16.2944 30.0809L14.4746 30.9106L12.6548 31.7403C12.9169 32.3151 13.1538 32.8339 13.3445 33.2625L15.1719 32.4497ZM14.4746 30.9106L16.2944 30.0809C16.0359 29.514 15.7629 28.9126 15.505 28.333L13.6777 29.146L11.8504 29.959C12.116 30.5558 12.395 31.1705 12.6548 31.7403L14.4746 30.9106ZM13.6777 29.146L15.505 28.333C15.0528 27.3166 14.6611 26.3945 14.4777 25.829L12.5752 26.4458L10.6727 27.0626C10.9318 27.8618 11.4128 28.9754 11.8504 29.959L13.6777 29.146ZM12.5752 26.4458L14.4916 25.8736L14.4106 25.6022L12.4941 26.1743L10.5777 26.7465L10.6588 27.018L12.5752 26.4458ZM12.4941 26.1743L14.4263 25.658L14.3013 25.1902L12.3691 25.7065L10.4369 26.2229L10.5619 26.6906L12.4941 26.1743ZM12.3691 25.7065L13.9759 26.8975L14.264 26.5088L12.6572 25.3179L11.0505 24.1269L10.7624 24.5156L12.3691 25.7065ZM12.6572 25.3179L14.2619 26.5117C14.2727 26.4971 14.3025 26.4623 14.3684 26.4126C14.4351 26.3622 14.5261 26.3061 14.6454 26.2473L13.7607 24.4536L12.8761 22.6599C12.3131 22.9376 11.6007 23.3874 11.0526 24.1241L12.6572 25.3179ZM13.7607 24.4536L14.6452 26.2474C14.8915 26.126 15.2294 26.0073 15.6631 25.9002L15.1836 23.9585L14.704 22.0168C14.0981 22.1665 13.4645 22.3698 12.8763 22.6598L13.7607 24.4536ZM15.1836 23.9585L15.6631 25.9002C16.5288 25.6864 17.669 25.5464 18.9841 25.4836L18.8887 23.4858L18.7933 21.4881C17.342 21.5574 15.918 21.717 14.7041 22.0168L15.1836 23.9585ZM18.8887 23.4858L19.1095 25.4736L19.1183 25.4726L18.8975 23.4849L18.6766 21.4971L18.6678 21.4981L18.8887 23.4858ZM18.8975 23.4849L18.6766 25.4726L18.6854 25.4736L18.9062 23.4858L19.1271 21.4981L19.1183 21.4971L18.8975 23.4849ZM18.9062 23.4858L18.9678 25.4849C20.0546 25.4514 20.6468 25.4771 21.2711 25.5053L21.3613 23.5073L21.4516 21.5094C20.778 21.4789 20.0738 21.4489 18.8447 21.4868L18.9062 23.4858ZM21.3613 23.5073L21.2701 25.5052C20.7154 25.4799 20.2918 25.0106 20.3165 24.4624L22.3145 24.5522L24.3124 24.6421C24.3867 22.9909 23.1101 21.5851 21.4525 21.5094L21.3613 23.5073ZM22.3145 24.5522L20.3165 24.4609C20.3417 23.9093 20.8094 23.4825 21.3608 23.5074L21.2705 25.5054L21.1802 27.5033C22.8347 27.5781 24.2368 26.2981 24.3124 24.6435L22.3145 24.5522ZM21.2705 25.5054L21.3608 23.5074C20.7139 23.4782 20.0697 23.45 18.9236 23.4848L18.9844 25.4839L19.0451 27.483C20.0478 27.4525 20.5795 27.4762 21.1802 27.5033L21.2705 25.5054ZM18.9844 25.4839L18.889 23.4862C17.6765 23.5441 16.5498 23.6662 15.598 23.865L16.0068 25.8228L16.4157 27.7805C17.0945 27.6387 17.9972 27.5333 19.0798 27.4816L18.9844 25.4839ZM16.0068 25.8228L14.5902 27.2346C15.0531 27.6991 15.4245 28.0049 15.8501 28.2778L16.9297 26.5942L18.0093 24.9107C17.8802 24.8278 17.7316 24.7201 17.4234 24.4109L16.0068 25.8228ZM16.9297 26.5942L15.9915 28.3605C17.1525 28.9773 18.8122 29.7494 20.6095 30.5938L21.46 28.7837L22.3105 26.9735C20.4591 26.1037 18.9184 25.386 17.8679 24.828L16.9297 26.5942ZM21.46 28.7837L20.7504 30.6536C23.6346 31.7481 26.4775 32.3969 29.482 33.2254L30.0137 31.2974L30.5453 29.3693C27.3192 28.4797 24.8204 27.9197 22.1695 26.9138L21.46 28.7837ZM30.0137 31.2974L29.482 33.2254C29.6837 33.281 29.9215 33.3417 30.0924 33.3869L30.6045 31.4536L31.1166 29.5203C30.8833 29.4585 30.7258 29.4191 30.5453 29.3693L30.0137 31.2974ZM30.6045 31.4536L31.4535 33.2644C31.5574 33.2158 31.6351 33.1789 31.7175 33.1412L30.8848 31.3228L30.052 29.5044C29.9479 29.552 29.8394 29.6034 29.7554 29.6428L30.6045 31.4536ZM30.8848 31.3228L31.7174 33.1412C33.526 32.313 35.7424 31.5476 38.0809 30.7692L37.4492 28.8716L36.8175 26.974C34.4963 27.7466 32.0844 28.5737 30.0521 29.5043L30.8848 31.3228ZM37.4492 28.8716L38.0809 30.7692C40.3986 29.9977 42.8359 29.2131 45.0103 28.3619L44.2812 26.4995L43.5522 24.6371C41.5017 25.4399 39.2002 26.1808 36.8175 26.974L37.4492 28.8716ZM44.2812 26.4995L44.9137 28.3969L44.9254 28.393L44.293 26.4956L43.6605 24.5982L43.6488 24.6021L44.2812 26.4995ZM44.293 26.4956L45.0013 28.366C46.3449 27.8572 47.3928 27.5851 48.4171 27.4462L48.1484 25.4644L47.8798 23.4825C46.4918 23.6706 45.1456 24.0341 43.5847 24.6252L44.293 26.4956ZM48.1484 25.4644L48.4451 27.4422L48.4646 27.4393L48.168 25.4614L47.8713 23.4836L47.8518 23.4865L48.1484 25.4644ZM48.168 25.4614L48.349 27.4532L48.3705 27.4513L48.1895 25.4595L48.0084 23.4677L47.9869 23.4696L48.168 25.4614ZM48.1895 25.4595L48.3776 27.4506C48.4357 27.4451 48.3886 27.4507 48.5421 27.4389L48.3877 25.4448L48.2332 23.4508C48.213 23.4524 48.1978 23.4533 48.1533 23.4563C48.1166 23.4588 48.0618 23.4626 48.0013 23.4683L48.1895 25.4595ZM48.3877 25.4448L49.7144 23.9482C49.5189 23.7749 49.3145 23.6005 49.103 23.4293L47.8447 24.9839L46.5865 26.5385C46.7452 26.667 46.9037 26.802 47.061 26.9414L48.3877 25.4448ZM47.8447 24.9839L49.1029 23.4292C48.1197 22.6335 47.0032 21.9045 46.0439 21.5785L45.4004 23.4722L44.7569 25.3658C45.0504 25.4656 45.7316 25.8466 46.5865 26.5385L47.8447 24.9839ZM45.4004 23.4722L46.044 21.5785C46.5663 21.7561 46.8469 22.3241 46.6693 22.8474L44.7754 22.2046L42.8815 21.5618C42.349 23.1307 43.1889 24.8329 44.7568 25.3658L45.4004 23.4722Z" fill="white" mask="url(#path-1-outside-1_34_127)"/>
</svg>
