<svg width="64" height="64" viewBox="0 0 64 64" fill="none" xmlns="http://www.w3.org/2000/svg">
<mask id="path-1-outside-1_34_137" maskUnits="userSpaceOnUse" x="15.7266" y="14.4387" width="35" height="36" fill="black">
<rect fill="white" x="15.7266" y="14.4387" width="35" height="36"/>
<path d="M20.4414 16.6965C20.8823 16.7225 21.3664 16.8188 21.8711 16.9612C22.8803 17.246 24.054 17.741 25.2812 18.3635L25.292 18.3684C26.308 18.9055 26.8503 19.2483 27.3975 19.593C27.7478 19.8138 27.8533 20.2768 27.6328 20.6272C27.412 20.9774 26.949 21.083 26.5986 20.8625C26.0652 20.5264 25.5586 20.2072 24.5908 19.6956C23.4138 19.0991 22.3411 18.6521 21.4639 18.4045C21.4374 18.3971 21.4107 18.3911 21.3848 18.384C21.5822 19.2001 21.7323 19.6092 21.9375 19.9983C22.6139 21.0654 23.6474 22.5174 24.8135 24.1702C26.7111 26.4656 28.7496 28.3283 31.0244 30.6067C31.4428 31.0257 31.9053 31.4716 32.3984 31.9407C33.6664 30.6315 35.1616 29.275 36.6807 27.9221C38.5273 26.2776 40.4096 24.6348 42.0293 23.0344L42.0352 23.0286C43.1413 21.9597 44.1013 21.2081 45.125 20.593L45.1396 20.5852L45.1523 20.5784C45.3838 20.4517 45.6172 20.3352 45.8496 20.2249C45.4467 20.0746 45.0228 19.9368 44.5957 19.8167C43.4475 19.4937 42.3693 19.3307 41.666 19.386C41.2531 19.4185 40.8909 19.1094 40.8584 18.6965C40.8261 18.2838 41.1351 17.9225 41.5479 17.8899C42.5133 17.8138 43.7929 18.0323 45.002 18.3723C46.2229 18.7157 47.4679 19.2118 48.375 19.7532L48.7051 19.9504L48.7373 20.3333C48.7972 21.0458 48.5835 21.8364 48.3252 22.5881C48.073 23.3222 47.6988 24.2263 47.3984 25.0432C47.1413 25.7943 47.0124 26.2941 46.9746 27.0442C46.9536 27.4577 46.601 27.7759 46.1875 27.7551C45.7739 27.7343 45.4559 27.3826 45.4766 26.969C45.524 26.0284 45.6969 25.3832 45.9795 24.5579L45.9824 24.5491L45.9854 24.5422C46.3311 23.6 46.6493 22.8516 46.9072 22.1008C47.0131 21.7925 47.0947 21.52 47.1514 21.2805C46.7046 21.4788 46.2903 21.6653 45.8887 21.884C44.9872 22.4266 44.1209 23.1005 43.084 24.1018L42.4512 24.717C40.9492 26.1561 39.2767 27.6192 37.6777 29.0432C36.1595 30.3952 34.708 31.7126 33.4912 32.967C35.3491 34.692 37.5117 36.6147 39.5596 38.425C42.5861 41.1006 45.3917 43.5618 46.4883 44.72C46.7729 45.0207 46.7596 45.4948 46.459 45.7795C46.1582 46.0642 45.6842 46.0519 45.3994 45.7512C44.363 44.6566 41.6347 42.2624 38.5654 39.5491C36.5263 37.7465 34.3509 35.8133 32.4717 34.0686C30.3786 36.4436 28.1984 39.5883 25.2559 44.2834C25.2532 44.2885 25.2505 44.2945 25.2471 44.301C25.233 44.3275 25.2119 44.3662 25.1855 44.4153C25.1328 44.5134 25.0572 44.6545 24.9629 44.8254C24.7743 45.1672 24.5107 45.6328 24.2168 46.1252C23.9239 46.616 23.5952 47.1422 23.2734 47.6018C22.9634 48.0446 22.619 48.4853 22.2949 48.7581C21.9781 49.0244 21.5049 48.9839 21.2383 48.6672C20.972 48.3503 21.0133 47.8772 21.3301 47.6106C21.4917 47.4745 21.7395 47.1763 22.0439 46.7415C22.3367 46.3233 22.646 45.8319 22.9297 45.3567C23.2125 44.8828 23.4662 44.4318 23.6494 44.0999C23.7406 43.9347 23.8137 43.7992 23.8643 43.7053C23.8895 43.6584 23.9098 43.6215 23.9229 43.5969C23.9292 43.5849 23.9342 43.5757 23.9375 43.5696C23.9391 43.5666 23.9397 43.5632 23.9404 43.5618L23.9414 43.5608L23.9551 43.5354L23.9707 43.511C26.9419 38.769 29.186 35.5227 31.3789 33.0413C30.8712 32.5585 30.3945 32.0986 29.9629 31.6663C27.7407 29.4405 25.6008 27.4805 23.6377 25.1018L23.6201 25.0803L23.6035 25.0569C22.4373 23.4038 21.3613 21.8933 20.6562 20.7786L20.6416 20.7561L20.6289 20.7317C20.3656 20.2389 20.1834 19.7502 19.9912 19.0042C19.9294 19.4853 19.8665 20.0506 19.8066 20.6565C19.7442 21.288 19.6847 21.9451 19.6289 22.5676C19.5733 23.1886 19.521 23.7784 19.4727 24.2668C19.4318 24.679 19.0645 24.9805 18.6523 24.9397C18.2404 24.8988 17.9389 24.5314 17.9795 24.1194C18.027 23.6395 18.0789 23.058 18.1348 22.4338C18.1905 21.8117 18.2503 21.1482 18.3135 20.509C18.4371 19.2576 18.5814 18.0196 18.748 17.3792L18.8398 17.0276L19.1719 16.8811C19.5635 16.7091 20.0078 16.671 20.4414 16.6965Z"/>
</mask>
<path d="M20.4414 16.6965C20.8823 16.7225 21.3664 16.8188 21.8711 16.9612C22.8803 17.246 24.054 17.741 25.2812 18.3635L25.292 18.3684C26.308 18.9055 26.8503 19.2483 27.3975 19.593C27.7478 19.8138 27.8533 20.2768 27.6328 20.6272C27.412 20.9774 26.949 21.083 26.5986 20.8625C26.0652 20.5264 25.5586 20.2072 24.5908 19.6956C23.4138 19.0991 22.3411 18.6521 21.4639 18.4045C21.4374 18.3971 21.4107 18.3911 21.3848 18.384C21.5822 19.2001 21.7323 19.6092 21.9375 19.9983C22.6139 21.0654 23.6474 22.5174 24.8135 24.1702C26.7111 26.4656 28.7496 28.3283 31.0244 30.6067C31.4428 31.0257 31.9053 31.4716 32.3984 31.9407C33.6664 30.6315 35.1616 29.275 36.6807 27.9221C38.5273 26.2776 40.4096 24.6348 42.0293 23.0344L42.0352 23.0286C43.1413 21.9597 44.1013 21.2081 45.125 20.593L45.1396 20.5852L45.1523 20.5784C45.3838 20.4517 45.6172 20.3352 45.8496 20.2249C45.4467 20.0746 45.0228 19.9368 44.5957 19.8167C43.4475 19.4937 42.3693 19.3307 41.666 19.386C41.2531 19.4185 40.8909 19.1094 40.8584 18.6965C40.8261 18.2838 41.1351 17.9225 41.5479 17.8899C42.5133 17.8138 43.7929 18.0323 45.002 18.3723C46.2229 18.7157 47.4679 19.2118 48.375 19.7532L48.7051 19.9504L48.7373 20.3333C48.7972 21.0458 48.5835 21.8364 48.3252 22.5881C48.073 23.3222 47.6988 24.2263 47.3984 25.0432C47.1413 25.7943 47.0124 26.2941 46.9746 27.0442C46.9536 27.4577 46.601 27.7759 46.1875 27.7551C45.7739 27.7343 45.4559 27.3826 45.4766 26.969C45.524 26.0284 45.6969 25.3832 45.9795 24.5579L45.9824 24.5491L45.9854 24.5422C46.3311 23.6 46.6493 22.8516 46.9072 22.1008C47.0131 21.7925 47.0947 21.52 47.1514 21.2805C46.7046 21.4788 46.2903 21.6653 45.8887 21.884C44.9872 22.4266 44.1209 23.1005 43.084 24.1018L42.4512 24.717C40.9492 26.1561 39.2767 27.6192 37.6777 29.0432C36.1595 30.3952 34.708 31.7126 33.4912 32.967C35.3491 34.692 37.5117 36.6147 39.5596 38.425C42.5861 41.1006 45.3917 43.5618 46.4883 44.72C46.7729 45.0207 46.7596 45.4948 46.459 45.7795C46.1582 46.0642 45.6842 46.0519 45.3994 45.7512C44.363 44.6566 41.6347 42.2624 38.5654 39.5491C36.5263 37.7465 34.3509 35.8133 32.4717 34.0686C30.3786 36.4436 28.1984 39.5883 25.2559 44.2834C25.2532 44.2885 25.2505 44.2945 25.2471 44.301C25.233 44.3275 25.2119 44.3662 25.1855 44.4153C25.1328 44.5134 25.0572 44.6545 24.9629 44.8254C24.7743 45.1672 24.5107 45.6328 24.2168 46.1252C23.9239 46.616 23.5952 47.1422 23.2734 47.6018C22.9634 48.0446 22.619 48.4853 22.2949 48.7581C21.9781 49.0244 21.5049 48.9839 21.2383 48.6672C20.972 48.3503 21.0133 47.8772 21.3301 47.6106C21.4917 47.4745 21.7395 47.1763 22.0439 46.7415C22.3367 46.3233 22.646 45.8319 22.9297 45.3567C23.2125 44.8828 23.4662 44.4318 23.6494 44.0999C23.7406 43.9347 23.8137 43.7992 23.8643 43.7053C23.8895 43.6584 23.9098 43.6215 23.9229 43.5969C23.9292 43.5849 23.9342 43.5757 23.9375 43.5696C23.9391 43.5666 23.9397 43.5632 23.9404 43.5618L23.9414 43.5608L23.9551 43.5354L23.9707 43.511C26.9419 38.769 29.186 35.5227 31.3789 33.0413C30.8712 32.5585 30.3945 32.0986 29.9629 31.6663C27.7407 29.4405 25.6008 27.4805 23.6377 25.1018L23.6201 25.0803L23.6035 25.0569C22.4373 23.4038 21.3613 21.8933 20.6562 20.7786L20.6416 20.7561L20.6289 20.7317C20.3656 20.2389 20.1834 19.7502 19.9912 19.0042C19.9294 19.4853 19.8665 20.0506 19.8066 20.6565C19.7442 21.288 19.6847 21.9451 19.6289 22.5676C19.5733 23.1886 19.521 23.7784 19.4727 24.2668C19.4318 24.679 19.0645 24.9805 18.6523 24.9397C18.2404 24.8988 17.9389 24.5314 17.9795 24.1194C18.027 23.6395 18.0789 23.058 18.1348 22.4338C18.1905 21.8117 18.2503 21.1482 18.3135 20.509C18.4371 19.2576 18.5814 18.0196 18.748 17.3792L18.8398 17.0276L19.1719 16.8811C19.5635 16.7091 20.0078 16.671 20.4414 16.6965Z" fill="black"/>
<path d="M20.4414 16.6965L20.5297 15.1991L20.5295 15.1991L20.4414 16.6965ZM21.8711 16.9612L22.2785 15.5176L22.2784 15.5175L21.8711 16.9612ZM25.2812 18.3635L24.6027 19.7013L24.6313 19.7158L24.6605 19.7291L25.2812 18.3635ZM25.292 18.3684L25.993 17.0423L25.9535 17.0214L25.9127 17.0029L25.292 18.3684ZM27.3975 19.593L26.5978 20.8621L26.5978 20.8621L27.3975 19.593ZM27.6328 20.6272L28.9016 21.4273L28.9023 21.4262L27.6328 20.6272ZM26.5986 20.8625L25.799 22.1316L25.7996 22.132L26.5986 20.8625ZM24.5908 19.6956L25.2919 18.3695L25.2804 18.3634L25.2688 18.3575L24.5908 19.6956ZM21.4639 18.4045L21.8712 16.9609L21.8712 16.9609L21.4639 18.4045ZM21.3848 18.384L21.7776 16.9364L19.3306 16.2723L19.9268 18.7368L21.3848 18.384ZM21.9375 19.9983L20.6107 20.6979L20.6386 20.7508L20.6706 20.8014L21.9375 19.9983ZM24.8135 24.1702L23.5878 25.0349L23.6209 25.0817L23.6574 25.1259L24.8135 24.1702ZM31.0244 30.6067L29.9629 31.6665L29.9629 31.6665L31.0244 30.6067ZM32.3984 31.9407L31.3646 33.0275L32.4416 34.0521L33.4759 32.9843L32.3984 31.9407ZM36.6807 27.9221L35.6831 26.8019L35.6831 26.8019L36.6807 27.9221ZM42.0293 23.0344L43.0836 24.1015L43.09 24.0951L42.0293 23.0344ZM42.0352 23.0286L40.9928 21.9499L40.9836 21.9588L40.9745 21.9679L42.0352 23.0286ZM45.125 20.593L44.4191 19.2695L44.3853 19.2875L44.3525 19.3072L45.125 20.593ZM45.1396 20.5852L45.8455 21.9087L45.8508 21.9059L45.1396 20.5852ZM45.1523 20.5784L45.8635 21.8991L45.8723 21.8943L45.1523 20.5784ZM45.8496 20.2249L46.4928 21.58L49.6979 20.0587L46.3736 18.8194L45.8496 20.2249ZM44.5957 19.8167L45.0018 18.3727L45.0018 18.3727L44.5957 19.8167ZM41.666 19.386L41.7836 20.8814L41.7837 20.8814L41.666 19.386ZM40.8584 18.6965L39.363 18.8135L39.363 18.8144L40.8584 18.6965ZM41.5479 17.8899L41.4301 16.3945L41.4298 16.3945L41.5479 17.8899ZM45.002 18.3723L45.4081 16.9283L45.4081 16.9283L45.002 18.3723ZM48.375 19.7532L49.1445 18.4656L49.1438 18.4652L48.375 19.7532ZM48.7051 19.9504L50.1998 19.8246L50.1352 19.0577L49.4746 18.6629L48.7051 19.9504ZM48.7373 20.3333L50.232 20.2076L50.232 20.2074L48.7373 20.3333ZM48.3252 22.5881L49.7438 23.0755L49.7438 23.0755L48.3252 22.5881ZM47.3984 25.0432L45.9906 24.5256L45.9848 24.5414L45.9793 24.5573L47.3984 25.0432ZM46.9746 27.0442L48.4727 27.1205L48.4727 27.1197L46.9746 27.0442ZM46.1875 27.7551L46.112 29.2532L46.1121 29.2532L46.1875 27.7551ZM45.4766 26.969L43.9785 26.8935L43.9784 26.8941L45.4766 26.969ZM45.9795 24.5579L47.3987 25.0438L47.4025 25.0322L45.9795 24.5579ZM45.9824 24.5491L44.6037 23.9582L44.5791 24.0155L44.5594 24.0747L45.9824 24.5491ZM45.9854 24.5422L47.3641 25.1331L47.3798 25.0965L47.3935 25.059L45.9854 24.5422ZM46.9072 22.1008L48.3258 22.5882L48.3258 22.5882L46.9072 22.1008ZM47.1514 21.2805L48.611 21.6261L49.3078 18.6826L46.543 19.9094L47.1514 21.2805ZM45.8887 21.884L45.1713 20.5667L45.1429 20.5822L45.1151 20.5989L45.8887 21.884ZM43.084 24.1018L42.042 23.0228L42.0384 23.0263L43.084 24.1018ZM42.4512 24.717L43.4889 25.8002L43.4968 25.7925L42.4512 24.717ZM37.6777 29.0432L36.6802 27.923L36.6802 27.923L37.6777 29.0432ZM33.4912 32.967L32.4145 31.9226L31.347 33.0231L32.4706 34.0663L33.4912 32.967ZM39.5596 38.425L38.5661 39.5489L38.5661 39.5489L39.5596 38.425ZM46.4883 44.72L47.5778 43.689L47.5775 43.6887L46.4883 44.72ZM46.459 45.7795L47.4901 46.869L47.4904 46.8686L46.459 45.7795ZM45.3994 45.7512L44.3101 46.7825L44.3103 46.7826L45.3994 45.7512ZM38.5654 39.5491L37.5719 40.6729L37.5719 40.6729L38.5654 39.5491ZM32.4717 34.0686L33.4923 32.9693L32.3641 31.922L31.3463 33.0768L32.4717 34.0686ZM25.2559 44.2834L23.9848 43.4869L23.9558 43.5333L23.9301 43.5817L25.2559 44.2834ZM25.2471 44.301L26.5713 45.0056L26.5719 45.0045L25.2471 44.301ZM25.1855 44.4153L26.5066 45.1258L26.5066 45.1258L25.1855 44.4153ZM24.9629 44.8254L26.2761 45.5503L26.2761 45.5503L24.9629 44.8254ZM24.2168 46.1252L25.5048 46.894L25.5048 46.894L24.2168 46.1252ZM23.2734 47.6018L24.5022 48.4621L24.5022 48.4621L23.2734 47.6018ZM22.2949 48.7581L23.2602 49.9062L23.2607 49.9058L22.2949 48.7581ZM21.2383 48.6672L20.0899 49.6322L20.091 49.6335L21.2383 48.6672ZM21.3301 47.6106L22.296 48.7582L22.2962 48.758L21.3301 47.6106ZM22.0439 46.7415L23.2727 47.6018L23.2727 47.6017L22.0439 46.7415ZM22.9297 45.3567L24.2177 46.1254L24.2177 46.1254L22.9297 45.3567ZM23.6494 44.0999L24.9626 44.8247L24.9627 44.8247L23.6494 44.0999ZM23.8643 43.7053L25.1853 44.4159L25.1853 44.4159L23.8643 43.7053ZM23.9229 43.5969L25.2471 44.3015L25.2471 44.3015L23.9229 43.5969ZM23.9375 43.5696L25.262 44.2737L25.2632 44.2714L23.9375 43.5696ZM23.9404 43.5618L22.8798 42.5011L22.7107 42.6702L22.6026 42.8835L23.9404 43.5618ZM23.9414 43.5608L25.0021 44.6215L25.1577 44.4658L25.2621 44.2719L23.9414 43.5608ZM23.9551 43.5354L22.6917 42.7268L22.6612 42.7745L22.6344 42.8243L23.9551 43.5354ZM23.9707 43.511L25.2341 44.3196L25.238 44.3135L25.2418 44.3074L23.9707 43.511ZM31.3789 33.0413L32.5029 34.0346L33.4606 32.9508L32.4125 31.9542L31.3789 33.0413ZM29.9629 31.6663L31.0244 30.6064L31.0244 30.6064L29.9629 31.6663ZM23.6377 25.1018L22.4767 26.0517L22.4808 26.0566L23.6377 25.1018ZM23.6201 25.0803L22.3961 25.9473L22.4262 25.9899L22.4592 26.0302L23.6201 25.0803ZM23.6035 25.0569L22.3778 25.9216L22.3795 25.9239L23.6035 25.0569ZM20.6562 20.7786L21.924 19.9768L21.9184 19.9679L21.9127 19.9592L20.6562 20.7786ZM20.6416 20.7561L19.3108 21.4481L19.3448 21.5137L19.3852 21.5755L20.6416 20.7561ZM20.6289 20.7317L21.9597 20.0397L21.9558 20.0322L21.9519 20.0248L20.6289 20.7317ZM19.9912 19.0042L21.4438 18.63L18.5034 18.8131L19.9912 19.0042ZM19.8066 20.6565L18.3139 20.509L18.3139 20.509L19.8066 20.6565ZM19.6289 22.5676L18.1349 22.4338L18.1349 22.4338L19.6289 22.5676ZM19.4727 24.2668L20.9654 24.4147L20.9654 24.4145L19.4727 24.2668ZM18.6523 24.9397L18.5041 26.4324L18.5047 26.4324L18.6523 24.9397ZM17.9795 24.1194L16.4868 23.9717L16.4867 23.9723L17.9795 24.1194ZM18.1348 22.4338L16.6407 22.3L16.6407 22.3L18.1348 22.4338ZM18.3135 20.509L16.8207 20.3615L16.8207 20.3616L18.3135 20.509ZM18.748 17.3792L17.2967 17.0002L17.2964 17.0015L18.748 17.3792ZM18.8398 17.0276L18.2344 15.6552L17.5715 15.9476L17.3885 16.6486L18.8398 17.0276ZM19.1719 16.8811L18.5687 15.5077L18.5664 15.5087L19.1719 16.8811ZM20.4414 16.6965L20.3531 18.1939C20.6505 18.2115 21.0222 18.2802 21.4638 18.4048L21.8711 16.9612L22.2784 15.5175C21.7106 15.3574 21.1141 15.2336 20.5297 15.1991L20.4414 16.6965ZM21.8711 16.9612L21.4637 18.4048C22.3443 18.6533 23.4221 19.1025 24.6027 19.7013L25.2812 18.3635L25.9598 17.0258C24.6858 16.3796 23.4164 15.8387 22.2785 15.5176L21.8711 16.9612ZM25.2812 18.3635L24.6605 19.7291L24.6713 19.734L25.292 18.3684L25.9127 17.0029L25.902 16.998L25.2812 18.3635ZM25.292 18.3684L24.5909 19.6945C25.5577 20.2056 26.0632 20.5253 26.5978 20.8621L27.3975 19.593L28.1971 18.3239C27.6374 17.9713 27.0582 17.6054 25.993 17.0423L25.292 18.3684ZM27.3975 19.593L26.5978 20.8621C26.2487 20.6421 26.142 20.1798 26.3633 19.8282L27.6328 20.6272L28.9023 21.4262C29.5647 20.3738 29.2469 18.9854 28.1971 18.3239L27.3975 19.593ZM27.6328 20.6272L26.364 19.8271C26.5837 19.4787 27.0455 19.3714 27.3976 19.5931L26.5986 20.8625L25.7996 22.132C26.8524 22.7947 28.2403 22.476 28.9016 21.4273L27.6328 20.6272ZM26.5986 20.8625L27.3983 19.5935C26.851 19.2486 26.308 18.9067 25.2919 18.3695L24.5908 19.6956L23.8898 21.0216C24.8092 21.5077 25.2795 21.8043 25.799 22.1316L26.5986 20.8625ZM24.5908 19.6956L25.2688 18.3575C24.0455 17.7377 22.8771 17.2447 21.8712 16.9609L21.4639 18.4045L21.0565 19.8482C21.805 20.0594 22.782 20.4606 23.9128 21.0336L24.5908 19.6956ZM21.4639 18.4045L21.8712 16.9609C21.8345 16.9506 21.8021 16.9425 21.7887 16.9391C21.7795 16.9368 21.7772 16.9362 21.774 16.9354C21.7719 16.9349 21.7737 16.9353 21.7776 16.9364L21.3848 18.384L20.9919 19.8317C21.0088 19.8363 21.0237 19.8401 21.0347 19.8429C21.0446 19.8454 21.0555 19.8481 21.0596 19.8492C21.0726 19.8524 21.0668 19.8511 21.0566 19.8482L21.4639 18.4045ZM21.3848 18.384L19.9268 18.7368C20.1393 19.6149 20.325 20.1562 20.6107 20.6979L21.9375 19.9983L23.2643 19.2986C23.1397 19.0622 23.0251 18.7853 22.8427 18.0313L21.3848 18.384ZM21.9375 19.9983L20.6706 20.8014C21.3724 21.9086 22.4353 23.4014 23.5878 25.0349L24.8135 24.1702L26.0391 23.3054C24.8594 21.6333 23.8554 20.2221 23.2044 19.1952L21.9375 19.9983ZM24.8135 24.1702L23.6574 25.1259C25.6147 27.4936 27.7482 29.4483 29.9629 31.6665L31.0244 30.6067L32.0859 29.5469C29.751 27.2082 27.8074 25.4375 25.9696 23.2144L24.8135 24.1702ZM31.0244 30.6067L29.9629 31.6665C30.3948 32.0991 30.8681 32.5552 31.3646 33.0275L32.3984 31.9407L33.4323 30.8539C32.9426 30.388 32.4908 29.9524 32.0859 29.5469L31.0244 30.6067ZM32.3984 31.9407L33.4759 32.9843C34.7015 31.7189 36.1595 30.3948 37.6782 29.0423L36.6807 27.9221L35.6831 26.8019C34.1636 28.1551 32.6314 29.5442 31.321 30.8971L32.3984 31.9407ZM36.6807 27.9221L37.6782 29.0423C39.5057 27.4149 41.4283 25.7369 43.0836 24.1014L42.0293 23.0344L40.975 21.9674C39.3909 23.5326 37.549 25.1402 35.6831 26.8019L36.6807 27.9221ZM42.0293 23.0344L43.09 24.0951L43.0958 24.0892L42.0352 23.0286L40.9745 21.9679L40.9686 21.9738L42.0293 23.0344ZM42.0352 23.0286L43.0775 24.1073C44.1203 23.0996 44.9911 22.4234 45.8975 21.8788L45.125 20.593L44.3525 19.3072C43.2115 19.9928 42.1623 20.8199 40.9928 21.9499L42.0352 23.0286ZM45.125 20.593L45.8309 21.9165L45.8455 21.9087L45.1396 20.5852L44.4338 19.2617L44.4191 19.2695L45.125 20.593ZM45.1396 20.5852L45.8508 21.9059L45.8635 21.8991L45.1523 20.5784L44.4412 19.2577L44.4285 19.2645L45.1396 20.5852ZM45.1523 20.5784L45.8723 21.8943C46.0718 21.7851 46.2783 21.6818 46.4928 21.58L45.8496 20.2249L45.2064 18.8697C44.9561 18.9885 44.6959 19.1183 44.4324 19.2625L45.1523 20.5784ZM45.8496 20.2249L46.3736 18.8194C45.9304 18.6541 45.467 18.5035 45.0018 18.3727L44.5957 19.8167L44.1896 21.2606C44.5785 21.37 44.9631 21.4952 45.3256 21.6304L45.8496 20.2249ZM44.5957 19.8167L45.0018 18.3727C43.793 18.0327 42.5138 17.8147 41.5484 17.8906L41.666 19.386L41.7837 20.8814C42.2248 20.8467 43.102 20.9547 44.1896 21.2606L44.5957 19.8167ZM41.666 19.386L41.5484 17.8906C41.9605 17.8582 42.3212 18.165 42.3538 18.5787L40.8584 18.6965L39.363 18.8144C39.4607 20.0538 40.5457 20.9787 41.7836 20.8814L41.666 19.386ZM40.8584 18.6965L42.3538 18.5795C42.3862 18.9933 42.0776 19.3527 41.666 19.3852L41.5479 17.8899L41.4298 16.3945C40.1926 16.4923 39.266 17.5743 39.363 18.8135L40.8584 18.6965ZM41.5479 17.8899L41.6656 19.3853C42.3689 19.3299 43.4475 19.4933 44.5958 19.8163L45.002 18.3723L45.4081 16.9283C44.1382 16.5712 42.6576 16.2978 41.4301 16.3945L41.5479 17.8899ZM45.002 18.3723L44.5958 19.8163C45.7316 20.1357 46.8448 20.5867 47.6062 21.0412L48.375 19.7532L49.1438 18.4652C48.091 17.8368 46.7142 17.2957 45.4081 16.9283L45.002 18.3723ZM48.375 19.7532L47.6055 21.0408L47.9356 21.238L48.7051 19.9504L49.4746 18.6629L49.1445 18.4656L48.375 19.7532ZM48.7051 19.9504L47.2104 20.0763L47.2426 20.4591L48.7373 20.3333L50.232 20.2074L50.1998 19.8246L48.7051 19.9504ZM48.7373 20.3333L47.2426 20.4589C47.2741 20.8333 47.1596 21.3642 46.9066 22.1008L48.3252 22.5881L49.7438 23.0755C50.0073 22.3086 50.3204 21.2583 50.232 20.2076L48.7373 20.3333ZM48.3252 22.5881L46.9066 22.1007C46.6523 22.8407 46.3316 23.5981 45.9906 24.5256L47.3984 25.0432L48.8063 25.5608C49.066 24.8544 49.4936 23.8037 49.7438 23.0755L48.3252 22.5881ZM47.3984 25.0432L45.9793 24.5573C45.6964 25.3835 45.5239 26.0289 45.4765 26.9686L46.9746 27.0442L48.4727 27.1197C48.501 26.5592 48.5861 26.2051 48.8175 25.5291L47.3984 25.0432ZM46.9746 27.0442L45.4766 26.9679C45.4977 26.5535 45.8502 26.2363 46.2629 26.257L46.1875 27.7551L46.1121 29.2532C47.3518 29.3156 48.4094 28.3618 48.4727 27.1205L46.9746 27.0442ZM46.1875 27.7551L46.263 26.257C46.6767 26.2779 46.9954 26.6305 46.9747 27.0439L45.4766 26.969L43.9784 26.8941C43.9164 28.1347 44.8711 29.1907 46.112 29.2532L46.1875 27.7551ZM45.4766 26.969L46.9747 27.0445C47.0125 26.2938 47.1416 25.7944 47.3986 25.0438L45.9795 24.5579L44.5604 24.0719C44.2522 24.972 44.0354 25.7631 43.9785 26.8935L45.4766 26.969ZM45.9795 24.5579L47.4025 25.0322L47.4054 25.0234L45.9824 24.5491L44.5594 24.0747L44.5565 24.0835L45.9795 24.5579ZM45.9824 24.5491L47.3611 25.14L47.3641 25.1331L45.9854 24.5422L44.6066 23.9514L44.6037 23.9582L45.9824 24.5491ZM45.9854 24.5422L47.3935 25.059C47.6939 24.2405 48.0725 23.3257 48.3258 22.5882L46.9072 22.1008L45.4886 21.6134C45.2261 22.3775 44.9684 22.9596 44.5772 24.0255L45.9854 24.5422ZM46.9072 22.1008L48.3258 22.5882C48.4422 22.2496 48.5396 21.9277 48.611 21.6261L47.1514 21.2805L45.6917 20.935C45.6497 21.1123 45.5841 21.3355 45.4886 21.6135L46.9072 22.1008ZM47.1514 21.2805L46.543 19.9094C46.099 20.1064 45.633 20.3153 45.1713 20.5667L45.8887 21.884L46.606 23.2014C46.9476 23.0154 47.3102 22.8511 47.7597 22.6516L47.1514 21.2805ZM45.8887 21.884L45.1151 20.5989C44.0966 21.2119 43.1415 21.961 42.042 23.0228L43.084 24.1018L44.126 25.1808C45.1003 24.24 45.8778 23.6413 46.6622 23.1692L45.8887 21.884ZM43.084 24.1018L42.0384 23.0263L41.4056 23.6415L42.4512 24.717L43.4968 25.7925L44.1296 25.1773L43.084 24.1018ZM42.4512 24.717L41.4134 23.6339C39.9371 25.0485 38.2945 26.4853 36.6802 27.923L37.6777 29.0432L38.6753 30.1634C40.259 28.7531 41.9613 27.2638 43.4889 25.8001L42.4512 24.717ZM37.6777 29.0432L36.6802 27.923C35.162 29.275 33.6735 30.6247 32.4145 31.9226L33.4912 32.967L34.5679 34.0114C35.7426 32.8005 37.157 31.5155 38.6753 30.1634L37.6777 29.0432ZM33.4912 32.967L32.4706 34.0663C34.3434 35.8051 36.5183 37.7386 38.5661 39.5489L39.5596 38.425L40.5531 37.3012C38.505 35.4907 36.3549 33.5789 34.5118 31.8678L33.4912 32.967ZM39.5596 38.425L38.5661 39.5489C41.6346 42.2615 44.3624 44.6564 45.3991 45.7513L46.4883 44.72L47.5775 43.6887C46.421 42.4672 43.5376 39.9397 40.5531 37.3012L39.5596 38.425ZM46.4883 44.72L45.3987 45.7509C45.1135 45.4495 45.1276 44.9746 45.4275 44.6904L46.459 45.7795L47.4904 46.8686C48.3917 46.0151 48.4323 44.592 47.5778 43.689L46.4883 44.72ZM46.459 45.7795L45.4279 44.6901C45.7268 44.4072 46.2021 44.4173 46.4886 44.7198L45.3994 45.7512L44.3103 46.7826C45.1663 47.6866 46.5896 47.7212 47.4901 46.869L46.459 45.7795ZM45.3994 45.7512L46.4887 44.72C45.3923 43.5619 42.5854 41.1007 39.5589 38.4253L38.5654 39.5491L37.5719 40.6729C40.684 43.424 43.3338 45.7512 44.3101 46.7825L45.3994 45.7512ZM38.5654 39.5491L39.5589 38.4253C37.5195 36.6223 35.3566 34.7001 33.4923 32.9693L32.4717 34.0686L31.4511 35.1679C33.3453 36.9264 35.5332 38.8706 37.5719 40.6729L38.5654 39.5491ZM32.4717 34.0686L31.3463 33.0768C29.1686 35.5479 26.9354 38.779 23.9848 43.4869L25.2559 44.2834L26.5269 45.08C29.4615 40.3976 31.5886 37.3393 33.597 35.0604L32.4717 34.0686ZM25.2559 44.2834L23.9301 43.5817C23.9251 43.5913 23.9207 43.5997 23.9173 43.6065C23.9138 43.6133 23.9109 43.6192 23.9088 43.6235C23.9067 43.6278 23.9049 43.6313 23.904 43.6333C23.9034 43.6344 23.903 43.6353 23.9027 43.6358C23.9023 43.6367 23.9025 43.6364 23.9023 43.6368C23.9019 43.6377 23.9041 43.633 23.9072 43.6268C23.9105 43.6202 23.9156 43.61 23.9222 43.5976L25.2471 44.301L26.5719 45.0045C26.5802 44.9888 26.587 44.9754 26.5919 44.9656C26.5965 44.9564 26.6002 44.9487 26.6013 44.9466C26.6022 44.9446 26.6017 44.9455 26.6017 44.9457C26.6014 44.9463 26.6004 44.9484 26.5989 44.9513C26.5975 44.9542 26.5953 44.9587 26.5925 44.9642C26.5897 44.9697 26.586 44.9769 26.5816 44.9852L25.2559 44.2834ZM25.2471 44.301L23.9228 43.5965C23.9104 43.6198 23.8963 43.6457 23.8645 43.7047L25.1855 44.4153L26.5066 45.1258C26.5276 45.0868 26.5556 45.0352 26.5713 45.0056L25.2471 44.301ZM25.1855 44.4153L23.8645 43.7047C23.8106 43.805 23.7393 43.9383 23.6497 44.1006L24.9629 44.8254L26.2761 45.5503C26.3752 45.3707 26.4549 45.2218 26.5066 45.1258L25.1855 44.4153ZM24.9629 44.8254L23.6497 44.1006C23.4674 44.4307 23.2124 44.8813 22.9288 45.3565L24.2168 46.1252L25.5048 46.894C25.8091 46.3843 26.0811 45.9036 26.2761 45.5503L24.9629 44.8254ZM24.2168 46.1252L22.9288 45.3565C22.6446 45.8325 22.3369 46.3241 22.0446 46.7415L23.2734 47.6018L24.5022 48.4621C24.8535 47.9603 25.2031 47.3995 25.5048 46.894L24.2168 46.1252ZM23.2734 47.6018L22.0447 46.7415C21.7418 47.1741 21.4918 47.4735 21.3291 47.6103L22.2949 48.7581L23.2607 49.9058C23.7463 49.4972 24.185 48.9151 24.5022 48.4621L23.2734 47.6018ZM22.2949 48.7581L21.3297 47.6099C21.6461 47.3439 22.1185 47.3839 22.3856 47.701L21.2383 48.6672L20.091 49.6335C20.8913 50.5838 22.3101 50.705 23.2602 49.9062L22.2949 48.7581ZM21.2383 48.6672L22.3867 47.7022C22.6542 48.0206 22.6113 48.4928 22.296 48.7582L21.3301 47.6106L20.3642 46.463C19.4154 47.2615 19.2898 48.68 20.0899 49.6322L21.2383 48.6672ZM21.3301 47.6106L22.2962 48.758C22.6216 48.4841 22.9654 48.0407 23.2727 47.6018L22.0439 46.7415L20.8152 45.8811C20.6787 46.076 20.5646 46.2264 20.4757 46.3343C20.3771 46.454 20.3421 46.4816 20.364 46.4632L21.3301 47.6106ZM22.0439 46.7415L23.2727 47.6017C23.5939 47.1431 23.9237 46.6181 24.2177 46.1254L22.9297 45.3567L21.6417 44.5879C21.3684 45.0457 21.0796 45.5035 20.8152 45.8812L22.0439 46.7415ZM22.9297 45.3567L24.2177 46.1254C24.5121 45.6321 24.7747 45.1653 24.9626 44.8247L23.6494 44.0999L22.3362 43.375C22.1578 43.6982 21.9129 44.1335 21.6417 44.5879L22.9297 45.3567ZM23.6494 44.0999L24.9627 44.8247C25.0574 44.653 25.1334 44.5124 25.1853 44.4159L23.8643 43.7053L22.5432 42.9948C22.4941 43.0861 22.4237 43.2164 22.3362 43.375L23.6494 44.0999ZM23.8643 43.7053L25.1853 44.4159C25.198 44.3923 25.235 44.3242 25.2471 44.3015L23.9229 43.5969L22.5986 42.8923C22.5846 42.9188 22.581 42.9245 22.5432 42.9948L23.8643 43.7053ZM23.9229 43.5969L25.2471 44.3015C25.2487 44.2984 25.2504 44.2954 25.2525 44.2913C25.2534 44.2897 25.255 44.2867 25.2563 44.2843C25.2577 44.2818 25.2597 44.2779 25.262 44.2737L23.9375 43.5696L22.613 42.8655C22.6136 42.8643 22.6139 42.8639 22.6132 42.8652C22.6124 42.8666 22.6117 42.8678 22.6102 42.8708C22.6074 42.8759 22.6033 42.8835 22.5986 42.8924L23.9229 43.5969ZM23.9375 43.5696L25.2632 44.2714C25.2813 44.2372 25.2963 44.2058 25.3086 44.1781C25.3209 44.1505 25.3309 44.1256 25.339 44.1045C25.3471 44.0834 25.3536 44.0651 25.3585 44.0507C25.3634 44.0364 25.3671 44.0248 25.3693 44.0178C25.3705 44.0143 25.3713 44.0114 25.3718 44.01C25.3719 44.0096 25.3728 44.0067 25.3722 44.0087C25.372 44.0092 25.3713 44.0117 25.3702 44.0149C25.3692 44.0182 25.3675 44.0236 25.3653 44.0302C25.3632 44.0367 25.3602 44.0457 25.3565 44.0564C25.3528 44.0671 25.3478 44.0808 25.3417 44.0968C25.3357 44.1127 25.3277 44.1328 25.3178 44.1559C25.3079 44.1787 25.2948 44.2075 25.2783 44.2401L23.9404 43.5618L22.6026 42.8835C22.5859 42.9163 22.5728 42.9452 22.5628 42.9683C22.5528 42.9915 22.5447 43.0118 22.5386 43.028C22.5324 43.0442 22.5274 43.0582 22.5236 43.0691C22.5198 43.0801 22.5167 43.0894 22.5144 43.0962C22.5122 43.1031 22.5104 43.1087 22.5092 43.1123C22.5081 43.1159 22.5073 43.1187 22.507 43.1195C22.5069 43.1199 22.5067 43.1204 22.5068 43.1202C22.5068 43.1202 22.5069 43.1198 22.5071 43.1192C22.5074 43.1181 22.5082 43.1156 22.5092 43.1124C22.5112 43.1061 22.5147 43.0952 22.5193 43.0816C22.524 43.068 22.5302 43.0504 22.538 43.0301C22.5458 43.0098 22.5556 42.9856 22.5675 42.9588C22.5795 42.9319 22.5941 42.9012 22.6118 42.8678L23.9375 43.5696ZM23.9404 43.5618L25.0011 44.6224L25.0021 44.6215L23.9414 43.5608L22.8807 42.5001L22.8798 42.5011L23.9404 43.5618ZM23.9414 43.5608L25.2621 44.2719L25.2758 44.2466L23.9551 43.5354L22.6344 42.8243L22.6207 42.8496L23.9414 43.5608ZM23.9551 43.5354L25.2185 44.344L25.2341 44.3196L23.9707 43.511L22.7073 42.7024L22.6917 42.7268L23.9551 43.5354ZM23.9707 43.511L25.2418 44.3074C28.2051 39.5781 30.3956 36.4191 32.5029 34.0346L31.3789 33.0413L30.2549 32.048C27.9764 34.6263 25.6787 37.9599 22.6996 42.7146L23.9707 43.511ZM31.3789 33.0413L32.4125 31.9542C31.9088 31.4753 31.4428 31.0255 31.0244 30.6064L29.9629 31.6663L28.9014 32.7261C29.3463 33.1717 29.8336 33.6417 30.3453 34.1283L31.3789 33.0413ZM29.9629 31.6663L31.0244 30.6064C28.7428 28.3212 26.6975 26.4528 24.7946 24.147L23.6377 25.1018L22.4808 26.0566C24.5041 28.5082 26.7386 30.5598 28.9014 32.7261L29.9629 31.6663ZM23.6377 25.1018L24.7986 24.1519L24.7811 24.1305L23.6201 25.0803L22.4592 26.0302L22.4768 26.0517L23.6377 25.1018ZM23.6201 25.0803L24.8442 24.2133L24.8276 24.1899L23.6035 25.0569L22.3795 25.9239L22.3961 25.9473L23.6201 25.0803ZM23.6035 25.0569L24.8292 24.1922C23.649 22.5193 22.6031 21.0505 21.924 19.9768L20.6562 20.7786L19.3885 21.5804C20.1195 22.7361 21.2257 24.2884 22.3778 25.9216L23.6035 25.0569ZM20.6562 20.7786L21.9127 19.9592L21.898 19.9367L20.6416 20.7561L19.3852 21.5755L19.3998 21.598L20.6562 20.7786ZM20.6416 20.7561L21.9724 20.0641L21.9597 20.0397L20.6289 20.7317L19.2981 21.4237L19.3108 21.4481L20.6416 20.7561ZM20.6289 20.7317L21.9519 20.0248C21.7599 19.6656 21.6154 19.296 21.4438 18.63L19.9912 19.0042L18.5386 19.3783C18.7514 20.2043 18.9713 20.8123 19.3059 21.4386L20.6289 20.7317ZM19.9912 19.0042L18.5034 18.8131C18.4393 19.3124 18.3748 19.8926 18.3139 20.509L19.8066 20.6565L21.2994 20.804C21.3582 20.2085 21.4195 19.6583 21.479 19.1952L19.9912 19.0042ZM19.8066 20.6565L18.3139 20.509C18.2508 21.1479 18.1907 21.8109 18.1349 22.4338L19.6289 22.5676L21.1229 22.7015C21.1787 22.0792 21.2377 21.4281 21.2994 20.804L19.8066 20.6565ZM19.6289 22.5676L18.1349 22.4338C18.0789 23.0585 18.0274 23.6394 17.9799 24.1192L19.4727 24.2668L20.9654 24.4145C21.0146 23.9173 21.0676 23.3188 21.1229 22.7015L19.6289 22.5676ZM19.4727 24.2668L17.98 24.119C18.0207 23.7077 18.387 23.4061 18.8 23.447L18.6523 24.9397L18.5047 26.4324C19.7421 26.5548 20.843 25.6503 20.9654 24.4147L19.4727 24.2668ZM18.6523 24.9397L18.8006 23.447C19.2119 23.4879 19.5129 23.8538 19.4723 24.2664L17.9795 24.1194L16.4867 23.9723C16.3649 25.2089 17.2689 26.3096 18.5041 26.4324L18.6523 24.9397ZM17.9795 24.1194L19.4722 24.2671C19.5205 23.7786 19.5731 23.189 19.6288 22.5677L18.1348 22.4338L16.6407 22.3C16.5846 22.927 16.5334 23.5004 16.4868 23.9717L17.9795 24.1194ZM18.1348 22.4338L19.6288 22.5677C19.6845 21.9452 19.7438 21.2881 19.8062 20.6565L18.3135 20.509L16.8207 20.3616C16.7568 21.0084 16.6964 21.6782 16.6407 22.3L18.1348 22.4338ZM18.3135 20.509L19.8062 20.6565C19.9335 19.3679 20.0689 18.2598 20.1997 17.7568L18.748 17.3792L17.2964 17.0015C17.094 17.7795 16.9407 19.1473 16.8207 20.3615L18.3135 20.509ZM18.748 17.3792L20.1994 17.7581L20.2912 17.4065L18.8398 17.0276L17.3885 16.6486L17.2967 17.0002L18.748 17.3792ZM18.8398 17.0276L19.4453 18.4L19.7773 18.2535L19.1719 16.8811L18.5664 15.5087L18.2344 15.6552L18.8398 17.0276ZM19.1719 16.8811L19.7751 18.2545C19.8674 18.2139 20.0475 18.176 20.3533 18.1939L20.4414 16.6965L20.5295 15.1991C19.9681 15.1661 19.2595 15.2043 18.5687 15.5077L19.1719 16.8811Z" fill="white" mask="url(#path-1-outside-1_34_137)"/>
</svg>
