<svg width="64" height="64" viewBox="0 0 64 64" fill="none" xmlns="http://www.w3.org/2000/svg">
<mask id="path-1-outside-1_34_142" maskUnits="userSpaceOnUse" x="16.9072" y="11.6848" width="29" height="42" fill="black">
<rect fill="white" x="16.9072" y="11.6848" width="29" height="42"/>
<path d="M23.1123 13.7151C23.5883 13.6366 24.0715 13.7207 24.5059 13.8596C24.949 14.0014 25.4108 14.2227 25.874 14.4915C26.8004 15.0289 27.8272 15.8117 28.8682 16.7249L28.875 16.7307L28.8809 16.7366C29.7387 17.5151 30.1844 17.9865 30.6309 18.4583C31.0102 18.8593 30.9926 19.4918 30.5918 19.8713C30.1907 20.2506 29.5582 20.2332 29.1787 19.8323C28.7495 19.3787 28.3445 18.9515 27.5488 18.2288C26.6853 17.4713 25.8766 16.8483 25.1719 16.4045C25.1806 16.9508 25.2238 17.2801 25.2998 17.6008C25.6874 18.7914 26.3209 20.4388 27.0381 22.3225C28.2997 25.0002 29.8017 27.2898 31.4463 30.0715C31.4982 30.1593 31.5526 30.2472 31.6064 30.3372C32.2855 29.0686 33.0531 27.7544 33.8301 26.4417C35.0918 24.3101 36.3807 22.1806 37.4336 20.1711L37.4395 20.1604C38.1755 18.793 38.8722 17.769 39.6758 16.8547L39.6885 16.8391L39.7031 16.8235C39.749 16.7753 39.7974 16.7289 39.8438 16.6819C39.608 16.6795 39.3689 16.6824 39.1309 16.6907C37.9492 16.7316 36.9065 16.9017 36.2939 17.1516C35.7827 17.36 35.1999 17.1149 34.9912 16.6038C34.7826 16.0925 35.0279 15.5098 35.5391 15.301C36.4763 14.9186 37.7967 14.7345 39.0625 14.6907C40.3443 14.6464 41.7036 14.7401 42.7598 14.9866L43.2598 15.1038L43.457 15.5784C43.7522 16.2911 43.7862 17.1555 43.7686 17.9524C43.7514 18.7245 43.669 19.7258 43.6318 20.5735C43.6153 21.3543 43.6423 21.8446 43.8262 22.5403C43.967 23.074 43.6488 23.6207 43.1152 23.762C42.5816 23.9028 42.0338 23.5846 41.8926 23.051C41.6438 22.1099 41.6122 21.4167 41.6309 20.5315L41.6318 20.5208L41.6328 20.509C41.6768 19.4851 41.7509 18.7041 41.7686 17.9084C41.7709 17.802 41.7699 17.7007 41.7695 17.6047C41.559 17.7977 41.3582 17.9862 41.167 18.1858C40.4898 18.9582 39.881 19.8461 39.2061 21.0989L38.7881 21.8792C37.791 23.713 36.6395 25.6209 35.5508 27.4602C34.5449 29.1596 33.5939 30.8016 32.832 32.3186C34.2812 34.5986 36.0729 37.2537 37.7656 39.7483C40.0289 43.0837 42.1468 46.1796 42.9287 47.5862C43.1966 48.0688 43.0226 48.6773 42.54 48.9456C42.0574 49.2134 41.4489 49.0394 41.1807 48.5569C40.4552 47.252 38.4168 44.2698 36.1113 40.8723C34.6855 38.7711 33.1691 36.5274 31.8428 34.4807C30.6955 37.2505 29.6464 40.7328 28.377 45.6819C28.3764 45.6851 28.3766 45.6891 28.376 45.6926C28.3705 45.7224 28.3618 45.7657 28.3516 45.8206C28.3309 45.9309 28.3008 46.089 28.2627 46.2815C28.1865 46.6662 28.0765 47.1922 27.9453 47.7542C27.8147 48.3138 27.6597 48.9212 27.4902 49.4651C27.329 49.9825 27.1285 50.5347 26.8838 50.9231C26.5893 51.3902 25.9711 51.531 25.5039 51.2366C25.0369 50.942 24.8969 50.3238 25.1914 49.8567C25.2852 49.7079 25.4236 49.3765 25.5811 48.8713C25.7304 48.392 25.8739 47.8352 25.999 47.2991C26.1236 46.7654 26.2275 46.2627 26.3008 45.8928C26.3373 45.7083 26.3663 45.5575 26.3857 45.4534C26.3955 45.4013 26.4023 45.3603 26.4072 45.3333C26.4097 45.3199 26.4129 45.3096 26.4141 45.303C26.4145 45.2999 26.4138 45.2966 26.4141 45.2952L26.415 45.2942L26.4209 45.2581L26.4307 45.2209C27.876 39.583 29.067 35.7079 30.4805 32.5959C30.5032 32.5459 30.5276 32.4959 30.5508 32.4456C30.256 31.9711 29.978 31.5177 29.7246 31.0891C28.1311 28.3937 26.5323 25.9457 25.2139 23.1399L25.1982 23.1057L25.1836 23.0706C24.4655 21.1841 23.7957 19.4462 23.3867 18.1838L23.375 18.1477L23.3672 18.1125C23.3099 17.8784 23.2666 17.6482 23.2354 17.4045C23.1804 17.553 23.1232 17.7056 23.0664 17.8616C22.8498 18.4566 22.6294 19.0779 22.4209 19.6672C22.2132 20.2544 22.0152 20.8141 21.8467 21.2766C21.6576 21.7954 21.0843 22.0631 20.5654 21.8743C20.0467 21.6851 19.7788 21.1109 19.9678 20.592C20.1323 20.1404 20.3261 19.5922 20.5352 19.0012C20.7435 18.4123 20.9673 17.7829 21.1875 17.178C21.562 16.1494 21.9557 15.1136 22.2705 14.469L22.4004 14.218L22.6338 13.7942L23.1123 13.7151Z"/>
</mask>
<path d="M23.1123 13.7151C23.5883 13.6366 24.0715 13.7207 24.5059 13.8596C24.949 14.0014 25.4108 14.2227 25.874 14.4915C26.8004 15.0289 27.8272 15.8117 28.8682 16.7249L28.875 16.7307L28.8809 16.7366C29.7387 17.5151 30.1844 17.9865 30.6309 18.4583C31.0102 18.8593 30.9926 19.4918 30.5918 19.8713C30.1907 20.2506 29.5582 20.2332 29.1787 19.8323C28.7495 19.3787 28.3445 18.9515 27.5488 18.2288C26.6853 17.4713 25.8766 16.8483 25.1719 16.4045C25.1806 16.9508 25.2238 17.2801 25.2998 17.6008C25.6874 18.7914 26.3209 20.4388 27.0381 22.3225C28.2997 25.0002 29.8017 27.2898 31.4463 30.0715C31.4982 30.1593 31.5526 30.2472 31.6064 30.3372C32.2855 29.0686 33.0531 27.7544 33.8301 26.4417C35.0918 24.3101 36.3807 22.1806 37.4336 20.1711L37.4395 20.1604C38.1755 18.793 38.8722 17.769 39.6758 16.8547L39.6885 16.8391L39.7031 16.8235C39.749 16.7753 39.7974 16.7289 39.8438 16.6819C39.608 16.6795 39.3689 16.6824 39.1309 16.6907C37.9492 16.7316 36.9065 16.9017 36.2939 17.1516C35.7827 17.36 35.1999 17.1149 34.9912 16.6038C34.7826 16.0925 35.0279 15.5098 35.5391 15.301C36.4763 14.9186 37.7967 14.7345 39.0625 14.6907C40.3443 14.6464 41.7036 14.7401 42.7598 14.9866L43.2598 15.1038L43.457 15.5784C43.7522 16.2911 43.7862 17.1555 43.7686 17.9524C43.7514 18.7245 43.669 19.7258 43.6318 20.5735C43.6153 21.3543 43.6423 21.8446 43.8262 22.5403C43.967 23.074 43.6488 23.6207 43.1152 23.762C42.5816 23.9028 42.0338 23.5846 41.8926 23.051C41.6438 22.1099 41.6122 21.4167 41.6309 20.5315L41.6318 20.5208L41.6328 20.509C41.6768 19.4851 41.7509 18.7041 41.7686 17.9084C41.7709 17.802 41.7699 17.7007 41.7695 17.6047C41.559 17.7977 41.3582 17.9862 41.167 18.1858C40.4898 18.9582 39.881 19.8461 39.2061 21.0989L38.7881 21.8792C37.791 23.713 36.6395 25.6209 35.5508 27.4602C34.5449 29.1596 33.5939 30.8016 32.832 32.3186C34.2812 34.5986 36.0729 37.2537 37.7656 39.7483C40.0289 43.0837 42.1468 46.1796 42.9287 47.5862C43.1966 48.0688 43.0226 48.6773 42.54 48.9456C42.0574 49.2134 41.4489 49.0394 41.1807 48.5569C40.4552 47.252 38.4168 44.2698 36.1113 40.8723C34.6855 38.7711 33.1691 36.5274 31.8428 34.4807C30.6955 37.2505 29.6464 40.7328 28.377 45.6819C28.3764 45.6851 28.3766 45.6891 28.376 45.6926C28.3705 45.7224 28.3618 45.7657 28.3516 45.8206C28.3309 45.9309 28.3008 46.089 28.2627 46.2815C28.1865 46.6662 28.0765 47.1922 27.9453 47.7542C27.8147 48.3138 27.6597 48.9212 27.4902 49.4651C27.329 49.9825 27.1285 50.5347 26.8838 50.9231C26.5893 51.3902 25.9711 51.531 25.5039 51.2366C25.0369 50.942 24.8969 50.3238 25.1914 49.8567C25.2852 49.7079 25.4236 49.3765 25.5811 48.8713C25.7304 48.392 25.8739 47.8352 25.999 47.2991C26.1236 46.7654 26.2275 46.2627 26.3008 45.8928C26.3373 45.7083 26.3663 45.5575 26.3857 45.4534C26.3955 45.4013 26.4023 45.3603 26.4072 45.3333C26.4097 45.3199 26.4129 45.3096 26.4141 45.303C26.4145 45.2999 26.4138 45.2966 26.4141 45.2952L26.415 45.2942L26.4209 45.2581L26.4307 45.2209C27.876 39.583 29.067 35.7079 30.4805 32.5959C30.5032 32.5459 30.5276 32.4959 30.5508 32.4456C30.256 31.9711 29.978 31.5177 29.7246 31.0891C28.1311 28.3937 26.5323 25.9457 25.2139 23.1399L25.1982 23.1057L25.1836 23.0706C24.4655 21.1841 23.7957 19.4462 23.3867 18.1838L23.375 18.1477L23.3672 18.1125C23.3099 17.8784 23.2666 17.6482 23.2354 17.4045C23.1804 17.553 23.1232 17.7056 23.0664 17.8616C22.8498 18.4566 22.6294 19.0779 22.4209 19.6672C22.2132 20.2544 22.0152 20.8141 21.8467 21.2766C21.6576 21.7954 21.0843 22.0631 20.5654 21.8743C20.0467 21.6851 19.7788 21.1109 19.9678 20.592C20.1323 20.1404 20.3261 19.5922 20.5352 19.0012C20.7435 18.4123 20.9673 17.7829 21.1875 17.178C21.562 16.1494 21.9557 15.1136 22.2705 14.469L22.4004 14.218L22.6338 13.7942L23.1123 13.7151Z" fill="black"/>
<path d="M23.1123 13.7151L22.7871 11.7417L22.7861 11.7419L23.1123 13.7151ZM24.5059 13.8596L25.1154 11.9548L25.1151 11.9547L24.5059 13.8596ZM25.874 14.4915L26.8776 12.7615L26.8776 12.7615L25.874 14.4915ZM28.8682 16.7249L27.5493 18.2284L27.5579 18.2359L27.5666 18.2434L28.8682 16.7249ZM28.875 16.7307L30.2892 15.3165L30.2349 15.2622L30.1766 15.2122L28.875 16.7307ZM28.8809 16.7366L27.4666 18.1508L27.5009 18.185L27.5367 18.2176L28.8809 16.7366ZM30.6309 18.4583L32.0839 17.0839L32.0835 17.0835L30.6309 18.4583ZM30.5918 19.8713L31.9658 21.3247L31.9671 21.3234L30.5918 19.8713ZM29.1787 19.8323L27.7261 21.207L27.7262 21.2071L29.1787 19.8323ZM27.5488 18.2288L28.8936 16.7483L28.8808 16.7367L28.8677 16.7252L27.5488 18.2288ZM25.1719 16.4045L26.2375 14.7121L23.1134 12.745L23.1721 16.4363L25.1719 16.4045ZM25.2998 17.6008L23.3538 18.0623L23.3727 18.142L23.398 18.2199L25.2998 17.6008ZM27.0381 22.3225L25.169 23.0341L25.1962 23.1057L25.2289 23.175L27.0381 22.3225ZM31.4463 30.0715L29.7247 31.0894L29.7247 31.0894L31.4463 30.0715ZM31.6064 30.3372L29.8904 31.3643L31.7036 34.3937L33.3697 31.281L31.6064 30.3372ZM33.8301 26.4417L32.109 25.4229L32.109 25.4229L33.8301 26.4417ZM37.4336 20.1711L35.6778 19.2134L35.6698 19.2281L35.6621 19.2429L37.4336 20.1711ZM37.4395 20.1604L39.1953 21.1181L39.2005 21.1083L37.4395 20.1604ZM39.6758 16.8547L41.178 18.1751L41.2036 18.146L41.228 18.1159L39.6758 16.8547ZM39.6885 16.8391L38.2294 15.4712L38.1809 15.5229L38.1362 15.5779L39.6885 16.8391ZM39.7031 16.8235L38.2556 15.4434L38.2498 15.4495L38.2441 15.4556L39.7031 16.8235ZM39.8438 16.6819L41.2677 18.0863L44.5773 14.7305L39.8643 14.682L39.8438 16.6819ZM39.1309 16.6907L39.0617 14.6919L39.0616 14.6919L39.1309 16.6907ZM36.2939 17.1516L37.049 19.0036L37.0496 19.0034L36.2939 17.1516ZM34.9912 16.6038L33.1394 17.3593L33.1395 17.3596L34.9912 16.6038ZM35.5391 15.301L34.7835 13.4492L34.7829 13.4495L35.5391 15.301ZM39.0625 14.6907L38.9934 12.6919L38.9933 12.6919L39.0625 14.6907ZM42.7598 14.9866L43.2161 13.0393L43.2143 13.0389L42.7598 14.9866ZM43.2598 15.1038L45.1066 14.3361L44.7135 13.3903L43.7161 13.1565L43.2598 15.1038ZM43.457 15.5784L45.3049 14.8132L45.3039 14.8108L43.457 15.5784ZM43.7686 17.9524L45.7681 17.9967L45.7681 17.9966L43.7686 17.9524ZM43.6318 20.5735L41.6338 20.486L41.6328 20.5086L41.6323 20.5312L43.6318 20.5735ZM43.8262 22.5403L45.76 22.0299L45.7597 22.0291L43.8262 22.5403ZM43.1152 23.762L43.6255 25.6958L43.6271 25.6953L43.1152 23.762ZM41.8926 23.051L39.959 23.5621L39.9592 23.5629L41.8926 23.051ZM41.6309 20.5315L39.6391 20.3504L39.6328 20.4197L39.6313 20.4893L41.6309 20.5315ZM41.6318 20.5208L43.6236 20.7018L43.6243 20.6943L43.6249 20.6868L41.6318 20.5208ZM41.6328 20.509L43.6259 20.6751L43.6292 20.6351L43.631 20.5949L41.6328 20.509ZM41.7686 17.9084L43.7681 17.9528L43.7681 17.9527L41.7686 17.9084ZM41.7695 17.6047L43.7695 17.5972L43.7524 13.0737L40.418 16.1305L41.7695 17.6047ZM41.167 18.1858L39.7228 16.8022L39.6922 16.8341L39.6631 16.8673L41.167 18.1858ZM39.2061 21.0989L37.4453 20.1502L37.4431 20.1545L39.2061 21.0989ZM38.7881 21.8792L40.5452 22.8345L40.5511 22.8235L38.7881 21.8792ZM35.5508 27.4602L33.8297 26.4415L33.8297 26.4415L35.5508 27.4602ZM32.832 32.3186L31.0448 31.4209L30.5358 32.4344L31.1441 33.3915L32.832 32.3186ZM37.7656 39.7483L36.1107 40.8713L36.1107 40.8713L37.7656 39.7483ZM42.9287 47.5862L44.6774 46.6156L44.6768 46.6144L42.9287 47.5862ZM42.54 48.9456L43.5107 50.6942L43.5118 50.6936L42.54 48.9456ZM41.1807 48.5569L42.9287 47.5851L42.9287 47.5851L41.1807 48.5569ZM36.1113 40.8723L34.4564 41.9953L34.4564 41.9953L36.1113 40.8723ZM31.8428 34.4807L33.5211 33.393L31.4514 30.1993L29.995 33.7153L31.8428 34.4807ZM28.377 45.6819L26.4397 45.185L26.4214 45.2563L26.4084 45.3287L28.377 45.6819ZM28.376 45.6926L30.3436 46.0513L30.3436 46.0511L28.376 45.6926ZM28.3516 45.8206L26.3856 45.4532L26.3856 45.4532L28.3516 45.8206ZM28.2627 46.2815L30.2246 46.6702L30.2246 46.6701L28.2627 46.2815ZM27.9453 47.7542L29.893 48.2088L29.893 48.2088L27.9453 47.7542ZM27.4902 49.4651L29.3997 50.06L29.3997 50.06L27.4902 49.4651ZM26.8838 50.9231L28.5757 51.9897L28.5759 51.9893L26.8838 50.9231ZM25.5039 51.2366L24.4369 52.9282L24.4376 52.9286L25.5039 51.2366ZM25.1914 49.8567L26.8833 50.9233L26.8835 50.9229L25.1914 49.8567ZM25.5811 48.8713L27.4905 49.4664L27.4905 49.4663L25.5811 48.8713ZM25.999 47.2991L27.9467 47.7537L27.9467 47.7537L25.999 47.2991ZM26.3008 45.8928L24.3389 45.5042L24.3389 45.5042L26.3008 45.8928ZM26.3857 45.4534L28.3517 45.8207L28.3517 45.8206L26.3857 45.4534ZM26.4072 45.3333L24.4398 44.974L24.4396 44.9748L26.4072 45.3333ZM26.4141 45.303L28.3824 45.6574L28.3868 45.633L28.3906 45.6085L26.4141 45.303ZM26.4141 45.2952L24.9998 43.881L24.5562 44.3246L24.4455 44.9422L26.4141 45.2952ZM26.415 45.2942L27.8293 46.7084L28.2859 46.2518L28.3893 45.6143L26.415 45.2942ZM26.4209 45.2581L24.4867 44.7491L24.4622 44.8425L24.4467 44.9379L26.4209 45.2581ZM26.4307 45.2209L28.3649 45.7299L28.368 45.7176L26.4307 45.2209ZM30.4805 32.5959L28.6595 31.7688L28.6595 31.7688L30.4805 32.5959ZM30.5508 32.4456L32.3669 33.2832L32.8181 32.3051L32.2496 31.3901L30.5508 32.4456ZM29.7246 31.0891L28.003 32.1069L28.003 32.1069L29.7246 31.0891ZM25.2139 23.1399L23.3949 23.9714L23.3993 23.981L23.4038 23.9905L25.2139 23.1399ZM25.1982 23.1057L23.3521 23.8749L23.3652 23.9063L23.3793 23.9372L25.1982 23.1057ZM25.1836 23.0706L23.3144 23.7821L23.3255 23.8111L23.3374 23.8398L25.1836 23.0706ZM23.3867 18.1838L25.2894 17.5674L25.2892 17.5668L23.3867 18.1838ZM23.375 18.1477L21.4226 18.5816L21.4432 18.6743L21.4726 18.7647L23.375 18.1477ZM23.3672 18.1125L25.3196 17.6787L25.3149 17.6578L25.3098 17.637L23.3672 18.1125ZM23.2354 17.4045L25.2191 17.1502L21.3599 16.7099L23.2354 17.4045ZM23.0664 17.8616L21.1871 17.1773L21.1871 17.1774L23.0664 17.8616ZM22.4209 19.6672L20.5354 19.0002L20.5354 19.0002L22.4209 19.6672ZM21.8467 21.2766L23.7258 21.9614L23.7259 21.9611L21.8467 21.2766ZM20.5654 21.8743L19.8803 23.7532L19.8813 23.7536L20.5654 21.8743ZM19.9678 20.592L21.847 21.2765L21.847 21.2765L19.9678 20.592ZM20.5352 19.0012L18.6497 18.3342L18.6497 18.3342L20.5352 19.0012ZM21.1875 17.178L19.3082 16.4938L19.3082 16.4938L21.1875 17.178ZM22.2705 14.469L20.4943 13.5498L20.4836 13.5704L20.4734 13.5913L22.2705 14.469ZM22.4004 14.218L20.6485 13.2533L20.636 13.2759L20.6241 13.2988L22.4004 14.218ZM22.6338 13.7942L22.3076 11.821L21.35 11.9793L20.8819 12.8294L22.6338 13.7942ZM23.1123 13.7151L23.4375 15.6885C23.4555 15.6855 23.5011 15.6812 23.5829 15.6912C23.6657 15.7012 23.77 15.7241 23.8966 15.7646L24.5059 13.8596L25.1151 11.9547C24.5171 11.7634 23.6927 11.5925 22.7871 11.7417L23.1123 13.7151ZM24.5059 13.8596L23.8964 15.7645C24.1589 15.8485 24.4851 15.9979 24.8704 16.2214L25.874 14.4915L26.8776 12.7615C26.3365 12.4476 25.7392 12.1544 25.1154 11.9548L24.5059 13.8596ZM25.874 14.4915L24.8704 16.2214C25.6418 16.6689 26.5597 17.3603 27.5493 18.2284L28.8682 16.7249L30.187 15.2213C29.0947 14.2631 27.9591 13.3889 26.8776 12.7615L25.874 14.4915ZM28.8682 16.7249L27.5666 18.2434L27.5734 18.2492L28.875 16.7307L30.1766 15.2122L30.1697 15.2063L28.8682 16.7249ZM28.875 16.7307L27.4608 18.1449L27.4666 18.1508L28.8809 16.7366L30.2951 15.3224L30.2892 15.3165L28.875 16.7307ZM28.8809 16.7366L27.5367 18.2176C28.3402 18.9467 28.7462 19.3765 29.1782 19.833L30.6309 18.4583L32.0835 17.0835C31.6225 16.5964 31.1372 16.0835 30.225 15.2556L28.8809 16.7366ZM30.6309 18.4583L29.1778 19.8326C28.798 19.431 28.8163 18.7983 29.2165 18.4192L30.5918 19.8713L31.9671 21.3234C33.1689 20.1852 33.2224 18.2876 32.0839 17.0839L30.6309 18.4583ZM30.5918 19.8713L29.2178 18.418C29.6184 18.0393 30.2512 18.0559 30.6313 18.4575L29.1787 19.8323L27.7262 21.2071C28.8652 22.4105 30.7629 22.4619 31.9658 21.3247L30.5918 19.8713ZM29.1787 19.8323L30.6313 18.4576C30.1864 17.9874 29.7425 17.5195 28.8936 16.7483L27.5488 18.2288L26.2041 19.7092C26.9465 20.3836 27.3125 20.77 27.7261 21.207L29.1787 19.8323ZM27.5488 18.2288L28.8677 16.7252C27.9557 15.9252 27.0605 15.2303 26.2375 14.7121L25.1719 16.4045L24.1062 18.097C24.6927 18.4663 25.415 19.0174 26.2299 19.7323L27.5488 18.2288ZM25.1719 16.4045L23.1721 16.4363C23.1825 17.0914 23.2369 17.5696 23.3538 18.0623L25.2998 17.6008L27.2458 17.1393C27.2106 16.9907 27.1786 16.8102 27.1716 16.3727L25.1719 16.4045ZM25.2998 17.6008L23.398 18.2199C23.805 19.47 24.4623 21.178 25.169 23.0341L27.0381 22.3225L28.9072 21.6109C28.1796 19.6996 27.5698 18.1129 27.2016 16.9817L25.2998 17.6008ZM27.0381 22.3225L25.2289 23.175C26.5437 25.9656 28.1387 28.4068 29.7247 31.0894L31.4463 30.0715L33.1679 29.0537C31.4647 26.1727 30.0558 24.0348 28.8473 21.47L27.0381 22.3225ZM31.4463 30.0715L29.7247 31.0894C29.7707 31.1672 29.8668 31.3249 29.8904 31.3643L31.6064 30.3372L33.3225 29.31C33.2384 29.1695 33.2256 29.1513 33.1679 29.0537L31.4463 30.0715ZM31.6064 30.3372L33.3697 31.281C34.0268 30.0534 34.7754 28.771 35.5512 27.4604L33.8301 26.4417L32.109 25.4229C31.3307 26.7378 30.5441 28.0839 29.8432 29.3933L31.6064 30.3372ZM33.8301 26.4417L35.5512 27.4604C36.7956 25.3581 38.1213 23.1678 39.2051 21.0994L37.4336 20.1711L35.6621 19.2429C34.64 21.1934 33.388 23.2621 32.109 25.4229L33.8301 26.4417ZM37.4336 20.1711L39.1894 21.1288L39.1952 21.1181L37.4395 20.1604L35.6837 19.2027L35.6778 19.2134L37.4336 20.1711ZM37.4395 20.1604L39.2005 21.1083C39.8807 19.8446 40.4947 18.9525 41.178 18.1751L39.6758 16.8547L38.1735 15.5344C37.2497 16.5855 36.4702 17.7413 35.6784 19.2125L37.4395 20.1604ZM39.6758 16.8547L41.228 18.1159L41.2407 18.1003L39.6885 16.8391L38.1362 15.5779L38.1236 15.5936L39.6758 16.8547ZM39.6885 16.8391L41.1476 18.207L41.1622 18.1914L39.7031 16.8235L38.2441 15.4556L38.2294 15.4712L39.6885 16.8391ZM39.7031 16.8235L41.1507 18.2036C41.1907 18.1616 41.1603 18.1952 41.2677 18.0863L39.8438 16.6819L38.4198 15.2775C38.4054 15.2921 38.3943 15.303 38.3626 15.3345C38.3364 15.3606 38.2975 15.3994 38.2556 15.4434L39.7031 16.8235ZM39.8438 16.6819L39.8643 14.682C39.5981 14.6792 39.3291 14.6826 39.0617 14.6919L39.1309 16.6907L39.2 18.6895C39.4087 18.6823 39.6179 18.6797 39.8232 18.6818L39.8438 16.6819ZM39.1309 16.6907L39.0616 14.6919C37.7979 14.7356 36.4766 14.917 35.5383 15.2998L36.2939 17.1516L37.0496 19.0034C37.3364 18.8863 38.1006 18.7276 39.2001 18.6895L39.1309 16.6907ZM36.2939 17.1516L35.5389 15.2996C36.0503 15.0911 36.6342 15.3368 36.8429 15.8479L34.9912 16.6038L33.1395 17.3596C33.7655 18.893 35.5152 19.6289 37.049 19.0036L36.2939 17.1516ZM34.9912 16.6038L36.843 15.8482C37.0521 16.3606 36.8052 16.9443 36.2952 17.1526L35.5391 15.301L34.7829 13.4495C33.2506 14.0752 32.5132 15.8244 33.1394 17.3593L34.9912 16.6038ZM35.5391 15.301L36.2946 17.1528C36.9087 16.9023 37.9527 16.7303 39.1317 16.6895L39.0625 14.6907L38.9933 12.6919C37.6407 12.7387 36.044 12.9349 34.7835 13.4492L35.5391 15.301ZM39.0625 14.6907L39.1316 16.6895C40.2967 16.6492 41.47 16.7393 42.3052 16.9342L42.7598 14.9866L43.2143 13.0389C41.9372 12.7408 40.392 12.6435 38.9934 12.6919L39.0625 14.6907ZM42.7598 14.9866L42.3034 16.9338L42.8034 17.051L43.2598 15.1038L43.7161 13.1565L43.2161 13.0393L42.7598 14.9866ZM43.2598 15.1038L41.4129 15.8714L41.6102 16.346L43.457 15.5784L45.3039 14.8108L45.1066 14.3361L43.2598 15.1038ZM43.457 15.5784L41.6092 16.3435C41.7314 16.6387 41.7862 17.1335 41.769 17.9082L43.7686 17.9524L45.7681 17.9966C45.7862 17.1775 45.773 15.9436 45.3049 14.8132L43.457 15.5784ZM43.7686 17.9524L41.769 17.9081C41.7518 18.6857 41.6775 19.4864 41.6338 20.486L43.6318 20.5735L45.6299 20.661C45.6604 19.9652 45.7511 18.7633 45.7681 17.9967L43.7686 17.9524ZM43.6318 20.5735L41.6323 20.5312C41.6136 21.4131 41.6432 22.1079 41.8926 23.0514L43.8262 22.5403L45.7597 22.0291C45.6414 21.5813 45.617 21.2956 45.6314 20.6157L43.6318 20.5735ZM43.8262 22.5403L41.8924 23.0506C41.7515 22.5166 42.07 21.9698 42.6033 21.8286L43.1152 23.762L43.6271 25.6953C45.2276 25.2716 46.1826 23.6313 45.76 22.0299L43.8262 22.5403ZM43.1152 23.762L42.605 21.8282C43.1371 21.6877 43.6843 22.004 43.826 22.5392L41.8926 23.051L39.9592 23.5629C40.3834 25.1652 42.026 26.1178 43.6255 25.6958L43.1152 23.762ZM41.8926 23.051L43.8262 22.5399C43.6422 21.8441 43.6139 21.3538 43.6304 20.5737L41.6309 20.5315L39.6313 20.4893C39.6104 21.4796 39.6454 22.3758 39.959 23.5621L41.8926 23.051ZM41.6309 20.5315L43.6226 20.7126L43.6236 20.7018L41.6318 20.5208L39.64 20.3397L39.6391 20.3504L41.6309 20.5315ZM41.6318 20.5208L43.6249 20.6868L43.6259 20.6751L41.6328 20.509L39.6397 20.3429L39.6387 20.3547L41.6318 20.5208ZM41.6328 20.509L43.631 20.5949C43.6675 19.7461 43.7508 18.7299 43.7681 17.9528L41.7686 17.9084L39.769 17.8641C39.751 18.6783 39.6862 19.224 39.6347 20.4231L41.6328 20.509ZM41.7686 17.9084L43.7681 17.9527C43.7712 17.8131 43.7698 17.6769 43.7695 17.5972L41.7695 17.6047L39.7695 17.6123C39.77 17.7246 39.7707 17.7909 39.769 17.8642L41.7686 17.9084ZM41.7695 17.6047L40.418 16.1305C40.1997 16.3307 39.9601 16.5545 39.7228 16.8022L41.167 18.1858L42.6112 19.5694C42.7562 19.418 42.9184 19.2647 43.121 19.079L41.7695 17.6047ZM41.167 18.1858L39.6631 16.8673C38.8658 17.7768 38.175 18.7961 37.4453 20.1502L39.2061 21.0989L40.9668 22.0475C41.5871 20.8961 42.1139 20.1396 42.6709 19.5043L41.167 18.1858ZM39.2061 21.0989L37.4431 20.1545L37.0251 20.9348L38.7881 21.8792L40.5511 22.8235L40.969 22.0433L39.2061 21.0989ZM38.7881 21.8792L37.031 20.9238C36.0565 22.7161 34.932 24.5791 33.8297 26.4415L35.5508 27.4602L37.2719 28.4789C38.347 26.6626 39.5256 24.7098 40.5452 22.8345L38.7881 21.8792ZM35.5508 27.4602L33.8297 26.4415C32.8232 28.1419 31.8407 29.8363 31.0448 31.4209L32.832 32.3186L34.6193 33.2163C35.3472 31.767 36.2666 30.1774 37.2719 28.4789L35.5508 27.4602ZM32.832 32.3186L31.1441 33.3915C32.6117 35.7004 34.4195 38.379 36.1107 40.8713L37.7656 39.7483L39.4206 38.6253C37.7262 36.1284 35.9508 33.4969 34.5199 31.2457L32.832 32.3186ZM37.7656 39.7483L36.1107 40.8713C38.4157 44.2682 40.4552 47.253 41.1807 48.5579L42.9287 47.5862L44.6768 46.6144C43.8384 45.1063 41.6421 41.8992 39.4206 38.6253L37.7656 39.7483ZM42.9287 47.5862L41.18 48.5568C40.9118 48.0736 41.0863 47.4654 41.5683 47.1975L42.54 48.9456L43.5118 50.6936C44.9588 49.8892 45.4813 48.064 44.6774 46.6156L42.9287 47.5862ZM42.54 48.9456L41.5694 47.1969C42.0527 46.9286 42.6608 47.1032 42.9287 47.5851L41.1807 48.5569L39.4326 49.5287C40.237 50.9756 42.0622 51.4983 43.5107 50.6942L42.54 48.9456ZM41.1807 48.5569L42.9287 47.5851C42.1467 46.1785 40.0292 43.0841 37.7663 39.7493L36.1113 40.8723L34.4564 41.9953C36.8043 45.4555 38.7637 48.3255 39.4326 49.5287L41.1807 48.5569ZM36.1113 40.8723L37.7663 39.7493C36.3399 37.6473 34.8346 35.4197 33.5211 33.393L31.8428 34.4807L30.1644 35.5684C31.5037 37.635 33.0311 39.8949 34.4564 41.9953L36.1113 40.8723ZM31.8428 34.4807L29.995 33.7153C28.7915 36.6209 27.7143 40.2156 26.4397 45.185L28.377 45.6819L30.3142 46.1788C31.5785 41.25 32.5995 37.88 33.6905 35.2461L31.8428 34.4807ZM28.377 45.6819L26.4084 45.3287C26.3998 45.3766 26.3941 45.4181 26.3903 45.4507C26.3865 45.4834 26.3841 45.5109 26.3826 45.5307C26.381 45.5505 26.3801 45.5663 26.3796 45.575C26.3794 45.5794 26.3792 45.5831 26.3791 45.585C26.379 45.5864 26.3789 45.5885 26.379 45.5874C26.379 45.5872 26.3791 45.5851 26.3792 45.5824C26.3794 45.5796 26.3796 45.5753 26.3799 45.5701C26.3805 45.5599 26.3816 45.5434 26.3833 45.5232C26.385 45.5029 26.3875 45.4764 26.3914 45.4454C26.3952 45.4144 26.4006 45.3768 26.4084 45.3342L28.376 45.6926L30.3436 46.0511C30.3515 46.0076 30.3571 45.9691 30.361 45.9371C30.365 45.9053 30.3676 45.8778 30.3694 45.8566C30.3711 45.8354 30.3722 45.8181 30.3729 45.8069C30.3733 45.8012 30.3735 45.7965 30.3737 45.7932C30.3738 45.79 30.374 45.7875 30.374 45.7868C30.3741 45.7853 30.374 45.7869 30.374 45.7879C30.3739 45.7893 30.3737 45.7925 30.3735 45.7965C30.3731 45.8042 30.3722 45.8192 30.3707 45.8381C30.3693 45.857 30.367 45.8837 30.3632 45.9155C30.3595 45.9473 30.354 45.988 30.3455 46.035L28.377 45.6819ZM28.376 45.6926L26.4084 45.334C26.4086 45.3331 26.4082 45.3349 26.407 45.3415C26.4057 45.3481 26.4042 45.3556 26.402 45.3671C26.3979 45.3884 26.392 45.4187 26.3856 45.4532L28.3516 45.8206L30.3175 46.1879C30.3213 46.1676 30.325 46.1488 30.3291 46.1274C30.3324 46.1102 30.3384 46.0794 30.3436 46.0513L28.376 45.6926ZM28.3516 45.8206L26.3856 45.4532C26.3662 45.5571 26.3374 45.7081 26.3008 45.8928L28.2627 46.2815L30.2246 46.6701C30.2642 46.47 30.2957 46.3047 30.3175 46.1879L28.3516 45.8206ZM28.2627 46.2815L26.3008 45.8928C26.228 46.2604 26.1227 46.7638 25.9977 47.2995L27.9453 47.7542L29.893 48.2088C30.0303 47.6205 30.145 47.072 30.2246 46.6702L28.2627 46.2815ZM27.9453 47.7542L25.9977 47.2995C25.8724 47.8362 25.7299 48.3914 25.5808 48.8702L27.4902 49.4651L29.3997 50.06C29.5894 49.451 29.7569 48.7915 29.893 48.2088L27.9453 47.7542ZM27.4902 49.4651L25.5808 48.8702C25.4232 49.376 25.2854 49.7081 25.1917 49.8569L26.8838 50.9231L28.5759 51.9893C28.9715 51.3614 29.2349 50.5891 29.3997 50.06L27.4902 49.4651ZM26.8838 50.9231L25.1919 49.8565C25.4854 49.3911 26.1013 49.249 26.5702 49.5445L25.5039 51.2366L24.4376 52.9286C25.8409 53.8129 27.6932 53.3894 28.5757 51.9897L26.8838 50.9231ZM25.5039 51.2366L26.5709 49.545C27.0383 49.8398 27.1775 50.4565 26.8833 50.9233L25.1914 49.8567L23.4995 48.7901C22.6163 50.1912 23.0355 52.0442 24.4369 52.9282L25.5039 51.2366ZM25.1914 49.8567L26.8835 50.9229C27.1285 50.5341 27.3298 49.9819 27.4905 49.4664L25.5811 48.8713L23.6716 48.2763C23.6046 48.4914 23.5479 48.6489 23.5061 48.7531C23.4853 48.805 23.4714 48.8356 23.4653 48.8484C23.4569 48.8659 23.4678 48.8405 23.4993 48.7905L25.1914 49.8567ZM25.5811 48.8713L27.4905 49.4663C27.6598 48.9228 27.8158 48.3144 27.9467 47.7537L25.999 47.2991L24.0514 46.8444C23.932 47.3559 23.801 47.8612 23.6716 48.2764L25.5811 48.8713ZM25.999 47.2991L27.9467 47.7537C28.078 47.191 28.1867 46.6648 28.2627 46.2815L26.3008 45.8928L24.3389 45.5042C24.2683 45.8607 24.1691 46.3399 24.0514 46.8445L25.999 47.2991ZM26.3008 45.8928L28.2627 46.2815C28.3003 46.0912 28.3307 45.9332 28.3517 45.8207L26.3857 45.4534L24.4198 45.086C24.4019 45.1818 24.3743 45.3254 24.3389 45.5042L26.3008 45.8928ZM26.3857 45.4534L28.3517 45.8206C28.3585 45.7846 28.364 45.7535 28.3681 45.7301C28.3693 45.7232 28.3727 45.7039 28.373 45.7019C28.3737 45.6984 28.3741 45.6959 28.3744 45.694C28.3748 45.6921 28.3749 45.6915 28.3748 45.6917L26.4072 45.3333L24.4396 44.9748C24.4372 44.9882 24.4349 45.001 24.4333 45.0103C24.4324 45.0152 24.4315 45.0203 24.4308 45.0246C24.43 45.0292 24.4292 45.0335 24.4285 45.0378C24.4255 45.0547 24.4227 45.0701 24.4198 45.0861L26.3857 45.4534ZM26.4072 45.3333L28.3747 45.6925C28.3647 45.7475 28.3543 45.7891 28.3526 45.7959C28.3524 45.7968 28.3522 45.7973 28.3523 45.797C28.3524 45.7968 28.3523 45.7968 28.3525 45.7963C28.3526 45.7959 28.3528 45.7952 28.3529 45.7945C28.3535 45.7922 28.3553 45.7849 28.3574 45.7761C28.3596 45.7672 28.3631 45.7524 28.3671 45.7342C28.371 45.7162 28.3766 45.6896 28.3824 45.6574L26.4141 45.303L24.4457 44.9486C24.4485 44.9329 24.4512 44.919 24.4536 44.9074C24.4559 44.8957 24.4581 44.8855 24.46 44.8771C24.4636 44.8608 24.4666 44.848 24.4682 44.8412C24.4691 44.8375 24.4698 44.8346 24.4703 44.8328C24.4707 44.8309 24.471 44.8297 24.4711 44.8294C24.4711 44.8293 24.4712 44.8292 24.4711 44.8294C24.4711 44.8294 24.4709 44.8301 24.4708 44.8304C24.4706 44.8314 24.4702 44.8332 24.4696 44.8353C24.4676 44.8437 24.463 44.8622 24.4578 44.8854C24.4525 44.9091 24.4461 44.9391 24.4398 44.974L26.4072 45.3333ZM26.4141 45.303L28.3906 45.6085C28.4005 45.5442 28.4063 45.4862 28.4097 45.4364C28.413 45.3866 28.4141 45.3427 28.4142 45.3065C28.4143 45.2703 28.4134 45.2394 28.4125 45.2161C28.4115 45.193 28.4103 45.1746 28.4097 45.1648C28.4093 45.1599 28.4091 45.1561 28.409 45.1549C28.4088 45.1521 28.409 45.1555 28.4091 45.1569C28.4093 45.1594 28.4097 45.1652 28.4102 45.1728C28.4107 45.1803 28.4113 45.1917 28.4119 45.2056C28.4126 45.2194 28.4133 45.238 28.4137 45.26C28.4141 45.2819 28.4142 45.3102 28.4134 45.3433C28.4127 45.3762 28.4109 45.4182 28.4067 45.467C28.4025 45.5153 28.3954 45.5771 28.3827 45.6482L26.4141 45.2952L24.4455 44.9422C24.4327 45.0135 24.4256 45.0754 24.4214 45.1239C24.4172 45.1729 24.4154 45.2151 24.4146 45.2482C24.4138 45.2816 24.4139 45.3102 24.4143 45.3323C24.4147 45.3546 24.4155 45.3735 24.4161 45.3876C24.4167 45.4017 24.4174 45.4134 24.4179 45.4212C24.4184 45.429 24.4188 45.4352 24.419 45.438C24.4191 45.4398 24.4194 45.4435 24.4192 45.441C24.4192 45.4401 24.4189 45.4366 24.4186 45.4321C24.418 45.423 24.4169 45.4053 24.4159 45.3829C24.415 45.3603 24.4141 45.3303 24.4142 45.2948C24.4143 45.2593 24.4154 45.2162 24.4187 45.1672C24.422 45.1182 24.4277 45.061 24.4375 44.9974L26.4141 45.303ZM26.4141 45.2952L27.8283 46.7094L27.8293 46.7084L26.415 45.2942L25.0008 43.88L24.9998 43.881L26.4141 45.2952ZM26.415 45.2942L28.3893 45.6143L28.3951 45.5782L26.4209 45.2581L24.4467 44.9379L24.4408 44.974L26.415 45.2942ZM26.4209 45.2581L28.355 45.767L28.3648 45.7299L26.4307 45.2209L24.4965 44.712L24.4867 44.7491L26.4209 45.2581ZM26.4307 45.2209L28.368 45.7176C29.8086 40.0981 30.9647 36.3661 32.3014 33.423L30.4805 32.5959L28.6595 31.7688C27.1693 35.0497 25.9433 39.0679 24.4933 44.7243L26.4307 45.2209ZM30.4805 32.5959L32.3014 33.4231C32.3371 33.3446 32.3036 33.4204 32.3669 33.2832L30.5508 32.4456L28.7347 31.6079C28.7279 31.6226 28.7209 31.6374 28.7071 31.6665C28.6952 31.6917 28.6777 31.7288 28.6595 31.7688L30.4805 32.5959ZM30.5508 32.4456L32.2496 31.3901C31.9579 30.9207 31.6888 30.4815 31.4462 30.0713L29.7246 31.0891L28.003 32.1069C28.2672 32.5539 28.554 33.0214 28.852 33.501L30.5508 32.4456ZM29.7246 31.0891L31.4462 30.0713C29.7956 27.2793 28.2888 24.981 27.024 22.2893L25.2139 23.1399L23.4038 23.9905C24.7758 26.9104 26.4666 29.5082 28.003 32.1069L29.7246 31.0891ZM25.2139 23.1399L27.0328 22.3084L27.0172 22.2742L25.1982 23.1057L23.3793 23.9372L23.3949 23.9714L25.2139 23.1399ZM25.1982 23.1057L27.0444 22.3365L27.0297 22.3013L25.1836 23.0706L23.3374 23.8398L23.3521 23.8749L25.1982 23.1057ZM25.1836 23.0706L27.0528 22.3591C26.3235 20.4434 25.6785 18.7685 25.2894 17.5674L23.3867 18.1838L21.4841 18.8002C21.9129 20.1239 22.6075 21.9248 23.3144 23.7821L25.1836 23.0706ZM23.3867 18.1838L25.2892 17.5668L25.2774 17.5307L23.375 18.1477L21.4726 18.7647L21.4843 18.8008L23.3867 18.1838ZM23.375 18.1477L25.3274 17.7138L25.3196 17.6787L23.3672 18.1125L21.4148 18.5464L21.4226 18.5816L23.375 18.1477ZM23.3672 18.1125L25.3098 17.637C25.2699 17.4738 25.2406 17.3175 25.2191 17.1502L23.2354 17.4045L21.2516 17.6589C21.2926 17.9789 21.3498 18.2829 21.4245 18.5881L23.3672 18.1125ZM23.2354 17.4045L21.3599 16.7099C21.3083 16.8491 21.2464 17.0144 21.1871 17.1773L23.0664 17.8616L24.9457 18.5458C25 18.3967 25.0524 18.2569 25.1108 18.0992L23.2354 17.4045ZM23.0664 17.8616L21.1871 17.1774C20.967 17.7819 20.7439 18.4108 20.5354 19.0002L22.4209 19.6672L24.3064 20.3343C24.5149 19.7449 24.7325 19.1314 24.9457 18.5458L23.0664 17.8616ZM22.4209 19.6672L20.5354 19.0002C20.3267 19.59 20.1321 20.1401 19.9674 20.5921L21.8467 21.2766L23.7259 21.9611C23.8982 21.488 24.0996 20.9188 24.3064 20.3343L22.4209 19.6672ZM21.8467 21.2766L19.9676 20.5918C20.156 20.0747 20.729 19.8054 21.2495 19.9949L20.5654 21.8743L19.8813 23.7536C21.4395 24.3208 23.1592 23.516 23.7258 21.9614L21.8467 21.2766ZM20.5654 21.8743L21.2506 19.9953C21.7681 20.184 22.0364 20.7565 21.847 21.2765L19.9678 20.592L18.0885 19.9076C17.5212 21.4653 18.3254 23.1863 19.8803 23.7532L20.5654 21.8743ZM19.9678 20.592L21.847 21.2765C22.0154 20.8142 22.2127 20.256 22.4207 19.6682L20.5352 19.0012L18.6497 18.3342C18.4394 18.9284 18.2491 19.4666 18.0885 19.9076L19.9678 20.592ZM20.5352 19.0012L22.4207 19.6682C22.6285 19.0807 22.8498 18.4582 23.0668 17.8622L21.1875 17.178L19.3082 16.4938C19.0847 17.1076 18.8585 17.744 18.6497 18.3342L20.5352 19.0012ZM21.1875 17.178L23.0668 17.8622C23.4471 16.8178 23.8066 15.8811 24.0676 15.3467L22.2705 14.469L20.4734 13.5913C20.1048 14.346 19.6769 15.4811 19.3082 16.4938L21.1875 17.178ZM22.2705 14.469L24.0467 15.3882L24.1766 15.1372L22.4004 14.218L20.6241 13.2988L20.4943 13.5498L22.2705 14.469ZM22.4004 14.218L24.1523 15.1828L24.3857 14.759L22.6338 13.7942L20.8819 12.8294L20.6485 13.2533L22.4004 14.218ZM22.6338 13.7942L22.96 15.7674L23.4385 15.6883L23.1123 13.7151L22.7861 11.7419L22.3076 11.821L22.6338 13.7942Z" fill="white" mask="url(#path-1-outside-1_34_142)"/>
</svg>
