<svg width="64" height="64" viewBox="0 0 64 64" fill="none" xmlns="http://www.w3.org/2000/svg">
<mask id="path-1-outside-1_34_142" maskUnits="userSpaceOnUse" x="17.9072" y="11.6848" width="28" height="41" fill="black">
<rect fill="white" x="17.9072" y="11.6848" width="28" height="41"/>
<path d="M23.1533 13.9622C23.5753 13.8927 24.015 13.9656 24.4287 14.0979C24.8493 14.2324 25.2946 14.4452 25.748 14.7083C26.6551 15.2345 27.6686 16.0059 28.7031 16.9133L28.7129 16.9211C29.5639 17.6935 30.0047 18.1604 30.4492 18.6301C30.7334 18.9309 30.7212 19.4051 30.4209 19.6897C30.1201 19.9744 29.6441 19.9612 29.3594 19.6604C28.9262 19.2026 28.5145 18.768 27.7041 18.0325C26.712 17.1629 25.7844 16.4635 24.9961 16.0061C24.9722 15.9922 24.9473 15.9794 24.9238 15.9661C24.9126 16.8058 24.9564 17.2404 25.0586 17.6682C25.4492 18.8697 26.09 20.5329 26.8096 22.4231C28.0784 25.1174 29.592 27.4271 31.2305 30.1985C31.3546 30.4085 31.4869 30.6236 31.6221 30.8459C32.3463 29.4647 33.1871 28.0179 34.0449 26.5686C35.3045 24.4406 36.5985 22.3033 37.6553 20.2864L37.6592 20.2786C38.3883 18.9239 39.0747 17.916 39.8633 17.0188L39.874 17.0071L39.8838 16.9973C40.0659 16.8062 40.2534 16.6243 40.4414 16.4485C40.0118 16.4278 39.5655 16.4253 39.1221 16.4407C37.9302 16.482 36.8533 16.6538 36.2002 16.9202C35.8167 17.0766 35.3782 16.8925 35.2217 16.509C35.0656 16.1256 35.2504 15.6879 35.6338 15.5315C36.5304 15.1658 37.8153 14.9841 39.0703 14.9407C40.3378 14.8968 41.6744 14.9916 42.7031 15.2317L43.0781 15.3186L43.2256 15.6741C43.4992 16.3347 43.5362 17.1529 43.5186 17.9475C43.5014 18.7236 43.4187 19.6989 43.3809 20.5686C43.3641 21.3621 43.3931 21.8769 43.585 22.6028C43.6908 23.0031 43.452 23.4137 43.0518 23.5198C42.6515 23.6256 42.2409 23.3877 42.1348 22.9875C41.8941 22.0771 41.8634 21.4094 41.8818 20.5374V20.5208C41.9249 19.518 42.001 18.708 42.0186 17.9143C42.0258 17.5884 42.0207 17.3042 42.002 17.0588C41.6365 17.3835 41.2986 17.6874 40.9824 18.0178C40.2886 18.8086 39.6679 19.7137 38.9844 20.9827L38.5684 21.761C37.5747 23.5885 36.4266 25.4907 35.3359 27.3333C34.3025 29.0791 33.3222 30.772 32.5449 32.3342C34.0105 34.6459 35.8385 37.3535 37.5596 39.8899C39.8277 43.2324 41.9349 46.3123 42.71 47.7063C42.9112 48.0683 42.7808 48.5245 42.4189 48.7258C42.0569 48.9271 41.5997 48.7978 41.3984 48.4358C40.6659 47.1182 38.6175 44.1214 36.3174 40.7317C34.7973 38.4916 33.1787 36.093 31.7959 33.9456C30.5668 36.8055 29.4712 40.4089 28.1328 45.6272C28.1318 45.6329 28.1303 45.6402 28.1289 45.6477C28.1235 45.6772 28.1156 45.7202 28.1055 45.7747C28.085 45.8842 28.0555 46.0412 28.0176 46.2327C27.9417 46.6155 27.8325 47.139 27.7021 47.6975C27.5722 48.2543 27.4189 48.856 27.252 49.3918C27.0912 49.9078 26.8977 50.432 26.6719 50.7903C26.4509 51.1405 25.9871 51.2455 25.6367 51.0247C25.2868 50.8036 25.1826 50.3407 25.4033 49.9905C25.516 49.8118 25.6614 49.4524 25.8193 48.9456C25.9712 48.4582 26.1164 47.8957 26.2422 47.3567C26.3676 46.8196 26.4722 46.3135 26.5459 45.9417C26.5826 45.7563 26.6122 45.6042 26.6318 45.4993C26.6416 45.4469 26.6483 45.4055 26.6533 45.3782C26.6557 45.3648 26.6579 45.3547 26.6592 45.3479C26.6597 45.3448 26.66 45.3417 26.6602 45.3401L26.6611 45.3381L26.666 45.3098L26.6729 45.2825C28.1175 39.647 29.3042 35.7902 30.708 32.6995C30.7488 32.6096 30.7926 32.5197 30.835 32.429C30.5141 31.9142 30.2124 31.4238 29.9395 30.9622C28.3388 28.2548 26.7521 25.8247 25.4404 23.0334L25.4287 23.0081L25.418 22.9817C24.6983 21.091 24.0305 19.3605 23.624 18.1057L23.6162 18.0803L23.6094 18.054C23.4765 17.5111 23.421 16.9916 23.4199 16.2209C23.2407 16.6719 23.0394 17.2043 22.8311 17.7766C22.614 18.3729 22.394 18.9949 22.1855 19.5842C21.9776 20.1721 21.7803 20.7304 21.6123 21.1917C21.4705 21.5807 21.0395 21.7816 20.6504 21.6399C20.2616 21.498 20.0607 21.0669 20.2021 20.678C20.3672 20.2249 20.5625 19.675 20.7715 19.0842C20.9798 18.4954 21.2021 17.8675 21.4219 17.2639C21.8521 16.0823 22.2979 14.9182 22.6182 14.3391L22.7949 14.0217L23.1533 13.9622Z"/>
</mask>
<path d="M23.1533 13.9622C23.5753 13.8927 24.015 13.9656 24.4287 14.0979C24.8493 14.2324 25.2946 14.4452 25.748 14.7083C26.6551 15.2345 27.6686 16.0059 28.7031 16.9133L28.7129 16.9211C29.5639 17.6935 30.0047 18.1604 30.4492 18.6301C30.7334 18.9309 30.7212 19.4051 30.4209 19.6897C30.1201 19.9744 29.6441 19.9612 29.3594 19.6604C28.9262 19.2026 28.5145 18.768 27.7041 18.0325C26.712 17.1629 25.7844 16.4635 24.9961 16.0061C24.9722 15.9922 24.9473 15.9794 24.9238 15.9661C24.9126 16.8058 24.9564 17.2404 25.0586 17.6682C25.4492 18.8697 26.09 20.5329 26.8096 22.4231C28.0784 25.1174 29.592 27.4271 31.2305 30.1985C31.3546 30.4085 31.4869 30.6236 31.6221 30.8459C32.3463 29.4647 33.1871 28.0179 34.0449 26.5686C35.3045 24.4406 36.5985 22.3033 37.6553 20.2864L37.6592 20.2786C38.3883 18.9239 39.0747 17.916 39.8633 17.0188L39.874 17.0071L39.8838 16.9973C40.0659 16.8062 40.2534 16.6243 40.4414 16.4485C40.0118 16.4278 39.5655 16.4253 39.1221 16.4407C37.9302 16.482 36.8533 16.6538 36.2002 16.9202C35.8167 17.0766 35.3782 16.8925 35.2217 16.509C35.0656 16.1256 35.2504 15.6879 35.6338 15.5315C36.5304 15.1658 37.8153 14.9841 39.0703 14.9407C40.3378 14.8968 41.6744 14.9916 42.7031 15.2317L43.0781 15.3186L43.2256 15.6741C43.4992 16.3347 43.5362 17.1529 43.5186 17.9475C43.5014 18.7236 43.4187 19.6989 43.3809 20.5686C43.3641 21.3621 43.3931 21.8769 43.585 22.6028C43.6908 23.0031 43.452 23.4137 43.0518 23.5198C42.6515 23.6256 42.2409 23.3877 42.1348 22.9875C41.8941 22.0771 41.8634 21.4094 41.8818 20.5374V20.5208C41.9249 19.518 42.001 18.708 42.0186 17.9143C42.0258 17.5884 42.0207 17.3042 42.002 17.0588C41.6365 17.3835 41.2986 17.6874 40.9824 18.0178C40.2886 18.8086 39.6679 19.7137 38.9844 20.9827L38.5684 21.761C37.5747 23.5885 36.4266 25.4907 35.3359 27.3333C34.3025 29.0791 33.3222 30.772 32.5449 32.3342C34.0105 34.6459 35.8385 37.3535 37.5596 39.8899C39.8277 43.2324 41.9349 46.3123 42.71 47.7063C42.9112 48.0683 42.7808 48.5245 42.4189 48.7258C42.0569 48.9271 41.5997 48.7978 41.3984 48.4358C40.6659 47.1182 38.6175 44.1214 36.3174 40.7317C34.7973 38.4916 33.1787 36.093 31.7959 33.9456C30.5668 36.8055 29.4712 40.4089 28.1328 45.6272C28.1318 45.6329 28.1303 45.6402 28.1289 45.6477C28.1235 45.6772 28.1156 45.7202 28.1055 45.7747C28.085 45.8842 28.0555 46.0412 28.0176 46.2327C27.9417 46.6155 27.8325 47.139 27.7021 47.6975C27.5722 48.2543 27.4189 48.856 27.252 49.3918C27.0912 49.9078 26.8977 50.432 26.6719 50.7903C26.4509 51.1405 25.9871 51.2455 25.6367 51.0247C25.2868 50.8036 25.1826 50.3407 25.4033 49.9905C25.516 49.8118 25.6614 49.4524 25.8193 48.9456C25.9712 48.4582 26.1164 47.8957 26.2422 47.3567C26.3676 46.8196 26.4722 46.3135 26.5459 45.9417C26.5826 45.7563 26.6122 45.6042 26.6318 45.4993C26.6416 45.4469 26.6483 45.4055 26.6533 45.3782C26.6557 45.3648 26.6579 45.3547 26.6592 45.3479C26.6597 45.3448 26.66 45.3417 26.6602 45.3401L26.6611 45.3381L26.666 45.3098L26.6729 45.2825C28.1175 39.647 29.3042 35.7902 30.708 32.6995C30.7488 32.6096 30.7926 32.5197 30.835 32.429C30.5141 31.9142 30.2124 31.4238 29.9395 30.9622C28.3388 28.2548 26.7521 25.8247 25.4404 23.0334L25.4287 23.0081L25.418 22.9817C24.6983 21.091 24.0305 19.3605 23.624 18.1057L23.6162 18.0803L23.6094 18.054C23.4765 17.5111 23.421 16.9916 23.4199 16.2209C23.2407 16.6719 23.0394 17.2043 22.8311 17.7766C22.614 18.3729 22.394 18.9949 22.1855 19.5842C21.9776 20.1721 21.7803 20.7304 21.6123 21.1917C21.4705 21.5807 21.0395 21.7816 20.6504 21.6399C20.2616 21.498 20.0607 21.0669 20.2021 20.678C20.3672 20.2249 20.5625 19.675 20.7715 19.0842C20.9798 18.4954 21.2021 17.8675 21.4219 17.2639C21.8521 16.0823 22.2979 14.9182 22.6182 14.3391L22.7949 14.0217L23.1533 13.9622Z" fill="black"/>
<path d="M23.1533 13.9622L22.9097 12.4821L22.9074 12.4825L23.1533 13.9622ZM24.4287 14.0979L24.8857 12.6692L24.8855 12.6691L24.4287 14.0979ZM25.748 14.7083L26.5008 13.4108L26.5007 13.4107L25.748 14.7083ZM28.7031 16.9133L27.714 18.041L27.7395 18.0634L27.7661 18.0846L28.7031 16.9133ZM28.7129 16.9211L29.721 15.8104L29.6864 15.779L29.6499 15.7498L28.7129 16.9211ZM30.4492 18.6301L31.5394 17.5998L31.5387 17.5991L30.4492 18.6301ZM30.4209 19.6897L31.4519 20.7792L31.4528 20.7784L30.4209 19.6897ZM29.3594 19.6604L28.2699 20.6914L28.2699 20.6915L29.3594 19.6604ZM27.7041 18.0325L28.7122 16.9217L28.7026 16.913L28.6928 16.9044L27.7041 18.0325ZM24.9961 16.0061L25.7489 14.7087L25.7488 14.7086L24.9961 16.0061ZM24.9238 15.9661L25.6642 14.6615L23.4577 13.4092L23.424 15.9461L24.9238 15.9661ZM25.0586 17.6682L23.5997 18.0169L23.6136 18.075L23.6321 18.1319L25.0586 17.6682ZM26.8096 22.4231L25.4077 22.9568L25.4281 23.0103L25.4525 23.0622L26.8096 22.4231ZM31.2305 30.1985L32.5217 29.4351L32.5217 29.4351L31.2305 30.1985ZM31.6221 30.8459L30.3402 31.625L31.7184 33.8926L32.9505 31.5425L31.6221 30.8459ZM34.0449 26.5686L32.7541 25.8045L32.7541 25.8045L34.0449 26.5686ZM37.6553 20.2864L38.9839 20.9826L38.9905 20.9699L38.9969 20.9572L37.6553 20.2864ZM37.6592 20.2786L36.3384 19.5676L36.3276 19.5875L36.3175 19.6077L37.6592 20.2786ZM39.8633 17.0188L38.7576 16.0052L38.747 16.0168L38.7366 16.0285L39.8633 17.0188ZM39.874 17.0071L38.8134 15.9464L38.7903 15.9695L38.7683 15.9935L39.874 17.0071ZM39.8838 16.9973L40.9444 18.058L40.9572 18.0452L40.9696 18.0322L39.8838 16.9973ZM40.4414 16.4485L41.466 17.5441L44.0572 15.1208L40.5135 14.9502L40.4414 16.4485ZM39.1221 16.4407L39.0702 14.9416L39.0701 14.9416L39.1221 16.4407ZM36.2002 16.9202L36.7667 18.3091L36.7667 18.3091L36.2002 16.9202ZM35.2217 16.509L33.8325 17.0748L33.8329 17.0757L35.2217 16.509ZM35.6338 15.5315L35.0672 14.1426L35.0671 14.1427L35.6338 15.5315ZM39.0703 14.9407L39.0184 13.4416L39.0184 13.4416L39.0703 14.9407ZM42.7031 15.2317L42.3621 16.6924L42.3644 16.693L42.7031 15.2317ZM43.0781 15.3186L44.4636 14.7438L44.1681 14.0315L43.4168 13.8573L43.0781 15.3186ZM43.2256 15.6741L44.6114 15.1001L44.6111 15.0993L43.2256 15.6741ZM43.5186 17.9475L45.0182 17.9807L45.0182 17.9807L43.5186 17.9475ZM43.3809 20.5686L41.8823 20.5033L41.8815 20.5201L41.8812 20.5369L43.3809 20.5686ZM43.585 22.6028L42.1347 22.986L42.1348 22.9862L43.585 22.6028ZM43.0518 23.5198L43.4351 24.97L43.436 24.9697L43.0518 23.5198ZM42.1348 22.9875L40.6846 23.3709L40.6849 23.372L42.1348 22.9875ZM41.8818 20.5374L43.3815 20.569L43.3818 20.5532V20.5374H41.8818ZM41.8818 20.5208L40.3832 20.4563L40.3818 20.4885V20.5208H41.8818ZM42.0186 17.9143L43.5182 17.9476L43.5182 17.9475L42.0186 17.9143ZM42.002 17.0588L43.4976 16.9445L43.267 13.9285L41.0057 15.9375L42.002 17.0588ZM40.9824 18.0178L39.8987 16.9808L39.8763 17.0042L39.8549 17.0285L40.9824 18.0178ZM38.9844 20.9827L37.6638 20.2713L37.6615 20.2756L38.9844 20.9827ZM38.5684 21.761L39.8862 22.4775L39.8912 22.4681L38.5684 21.761ZM35.3359 27.3333L34.0451 26.5692L34.0451 26.5692L35.3359 27.3333ZM32.5449 32.3342L31.202 31.666L30.8252 32.4232L31.2781 33.1374L32.5449 32.3342ZM37.5596 39.8899L36.3184 40.7321L36.3184 40.7321L37.5596 39.8899ZM42.71 47.7063L44.021 46.9775L44.021 46.9774L42.71 47.7063ZM42.4189 48.7258L43.1478 50.0369L43.1482 50.0366L42.4189 48.7258ZM41.3984 48.4358L42.7095 47.707L42.7095 47.7069L41.3984 48.4358ZM36.3174 40.7317L35.0762 41.5739L35.0762 41.5739L36.3174 40.7317ZM31.7959 33.9456L33.057 33.1335L31.5309 30.7634L30.4178 33.3533L31.7959 33.9456ZM28.1328 45.6272L26.6798 45.2546L26.6664 45.3068L26.6568 45.36L28.1328 45.6272ZM28.1289 45.6477L29.6046 45.9167L29.6046 45.9165L28.1289 45.6477ZM28.1055 45.7747L29.58 46.0501L29.58 46.0501L28.1055 45.7747ZM28.0176 46.2327L29.489 46.5242L29.489 46.5241L28.0176 46.2327ZM27.7021 47.6975L29.1629 48.0385L29.1629 48.0385L27.7021 47.6975ZM27.252 49.3918L28.684 49.8381L28.6841 49.838L27.252 49.3918ZM26.6719 50.7903L27.9406 51.5905L27.9408 51.5901L26.6719 50.7903ZM25.6367 51.0247L24.8356 52.2928L24.8368 52.2936L25.6367 51.0247ZM25.4033 49.9905L24.1344 49.1907L24.1343 49.1907L25.4033 49.9905ZM25.8193 48.9456L27.2514 49.3918L27.2514 49.3917L25.8193 48.9456ZM26.2422 47.3567L27.7029 47.6977L27.7029 47.6977L26.2422 47.3567ZM26.5459 45.9417L28.0173 46.2332L28.0173 46.2331L26.5459 45.9417ZM26.6318 45.4993L28.1063 45.7748L28.1063 45.7747L26.6318 45.4993ZM26.6533 45.3782L25.1776 45.1092L25.1776 45.1094L26.6533 45.3782ZM26.6592 45.3479L28.1351 45.6157L28.1355 45.6136L26.6592 45.3479ZM26.6602 45.3401L25.3185 44.6693L25.1999 44.9065L25.1698 45.17L26.6602 45.3401ZM26.6611 45.3381L28.0028 46.009L28.1017 45.811L28.1393 45.593L26.6611 45.3381ZM26.666 45.3098L25.2108 44.946L25.1973 45.0001L25.1878 45.055L26.666 45.3098ZM26.6729 45.2825L25.2198 44.91L25.2176 44.9187L26.6729 45.2825ZM30.708 32.6995L29.3423 32.0791L29.3423 32.0791L30.708 32.6995ZM30.835 32.429L32.1942 33.0633L32.5383 32.326L32.1079 31.6355L30.835 32.429ZM29.9395 30.9622L28.6482 31.7255L28.6482 31.7255L29.9395 30.9622ZM25.4404 23.0334L24.0785 23.662L24.0829 23.6714L25.4404 23.0334ZM25.4287 23.0081L24.0396 23.574L24.0525 23.6056L24.0668 23.6366L25.4287 23.0081ZM25.418 22.9817L24.0161 23.5153L24.0223 23.5315L24.0288 23.5476L25.418 22.9817ZM23.624 18.1057L22.1904 18.5468L22.1936 18.5574L22.197 18.568L23.624 18.1057ZM23.6162 18.0803L22.1642 18.4568L22.1727 18.4893L22.1825 18.5215L23.6162 18.0803ZM23.6094 18.054L22.1524 18.4107L22.1548 18.4205L22.1574 18.4304L23.6094 18.054ZM23.4199 16.2209L24.9199 16.2189L22.026 15.6668L23.4199 16.2209ZM22.8311 17.7766L21.4216 17.2634L21.4216 17.2634L22.8311 17.7766ZM22.1855 19.5842L20.7714 19.084L20.7714 19.084L22.1855 19.5842ZM21.6123 21.1917L23.0216 21.7054L23.0217 21.705L21.6123 21.1917ZM20.6504 21.6399L20.136 23.0489L20.137 23.0493L20.6504 21.6399ZM20.2021 20.678L18.7927 20.1646L18.7925 20.1652L20.2021 20.678ZM20.7715 19.0842L19.3574 18.584L19.3574 18.584L20.7715 19.0842ZM21.4219 17.2639L20.0124 16.7508L20.0124 16.7508L21.4219 17.2639ZM22.6182 14.3391L21.3077 13.6093L21.3056 13.6131L22.6182 14.3391ZM22.7949 14.0217L22.549 12.542L21.8361 12.6605L21.4844 13.2919L22.7949 14.0217ZM23.1533 13.9622L23.397 15.4422C23.4971 15.4257 23.6811 15.4337 23.9719 15.5267L24.4287 14.0979L24.8855 12.6691C24.3489 12.4976 23.6535 12.3596 22.9097 12.4821L23.1533 13.9622ZM24.4287 14.0979L23.9717 15.5266C24.2563 15.6176 24.5998 15.7763 24.9954 16.0058L25.748 14.7083L26.5007 13.4107C25.9893 13.1141 25.4422 12.8472 24.8857 12.6692L24.4287 14.0979ZM25.748 14.7083L24.9953 16.0057C25.7862 16.4645 26.7182 17.1675 27.714 18.041L28.7031 16.9133L29.6923 15.7857C28.6191 14.8443 27.524 14.0044 26.5008 13.4108L25.748 14.7083ZM28.7031 16.9133L27.7661 18.0846L27.7758 18.0924L28.7129 16.9211L29.6499 15.7498L29.6402 15.742L28.7031 16.9133ZM28.7129 16.9211L27.7048 18.0319C28.5146 18.7669 28.9255 19.2023 29.3597 19.6612L30.4492 18.6301L31.5387 17.5991C31.0838 17.1185 30.6131 16.6201 29.721 15.8104L28.7129 16.9211ZM30.4492 18.6301L29.359 19.6604C29.0769 19.3619 29.0865 18.8878 29.389 18.601L30.4209 19.6897L31.4528 20.7784C32.3559 19.9223 32.3899 18.4998 31.5394 17.5998L30.4492 18.6301ZM30.4209 19.6897L29.3899 18.6002C29.6908 18.3154 30.1643 18.3286 30.4488 18.6293L29.3594 19.6604L28.2699 20.6915C29.1239 21.5938 30.5493 21.6334 31.4519 20.7792L30.4209 19.6897ZM29.3594 19.6604L30.4488 18.6294C30.004 18.1593 29.5629 17.6939 28.7122 16.9217L27.7041 18.0325L26.696 19.1432C27.4661 19.8422 27.8483 20.2459 28.2699 20.6914L29.3594 19.6604ZM27.7041 18.0325L28.6928 16.9044C27.6622 16.0011 26.6531 15.2333 25.7489 14.7087L24.9961 16.0061L24.2433 17.3035C24.9156 17.6936 25.7618 18.3247 26.7154 19.1605L27.7041 18.0325ZM24.9961 16.0061L25.7488 14.7086C25.7174 14.6904 25.6892 14.6751 25.677 14.6685C25.6687 14.664 25.6663 14.6626 25.663 14.6608C25.6605 14.6595 25.6615 14.66 25.6642 14.6615L24.9238 15.9661L24.1834 17.2706C24.1979 17.2788 24.2108 17.2859 24.2204 17.2912C24.2291 17.296 24.2387 17.3012 24.2426 17.3033C24.2547 17.3099 24.2509 17.3079 24.2434 17.3036L24.9961 16.0061ZM24.9238 15.9661L23.424 15.9461C23.4119 16.8489 23.4572 17.4207 23.5997 18.0169L25.0586 17.6682L26.5175 17.3196C26.4555 17.0601 26.4134 16.7627 26.4237 15.986L24.9238 15.9661ZM25.0586 17.6682L23.6321 18.1319C24.0373 19.3785 24.6965 21.0884 25.4077 22.9568L26.8096 22.4231L28.2114 21.8894C27.4835 19.9774 26.861 18.3608 26.4851 17.2045L25.0586 17.6682ZM26.8096 22.4231L25.4525 23.0622C26.7614 25.8413 28.3444 28.2642 29.9392 30.9619L31.2305 30.1985L32.5217 29.4351C30.8396 26.5899 29.3955 24.3934 28.1666 21.784L26.8096 22.4231ZM31.2305 30.1985L29.9392 30.9619C30.0696 31.1824 30.2109 31.4121 30.3402 31.625L31.6221 30.8459L32.9039 30.0669C32.763 29.8351 32.6397 29.6347 32.5217 29.4351L31.2305 30.1985ZM31.6221 30.8459L32.9505 31.5425C33.6556 30.1978 34.4796 28.7791 35.3357 27.3327L34.0449 26.5686L32.7541 25.8045C31.8946 27.2566 31.037 28.7316 30.2936 30.1494L31.6221 30.8459ZM34.0449 26.5686L35.3357 27.3327C36.5823 25.2268 37.904 23.0437 38.9839 20.9826L37.6553 20.2864L36.3266 19.5902C35.293 21.5629 34.0268 23.6544 32.7541 25.8045L34.0449 26.5686ZM37.6553 20.2864L38.9969 20.9572L39.0008 20.9494L37.6592 20.2786L36.3175 19.6077L36.3136 19.6156L37.6553 20.2864ZM37.6592 20.2786L38.98 20.9895C39.6674 19.7125 40.2917 18.8035 40.9899 18.0091L39.8633 17.0188L38.7366 16.0285C37.8578 17.0284 37.1093 18.1354 36.3384 19.5676L37.6592 20.2786ZM39.8633 17.0188L40.969 18.0324L40.9798 18.0207L39.874 17.0071L38.7683 15.9935L38.7576 16.0052L39.8633 17.0188ZM39.874 17.0071L40.9347 18.0677L40.9444 18.058L39.8838 16.9973L38.8231 15.9367L38.8134 15.9464L39.874 17.0071ZM39.8838 16.9973L40.9696 18.0322C41.1256 17.8685 41.291 17.7077 41.466 17.5441L40.4414 16.4485L39.4168 15.3529C39.2158 15.5409 39.0062 15.7439 38.7979 15.9624L39.8838 16.9973ZM40.4414 16.4485L40.5135 14.9502C40.0408 14.9275 39.5531 14.9249 39.0702 14.9416L39.1221 16.4407L39.174 17.9398C39.578 17.9258 39.9828 17.9281 40.3693 17.9468L40.4414 16.4485ZM39.1221 16.4407L39.0701 14.9416C37.816 14.985 36.5306 15.1654 35.6337 15.5313L36.2002 16.9202L36.7667 18.3091C37.176 18.1421 38.0444 17.9789 39.174 17.9398L39.1221 16.4407ZM36.2002 16.9202L35.6337 15.5312C36.0161 15.3753 36.4536 15.5578 36.6105 15.9423L35.2217 16.509L33.8329 17.0757C34.3027 18.2272 35.6173 18.7779 36.7667 18.3091L36.2002 16.9202ZM35.2217 16.509L36.6109 15.9433C36.768 16.329 36.5816 16.7648 36.2005 16.9203L35.6338 15.5315L35.0671 14.1427C33.9193 14.611 33.3631 15.9223 33.8325 17.0748L35.2217 16.509ZM35.6338 15.5315L36.2003 16.9204C36.854 16.6537 37.9313 16.481 39.1222 16.4398L39.0703 14.9407L39.0184 13.4416C37.6993 13.4873 36.2067 13.6778 35.0672 14.1426L35.6338 15.5315ZM39.0703 14.9407L39.1222 16.4398C40.3008 16.399 41.4983 16.4908 42.3621 16.6924L42.7031 15.2317L43.0441 13.771C41.8506 13.4923 40.3749 13.3946 39.0184 13.4416L39.0703 14.9407ZM42.7031 15.2317L42.3644 16.693L42.7394 16.7799L43.0781 15.3186L43.4168 13.8573L43.0418 13.7704L42.7031 15.2317ZM43.0781 15.3186L41.6926 15.8934L41.8401 16.2488L43.2256 15.6741L44.6111 15.0993L44.4636 14.7438L43.0781 15.3186ZM43.2256 15.6741L41.8397 16.248C41.9836 16.5954 42.0362 17.1364 42.0189 17.9143L43.5186 17.9475L45.0182 17.9807C45.0362 17.1693 45.0148 16.074 44.6114 15.1001L43.2256 15.6741ZM43.5186 17.9475L42.0189 17.9143C42.0016 18.6981 41.9254 19.5127 41.8823 20.5033L43.3809 20.5686L44.8794 20.6339C44.9121 19.8852 45.0012 18.749 45.0182 17.9807L43.5186 17.9475ZM43.3809 20.5686L41.8812 20.5369C41.8628 21.4096 41.8944 22.0765 42.1347 22.986L43.585 22.6028L45.0352 22.2196C44.8919 21.6773 44.8654 21.3145 44.8805 20.6003L43.3809 20.5686ZM43.585 22.6028L42.1348 22.9862C42.0289 22.5857 42.2674 22.1758 42.6675 22.0698L43.0518 23.5198L43.436 24.9697C44.6365 24.6516 45.3527 23.4205 45.0351 22.2194L43.585 22.6028ZM43.0518 23.5198L42.6684 22.0696C43.066 21.9645 43.4779 22.2003 43.5847 22.6031L42.1348 22.9875L40.6849 23.372C41.0038 24.575 42.2369 25.2867 43.4351 24.97L43.0518 23.5198ZM42.1348 22.9875L43.5849 22.6042C43.393 21.8783 43.3647 21.3632 43.3815 20.569L41.8818 20.5374L40.3822 20.5057C40.3621 21.4557 40.3951 22.276 40.6846 23.3709L42.1348 22.9875ZM41.8818 20.5374H43.3818V20.5208H41.8818H40.3818V20.5374H41.8818ZM41.8818 20.5208L43.3805 20.5852C43.4178 19.7156 43.5009 18.7264 43.5182 17.9476L42.0186 17.9143L40.5189 17.8811C40.501 18.6895 40.432 19.3204 40.3832 20.4563L41.8818 20.5208ZM42.0186 17.9143L43.5182 17.9475C43.5261 17.5899 43.5212 17.2538 43.4976 16.9445L42.002 17.0588L40.5063 17.1732C40.5202 17.3547 40.5254 17.5869 40.5189 17.8811L42.0186 17.9143ZM42.002 17.0588L41.0057 15.9375C40.642 16.2606 40.2619 16.6012 39.8987 16.9808L40.9824 18.0178L42.0662 19.0549C42.3353 18.7737 42.6311 18.5064 42.9982 18.1802L42.002 17.0588ZM40.9824 18.0178L39.8549 17.0285C39.071 17.9219 38.3887 18.9256 37.6638 20.2713L38.9844 20.9827L40.305 21.694C40.9471 20.5018 41.5061 19.6954 42.1099 19.0071L40.9824 18.0178ZM38.9844 20.9827L37.6615 20.2756L37.2455 21.0539L38.5684 21.761L39.8912 22.4681L40.3073 21.6898L38.9844 20.9827ZM38.5684 21.761L37.2506 21.0445C36.2738 22.8408 35.146 24.7093 34.0451 26.5692L35.3359 27.3333L36.6268 28.0973C37.7071 26.2721 38.8756 24.3361 39.8862 22.4775L38.5684 21.761ZM35.3359 27.3333L34.0451 26.5692C33.0116 28.3152 32.0061 30.0499 31.202 31.666L32.5449 32.3342L33.8879 33.0024C34.6384 31.4941 35.5935 29.843 36.6268 28.0973L35.3359 27.3333ZM32.5449 32.3342L31.2781 33.1374C32.758 35.4718 34.5988 38.1981 36.3184 40.7321L37.5596 39.8899L38.8008 39.0476C37.0781 36.509 35.263 33.82 33.8118 31.531L32.5449 32.3342ZM37.5596 39.8899L36.3184 40.7321C38.618 44.121 40.6663 47.1174 41.399 48.4352L42.71 47.7063L44.021 46.9774C43.2036 45.5072 41.0374 42.3438 38.8008 39.0476L37.5596 39.8899ZM42.71 47.7063L41.3989 48.4351C41.1973 48.0725 41.3285 47.616 41.6897 47.4151L42.4189 48.7258L43.1482 50.0366C44.2331 49.433 44.625 48.064 44.021 46.9775L42.71 47.7063ZM42.4189 48.7258L41.6901 47.4148C42.0483 47.2157 42.5061 47.3411 42.7095 47.707L41.3984 48.4358L40.0874 49.1646C40.6933 50.2545 42.0655 50.6385 43.1478 50.0369L42.4189 48.7258ZM41.3984 48.4358L42.7095 47.7069C41.9346 46.3131 39.827 43.2324 37.5586 39.8894L36.3174 40.7317L35.0762 41.5739C37.4081 45.0104 39.3973 47.9233 40.0874 49.1646L41.3984 48.4358ZM36.3174 40.7317L37.5586 39.8894C36.0383 37.6491 34.429 35.264 33.057 33.1335L31.7959 33.9456L30.5348 34.7577C31.9285 36.922 33.5564 39.3342 35.0762 41.5739L36.3174 40.7317ZM31.7959 33.9456L30.4178 33.3533C29.1406 36.3251 28.0219 40.0219 26.6798 45.2546L28.1328 45.6272L29.5858 45.9998C30.9205 40.7959 31.993 37.2859 33.174 34.5378L31.7959 33.9456ZM28.1328 45.6272L26.6568 45.36C26.6579 45.3542 26.6587 45.35 26.6588 45.349C26.659 45.3482 26.6591 45.3476 26.6586 45.3502C26.6583 45.3519 26.6575 45.3559 26.6566 45.3605C26.6557 45.3652 26.6545 45.3715 26.6532 45.3789L28.1289 45.6477L29.6046 45.9165C29.604 45.9201 29.6035 45.9228 29.6033 45.9238C29.6031 45.9247 29.603 45.9251 29.6033 45.9234C29.6035 45.9225 29.6043 45.9185 29.6051 45.9145C29.6059 45.9103 29.6072 45.9031 29.6088 45.8944L28.1328 45.6272ZM28.1289 45.6477L26.6532 45.3787C26.6482 45.4065 26.6407 45.4473 26.631 45.4992L28.1055 45.7747L29.58 46.0501C29.5906 45.9931 29.5989 45.9478 29.6046 45.9167L28.1289 45.6477ZM28.1055 45.7747L26.631 45.4992C26.6109 45.6068 26.5825 45.7577 26.5462 45.9412L28.0176 46.2327L29.489 46.5241C29.5285 46.3248 29.5591 46.1616 29.58 46.0501L28.1055 45.7747ZM28.0176 46.2327L26.5462 45.9412C26.4728 46.3117 26.3671 46.8182 26.2414 47.3566L27.7021 47.6975L29.1629 48.0385C29.2979 47.4598 29.4107 46.9194 29.489 46.5242L28.0176 46.2327ZM27.7021 47.6975L26.2414 47.3565C26.1153 47.8968 25.9714 48.4591 25.8199 48.9457L27.252 49.3918L28.6841 49.838C28.8664 49.2529 29.0291 48.6118 29.1629 48.0385L27.7021 47.6975ZM27.252 49.3918L25.8199 48.9456C25.6624 49.451 25.5159 49.8111 25.4029 49.9904L26.6719 50.7903L27.9408 51.5901C28.2795 51.0529 28.52 50.3646 28.684 49.8381L27.252 49.3918ZM26.6719 50.7903L25.4032 49.99C25.6244 49.6394 26.0867 49.5351 26.4367 49.7558L25.6367 51.0247L24.8368 52.2936C25.8874 52.9559 27.2775 52.6417 27.9406 51.5905L26.6719 50.7903ZM25.6367 51.0247L26.4379 49.7565C26.7895 49.9786 26.892 50.4418 26.6723 50.7903L25.4033 49.9905L24.1343 49.1907C23.4733 50.2395 23.7842 51.6286 24.8356 52.2928L25.6367 51.0247ZM25.4033 49.9905L26.6723 50.7903C26.8992 50.4304 27.092 49.9034 27.2514 49.3918L25.8193 48.9456L24.3873 48.4993C24.3165 48.7265 24.2534 48.9044 24.2015 49.0342C24.144 49.1782 24.119 49.215 24.1344 49.1907L25.4033 49.9905ZM25.8193 48.9456L27.2514 49.3917C27.4181 48.8567 27.5726 48.2559 27.7029 47.6977L26.2422 47.3567L24.7815 47.0157C24.6601 47.5355 24.5243 48.0596 24.3872 48.4994L25.8193 48.9456ZM26.2422 47.3567L27.7029 47.6977C27.8334 47.1388 27.9416 46.6152 28.0173 46.2332L26.5459 45.9417L25.0745 45.6501C25.0028 46.0118 24.9018 46.5003 24.7815 47.0157L26.2422 47.3567ZM26.5459 45.9417L28.0173 46.2331C28.0542 46.0467 28.0852 45.888 28.1063 45.7748L26.6318 45.4993L25.1574 45.2238C25.1393 45.3203 25.111 45.466 25.0745 45.6502L26.5459 45.9417ZM26.6318 45.4993L28.1063 45.7747C28.1129 45.7395 28.1183 45.7089 28.1223 45.6859C28.1233 45.6802 28.1242 45.6748 28.125 45.6702C28.1258 45.6653 28.1265 45.6615 28.1271 45.6579C28.1277 45.6543 28.1282 45.6517 28.1285 45.6498C28.1289 45.6478 28.129 45.647 28.129 45.647L26.6533 45.3782L25.1776 45.1094C25.1752 45.1225 25.173 45.1352 25.1713 45.1447C25.1705 45.1496 25.1696 45.1547 25.1688 45.1592C25.168 45.164 25.1673 45.1683 25.1665 45.1728C25.1634 45.1904 25.1605 45.2067 25.1573 45.2238L26.6318 45.4993ZM26.6533 45.3782L28.129 45.6472C28.128 45.6527 28.1273 45.6563 28.1278 45.6538C28.128 45.6525 28.128 45.6526 28.1284 45.6505C28.1287 45.649 28.1292 45.6466 28.1297 45.6439C28.1306 45.6393 28.1327 45.6286 28.1351 45.6157L26.6592 45.3479L25.1833 45.0801C25.185 45.0706 25.1864 45.0637 25.1864 45.0633C25.1866 45.0627 25.1866 45.0626 25.1864 45.0634C25.1864 45.0636 25.1859 45.0661 25.1856 45.0674C25.1841 45.0749 25.1811 45.0903 25.1776 45.1092L26.6533 45.3782ZM26.6592 45.3479L28.1355 45.6136C28.1441 45.5656 28.1486 45.5272 28.1507 45.5087C28.1517 45.4991 28.1525 45.4913 28.1526 45.4906C28.1527 45.4893 28.1525 45.4914 28.1523 45.4936C28.152 45.4959 28.1514 45.5021 28.1505 45.5102L26.6602 45.3401L25.1698 45.17C25.1689 45.1785 25.1682 45.1852 25.1679 45.1879C25.1676 45.1906 25.1673 45.1933 25.1674 45.1926C25.1674 45.1926 25.1674 45.1924 25.1675 45.1923C25.1675 45.1921 25.1675 45.1918 25.1675 45.1915C25.1676 45.1908 25.1677 45.1898 25.1678 45.1886C25.1681 45.1862 25.1685 45.1826 25.1689 45.1782C25.1707 45.1624 25.1748 45.127 25.1829 45.0822L26.6592 45.3479ZM26.6602 45.3401L28.0018 46.0109L28.0028 46.009L26.6611 45.3381L25.3195 44.6673L25.3185 44.6693L26.6602 45.3401ZM26.6611 45.3381L28.1393 45.593L28.1442 45.5647L26.666 45.3098L25.1878 45.055L25.1829 45.0833L26.6611 45.3381ZM26.666 45.3098L28.1212 45.6736L28.1281 45.6463L26.6729 45.2825L25.2176 44.9187L25.2108 44.946L26.666 45.3098ZM26.6729 45.2825L28.1259 45.655C29.567 40.0334 30.7274 36.2838 32.0737 33.3198L30.708 32.6995L29.3423 32.0791C27.8809 35.2965 26.6681 39.2607 25.2198 44.91L26.6729 45.2825ZM30.708 32.6995L32.0737 33.3198C32.1129 33.2335 32.1351 33.1901 32.1942 33.0633L30.835 32.429L29.4757 31.7946C29.4502 31.8493 29.3847 31.9857 29.3423 32.0791L30.708 32.6995ZM30.835 32.429L32.1079 31.6355C31.7892 31.1242 31.4947 30.6454 31.2307 30.1988L29.9395 30.9622L28.6482 31.7255C28.93 32.2022 29.239 32.7041 29.562 33.2224L30.835 32.429ZM29.9395 30.9622L31.2307 30.1988C29.5874 27.4192 28.0695 25.1012 26.798 22.3955L25.4404 23.0334L24.0829 23.6714C25.4347 26.5482 27.0903 29.0903 28.6482 31.7255L29.9395 30.9622ZM25.4404 23.0334L26.8024 22.4049L26.7907 22.3795L25.4287 23.0081L24.0668 23.6366L24.0785 23.662L25.4404 23.0334ZM25.4287 23.0081L26.8178 22.4421L26.8071 22.4157L25.418 22.9817L24.0288 23.5476L24.0396 23.574L25.4287 23.0081ZM25.418 22.9817L26.8198 22.4481C26.0915 20.5347 25.4425 18.8521 25.051 17.6435L23.624 18.1057L22.197 18.568C22.6184 19.8689 23.3051 21.6473 24.0161 23.5153L25.418 22.9817ZM23.624 18.1057L25.0577 17.6646L25.0499 17.6392L23.6162 18.0803L22.1825 18.5215L22.1904 18.5468L23.624 18.1057ZM23.6162 18.0803L25.0682 17.7039L25.0614 17.6775L23.6094 18.054L22.1574 18.4304L22.1642 18.4568L23.6162 18.0803ZM23.6094 18.054L25.0663 17.6973C24.9694 17.3014 24.9209 16.9067 24.9199 16.2189L23.4199 16.2209L21.9199 16.223C21.9211 17.0766 21.9835 17.7208 22.1524 18.4107L23.6094 18.054ZM23.4199 16.2209L22.026 15.6668C21.84 16.1348 21.6335 16.6815 21.4216 17.2634L22.8311 17.7766L24.2405 18.2898C24.4454 17.7271 24.6414 17.2089 24.8138 16.7751L23.4199 16.2209ZM22.8311 17.7766L21.4216 17.2634C21.2017 17.8674 20.9794 18.4961 20.7714 19.084L22.1855 19.5842L23.5997 20.0845C23.8086 19.4938 24.0262 18.8785 24.2405 18.2898L22.8311 17.7766ZM22.1855 19.5842L20.7714 19.084C20.5625 19.6744 20.368 20.2251 20.2029 20.6783L21.6123 21.1917L23.0217 21.705C23.1927 21.2357 23.3926 20.6697 23.5997 20.0845L22.1855 19.5842ZM21.6123 21.1917L20.203 20.6779C20.3447 20.2892 20.7742 20.0886 21.1637 20.2305L20.6504 21.6399L20.137 23.0493C21.3049 23.4747 22.5962 22.8722 23.0216 21.7054L21.6123 21.1917ZM20.6504 21.6399L21.1648 20.2308C21.5531 20.3726 21.7534 20.8013 21.6118 21.1907L20.2021 20.678L18.7925 20.1652C18.3679 21.3325 18.9701 22.6234 20.136 23.0489L20.6504 21.6399ZM20.2021 20.678L21.6116 21.1913C21.7793 20.7309 21.9767 20.175 22.1856 19.5845L20.7715 19.0842L19.3574 18.584C19.1483 19.175 18.9551 19.7189 18.7927 20.1646L20.2021 20.678ZM20.7715 19.0842L22.1856 19.5845C22.3942 18.9949 22.6143 18.3733 22.8314 17.7771L21.4219 17.2639L20.0124 16.7508C19.7899 17.3617 19.5654 17.9958 19.3574 18.584L20.7715 19.0842ZM21.4219 17.2639L22.8314 17.7771C23.275 16.5587 23.6795 15.5195 23.9308 15.0651L22.6182 14.3391L21.3056 13.6131C20.9162 14.317 20.4292 15.6058 20.0124 16.7508L21.4219 17.2639ZM22.6182 14.3391L23.9286 15.0689L24.1054 14.7516L22.7949 14.0217L21.4844 13.2919L21.3077 13.6093L22.6182 14.3391ZM22.7949 14.0217L23.0409 15.5014L23.3993 15.4419L23.1533 13.9622L22.9074 12.4825L22.549 12.542L22.7949 14.0217Z" fill="white" mask="url(#path-1-outside-1_34_142)"/>
</svg>
