<svg width="64" height="64" viewBox="0 0 64 64" fill="none" xmlns="http://www.w3.org/2000/svg">
<mask id="path-1-outside-1_34_152" maskUnits="userSpaceOnUse" x="23.9324" y="7.59961" width="17" height="46" fill="black">
<rect fill="white" x="23.9324" y="7.59961" width="17" height="46"/>
<path d="M34.1951 10.918C34.8009 11.3958 35.2528 12.1329 35.6267 12.8369C35.989 13.519 36.4061 14.4326 36.7878 15.1904C37.1549 15.8798 37.4184 16.2943 37.9187 16.8115C38.302 17.2083 38.2916 17.8407 37.8953 18.2246C37.7695 18.3463 37.6195 18.4279 37.4617 18.4707C37.5248 18.7463 37.5787 18.9936 37.6306 19.2412C37.7435 19.7814 37.3963 20.3104 36.8562 20.4238C36.3158 20.5367 35.7858 20.1908 35.6726 19.6504C35.5446 19.0393 35.4238 18.4629 35.1248 17.4307C34.786 16.3332 34.4233 15.379 34.0554 14.6318C33.7767 15.1016 33.641 15.4048 33.5378 15.7178C33.423 16.194 33.3047 16.7498 33.1794 17.3682C33.1792 17.5119 33.1799 17.6592 33.1824 17.8105L33.199 18.6963C33.2248 20.7833 33.1518 23.0098 33.1003 25.1465C33.041 27.6105 33.0106 29.9553 33.1775 31.9375C33.4482 35.1516 34.2607 38.9627 35.7429 44.5508C35.744 44.5538 35.7456 44.5571 35.7468 44.5605C35.7566 44.5892 35.7699 44.6316 35.7878 44.6846C35.8237 44.7909 35.8746 44.9435 35.9353 45.1299C36.0567 45.5028 36.2186 46.0159 36.3787 46.5703C36.538 47.1224 36.6993 47.7279 36.8171 48.2852C36.9293 48.8156 37.0237 49.396 36.9998 49.8545C36.9709 50.4059 36.5004 50.8295 35.949 50.8008C35.3976 50.7719 34.9739 50.3015 35.0027 49.75C35.0118 49.5743 34.9696 49.2171 34.8601 48.6992C34.7563 48.2081 34.6104 47.6528 34.4578 47.124C34.3057 46.5974 34.1507 46.1077 34.0339 45.749C33.9757 45.5702 33.9272 45.4246 33.8933 45.3242C33.8764 45.2741 33.8622 45.235 33.8533 45.209C33.8489 45.1963 33.8467 45.186 33.8445 45.1797C33.8434 45.1767 33.8421 45.1743 33.8416 45.1729L33.8406 45.1719L33.8289 45.1367L33.8191 45.0996C33.3024 43.153 32.8643 41.4049 32.4978 39.8105C32.5169 40.2475 32.5351 40.683 32.5544 41.1143C32.7351 45.1405 32.9181 48.8862 32.8474 50.4941C32.8229 51.0457 32.355 51.4735 31.8035 51.4492C31.252 51.4247 30.8253 50.9577 30.8494 50.4062C30.915 48.9147 30.7404 45.306 30.5564 41.2041C30.3745 37.1487 30.1862 32.6629 30.241 29.5254C30.2956 26.3948 30.2155 23.4721 30.5623 20.3916L30.5671 20.3545L30.574 20.3164C30.7874 19.1925 30.9898 18.1175 31.1814 17.1621C31.19 16.3352 31.2419 15.5971 31.3396 14.8975C30.8935 15.2524 30.4372 15.6197 30.0027 15.9707C29.5184 16.3619 29.0573 16.7344 28.6716 17.04C28.2389 17.383 27.6094 17.3114 27.2664 16.8789C27.0153 16.5622 26.9874 16.1398 27.1599 15.8018C26.8655 15.445 26.8504 14.9192 27.1501 14.543C27.7811 13.7514 28.8434 12.9466 29.9265 12.29C31.0235 11.6251 32.2555 11.0421 33.2976 10.7412L33.7917 10.5996L34.1951 10.918Z"/>
</mask>
<path d="M34.1951 10.918C34.8009 11.3958 35.2528 12.1329 35.6267 12.8369C35.989 13.519 36.4061 14.4326 36.7878 15.1904C37.1549 15.8798 37.4184 16.2943 37.9187 16.8115C38.302 17.2083 38.2916 17.8407 37.8953 18.2246C37.7695 18.3463 37.6195 18.4279 37.4617 18.4707C37.5248 18.7463 37.5787 18.9936 37.6306 19.2412C37.7435 19.7814 37.3963 20.3104 36.8562 20.4238C36.3158 20.5367 35.7858 20.1908 35.6726 19.6504C35.5446 19.0393 35.4238 18.4629 35.1248 17.4307C34.786 16.3332 34.4233 15.379 34.0554 14.6318C33.7767 15.1016 33.641 15.4048 33.5378 15.7178C33.423 16.194 33.3047 16.7498 33.1794 17.3682C33.1792 17.5119 33.1799 17.6592 33.1824 17.8105L33.199 18.6963C33.2248 20.7833 33.1518 23.0098 33.1003 25.1465C33.041 27.6105 33.0106 29.9553 33.1775 31.9375C33.4482 35.1516 34.2607 38.9627 35.7429 44.5508C35.744 44.5538 35.7456 44.5571 35.7468 44.5605C35.7566 44.5892 35.7699 44.6316 35.7878 44.6846C35.8237 44.7909 35.8746 44.9435 35.9353 45.1299C36.0567 45.5028 36.2186 46.0159 36.3787 46.5703C36.538 47.1224 36.6993 47.7279 36.8171 48.2852C36.9293 48.8156 37.0237 49.396 36.9998 49.8545C36.9709 50.4059 36.5004 50.8295 35.949 50.8008C35.3976 50.7719 34.9739 50.3015 35.0027 49.75C35.0118 49.5743 34.9696 49.2171 34.8601 48.6992C34.7563 48.2081 34.6104 47.6528 34.4578 47.124C34.3057 46.5974 34.1507 46.1077 34.0339 45.749C33.9757 45.5702 33.9272 45.4246 33.8933 45.3242C33.8764 45.2741 33.8622 45.235 33.8533 45.209C33.8489 45.1963 33.8467 45.186 33.8445 45.1797C33.8434 45.1767 33.8421 45.1743 33.8416 45.1729L33.8406 45.1719L33.8289 45.1367L33.8191 45.0996C33.3024 43.153 32.8643 41.4049 32.4978 39.8105C32.5169 40.2475 32.5351 40.683 32.5544 41.1143C32.7351 45.1405 32.9181 48.8862 32.8474 50.4941C32.8229 51.0457 32.355 51.4735 31.8035 51.4492C31.252 51.4247 30.8253 50.9577 30.8494 50.4062C30.915 48.9147 30.7404 45.306 30.5564 41.2041C30.3745 37.1487 30.1862 32.6629 30.241 29.5254C30.2956 26.3948 30.2155 23.4721 30.5623 20.3916L30.5671 20.3545L30.574 20.3164C30.7874 19.1925 30.9898 18.1175 31.1814 17.1621C31.19 16.3352 31.2419 15.5971 31.3396 14.8975C30.8935 15.2524 30.4372 15.6197 30.0027 15.9707C29.5184 16.3619 29.0573 16.7344 28.6716 17.04C28.2389 17.383 27.6094 17.3114 27.2664 16.8789C27.0153 16.5622 26.9874 16.1398 27.1599 15.8018C26.8655 15.445 26.8504 14.9192 27.1501 14.543C27.7811 13.7514 28.8434 12.9466 29.9265 12.29C31.0235 11.6251 32.2555 11.0421 33.2976 10.7412L33.7917 10.5996L34.1951 10.918Z" fill="black"/>
<path d="M34.1951 10.918L32.9559 12.4878L32.9565 12.4883L34.1951 10.918ZM35.6267 12.8369L37.393 11.8988L37.393 11.8988L35.6267 12.8369ZM36.7878 15.1904L35.0016 16.0901L35.0118 16.1104L35.0225 16.1304L36.7878 15.1904ZM37.9187 16.8115L39.3572 15.422L39.3562 15.4209L37.9187 16.8115ZM37.8953 18.2246L39.2858 19.6621L39.2867 19.6612L37.8953 18.2246ZM37.4617 18.4707L36.9386 16.5403L35.0829 17.0431L35.5122 18.9173L37.4617 18.4707ZM37.6306 19.2412L39.5884 18.8323L39.5881 18.8312L37.6306 19.2412ZM36.8562 20.4238L37.2652 22.3816L37.2672 22.3812L36.8562 20.4238ZM35.6726 19.6504L37.6301 19.2404L37.6301 19.2403L35.6726 19.6504ZM35.1248 17.4307L37.0458 16.8741L37.0409 16.8574L37.0358 16.8408L35.1248 17.4307ZM34.0554 14.6318L35.8497 13.7484L34.2191 10.4363L32.3354 13.6114L34.0554 14.6318ZM33.5378 15.7178L31.6385 15.0914L31.6128 15.1692L31.5936 15.2489L33.5378 15.7178ZM33.1794 17.3682L31.2192 16.9712L31.1798 17.1657L31.1794 17.3643L33.1794 17.3682ZM33.1824 17.8105L31.1826 17.8429L31.1827 17.848L33.1824 17.8105ZM33.199 18.6963L35.1989 18.6715L35.1986 18.6588L33.199 18.6963ZM33.1003 25.1465L31.1009 25.0983L31.1009 25.0983L33.1003 25.1465ZM33.1775 31.9375L31.1845 32.1053L31.1845 32.1053L33.1775 31.9375ZM35.7429 44.5508L33.8098 45.0636L33.8281 45.1326L33.8513 45.2002L35.7429 44.5508ZM35.7468 44.5605L37.6388 43.9121L37.6374 43.9081L35.7468 44.5605ZM35.7878 44.6846L33.893 45.3244L33.893 45.3245L35.7878 44.6846ZM35.9353 45.1299L37.837 44.5106L37.837 44.5106L35.9353 45.1299ZM36.3787 46.5703L38.3002 46.0156L38.3002 46.0156L36.3787 46.5703ZM36.8171 48.2852L38.7739 47.8715L38.7739 47.8714L36.8171 48.2852ZM36.9998 49.8545L38.997 49.959L38.997 49.9586L36.9998 49.8545ZM35.949 50.8008L35.8443 52.798L35.845 52.7981L35.949 50.8008ZM35.0027 49.75L37 49.8542L37 49.8536L35.0027 49.75ZM34.8601 48.6992L36.8169 48.2856L36.8168 48.2855L34.8601 48.6992ZM34.4578 47.124L36.3793 46.5693L36.3793 46.5693L34.4578 47.124ZM34.0339 45.749L35.9357 45.1298L35.9356 45.1298L34.0339 45.749ZM33.8933 45.3242L35.7882 44.6843L35.7882 44.6843L33.8933 45.3242ZM33.8533 45.209L31.9607 45.8557L31.9613 45.8574L33.8533 45.209ZM33.8445 45.1797L35.7351 44.5274L35.7309 44.5151L35.7265 44.5028L33.8445 45.1797ZM33.8416 45.1729L35.7116 44.4636L35.5593 44.0622L35.2558 43.7586L33.8416 45.1729ZM33.8406 45.1719L31.9432 45.8043L32.0925 46.2522L32.4264 46.5861L33.8406 45.1719ZM33.8289 45.1367L31.8947 45.6457L31.9111 45.708L31.9315 45.7692L33.8289 45.1367ZM33.8191 45.0996L35.7532 44.5906L35.7522 44.5866L33.8191 45.0996ZM32.4978 39.8105L34.447 39.3624L30.4997 39.8979L32.4978 39.8105ZM32.5544 41.1143L30.5565 41.2039L30.5565 41.2039L32.5544 41.1143ZM32.8474 50.4941L34.8454 50.5831L34.8455 50.582L32.8474 50.4941ZM31.8035 51.4492L31.7147 53.4472L31.7155 53.4473L31.8035 51.4492ZM30.8494 50.4062L28.8513 50.3183L28.8513 50.319L30.8494 50.4062ZM30.5564 41.2041L32.5544 41.1145L32.5544 41.1145L30.5564 41.2041ZM30.241 29.5254L28.2413 29.4905L28.2413 29.4905L30.241 29.5254ZM30.5623 20.3916L28.5793 20.1307L28.5769 20.1493L28.5748 20.1679L30.5623 20.3916ZM30.5671 20.3545L28.5986 20.0012L28.5903 20.0472L28.5842 20.0936L30.5671 20.3545ZM30.574 20.3164L28.6091 19.9433L28.6072 19.9532L28.6054 19.9631L30.574 20.3164ZM31.1814 17.1621L33.1424 17.5553L33.1793 17.371L33.1813 17.183L31.1814 17.1621ZM31.3396 14.8975L33.3204 15.1742L34.0134 10.2144L30.0944 13.3324L31.3396 14.8975ZM30.0027 15.9707L31.2593 17.5266L31.2593 17.5266L30.0027 15.9707ZM28.6716 17.04L29.9138 18.6075L29.9138 18.6075L28.6716 17.04ZM27.2664 16.8789L25.6989 18.1211L25.6995 18.1218L27.2664 16.8789ZM27.1599 15.8018L28.9413 16.7109L29.5381 15.5415L28.7025 14.5289L27.1599 15.8018ZM27.1501 14.543L25.5862 13.2963L25.5859 13.2968L27.1501 14.543ZM29.9265 12.29L28.8897 10.5797L28.8897 10.5798L29.9265 12.29ZM33.2976 10.7412L32.7467 8.81859L32.7428 8.81969L33.2976 10.7412ZM33.7917 10.5996L35.0309 9.02975L34.2263 8.3946L33.2408 8.67699L33.7917 10.5996ZM34.1951 10.918L32.9565 12.4883C33.2076 12.6864 33.4972 13.0913 33.8604 13.7751L35.6267 12.8369L37.393 11.8988C37.0083 11.1745 36.3941 10.1052 35.4337 9.34765L34.1951 10.918ZM35.6267 12.8369L33.8604 13.775C34.225 14.4616 34.5519 15.1973 35.0016 16.0901L36.7878 15.1904L38.574 14.2907C38.2604 13.668 37.7529 12.5764 37.393 11.8988L35.6267 12.8369ZM36.7878 15.1904L35.0225 16.1304C35.4376 16.9101 35.8032 17.5012 36.4812 18.2021L37.9187 16.8115L39.3562 15.4209C39.0335 15.0874 38.8722 14.8496 38.5532 14.2505L36.7878 15.1904ZM37.9187 16.8115L36.4802 18.201C36.0971 17.8044 36.1072 17.1721 36.5038 16.788L37.8953 18.2246L39.2867 19.6612C40.4759 18.5094 40.507 16.6123 39.3572 15.422L37.9187 16.8115ZM37.8953 18.2246L36.5047 16.7871C36.6316 16.6644 36.7836 16.5823 36.9386 16.5403L37.4617 18.4707L37.9847 20.4011C38.4554 20.2736 38.9074 20.0281 39.2858 19.6621L37.8953 18.2246ZM37.4617 18.4707L35.5122 18.9173C35.5724 19.1801 35.6237 19.4152 35.6731 19.6512L37.6306 19.2412L39.5881 18.8312C39.5338 18.572 39.4772 18.3125 39.4112 18.0242L37.4617 18.4707ZM37.6306 19.2412L35.6729 19.6501C35.5592 19.1058 35.9092 18.5791 36.4452 18.4665L36.8562 20.4238L37.2672 22.3812C38.8834 22.0418 39.9277 20.457 39.5884 18.8323L37.6306 19.2412ZM36.8562 20.4238L36.4472 18.4661C36.9857 18.3536 37.5165 18.6981 37.6301 19.2404L35.6726 19.6504L33.7151 20.0604C34.0551 21.6835 35.646 22.7199 37.2652 22.3816L36.8562 20.4238ZM35.6726 19.6504L37.6301 19.2403C37.4977 18.608 37.365 17.9761 37.0458 16.8741L35.1248 17.4307L33.2038 17.9872C33.4826 18.9498 33.5915 19.4706 33.7151 20.0604L35.6726 19.6504ZM35.1248 17.4307L37.0358 16.8408C36.6779 15.6812 36.2792 14.6206 35.8497 13.7484L34.0554 14.6318L32.2611 15.5153C32.5674 16.1373 32.8942 16.9851 33.2137 18.0205L35.1248 17.4307ZM34.0554 14.6318L32.3354 13.6114C32.0009 14.175 31.7969 14.6109 31.6385 15.0914L33.5378 15.7178L35.4372 16.3442C35.4852 16.1988 35.5525 16.0282 35.7755 15.6523L34.0554 14.6318ZM33.5378 15.7178L31.5936 15.2489C31.4701 15.7609 31.346 16.3451 31.2192 16.9712L33.1794 17.3682L35.1396 17.7652C35.2633 17.1546 35.3759 16.627 35.4821 16.1867L33.5378 15.7178ZM33.1794 17.3682L31.1794 17.3643C31.1791 17.5177 31.18 17.6773 31.1826 17.8429L33.1824 17.8105L35.1821 17.7782C35.1799 17.6411 35.1792 17.5061 35.1794 17.3721L33.1794 17.3682ZM33.1824 17.8105L31.1827 17.848L31.1993 18.7338L33.199 18.6963L35.1986 18.6588L35.182 17.7731L33.1824 17.8105ZM33.199 18.6963L31.1991 18.721C31.2244 20.7608 31.153 22.9347 31.1009 25.0983L33.1003 25.1465L35.0998 25.1946C35.1506 23.085 35.2252 20.8058 35.1988 18.6715L33.199 18.6963ZM33.1003 25.1465L31.1009 25.0983C31.0418 27.5528 31.0073 30.0004 31.1845 32.1053L33.1775 31.9375L35.1704 31.7697C35.0139 29.9102 35.0402 27.6682 35.0998 25.1946L33.1003 25.1465ZM33.1775 31.9375L31.1845 32.1053C31.4708 35.5043 32.3227 39.4575 33.8098 45.0636L35.7429 44.5508L37.6761 44.038C36.1986 38.4679 35.4255 34.7988 35.1704 31.7697L33.1775 31.9375ZM35.7429 44.5508L33.8513 45.2002C33.86 45.2257 33.8682 45.2478 33.875 45.2655C33.8817 45.2832 33.8877 45.2981 33.8922 45.3091C33.8967 45.32 33.9004 45.3288 33.9025 45.3339C33.9036 45.3365 33.9045 45.3386 33.905 45.3398C33.9055 45.3408 33.906 45.342 33.9058 45.3417C33.9058 45.3417 33.9058 45.3416 33.9057 45.3415C33.9057 45.3414 33.9057 45.3413 33.9056 45.3411C33.9054 45.3408 33.9052 45.3402 33.9049 45.3396C33.9044 45.3383 33.9035 45.3362 33.9024 45.3335C33.9002 45.3284 33.8967 45.3201 33.8925 45.3097C33.8883 45.2993 33.8829 45.2857 33.8768 45.2698C33.8708 45.2539 33.8638 45.2348 33.8562 45.213L35.7468 44.5605L37.6374 43.9081C37.6296 43.8855 37.6223 43.8655 37.6159 43.8487C37.6095 43.832 37.6038 43.8176 37.5992 43.8063C37.5947 43.7951 37.5908 43.7859 37.5883 43.78C37.586 43.7744 37.584 43.7697 37.5838 43.7694C37.5835 43.7686 37.5838 43.7694 37.5841 43.77C37.5845 43.7708 37.5852 43.7725 37.5861 43.7747C37.5879 43.779 37.5913 43.787 37.5954 43.7971C37.5996 43.8074 37.6053 43.8215 37.6117 43.8384C37.6182 43.8553 37.6261 43.8766 37.6346 43.9014L35.7429 44.5508ZM35.7468 44.5605L33.8549 45.209C33.8535 45.2051 33.8533 45.2044 33.8552 45.2101C33.8571 45.2158 33.8592 45.2222 33.863 45.234C33.87 45.2554 33.8805 45.2876 33.893 45.3244L35.7878 44.6846L37.6827 44.0447C37.6773 44.0286 37.6722 44.013 37.6656 43.9928C37.6626 43.9838 37.6585 43.971 37.6545 43.959C37.6506 43.947 37.645 43.9303 37.6388 43.9121L35.7468 44.5605ZM35.7878 44.6846L33.893 45.3245C33.9266 45.424 33.9752 45.5697 34.0336 45.7492L35.9353 45.1299L37.837 44.5106C37.774 44.3172 37.7209 44.1578 37.6827 44.0447L35.7878 44.6846ZM35.9353 45.1299L34.0336 45.7491C34.1503 46.1075 34.305 46.5982 34.4571 47.1251L36.3787 46.5703L38.3002 46.0156C38.1322 45.4336 37.9632 44.8981 37.837 44.5106L35.9353 45.1299ZM36.3787 46.5703L34.4571 47.125C34.6098 47.654 34.7566 48.2081 34.8604 48.6989L36.8171 48.2852L38.7739 47.8714C38.642 47.2478 38.4662 46.5907 38.3002 46.0156L36.3787 46.5703ZM36.8171 48.2852L34.8604 48.6988C34.9697 49.2158 35.0117 49.5742 35.0025 49.7504L36.9998 49.8545L38.997 49.9586C39.0357 49.2179 38.8889 48.4154 38.7739 47.8715L36.8171 48.2852ZM36.9998 49.8545L35.0025 49.75C35.0314 49.1979 35.5022 48.7748 36.0529 48.8035L35.949 50.8008L35.845 52.7981C37.4986 52.8841 38.9104 51.6139 38.997 49.959L36.9998 49.8545ZM35.949 50.8008L36.0536 48.8035C36.6053 48.8324 37.0287 49.3029 37 49.8542L35.0027 49.75L33.0054 49.6458C32.9191 51.3 34.1899 52.7113 35.8443 52.798L35.949 50.8008ZM35.0027 49.75L37 49.8536C37.0239 49.3922 36.9274 48.8084 36.8169 48.2856L34.8601 48.6992L32.9033 49.1128C32.9502 49.3347 32.9781 49.5009 32.9929 49.6132C33.0002 49.669 33.0031 49.7025 33.004 49.7166C33.0053 49.736 33.0022 49.7073 33.0054 49.6464L35.0027 49.75ZM34.8601 48.6992L36.8168 48.2855C36.6994 47.7302 36.5396 47.1245 36.3793 46.5693L34.4578 47.124L32.5362 47.6788C32.6812 48.181 32.8131 48.686 32.9034 49.113L34.8601 48.6992ZM34.4578 47.124L36.3793 46.5693C36.219 46.014 36.0567 45.5014 35.9357 45.1298L34.0339 45.749L32.1322 46.3683C32.2448 46.7139 32.3925 47.1809 32.5362 47.6788L34.4578 47.124ZM34.0339 45.749L35.9356 45.1298C35.8752 44.9443 35.8245 44.7918 35.7882 44.6843L33.8933 45.3242L31.9984 45.9641C32.0299 46.0574 32.0762 46.1961 32.1322 46.3683L34.0339 45.749ZM33.8933 45.3242L35.7882 44.6843C35.7759 44.6481 35.7651 44.6171 35.7572 44.5945C35.7552 44.5889 35.7533 44.5836 35.7518 44.5792C35.7501 44.5745 35.7489 44.571 35.7478 44.5678C35.7453 44.5607 35.7448 44.5594 35.7452 44.5606L33.8533 45.209L31.9613 45.8574C31.9662 45.8716 31.9708 45.8849 31.974 45.894C31.9757 45.8989 31.9775 45.9039 31.979 45.9081C31.9806 45.9126 31.982 45.9166 31.9834 45.9206C31.989 45.9365 31.9937 45.9502 31.9985 45.9642L33.8933 45.3242ZM33.8533 45.209L35.7458 44.5623C35.7622 44.6101 35.7725 44.6475 35.7743 44.6538C35.7745 44.6545 35.7746 44.6549 35.7745 44.6546C35.7744 44.6542 35.7745 44.6545 35.7743 44.6538C35.7742 44.6534 35.774 44.6528 35.7738 44.6521C35.7732 44.6498 35.7713 44.643 35.7689 44.6347C35.7665 44.6263 35.7626 44.6127 35.7575 44.596C35.7524 44.5796 35.7449 44.5558 35.7351 44.5274L33.8445 45.1797L31.9538 45.832C31.9446 45.8052 31.9376 45.7831 31.9332 45.7685C31.9286 45.7536 31.9252 45.7419 31.9234 45.7356C31.9216 45.7294 31.9203 45.7247 31.9203 45.7247C31.9203 45.7246 31.9203 45.7245 31.9203 45.7247C31.9204 45.7248 31.9204 45.7249 31.9204 45.7251C31.9205 45.7252 31.9205 45.7254 31.9206 45.7256C31.9208 45.7265 31.9213 45.7282 31.9218 45.7301C31.9263 45.7463 31.94 45.7951 31.9607 45.8557L33.8533 45.209ZM33.8445 45.1797L35.7265 44.5028C35.7114 44.461 35.6972 44.4258 35.6859 44.3991C35.6748 44.3728 35.6654 44.3521 35.6609 44.3423C35.6589 44.3379 35.657 44.3338 35.6574 44.3347C35.6574 44.3347 35.6576 44.335 35.6578 44.3355C35.658 44.3359 35.6583 44.3366 35.6587 44.3375C35.6595 44.3391 35.6608 44.342 35.6624 44.3456C35.6654 44.3522 35.6716 44.3658 35.679 44.3832C35.6829 44.3922 35.6877 44.4034 35.693 44.4164C35.6983 44.4294 35.7046 44.4453 35.7116 44.4636L33.8416 45.1729L31.9715 45.8821C31.9785 45.9006 31.985 45.9167 31.9903 45.9298C31.9957 45.943 32.0006 45.9545 32.0045 45.9637C32.0122 45.9815 32.0186 45.9956 32.0218 46.0026C32.0235 46.0064 32.025 46.0096 32.0258 46.0115C32.0267 46.0133 32.0274 46.0148 32.0275 46.015C32.0281 46.0165 32.0265 46.0129 32.0247 46.009C32.0208 46.0004 32.0119 45.981 32.0014 45.956C31.9906 45.9306 31.977 45.8969 31.9625 45.8566L33.8445 45.1797ZM33.8416 45.1729L35.2558 43.7586L35.2548 43.7577L33.8406 45.1719L32.4264 46.5861L32.4273 46.5871L33.8416 45.1729ZM33.8406 45.1719L35.7379 44.5394L35.7262 44.5043L33.8289 45.1367L31.9315 45.7692L31.9432 45.8043L33.8406 45.1719ZM33.8289 45.1367L35.763 44.6277L35.7532 44.5906L33.8191 45.0996L31.8849 45.6086L31.8947 45.6457L33.8289 45.1367ZM33.8191 45.0996L35.7522 44.5866C35.2396 42.6551 34.8072 40.9295 34.447 39.3624L32.4978 39.8105L30.5486 40.2587C30.9214 41.8803 31.3653 43.6508 31.886 45.6127L33.8191 45.0996ZM32.4978 39.8105L30.4997 39.8979C30.5185 40.3287 30.5371 40.7721 30.5565 41.2039L32.5544 41.1143L34.5524 41.0246C34.5331 40.5939 34.5153 40.1663 34.4959 39.7232L32.4978 39.8105ZM32.5544 41.1143L30.5565 41.2039C30.7404 45.3049 30.915 48.9145 30.8493 50.4062L32.8474 50.4941L34.8455 50.582C34.9213 48.858 34.7297 44.976 34.5524 41.0246L32.5544 41.1143ZM32.8474 50.4941L30.8494 50.4052C30.874 49.8527 31.3408 49.4269 31.8914 49.4512L31.8035 51.4492L31.7155 53.4473C33.3693 53.5201 34.7717 52.2386 34.8454 50.5831L32.8474 50.4941ZM31.8035 51.4492L31.8923 49.4512C32.446 49.4758 32.8714 49.9443 32.8475 50.4935L30.8494 50.4062L28.8513 50.319C28.7791 51.9711 30.0581 53.3736 31.7147 53.4472L31.8035 51.4492ZM30.8494 50.4062L32.8474 50.4942C32.9182 48.8863 32.735 45.1404 32.5544 41.1145L30.5564 41.2041L28.5584 41.2937C28.7458 45.4716 28.9118 48.943 28.8513 50.3183L30.8494 50.4062ZM30.5564 41.2041L32.5544 41.1145C32.3716 37.041 32.1873 32.6227 32.2407 29.5603L30.241 29.5254L28.2413 29.4905C28.1852 32.703 28.3773 37.2564 28.5584 41.2937L30.5564 41.2041ZM30.241 29.5254L32.2407 29.5603C32.2972 26.3169 32.2171 23.5705 32.5497 20.6153L30.5623 20.3916L28.5748 20.1679C28.214 23.3738 28.2939 26.4726 28.2413 29.4905L30.241 29.5254ZM30.5623 20.3916L32.5452 20.6525L32.55 20.6154L30.5671 20.3545L28.5842 20.0936L28.5793 20.1307L30.5623 20.3916ZM30.5671 20.3545L32.5357 20.7078L32.5425 20.6697L30.574 20.3164L28.6054 19.9631L28.5986 20.0012L30.5671 20.3545ZM30.574 20.3164L32.5389 20.6895C32.7534 19.5597 32.9534 18.4979 33.1424 17.5553L31.1814 17.1621L29.2204 16.7689C29.0263 17.7371 28.8214 18.8253 28.6091 19.9433L30.574 20.3164ZM31.1814 17.1621L33.1813 17.183C33.1892 16.4284 33.2362 15.7768 33.3204 15.1742L31.3396 14.8975L29.3588 14.6207C29.2475 15.4173 29.1909 16.242 29.1815 17.1412L31.1814 17.1621ZM31.3396 14.8975L30.0944 13.3324C29.6425 13.6919 29.1819 14.0628 28.746 14.4148L30.0027 15.9707L31.2593 17.5266C31.6926 17.1767 32.1444 16.8129 32.5848 16.4625L31.3396 14.8975ZM30.0027 15.9707L28.746 14.4148C28.2592 14.808 27.8062 15.174 27.4294 15.4726L28.6716 17.04L29.9138 18.6075C30.3084 18.2948 30.7776 17.9157 31.2593 17.5266L30.0027 15.9707ZM28.6716 17.04L27.4295 15.4726C27.8586 15.1324 28.4874 15.1999 28.8333 15.636L27.2664 16.8789L25.6995 18.1218C26.7315 19.4229 28.6192 19.6335 29.9138 18.6075L28.6716 17.04ZM27.2664 16.8789L28.8338 15.6367C29.088 15.9575 29.1105 16.3795 28.9413 16.7109L27.1599 15.8018L25.3785 14.8926C24.8643 15.9001 24.9427 17.1668 25.6989 18.1211L27.2664 16.8789ZM27.1599 15.8018L28.7025 14.5289C28.998 14.887 29.0151 15.4118 28.7144 15.7892L27.1501 14.543L25.5859 13.2968C24.6858 14.4266 24.733 16.003 25.6173 17.0747L27.1599 15.8018ZM27.1501 14.543L28.7141 15.7896C29.127 15.2716 29.9536 14.6124 30.9633 14.0003L29.9265 12.29L28.8897 10.5798C27.7333 11.2808 26.4352 12.2313 25.5862 13.2963L27.1501 14.543ZM29.9265 12.29L30.9633 14.0003C31.9609 13.3956 33.0288 12.9005 33.8524 12.6627L33.2976 10.7412L32.7428 8.81969C31.4821 9.18368 30.086 9.85455 28.8897 10.5797L29.9265 12.29ZM33.2976 10.7412L33.8486 12.6638L34.3427 12.5222L33.7917 10.5996L33.2408 8.67699L32.7467 8.81859L33.2976 10.7412ZM33.7917 10.5996L32.5526 12.1695L32.9559 12.4878L34.1951 10.918L35.4342 9.34811L35.0309 9.02975L33.7917 10.5996Z" fill="white" mask="url(#path-1-outside-1_34_152)"/>
</svg>
