<svg width="64" height="64" viewBox="0 0 64 64" fill="none" xmlns="http://www.w3.org/2000/svg">
<mask id="path-1-outside-1_34_152" maskUnits="userSpaceOnUse" x="24.9324" y="8.59961" width="15" height="45" fill="black">
<rect fill="white" x="24.9324" y="8.59961" width="15" height="45"/>
<path d="M34.0398 11.1133C34.6014 11.5561 35.0331 12.253 35.406 12.9551C35.77 13.6406 36.1745 14.5314 36.5662 15.3086C36.9392 16.0093 37.2159 16.4446 37.738 16.9844C38.026 17.2821 38.0181 17.7569 37.7205 18.0449C37.5631 18.1971 37.3566 18.2641 37.1541 18.252C37.2476 18.6411 37.3162 18.9659 37.3845 19.292C37.4693 19.6972 37.2106 20.0946 36.8054 20.1797C36.4 20.2645 36.0017 20.005 35.9167 19.5996C35.7875 18.9826 35.6651 18.3969 35.3601 17.3457C34.9705 16.085 34.546 15.0028 34.114 14.2002C34.101 14.176 34.087 14.1525 34.074 14.1289C33.6246 14.8382 33.4346 15.2305 33.2976 15.6484C33.1795 16.1373 33.0581 16.7098 32.9294 17.3467C32.929 17.4997 32.9297 17.657 32.9324 17.8184L32.95 18.7002C32.9757 20.7802 32.9029 23.0011 32.8513 25.1416C32.792 27.6043 32.7603 29.9606 32.9285 31.958C33.2012 35.1967 34.0185 39.0284 35.5027 44.623C35.5045 44.6284 35.5071 44.6346 35.5095 44.6416L35.698 45.207C35.8189 45.5782 35.9793 46.0886 36.1384 46.6396C36.297 47.189 36.4569 47.7888 36.573 48.3379C36.6848 48.8667 36.7728 49.4188 36.7507 49.8418C36.729 50.2552 36.3751 50.5733 35.9617 50.5518C35.5484 50.5299 35.2313 50.177 35.2527 49.7637C35.2637 49.5528 35.215 49.1678 35.1052 48.6484C34.9997 48.1491 34.8515 47.5873 34.698 47.0557C34.545 46.5257 34.3896 46.0323 34.2722 45.6719C34.2138 45.4926 34.1647 45.3462 34.1306 45.2451C34.1135 45.1946 34.0996 45.1543 34.0906 45.1279C34.0862 45.1151 34.0831 45.1052 34.0808 45.0986C34.0797 45.0954 34.0774 45.0924 34.0769 45.0908V45.0898L34.0671 45.0625L34.0603 45.0352C33.2138 41.8457 32.5746 39.1961 32.1277 36.8828C32.1811 38.2931 32.2418 39.7305 32.3044 41.126C32.4855 45.1614 32.6675 48.8889 32.5974 50.4824C32.5792 50.8962 32.2289 51.2163 31.8152 51.1982C31.4014 51.18 31.0802 50.8308 31.0984 50.417C31.1647 48.911 30.989 45.2858 30.8054 41.1934C30.6234 37.1356 30.4364 32.6574 30.491 29.5293C30.5458 26.3846 30.4663 23.4838 30.8113 20.4189L30.8152 20.3916L30.8201 20.3633C31.0352 19.2302 31.2386 18.1507 31.4304 17.1943C31.4404 16.1113 31.5242 15.1863 31.6882 14.3037C31.5753 14.3922 31.4602 14.4827 31.3435 14.5752C30.8461 14.9694 30.3318 15.3836 29.8455 15.7764C29.3605 16.168 28.9 16.5399 28.5154 16.8447C28.1908 17.1017 27.7189 17.0472 27.4617 16.7227C27.2345 16.4355 27.2518 16.0336 27.4832 15.7666C27.4768 15.7619 27.4699 15.7579 27.4636 15.7529C27.14 15.4947 27.0874 15.022 27.3455 14.6982C27.9491 13.941 28.9823 13.155 30.0564 12.5039C31.141 11.8464 32.353 11.2754 33.3679 10.9824L33.738 10.876L34.0398 11.1133Z"/>
</mask>
<path d="M34.0398 11.1133C34.6014 11.5561 35.0331 12.253 35.406 12.9551C35.77 13.6406 36.1745 14.5314 36.5662 15.3086C36.9392 16.0093 37.2159 16.4446 37.738 16.9844C38.026 17.2821 38.0181 17.7569 37.7205 18.0449C37.5631 18.1971 37.3566 18.2641 37.1541 18.252C37.2476 18.6411 37.3162 18.9659 37.3845 19.292C37.4693 19.6972 37.2106 20.0946 36.8054 20.1797C36.4 20.2645 36.0017 20.005 35.9167 19.5996C35.7875 18.9826 35.6651 18.3969 35.3601 17.3457C34.9705 16.085 34.546 15.0028 34.114 14.2002C34.101 14.176 34.087 14.1525 34.074 14.1289C33.6246 14.8382 33.4346 15.2305 33.2976 15.6484C33.1795 16.1373 33.0581 16.7098 32.9294 17.3467C32.929 17.4997 32.9297 17.657 32.9324 17.8184L32.95 18.7002C32.9757 20.7802 32.9029 23.0011 32.8513 25.1416C32.792 27.6043 32.7603 29.9606 32.9285 31.958C33.2012 35.1967 34.0185 39.0284 35.5027 44.623C35.5045 44.6284 35.5071 44.6346 35.5095 44.6416L35.698 45.207C35.8189 45.5782 35.9793 46.0886 36.1384 46.6396C36.297 47.189 36.4569 47.7888 36.573 48.3379C36.6848 48.8667 36.7728 49.4188 36.7507 49.8418C36.729 50.2552 36.3751 50.5733 35.9617 50.5518C35.5484 50.5299 35.2313 50.177 35.2527 49.7637C35.2637 49.5528 35.215 49.1678 35.1052 48.6484C34.9997 48.1491 34.8515 47.5873 34.698 47.0557C34.545 46.5257 34.3896 46.0323 34.2722 45.6719C34.2138 45.4926 34.1647 45.3462 34.1306 45.2451C34.1135 45.1946 34.0996 45.1543 34.0906 45.1279C34.0862 45.1151 34.0831 45.1052 34.0808 45.0986C34.0797 45.0954 34.0774 45.0924 34.0769 45.0908V45.0898L34.0671 45.0625L34.0603 45.0352C33.2138 41.8457 32.5746 39.1961 32.1277 36.8828C32.1811 38.2931 32.2418 39.7305 32.3044 41.126C32.4855 45.1614 32.6675 48.8889 32.5974 50.4824C32.5792 50.8962 32.2289 51.2163 31.8152 51.1982C31.4014 51.18 31.0802 50.8308 31.0984 50.417C31.1647 48.911 30.989 45.2858 30.8054 41.1934C30.6234 37.1356 30.4364 32.6574 30.491 29.5293C30.5458 26.3846 30.4663 23.4838 30.8113 20.4189L30.8152 20.3916L30.8201 20.3633C31.0352 19.2302 31.2386 18.1507 31.4304 17.1943C31.4404 16.1113 31.5242 15.1863 31.6882 14.3037C31.5753 14.3922 31.4602 14.4827 31.3435 14.5752C30.8461 14.9694 30.3318 15.3836 29.8455 15.7764C29.3605 16.168 28.9 16.5399 28.5154 16.8447C28.1908 17.1017 27.7189 17.0472 27.4617 16.7227C27.2345 16.4355 27.2518 16.0336 27.4832 15.7666C27.4768 15.7619 27.4699 15.7579 27.4636 15.7529C27.14 15.4947 27.0874 15.022 27.3455 14.6982C27.9491 13.941 28.9823 13.155 30.0564 12.5039C31.141 11.8464 32.353 11.2754 33.3679 10.9824L33.738 10.876L34.0398 11.1133Z" fill="black"/>
<path d="M34.0398 11.1133L34.9685 9.93539L34.967 9.9342L34.0398 11.1133ZM35.406 12.9551L36.7308 12.2515L36.7308 12.2515L35.406 12.9551ZM36.5662 15.3086L35.2267 15.9837L35.2342 15.9987L35.2421 16.0135L36.5662 15.3086ZM37.738 16.9844L36.6599 18.0272L36.6599 18.0273L37.738 16.9844ZM37.7205 18.0449L38.7633 19.1231L38.7634 19.123L37.7205 18.0449ZM37.1541 18.252L37.2441 16.7547L35.2221 16.633L35.6956 18.6026L37.1541 18.252ZM37.3845 19.292L38.8527 18.9847L38.8527 18.9845L37.3845 19.292ZM36.8054 20.1797L37.1128 21.6479L37.1137 21.6477L36.8054 20.1797ZM35.9167 19.5996L34.4486 19.9071L34.4486 19.9072L35.9167 19.5996ZM35.3601 17.3457L36.8007 16.9277L36.7971 16.9152L36.7932 16.9028L35.3601 17.3457ZM34.114 14.2002L35.4349 13.4893L35.4348 13.4892L34.114 14.2002ZM34.074 14.1289L35.3878 13.405L34.1639 11.1839L32.8068 13.3262L34.074 14.1289ZM33.2976 15.6484L31.8723 15.1811L31.8536 15.238L31.8396 15.2961L33.2976 15.6484ZM32.9294 17.3467L31.4591 17.0497L31.4299 17.1945L31.4294 17.3422L32.9294 17.3467ZM32.9324 17.8184L31.4326 17.8428L31.4327 17.8483L32.9324 17.8184ZM32.95 18.7002L34.4499 18.6816L34.4497 18.6703L32.95 18.7002ZM32.8513 25.1416L31.3518 25.1055L31.3518 25.1055L32.8513 25.1416ZM32.9285 31.958L31.4338 32.0839L31.4338 32.0839L32.9285 31.958ZM35.5027 44.623L34.0528 45.0077L34.0669 45.0605L34.0847 45.1122L35.5027 44.623ZM35.5095 44.6416L36.9326 44.1672L36.9282 44.1544L35.5095 44.6416ZM35.698 45.207L37.1243 44.7426L37.121 44.7327L35.698 45.207ZM36.1384 46.6396L37.5796 46.2236L37.5796 46.2236L36.1384 46.6396ZM36.573 48.3379L38.0406 48.0277L38.0406 48.0276L36.573 48.3379ZM36.7507 49.8418L38.2487 49.9207L38.2487 49.9199L36.7507 49.8418ZM35.9617 50.5518L35.8825 52.0497L35.8838 52.0497L35.9617 50.5518ZM35.2527 49.7637L33.7547 49.6855L33.7547 49.6863L35.2527 49.7637ZM35.1052 48.6484L36.5728 48.3383L36.5728 48.3382L35.1052 48.6484ZM34.698 47.0557L36.1391 46.6396L36.1391 46.6396L34.698 47.0557ZM34.2722 45.6719L35.6985 45.2074L35.6985 45.2074L34.2722 45.6719ZM34.1306 45.2451L35.5518 44.7652L35.5518 44.7652L34.1306 45.2451ZM34.0906 45.1279L32.6715 45.6141L32.6716 45.6143L34.0906 45.1279ZM34.0808 45.0986L35.4994 44.6111L35.4988 44.6093L34.0808 45.0986ZM34.0769 45.0908H32.5769V45.3431L32.6594 45.5815L34.0769 45.0908ZM34.0769 45.0898H35.5769V44.83L35.4895 44.5853L34.0769 45.0898ZM34.0671 45.0625L32.6119 45.4263L32.6298 45.4977L32.6545 45.567L34.0671 45.0625ZM34.0603 45.0352L35.5155 44.6714L35.5129 44.6608L35.5101 44.6504L34.0603 45.0352ZM32.1277 36.8828L33.6005 36.5983L30.6288 36.9396L32.1277 36.8828ZM32.3044 41.126L30.806 41.1932L30.806 41.1932L32.3044 41.126ZM32.5974 50.4824L34.096 50.5484L34.096 50.5483L32.5974 50.4824ZM31.8152 51.1982L31.7492 52.6968L31.7497 52.6968L31.8152 51.1982ZM31.0984 50.417L32.5969 50.483L32.5969 50.483L31.0984 50.417ZM30.8054 41.1934L29.3069 41.2606L29.3069 41.2606L30.8054 41.1934ZM30.491 29.5293L31.9907 29.5555L31.9907 29.5555L30.491 29.5293ZM30.8113 20.4189L29.3264 20.2068L29.3232 20.229L29.3207 20.2512L30.8113 20.4189ZM30.8152 20.3916L29.337 20.1367L29.3333 20.1581L29.3303 20.1795L30.8152 20.3916ZM30.8201 20.3633L29.3464 20.0835L29.344 20.0959L29.3419 20.1084L30.8201 20.3633ZM31.4304 17.1943L32.9011 17.4894L32.929 17.3501L32.9304 17.2082L31.4304 17.1943ZM31.6882 14.3037L33.163 14.5778L33.8884 10.6743L30.7631 13.123L31.6882 14.3037ZM31.3435 14.5752L30.4117 13.3997L30.4117 13.3997L31.3435 14.5752ZM29.8455 15.7764L28.903 14.6094L28.903 14.6094L29.8455 15.7764ZM28.5154 16.8447L29.4465 18.0208L29.447 18.0203L28.5154 16.8447ZM27.4617 16.7227L26.2852 17.6532L26.2861 17.6543L27.4617 16.7227ZM27.4832 15.7666L28.6168 16.7489L29.6728 15.5302L28.381 14.565L27.4832 15.7666ZM27.4636 15.7529L26.5281 16.9254L26.5286 16.9259L27.4636 15.7529ZM27.3455 14.6982L26.1726 13.7632L26.1724 13.7634L27.3455 14.6982ZM30.0564 12.5039L29.2788 11.2212L29.2788 11.2212L30.0564 12.5039ZM33.3679 10.9824L32.9533 9.54086L32.9519 9.54126L33.3679 10.9824ZM33.738 10.876L34.6653 9.6969L34.0616 9.22213L33.3234 9.43441L33.738 10.876ZM34.0398 11.1133L33.111 12.2912C33.4058 12.5236 33.7156 12.9702 34.0813 13.6587L35.406 12.9551L36.7308 12.2515C36.3507 11.5359 35.7969 10.5885 34.9685 9.93539L34.0398 11.1133ZM35.406 12.9551L34.0812 13.6586C34.4487 14.3506 34.781 15.0994 35.2267 15.9837L36.5662 15.3086L37.9057 14.6335C37.568 13.9635 37.0914 12.9306 36.7308 12.2515L35.406 12.9551ZM36.5662 15.3086L35.2421 16.0135C35.6522 16.7838 36.0055 17.3507 36.6599 18.0272L37.738 16.9844L38.8162 15.9415C38.4264 15.5385 38.2263 15.2349 37.8902 14.6037L36.5662 15.3086ZM37.738 16.9844L36.6599 18.0273C36.3719 17.7296 36.3798 17.2548 36.6775 16.9669L37.7205 18.0449L38.7634 19.123C39.6564 18.259 39.6801 16.8346 38.8161 15.9414L37.738 16.9844ZM37.7205 18.0449L36.6777 16.9667C36.8435 16.8063 37.0571 16.7434 37.2441 16.7547L37.1541 18.252L37.064 19.7492C37.6561 19.7849 38.2826 19.588 38.7633 19.1231L37.7205 18.0449ZM37.1541 18.252L35.6956 18.6026C35.7836 18.9688 35.8484 19.2751 35.9164 19.5995L37.3845 19.292L38.8527 18.9845C38.784 18.6567 38.7116 18.3135 38.6125 17.9013L37.1541 18.252ZM37.3845 19.292L35.9163 19.5993C35.8321 19.1967 36.0893 18.7974 36.4971 18.7117L36.8054 20.1797L37.1137 21.6477C38.3319 21.3918 39.1066 20.1978 38.8527 18.9847L37.3845 19.292ZM36.8054 20.1797L36.4981 18.7115C36.9009 18.6272 37.2994 18.8841 37.3849 19.2921L35.9167 19.5996L34.4486 19.9072C34.7039 21.1259 35.8992 21.9019 37.1128 21.6479L36.8054 20.1797ZM35.9167 19.5996L37.3849 19.2921C37.2524 18.6594 37.121 18.0316 36.8007 16.9277L35.3601 17.3457L33.9195 17.7637C34.2092 18.7621 34.3226 19.3058 34.4486 19.9071L35.9167 19.5996ZM35.3601 17.3457L36.7932 16.9028C36.3883 15.5927 35.9302 14.4097 35.4349 13.4893L34.114 14.2002L32.7932 14.9111C33.1617 15.5959 33.5526 16.5773 33.927 17.7886L35.3601 17.3457ZM34.114 14.2002L35.4348 13.4892C35.4188 13.4595 35.4041 13.4337 35.397 13.4212C35.3873 13.4042 35.3875 13.4046 35.3878 13.405L34.074 14.1289L32.7602 14.8528C32.7675 14.866 32.7741 14.8777 32.7791 14.8866C32.7836 14.8945 32.7889 14.9037 32.791 14.9074C32.7974 14.9186 32.7962 14.9166 32.7932 14.9112L34.114 14.2002ZM34.074 14.1289L32.8068 13.3262C32.3237 14.0888 32.0632 14.5988 31.8723 15.1811L33.2976 15.6484L34.7229 16.1158C34.8061 15.8623 34.9256 15.5876 35.3411 14.9316L34.074 14.1289ZM33.2976 15.6484L31.8396 15.2961C31.7147 15.813 31.5888 16.4076 31.4591 17.0497L32.9294 17.3467L34.3997 17.6437C34.5273 17.0121 34.6443 16.4617 34.7556 16.0008L33.2976 15.6484ZM32.9294 17.3467L31.4294 17.3422C31.429 17.5032 31.4298 17.6703 31.4326 17.8428L32.9324 17.8184L34.4322 17.7939C34.4297 17.6438 34.429 17.4962 34.4294 17.3511L32.9294 17.3467ZM32.9324 17.8184L31.4327 17.8483L31.4502 18.7301L32.95 18.7002L34.4497 18.6703L34.4321 17.7885L32.9324 17.8184ZM32.95 18.7002L31.4501 18.7187C31.4754 20.7633 31.4038 22.9446 31.3518 25.1055L32.8513 25.1416L34.3509 25.1777C34.4019 23.0575 34.476 20.7971 34.4498 18.6816L32.95 18.7002ZM32.8513 25.1416L31.3518 25.1055C31.2926 27.5605 31.2578 29.9942 31.4338 32.0839L32.9285 31.958L34.4232 31.8322C34.2628 29.927 34.2914 27.648 34.3509 25.1777L32.8513 25.1416ZM32.9285 31.958L31.4338 32.0839C31.7181 35.4611 32.565 39.3992 34.0528 45.0077L35.5027 44.623L36.9525 44.2384C35.472 38.6575 34.6842 34.9322 34.4232 31.8321L32.9285 31.958ZM35.5027 44.623L34.0847 45.1122C34.0879 45.1216 34.0908 45.1297 34.0932 45.1362C34.0955 45.1427 34.0976 45.1483 34.0991 45.1524C34.1007 45.1565 34.1019 45.1599 34.1027 45.1618C34.1031 45.1629 34.1034 45.1637 34.1036 45.1643C34.1039 45.1651 34.1039 45.1649 34.104 45.1653C34.1044 45.1662 34.1027 45.162 34.1006 45.1563C34.0984 45.1502 34.0949 45.1407 34.0909 45.1288L35.5095 44.6416L36.9282 44.1544C36.9229 44.139 36.9182 44.1261 36.9148 44.1167C36.9114 44.1077 36.9086 44.1003 36.9078 44.0982C36.9077 44.0978 36.9076 44.0976 36.9075 44.0973C36.9074 44.0971 36.9074 44.097 36.9073 44.0969C36.9072 44.0966 36.9073 44.0968 36.9074 44.097C36.9075 44.0975 36.9083 44.0994 36.9093 44.1021C36.911 44.1069 36.9154 44.1185 36.9207 44.1339L35.5027 44.623ZM35.5095 44.6416L34.0865 45.1159L34.275 45.6814L35.698 45.207L37.121 44.7327L36.9325 44.1673L35.5095 44.6416ZM35.698 45.207L34.2717 45.6715C34.3887 46.0306 34.5439 46.5245 34.6973 47.0557L36.1384 46.6396L37.5796 46.2236C37.4148 45.6527 37.2491 45.1258 37.1243 44.7426L35.698 45.207ZM36.1384 46.6396L34.6973 47.0557C34.851 47.5882 35 48.1492 35.1054 48.6481L36.573 48.3379L38.0406 48.0276C37.9139 47.4284 37.743 46.7897 37.5796 46.2236L36.1384 46.6396ZM36.573 48.3379L35.1054 48.6481C35.2153 49.168 35.2638 49.5529 35.2528 49.7637L36.7507 49.8418L38.2487 49.9199C38.2818 49.2847 38.1542 48.5653 38.0406 48.0277L36.573 48.3379ZM36.7507 49.8418L35.2528 49.7629C35.2747 49.3478 35.6278 49.0324 36.0396 49.0538L35.9617 50.5518L35.8838 52.0497C37.1225 52.1141 38.1833 51.1627 38.2487 49.9207L36.7507 49.8418ZM35.9617 50.5518L36.0409 49.0538C36.4564 49.0758 36.7719 49.43 36.7507 49.841L35.2527 49.7637L33.7547 49.6863C33.6908 50.924 34.6404 51.984 35.8825 52.0497L35.9617 50.5518ZM35.2527 49.7637L36.7506 49.8418C36.7728 49.4169 36.6836 48.8624 36.5728 48.3383L35.1052 48.6484L33.6376 48.9586C33.6868 49.1914 33.7188 49.3775 33.7369 49.5162C33.757 49.6701 33.7532 49.7144 33.7547 49.6855L35.2527 49.7637ZM35.1052 48.6484L36.5728 48.3382C36.4569 47.7899 36.2981 47.1901 36.1391 46.6396L34.698 47.0557L33.2568 47.4717C33.4049 47.9846 33.5424 48.5082 33.6377 48.9587L35.1052 48.6484ZM34.698 47.0557L36.1391 46.6396C35.9802 46.0892 35.8196 45.5792 35.6985 45.2074L34.2722 45.6719L32.8459 46.1363C32.9596 46.4855 33.1097 46.9621 33.2569 47.4717L34.698 47.0557ZM34.2722 45.6719L35.6985 45.2074C35.6379 45.0213 35.587 44.8695 35.5518 44.7652L34.1306 45.2451L32.7094 45.725C32.7425 45.8229 32.7898 45.9638 32.8459 46.1363L34.2722 45.6719ZM34.1306 45.2451L35.5518 44.7652C35.5333 44.7104 35.5171 44.6636 35.5095 44.6416L34.0906 45.1279L32.6716 45.6143C32.6821 45.6449 32.6938 45.6788 32.7095 45.725L34.1306 45.2451ZM34.0906 45.1279L35.5096 44.6418C35.5105 44.6444 35.511 44.6458 35.5099 44.6427C35.5095 44.6413 35.5095 44.6413 35.5088 44.6393C35.5084 44.638 35.5077 44.6359 35.507 44.6336C35.5056 44.6297 35.5028 44.6212 35.4994 44.6111L34.0808 45.0986L32.6623 45.5862C32.661 45.5824 32.66 45.5795 32.6594 45.5778C32.6588 45.5761 32.6585 45.5749 32.6584 45.5747C32.6583 45.5744 32.6583 45.5745 32.6586 45.5754C32.6587 45.5757 32.6595 45.578 32.6598 45.5792C32.662 45.5858 32.6662 45.5986 32.6715 45.6141L34.0906 45.1279ZM34.0808 45.0986L35.4988 44.6093C35.4852 44.57 35.4715 44.5355 35.4591 44.5067C35.4468 44.4779 35.435 44.4529 35.425 44.4326C35.415 44.4123 35.406 44.3951 35.3989 44.3821C35.3919 44.3692 35.3861 44.3589 35.3828 44.353C35.3811 44.35 35.3797 44.3477 35.3791 44.3466C35.379 44.3463 35.3788 44.3461 35.3787 44.3459C35.3787 44.3458 35.3786 44.3456 35.3786 44.3456C35.3785 44.3455 35.3787 44.3458 35.3789 44.3463C35.3794 44.347 35.3808 44.3496 35.3827 44.3529C35.3846 44.3563 35.3876 44.3616 35.3912 44.3681C35.3948 44.3747 35.3997 44.3837 35.4054 44.3945C35.4111 44.4053 35.4183 44.4194 35.4265 44.4362C35.4346 44.4529 35.4448 44.4747 35.4559 44.5006C35.4615 44.5137 35.4676 44.5285 35.474 44.5448C35.4804 44.5611 35.4873 44.5796 35.4944 44.6001L34.0769 45.0908L32.6594 45.5815C32.6666 45.6021 32.6735 45.6207 32.6799 45.6371C32.6863 45.6536 32.6925 45.6685 32.6982 45.6817C32.7093 45.7078 32.7196 45.7298 32.7278 45.7467C32.7361 45.7637 32.7435 45.7782 32.7493 45.7892C32.7551 45.8002 32.7602 45.8095 32.7639 45.8163C32.7677 45.8232 32.7708 45.8288 32.7729 45.8324C32.775 45.836 32.7766 45.8389 32.7772 45.84C32.7776 45.8405 32.7778 45.841 32.7779 45.8411C32.778 45.8412 32.7778 45.8409 32.7776 45.8406C32.7771 45.8398 32.776 45.8378 32.7745 45.8352C32.7715 45.83 32.7661 45.8204 32.7595 45.8082C32.7529 45.7959 32.7443 45.7795 32.7346 45.7599C32.725 45.7404 32.7136 45.7162 32.7016 45.6881C32.6896 45.6601 32.6762 45.6265 32.6629 45.5879L34.0808 45.0986ZM34.0769 45.0908H35.5769V45.0898H34.0769H32.5769V45.0908H34.0769ZM34.0769 45.0898L35.4895 44.5853L35.4798 44.558L34.0671 45.0625L32.6545 45.567L32.6643 45.5943L34.0769 45.0898ZM34.0671 45.0625L35.5224 44.6987L35.5155 44.6714L34.0603 45.0352L32.6051 45.399L32.6119 45.4263L34.0671 45.0625ZM34.0603 45.0352L35.5101 44.6504C34.6674 41.4753 34.038 38.8631 33.6005 36.5983L32.1277 36.8828L30.6549 37.1673C31.1112 39.5291 31.7602 42.2161 32.6105 45.4199L34.0603 45.0352ZM32.1277 36.8828L30.6288 36.9396C30.6823 38.3542 30.7432 39.7952 30.806 41.1932L32.3044 41.126L33.8029 41.0588C33.7404 39.6658 33.6799 38.232 33.6266 36.826L32.1277 36.8828ZM32.3044 41.126L30.806 41.1932C30.9895 45.2849 31.1651 48.9101 31.0989 50.4165L32.5974 50.4824L34.096 50.5483C34.1699 48.8677 33.9814 45.038 33.8029 41.0588L32.3044 41.126ZM32.5974 50.4824L31.0989 50.4164C31.1172 50.0009 31.4688 49.6817 31.8807 49.6997L31.8152 51.1982L31.7497 52.6968C32.989 52.751 34.0412 51.7914 34.096 50.5484L32.5974 50.4824ZM31.8152 51.1982L31.8812 49.6997C32.2911 49.7177 32.6153 50.0652 32.5969 50.483L31.0984 50.417L29.5998 50.351C29.545 51.5964 30.5117 52.6423 31.7492 52.6968L31.8152 51.1982ZM31.0984 50.417L32.5969 50.483C32.6671 48.8898 32.4849 45.1617 32.3039 41.1261L30.8054 41.1934L29.3069 41.2606C29.4931 45.4099 29.6623 48.9323 29.5998 50.351L31.0984 50.417ZM30.8054 41.1934L32.3039 41.1261C32.1213 37.0551 31.9372 32.6274 31.9907 29.5555L30.491 29.5293L28.9912 29.5031C28.9357 32.6874 29.1255 37.2161 29.3069 41.2606L30.8054 41.1934ZM30.491 29.5293L31.9907 29.5555C32.0471 26.3263 31.9675 23.5576 32.3019 20.5867L30.8113 20.4189L29.3207 20.2512C28.9652 23.41 29.0446 26.4428 28.9912 29.5031L30.491 29.5293ZM30.8113 20.4189L32.2962 20.6311L32.3001 20.6037L30.8152 20.3916L29.3303 20.1795L29.3264 20.2068L30.8113 20.4189ZM30.8152 20.3916L32.2934 20.6465L32.2983 20.6181L30.8201 20.3633L29.3419 20.1084L29.337 20.1367L30.8152 20.3916ZM30.8201 20.3633L32.2937 20.6431C32.5097 19.5056 32.7112 18.4361 32.9011 17.4894L31.4304 17.1943L29.9597 16.8993C29.7659 17.8653 29.5607 18.9548 29.3464 20.0835L30.8201 20.3633ZM31.4304 17.1943L32.9304 17.2082C32.9397 16.1974 33.0174 15.3609 33.163 14.5778L31.6882 14.3037L30.2135 14.0297C30.031 15.0117 29.9411 16.0251 29.9305 17.1805L31.4304 17.1943ZM31.6882 14.3037L30.7631 13.123C30.6489 13.2125 30.5314 13.3049 30.4117 13.3997L31.3435 14.5752L32.2753 15.7507C32.389 15.6606 32.5017 15.5719 32.6134 15.4845L31.6882 14.3037ZM31.3435 14.5752L30.4117 13.3997C29.9088 13.7984 29.3901 14.216 28.903 14.6094L29.8455 15.7764L30.788 16.9433C31.2735 16.5511 31.7835 16.1405 32.2753 15.7507L31.3435 14.5752ZM29.8455 15.7764L28.903 14.6094C28.4164 15.0024 27.9618 15.3695 27.5837 15.6691L28.5154 16.8447L29.447 18.0203C29.8382 17.7103 30.3046 17.3337 30.788 16.9433L29.8455 15.7764ZM28.5154 16.8447L27.5843 15.6687C27.9084 15.4121 28.3797 15.466 28.6373 15.791L27.4617 16.7227L26.2861 17.6543C27.058 18.6284 28.4731 18.7914 29.4465 18.0208L28.5154 16.8447ZM27.4617 16.7227L28.6381 15.7921C28.8678 16.0825 28.8468 16.4834 28.6168 16.7489L27.4832 15.7666L26.3495 14.7843C25.6567 15.5839 25.6013 16.7886 26.2852 17.6532L27.4617 16.7227ZM27.4832 15.7666L28.381 14.565C28.3551 14.5457 28.3337 14.5309 28.3216 14.5226C28.3154 14.5184 28.3103 14.515 28.3077 14.5133C28.3064 14.5124 28.3052 14.5117 28.3048 14.5114C28.3042 14.511 28.3044 14.5111 28.3047 14.5113C28.3053 14.5117 28.3084 14.5138 28.3126 14.5166C28.3169 14.5195 28.3233 14.5239 28.3311 14.5294C28.3465 14.5402 28.3703 14.5574 28.3986 14.58L27.4636 15.7529L26.5286 16.9259C26.5601 16.9509 26.5871 16.9705 26.6057 16.9836C26.6236 16.9962 26.6383 17.0059 26.642 17.0084C26.6431 17.0091 26.6441 17.0098 26.6443 17.0099C26.6448 17.0102 26.6444 17.01 26.644 17.0097C26.643 17.0091 26.6396 17.0068 26.6351 17.0037C26.6262 16.9977 26.608 16.9852 26.5853 16.9682L27.4832 15.7666ZM27.4636 15.7529L28.3992 14.5804C28.7249 14.8403 28.7749 15.3113 28.5186 15.633L27.3455 14.6982L26.1724 13.7634C25.3999 14.7328 25.5551 16.1491 26.5281 16.9254L27.4636 15.7529ZM27.3455 14.6982L28.5184 15.6333C28.9582 15.0815 29.8142 14.4048 30.834 13.7866L30.0564 12.5039L29.2788 11.2212C28.1504 11.9052 26.9401 12.8005 26.1726 13.7632L27.3455 14.6982ZM30.0564 12.5039L30.834 13.7866C31.8432 13.1748 32.9323 12.6694 33.7839 12.4236L33.3679 10.9824L32.9519 9.54126C31.7737 9.88137 30.4388 10.518 29.2788 11.2212L30.0564 12.5039ZM33.3679 10.9824L33.7825 12.424L34.1526 12.3175L33.738 10.876L33.3234 9.43441L32.9533 9.54086L33.3679 10.9824ZM33.738 10.876L32.8108 12.0551L33.1126 12.2924L34.0398 11.1133L34.967 9.9342L34.6653 9.6969L33.738 10.876Z" fill="white" mask="url(#path-1-outside-1_34_152)"/>
</svg>
