<svg width="64" height="64" viewBox="0 0 64 64" fill="none" xmlns="http://www.w3.org/2000/svg">
<mask id="path-1-outside-1_34_72" maskUnits="userSpaceOnUse" x="9.54175" y="22.3135" width="47" height="17" fill="black">
<rect fill="white" x="9.54175" y="22.3135" width="47" height="17"/>
<path d="M20.3816 24.5196C20.82 24.1842 21.4472 24.267 21.783 24.7051C22.1185 25.1436 22.0348 25.7718 21.5964 26.1075C20.8237 26.6991 20.1969 26.995 19.3728 27.3184L19.3513 27.3262C18.3891 27.6797 17.6394 27.9112 16.8982 28.2012C16.7989 28.2401 16.7055 28.2801 16.6169 28.3174C16.8762 28.4375 17.1286 28.5498 17.3865 28.6494C18.3599 28.9771 19.413 29.1981 20.8289 29.3389L21.7107 29.4239C23.787 29.6383 25.9905 29.9668 28.1072 30.2637C28.87 30.3707 29.6217 30.4727 30.3552 30.5655C31.7965 30.4331 33.1448 30.3286 34.3093 30.2696C37.4362 30.1109 40.3463 29.8317 43.4431 29.9678L43.4812 29.9698L43.5193 29.9737C44.1493 30.0493 44.7638 30.1248 45.3513 30.1963C46.0945 30.097 46.8719 29.9902 47.6863 29.8721C47.6895 29.8714 47.6935 29.8699 47.697 29.8692C47.7266 29.8627 47.7696 29.8534 47.824 29.8418C47.9338 29.8184 48.0916 29.786 48.2839 29.7471C48.3167 29.7405 48.3507 29.7336 48.3855 29.7266C48.1933 29.5185 48.0033 29.3103 47.8162 29.1084C47.3927 28.6517 46.9893 28.2167 46.658 27.8526C46.2866 27.4442 46.3154 26.8121 46.7234 26.4405C47.1319 26.0688 47.7658 26.0984 48.1375 26.5069C48.461 26.8624 48.8567 27.2892 49.283 27.7491C49.7076 28.2071 50.1612 28.6969 50.5945 29.1729C50.6405 29.2235 50.6862 29.2745 50.7322 29.3252C50.9988 29.2892 51.2644 29.2582 51.5193 29.2344C52.0591 29.184 52.6467 29.1569 53.0994 29.2334C53.6437 29.3256 54.0106 29.8414 53.9187 30.3858C53.8266 30.9302 53.3099 31.2971 52.7654 31.2051C52.6724 31.1895 52.5263 31.1824 52.3298 31.1866C52.3856 31.2583 52.4408 31.325 52.489 31.3907L52.6521 31.6221L52.9177 32.0264L52.7654 32.4864C52.6136 32.9444 52.3149 33.3332 51.99 33.6534C51.6585 33.9799 51.2479 34.286 50.7947 34.5713C49.8884 35.1419 48.7186 35.6872 47.4265 36.1846L47.4177 36.1885L47.4099 36.1905C46.3219 36.5883 45.6973 36.7643 45.072 36.9405C44.5407 37.0898 43.9894 36.7803 43.8396 36.2491C43.6902 35.7177 43.9988 35.1655 44.53 35.0157C45.1311 34.8463 45.6981 34.6871 46.7078 34.3184C47.7798 33.9057 48.7071 33.4785 49.4275 33.0606C48.9397 32.8144 48.6277 32.6999 48.3083 32.6182C47.5154 32.4833 46.5083 32.3531 45.3591 32.2119C40.9673 32.7924 37.6653 33.0566 34.7986 32.9668C33.4138 32.9235 31.8935 32.772 30.325 32.5772C27.9782 32.7957 25.3775 33.0848 22.905 33.3653C21.3663 33.5398 19.8683 33.7095 18.5164 33.8575C18.6724 34.2228 18.6014 34.6617 18.3025 34.959C17.911 35.348 17.2787 35.3462 16.8894 34.9551C16.6501 34.7144 16.4161 34.4239 16.1892 34.1026C15.0798 34.2101 14.1727 34.2822 13.5662 34.2969C13.0143 34.31 12.5551 33.8723 12.5417 33.3203C12.5287 32.7685 12.9664 32.3102 13.5183 32.2969C13.9091 32.2875 14.4433 32.2503 15.0925 32.1944C15.0515 32.1087 15.0098 32.0235 14.9705 31.9375C14.4361 30.7712 13.999 29.4801 13.8201 28.4102L13.7351 27.9043L14.0984 27.5391C14.6427 26.9924 15.4274 26.6293 16.1697 26.3389C16.8889 26.0575 17.8447 25.7481 18.6414 25.4561C19.3684 25.1708 19.8103 24.957 20.3816 24.5196ZM16.5076 30.4502C16.5961 30.6687 16.6896 30.888 16.7888 31.1045C16.9314 31.4157 17.0814 31.7111 17.2312 31.9864C18.6117 31.8408 20.2276 31.657 21.9519 31.461C21.5134 31.4127 21.0807 31.3685 20.655 31.3311L20.6433 31.3301C19.098 31.1771 17.8843 30.9288 16.7312 30.5391L16.6921 30.5254C16.6299 30.5015 16.5689 30.475 16.5076 30.4502Z"/>
</mask>
<path d="M20.3816 24.5196C20.82 24.1842 21.4472 24.267 21.783 24.7051C22.1185 25.1436 22.0348 25.7718 21.5964 26.1075C20.8237 26.6991 20.1969 26.995 19.3728 27.3184L19.3513 27.3262C18.3891 27.6797 17.6394 27.9112 16.8982 28.2012C16.7989 28.2401 16.7055 28.2801 16.6169 28.3174C16.8762 28.4375 17.1286 28.5498 17.3865 28.6494C18.3599 28.9771 19.413 29.1981 20.8289 29.3389L21.7107 29.4239C23.787 29.6383 25.9905 29.9668 28.1072 30.2637C28.87 30.3707 29.6217 30.4727 30.3552 30.5655C31.7965 30.4331 33.1448 30.3286 34.3093 30.2696C37.4362 30.1109 40.3463 29.8317 43.4431 29.9678L43.4812 29.9698L43.5193 29.9737C44.1493 30.0493 44.7638 30.1248 45.3513 30.1963C46.0945 30.097 46.8719 29.9902 47.6863 29.8721C47.6895 29.8714 47.6935 29.8699 47.697 29.8692C47.7266 29.8627 47.7696 29.8534 47.824 29.8418C47.9338 29.8184 48.0916 29.786 48.2839 29.7471C48.3167 29.7405 48.3507 29.7336 48.3855 29.7266C48.1933 29.5185 48.0033 29.3103 47.8162 29.1084C47.3927 28.6517 46.9893 28.2167 46.658 27.8526C46.2866 27.4442 46.3154 26.8121 46.7234 26.4405C47.1319 26.0688 47.7658 26.0984 48.1375 26.5069C48.461 26.8624 48.8567 27.2892 49.283 27.7491C49.7076 28.2071 50.1612 28.6969 50.5945 29.1729C50.6405 29.2235 50.6862 29.2745 50.7322 29.3252C50.9988 29.2892 51.2644 29.2582 51.5193 29.2344C52.0591 29.184 52.6467 29.1569 53.0994 29.2334C53.6437 29.3256 54.0106 29.8414 53.9187 30.3858C53.8266 30.9302 53.3099 31.2971 52.7654 31.2051C52.6724 31.1895 52.5263 31.1824 52.3298 31.1866C52.3856 31.2583 52.4408 31.325 52.489 31.3907L52.6521 31.6221L52.9177 32.0264L52.7654 32.4864C52.6136 32.9444 52.3149 33.3332 51.99 33.6534C51.6585 33.9799 51.2479 34.286 50.7947 34.5713C49.8884 35.1419 48.7186 35.6872 47.4265 36.1846L47.4177 36.1885L47.4099 36.1905C46.3219 36.5883 45.6973 36.7643 45.072 36.9405C44.5407 37.0898 43.9894 36.7803 43.8396 36.2491C43.6902 35.7177 43.9988 35.1655 44.53 35.0157C45.1311 34.8463 45.6981 34.6871 46.7078 34.3184C47.7798 33.9057 48.7071 33.4785 49.4275 33.0606C48.9397 32.8144 48.6277 32.6999 48.3083 32.6182C47.5154 32.4833 46.5083 32.3531 45.3591 32.2119C40.9673 32.7924 37.6653 33.0566 34.7986 32.9668C33.4138 32.9235 31.8935 32.772 30.325 32.5772C27.9782 32.7957 25.3775 33.0848 22.905 33.3653C21.3663 33.5398 19.8683 33.7095 18.5164 33.8575C18.6724 34.2228 18.6014 34.6617 18.3025 34.959C17.911 35.348 17.2787 35.3462 16.8894 34.9551C16.6501 34.7144 16.4161 34.4239 16.1892 34.1026C15.0798 34.2101 14.1727 34.2822 13.5662 34.2969C13.0143 34.31 12.5551 33.8723 12.5417 33.3203C12.5287 32.7685 12.9664 32.3102 13.5183 32.2969C13.9091 32.2875 14.4433 32.2503 15.0925 32.1944C15.0515 32.1087 15.0098 32.0235 14.9705 31.9375C14.4361 30.7712 13.999 29.4801 13.8201 28.4102L13.7351 27.9043L14.0984 27.5391C14.6427 26.9924 15.4274 26.6293 16.1697 26.3389C16.8889 26.0575 17.8447 25.7481 18.6414 25.4561C19.3684 25.1708 19.8103 24.957 20.3816 24.5196ZM16.5076 30.4502C16.5961 30.6687 16.6896 30.888 16.7888 31.1045C16.9314 31.4157 17.0814 31.7111 17.2312 31.9864C18.6117 31.8408 20.2276 31.657 21.9519 31.461C21.5134 31.4127 21.0807 31.3685 20.655 31.3311L20.6433 31.3301C19.098 31.1771 17.8843 30.9288 16.7312 30.5391L16.6921 30.5254C16.6299 30.5015 16.5689 30.475 16.5076 30.4502Z" fill="black"/>
<path d="M20.3816 24.5196L19.1663 22.9311L19.1656 22.9317L20.3816 24.5196ZM21.783 24.7051L23.3713 23.4897L23.3704 23.4885L21.783 24.7051ZM21.5964 26.1075L22.8123 27.6954L22.8124 27.6954L21.5964 26.1075ZM19.3728 27.3184L20.0563 29.198L20.08 29.1894L20.1034 29.1802L19.3728 27.3184ZM19.3513 27.3262L18.6678 25.4466L18.6616 25.4489L19.3513 27.3262ZM16.8982 28.2012L16.1695 26.3387L16.1695 26.3387L16.8982 28.2012ZM16.6169 28.3174L15.8403 26.4744L11.6716 28.231L15.7764 30.1322L16.6169 28.3174ZM17.3865 28.6494L16.6654 30.5149L16.7066 30.5308L16.7484 30.5449L17.3865 28.6494ZM20.8289 29.3389L20.6309 31.3291L20.6371 31.3297L20.8289 29.3389ZM21.7107 29.4239L21.9162 27.4344L21.9025 27.4331L21.7107 29.4239ZM28.1072 30.2637L27.8293 32.2443L27.8293 32.2443L28.1072 30.2637ZM30.3552 30.5655L30.1043 32.5497L30.3208 32.577L30.5381 32.5571L30.3552 30.5655ZM34.3093 30.2696L34.4107 32.267L34.4107 32.267L34.3093 30.2696ZM43.4431 29.9678L43.5455 27.9704L43.5383 27.9701L43.531 27.9697L43.4431 29.9678ZM43.4812 29.9698L43.6853 27.9802L43.6345 27.975L43.5836 27.9724L43.4812 29.9698ZM43.5193 29.9737L43.7578 27.9879L43.7406 27.9859L43.7233 27.9841L43.5193 29.9737ZM45.3513 30.1963L45.1095 32.1816L45.3631 32.2125L45.6163 32.1787L45.3513 30.1963ZM47.6863 29.8721L47.9732 31.8514L48.0439 31.8412L48.1137 31.8259L47.6863 29.8721ZM47.697 29.8692L47.2709 27.9151L47.2706 27.9152L47.697 29.8692ZM47.824 29.8418L48.2415 31.7978L48.2416 31.7977L47.824 29.8418ZM48.2839 29.7471L47.8876 27.7868L47.8876 27.7868L48.2839 29.7471ZM48.3855 29.7266L48.7773 31.6878L52.2735 30.9893L49.855 28.3699L48.3855 29.7266ZM47.8162 29.1084L46.3494 30.4681L46.3494 30.4681L47.8162 29.1084ZM46.658 27.8526L45.1783 29.1982L45.1787 29.1986L46.658 27.8526ZM46.7234 26.4405L45.3774 24.9612L45.3764 24.962L46.7234 26.4405ZM48.1375 26.5069L46.6582 27.8529L46.6582 27.8529L48.1375 26.5069ZM49.283 27.7491L50.7497 26.3894L50.7497 26.3894L49.283 27.7491ZM50.5945 29.1729L52.0736 27.8267L52.0736 27.8267L50.5945 29.1729ZM50.7322 29.3252L49.2504 30.6685L49.9571 31.448L50.9997 31.3072L50.7322 29.3252ZM51.5193 29.2344L51.3335 27.2431L51.3334 27.2431L51.5193 29.2344ZM53.0994 29.2334L53.4332 27.2615L53.4326 27.2614L53.0994 29.2334ZM53.9187 30.3858L55.8907 30.7195L55.8908 30.7185L53.9187 30.3858ZM52.7654 31.2051L53.0987 29.2331L53.0972 29.2328L52.7654 31.2051ZM52.3298 31.1866L52.2875 29.187L48.3097 29.2712L50.7503 32.4134L52.3298 31.1866ZM52.489 31.3907L54.1239 30.2386L54.1127 30.2228L54.1012 30.2071L52.489 31.3907ZM52.6521 31.6221L54.3236 30.5239L54.3057 30.4967L54.287 30.4701L52.6521 31.6221ZM52.9177 32.0264L54.8163 32.6552L55.1205 31.7368L54.5892 30.9282L52.9177 32.0264ZM52.7654 32.4864L54.6639 33.1153L54.664 33.1152L52.7654 32.4864ZM51.99 33.6534L53.3935 35.0781L53.3937 35.078L51.99 33.6534ZM50.7947 34.5713L51.8602 36.2639L51.8603 36.2638L50.7947 34.5713ZM47.4265 36.1846L46.708 34.3181L46.6606 34.3364L46.6142 34.357L47.4265 36.1846ZM47.4177 36.1885L47.9028 38.1288L48.0713 38.0867L48.23 38.0161L47.4177 36.1885ZM47.4099 36.1905L46.9248 34.2502L46.8223 34.2758L46.723 34.3121L47.4099 36.1905ZM45.072 36.9405L45.6133 38.8658L45.6144 38.8655L45.072 36.9405ZM43.8396 36.2491L41.9143 36.7904L41.9147 36.792L43.8396 36.2491ZM44.53 35.0157L43.9877 33.0906L43.9871 33.0907L44.53 35.0157ZM46.7078 34.3184L47.3938 36.197L47.4101 36.1911L47.4263 36.1849L46.7078 34.3184ZM49.4275 33.0606L50.431 34.7906L53.6244 32.9382L50.3285 31.275L49.4275 33.0606ZM48.3083 32.6182L48.8039 30.6806L48.7245 30.6603L48.6438 30.6465L48.3083 32.6182ZM45.3591 32.2119L45.6029 30.2269L45.3499 30.1958L45.0971 30.2292L45.3591 32.2119ZM34.7986 32.9668L34.736 34.9658L34.736 34.9658L34.7986 32.9668ZM30.325 32.5772L30.5715 30.5924L30.3558 30.5656L30.1395 30.5858L30.325 32.5772ZM22.905 33.3653L22.6796 31.378L22.6796 31.378L22.905 33.3653ZM18.5164 33.8575L18.2987 31.8693L15.6176 32.1628L16.6771 34.6431L18.5164 33.8575ZM18.3025 34.959L19.7121 36.3779L19.7128 36.3771L18.3025 34.959ZM16.8894 34.9551L15.4711 36.3652L15.472 36.3661L16.8894 34.9551ZM16.1892 34.1026L17.8231 32.9491L17.1529 31.9998L15.9963 32.1119L16.1892 34.1026ZM13.5662 34.2969L13.6134 36.2963L13.6145 36.2963L13.5662 34.2969ZM12.5417 33.3203L10.5423 33.3675L10.5423 33.3686L12.5417 33.3203ZM13.5183 32.2969L13.5666 34.2963L13.5666 34.2963L13.5183 32.2969ZM15.0925 32.1944L15.2641 34.187L18.1439 33.9391L16.8968 31.3314L15.0925 32.1944ZM14.9705 31.9375L13.1522 32.7706L13.1523 32.7707L14.9705 31.9375ZM13.8201 28.4102L15.7927 28.0802L15.7924 28.0789L13.8201 28.4102ZM13.7351 27.9043L12.3171 26.4939L11.5926 27.2224L11.7627 28.2356L13.7351 27.9043ZM14.0984 27.5391L12.6811 26.1279L12.6804 26.1287L14.0984 27.5391ZM16.1697 26.3389L15.441 24.4764L15.441 24.4764L16.1697 26.3389ZM18.6414 25.4561L19.3296 27.3339L19.3509 27.3261L19.3719 27.3179L18.6414 25.4561ZM16.5076 30.4502L17.2557 28.5954L12.8847 26.8324L14.6538 31.2009L16.5076 30.4502ZM16.7888 31.1045L14.9706 31.9377L14.9706 31.9377L16.7888 31.1045ZM17.2312 31.9864L15.4745 32.9425L16.1129 34.1154L17.4409 33.9753L17.2312 31.9864ZM21.9519 31.461L22.1778 33.4482L22.1706 29.473L21.9519 31.461ZM20.655 31.3311L20.83 29.3387L20.8211 29.338L20.655 31.3311ZM20.6433 31.3301L20.4462 33.3204L20.4617 33.3219L20.4772 33.3232L20.6433 31.3301ZM16.7312 30.5391L16.0705 32.4268L16.0806 32.4303L16.0908 32.4338L16.7312 30.5391ZM16.6921 30.5254L15.9757 32.3927L16.0034 32.4033L16.0314 32.4131L16.6921 30.5254ZM20.3816 24.5196L21.5969 26.108C21.1596 26.4425 20.5321 26.3609 20.1955 25.9217L21.783 24.7051L23.3704 23.4885C22.3623 22.1731 20.4803 21.9258 19.1663 22.9311L20.3816 24.5196ZM21.783 24.7051L20.1946 25.9205C19.8586 25.4813 19.9427 24.8547 20.3805 24.5196L21.5964 26.1075L22.8124 27.6954C24.1269 26.6888 24.3784 24.8058 23.3713 23.4897L21.783 24.7051ZM21.5964 26.1075L20.3805 24.5195C19.8089 24.9572 19.368 25.1718 18.6422 25.4566L19.3728 27.3184L20.1034 29.1802C21.0257 28.8182 21.8385 28.4411 22.8123 27.6954L21.5964 26.1075ZM19.3728 27.3184L18.6893 25.4388L18.6678 25.4466L19.3513 27.3262L20.0348 29.2058L20.0563 29.198L19.3728 27.3184ZM19.3513 27.3262L18.6616 25.4489C17.8685 25.7403 16.8914 26.0562 16.1695 26.3387L16.8982 28.2012L17.6269 30.0637C18.3875 29.7662 18.9098 29.6191 20.0411 29.2035L19.3513 27.3262ZM16.8982 28.2012L16.1695 26.3387C16.0393 26.3896 15.9139 26.4434 15.8403 26.4744L16.6169 28.3174L17.3936 30.1605C17.4972 30.1168 17.5584 30.0905 17.6269 30.0637L16.8982 28.2012ZM16.6169 28.3174L15.7764 30.1322C16.0507 30.2592 16.3482 30.3923 16.6654 30.5149L17.3865 28.6494L18.1076 26.784C17.909 26.7072 17.7017 26.6157 17.4575 26.5026L16.6169 28.3174ZM17.3865 28.6494L16.7484 30.5449C17.8936 30.9304 19.0993 31.1767 20.6309 31.3291L20.8289 29.3389L21.0268 27.3487C19.7267 27.2194 18.8261 27.0238 18.0245 26.754L17.3865 28.6494ZM20.8289 29.3389L20.6371 31.3297L21.5189 31.4146L21.7107 29.4239L21.9025 27.4331L21.0207 27.3481L20.8289 29.3389ZM21.7107 29.4239L21.5052 31.4133C23.5345 31.6229 25.6862 31.9436 27.8293 32.2443L28.1072 30.2637L28.385 28.2831C26.2949 27.9899 24.0394 27.6538 21.9162 27.4344L21.7107 29.4239ZM28.1072 30.2637L27.8293 32.2443C28.5977 32.3521 29.3589 32.4554 30.1043 32.5497L30.3552 30.5655L30.6062 28.5813C29.8845 28.49 29.1424 28.3893 28.385 28.2831L28.1072 30.2637ZM30.3552 30.5655L30.5381 32.5571C31.9646 32.4261 33.2835 32.3242 34.4107 32.267L34.3093 30.2696L34.208 28.2721C33.0062 28.3331 31.6283 28.4401 30.1723 28.5738L30.3552 30.5655ZM34.3093 30.2696L34.4107 32.267C37.6506 32.1026 40.3844 31.8353 43.3553 31.9659L43.4431 29.9678L43.531 27.9697C40.3082 27.828 37.2219 28.1192 34.208 28.2721L34.3093 30.2696ZM43.4431 29.9678L43.3407 31.9652L43.3788 31.9671L43.4812 29.9698L43.5836 27.9724L43.5455 27.9704L43.4431 29.9678ZM43.4812 29.9698L43.2771 31.9593L43.3152 31.9632L43.5193 29.9737L43.7233 27.9841L43.6853 27.9802L43.4812 29.9698ZM43.5193 29.9737L43.2808 31.9594C43.9086 32.0348 44.5196 32.1098 45.1095 32.1816L45.3513 30.1963L45.5932 28.211C45.008 28.1397 44.39 28.0639 43.7578 27.9879L43.5193 29.9737ZM45.3513 30.1963L45.6163 32.1787C46.3645 32.0787 47.1495 31.9708 47.9732 31.8514L47.6863 29.8721L47.3993 27.8928C46.5942 28.0095 45.8245 28.1153 45.0863 28.214L45.3513 30.1963ZM47.6863 29.8721L48.1137 31.8259C48.1421 31.8197 48.1662 31.8138 48.1846 31.809C48.2031 31.8043 48.2186 31.8 48.2296 31.797C48.2406 31.7939 48.2494 31.7913 48.2543 31.7899C48.2568 31.7891 48.2589 31.7885 48.2601 31.7882C48.261 31.7879 48.2622 31.7875 48.2618 31.7876C48.2617 31.7877 48.2615 31.7877 48.2611 31.7878C48.2608 31.7879 48.2602 31.7881 48.2595 31.7883C48.2582 31.7887 48.256 31.7893 48.2533 31.7901C48.2481 31.7916 48.2395 31.7941 48.2288 31.7971C48.218 31.8001 48.2036 31.804 48.1866 31.8083C48.1695 31.8126 48.1482 31.8178 48.1235 31.8232L47.697 29.8692L47.2706 27.9152C47.2449 27.9208 47.2227 27.9261 47.2048 27.9307C47.1868 27.9352 47.1715 27.9394 47.1598 27.9426C47.1481 27.9458 47.1386 27.9486 47.1325 27.9504C47.1266 27.9521 47.1218 27.9535 47.1212 27.9537C47.1204 27.954 47.1211 27.9537 47.1216 27.9536C47.1223 27.9534 47.1239 27.9529 47.126 27.9523C47.13 27.9511 47.1379 27.9488 47.148 27.946C47.1581 27.9431 47.1727 27.9391 47.1904 27.9346C47.208 27.9301 47.2313 27.9243 47.2588 27.9183L47.6863 29.8721ZM47.697 29.8692L48.1231 31.8233C48.1493 31.8176 48.1894 31.8089 48.2415 31.7978L47.824 29.8418L47.4064 27.8859C47.3498 27.898 47.3039 27.9079 47.2709 27.9151L47.697 29.8692ZM47.824 29.8418L48.2416 31.7977C48.3401 31.7767 48.4889 31.7461 48.6803 31.7074L48.2839 29.7471L47.8876 27.7868C47.6944 27.8258 47.5275 27.8601 47.4063 27.8859L47.824 29.8418ZM48.2839 29.7471L48.6803 31.7074C48.7173 31.7 48.7455 31.6942 48.7773 31.6878L48.3855 29.7266L47.9937 27.7654C47.9559 27.7729 47.9162 27.781 47.8876 27.7868L48.2839 29.7471ZM48.3855 29.7266L49.855 28.3699C49.678 28.1782 49.4669 27.9473 49.2829 27.7488L47.8162 29.1084L46.3494 30.4681C46.5397 30.6733 46.7087 30.8588 46.916 31.0833L48.3855 29.7266ZM47.8162 29.1084L49.2829 27.7488C48.8571 27.2894 48.4609 26.8622 48.1372 26.5065L46.658 27.8526L45.1787 29.1986C45.5177 29.5711 45.9284 30.0139 46.3494 30.4681L47.8162 29.1084ZM46.658 27.8526L48.1376 26.507C48.5067 26.9128 48.4808 27.5449 48.0703 27.9189L46.7234 26.4405L45.3764 24.962C44.15 26.0794 44.0666 27.9757 45.1783 29.1982L46.658 27.8526ZM46.7234 26.4405L48.0694 27.9197C47.6617 28.2907 47.0306 28.2622 46.6582 27.8529L48.1375 26.5069L49.6167 25.1609C48.5009 23.9346 46.6021 23.8468 45.3774 24.9612L46.7234 26.4405ZM48.1375 26.5069L46.6582 27.8529C46.9893 28.2168 47.3921 28.6512 47.8162 29.1087L49.283 27.7491L50.7497 26.3894C50.3213 25.9272 49.9326 25.508 49.6167 25.1608L48.1375 26.5069ZM49.283 27.7491L47.8162 29.1087C48.2414 29.5674 48.6891 30.0508 49.1154 30.5191L50.5945 29.1729L52.0736 27.8267C51.6333 27.3429 51.1738 26.8468 50.7497 26.3894L49.283 27.7491ZM50.5945 29.1729L49.1154 30.5191C49.1665 30.5752 49.1861 30.5976 49.2504 30.6685L50.7322 29.3252L52.2139 27.9819C52.1863 27.9515 52.1146 27.8718 52.0736 27.8267L50.5945 29.1729ZM50.7322 29.3252L50.9997 31.3072C51.2436 31.2743 51.4817 31.2466 51.7052 31.2257L51.5193 29.2344L51.3334 27.2431C51.0471 27.2698 50.754 27.3041 50.4646 27.3432L50.7322 29.3252ZM51.5193 29.2344L51.7051 31.2258C52.2317 31.1766 52.5923 31.1761 52.7662 31.2055L53.0994 29.2334L53.4326 27.2614C52.701 27.1378 51.8866 27.1914 51.3335 27.2431L51.5193 29.2344ZM53.0994 29.2334L52.7655 31.2054C52.2218 31.1133 51.8546 30.598 51.9466 30.053L53.9187 30.3858L55.8908 30.7185C56.1665 29.0848 55.0656 27.5378 53.4332 27.2615L53.0994 29.2334ZM53.9187 30.3858L51.9467 30.052C52.039 29.5067 52.5551 29.1412 53.0987 29.2331L52.7654 31.2051L52.4321 33.1771C54.0647 33.453 55.6141 32.3537 55.8907 30.7195L53.9187 30.3858ZM52.7654 31.2051L53.0972 29.2328C52.8164 29.1856 52.5206 29.1821 52.2875 29.187L52.3298 31.1866L52.3722 33.1861C52.4379 33.1847 52.4789 33.1856 52.4984 33.1865C52.5076 33.1869 52.5074 33.1871 52.4991 33.1863C52.4917 33.1856 52.4685 33.1833 52.4335 33.1774L52.7654 31.2051ZM52.3298 31.1866L50.7503 32.4134C50.7858 32.4591 50.8273 32.511 50.8443 32.5325C50.8555 32.5466 50.8631 32.5563 50.8689 32.5638C50.8746 32.5712 50.8768 32.5742 50.8768 32.5742L52.489 31.3907L54.1012 30.2071C54.0546 30.1435 54.01 30.087 53.9802 30.0493C53.9436 30.0031 53.9296 29.9858 53.9093 29.9597L52.3298 31.1866ZM52.489 31.3907L50.8541 32.5427L51.0172 32.7741L52.6521 31.6221L54.287 30.4701L54.1239 30.2386L52.489 31.3907ZM52.6521 31.6221L50.9806 32.7203L51.2462 33.1246L52.9177 32.0264L54.5892 30.9282L54.3236 30.5239L52.6521 31.6221ZM52.9177 32.0264L51.0192 31.3976L50.8668 31.8575L52.7654 32.4864L54.664 33.1152L54.8163 32.6552L52.9177 32.0264ZM52.7654 32.4864L50.8668 31.8575C50.861 31.8751 50.8435 31.9176 50.7968 31.9853C50.7495 32.0538 50.6809 32.1355 50.5863 32.2287L51.99 33.6534L53.3937 35.078C53.8414 34.6369 54.3754 33.9863 54.6639 33.1153L52.7654 32.4864ZM51.99 33.6534L50.5864 32.2286C50.3902 32.4219 50.1062 32.6414 49.7291 32.8788L50.7947 34.5713L51.8603 36.2638C52.3895 35.9306 52.9268 35.5379 53.3935 35.0781L51.99 33.6534ZM50.7947 34.5713L49.7292 32.8788C48.9745 33.3539 47.9362 33.8453 46.708 34.3181L47.4265 36.1846L48.1451 38.0511C49.501 37.529 50.8022 36.9299 51.8602 36.2639L50.7947 34.5713ZM47.4265 36.1846L46.6142 34.357L46.6054 34.3609L47.4177 36.1885L48.23 38.0161L48.2388 38.0122L47.4265 36.1846ZM47.4177 36.1885L46.9327 34.2482L46.9248 34.2502L47.4099 36.1905L47.895 38.1307L47.9028 38.1288L47.4177 36.1885ZM47.4099 36.1905L46.723 34.3121C45.7037 34.6849 45.1341 34.8451 44.5297 35.0154L45.072 36.9405L45.6144 38.8655C46.2604 38.6835 46.9401 38.4918 48.0968 38.0688L47.4099 36.1905ZM45.072 36.9405L44.5307 35.0151C45.0639 34.8652 45.6151 35.1767 45.7645 35.7061L43.8396 36.2491L41.9147 36.792C42.3638 38.3839 44.0175 39.3145 45.6133 38.8658L45.072 36.9405ZM43.8396 36.2491L45.7649 35.7077C45.9135 36.2361 45.6071 36.7899 45.0729 36.9406L44.53 35.0157L43.9871 33.0907C42.3904 33.5411 41.4669 35.1993 41.9143 36.7904L43.8396 36.2491ZM44.53 35.0157L45.0724 36.9407C45.6931 36.7658 46.3152 36.5909 47.3938 36.197L46.7078 34.3184L46.0217 32.4397C45.0809 32.7833 44.5691 32.9268 43.9877 33.0906L44.53 35.0157ZM46.7078 34.3184L47.4263 36.1849C48.5595 35.7486 49.5903 35.2783 50.431 34.7906L49.4275 33.0606L48.424 31.3306C47.8238 31.6787 47.0001 32.0628 45.9892 32.4519L46.7078 34.3184ZM49.4275 33.0606L50.3285 31.275C49.7425 30.9793 49.2936 30.8058 48.8039 30.6806L48.3083 32.6182L47.8128 34.5558C47.9618 34.5939 48.1369 34.6496 48.5265 34.8461L49.4275 33.0606ZM48.3083 32.6182L48.6438 30.6465C47.7989 30.5028 46.7484 30.3675 45.6029 30.2269L45.3591 32.2119L45.1153 34.197C46.2683 34.3386 47.2319 34.4638 47.9729 34.5899L48.3083 32.6182ZM45.3591 32.2119L45.0971 30.2292C40.7422 30.8047 37.566 31.0525 34.8612 30.9678L34.7986 32.9668L34.736 34.9658C37.7647 35.0607 41.1925 34.78 45.6212 34.1947L45.3591 32.2119ZM34.7986 32.9668L34.8612 30.9678C33.5669 30.9273 32.1168 30.7844 30.5715 30.5924L30.325 32.5772L30.0784 34.5619C31.6701 34.7596 33.2607 34.9196 34.736 34.9658L34.7986 32.9668ZM30.325 32.5772L30.1395 30.5858C27.7707 30.8064 25.1521 31.0975 22.6796 31.378L22.905 33.3653L23.1305 35.3525C25.603 35.072 28.1858 34.785 30.5104 34.5686L30.325 32.5772ZM22.905 33.3653L22.6796 31.378C21.1403 31.5526 19.6461 31.7218 18.2987 31.8693L18.5164 33.8575L18.734 35.8456C20.0904 35.6971 21.5923 35.527 23.1305 35.3525L22.905 33.3653ZM18.5164 33.8575L16.6771 34.6431C16.5234 34.2833 16.5892 33.8422 16.8922 33.5409L18.3025 34.959L19.7128 36.3771C20.6137 35.4812 20.8214 34.1623 20.3556 33.0718L18.5164 33.8575ZM18.3025 34.959L16.8929 33.5402C17.2844 33.1512 17.9174 33.153 18.3068 33.5441L16.8894 34.9551L15.472 36.3661C16.64 37.5395 18.5375 37.5447 19.7121 36.3779L18.3025 34.959ZM16.8894 34.9551L18.3077 33.545C18.1705 33.407 18.0077 33.2107 17.8231 32.9491L16.1892 34.1026L14.5553 35.256C14.8244 35.6372 15.1296 36.0217 15.4711 36.3652L16.8894 34.9551ZM16.1892 34.1026L15.9963 32.1119C14.887 32.2194 14.0444 32.2848 13.5178 32.2975L13.5662 34.2969L13.6145 36.2963C14.301 36.2797 15.2725 36.2008 16.3821 36.0932L16.1892 34.1026ZM13.5662 34.2969L13.5189 32.2975C14.0707 32.2844 14.5278 32.72 14.5412 33.2721L12.5417 33.3203L10.5423 33.3686C10.5823 35.0246 11.9578 36.3355 13.6134 36.2963L13.5662 34.2969ZM12.5417 33.3203L14.5412 33.2732C14.5543 33.8272 14.1164 34.2831 13.5666 34.2963L13.5183 32.2969L13.4701 30.2975C11.8164 30.3374 10.5032 31.7097 10.5423 33.3675L12.5417 33.3203ZM13.5183 32.2969L13.5666 34.2963C14.0229 34.2853 14.6089 34.2434 15.2641 34.187L15.0925 32.1944L14.921 30.2017C14.2778 30.2571 13.7952 30.2896 13.47 30.2975L13.5183 32.2969ZM15.0925 32.1944L16.8968 31.3314C16.8453 31.2237 16.8189 31.1704 16.7887 31.1044L14.9705 31.9375L13.1523 32.7707C13.2007 32.8765 13.2578 32.9936 13.2883 33.0573L15.0925 32.1944ZM14.9705 31.9375L16.7887 31.1044C16.3029 30.0442 15.9341 28.926 15.7927 28.0802L13.8201 28.4102L11.8475 28.7401C12.0639 30.0341 12.5693 31.4983 13.1522 32.7706L14.9705 31.9375ZM13.8201 28.4102L15.7924 28.0789L15.7075 27.5731L13.7351 27.9043L11.7627 28.2356L11.8477 28.7415L13.8201 28.4102ZM13.7351 27.9043L15.1531 29.3147L15.5164 28.9495L14.0984 27.5391L12.6804 26.1287L12.3171 26.4939L13.7351 27.9043ZM14.0984 27.5391L15.5157 28.9502C15.7405 28.7244 16.1751 28.4844 16.8984 28.2014L16.1697 26.3389L15.441 24.4764C14.6798 24.7742 13.5449 25.2604 12.6811 26.1279L14.0984 27.5391ZM16.1697 26.3389L16.8983 28.2014C17.6222 27.9182 18.3913 27.6778 19.3296 27.3339L18.6414 25.4561L17.9531 23.5782C17.298 23.8183 16.1556 24.1968 15.441 24.4764L16.1697 26.3389ZM18.6414 25.4561L19.3719 27.3179C20.1937 26.9954 20.8231 26.7005 21.5976 26.1075L20.3816 24.5196L19.1656 22.9317C18.7975 23.2136 18.543 23.3462 17.9108 23.5943L18.6414 25.4561ZM16.5076 30.4502L14.6538 31.2009C14.7515 31.4422 14.8569 31.6895 14.9706 31.9377L16.7888 31.1045L18.607 30.2714C18.5223 30.0866 18.4406 29.8953 18.3613 29.6995L16.5076 30.4502ZM16.7888 31.1045L14.9706 31.9377C15.1346 32.2956 15.3056 32.6321 15.4745 32.9425L17.2312 31.9864L18.9879 31.0302C18.8571 30.7901 18.7282 30.5359 18.607 30.2714L16.7888 31.1045ZM17.2312 31.9864L17.4409 33.9753C18.8312 33.8287 20.4561 33.6439 22.1778 33.4482L21.9519 31.461L21.726 29.4738C19.9992 29.6701 18.3922 29.8529 17.0215 29.9974L17.2312 31.9864ZM21.9519 31.461L22.1706 29.473C21.7226 29.4237 21.2745 29.3778 20.83 29.3388L20.655 31.3311L20.4801 33.3234C20.8868 33.3591 21.3041 33.4018 21.7332 33.449L21.9519 31.461ZM20.655 31.3311L20.8211 29.338L20.8094 29.337L20.6433 31.3301L20.4772 33.3232L20.4889 33.3242L20.655 31.3311ZM20.6433 31.3301L20.8404 29.3398C19.4114 29.1983 18.3514 28.9756 17.3716 28.6444L16.7312 30.5391L16.0908 32.4338C17.4171 32.8821 18.7846 33.1558 20.4462 33.3204L20.6433 31.3301ZM16.7312 30.5391L17.3919 28.6514L17.3528 28.6377L16.6921 30.5254L16.0314 32.4131L16.0705 32.4268L16.7312 30.5391ZM16.6921 30.5254L17.4085 28.6581C17.3544 28.6373 17.3982 28.6529 17.2557 28.5954L16.5076 30.4502L15.7594 32.305C15.7784 32.3127 15.7925 32.3186 15.8338 32.3358C15.8679 32.3499 15.9188 32.3709 15.9757 32.3927L16.6921 30.5254Z" fill="white" mask="url(#path-1-outside-1_34_72)"/>
</svg>
