<svg width="64" height="64" viewBox="0 0 64 64" fill="none" xmlns="http://www.w3.org/2000/svg">
<mask id="path-1-outside-1_34_72" maskUnits="userSpaceOnUse" x="10.5417" y="22.3135" width="45" height="16" fill="black">
<rect fill="white" x="10.5417" y="22.3135" width="45" height="16"/>
<path d="M20.532 24.7178C20.8608 24.466 21.3319 24.5287 21.5837 24.8575C21.8355 25.1862 21.7736 25.6563 21.4451 25.9082C20.6973 26.4808 20.0931 26.7663 19.281 27.085L19.2732 27.0889L19.2654 27.0909C18.3232 27.437 17.5468 27.6795 16.8074 27.9688C16.5038 28.0875 16.2434 28.2008 16.0242 28.3125C16.4644 28.5248 16.8749 28.7202 17.3015 28.8848C18.2986 29.2209 19.3729 29.4454 20.8074 29.5879L21.6863 29.6719C23.7554 29.8856 25.9526 30.2133 28.073 30.5108C28.8454 30.6191 29.6077 30.7224 30.3523 30.8164C31.8004 30.6832 33.1542 30.5778 34.322 30.5186C37.4632 30.3592 40.3521 30.0823 43.4333 30.2178L43.4607 30.2198L43.489 30.2227C44.1302 30.2997 44.7543 30.3758 45.3494 30.4483C46.1068 30.3472 46.8995 30.2387 47.7302 30.1182C47.7358 30.117 47.7425 30.1159 47.7498 30.1143C47.779 30.1079 47.8223 30.0986 47.8767 30.0869C47.9856 30.0637 48.1418 30.0308 48.3328 29.9922C48.4905 29.9603 48.6728 29.9236 48.8718 29.8858C48.5791 29.5671 48.285 29.2462 47.9998 28.9385C47.5759 28.4813 47.1729 28.0477 46.8425 27.6846C46.5638 27.3783 46.5861 26.9038 46.8923 26.625C47.1986 26.3465 47.6732 26.3687 47.9519 26.6748C48.2764 27.0315 48.6734 27.4594 49.0994 27.919C49.524 28.3771 49.9765 28.8658 50.4089 29.3409C50.4846 29.424 50.5595 29.5079 50.6345 29.5909C50.9426 29.5476 51.2508 29.5098 51.5437 29.4825C52.0816 29.4323 52.6398 29.409 53.0574 29.4795C53.4657 29.5486 53.7416 29.9364 53.6726 30.3448C53.6033 30.7529 53.2156 31.027 52.8074 30.958C52.6191 30.9263 52.2844 30.9272 51.8318 30.9639C52.0869 31.2722 52.3004 31.5436 52.4421 31.7588L52.6423 32.0625L52.5281 32.4082C52.3935 32.8142 52.1246 33.1697 51.8152 33.4746C51.5005 33.7846 51.1047 34.08 50.6609 34.3594C49.7735 34.918 48.6198 35.4569 47.3357 35.9512L47.325 35.9561C46.2454 36.3508 45.6272 36.5238 45.0046 36.6992C44.6062 36.8113 44.1923 36.58 44.0798 36.1817C43.9677 35.7831 44.1998 35.3682 44.5984 35.2559C45.2051 35.085 45.7813 34.9228 46.8093 34.5469C48.0405 34.0724 49.0908 33.5754 49.8621 33.0899C49.8853 33.0752 49.9078 33.0595 49.9304 33.045C49.192 32.6449 48.7874 32.4813 48.3611 32.3731C47.5542 32.2354 46.5267 32.1033 45.3572 31.96C40.9555 32.5426 37.6605 32.8062 34.8064 32.7168C33.4236 32.6735 31.9026 32.521 30.3289 32.3252C27.9704 32.5445 25.3564 32.8358 22.8757 33.1172C21.1724 33.3105 19.5238 33.4971 18.0691 33.6543C18.09 33.6766 18.109 33.7 18.1296 33.7207C18.4216 34.0145 18.4204 34.4902 18.1267 34.7823C17.8329 35.074 17.3571 35.072 17.0652 34.7784C16.8075 34.5191 16.5527 34.1988 16.3074 33.8389C15.1388 33.9536 14.1866 34.0318 13.5603 34.0469C13.1466 34.0567 12.803 33.7292 12.7927 33.3155C12.7827 32.9014 13.1101 32.5569 13.5242 32.5469C13.9903 32.5356 14.657 32.4849 15.4763 32.4102C15.3801 32.2198 15.2868 32.0268 15.198 31.833C14.6698 30.6802 14.2424 29.4109 14.0681 28.3692L14.0046 27.9893L14.2751 27.7168C14.7796 27.2099 15.5212 26.8609 16.2615 26.5713C16.9843 26.2886 17.916 25.9892 18.7332 25.6895C19.472 25.3995 19.9358 25.1743 20.532 24.7178ZM16.0613 29.9883C16.2075 30.3925 16.3766 30.8049 16.5613 31.208C16.7307 31.5778 16.9103 31.9294 17.0916 32.252C18.7023 32.0836 20.645 31.8609 22.7068 31.627C23.1654 31.575 23.6296 31.5241 24.0964 31.4717C22.9256 31.3167 21.7766 31.1797 20.6755 31.083L20.6677 31.0821C19.137 30.9305 17.9427 30.6852 16.8113 30.3028L16.7957 30.2969L16.783 30.291C16.5364 30.1965 16.2959 30.0942 16.0613 29.9883ZM50.0535 31.1973C49.9344 31.2172 49.8174 31.2395 49.7029 31.2598C49.9171 31.3531 50.1476 31.4606 50.4041 31.5948C50.2953 31.468 50.1777 31.3353 50.0554 31.1963L50.0535 31.1973Z"/>
</mask>
<path d="M20.532 24.7178C20.8608 24.466 21.3319 24.5287 21.5837 24.8575C21.8355 25.1862 21.7736 25.6563 21.4451 25.9082C20.6973 26.4808 20.0931 26.7663 19.281 27.085L19.2732 27.0889L19.2654 27.0909C18.3232 27.437 17.5468 27.6795 16.8074 27.9688C16.5038 28.0875 16.2434 28.2008 16.0242 28.3125C16.4644 28.5248 16.8749 28.7202 17.3015 28.8848C18.2986 29.2209 19.3729 29.4454 20.8074 29.5879L21.6863 29.6719C23.7554 29.8856 25.9526 30.2133 28.073 30.5108C28.8454 30.6191 29.6077 30.7224 30.3523 30.8164C31.8004 30.6832 33.1542 30.5778 34.322 30.5186C37.4632 30.3592 40.3521 30.0823 43.4333 30.2178L43.4607 30.2198L43.489 30.2227C44.1302 30.2997 44.7543 30.3758 45.3494 30.4483C46.1068 30.3472 46.8995 30.2387 47.7302 30.1182C47.7358 30.117 47.7425 30.1159 47.7498 30.1143C47.779 30.1079 47.8223 30.0986 47.8767 30.0869C47.9856 30.0637 48.1418 30.0308 48.3328 29.9922C48.4905 29.9603 48.6728 29.9236 48.8718 29.8858C48.5791 29.5671 48.285 29.2462 47.9998 28.9385C47.5759 28.4813 47.1729 28.0477 46.8425 27.6846C46.5638 27.3783 46.5861 26.9038 46.8923 26.625C47.1986 26.3465 47.6732 26.3687 47.9519 26.6748C48.2764 27.0315 48.6734 27.4594 49.0994 27.919C49.524 28.3771 49.9765 28.8658 50.4089 29.3409C50.4846 29.424 50.5595 29.5079 50.6345 29.5909C50.9426 29.5476 51.2508 29.5098 51.5437 29.4825C52.0816 29.4323 52.6398 29.409 53.0574 29.4795C53.4657 29.5486 53.7416 29.9364 53.6726 30.3448C53.6033 30.7529 53.2156 31.027 52.8074 30.958C52.6191 30.9263 52.2844 30.9272 51.8318 30.9639C52.0869 31.2722 52.3004 31.5436 52.4421 31.7588L52.6423 32.0625L52.5281 32.4082C52.3935 32.8142 52.1246 33.1697 51.8152 33.4746C51.5005 33.7846 51.1047 34.08 50.6609 34.3594C49.7735 34.918 48.6198 35.4569 47.3357 35.9512L47.325 35.9561C46.2454 36.3508 45.6272 36.5238 45.0046 36.6992C44.6062 36.8113 44.1923 36.58 44.0798 36.1817C43.9677 35.7831 44.1998 35.3682 44.5984 35.2559C45.2051 35.085 45.7813 34.9228 46.8093 34.5469C48.0405 34.0724 49.0908 33.5754 49.8621 33.0899C49.8853 33.0752 49.9078 33.0595 49.9304 33.045C49.192 32.6449 48.7874 32.4813 48.3611 32.3731C47.5542 32.2354 46.5267 32.1033 45.3572 31.96C40.9555 32.5426 37.6605 32.8062 34.8064 32.7168C33.4236 32.6735 31.9026 32.521 30.3289 32.3252C27.9704 32.5445 25.3564 32.8358 22.8757 33.1172C21.1724 33.3105 19.5238 33.4971 18.0691 33.6543C18.09 33.6766 18.109 33.7 18.1296 33.7207C18.4216 34.0145 18.4204 34.4902 18.1267 34.7823C17.8329 35.074 17.3571 35.072 17.0652 34.7784C16.8075 34.5191 16.5527 34.1988 16.3074 33.8389C15.1388 33.9536 14.1866 34.0318 13.5603 34.0469C13.1466 34.0567 12.803 33.7292 12.7927 33.3155C12.7827 32.9014 13.1101 32.5569 13.5242 32.5469C13.9903 32.5356 14.657 32.4849 15.4763 32.4102C15.3801 32.2198 15.2868 32.0268 15.198 31.833C14.6698 30.6802 14.2424 29.4109 14.0681 28.3692L14.0046 27.9893L14.2751 27.7168C14.7796 27.2099 15.5212 26.8609 16.2615 26.5713C16.9843 26.2886 17.916 25.9892 18.7332 25.6895C19.472 25.3995 19.9358 25.1743 20.532 24.7178ZM16.0613 29.9883C16.2075 30.3925 16.3766 30.8049 16.5613 31.208C16.7307 31.5778 16.9103 31.9294 17.0916 32.252C18.7023 32.0836 20.645 31.8609 22.7068 31.627C23.1654 31.575 23.6296 31.5241 24.0964 31.4717C22.9256 31.3167 21.7766 31.1797 20.6755 31.083L20.6677 31.0821C19.137 30.9305 17.9427 30.6852 16.8113 30.3028L16.7957 30.2969L16.783 30.291C16.5364 30.1965 16.2959 30.0942 16.0613 29.9883ZM50.0535 31.1973C49.9344 31.2172 49.8174 31.2395 49.7029 31.2598C49.9171 31.3531 50.1476 31.4606 50.4041 31.5948C50.2953 31.468 50.1777 31.3353 50.0554 31.1963L50.0535 31.1973Z" fill="black"/>
<path d="M20.532 24.7178L21.4439 25.9088L21.444 25.9087L20.532 24.7178ZM21.5837 24.8575L22.7747 23.9455L22.7745 23.9452L21.5837 24.8575ZM21.4451 25.9082L22.357 27.0992L22.3578 27.0986L21.4451 25.9082ZM19.281 27.085L18.7331 25.6887L18.6704 25.7132L18.6102 25.7434L19.281 27.085ZM19.2732 27.0889L19.637 28.5441L19.7967 28.5042L19.944 28.4305L19.2732 27.0889ZM19.2654 27.0909L18.9016 25.6356L18.8235 25.6551L18.7481 25.6829L19.2654 27.0909ZM16.8074 27.9688L16.2609 26.5719L16.2608 26.5719L16.8074 27.9688ZM16.0242 28.3125L15.343 26.9761L12.6481 28.3497L15.3726 29.6636L16.0242 28.3125ZM17.3015 28.8848L16.7615 30.2842L16.7917 30.2959L16.8224 30.3062L17.3015 28.8848ZM20.8074 29.5879L20.6591 31.0806L20.6647 31.0811L20.8074 29.5879ZM21.6863 29.6719L21.8404 28.1798L21.829 28.1787L21.6863 29.6719ZM28.073 30.5108L27.8646 31.9962L27.8646 31.9962L28.073 30.5108ZM30.3523 30.8164L30.1644 32.3046L30.3268 32.3251L30.4897 32.3101L30.3523 30.8164ZM34.322 30.5186L34.398 32.0167L34.398 32.0167L34.322 30.5186ZM43.4333 30.2178L43.5402 28.7216L43.5198 28.7202L43.4993 28.7193L43.4333 30.2178ZM43.4607 30.2198L43.615 28.7277L43.5913 28.7253L43.5676 28.7236L43.4607 30.2198ZM43.489 30.2227L43.6679 28.7334L43.6556 28.7319L43.6434 28.7306L43.489 30.2227ZM45.3494 30.4483L45.1679 31.9373L45.358 31.9604L45.5478 31.9351L45.3494 30.4483ZM47.7302 30.1182L47.9455 31.6027L47.9994 31.5948L48.0527 31.5831L47.7302 30.1182ZM47.7498 30.1143L47.4299 28.6488L47.4292 28.6489L47.7498 30.1143ZM47.8767 30.0869L47.5635 28.62L47.5635 28.62L47.8767 30.0869ZM48.3328 29.9922L48.0355 28.522L48.0355 28.522L48.3328 29.9922ZM48.8718 29.8858L49.1521 31.3594L51.8 30.8557L49.9764 28.8709L48.8718 29.8858ZM47.9998 28.9385L49.0998 27.9188L49.0998 27.9187L47.9998 28.9385ZM46.8425 27.6846L45.733 28.694L45.7331 28.6941L46.8425 27.6846ZM46.8923 26.625L45.8831 25.5153L45.8827 25.5157L46.8923 26.625ZM47.9519 26.6748L49.0614 25.6653L49.0609 25.6648L47.9519 26.6748ZM49.0994 27.919L50.1994 26.8992L50.1994 26.8992L49.0994 27.919ZM50.4089 29.3409L51.5183 28.3312L51.5182 28.3312L50.4089 29.3409ZM50.6345 29.5909L49.5217 30.5967L50.0552 31.1868L50.8429 31.0763L50.6345 29.5909ZM51.5437 29.4825L51.4044 27.9889L51.4043 27.9889L51.5437 29.4825ZM53.0574 29.4795L53.3077 28.0006L53.3071 28.0005L53.0574 29.4795ZM53.6726 30.3448L55.1515 30.5958L55.1516 30.5947L53.6726 30.3448ZM52.8074 30.958L53.0572 29.479L53.0567 29.4789L52.8074 30.958ZM51.8318 30.9639L51.7107 29.4688L48.8404 29.7012L50.676 31.9201L51.8318 30.9639ZM52.4421 31.7588L51.1895 32.584L51.1897 32.5844L52.4421 31.7588ZM52.6423 32.0625L54.0666 32.5332L54.2945 31.8435L53.8947 31.237L52.6423 32.0625ZM52.5281 32.4082L53.9519 32.8802L53.9523 32.879L52.5281 32.4082ZM51.8152 33.4746L52.8679 34.5432L52.8681 34.543L51.8152 33.4746ZM50.6609 34.3594L51.46 35.6288L51.4601 35.6288L50.6609 34.3594ZM47.3357 35.9512L46.7968 34.5514L46.7554 34.5673L46.715 34.5857L47.3357 35.9512ZM47.325 35.9561L47.8401 37.3648L47.8937 37.3452L47.9457 37.3216L47.325 35.9561ZM45.0046 36.6992L45.4108 38.1432L45.4114 38.143L45.0046 36.6992ZM44.0798 36.1817L42.6359 36.5879L42.6363 36.5892L44.0798 36.1817ZM44.5984 35.2559L44.1916 33.8121L44.1916 33.8121L44.5984 35.2559ZM46.8093 34.5469L47.3245 35.9557L47.3367 35.9512L47.3488 35.9465L46.8093 34.5469ZM49.8621 33.0899L50.6612 34.3593L50.6612 34.3592L49.8621 33.0899ZM49.9304 33.045L50.7423 34.3062L52.8742 32.9339L50.645 31.7261L49.9304 33.045ZM48.3611 32.3731L48.7302 30.9192L48.6723 30.9045L48.6133 30.8944L48.3611 32.3731ZM45.3572 31.96L45.5396 30.4711L45.3499 30.4479L45.1604 30.473L45.3572 31.96ZM34.8064 32.7168L34.7594 34.2161L34.7595 34.2161L34.8064 32.7168ZM30.3289 32.3252L30.514 30.8367L30.3523 30.8166L30.19 30.8317L30.3289 32.3252ZM22.8757 33.1172L22.7066 31.6268L22.7066 31.6268L22.8757 33.1172ZM18.0691 33.6543L17.9079 32.163L14.9123 32.4868L16.9763 34.6819L18.0691 33.6543ZM18.1296 33.7207L19.1936 32.6634L19.1935 32.6633L18.1296 33.7207ZM18.1267 34.7823L19.1838 35.8465L19.1844 35.8459L18.1267 34.7823ZM17.0652 34.7784L16.0013 35.8357L16.0015 35.8359L17.0652 34.7784ZM16.3074 33.8389L17.5468 32.994L17.0459 32.2592L16.1608 32.3461L16.3074 33.8389ZM13.5603 34.0469L13.5958 35.5465L13.5966 35.5465L13.5603 34.0469ZM12.7927 33.3155L11.2932 33.3517L11.2932 33.3528L12.7927 33.3155ZM13.5242 32.5469L13.5604 34.0465L13.5604 34.0465L13.5242 32.5469ZM15.4763 32.4102L15.6126 33.904L17.8106 33.7035L16.8151 31.7336L15.4763 32.4102ZM15.198 31.833L13.8343 32.4579L13.8343 32.4579L15.198 31.833ZM14.0681 28.3692L12.5886 28.6164L12.5887 28.6167L14.0681 28.3692ZM14.0046 27.9893L12.9402 26.9325L12.3984 27.4781L12.5252 28.2365L14.0046 27.9893ZM14.2751 27.7168L13.2119 26.6587L13.2107 26.66L14.2751 27.7168ZM16.2615 26.5713L15.715 25.1744L15.715 25.1744L16.2615 26.5713ZM18.7332 25.6895L19.2497 27.0978L19.2654 27.092L19.2811 27.0858L18.7332 25.6895ZM16.0613 29.9883L16.6781 28.621L13.4442 27.162L14.6507 30.4984L16.0613 29.9883ZM16.5613 31.208L15.1976 31.8328L15.1976 31.8329L16.5613 31.208ZM17.0916 32.252L15.7838 32.9867L16.2668 33.8464L17.2475 33.7439L17.0916 32.252ZM22.7068 31.627L22.5377 30.1365L22.5377 30.1365L22.7068 31.627ZM24.0964 31.4717L24.2637 32.9624L24.2933 29.9847L24.0964 31.4717ZM20.6755 31.083L20.4895 32.5715L20.5169 32.5749L20.5444 32.5773L20.6755 31.083ZM20.6677 31.0821L20.8538 29.5936L20.8347 29.5913L20.8155 29.5894L20.6677 31.0821ZM16.8113 30.3028L16.2846 31.7073L16.3076 31.7159L16.331 31.7238L16.8113 30.3028ZM16.7957 30.2969L16.1671 31.6588L16.2172 31.682L16.269 31.7014L16.7957 30.2969ZM16.783 30.291L17.4115 28.9291L17.3665 28.9083L17.3202 28.8906L16.783 30.291ZM50.0535 31.1973L50.301 32.6767L50.523 32.6396L50.7243 32.5389L50.0535 31.1973ZM49.7029 31.2598L49.4414 29.7828L44.5448 30.6497L49.104 32.6351L49.7029 31.2598ZM50.4041 31.5948L49.7089 32.924L51.5424 30.6179L50.4041 31.5948ZM50.0554 31.1963L51.1817 30.2056L50.4184 29.3378L49.3846 29.8547L50.0554 31.1963ZM20.532 24.7178L21.444 25.9087C21.1144 26.1611 20.6443 26.0977 20.393 25.7697L21.5837 24.8575L22.7745 23.9452C22.0194 22.9597 20.6072 22.7709 19.62 23.5269L20.532 24.7178ZM21.5837 24.8575L20.3928 25.7694C20.1419 25.4418 20.2027 24.9706 20.5323 24.7179L21.4451 25.9082L22.3578 27.0986C23.3445 26.342 23.5291 24.9306 22.7747 23.9455L21.5837 24.8575ZM21.4451 25.9082L20.5331 24.7173C19.9367 25.174 19.4722 25.3986 18.7331 25.6887L19.281 27.085L19.829 28.4813C20.714 28.134 21.458 27.7876 22.357 27.0992L21.4451 25.9082ZM19.281 27.085L18.6102 25.7434L18.6024 25.7473L19.2732 27.0889L19.944 28.4305L19.9518 28.4266L19.281 27.085ZM19.2732 27.0889L18.9094 25.6337L18.9016 25.6356L19.2654 27.0909L19.6292 28.5461L19.637 28.5441L19.2732 27.0889ZM19.2654 27.0909L18.7481 25.6829C17.9268 25.9846 16.9885 26.2872 16.2609 26.5719L16.8074 27.9688L17.3539 29.3657C18.105 29.0718 18.7195 28.8895 19.7827 28.4988L19.2654 27.0909ZM16.8074 27.9688L16.2608 26.5719C15.9307 26.7011 15.6213 26.8343 15.343 26.9761L16.0242 28.3125L16.7054 29.6489C16.8655 29.5673 17.0769 29.474 17.3539 29.3657L16.8074 27.9688ZM16.0242 28.3125L15.3726 29.6636C15.8097 29.8744 16.2709 30.0949 16.7615 30.2842L17.3015 28.8848L17.8416 27.4854C17.4789 27.3454 17.1192 27.1753 16.6757 26.9614L16.0242 28.3125ZM17.3015 28.8848L16.8224 30.3062C17.9487 30.6859 19.1379 30.9295 20.6591 31.0806L20.8074 29.5879L20.9556 28.0953C19.608 27.9614 18.6484 27.7559 17.7807 27.4634L17.3015 28.8848ZM20.8074 29.5879L20.6647 31.0811L21.5436 31.1651L21.6863 29.6719L21.829 28.1787L20.9501 28.0947L20.8074 29.5879ZM21.6863 29.6719L21.5321 31.164C23.566 31.3741 25.7242 31.6959 27.8646 31.9962L28.073 30.5108L28.2814 29.0253C26.1811 28.7307 23.9447 28.3972 21.8404 28.1798L21.6863 29.6719ZM28.073 30.5108L27.8646 31.9962C28.6414 32.1052 29.4109 32.2095 30.1644 32.3046L30.3523 30.8164L30.5402 29.3283C29.8046 29.2354 29.0495 29.1331 28.2814 29.0253L28.073 30.5108ZM30.3523 30.8164L30.4897 32.3101C31.927 32.1779 33.2585 32.0745 34.398 32.0167L34.322 30.5186L34.246 29.0205C33.0499 29.0812 31.6738 29.1885 30.2148 29.3227L30.3523 30.8164ZM34.322 30.5186L34.398 32.0167C37.6236 31.853 40.3807 31.585 43.3674 31.7164L43.4333 30.2178L43.4993 28.7193C40.3235 28.5796 37.3028 28.8654 34.246 29.0205L34.322 30.5186ZM43.4333 30.2178L43.3265 31.714L43.3538 31.7159L43.4607 30.2198L43.5676 28.7236L43.5402 28.7216L43.4333 30.2178ZM43.4607 30.2198L43.3063 31.7118L43.3347 31.7147L43.489 30.2227L43.6434 28.7306L43.615 28.7277L43.4607 30.2198ZM43.489 30.2227L43.3102 31.712C43.9499 31.7888 44.5727 31.8647 45.1679 31.9373L45.3494 30.4483L45.5308 28.9593C44.936 28.8868 44.3106 28.8106 43.6679 28.7334L43.489 30.2227ZM45.3494 30.4483L45.5478 31.9351C46.3086 31.8335 47.1073 31.7242 47.9455 31.6027L47.7302 30.1182L47.515 28.6337C46.6917 28.7531 45.9049 28.8608 45.1509 28.9615L45.3494 30.4483ZM47.7302 30.1182L48.0527 31.5831C48.0388 31.5862 48.0282 31.5883 48.0238 31.5892C48.0213 31.5896 48.0196 31.59 48.0191 31.5901C48.0189 31.5901 48.0185 31.5902 48.02 31.5899C48.0219 31.5895 48.0286 31.5882 48.0366 31.5867C48.045 31.585 48.0566 31.5826 48.0703 31.5796L47.7498 30.1143L47.4292 28.6489C47.4392 28.6467 47.4473 28.6451 47.4522 28.6441C47.4567 28.6432 47.4601 28.6426 47.4587 28.6429C47.4586 28.6429 47.4566 28.6433 47.4548 28.6436C47.4527 28.644 47.4494 28.6446 47.4454 28.6454C47.438 28.6469 47.4244 28.6496 47.4078 28.6533L47.7302 30.1182ZM47.7498 30.1143L48.0696 31.5798C48.096 31.574 48.1369 31.5652 48.1899 31.5539L47.8767 30.0869L47.5635 28.62C47.5076 28.6319 47.4621 28.6418 47.4299 28.6488L47.7498 30.1143ZM47.8767 30.0869L48.1899 31.5539C48.2946 31.5315 48.4453 31.4998 48.6301 31.4625L48.3328 29.9922L48.0355 28.522C47.8382 28.5619 47.6766 28.5959 47.5635 28.62L47.8767 30.0869ZM48.3328 29.9922L48.63 31.4625C48.7871 31.4307 48.9622 31.3955 49.1521 31.3594L48.8718 29.8858L48.5916 28.4122C48.3834 28.4518 48.1938 28.49 48.0355 28.522L48.3328 29.9922ZM48.8718 29.8858L49.9764 28.8709C49.6856 28.5544 49.3881 28.2297 49.0998 27.9188L47.9998 28.9385L46.8997 29.9583C47.182 30.2628 47.4725 30.5798 47.7673 30.9006L48.8718 29.8858ZM47.9998 28.9385L49.0998 27.9187C48.6729 27.4583 48.2764 27.0316 47.952 26.6751L46.8425 27.6846L45.7331 28.6941C46.0694 29.0638 46.4788 29.5042 46.8997 29.9583L47.9998 28.9385ZM46.8425 27.6846L47.9521 26.6752C48.2304 26.9811 48.2087 27.4552 47.902 27.7343L46.8923 26.625L45.8827 25.5157C44.9634 26.3524 44.8972 27.7754 45.733 28.694L46.8425 27.6846ZM46.8923 26.625L47.9016 27.7347C47.5955 28.0131 47.1218 27.9911 46.8429 27.6848L47.9519 26.6748L49.0609 25.6648C48.2245 24.7464 46.8018 24.6798 45.8831 25.5153L46.8923 26.625ZM47.9519 26.6748L46.8425 27.6843C47.1727 28.0473 47.5751 28.4812 47.9993 28.9387L49.0994 27.919L50.1994 26.8992C49.7716 26.4377 49.3801 26.0157 49.0614 25.6653L47.9519 26.6748ZM49.0994 27.919L47.9993 28.9387C48.4242 29.3971 48.8724 29.8812 49.2996 30.3505L50.4089 29.3409L51.5182 28.3312C51.0807 27.8504 50.6238 27.357 50.1994 26.8992L49.0994 27.919ZM50.4089 29.3409L49.2996 30.3505C49.3748 30.4331 49.4369 30.5029 49.5217 30.5967L50.6345 29.5909L51.7473 28.585C51.6821 28.5129 51.5945 28.415 51.5183 28.3312L50.4089 29.3409ZM50.6345 29.5909L50.8429 31.0763C51.1351 31.0353 51.4194 31.0006 51.6831 30.976L51.5437 29.4825L51.4043 27.9889C51.0822 28.019 50.75 28.06 50.4261 28.1054L50.6345 29.5909ZM51.5437 29.4825L51.683 30.976C52.2101 30.9268 52.5987 30.9233 52.8077 30.9586L53.0574 29.4795L53.3071 28.0005C52.6809 27.8947 51.9532 27.9378 51.4044 27.9889L51.5437 29.4825ZM53.0574 29.4795L52.807 30.9585C52.3997 30.8895 52.1244 30.5042 52.1936 30.0948L53.6726 30.3448L55.1516 30.5947C55.3588 29.3686 54.5317 28.2077 53.3077 28.0006L53.0574 29.4795ZM53.6726 30.3448L52.1938 30.0937C52.2637 29.6816 52.653 29.4107 53.0572 29.479L52.8074 30.958L52.5576 32.4371C53.7782 32.6432 54.943 31.8242 55.1515 30.5958L53.6726 30.3448ZM52.8074 30.958L53.0567 29.4789C52.6688 29.4135 52.1712 29.4315 51.7107 29.4688L51.8318 30.9639L51.9529 32.459C52.1531 32.4428 52.3106 32.4359 52.4265 32.4353C52.5549 32.4346 52.5874 32.4421 52.558 32.4372L52.8074 30.958ZM51.8318 30.9639L50.676 31.9201C50.9284 32.2251 51.0963 32.4425 51.1895 32.584L52.4421 31.7588L53.6948 30.9337C53.5044 30.6447 53.2453 30.3193 52.9875 30.0077L51.8318 30.9639ZM52.4421 31.7588L51.1897 32.5844L51.3899 32.8881L52.6423 32.0625L53.8947 31.237L53.6945 30.9333L52.4421 31.7588ZM52.6423 32.0625L51.2181 31.5918L51.1038 31.9375L52.5281 32.4082L53.9523 32.879L54.0666 32.5332L52.6423 32.0625ZM52.5281 32.4082L51.1043 31.9362C51.0723 32.0327 50.9797 32.192 50.7623 32.4063L51.8152 33.4746L52.8681 34.543C53.2694 34.1475 53.7147 33.5958 53.9519 32.8802L52.5281 32.4082ZM51.8152 33.4746L50.7624 32.4061C50.5499 32.6155 50.2497 32.8458 49.8617 33.09L50.6609 34.3594L51.4601 35.6288C51.9598 35.3142 52.4511 34.9538 52.8679 34.5432L51.8152 33.4746ZM50.6609 34.3594L49.8618 33.09C49.0881 33.577 48.0329 34.0755 46.7968 34.5514L47.3357 35.9512L47.8746 37.3511C49.2067 36.8382 50.4589 36.259 51.46 35.6288L50.6609 34.3594ZM47.3357 35.9512L46.715 34.5857L46.7042 34.5905L47.325 35.9561L47.9457 37.3216L47.9564 37.3168L47.3357 35.9512ZM47.325 35.9561L46.8098 34.5473C45.7828 34.9229 45.2066 35.084 44.5979 35.2555L45.0046 36.6992L45.4114 38.143C46.0478 37.9637 46.7081 37.7788 47.8401 37.3648L47.325 35.9561ZM45.0046 36.6992L44.5985 35.2553C44.9951 35.1437 45.4104 35.3739 45.5234 35.7741L44.0798 36.1817L42.6363 36.5892C42.9742 37.7861 44.2172 38.4789 45.4108 38.1432L45.0046 36.6992ZM44.0798 36.1817L45.5238 35.7755C45.6355 36.1726 45.4053 36.587 45.0052 36.6997L44.5984 35.2559L44.1916 33.8121C42.9943 34.1494 42.2999 35.3935 42.6359 36.5879L44.0798 36.1817ZM44.5984 35.2559L45.0052 36.6997C45.6274 36.5244 46.2449 36.3504 47.3245 35.9557L46.8093 34.5469L46.2942 33.1381C45.3177 33.4952 44.7828 33.6455 44.1916 33.8121L44.5984 35.2559ZM46.8093 34.5469L47.3488 35.9465C48.6282 35.4534 49.7767 34.9161 50.6612 34.3593L49.8621 33.0899L49.0629 31.8205C48.4049 32.2347 47.4528 32.6913 46.2698 33.1473L46.8093 34.5469ZM49.8621 33.0899L50.6612 34.3592C50.6914 34.3402 50.7175 34.3228 50.7293 34.315C50.7459 34.3038 50.7442 34.305 50.7423 34.3062L49.9304 33.045L49.1185 31.7837C49.1049 31.7924 49.093 31.8003 49.0842 31.8061C49.0762 31.8114 49.0672 31.8175 49.0637 31.8198C49.0527 31.8271 49.0559 31.8249 49.0629 31.8205L49.8621 33.0899ZM49.9304 33.045L50.645 31.7261C49.8522 31.2965 49.3251 31.0702 48.7302 30.9192L48.3611 32.3731L47.9919 33.8269C48.2498 33.8924 48.5319 33.9932 49.2158 34.3638L49.9304 33.045ZM48.3611 32.3731L48.6133 30.8944C47.7666 30.75 46.7055 30.614 45.5396 30.4711L45.3572 31.96L45.1748 33.4489C46.3478 33.5926 47.3418 33.7209 48.1089 33.8517L48.3611 32.3731ZM45.3572 31.96L45.1604 30.473C40.7862 31.0519 37.5858 31.3031 34.8533 31.2176L34.8064 32.7168L34.7595 34.2161C37.7353 34.3093 41.1248 34.0332 45.554 33.447L45.3572 31.96ZM34.8064 32.7168L34.8533 31.2176C33.539 31.1764 32.0712 31.0304 30.514 30.8367L30.3289 32.3252L30.1437 33.8138C31.7341 34.0116 33.3082 34.1706 34.7594 34.2161L34.8064 32.7168ZM30.3289 32.3252L30.19 30.8317C27.8146 31.0525 25.1868 31.3454 22.7066 31.6268L22.8757 33.1172L23.0448 34.6077C25.5259 34.3262 28.1262 34.0365 30.4677 33.8188L30.3289 32.3252ZM22.8757 33.1172L22.7066 31.6268C21.0026 31.8201 19.358 32.0063 17.9079 32.163L18.0691 33.6543L18.2303 35.1456C19.6896 34.9879 21.3421 34.8008 23.0448 34.6077L22.8757 33.1172ZM18.0691 33.6543L16.9763 34.6819C16.9696 34.6747 16.9655 34.6701 16.9659 34.6705C16.9681 34.6731 16.9673 34.6721 16.9766 34.6826C16.9877 34.6951 17.0224 34.7345 17.0658 34.7782L18.1296 33.7207L19.1935 32.6633C19.2062 32.6761 19.2154 32.686 19.2198 32.6907C19.2238 32.6951 19.2258 32.6974 19.2223 32.6935C19.2198 32.6906 19.2198 32.6906 19.2154 32.6857C19.2123 32.6822 19.208 32.6773 19.2031 32.6718C19.1934 32.661 19.179 32.6451 19.1619 32.6268L18.0691 33.6543ZM18.1296 33.7207L17.0657 34.7781C16.7743 34.4849 16.7748 34.0112 17.069 33.7186L18.1267 34.7823L19.1844 35.8459C20.0659 34.9693 20.0688 33.544 19.1936 32.6634L18.1296 33.7207ZM18.1267 34.7823L17.0696 33.718C17.3649 33.4247 17.8384 33.4286 18.1289 33.7208L17.0652 34.7784L16.0015 35.8359C16.8758 36.7154 18.301 36.7234 19.1838 35.8465L18.1267 34.7823ZM17.0652 34.7784L18.1291 33.721C17.9538 33.5445 17.7563 33.3014 17.5468 32.994L16.3074 33.8389L15.068 34.6838C15.3491 35.0962 15.6613 35.4937 16.0013 35.8357L17.0652 34.7784ZM16.3074 33.8389L16.1608 32.3461C14.9897 32.4611 14.0882 32.5337 13.524 32.5473L13.5603 34.0469L13.5966 35.5465C14.2849 35.5298 15.288 35.4462 16.454 35.3317L16.3074 33.8389ZM13.5603 34.0469L13.5248 32.5473C13.9393 32.5375 14.282 32.8652 14.2923 33.2781L12.7927 33.3155L11.2932 33.3528C11.3241 34.5931 12.3538 35.5759 13.5958 35.5465L13.5603 34.0469ZM12.7927 33.3155L14.2923 33.2793C14.3022 33.691 13.9768 34.0364 13.5604 34.0465L13.5242 32.5469L13.488 31.0473C12.2433 31.0774 11.2632 32.1117 11.2932 33.3517L12.7927 33.3155ZM13.5242 32.5469L13.5604 34.0465C14.082 34.0339 14.7934 33.9787 15.6126 33.904L15.4763 32.4102L15.34 30.9164C14.5206 30.9911 13.8987 31.0374 13.4879 31.0473L13.5242 32.5469ZM15.4763 32.4102L16.8151 31.7336C16.7268 31.5589 16.6418 31.3832 16.5617 31.2082L15.198 31.833L13.8343 32.4579C13.9318 32.6705 14.0335 32.8808 14.1376 33.0867L15.4763 32.4102ZM15.198 31.833L16.5617 31.2082C16.0703 30.1357 15.6939 28.9961 15.5476 28.1216L14.0681 28.3692L12.5887 28.6167C12.791 29.8258 13.2693 31.2247 13.8343 32.4579L15.198 31.833ZM14.0681 28.3692L15.5476 28.122L15.4841 27.7421L14.0046 27.9893L12.5252 28.2365L12.5886 28.6164L14.0681 28.3692ZM14.0046 27.9893L15.0691 29.0461L15.3396 28.7737L14.2751 27.7168L13.2107 26.66L12.9402 26.9325L14.0046 27.9893ZM14.2751 27.7168L15.3384 28.7749C15.6034 28.5086 16.0827 28.252 16.808 27.9682L16.2615 26.5713L15.715 25.1744C14.9596 25.4699 13.9558 25.9113 13.2119 26.6587L14.2751 27.7168ZM16.2615 26.5713L16.8079 27.9682C17.5375 27.6828 18.32 27.4387 19.2497 27.0978L18.7332 25.6895L18.2166 24.2812C17.512 24.5396 16.4311 24.8943 15.715 25.1744L16.2615 26.5713ZM18.7332 25.6895L19.2811 27.0858C20.0944 26.7667 20.6973 26.4804 21.4439 25.9088L20.532 24.7178L19.6201 23.5268C19.1743 23.8681 18.8496 24.0324 18.1852 24.2931L18.7332 25.6895ZM16.0613 29.9883L14.6507 30.4984C14.8114 30.9429 14.9963 31.3935 15.1976 31.8328L16.5613 31.208L17.925 30.5832C17.7568 30.2162 17.6035 29.8421 17.4719 29.4782L16.0613 29.9883ZM16.5613 31.208L15.1976 31.8329C15.384 32.2397 15.5823 32.6279 15.7838 32.9867L17.0916 32.252L18.3993 31.5173C18.2384 31.2309 18.0774 30.916 17.9249 30.5832L16.5613 31.208ZM17.0916 32.252L17.2475 33.7439C18.8667 33.5746 20.8181 33.3509 22.8759 33.1174L22.7068 31.627L22.5377 30.1365C20.4719 30.3709 18.538 30.5926 16.9356 30.7601L17.0916 32.252ZM22.7068 31.627L22.8759 33.1174C23.3347 33.0654 23.7902 33.0155 24.2637 32.9624L24.0964 31.4717L23.9292 29.9811C23.469 30.0327 22.996 30.0845 22.5377 30.1365L22.7068 31.627ZM24.0964 31.4717L24.2933 29.9847C23.1116 29.8283 21.9385 29.6881 20.8067 29.5888L20.6755 31.083L20.5444 32.5773C21.6147 32.6713 22.7397 32.8052 23.8996 32.9587L24.0964 31.4717ZM20.6755 31.083L20.8616 29.5946L20.8538 29.5936L20.6677 31.0821L20.4817 32.5705L20.4895 32.5715L20.6755 31.083ZM20.6677 31.0821L20.8155 29.5894C19.3723 29.4464 18.2932 29.2203 17.2916 28.8817L16.8113 30.3028L16.331 31.7238C17.5921 32.1501 18.9017 32.4145 20.5199 32.5748L20.6677 31.0821ZM16.8113 30.3028L17.338 28.8983L17.3223 28.8924L16.7957 30.2969L16.269 31.7014L16.2846 31.7073L16.8113 30.3028ZM16.7957 30.2969L17.4242 28.935L17.4115 28.9291L16.783 30.291L16.1544 31.653L16.1671 31.6588L16.7957 30.2969ZM16.783 30.291L17.3202 28.8906C17.1065 28.8086 16.8931 28.718 16.6781 28.621L16.0613 29.9883L15.4444 31.3556C15.6988 31.4704 15.9664 31.5844 16.2457 31.6915L16.783 30.291ZM50.0535 31.1973L49.806 29.7179C49.6811 29.7387 49.5265 29.7677 49.4414 29.7828L49.7029 31.2598L49.9644 32.7368C50.1083 32.7113 50.1876 32.6957 50.301 32.6767L50.0535 31.1973ZM49.7029 31.2598L49.104 32.6351C49.291 32.7165 49.4888 32.8089 49.7089 32.924L50.4041 31.5948L51.0992 30.2655C50.8063 30.1124 50.5432 29.9897 50.3017 29.8845L49.7029 31.2598ZM50.4041 31.5948L51.5424 30.6179C51.4257 30.482 51.2984 30.3383 51.1817 30.2056L50.0554 31.1963L48.9291 32.187C49.0569 32.3323 49.1648 32.454 49.2657 32.5716L50.4041 31.5948ZM50.0554 31.1963L49.3846 29.8547L49.3826 29.8557L50.0535 31.1973L50.7243 32.5389L50.7262 32.538L50.0554 31.1963Z" fill="white" mask="url(#path-1-outside-1_34_72)"/>
</svg>
