<svg width="64" height="64" viewBox="0 0 64 64" fill="none" xmlns="http://www.w3.org/2000/svg">
<mask id="path-1-outside-1_34_80" maskUnits="userSpaceOnUse" x="9.77441" y="19.7663" width="44" height="26" fill="black">
<rect fill="white" x="9.77441" y="19.7663" width="44" height="26"/>
<path d="M49.793 22.8024C50.325 22.6552 50.876 22.9677 51.0234 23.4997C51.1707 24.0317 50.859 24.5825 50.3271 24.7302C50.1576 24.7772 49.8315 24.9299 49.375 25.1979C48.9421 25.4521 48.4619 25.7664 48.0088 26.0788C47.5575 26.3899 47.143 26.6932 46.8398 26.9177C46.6888 27.0295 46.5659 27.1213 46.4814 27.1852C46.4392 27.2172 46.4056 27.2428 46.3838 27.2595C46.3732 27.2675 46.3647 27.273 46.3594 27.277C46.3567 27.2791 46.3547 27.2819 46.3535 27.2829H46.3525L46.3232 27.3063L46.291 27.3268C43.1888 29.368 40.6453 30.9463 38.3955 32.1735C39.9438 32.6491 41.4725 33.1537 43.0098 33.7917L43.0439 33.8063L43.0781 33.8239C44.8789 34.7362 46.5443 35.5706 47.6963 36.2292L47.7285 36.2477L47.7588 36.2682C47.9588 36.4029 48.145 36.5446 48.332 36.7038C48.2728 36.5569 48.2124 36.4054 48.1494 36.2516C47.9092 35.6655 47.6545 35.0575 47.4121 34.4811C47.1707 33.9071 46.9405 33.3604 46.7539 32.905C46.5447 32.394 46.788 31.8098 47.2988 31.6003C47.8099 31.3909 48.3951 31.6361 48.6045 32.1472C48.7867 32.5919 49.0119 33.1279 49.2549 33.7057C49.497 34.2815 49.7559 34.8972 50 35.4929C50.4151 36.5057 50.8206 37.5366 51.0215 38.2253L51.0947 38.4987L51.2061 38.9694L50.9062 39.3503C50.6069 39.7287 50.1922 39.9908 49.7773 40.1804C49.3542 40.3736 48.8642 40.5206 48.3408 40.6335C47.2939 40.8593 46.0076 40.9718 44.623 40.9968H44.6055C43.4471 40.9981 42.8001 40.9496 42.1523 40.9011C41.6018 40.8596 41.1893 40.3794 41.2305 39.8288C41.272 39.2785 41.7514 38.8659 42.3018 38.9069C42.9245 38.9536 43.512 38.9975 44.5869 38.9968C45.7355 38.976 46.7533 38.8918 47.5732 38.7458C47.1993 38.3476 46.9449 38.134 46.6729 37.9479C45.585 37.328 44.008 36.5356 42.21 35.6247C40.1083 34.7551 38.0564 34.1491 35.8174 33.4841C35.4735 33.6449 35.1355 33.799 34.8008 33.9431C32.8608 34.7782 30.5304 35.5219 28.1836 36.2438C25.8159 36.9722 23.4288 37.6802 21.2979 38.4587L21.2871 38.4626C19.8226 38.9792 18.6178 39.2691 17.4082 39.405L17.3887 39.4069L17.3672 39.4089C17.301 39.4136 17.2348 39.4151 17.1689 39.4186C17.3417 39.579 17.5195 39.7382 17.7012 39.8923C18.603 40.657 19.489 41.2325 20.1104 41.4597C20.6288 41.6493 20.8953 42.2224 20.7061 42.7409C20.5165 43.2595 19.9425 43.527 19.4238 43.3376C18.4731 42.99 17.3733 42.2368 16.4072 41.4177C15.4289 40.5881 14.4858 39.6046 13.8701 38.7116L13.5781 38.2888L13.7529 37.8044C14.0141 37.0784 14.57 36.4163 15.1191 35.8386C15.6512 35.2789 16.3857 34.594 16.9834 33.9919C17.5209 33.4252 17.8302 33.0434 18.1621 32.405C18.4169 31.9156 19.0201 31.7251 19.5098 31.9792C19.9998 32.2339 20.1913 32.8388 19.9365 33.3288C19.4876 34.1922 19.0448 34.7256 18.4355 35.3679L18.4199 35.3835C17.6983 36.1117 17.1168 36.6395 16.5684 37.2165C16.495 37.2937 16.4286 37.3698 16.3643 37.4411C16.6498 37.4399 16.9255 37.4348 17.2012 37.4157C18.2218 37.2998 19.2692 37.0526 20.6113 36.5798L21.4463 36.2839C23.4174 35.5979 25.5521 34.9611 27.5947 34.3327C29.4604 33.7588 31.2483 33.1885 32.8193 32.5866C29.9537 31.7507 26.1172 30.8127 22.5488 29.9528C18.6302 29.0085 14.9799 28.1439 13.4551 27.6296C12.9323 27.4529 12.651 26.886 12.8271 26.363C13.0037 25.8399 13.5716 25.5587 14.0947 25.735C15.5095 26.2122 19.0248 27.0466 23.0166 28.0085C26.963 28.9595 31.3244 30.0244 34.3232 30.9479C34.7697 31.0854 35.2135 31.2161 35.6533 31.3474C38.2282 30.0808 41.1995 28.2823 45.1611 25.6765C45.1636 25.6745 45.1662 25.6718 45.1689 25.6696C45.193 25.6512 45.2288 25.6243 45.2734 25.5905C45.3629 25.5227 45.4917 25.426 45.6494 25.3093C45.9645 25.0759 46.3991 24.7607 46.874 24.4333C47.3473 24.107 47.871 23.7618 48.3623 23.4733C48.8299 23.1988 49.3506 22.9251 49.793 22.8024Z"/>
</mask>
<path d="M49.793 22.8024C50.325 22.6552 50.876 22.9677 51.0234 23.4997C51.1707 24.0317 50.859 24.5825 50.3271 24.7302C50.1576 24.7772 49.8315 24.9299 49.375 25.1979C48.9421 25.4521 48.4619 25.7664 48.0088 26.0788C47.5575 26.3899 47.143 26.6932 46.8398 26.9177C46.6888 27.0295 46.5659 27.1213 46.4814 27.1852C46.4392 27.2172 46.4056 27.2428 46.3838 27.2595C46.3732 27.2675 46.3647 27.273 46.3594 27.277C46.3567 27.2791 46.3547 27.2819 46.3535 27.2829H46.3525L46.3232 27.3063L46.291 27.3268C43.1888 29.368 40.6453 30.9463 38.3955 32.1735C39.9438 32.6491 41.4725 33.1537 43.0098 33.7917L43.0439 33.8063L43.0781 33.8239C44.8789 34.7362 46.5443 35.5706 47.6963 36.2292L47.7285 36.2477L47.7588 36.2682C47.9588 36.4029 48.145 36.5446 48.332 36.7038C48.2728 36.5569 48.2124 36.4054 48.1494 36.2516C47.9092 35.6655 47.6545 35.0575 47.4121 34.4811C47.1707 33.9071 46.9405 33.3604 46.7539 32.905C46.5447 32.394 46.788 31.8098 47.2988 31.6003C47.8099 31.3909 48.3951 31.6361 48.6045 32.1472C48.7867 32.5919 49.0119 33.1279 49.2549 33.7057C49.497 34.2815 49.7559 34.8972 50 35.4929C50.4151 36.5057 50.8206 37.5366 51.0215 38.2253L51.0947 38.4987L51.2061 38.9694L50.9062 39.3503C50.6069 39.7287 50.1922 39.9908 49.7773 40.1804C49.3542 40.3736 48.8642 40.5206 48.3408 40.6335C47.2939 40.8593 46.0076 40.9718 44.623 40.9968H44.6055C43.4471 40.9981 42.8001 40.9496 42.1523 40.9011C41.6018 40.8596 41.1893 40.3794 41.2305 39.8288C41.272 39.2785 41.7514 38.8659 42.3018 38.9069C42.9245 38.9536 43.512 38.9975 44.5869 38.9968C45.7355 38.976 46.7533 38.8918 47.5732 38.7458C47.1993 38.3476 46.9449 38.134 46.6729 37.9479C45.585 37.328 44.008 36.5356 42.21 35.6247C40.1083 34.7551 38.0564 34.1491 35.8174 33.4841C35.4735 33.6449 35.1355 33.799 34.8008 33.9431C32.8608 34.7782 30.5304 35.5219 28.1836 36.2438C25.8159 36.9722 23.4288 37.6802 21.2979 38.4587L21.2871 38.4626C19.8226 38.9792 18.6178 39.2691 17.4082 39.405L17.3887 39.4069L17.3672 39.4089C17.301 39.4136 17.2348 39.4151 17.1689 39.4186C17.3417 39.579 17.5195 39.7382 17.7012 39.8923C18.603 40.657 19.489 41.2325 20.1104 41.4597C20.6288 41.6493 20.8953 42.2224 20.7061 42.7409C20.5165 43.2595 19.9425 43.527 19.4238 43.3376C18.4731 42.99 17.3733 42.2368 16.4072 41.4177C15.4289 40.5881 14.4858 39.6046 13.8701 38.7116L13.5781 38.2888L13.7529 37.8044C14.0141 37.0784 14.57 36.4163 15.1191 35.8386C15.6512 35.2789 16.3857 34.594 16.9834 33.9919C17.5209 33.4252 17.8302 33.0434 18.1621 32.405C18.4169 31.9156 19.0201 31.7251 19.5098 31.9792C19.9998 32.2339 20.1913 32.8388 19.9365 33.3288C19.4876 34.1922 19.0448 34.7256 18.4355 35.3679L18.4199 35.3835C17.6983 36.1117 17.1168 36.6395 16.5684 37.2165C16.495 37.2937 16.4286 37.3698 16.3643 37.4411C16.6498 37.4399 16.9255 37.4348 17.2012 37.4157C18.2218 37.2998 19.2692 37.0526 20.6113 36.5798L21.4463 36.2839C23.4174 35.5979 25.5521 34.9611 27.5947 34.3327C29.4604 33.7588 31.2483 33.1885 32.8193 32.5866C29.9537 31.7507 26.1172 30.8127 22.5488 29.9528C18.6302 29.0085 14.9799 28.1439 13.4551 27.6296C12.9323 27.4529 12.651 26.886 12.8271 26.363C13.0037 25.8399 13.5716 25.5587 14.0947 25.735C15.5095 26.2122 19.0248 27.0466 23.0166 28.0085C26.963 28.9595 31.3244 30.0244 34.3232 30.9479C34.7697 31.0854 35.2135 31.2161 35.6533 31.3474C38.2282 30.0808 41.1995 28.2823 45.1611 25.6765C45.1636 25.6745 45.1662 25.6718 45.1689 25.6696C45.193 25.6512 45.2288 25.6243 45.2734 25.5905C45.3629 25.5227 45.4917 25.426 45.6494 25.3093C45.9645 25.0759 46.3991 24.7607 46.874 24.4333C47.3473 24.107 47.871 23.7618 48.3623 23.4733C48.8299 23.1988 49.3506 22.9251 49.793 22.8024Z" fill="black"/>
<path d="M49.793 22.8024L49.2597 20.8748L49.2586 20.8751L49.793 22.8024ZM51.0234 23.4997L52.951 22.9662L52.9508 22.9654L51.0234 23.4997ZM50.3271 24.7302L50.8618 26.6574L50.8622 26.6573L50.3271 24.7302ZM49.375 25.1979L48.3625 23.4732L48.3624 23.4732L49.375 25.1979ZM48.0088 26.0788L46.8736 24.4322L46.8736 24.4322L48.0088 26.0788ZM46.8398 26.9177L48.03 28.525L48.03 28.525L46.8398 26.9177ZM46.4814 27.1852L45.274 25.5909L45.2739 25.5909L46.4814 27.1852ZM46.3838 27.2595L47.5962 28.8501L47.5985 28.8483L46.3838 27.2595ZM46.3594 27.277L45.142 25.6902L45.1411 25.6909L46.3594 27.277ZM46.3535 27.2829V29.2829H47.0335L47.5726 28.8684L46.3535 27.2829ZM46.3525 27.2829V25.2829H45.651L45.1031 25.7212L46.3525 27.2829ZM46.3232 27.3063L47.397 28.9937L47.4882 28.9356L47.5726 28.8681L46.3232 27.3063ZM46.291 27.3268L45.2173 25.6395L45.2044 25.6477L45.1917 25.6561L46.291 27.3268ZM38.3955 32.1735L37.4377 30.4178L33.2698 32.6914L37.8083 34.0854L38.3955 32.1735ZM43.0098 33.7917L43.7976 31.9534L43.787 31.9489L43.7764 31.9444L43.0098 33.7917ZM43.0439 33.8063L43.9586 32.0278L43.8963 31.9957L43.8318 31.968L43.0439 33.8063ZM43.0781 33.8239L42.1634 35.6025L42.1742 35.608L43.0781 33.8239ZM47.6963 36.2292L48.6942 34.4959L48.689 34.4929L47.6963 36.2292ZM47.7285 36.2477L48.8502 34.5919L48.7897 34.5509L48.7264 34.5145L47.7285 36.2477ZM47.7588 36.2682L46.6371 37.9241L46.6417 37.9272L47.7588 36.2682ZM48.332 36.7038L47.0358 38.2268L50.1868 35.9556L48.332 36.7038ZM48.1494 36.2516L50 35.4932L50 35.4932L48.1494 36.2516ZM47.4121 34.4811L45.5685 35.2565L45.5685 35.2565L47.4121 34.4811ZM46.7539 32.905L44.9031 33.6629L44.9032 33.6632L46.7539 32.905ZM47.2988 31.6003L46.5406 29.7496L46.54 29.7498L47.2988 31.6003ZM48.6045 32.1472L46.7538 32.9054L46.7538 32.9054L48.6045 32.1472ZM49.2549 33.7057L51.0985 32.9304L51.0985 32.9304L49.2549 33.7057ZM50 35.4929L51.8506 34.7344L51.8506 34.7344L50 35.4929ZM51.0215 38.2253L52.9534 37.7078L52.9477 37.6864L52.9415 37.6652L51.0215 38.2253ZM51.0947 38.4987L53.041 38.0384L53.0342 38.0097L53.0266 37.9812L51.0947 38.4987ZM51.2061 38.9694L52.7776 40.2065L53.3745 39.4482L53.1524 38.5091L51.2061 38.9694ZM50.9062 39.3503L52.4747 40.5912L52.4778 40.5873L50.9062 39.3503ZM49.7773 40.1804L50.6083 41.9996L50.6084 41.9995L49.7773 40.1804ZM48.3408 40.6335L48.7626 42.5885L48.7626 42.5885L48.3408 40.6335ZM44.623 40.9968V42.9968H44.6411L44.6592 42.9964L44.623 40.9968ZM44.6055 40.9968L44.6055 38.9968L44.6032 38.9968L44.6055 40.9968ZM42.1523 40.9011L42.002 42.8954L42.0029 42.8955L42.1523 40.9011ZM41.2305 39.8288L39.2361 39.6783L39.236 39.6795L41.2305 39.8288ZM42.3018 38.9069L42.4512 36.9125L42.4503 36.9124L42.3018 38.9069ZM44.5869 38.9968L44.5883 40.9968L44.6057 40.9968L44.623 40.9964L44.5869 38.9968ZM47.5732 38.7458L47.9239 40.7148L51.5584 40.0676L49.0311 37.3766L47.5732 38.7458ZM46.6729 37.9479L47.8018 36.2971L47.7342 36.2508L47.6631 36.2103L46.6729 37.9479ZM42.21 35.6247L43.1138 33.8406L43.0454 33.8059L42.9747 33.7767L42.21 35.6247ZM35.8174 33.4841L36.3868 31.5669L35.6584 31.3505L34.97 31.6724L35.8174 33.4841ZM34.8008 33.9431L35.5916 35.7801L35.5916 35.78L34.8008 33.9431ZM28.1836 36.2438L28.7717 38.1554L28.7717 38.1554L28.1836 36.2438ZM21.2979 38.4587L21.9813 40.3383L21.9841 40.3372L21.2979 38.4587ZM21.2871 38.4626L21.9524 40.3487L21.9615 40.3455L21.9706 40.3422L21.2871 38.4626ZM17.4082 39.405L17.6072 41.395L17.6193 41.3938L17.6315 41.3925L17.4082 39.405ZM17.3887 39.4069L17.5697 41.3987L17.5787 41.3979L17.5877 41.397L17.3887 39.4069ZM17.3672 39.4089L17.5097 41.4038L17.529 41.4024L17.5483 41.4007L17.3672 39.4089ZM17.1689 39.4186L17.0603 37.4216L12.3535 37.6777L15.8083 40.8845L17.1689 39.4186ZM17.7012 39.8923L16.4077 41.4177L16.4077 41.4177L17.7012 39.8923ZM20.1104 41.4597L20.7975 39.5814L20.797 39.5812L20.1104 41.4597ZM20.7061 42.7409L22.5845 43.4276L22.5848 43.4266L20.7061 42.7409ZM19.4238 43.3376L18.7371 45.216L18.7377 45.2162L19.4238 43.3376ZM16.4072 41.4177L15.1137 42.9431L15.1138 42.9431L16.4072 41.4177ZM13.8701 38.7116L15.5167 37.5764L15.5159 37.5752L13.8701 38.7116ZM13.5781 38.2888L11.6969 37.6098L11.3474 38.5781L11.9324 39.4252L13.5781 38.2888ZM13.7529 37.8044L15.6342 38.4833L15.6348 38.4815L13.7529 37.8044ZM15.1191 35.8386L13.6695 34.4607L13.6695 34.4607L15.1191 35.8386ZM16.9834 33.9919L18.4029 35.4008L18.4188 35.3847L18.4344 35.3683L16.9834 33.9919ZM18.1621 32.405L16.3881 31.4814L16.3876 31.4824L18.1621 32.405ZM19.5098 31.9792L20.4323 30.2047L20.4309 30.204L19.5098 31.9792ZM19.9365 33.3288L21.711 34.2515L21.711 34.2514L19.9365 33.3288ZM18.4355 35.3679L19.8498 36.7821L19.8684 36.7634L19.8866 36.7443L18.4355 35.3679ZM18.4199 35.3835L17.0057 33.9693L16.9993 33.9757L18.4199 35.3835ZM16.5684 37.2165L15.1187 35.8386L15.1186 35.8387L16.5684 37.2165ZM16.3643 37.4411L14.8794 36.1012L11.8489 39.4596L16.3725 39.4411L16.3643 37.4411ZM17.2012 37.4157L17.339 39.411L17.3831 39.4079L17.4269 39.4029L17.2012 37.4157ZM20.6113 36.5798L21.2759 38.4661L21.2794 38.4649L20.6113 36.5798ZM21.4463 36.2839L20.7889 34.395L20.7782 34.3988L21.4463 36.2839ZM27.5947 34.3327L28.1828 36.2443L28.1828 36.2443L27.5947 34.3327ZM32.8193 32.5866L33.5349 34.4542L39.0802 32.3295L33.3794 30.6666L32.8193 32.5866ZM22.5488 29.9528L23.0174 28.0085L23.0174 28.0085L22.5488 29.9528ZM13.4551 27.6296L12.8148 29.5243L12.8159 29.5247L13.4551 27.6296ZM12.8271 26.363L10.9322 25.7233L10.9317 25.7247L12.8271 26.363ZM14.0947 25.735L14.7339 23.8399L14.7335 23.8398L14.0947 25.735ZM23.0166 28.0085L22.5481 29.9528L22.5481 29.9528L23.0166 28.0085ZM34.3232 30.9479L34.9119 29.0365L34.9119 29.0365L34.3232 30.9479ZM35.6533 31.3474L35.0813 33.2638L35.8326 33.488L36.5361 33.142L35.6533 31.3474ZM45.1611 25.6765L46.2602 27.3474L46.3199 27.3081L46.3766 27.2647L45.1611 25.6765ZM45.1689 25.6696L43.9542 24.0807L43.9441 24.0885L45.1689 25.6696ZM45.2734 25.5905L44.0659 23.9962L44.0659 23.9962L45.2734 25.5905ZM45.6494 25.3093L44.4593 23.7019L44.4593 23.7019L45.6494 25.3093ZM46.874 24.4333L45.7388 22.7867L45.7388 22.7867L46.874 24.4333ZM48.3623 23.4733L47.3497 21.7486L47.3497 21.7486L48.3623 23.4733ZM49.793 22.8024L50.3262 24.73C49.7926 24.8776 49.2432 24.5645 49.0961 24.034L51.0234 23.4997L52.9508 22.9654C52.5087 21.3708 50.8574 20.4328 49.2597 20.8748L49.793 22.8024ZM51.0234 23.4997L49.0959 24.0332C48.9487 23.5014 49.2601 22.9508 49.7921 22.8031L50.3271 24.7302L50.8622 26.6573C52.4579 26.2142 53.3927 24.5619 52.951 22.9662L51.0234 23.4997ZM50.3271 24.7302L49.7925 22.803C49.3489 22.926 48.8269 23.2005 48.3625 23.4732L49.375 25.1979L50.3875 26.9227C50.5822 26.8084 50.7305 26.7297 50.8321 26.6804C50.8826 26.6559 50.9136 26.6425 50.9269 26.6371C50.945 26.6297 50.9195 26.6414 50.8618 26.6574L50.3271 24.7302ZM49.375 25.1979L48.3624 23.4732C47.8727 23.7607 47.3491 24.1043 46.8736 24.4322L48.0088 26.0788L49.144 27.7254C49.5746 27.4285 50.0115 27.1435 50.3876 26.9226L49.375 25.1979ZM48.0088 26.0788L46.8736 24.4322C46.3953 24.7619 45.9603 25.0804 45.6497 25.3103L46.8398 26.9177L48.03 28.525C48.3257 28.306 48.7196 28.018 49.144 27.7254L48.0088 26.0788ZM46.8398 26.9177L45.6497 25.3103C45.4963 25.4239 45.3668 25.5206 45.274 25.5909L46.4814 27.1852L47.6889 28.7796C47.765 28.722 47.8813 28.6351 48.03 28.525L46.8398 26.9177ZM46.4814 27.1852L45.2739 25.5909C45.2306 25.6237 45.1943 25.6513 45.1691 25.6706L46.3838 27.2595L47.5985 28.8483C47.6169 28.8342 47.6479 28.8107 47.689 28.7796L46.4814 27.1852ZM46.3838 27.2595L45.1714 25.6688C45.1992 25.6477 45.221 25.6325 45.2239 25.6304C45.2242 25.6302 45.2244 25.6301 45.224 25.6304C45.2239 25.6305 45.2228 25.6312 45.2219 25.6318C45.2201 25.6331 45.2155 25.6363 45.21 25.6402C45.2044 25.6441 45.1956 25.6504 45.1849 25.6582C45.1744 25.6658 45.1595 25.6768 45.142 25.6902L46.3594 27.277L47.5768 28.8638C47.5606 28.8763 47.5471 28.8862 47.5381 28.8927C47.529 28.8994 47.5217 28.9045 47.5179 28.9073C47.5158 28.9087 47.5141 28.9099 47.5131 28.9106C47.5121 28.9113 47.5114 28.9118 47.5113 28.9118C47.5113 28.9119 47.5113 28.9119 47.5115 28.9118C47.5119 28.9114 47.5115 28.9117 47.5122 28.9113C47.5128 28.9108 47.5139 28.91 47.5153 28.9091C47.5264 28.9013 47.5578 28.8793 47.5962 28.8501L46.3838 27.2595ZM46.3594 27.277L45.1411 25.6909C45.0988 25.7234 45.0621 25.7542 45.0312 25.7817C45.0002 25.8092 44.9736 25.8345 44.9517 25.8561C44.9299 25.8777 44.9116 25.8967 44.8976 25.9116C44.8837 25.9264 44.8728 25.9386 44.8664 25.9457C44.8631 25.9493 44.8606 25.9522 44.8594 25.9536C44.8588 25.9542 44.8583 25.9548 44.8583 25.9548C44.8581 25.955 44.8584 25.9546 44.8588 25.9542C44.8596 25.9533 44.8623 25.9503 44.8657 25.9464C44.8693 25.9425 44.8749 25.9363 44.8818 25.9287C44.8888 25.9212 44.8984 25.9108 44.91 25.8987C44.9215 25.8867 44.9367 25.8711 44.9549 25.8533C44.973 25.8356 44.9966 25.8132 45.0249 25.788C45.0392 25.7752 45.0555 25.7612 45.0734 25.7462C45.0914 25.7312 45.1118 25.7148 45.1344 25.6974L46.3535 27.2829L47.5726 28.8684C47.5953 28.8509 47.6158 28.8344 47.6338 28.8194C47.6519 28.8043 47.6682 28.7902 47.6826 28.7774C47.7111 28.7521 47.7349 28.7295 47.7531 28.7116C47.7715 28.6936 47.7869 28.6779 47.7986 28.6656C47.8104 28.6533 47.8202 28.6428 47.8273 28.635C47.8345 28.6272 47.8403 28.6208 47.844 28.6166C47.8477 28.6125 47.8506 28.6093 47.8516 28.6082C47.8519 28.6078 47.8521 28.6076 47.8522 28.6074C47.8523 28.6073 47.8524 28.6072 47.8524 28.6072C47.8524 28.6072 47.8524 28.6072 47.8525 28.6072C47.8525 28.6071 47.8525 28.6071 47.8525 28.6071C47.8525 28.6071 47.8522 28.6075 47.8517 28.608C47.8507 28.6091 47.8484 28.6117 47.8454 28.615C47.8395 28.6216 47.8291 28.6332 47.8157 28.6475C47.8022 28.6618 47.7845 28.6803 47.7633 28.7013C47.742 28.7223 47.716 28.747 47.6856 28.774C47.6553 28.8009 47.6193 28.8312 47.5777 28.8631L46.3594 27.277ZM46.3535 27.2829V25.2829H46.3525V27.2829V29.2829H46.3535V27.2829ZM46.3525 27.2829L45.1031 25.7212L45.0739 25.7446L46.3232 27.3063L47.5726 28.8681L47.6019 28.8446L46.3525 27.2829ZM46.3232 27.3063L45.2495 25.619L45.2173 25.6395L46.291 27.3268L47.3648 29.0142L47.397 28.9937L46.3232 27.3063ZM46.291 27.3268L45.1917 25.6561C42.1076 27.6853 39.6167 29.2291 37.4377 30.4178L38.3955 32.1735L39.3533 33.9293C41.6738 32.6634 44.2701 31.0506 47.3903 28.9976L46.291 27.3268ZM38.3955 32.1735L37.8083 34.0854C39.3334 34.5538 40.7923 35.0368 42.2431 35.6389L43.0098 33.7917L43.7764 31.9444C42.1528 31.2706 40.5542 30.7443 38.9827 30.2617L38.3955 32.1735ZM43.0098 33.7917L42.2219 35.63L42.2561 35.6446L43.0439 33.8063L43.8318 31.968L43.7976 31.9534L43.0098 33.7917ZM43.0439 33.8063L42.1292 35.5849L42.1634 35.6025L43.0781 33.8239L43.9928 32.0453L43.9586 32.0278L43.0439 33.8063ZM43.0781 33.8239L42.1742 35.608C44.0037 36.5349 45.6077 37.3389 46.7036 37.9654L47.6963 36.2292L48.689 34.4929C47.4809 33.8022 45.7541 32.9376 43.982 32.0398L43.0781 33.8239ZM47.6963 36.2292L46.6984 37.9624L46.7306 37.981L47.7285 36.2477L48.7264 34.5145L48.6942 34.4959L47.6963 36.2292ZM47.7285 36.2477L46.6068 37.9036L46.6371 37.9241L47.7588 36.2682L48.8805 34.6124L48.8502 34.5919L47.7285 36.2477ZM47.7588 36.2682L46.6417 37.9272C46.7772 38.0184 46.9037 38.1144 47.0358 38.2268L48.332 36.7038L49.6283 35.1807C49.3862 34.9747 49.1403 34.7874 48.8758 34.6093L47.7588 36.2682ZM48.332 36.7038L50.1868 35.9556C50.1319 35.8195 50.0657 35.6535 50 35.4932L48.1494 36.2516L46.2988 37.0101C46.3591 37.1572 46.4136 37.2942 46.4772 37.4519L48.332 36.7038ZM48.1494 36.2516L50 35.4932C49.7562 34.8982 49.4986 34.2832 49.2557 33.7058L47.4121 34.4811L45.5685 35.2565C45.8105 35.8318 46.0622 36.4329 46.2988 37.0101L48.1494 36.2516ZM47.4121 34.4811L49.2557 33.7058C49.0128 33.1282 48.7869 32.5916 48.6046 32.1467L46.7539 32.905L44.9032 33.6632C45.0942 34.1293 45.3286 34.6859 45.5685 35.2565L47.4121 34.4811ZM46.7539 32.905L48.6047 32.147C48.8123 32.654 48.5724 33.2396 48.0577 33.4507L47.2988 31.6003L46.54 29.7498C45.0036 30.3799 44.277 32.1341 44.9031 33.6629L46.7539 32.905ZM47.2988 31.6003L48.0571 33.451C47.5456 33.6605 46.963 33.416 46.7538 32.9054L48.6045 32.1472L50.4552 31.3889C49.8272 29.8562 48.0742 29.1213 46.5406 29.7496L47.2988 31.6003ZM48.6045 32.1472L46.7538 32.9054C46.9402 33.3603 47.1691 33.9052 47.4113 34.4811L49.2549 33.7057L51.0985 32.9304C50.8547 32.3507 50.6332 31.8235 50.4552 31.3889L48.6045 32.1472ZM49.2549 33.7057L47.4113 34.4811C47.6539 35.0581 47.9093 35.6655 48.1494 36.2513L50 35.4929L51.8506 34.7344C51.6024 34.1289 51.3401 33.5049 51.0985 32.9304L49.2549 33.7057ZM50 35.4929L48.1494 36.2513C48.5708 37.2795 48.9349 38.2142 49.1015 38.7854L51.0215 38.2253L52.9415 37.6652C52.7063 36.8591 52.2594 35.7319 51.8506 34.7344L50 35.4929ZM51.0215 38.2253L49.0896 38.7428L49.1628 39.0162L51.0947 38.4987L53.0266 37.9812L52.9534 37.7078L51.0215 38.2253ZM51.0947 38.4987L49.1484 38.959L49.2598 39.4298L51.2061 38.9694L53.1524 38.5091L53.041 38.0384L51.0947 38.4987ZM51.2061 38.9694L49.6345 37.7324L49.3347 38.1132L50.9062 39.3503L52.4778 40.5873L52.7776 40.2065L51.2061 38.9694ZM50.9062 39.3503L49.3378 38.1093C49.3273 38.1226 49.2972 38.1559 49.2299 38.2035C49.1617 38.2518 49.0686 38.3053 48.9463 38.3612L49.7773 40.1804L50.6084 41.9995C51.1763 41.7401 51.9037 41.313 52.4747 40.5912L50.9062 39.3503ZM49.7773 40.1804L48.9464 38.3611C48.6957 38.4757 48.3543 38.5846 47.919 38.6785L48.3408 40.6335L48.7626 42.5885C49.3742 42.4566 50.0127 42.2716 50.6083 41.9996L49.7773 40.1804ZM48.3408 40.6335L47.9191 38.6785C47.0469 38.8666 45.9024 38.9733 44.5869 38.9971L44.623 40.9968L44.6592 42.9964C46.1128 42.9702 47.5408 42.8521 48.7626 42.5885L48.3408 40.6335ZM44.623 40.9968V38.9968H44.6055V40.9968V42.9968H44.623V40.9968ZM44.6055 40.9968L44.6032 38.9968C43.5179 38.998 42.928 38.9536 42.3018 38.9067L42.1523 40.9011L42.0029 42.8955C42.6722 42.9456 43.3763 42.9982 44.6077 42.9968L44.6055 40.9968ZM42.1523 40.9011L42.3026 38.9067C42.8547 38.9483 43.266 39.4291 43.2249 39.9781L41.2305 39.8288L39.236 39.6795C39.1125 41.3296 40.349 42.7708 42.002 42.8954L42.1523 40.9011ZM41.2305 39.8288L43.2248 39.9793C43.1833 40.5296 42.7037 40.9424 42.1532 40.9014L42.3018 38.9069L42.4503 36.9124C40.7991 36.7894 39.3607 38.0274 39.2361 39.6783L41.2305 39.8288ZM42.3018 38.9069L42.1523 40.9013C42.7968 40.9496 43.4409 40.9976 44.5883 40.9968L44.5869 38.9968L44.5855 36.9968C43.5831 36.9975 43.0522 36.9576 42.4512 36.9125L42.3018 38.9069ZM44.5869 38.9968L44.623 40.9964C45.8375 40.9745 46.9672 40.8852 47.9239 40.7148L47.5732 38.7458L47.2226 36.7768C46.5393 36.8984 45.6335 36.9775 44.5508 36.9971L44.5869 38.9968ZM47.5732 38.7458L49.0311 37.3766C48.5794 36.8956 48.2166 36.5807 47.8018 36.2971L46.6729 37.9479L45.5439 39.5988C45.6731 39.6872 45.8192 39.7996 46.1154 40.115L47.5732 38.7458ZM46.6729 37.9479L47.6631 36.2103C46.5209 35.5594 44.8858 34.7383 43.1138 33.8406L42.21 35.6247L41.3062 37.4088C43.1302 38.3329 44.649 39.0966 45.6827 39.6856L46.6729 37.9479ZM42.21 35.6247L42.9747 33.7767C40.761 32.8607 38.6086 32.2268 36.3868 31.5669L35.8174 33.4841L35.2479 35.4013C37.5042 36.0714 39.4556 36.6494 41.4453 37.4727L42.21 35.6247ZM35.8174 33.4841L34.97 31.6724C34.6371 31.8282 34.3191 31.9729 34.0099 32.1061L34.8008 33.9431L35.5916 35.78C35.9518 35.625 36.31 35.4616 36.6647 35.2957L35.8174 33.4841ZM34.8008 33.9431L34.0099 32.1061C32.1827 32.8927 29.9502 33.6078 27.5955 34.3323L28.1836 36.2438L28.7717 38.1554C31.1106 37.4359 33.539 36.6637 35.5916 35.7801L34.8008 33.9431ZM28.1836 36.2438L27.5955 34.3323C25.2611 35.0504 22.8051 35.7787 20.6116 36.5801L21.2979 38.4587L21.9841 40.3372C24.0525 39.5816 26.3707 38.8941 28.7717 38.1554L28.1836 36.2438ZM21.2979 38.4587L20.6144 36.5791L20.6036 36.583L21.2871 38.4626L21.9706 40.3422L21.9813 40.3383L21.2979 38.4587ZM21.2871 38.4626L20.6218 36.5765C19.2674 37.0542 18.2127 37.302 17.185 37.4175L17.4082 39.405L17.6315 41.3925C19.0229 41.2362 20.3777 40.9042 21.9524 40.3487L21.2871 38.4626ZM17.4082 39.405L17.2092 37.4149L17.1897 37.4168L17.3887 39.4069L17.5877 41.397L17.6072 41.395L17.4082 39.405ZM17.3887 39.4069L17.2076 37.4151L17.1861 37.4171L17.3672 39.4089L17.5483 41.4007L17.5697 41.3987L17.3887 39.4069ZM17.3672 39.4089L17.2247 37.414C17.2219 37.4142 17.2129 37.4147 17.1831 37.416C17.1617 37.4169 17.109 37.4189 17.0603 37.4216L17.1689 39.4186L17.2776 41.4157C17.2948 41.4148 17.3081 41.4143 17.3527 41.4124C17.3891 41.4108 17.4462 41.4083 17.5097 41.4038L17.3672 39.4089ZM17.1689 39.4186L15.8083 40.8845C15.9984 41.0609 16.1988 41.2406 16.4077 41.4177L17.7012 39.8923L18.9946 38.3668C18.8402 38.2359 18.6851 38.0971 18.5296 37.9528L17.1689 39.4186ZM17.7012 39.8923L16.4077 41.4177C17.3724 42.2357 18.472 42.9902 19.4237 43.3381L20.1104 41.4597L20.797 39.5812C20.506 39.4748 19.8336 39.0782 18.9946 38.3668L17.7012 39.8923ZM20.1104 41.4597L19.4232 43.3379C18.9054 43.1485 18.6378 42.5744 18.8273 42.0552L20.7061 42.7409L22.5848 43.4266C23.1528 41.8704 22.3521 40.1501 20.7975 39.5814L20.1104 41.4597ZM20.7061 42.7409L18.8276 42.0542C19.0164 41.5379 19.589 41.2687 20.11 41.459L19.4238 43.3376L18.7377 45.2162C20.2959 45.7853 22.0166 44.9812 22.5845 43.4276L20.7061 42.7409ZM19.4238 43.3376L20.1105 41.4592C19.4888 41.2319 18.6021 40.6566 17.7007 39.8922L16.4072 41.4177L15.1138 42.9431C16.1444 43.817 17.4573 44.7481 18.7371 45.216L19.4238 43.3376ZM16.4072 41.4177L17.7007 39.8922C16.8111 39.1379 16.0033 38.2821 15.5167 37.5764L13.8701 38.7116L12.2235 39.8469C12.9683 40.9271 14.0467 42.0383 15.1137 42.9431L16.4072 41.4177ZM13.8701 38.7116L15.5159 37.5752L15.2239 37.1523L13.5781 38.2888L11.9324 39.4252L12.2244 39.8481L13.8701 38.7116ZM13.5781 38.2888L15.4594 38.9677L15.6342 38.4833L13.7529 37.8044L11.8717 37.1255L11.6969 37.6098L13.5781 38.2888ZM13.7529 37.8044L15.6348 38.4815C15.7431 38.1806 16.0353 37.7777 16.5688 37.2164L15.1191 35.8386L13.6695 34.4607C13.1047 35.0549 12.2851 35.9763 11.871 37.1273L13.7529 37.8044ZM15.1191 35.8386L16.5688 37.2165C17.105 36.6523 17.6969 36.1121 18.4029 35.4008L16.9834 33.9919L15.5639 32.583C15.0745 33.076 14.1973 33.9054 13.6695 34.4607L15.1191 35.8386ZM16.9834 33.9919L18.4344 35.3683C19.0434 34.7263 19.4873 34.1918 19.9366 33.3275L18.1621 32.405L16.3876 31.4824C16.1731 31.895 15.9984 32.1242 15.5324 32.6155L16.9834 33.9919ZM18.1621 32.405L19.9361 33.3286C19.6812 33.8182 19.0781 34.0084 18.5886 33.7544L19.5098 31.9792L20.4309 30.204C18.962 29.4417 17.1526 30.0129 16.3881 31.4814L18.1621 32.405ZM19.5098 31.9792L18.5872 33.7537C18.0986 33.4997 17.9065 32.8977 18.162 32.4062L19.9365 33.3288L21.711 34.2514C22.476 32.7799 21.901 30.9682 20.4323 30.2047L19.5098 31.9792ZM19.9365 33.3288L18.1621 32.4061C17.8304 33.044 17.5219 33.4249 16.9845 33.9915L18.4355 35.3679L19.8866 36.7443C20.5676 36.0264 21.1448 35.3404 21.711 34.2515L19.9365 33.3288ZM18.4355 35.3679L17.0213 33.9536L17.0057 33.9693L18.4199 35.3835L19.8341 36.7977L19.8498 36.7821L18.4355 35.3679ZM18.4199 35.3835L16.9993 33.9757C16.4055 34.5749 15.6523 35.2773 15.1187 35.8386L16.5684 37.2165L18.018 38.5944C18.5813 38.0018 18.991 37.6485 19.8406 36.7913L18.4199 35.3835ZM16.5684 37.2165L15.1186 35.8387C15.0217 35.9406 14.9148 36.062 14.8794 36.1012L16.3643 37.4411L17.8491 38.781C17.9423 38.6777 17.9683 38.6467 18.0181 38.5943L16.5684 37.2165ZM16.3643 37.4411L16.3725 39.4411C16.6737 39.4398 16.9994 39.4344 17.339 39.411L17.2012 37.4157L17.0633 35.4205C16.8515 35.4351 16.626 35.44 16.3561 35.4411L16.3643 37.4411ZM17.2012 37.4157L17.4269 39.4029C18.6285 39.2664 19.8249 38.9773 21.2759 38.4661L20.6113 36.5798L19.9468 34.6934C18.7134 35.1279 17.8151 35.3331 16.9754 35.4285L17.2012 37.4157ZM20.6113 36.5798L21.2794 38.4649L22.1144 38.169L21.4463 36.2839L20.7782 34.3988L19.9433 34.6946L20.6113 36.5798ZM21.4463 36.2839L22.1036 38.1728C24.0302 37.5023 26.1147 36.8805 28.1828 36.2443L27.5947 34.3327L27.0066 32.4211C24.9895 33.0417 22.8047 33.6935 20.7889 34.395L21.4463 36.2839ZM27.5947 34.3327L28.1828 36.2443C30.0514 35.6694 31.8955 35.0823 33.5349 34.4542L32.8193 32.5866L32.1038 30.719C30.6011 31.2947 28.8694 31.8481 27.0066 32.4211L27.5947 34.3327ZM32.8193 32.5866L33.3794 30.6666C30.4603 29.8151 26.5768 28.8662 23.0174 28.0085L22.5488 29.9528L22.0803 31.8972C25.6576 32.7592 29.4471 33.6863 32.2593 34.5066L32.8193 32.5866ZM22.5488 29.9528L23.0174 28.0085C19.0262 27.0467 15.5089 26.2116 14.0943 25.7345L13.4551 27.6296L12.8159 29.5247C14.4509 30.0761 18.2342 30.9704 22.0803 31.8972L22.5488 29.9528ZM13.4551 27.6296L14.0954 25.7348C14.6172 25.9112 14.899 26.4772 14.7226 27.0012L12.8271 26.363L10.9317 25.7247C10.403 27.2947 11.2473 28.9946 12.8148 29.5243L13.4551 27.6296ZM12.8271 26.363L14.7221 27.0027C14.5453 27.5264 13.9785 27.8064 13.4559 27.6303L14.0947 25.735L14.7335 23.8398C13.1646 23.311 11.4622 24.1534 10.9322 25.7233L12.8271 26.363ZM14.0947 25.735L13.4556 27.6302C14.9806 28.1445 18.63 29.0087 22.5481 29.9528L23.0166 28.0085L23.4851 26.0641C19.4197 25.0845 16.0383 24.2799 14.7339 23.8399L14.0947 25.735ZM23.0166 28.0085L22.5481 29.9528C26.5118 30.908 30.8074 31.9579 33.7346 32.8594L34.3232 30.9479L34.9119 29.0365C31.8414 28.091 27.4143 27.011 23.4851 26.0641L23.0166 28.0085ZM34.3232 30.9479L33.7346 32.8594C34.1921 33.0002 34.651 33.1354 35.0813 33.2638L35.6533 31.3474L36.2253 29.4309C35.776 29.2968 35.3472 29.1706 34.9119 29.0365L34.3232 30.9479ZM35.6533 31.3474L36.5361 33.142C39.2257 31.819 42.2806 29.965 46.2602 27.3474L45.1611 25.6765L44.0621 24.0055C40.1184 26.5995 37.2308 28.3426 34.7706 29.5527L35.6533 31.3474ZM45.1611 25.6765L46.3766 27.2647C46.4044 27.2435 46.428 27.2243 46.4466 27.2087C46.4653 27.193 46.4807 27.1795 46.4921 27.1694C46.5034 27.1593 46.5124 27.1511 46.5176 27.1463C46.5203 27.1438 46.5225 27.1418 46.5238 27.1406C46.5245 27.14 46.525 27.1395 46.5253 27.1392C46.5255 27.139 46.5256 27.1389 46.5257 27.1388C46.5258 27.1388 46.5258 27.1387 46.5258 27.1387C46.5258 27.1387 46.5259 27.1387 46.5259 27.1387C46.5265 27.1381 46.5227 27.1416 46.5181 27.1459C46.5131 27.1504 46.5048 27.158 46.4944 27.1673C46.4839 27.1766 46.4701 27.1886 46.4536 27.2024C46.4372 27.2163 46.4171 27.2327 46.3938 27.2507L45.1689 25.6696L43.9441 24.0885C43.9201 24.1071 43.8994 24.1241 43.8822 24.1385C43.8651 24.1529 43.8506 24.1655 43.8394 24.1754C43.8283 24.1852 43.8194 24.1934 43.8137 24.1986C43.8084 24.2034 43.804 24.2075 43.804 24.2076C43.8035 24.2081 43.8043 24.2073 43.8051 24.2065C43.8061 24.2056 43.8079 24.2039 43.8103 24.2017C43.8149 24.1975 43.8232 24.1899 43.8339 24.1804C43.8447 24.1708 43.8595 24.1578 43.8775 24.1427C43.8956 24.1276 43.9185 24.109 43.9456 24.0882L45.1611 25.6765ZM45.1689 25.6696L46.3837 27.2585C46.4035 27.2433 46.4261 27.2264 46.4809 27.1849L45.2734 25.5905L44.0659 23.9962C44.0314 24.0223 43.9825 24.0591 43.9542 24.0808L45.1689 25.6696ZM45.2734 25.5905L46.4809 27.1849C46.5646 27.1215 46.6876 27.0291 46.8395 26.9166L45.6494 25.3093L44.4593 23.7019C44.2959 23.8229 44.1613 23.9239 44.0659 23.9962L45.2734 25.5905ZM45.6494 25.3093L46.8395 26.9166C47.1416 26.693 47.5574 26.3914 48.0092 26.0799L46.874 24.4333L45.7388 22.7867C45.2408 23.13 44.7875 23.4589 44.4593 23.7019L45.6494 25.3093ZM46.874 24.4333L48.0092 26.0799C48.4627 25.7673 48.9422 25.4521 49.3749 25.198L48.3623 23.4733L47.3497 21.7486C46.7998 22.0715 46.2319 22.4468 45.7388 22.7867L46.874 24.4333ZM48.3623 23.4733L49.3749 25.1981C49.8311 24.9302 50.1575 24.7768 50.3273 24.7297L49.793 22.8024L49.2586 20.8751C48.5436 21.0734 47.8286 21.4675 47.3497 21.7486L48.3623 23.4733Z" fill="white" mask="url(#path-1-outside-1_34_80)"/>
</svg>
