<svg width="64" height="64" viewBox="0 0 64 64" fill="none" xmlns="http://www.w3.org/2000/svg">
<mask id="path-1-outside-1_34_80" maskUnits="userSpaceOnUse" x="10.7744" y="20.7663" width="42" height="24" fill="black">
<rect fill="white" x="10.7744" y="20.7663" width="42" height="24"/>
<path d="M49.8594 23.0436C50.2584 22.9331 50.6724 23.1672 50.7832 23.5661C50.8935 23.9651 50.6587 24.3783 50.2598 24.489C50.0562 24.5455 49.7067 24.7134 49.249 24.9821C48.8088 25.2406 48.3229 25.5586 47.8672 25.8727C47.413 26.1858 46.9951 26.4899 46.6904 26.7155C46.5386 26.8279 46.4151 26.9216 46.3301 26.986C46.2877 27.0181 46.2545 27.0434 46.2324 27.0602C46.2214 27.0687 46.2125 27.0746 46.207 27.0788C46.2043 27.0809 46.2025 27.0837 46.2012 27.0847H46.2002L46.1777 27.1022L46.1533 27.1179C42.806 29.3203 40.1164 30.98 37.748 32.239C39.4898 32.7652 41.1953 33.3098 42.9141 34.0231L42.9648 34.0466C44.7695 34.9609 46.4272 35.7923 47.5723 36.447L47.5967 36.4597L47.6191 36.4753C48.0826 36.7873 48.4729 37.1336 48.9922 37.7028C48.8214 37.2487 48.6118 36.7195 48.3809 36.1559C48.1402 35.5688 47.8849 34.9606 47.6426 34.3845C47.4008 33.8097 47.1705 33.2645 46.9844 32.8102C46.8274 32.427 47.0113 31.9887 47.3945 31.8317C47.7776 31.6751 48.2159 31.858 48.373 32.2409C48.5558 32.687 48.7815 33.225 49.0244 33.8024C49.2666 34.3783 49.5249 34.9931 49.7686 35.5876C50.2454 36.7511 50.6978 37.9124 50.8506 38.5563L50.9346 38.9099L50.709 39.195C50.4435 39.5304 50.0689 39.7723 49.6738 39.9528C49.2721 40.1363 48.7997 40.2788 48.2871 40.3893C47.2621 40.6104 45.9939 40.7219 44.6182 40.7468H44.6064C43.4571 40.7481 42.8169 40.6994 42.1719 40.6511C41.759 40.6201 41.4488 40.2612 41.4795 39.8483C41.5104 39.4354 41.8703 39.1252 42.2832 39.1559C42.9119 39.2031 43.5089 39.248 44.6035 39.2468C45.9229 39.2224 47.0807 39.1147 47.9717 38.9225C47.9985 38.9167 48.0246 38.9089 48.0508 38.903C47.4943 38.2747 47.17 37.9836 46.8066 37.736C45.7093 37.1101 44.1159 36.3113 42.3115 35.3972C40.169 34.5101 38.074 33.8944 35.7988 33.2184C35.4275 33.3933 35.0625 33.5584 34.7021 33.7136C32.7762 34.5427 30.4574 35.2822 28.1094 36.0046C25.7458 36.7317 23.3507 37.4429 21.2119 38.2243L21.2041 38.2272C19.7534 38.739 18.5678 39.0236 17.3809 39.1569L17.3652 39.1579L17.3506 39.1589C17.0872 39.1777 16.8258 39.1855 16.5684 39.1891C16.8723 39.4934 17.2007 39.7958 17.5391 40.0827C18.4488 40.8541 19.3619 41.4508 20.0244 41.6931C20.4133 41.8353 20.6137 42.267 20.4717 42.6559C20.3293 43.0448 19.8977 43.2454 19.5088 43.1032C18.5994 42.7707 17.5272 42.0394 16.5693 41.2272C15.6021 40.407 14.6757 39.4387 14.0762 38.569L13.8584 38.2516L13.9873 37.8903C14.2293 37.2174 14.7531 36.5866 15.3008 36.0104C15.8355 35.4479 16.552 34.7817 17.165 34.1638C17.7114 33.5878 18.0364 33.1874 18.3828 32.5212C18.5738 32.1538 19.0271 32.011 19.3945 32.2018C19.762 32.3929 19.9057 32.8451 19.7148 33.2126C19.2804 34.0482 18.8543 34.563 18.2539 35.196L18.2422 35.2077C17.5356 35.9207 16.9347 36.4692 16.3877 37.0446C16.1633 37.2807 15.9763 37.4941 15.8252 37.6882C16.3138 37.6938 16.7676 37.6965 17.2236 37.6647C18.2692 37.5464 19.3376 37.2943 20.6973 36.8151L21.5283 36.5192C23.4929 35.8355 25.6224 35.2006 27.6689 34.571C29.805 33.9138 31.85 33.2604 33.5859 32.5534C30.6575 31.6648 26.4692 30.6405 22.6064 29.7097C18.6794 28.7633 15.0475 27.9029 13.5361 27.3932C13.1437 27.2609 12.9331 26.8355 13.0654 26.4431C13.1978 26.0508 13.6223 25.8393 14.0146 25.9714C15.443 26.4531 18.9746 27.291 22.957 28.2507C26.9057 29.2022 31.26 30.2655 34.25 31.1862C34.7289 31.3337 35.204 31.4738 35.6738 31.614C38.2863 30.3369 41.2938 28.5196 45.3057 25.8806C45.3101 25.8771 45.3155 25.8733 45.3213 25.8688C45.3451 25.8506 45.3804 25.8243 45.4248 25.7907C45.5136 25.7234 45.641 25.6266 45.7979 25.5104C46.1116 25.2782 46.5444 24.9639 47.0166 24.6384C47.4873 24.3139 48.0053 23.9723 48.4893 23.6882C48.9553 23.4146 49.4512 23.1568 49.8594 23.0436Z"/>
</mask>
<path d="M49.8594 23.0436C50.2584 22.9331 50.6724 23.1672 50.7832 23.5661C50.8935 23.9651 50.6587 24.3783 50.2598 24.489C50.0562 24.5455 49.7067 24.7134 49.249 24.9821C48.8088 25.2406 48.3229 25.5586 47.8672 25.8727C47.413 26.1858 46.9951 26.4899 46.6904 26.7155C46.5386 26.8279 46.4151 26.9216 46.3301 26.986C46.2877 27.0181 46.2545 27.0434 46.2324 27.0602C46.2214 27.0687 46.2125 27.0746 46.207 27.0788C46.2043 27.0809 46.2025 27.0837 46.2012 27.0847H46.2002L46.1777 27.1022L46.1533 27.1179C42.806 29.3203 40.1164 30.98 37.748 32.239C39.4898 32.7652 41.1953 33.3098 42.9141 34.0231L42.9648 34.0466C44.7695 34.9609 46.4272 35.7923 47.5723 36.447L47.5967 36.4597L47.6191 36.4753C48.0826 36.7873 48.4729 37.1336 48.9922 37.7028C48.8214 37.2487 48.6118 36.7195 48.3809 36.1559C48.1402 35.5688 47.8849 34.9606 47.6426 34.3845C47.4008 33.8097 47.1705 33.2645 46.9844 32.8102C46.8274 32.427 47.0113 31.9887 47.3945 31.8317C47.7776 31.6751 48.2159 31.858 48.373 32.2409C48.5558 32.687 48.7815 33.225 49.0244 33.8024C49.2666 34.3783 49.5249 34.9931 49.7686 35.5876C50.2454 36.7511 50.6978 37.9124 50.8506 38.5563L50.9346 38.9099L50.709 39.195C50.4435 39.5304 50.0689 39.7723 49.6738 39.9528C49.2721 40.1363 48.7997 40.2788 48.2871 40.3893C47.2621 40.6104 45.9939 40.7219 44.6182 40.7468H44.6064C43.4571 40.7481 42.8169 40.6994 42.1719 40.6511C41.759 40.6201 41.4488 40.2612 41.4795 39.8483C41.5104 39.4354 41.8703 39.1252 42.2832 39.1559C42.9119 39.2031 43.5089 39.248 44.6035 39.2468C45.9229 39.2224 47.0807 39.1147 47.9717 38.9225C47.9985 38.9167 48.0246 38.9089 48.0508 38.903C47.4943 38.2747 47.17 37.9836 46.8066 37.736C45.7093 37.1101 44.1159 36.3113 42.3115 35.3972C40.169 34.5101 38.074 33.8944 35.7988 33.2184C35.4275 33.3933 35.0625 33.5584 34.7021 33.7136C32.7762 34.5427 30.4574 35.2822 28.1094 36.0046C25.7458 36.7317 23.3507 37.4429 21.2119 38.2243L21.2041 38.2272C19.7534 38.739 18.5678 39.0236 17.3809 39.1569L17.3652 39.1579L17.3506 39.1589C17.0872 39.1777 16.8258 39.1855 16.5684 39.1891C16.8723 39.4934 17.2007 39.7958 17.5391 40.0827C18.4488 40.8541 19.3619 41.4508 20.0244 41.6931C20.4133 41.8353 20.6137 42.267 20.4717 42.6559C20.3293 43.0448 19.8977 43.2454 19.5088 43.1032C18.5994 42.7707 17.5272 42.0394 16.5693 41.2272C15.6021 40.407 14.6757 39.4387 14.0762 38.569L13.8584 38.2516L13.9873 37.8903C14.2293 37.2174 14.7531 36.5866 15.3008 36.0104C15.8355 35.4479 16.552 34.7817 17.165 34.1638C17.7114 33.5878 18.0364 33.1874 18.3828 32.5212C18.5738 32.1538 19.0271 32.011 19.3945 32.2018C19.762 32.3929 19.9057 32.8451 19.7148 33.2126C19.2804 34.0482 18.8543 34.563 18.2539 35.196L18.2422 35.2077C17.5356 35.9207 16.9347 36.4692 16.3877 37.0446C16.1633 37.2807 15.9763 37.4941 15.8252 37.6882C16.3138 37.6938 16.7676 37.6965 17.2236 37.6647C18.2692 37.5464 19.3376 37.2943 20.6973 36.8151L21.5283 36.5192C23.4929 35.8355 25.6224 35.2006 27.6689 34.571C29.805 33.9138 31.85 33.2604 33.5859 32.5534C30.6575 31.6648 26.4692 30.6405 22.6064 29.7097C18.6794 28.7633 15.0475 27.9029 13.5361 27.3932C13.1437 27.2609 12.9331 26.8355 13.0654 26.4431C13.1978 26.0508 13.6223 25.8393 14.0146 25.9714C15.443 26.4531 18.9746 27.291 22.957 28.2507C26.9057 29.2022 31.26 30.2655 34.25 31.1862C34.7289 31.3337 35.204 31.4738 35.6738 31.614C38.2863 30.3369 41.2938 28.5196 45.3057 25.8806C45.3101 25.8771 45.3155 25.8733 45.3213 25.8688C45.3451 25.8506 45.3804 25.8243 45.4248 25.7907C45.5136 25.7234 45.641 25.6266 45.7979 25.5104C46.1116 25.2782 46.5444 24.9639 47.0166 24.6384C47.4873 24.3139 48.0053 23.9723 48.4893 23.6882C48.9553 23.4146 49.4512 23.1568 49.8594 23.0436Z" fill="black"/>
<path d="M49.8594 23.0436L49.459 21.598L49.4585 21.5982L49.8594 23.0436ZM50.7832 23.5661L52.229 23.1664L52.2285 23.1648L50.7832 23.5661ZM50.2598 24.489L49.8589 23.0435L49.8586 23.0436L50.2598 24.489ZM49.249 24.9821L48.4896 23.6885L48.4896 23.6886L49.249 24.9821ZM47.8672 25.8727L47.0158 24.6378L47.0158 24.6378L47.8672 25.8727ZM46.6904 26.7155L45.7979 25.51L45.7978 25.51L46.6904 26.7155ZM46.3301 26.986L45.4245 25.7903L45.4244 25.7903L46.3301 26.986ZM46.2324 27.0602L45.3214 25.8686L45.3214 25.8686L46.2324 27.0602ZM46.207 27.0788L45.294 25.8887L45.2935 25.8891L46.207 27.0788ZM46.2012 27.0847V28.5847H46.7114L47.1159 28.2735L46.2012 27.0847ZM46.2002 27.0847V25.5847H45.683L45.2757 25.9034L46.2002 27.0847ZM46.1777 27.1022L46.9863 28.3656L47.0462 28.3273L47.1022 28.2835L46.1777 27.1022ZM46.1533 27.1179L45.3447 25.8545L45.3368 25.8596L45.3288 25.8648L46.1533 27.1179ZM37.748 32.239L37.044 30.9144L33.8307 32.6225L37.3143 33.6749L37.748 32.239ZM42.9141 34.0231L43.5426 32.6612L43.5161 32.6489L43.489 32.6377L42.9141 34.0231ZM42.9648 34.0466L43.6428 32.7085L43.6183 32.6961L43.5934 32.6846L42.9648 34.0466ZM47.5723 36.447L46.8277 37.7491L46.8537 37.764L46.8802 37.7778L47.5723 36.447ZM47.5967 36.4597L48.4533 35.2283L48.3742 35.1733L48.2887 35.1288L47.5967 36.4597ZM47.6191 36.4753L46.7625 37.7066L46.7719 37.7131L46.7813 37.7195L47.6191 36.4753ZM48.9922 37.7028L47.884 38.7137L50.3962 37.1747L48.9922 37.7028ZM48.3809 36.1559L49.7688 35.5871L49.7688 35.5871L48.3809 36.1559ZM47.6426 34.3845L49.0253 33.8029L49.0253 33.8029L47.6426 34.3845ZM46.9844 32.8102L45.5963 33.3788L45.5963 33.3789L46.9844 32.8102ZM47.3945 31.8317L46.8267 30.4433L46.8259 30.4437L47.3945 31.8317ZM48.373 32.2409L49.7611 31.6722L49.7607 31.6714L48.373 32.2409ZM49.0244 33.8024L50.4071 33.2209L50.4071 33.2209L49.0244 33.8024ZM49.7686 35.5876L51.1565 35.0187L51.1565 35.0187L49.7686 35.5876ZM50.8506 38.5563L49.3911 38.9026L49.3912 38.903L50.8506 38.5563ZM50.9346 38.9099L52.111 39.8405L52.562 39.2704L52.394 38.5631L50.9346 38.9099ZM50.709 39.195L51.885 40.1261L51.8854 40.1256L50.709 39.195ZM49.6738 39.9528L50.297 41.3172L50.2972 41.3171L49.6738 39.9528ZM48.2871 40.3893L48.6033 41.8556L48.6034 41.8556L48.2871 40.3893ZM44.6182 40.7468V42.2468H44.6317L44.6453 42.2465L44.6182 40.7468ZM44.6064 40.7468L44.6064 39.2468L44.6047 39.2468L44.6064 40.7468ZM42.1719 40.6511L42.284 39.1553L42.1719 40.6511ZM41.4795 39.8483L39.9837 39.7362L39.9836 39.7371L41.4795 39.8483ZM42.2832 39.1559L42.3953 37.6601L42.3946 37.6601L42.2832 39.1559ZM44.6035 39.2468L44.6052 40.7468L44.6182 40.7467L44.6312 40.7465L44.6035 39.2468ZM47.9717 38.9225L48.288 40.3888L48.289 40.3886L47.9717 38.9225ZM48.0508 38.903L48.3813 40.3662L50.8554 39.8073L49.1737 37.9085L48.0508 38.903ZM46.8066 37.736L47.6513 36.4964L47.6018 36.4627L47.5499 36.4331L46.8066 37.736ZM42.3115 35.3972L42.9894 34.0591L42.9383 34.0332L42.8853 34.0112L42.3115 35.3972ZM35.7988 33.2184L36.2261 31.7806L35.6776 31.6176L35.1599 31.8613L35.7988 33.2184ZM34.7021 33.7136L35.2953 35.0913L35.2953 35.0913L34.7021 33.7136ZM28.1094 36.0046L28.5504 37.4383L28.5504 37.4383L28.1094 36.0046ZM21.2119 38.2243L20.6972 36.8153L20.6852 36.8198L21.2119 38.2243ZM21.2041 38.2272L21.7031 39.6418L21.717 39.6369L21.7308 39.6317L21.2041 38.2272ZM17.3809 39.1569L17.4744 40.654L17.5114 40.6517L17.5483 40.6475L17.3809 39.1569ZM17.3652 39.1579L17.2717 37.6608L17.2655 37.6612L17.3652 39.1579ZM17.3506 39.1589L17.2508 37.6622L17.2434 37.6627L17.3506 39.1589ZM16.5684 39.1891L16.5473 37.6893L12.9999 37.739L15.5071 40.2492L16.5684 39.1891ZM17.5391 40.0827L16.5689 41.2268L16.569 41.2268L17.5391 40.0827ZM20.0244 41.6931L19.5092 43.1018L19.5092 43.1018L20.0244 41.6931ZM20.4717 42.6559L21.8803 43.1716L21.8806 43.1705L20.4717 42.6559ZM19.5088 43.1032L18.9936 44.512L18.9938 44.512L19.5088 43.1032ZM16.5693 41.2272L15.5992 42.3713L15.5993 42.3713L16.5693 41.2272ZM14.0762 38.569L12.8393 39.4177L12.8412 39.4204L14.0762 38.569ZM13.8584 38.2516L12.4456 37.7476L12.1883 38.4689L12.6216 39.1003L13.8584 38.2516ZM13.9873 37.8903L12.5758 37.3828L12.5745 37.3863L13.9873 37.8903ZM15.3008 36.0104L14.2136 34.977L14.2136 34.977L15.3008 36.0104ZM17.165 34.1638L18.2299 35.2202L18.2417 35.2083L18.2533 35.1961L17.165 34.1638ZM18.3828 32.5212L19.7136 33.2132L19.7137 33.2131L18.3828 32.5212ZM19.3945 32.2018L20.0865 30.871L20.0859 30.8707L19.3945 32.2018ZM19.7148 33.2126L21.0457 33.9045L21.046 33.904L19.7148 33.2126ZM18.2539 35.196L19.3146 36.2566L19.3286 36.2426L19.3422 36.2283L18.2539 35.196ZM18.2422 35.2077L17.1815 34.147L17.1767 34.1519L18.2422 35.2077ZM16.3877 37.0446L15.3005 36.0112L15.3004 36.0112L16.3877 37.0446ZM15.8252 37.6882L14.6417 36.7666L12.7831 39.1533L15.8079 39.1881L15.8252 37.6882ZM17.2236 37.6647L17.3278 39.1611L17.3601 39.1589L17.3923 39.1552L17.2236 37.6647ZM20.6973 36.8151L21.1958 38.2298L21.2004 38.2282L20.6973 36.8151ZM21.5283 36.5192L21.0353 35.1025L21.0252 35.1061L21.5283 36.5192ZM27.6689 34.571L28.11 36.0047L28.11 36.0047L27.6689 34.571ZM33.5859 32.5534L34.1517 33.9426L38.0703 32.3467L34.0215 31.118L33.5859 32.5534ZM22.6064 29.7097L22.9578 28.2514L22.9578 28.2514L22.6064 29.7097ZM13.5361 27.3932L13.0567 28.8146L13.0568 28.8146L13.5361 27.3932ZM13.0654 26.4431L11.6442 25.9633L11.644 25.9639L13.0654 26.4431ZM14.0146 25.9714L14.494 24.55L14.4933 24.5498L14.0146 25.9714ZM22.957 28.2507L23.3084 26.7924L23.3084 26.7924L22.957 28.2507ZM34.25 31.1862L34.6915 29.7527L34.6915 29.7527L34.25 31.1862ZM35.6738 31.614L35.2451 33.0514L35.8064 33.2188L36.3326 32.9616L35.6738 31.614ZM45.3057 25.8806L46.13 27.1337L46.1763 27.1033L46.2203 27.0694L45.3057 25.8806ZM45.3213 25.8688L44.4103 24.6772L44.4097 24.6776L45.3213 25.8688ZM45.4248 25.7907L44.5192 24.595L44.5192 24.595L45.4248 25.7907ZM45.7979 25.5104L44.9053 24.3049L44.9053 24.3049L45.7979 25.5104ZM47.0166 24.6384L46.1652 23.4034L46.1652 23.4034L47.0166 24.6384ZM48.4893 23.6882L47.7299 22.3946L47.7298 22.3946L48.4893 23.6882ZM49.8594 23.0436L50.2597 24.4892C49.8614 24.5995 49.4489 24.3671 49.3379 23.9674L50.7832 23.5661L52.2285 23.1648C51.896 21.9673 50.6553 21.2668 49.459 21.598L49.8594 23.0436ZM50.7832 23.5661L49.3374 23.9658C49.2264 23.5643 49.4625 23.1534 49.8589 23.0435L50.2598 24.489L50.6606 25.9344C51.855 25.6032 52.5606 24.3659 52.229 23.1664L50.7832 23.5661ZM50.2598 24.489L49.8586 23.0436C49.449 23.1573 48.9521 23.417 48.4896 23.6885L49.249 24.9821L50.0084 26.2757C50.2134 26.1553 50.3797 26.0661 50.5054 26.005C50.6447 25.9373 50.6883 25.9267 50.661 25.9343L50.2598 24.489ZM49.249 24.9821L48.4896 23.6886C48.0069 23.9719 47.4886 24.3119 47.0158 24.6378L47.8672 25.8727L48.7186 27.1077C49.1572 26.8053 49.6107 26.5092 50.0085 26.2757L49.249 24.9821ZM47.8672 25.8727L47.0158 24.6378C46.5432 24.9636 46.1108 25.2783 45.7979 25.51L46.6904 26.7155L47.583 27.9211C47.8794 27.7016 48.2829 27.4081 48.7186 27.1077L47.8672 25.8727ZM46.6904 26.7155L45.7978 25.51C45.6386 25.6279 45.509 25.7262 45.4245 25.7903L46.3301 26.986L47.2357 28.1818C47.3213 28.117 47.4386 28.028 47.583 27.921L46.6904 26.7155ZM46.3301 26.986L45.4244 25.7903C45.3812 25.823 45.346 25.8498 45.3214 25.8686L46.2324 27.0602L47.1434 28.2519C47.163 28.237 47.1942 28.2132 47.2357 28.1818L46.3301 26.986ZM46.2324 27.0602L45.3214 25.8686C45.3354 25.8579 45.3461 25.8503 45.346 25.8504C45.3451 25.851 45.346 25.8504 45.3435 25.8521C45.3421 25.8531 45.3391 25.8553 45.3355 25.8579C45.3319 25.8604 45.3265 25.8644 45.32 25.8692C45.3135 25.8739 45.3045 25.8806 45.294 25.8887L46.207 27.0788L47.1201 28.2689C47.1109 28.2759 47.1034 28.2815 47.0985 28.2851C47.0936 28.2887 47.0898 28.2915 47.088 28.2928C47.0862 28.294 47.0851 28.2949 47.0856 28.2945C47.0859 28.2943 47.0861 28.2942 47.0868 28.2936C47.0874 28.2932 47.0883 28.2925 47.0894 28.2918C47.0978 28.2858 47.1184 28.271 47.1435 28.2519L46.2324 27.0602ZM46.207 27.0788L45.2935 25.8891C45.2622 25.9131 45.2347 25.9361 45.2112 25.957C45.1876 25.9779 45.1673 25.9972 45.1504 26.0139C45.1336 26.0306 45.1195 26.0453 45.1086 26.0569C45.0978 26.0685 45.0892 26.078 45.0843 26.0835C45.0819 26.0863 45.0799 26.0885 45.079 26.0895C45.0788 26.0897 45.0786 26.0899 45.0785 26.0901C45.0784 26.0902 45.0782 26.0903 45.0782 26.0903C45.0781 26.0905 45.0784 26.0901 45.0788 26.0897C45.0795 26.0889 45.0816 26.0865 45.0844 26.0834C45.0873 26.0802 45.0917 26.0753 45.0972 26.0692C45.1027 26.0632 45.1102 26.0552 45.1193 26.0457C45.1283 26.0364 45.14 26.0244 45.1539 26.0108C45.1678 25.9973 45.1855 25.9805 45.2066 25.9618C45.2276 25.9432 45.2544 25.9205 45.2865 25.8958L46.2012 27.0847L47.1159 28.2735C47.1481 28.2487 47.1751 28.2259 47.1962 28.2071C47.2175 28.1883 47.2354 28.1713 47.2494 28.1576C47.2636 28.1438 47.2754 28.1317 47.2846 28.1221C47.2939 28.1125 47.3016 28.1042 47.3073 28.098C47.313 28.0918 47.3176 28.0866 47.3207 28.0832C47.3237 28.0798 47.3261 28.0771 47.3269 28.0761C47.3274 28.0756 47.3278 28.0751 47.3278 28.0751C47.328 28.075 47.3277 28.0753 47.3274 28.0756C47.3267 28.0763 47.325 28.0783 47.3228 28.0808C47.3184 28.0858 47.3103 28.0947 47.3001 28.1057C47.2897 28.1168 47.2762 28.1309 47.2599 28.147C47.2436 28.1631 47.2239 28.1819 47.2009 28.2022C47.178 28.2225 47.1512 28.245 47.1205 28.2685L46.207 27.0788ZM46.2012 27.0847V25.5847H46.2002V27.0847V28.5847H46.2012V27.0847ZM46.2002 27.0847L45.2757 25.9034L45.2533 25.921L46.1777 27.1022L47.1022 28.2835L47.1247 28.2659L46.2002 27.0847ZM46.1777 27.1022L45.3692 25.8388L45.3447 25.8545L46.1533 27.1179L46.9619 28.3813L46.9863 28.3656L46.1777 27.1022ZM46.1533 27.1179L45.3288 25.8648C41.995 28.0583 39.351 29.6882 37.044 30.9144L37.748 32.239L38.4521 33.5635C40.8819 32.2719 43.6169 30.5823 46.9778 28.3709L46.1533 27.1179ZM37.748 32.239L37.3143 33.6749C39.0453 34.1978 40.6921 34.7251 42.3391 35.4086L42.9141 34.0231L43.489 32.6377C41.6984 31.8946 39.9344 31.3325 38.1818 30.803L37.748 32.239ZM42.9141 34.0231L42.2855 35.3851L42.3363 35.4085L42.9648 34.0466L43.5934 32.6846L43.5426 32.6612L42.9141 34.0231ZM42.9648 34.0466L42.2869 35.3846C44.1124 36.3095 45.7247 37.1185 46.8277 37.7491L47.5723 36.447L48.3168 35.1448C47.1298 34.4661 45.4265 33.6122 43.6428 32.7085L42.9648 34.0466ZM47.5723 36.447L46.8802 37.7778L46.9047 37.7905L47.5967 36.4597L48.2887 35.1288L48.2643 35.1161L47.5723 36.447ZM47.5967 36.4597L46.7401 37.691L46.7625 37.7066L47.6191 36.4753L48.4757 35.2439L48.4533 35.2283L47.5967 36.4597ZM47.6191 36.4753L46.7813 37.7195C47.1197 37.9474 47.421 38.2062 47.884 38.7137L48.9922 37.7028L50.1004 36.6919C49.5248 36.061 49.0454 35.6273 48.4569 35.2311L47.6191 36.4753ZM48.9922 37.7028L50.3962 37.1747C50.2188 36.7032 50.0036 36.1598 49.7688 35.5871L48.3809 36.1559L46.9929 36.7248C47.2201 37.2791 47.4239 37.7942 47.5882 38.2309L48.9922 37.7028ZM48.3809 36.1559L49.7688 35.5871C49.5252 34.9928 49.2675 34.3789 49.0253 33.8029L47.6426 34.3845L46.2599 34.966C46.5023 35.5424 46.7552 36.1448 46.9929 36.7248L48.3809 36.1559ZM47.6426 34.3845L49.0253 33.8029C48.7816 33.2235 48.5551 32.6875 48.3724 32.2416L46.9844 32.8102L45.5963 33.3789C45.7859 33.8415 46.0201 34.3959 46.2599 34.966L47.6426 34.3845ZM46.9844 32.8102L48.3725 32.2417C48.5299 32.6261 48.3454 33.0632 47.9632 33.2198L47.3945 31.8317L46.8259 30.4437C45.6771 30.9143 45.1249 32.2278 45.5963 33.3788L46.9844 32.8102ZM47.3945 31.8317L47.9623 33.2201C47.5811 33.376 47.1432 33.1951 46.9854 32.8104L48.373 32.2409L49.7607 31.6714C49.2886 30.521 47.974 29.9741 46.8267 30.4433L47.3945 31.8317ZM48.373 32.2409L46.985 32.8096C47.1708 33.2631 47.3992 33.8074 47.6417 34.3839L49.0244 33.8024L50.4071 33.2209C50.1639 32.6425 49.9408 32.1109 49.7611 31.6722L48.373 32.2409ZM49.0244 33.8024L47.6417 34.3839C47.8842 34.9604 48.1399 35.5692 48.3806 36.1564L49.7686 35.5876L51.1565 35.0187C50.9099 34.417 50.649 33.7962 50.4071 33.2209L49.0244 33.8024ZM49.7686 35.5876L48.3806 36.1564C48.8717 37.3546 49.2711 38.397 49.3911 38.9026L50.8506 38.5563L52.3101 38.2101C52.1245 37.4279 51.6192 36.1476 51.1565 35.0187L49.7686 35.5876ZM50.8506 38.5563L49.3912 38.903L49.4752 39.2566L50.9346 38.9099L52.394 38.5631L52.31 38.2096L50.8506 38.5563ZM50.9346 38.9099L49.7582 37.9792L49.5326 38.2644L50.709 39.195L51.8854 40.1256L52.111 39.8405L50.9346 38.9099ZM50.709 39.195L49.533 38.2639C49.4699 38.3435 49.3283 38.4615 49.0504 38.5885L49.6738 39.9528L50.2972 41.3171C50.8095 41.0831 51.417 40.7172 51.885 40.1261L50.709 39.195ZM49.6738 39.9528L49.0506 38.5884C48.7783 38.7128 48.4173 38.8268 47.9708 38.9231L48.2871 40.3893L48.6034 41.8556C49.182 41.7308 49.766 41.5598 50.297 41.3172L49.6738 39.9528ZM48.2871 40.3893L47.9709 38.9231C47.077 39.1158 45.9152 39.2231 44.5911 39.247L44.6182 40.7468L44.6453 42.2465C46.0726 42.2207 47.4472 42.105 48.6033 41.8556L48.2871 40.3893ZM44.6182 40.7468V39.2468H44.6064V40.7468V42.2468H44.6182V40.7468ZM44.6064 40.7468L44.6047 39.2468C43.5108 39.248 42.9139 39.2025 42.284 39.1553L42.1719 40.6511L42.0598 42.1469C42.7198 42.1963 43.4033 42.2481 44.6082 42.2468L44.6064 40.7468ZM42.1719 40.6511L42.284 39.1553C42.6936 39.186 43.0063 39.5434 42.9754 39.9596L41.4795 39.8483L39.9836 39.7371C39.8912 40.979 40.8243 42.0543 42.0598 42.1469L42.1719 40.6511ZM41.4795 39.8483L42.9753 39.9604C42.9444 40.3722 42.5859 40.6826 42.1718 40.6518L42.2832 39.1559L42.3946 37.6601C41.1547 37.5677 40.0764 38.4986 39.9837 39.7362L41.4795 39.8483ZM42.2832 39.1559L42.1711 40.6517C42.8159 40.7001 43.4558 40.7481 44.6052 40.7468L44.6035 39.2468L44.6018 37.7468C43.5621 37.7479 43.0078 37.706 42.3953 37.6601L42.2832 39.1559ZM44.6035 39.2468L44.6312 40.7465C46.0025 40.7212 47.2664 40.6092 48.288 40.3888L47.9717 38.9225L47.6554 37.4563C46.8951 37.6203 45.8432 37.7236 44.5758 37.747L44.6035 39.2468ZM47.9717 38.9225L48.289 40.3886C48.3142 40.3831 48.3359 40.3779 48.3522 40.3739C48.368 40.37 48.3819 40.3664 48.3888 40.3646C48.3933 40.3634 48.3948 40.363 48.3971 40.3624C48.3988 40.362 48.3992 40.3619 48.3987 40.362C48.3979 40.3622 48.3913 40.3639 48.3813 40.3662L48.0508 38.903L47.7203 37.4399C47.6972 37.4451 47.6775 37.45 47.6636 37.4535C47.6509 37.4567 47.638 37.4601 47.6342 37.4611C47.6279 37.4627 47.6286 37.4625 47.6311 37.4619C47.6341 37.4611 47.6425 37.4591 47.6544 37.4565L47.9717 38.9225ZM48.0508 38.903L49.1737 37.9085C48.5748 37.2323 48.1571 36.8411 47.6513 36.4964L46.8066 37.736L45.962 38.9756C46.1828 39.1261 46.4138 39.3172 46.9279 39.8975L48.0508 38.903ZM46.8066 37.736L47.5499 36.4331C46.4112 35.7836 44.7727 34.9625 42.9894 34.0591L42.3115 35.3972L41.6336 36.7352C43.4592 37.66 45.0073 38.4365 46.0634 39.039L46.8066 37.736ZM42.3115 35.3972L42.8853 34.0112C40.6581 33.0891 38.4863 32.4521 36.2261 31.7806L35.7988 33.2184L35.3716 34.6563C37.6616 35.3367 39.6799 35.9311 41.7377 36.7831L42.3115 35.3972ZM35.7988 33.2184L35.1599 31.8613C34.8018 32.0299 34.4521 32.1881 34.109 32.3358L34.7021 33.7136L35.2953 35.0913C35.6728 34.9288 36.0531 34.7566 36.4377 34.5756L35.7988 33.2184ZM34.7021 33.7136L34.109 32.3358C32.2678 33.1285 30.0227 33.8466 27.6683 34.5709L28.1094 36.0046L28.5504 37.4383C30.8921 36.7179 33.2847 35.9569 35.2953 35.0913L34.7021 33.7136ZM28.1094 36.0046L27.6683 34.5709C25.3291 35.2905 22.8828 36.0169 20.6972 36.8154L21.2119 38.2243L21.7266 39.6332C23.8186 38.869 26.1625 38.1729 28.5504 37.4383L28.1094 36.0046ZM21.2119 38.2243L20.6852 36.8198L20.6774 36.8227L21.2041 38.2272L21.7308 39.6317L21.7386 39.6288L21.2119 38.2243ZM21.2041 38.2272L20.7051 36.8127C19.337 37.2953 18.2639 37.5483 17.2134 37.6663L17.3809 39.1569L17.5483 40.6475C18.8716 40.4989 20.1698 40.1827 21.7031 39.6418L21.2041 38.2272ZM17.3809 39.1569L17.2873 37.6598L17.2717 37.6608L17.3652 39.1579L17.4588 40.655L17.4744 40.654L17.3809 39.1569ZM17.3652 39.1579L17.2655 37.6612L17.2508 37.6622L17.3506 39.1589L17.4504 40.6556L17.465 40.6546L17.3652 39.1579ZM17.3506 39.1589L17.2434 37.6627C17.0199 37.6787 16.79 37.6859 16.5473 37.6893L16.5684 39.1891L16.5894 40.689C16.8615 40.6852 17.1545 40.6768 17.4578 40.655L17.3506 39.1589ZM16.5684 39.1891L15.5071 40.2492C15.841 40.5835 16.1999 40.9139 16.5689 41.2268L17.5391 40.0827L18.5092 38.9386C18.2014 38.6777 17.9035 38.4033 17.6297 38.1291L16.5684 39.1891ZM17.5391 40.0827L16.569 41.2268C17.5272 42.0393 18.6 42.7693 19.5092 43.1018L20.0244 41.6931L20.5396 40.2843C20.1237 40.1322 19.3704 39.6689 18.5092 38.9386L17.5391 40.0827ZM20.0244 41.6931L19.5092 43.1018C19.1197 42.9594 18.9209 42.5297 19.0627 42.1414L20.4717 42.6559L21.8806 43.1705C22.3066 42.0043 21.7069 40.7112 20.5396 40.2843L20.0244 41.6931ZM20.4717 42.6559L19.0631 42.1403C19.2052 41.752 19.6343 41.552 20.0238 41.6944L19.5088 43.1032L18.9938 44.512C20.1611 44.9387 21.4534 44.3375 21.8803 43.1716L20.4717 42.6559ZM19.5088 43.1032L20.0239 41.6944C19.3617 41.4523 18.4495 40.8548 17.5394 40.0831L16.5693 41.2272L15.5993 42.3713C16.6048 43.2239 17.837 44.089 18.9936 44.512L19.5088 43.1032ZM16.5693 41.2272L17.5394 40.0832C16.639 39.3196 15.814 38.4471 15.3111 37.7176L14.0762 38.569L12.8412 39.4204C13.5374 40.4303 14.5651 41.4944 15.5992 42.3713L16.5693 41.2272ZM14.0762 38.569L15.313 37.7204L15.0952 37.403L13.8584 38.2516L12.6216 39.1003L12.8393 39.4177L14.0762 38.569ZM13.8584 38.2516L15.2712 38.7557L15.4001 38.3943L13.9873 37.8903L12.5745 37.3863L12.4456 37.7476L13.8584 38.2516ZM13.9873 37.8903L15.3988 38.3978C15.526 38.0443 15.8514 37.6083 16.388 37.0439L15.3008 36.0104L14.2136 34.977C13.6548 35.5649 12.9326 36.3905 12.5758 37.3828L13.9873 37.8903ZM15.3008 36.0104L16.388 37.0439C16.9273 36.4765 17.5334 35.9222 18.2299 35.2202L17.165 34.1638L16.1002 33.1073C15.5706 33.6411 14.7438 34.4192 14.2136 34.977L15.3008 36.0104ZM17.165 34.1638L18.2533 35.1961C18.854 34.5628 19.2795 34.0481 19.7136 33.2132L18.3828 32.5212L17.052 31.8291C16.7932 32.3267 16.5688 32.6128 16.0768 33.1314L17.165 34.1638ZM18.3828 32.5212L19.7137 33.2131C19.5219 33.582 19.0691 33.7231 18.7032 33.533L19.3945 32.2018L20.0859 30.8707C18.985 30.2989 17.6258 30.7255 17.0519 31.8292L18.3828 32.5212ZM19.3945 32.2018L18.7026 33.5327C18.3378 33.3431 18.1915 32.8912 18.3837 32.5211L19.7148 33.2126L21.046 33.904C21.62 32.799 21.1861 31.4427 20.0865 30.871L19.3945 32.2018ZM19.7148 33.2126L18.384 32.5207C18.0374 33.1873 17.712 33.5877 17.1656 34.1637L18.2539 35.196L19.3422 36.2283C19.9967 35.5383 20.5234 34.9091 21.0457 33.9045L19.7148 33.2126ZM18.2539 35.196L17.1932 34.1353L17.1815 34.147L18.2422 35.2077L19.3028 36.2684L19.3146 36.2566L18.2539 35.196ZM18.2422 35.2077L17.1767 34.1519C16.5629 34.7713 15.8378 35.4459 15.3005 36.0112L16.3877 37.0446L17.4749 38.078C18.0316 37.4924 18.5084 37.0701 19.3077 36.2635L18.2422 35.2077ZM16.3877 37.0446L15.3004 36.0112C15.0537 36.2708 14.8319 36.5224 14.6417 36.7666L15.8252 37.6882L17.0087 38.6098C17.1208 38.4659 17.2729 38.2906 17.4749 38.078L16.3877 37.0446ZM15.8252 37.6882L15.8079 39.1881C16.2936 39.1937 16.8036 39.1976 17.3278 39.1611L17.2236 37.6647L17.1194 36.1684C16.7315 36.1954 16.334 36.1939 15.8425 36.1883L15.8252 37.6882ZM17.2236 37.6647L17.3923 39.1552C18.5735 39.0216 19.7538 38.738 21.1958 38.2298L20.6973 36.8151L20.1987 35.4004C18.9214 35.8506 17.965 36.0713 17.055 36.1742L17.2236 37.6647ZM20.6973 36.8151L21.2004 38.2282L22.0315 37.9323L21.5283 36.5192L21.0252 35.1061L20.1941 35.402L20.6973 36.8151ZM21.5283 36.5192L22.0213 37.9359C23.9524 37.2638 26.0441 36.6402 28.11 36.0047L27.6689 34.571L27.2279 33.1373C25.2008 33.7609 23.0333 34.4072 21.0353 35.1026L21.5283 36.5192ZM27.6689 34.571L28.11 36.0047C30.2443 35.3481 32.3473 34.6775 34.1517 33.9426L33.5859 32.5534L33.0202 31.1642C31.3526 31.8433 29.3657 32.4796 27.2279 33.1373L27.6689 34.571ZM33.5859 32.5534L34.0215 31.118C31.0432 30.2143 26.8097 29.1796 22.9578 28.2514L22.6064 29.7097L22.255 31.1679C26.1288 32.1014 30.2719 33.1153 33.1504 33.9888L33.5859 32.5534ZM22.6064 29.7097L22.9578 28.2514C18.9763 27.292 15.4443 26.4537 14.0154 25.9719L13.5361 27.3932L13.0568 28.8146C14.6508 29.3521 18.3824 30.2347 22.255 31.1679L22.6064 29.7097ZM13.5361 27.3932L14.0155 25.9719C14.4089 26.1046 14.6188 26.5307 14.4868 26.9222L13.0654 26.4431L11.644 25.9639C11.2475 27.1404 11.8785 28.4172 13.0567 28.8146L13.5361 27.3932ZM13.0654 26.4431L14.4866 26.9228C14.3554 27.3116 13.9318 27.5262 13.536 27.393L14.0146 25.9714L14.4933 24.5498C13.3128 24.1523 12.0403 24.79 11.6442 25.9633L13.0654 26.4431ZM14.0146 25.9714L13.5353 27.3927C15.0463 27.9023 18.6784 28.7626 22.6056 29.7089L22.957 28.2507L23.3084 26.7924C19.2708 25.8195 15.8396 25.0039 14.494 24.55L14.0146 25.9714ZM22.957 28.2507L22.6056 29.7089C26.5673 30.6636 30.8723 31.7156 33.8085 32.6198L34.25 31.1862L34.6915 29.7527C31.6477 28.8154 27.2441 27.7408 23.3084 26.7924L22.957 28.2507ZM34.25 31.1862L33.8085 32.6198C34.2958 32.7698 34.7811 32.913 35.2451 33.0514L35.6738 31.614L36.1026 30.1765C35.6268 30.0346 35.162 29.8976 34.6915 29.7527L34.25 31.1862ZM35.6738 31.614L36.3326 32.9616C39.0328 31.6415 42.1043 29.7819 46.13 27.1337L45.3057 25.8806L44.4813 24.6274C40.4834 27.2573 37.5397 29.0322 35.0151 30.2664L35.6738 31.614ZM45.3057 25.8806L46.2203 27.0694C46.214 27.0743 46.2092 27.0779 46.2074 27.0792C46.2058 27.0804 46.2045 27.0814 46.2065 27.0799C46.2077 27.079 46.2114 27.0763 46.2156 27.0731C46.22 27.0698 46.226 27.0653 46.2329 27.06L45.3213 25.8688L44.4097 24.6776C44.4137 24.6745 44.4168 24.6722 44.4185 24.671C44.4199 24.6699 44.4209 24.6692 44.4194 24.6703C44.4188 24.6707 44.415 24.6735 44.411 24.6765C44.4067 24.6797 44.3996 24.6851 44.391 24.6917L45.3057 25.8806ZM45.3213 25.8688L46.2323 27.0605C46.2564 27.0421 46.2681 27.0337 46.3304 26.9865L45.4248 25.7907L44.5192 24.595C44.4928 24.6149 44.4338 24.6592 44.4103 24.6772L45.3213 25.8688ZM45.4248 25.7907L46.3304 26.9865C46.4212 26.9177 46.5415 26.8263 46.6904 26.716L45.7979 25.5104L44.9053 24.3049C44.7405 24.4269 44.6061 24.5291 44.5192 24.595L45.4248 25.7907ZM45.7979 25.5104L46.6904 26.716C46.9948 26.4906 47.4135 26.1867 47.868 25.8733L47.0166 24.6384L46.1652 23.4034C45.6754 23.7411 45.2283 24.0657 44.9053 24.3049L45.7979 25.5104ZM47.0166 24.6384L47.868 25.8733C48.3241 25.5589 48.8089 25.2399 49.2487 24.9817L48.4893 23.6882L47.7298 22.3946C47.2017 22.7047 46.6504 23.0689 46.1652 23.4034L47.0166 24.6384ZM48.4893 23.6882L49.2487 24.9817C49.7051 24.7138 50.0559 24.5457 50.2602 24.4891L49.8594 23.0436L49.4585 21.5982C48.8465 21.7679 48.2055 22.1154 47.7299 22.3946L48.4893 23.6882Z" fill="white" mask="url(#path-1-outside-1_34_80)"/>
</svg>
