<svg width="64" height="64" viewBox="0 0 64 64" fill="none" xmlns="http://www.w3.org/2000/svg">
<mask id="path-1-outside-1_34_86" maskUnits="userSpaceOnUse" x="13.6895" y="13.545" width="36" height="36" fill="black">
<rect fill="white" x="13.6895" y="13.545" width="36" height="36"/>
<path d="M42.3242 15.9717C42.6405 15.7044 43.1144 15.7444 43.3818 16.0606C43.6487 16.3769 43.609 16.8499 43.293 17.1172C43.1317 17.2536 42.8836 17.5517 42.5801 17.9874C42.2883 18.4063 41.9808 18.8991 41.6982 19.3751C41.4166 19.8496 41.1638 20.3005 40.9814 20.6329C40.8906 20.7983 40.8179 20.9343 40.7676 21.0284C40.7425 21.0754 40.722 21.1122 40.709 21.1368C40.7025 21.1491 40.6976 21.159 40.6943 21.1651C40.6929 21.168 40.6921 21.1705 40.6914 21.1719L40.6904 21.1729L40.6777 21.1983L40.6621 21.2227C37.585 26.1603 35.2902 29.4795 33.0195 32.003C32.9523 32.0777 32.8815 32.1505 32.8125 32.2256C33.4026 32.6655 33.9564 33.0852 34.458 33.4805C36.9283 35.4273 39.2855 37.1198 41.5166 39.2491L41.5566 39.2891C42.9105 40.7923 44.1571 42.1652 44.9893 43.1885L45.0068 43.21L45.0225 43.2315C45.3424 43.6897 45.5811 44.1538 45.8604 44.8721C45.8647 44.3869 45.86 43.818 45.8477 43.209C45.8348 42.5745 45.8153 41.915 45.7969 41.2901C45.7785 40.6668 45.7609 40.0748 45.751 39.584C45.7429 39.1701 46.0724 38.8277 46.4863 38.8194C46.9001 38.8113 47.2423 39.1401 47.251 39.5538C47.2607 40.0359 47.2784 40.6197 47.2969 41.2462C47.3153 41.8705 47.3346 42.5366 47.3477 43.1788C47.3732 44.4359 47.3767 45.6823 47.2871 46.338L47.2383 46.6973L46.9248 46.8829C46.5564 47.1 46.12 47.1908 45.6865 47.2169C45.2456 47.2433 44.7534 47.2047 44.2354 47.1231C43.1995 46.9599 41.976 46.6075 40.6836 46.1348L40.6719 46.1309C39.5993 45.718 39.0197 45.4417 38.4355 45.1641C38.0619 44.9863 37.9028 44.54 38.0801 44.1661C38.2578 43.792 38.705 43.632 39.0791 43.8096C39.6486 44.0802 40.1893 44.3371 41.2109 44.7305C42.4504 45.1833 43.5684 45.4998 44.4688 45.6417C44.4959 45.6459 44.5232 45.6485 44.5498 45.6524C44.2571 44.8656 44.0594 44.4773 43.8096 44.1153C43.0115 43.1359 41.8137 41.8165 40.46 40.3135C38.3037 38.2591 36.0581 36.6511 33.5293 34.6583C32.9965 34.2384 32.4034 33.7887 31.7676 33.3165C30.6161 34.4713 29.3121 35.6581 27.9893 36.8419C26.1464 38.491 24.2683 40.1389 22.6523 41.7432L22.6465 41.7491C21.5428 42.8207 20.5849 43.5749 19.5625 44.1924L19.5488 44.2003L19.5361 44.2071C19.3049 44.3343 19.0711 44.4507 18.8389 44.5616C19.2422 44.7109 19.6663 44.8487 20.0938 44.9678C21.2426 45.288 22.3213 45.4477 23.0244 45.3907C23.4373 45.3571 23.8004 45.6653 23.834 46.0782C23.8673 46.4908 23.5591 46.8532 23.1465 46.8868C22.1813 46.9652 20.9013 46.7493 19.6914 46.4122C18.4697 46.0717 17.2238 45.5793 16.3154 45.0401L15.9844 44.8438L15.9512 44.461C15.8895 43.7486 16.101 42.9575 16.3574 42.2051C16.6079 41.4704 16.9799 40.5649 17.2783 39.7471C17.5336 38.9956 17.6612 38.4961 17.6973 37.7462C17.7171 37.3324 18.0697 37.0125 18.4834 37.0323C18.8967 37.0523 19.2158 37.4031 19.1963 37.8165C19.1512 38.7572 18.9798 39.4035 18.6992 40.2296L18.6934 40.2452C18.3499 41.1881 18.0335 41.9372 17.7773 42.6885C17.6722 42.9971 17.5913 43.2702 17.5352 43.5098C17.9815 43.3105 18.3948 43.1221 18.7959 42.9024C19.6961 42.3576 20.5612 41.6817 21.5957 40.6778L22.2266 40.0616C23.7251 38.6189 25.3937 37.1515 26.9893 35.7237C28.2533 34.5926 29.47 33.4848 30.5439 32.419C28.5547 30.9763 26.2833 29.3966 24.1289 27.9063C20.8071 25.6085 17.7293 23.4978 16.5029 22.4776C16.1846 22.2127 16.1406 21.7394 16.4053 21.421C16.6702 21.1026 17.1435 21.0584 17.4619 21.3233C18.6207 22.2874 21.6124 24.3424 24.9814 26.6729C27.1897 28.2004 29.5454 29.8377 31.5986 31.3311C31.7022 31.2196 31.8059 31.1105 31.9053 31.0001C34.0792 28.5841 36.3123 25.3658 39.374 20.4542C39.3767 20.449 39.3802 20.4423 39.3838 20.4356C39.3978 20.4091 39.4181 20.3703 39.4443 20.3214C39.4969 20.2231 39.5731 20.0823 39.667 19.9112C39.8548 19.569 40.1165 19.1025 40.4092 18.6094C40.701 18.1178 41.0289 17.5904 41.3496 17.1299C41.6585 16.6866 42.0009 16.2452 42.3242 15.9717Z"/>
</mask>
<path d="M42.3242 15.9717C42.6405 15.7044 43.1144 15.7444 43.3818 16.0606C43.6487 16.3769 43.609 16.8499 43.293 17.1172C43.1317 17.2536 42.8836 17.5517 42.5801 17.9874C42.2883 18.4063 41.9808 18.8991 41.6982 19.3751C41.4166 19.8496 41.1638 20.3005 40.9814 20.6329C40.8906 20.7983 40.8179 20.9343 40.7676 21.0284C40.7425 21.0754 40.722 21.1122 40.709 21.1368C40.7025 21.1491 40.6976 21.159 40.6943 21.1651C40.6929 21.168 40.6921 21.1705 40.6914 21.1719L40.6904 21.1729L40.6777 21.1983L40.6621 21.2227C37.585 26.1603 35.2902 29.4795 33.0195 32.003C32.9523 32.0777 32.8815 32.1505 32.8125 32.2256C33.4026 32.6655 33.9564 33.0852 34.458 33.4805C36.9283 35.4273 39.2855 37.1198 41.5166 39.2491L41.5566 39.2891C42.9105 40.7923 44.1571 42.1652 44.9893 43.1885L45.0068 43.21L45.0225 43.2315C45.3424 43.6897 45.5811 44.1538 45.8604 44.8721C45.8647 44.3869 45.86 43.818 45.8477 43.209C45.8348 42.5745 45.8153 41.915 45.7969 41.2901C45.7785 40.6668 45.7609 40.0748 45.751 39.584C45.7429 39.1701 46.0724 38.8277 46.4863 38.8194C46.9001 38.8113 47.2423 39.1401 47.251 39.5538C47.2607 40.0359 47.2784 40.6197 47.2969 41.2462C47.3153 41.8705 47.3346 42.5366 47.3477 43.1788C47.3732 44.4359 47.3767 45.6823 47.2871 46.338L47.2383 46.6973L46.9248 46.8829C46.5564 47.1 46.12 47.1908 45.6865 47.2169C45.2456 47.2433 44.7534 47.2047 44.2354 47.1231C43.1995 46.9599 41.976 46.6075 40.6836 46.1348L40.6719 46.1309C39.5993 45.718 39.0197 45.4417 38.4355 45.1641C38.0619 44.9863 37.9028 44.54 38.0801 44.1661C38.2578 43.792 38.705 43.632 39.0791 43.8096C39.6486 44.0802 40.1893 44.3371 41.2109 44.7305C42.4504 45.1833 43.5684 45.4998 44.4688 45.6417C44.4959 45.6459 44.5232 45.6485 44.5498 45.6524C44.2571 44.8656 44.0594 44.4773 43.8096 44.1153C43.0115 43.1359 41.8137 41.8165 40.46 40.3135C38.3037 38.2591 36.0581 36.6511 33.5293 34.6583C32.9965 34.2384 32.4034 33.7887 31.7676 33.3165C30.6161 34.4713 29.3121 35.6581 27.9893 36.8419C26.1464 38.491 24.2683 40.1389 22.6523 41.7432L22.6465 41.7491C21.5428 42.8207 20.5849 43.5749 19.5625 44.1924L19.5488 44.2003L19.5361 44.2071C19.3049 44.3343 19.0711 44.4507 18.8389 44.5616C19.2422 44.7109 19.6663 44.8487 20.0938 44.9678C21.2426 45.288 22.3213 45.4477 23.0244 45.3907C23.4373 45.3571 23.8004 45.6653 23.834 46.0782C23.8673 46.4908 23.5591 46.8532 23.1465 46.8868C22.1813 46.9652 20.9013 46.7493 19.6914 46.4122C18.4697 46.0717 17.2238 45.5793 16.3154 45.0401L15.9844 44.8438L15.9512 44.461C15.8895 43.7486 16.101 42.9575 16.3574 42.2051C16.6079 41.4704 16.9799 40.5649 17.2783 39.7471C17.5336 38.9956 17.6612 38.4961 17.6973 37.7462C17.7171 37.3324 18.0697 37.0125 18.4834 37.0323C18.8967 37.0523 19.2158 37.4031 19.1963 37.8165C19.1512 38.7572 18.9798 39.4035 18.6992 40.2296L18.6934 40.2452C18.3499 41.1881 18.0335 41.9372 17.7773 42.6885C17.6722 42.9971 17.5913 43.2702 17.5352 43.5098C17.9815 43.3105 18.3948 43.1221 18.7959 42.9024C19.6961 42.3576 20.5612 41.6817 21.5957 40.6778L22.2266 40.0616C23.7251 38.6189 25.3937 37.1515 26.9893 35.7237C28.2533 34.5926 29.47 33.4848 30.5439 32.419C28.5547 30.9763 26.2833 29.3966 24.1289 27.9063C20.8071 25.6085 17.7293 23.4978 16.5029 22.4776C16.1846 22.2127 16.1406 21.7394 16.4053 21.421C16.6702 21.1026 17.1435 21.0584 17.4619 21.3233C18.6207 22.2874 21.6124 24.3424 24.9814 26.6729C27.1897 28.2004 29.5454 29.8377 31.5986 31.3311C31.7022 31.2196 31.8059 31.1105 31.9053 31.0001C34.0792 28.5841 36.3123 25.3658 39.374 20.4542C39.3767 20.449 39.3802 20.4423 39.3838 20.4356C39.3978 20.4091 39.4181 20.3703 39.4443 20.3214C39.4969 20.2231 39.5731 20.0823 39.667 19.9112C39.8548 19.569 40.1165 19.1025 40.4092 18.6094C40.701 18.1178 41.0289 17.5904 41.3496 17.1299C41.6585 16.6866 42.0009 16.2452 42.3242 15.9717Z" fill="black"/>
<path d="M42.3242 15.9717L41.356 14.8261L41.3556 14.8264L42.3242 15.9717ZM43.3818 16.0606L44.5281 15.0932L44.5272 15.092L43.3818 16.0606ZM43.293 17.1172L44.2615 18.2626L44.2617 18.2625L43.293 17.1172ZM42.5801 17.9874L41.3493 17.13L41.3492 17.13L42.5801 17.9874ZM41.6982 19.3751L40.4084 18.6094L40.4084 18.6094L41.6982 19.3751ZM40.9814 20.6329L39.6665 19.9112L39.6665 19.9112L40.9814 20.6329ZM40.7676 21.0284L39.4448 20.321L39.4448 20.321L40.7676 21.0284ZM40.709 21.1368L39.3831 20.4354L39.383 20.4354L40.709 21.1368ZM40.6943 21.1651L39.3669 20.4665L39.362 20.4759L39.3572 20.4854L40.6943 21.1651ZM40.6914 21.1719L41.7521 22.2326L41.9245 22.0601L42.0335 21.8419L40.6914 21.1719ZM40.6904 21.1729L39.6298 20.1123L39.4576 20.2844L39.3488 20.5021L40.6904 21.1729ZM40.6777 21.1983L41.9411 22.0069L41.9839 21.9401L42.0194 21.8691L40.6777 21.1983ZM40.6621 21.2227L39.3987 20.4141L39.3938 20.4217L39.3891 20.4294L40.6621 21.2227ZM33.0195 32.003L34.1346 33.0063L34.1346 33.0063L33.0195 32.003ZM32.8125 32.2256L31.708 31.2107L30.5831 32.4348L31.9161 33.4283L32.8125 32.2256ZM34.458 33.4805L33.5296 34.6587L33.5296 34.6587L34.458 33.4805ZM41.5166 39.2491L42.5773 38.1884L42.5649 38.176L42.5522 38.164L41.5166 39.2491ZM41.5566 39.2891L42.6712 38.2853L42.645 38.2562L42.6173 38.2285L41.5566 39.2891ZM44.9893 43.1885L43.8255 44.1349L43.8283 44.1384L44.9893 43.1885ZM45.0068 43.21L46.2199 42.3278L46.1948 42.2932L46.1678 42.2602L45.0068 43.21ZM45.0225 43.2315L46.2523 42.3728L46.2441 42.3609L46.2356 42.3492L45.0225 43.2315ZM45.8604 44.8721L44.4623 45.4157L47.3603 44.8855L45.8604 44.8721ZM45.8477 43.209L47.3473 43.1786L47.3473 43.1786L45.8477 43.209ZM45.7969 41.2901L47.2962 41.246L47.2962 41.246L45.7969 41.2901ZM45.751 39.584L44.2513 39.6133L44.2513 39.6143L45.751 39.584ZM46.4863 38.8194L46.457 37.3197L46.4561 37.3197L46.4863 38.8194ZM47.251 39.5538L48.7507 39.5235L48.7507 39.5225L47.251 39.5538ZM47.2969 41.2462L48.7962 41.202L48.7962 41.202L47.2969 41.2462ZM47.3477 43.1788L48.8473 43.1483L48.8473 43.1483L47.3477 43.1788ZM47.2871 46.338L45.8009 46.1349L45.8008 46.136L47.2871 46.338ZM47.2383 46.6973L48.0023 47.9882L48.6269 47.6185L48.7246 46.8993L47.2383 46.6973ZM46.9248 46.8829L47.6863 48.1752L47.6888 48.1737L46.9248 46.8829ZM45.6865 47.2169L45.7762 48.7142L45.7765 48.7142L45.6865 47.2169ZM44.2354 47.1231L44.0019 48.6048L44.002 48.6048L44.2354 47.1231ZM40.6836 46.1348L41.1988 44.7261L41.1785 44.7187L41.1579 44.7118L40.6836 46.1348ZM40.6719 46.1309L40.1329 47.5307L40.1649 47.5431L40.1975 47.5539L40.6719 46.1309ZM38.4355 45.1641L37.791 46.5186L37.7919 46.519L38.4355 45.1641ZM38.0801 44.1661L36.7252 43.5224L36.7247 43.5235L38.0801 44.1661ZM39.0791 43.8096L39.7228 42.4547L39.7226 42.4547L39.0791 43.8096ZM41.2109 44.7305L40.672 46.1304L40.6841 46.135L40.6963 46.1395L41.2109 44.7305ZM44.4688 45.6417L44.2353 47.1234L44.2354 47.1234L44.4688 45.6417ZM44.5498 45.6524L44.3312 47.1364L46.8398 47.5059L45.9557 45.1294L44.5498 45.6524ZM43.8096 44.1153L45.0442 43.2634L45.0102 43.2141L44.9724 43.1678L43.8096 44.1153ZM40.46 40.3135L41.5745 39.3097L41.5362 39.2671L41.4947 39.2275L40.46 40.3135ZM33.5293 34.6583L34.4577 33.4801L34.4577 33.4801L33.5293 34.6583ZM31.7676 33.3165L32.662 32.1123L31.621 31.3391L30.7054 32.2573L31.7676 33.3165ZM27.9893 36.8419L28.9895 37.9596L28.9895 37.9596L27.9893 36.8419ZM22.6523 41.7432L21.5955 40.6788L21.5917 40.6826L22.6523 41.7432ZM22.6465 41.7491L23.6914 42.8253L23.6993 42.8176L23.7071 42.8097L22.6465 41.7491ZM19.5625 44.1924L20.3067 45.4948L20.3225 45.4858L20.3381 45.4764L19.5625 44.1924ZM19.5488 44.2003L20.26 45.521L20.2766 45.512L20.293 45.5026L19.5488 44.2003ZM19.5361 44.2071L18.825 42.8863L18.813 42.8929L19.5361 44.2071ZM18.8389 44.5616L18.1924 43.208L14.9911 44.737L18.3182 45.9683L18.8389 44.5616ZM20.0938 44.9678L19.6911 46.4128L19.6911 46.4128L20.0938 44.9678ZM23.0244 45.3907L23.1456 46.8858L23.1459 46.8858L23.0244 45.3907ZM23.834 46.0782L25.3291 45.9575L25.3291 45.9567L23.834 46.0782ZM23.1465 46.8868L23.2679 48.3819L23.2682 48.3818L23.1465 46.8868ZM19.6914 46.4122L19.2887 47.8571L19.2888 47.8571L19.6914 46.4122ZM16.3154 45.0401L17.0811 43.7502L17.0804 43.7498L16.3154 45.0401ZM15.9844 44.8438L14.49 44.9734L14.5566 45.7411L15.2194 46.1341L15.9844 44.8438ZM15.9512 44.461L14.4568 44.5904L14.4568 44.5906L15.9512 44.461ZM16.3574 42.2051L14.9376 41.7212L14.9376 41.7212L16.3574 42.2051ZM17.2783 39.7471L18.6874 40.2613L18.6932 40.2455L18.6986 40.2296L17.2783 39.7471ZM17.6973 37.7462L19.1955 37.8182L19.1955 37.818L17.6973 37.7462ZM18.4834 37.0323L18.556 35.534L18.5552 35.534L18.4834 37.0323ZM19.1963 37.8165L20.6946 37.8883L20.6946 37.887L19.1963 37.8165ZM18.6992 40.2296L20.1037 40.7562L20.112 40.7343L20.1195 40.712L18.6992 40.2296ZM18.6934 40.2452L17.2889 39.7185L17.2864 39.7251L17.2839 39.7318L18.6934 40.2452ZM17.7773 42.6885L16.3576 42.2045L16.3575 42.2046L17.7773 42.6885ZM17.5352 43.5098L16.0747 43.1678L15.385 46.1129L18.1468 44.8794L17.5352 43.5098ZM18.7959 42.9024L19.5164 44.218L19.5448 44.2025L19.5725 44.1857L18.7959 42.9024ZM21.5957 40.6778L22.6403 41.7543L22.6438 41.7508L21.5957 40.6778ZM22.2266 40.0616L21.1862 38.981L21.1784 38.9885L22.2266 40.0616ZM26.9893 35.7237L27.9895 36.8415L27.9895 36.8415L26.9893 35.7237ZM30.5439 32.419L31.6006 33.4837L32.853 32.2407L31.4246 31.2047L30.5439 32.419ZM24.1289 27.9063L24.9822 26.6727L24.9822 26.6727L24.1289 27.9063ZM16.5029 22.4776L15.5435 23.6307L15.5436 23.6308L16.5029 22.4776ZM16.4053 21.421L15.2522 20.4616L15.2517 20.4621L16.4053 21.421ZM17.4619 21.3233L18.4213 20.1702L18.4213 20.1702L17.4619 21.3233ZM24.9814 26.6729L25.8348 25.4393L25.8348 25.4393L24.9814 26.6729ZM31.5986 31.3311L30.7163 32.5442L31.792 33.3266L32.6975 32.3522L31.5986 31.3311ZM31.9053 31.0001L33.0203 32.0034L33.0203 32.0034L31.9053 31.0001ZM39.374 20.4542L40.647 21.2477L40.6755 21.2018L40.7007 21.1541L39.374 20.4542ZM39.3838 20.4356L38.0579 19.7342L38.0579 19.7343L39.3838 20.4356ZM39.4443 20.3214L38.1216 19.614L38.1216 19.614L39.4443 20.3214ZM39.667 19.9112L38.352 19.1895L38.352 19.1895L39.667 19.9112ZM40.4092 18.6094L39.1193 17.8438L39.1193 17.8438L40.4092 18.6094ZM41.3496 17.1299L40.1188 16.2726L40.1188 16.2726L41.3496 17.1299ZM42.3242 15.9717L43.2925 17.1174C42.9754 17.3853 42.5033 17.3447 42.2365 17.0292L43.3818 16.0606L44.5272 15.092C43.7256 14.1441 42.3056 14.0235 41.356 14.8261L42.3242 15.9717ZM43.3818 16.0606L42.2355 17.0281C41.9685 16.7116 42.0084 16.2392 42.3242 15.972L43.293 17.1172L44.2617 18.2625C45.2096 17.4606 45.329 16.0421 44.5281 15.0932L43.3818 16.0606ZM43.293 17.1172L42.3244 15.9719C42.0011 16.2453 41.6583 16.6864 41.3493 17.13L42.5801 17.9874L43.8109 18.8447C43.9462 18.6505 44.0597 18.5006 44.1482 18.393C44.2461 18.2741 44.282 18.2453 44.2615 18.2626L43.293 17.1172ZM42.5801 17.9874L41.3492 17.13C41.0284 17.5906 40.7003 18.1176 40.4084 18.6094L41.6982 19.3751L42.9881 20.1407C43.2613 19.6805 43.5481 19.222 43.8109 18.8447L42.5801 17.9874ZM41.6982 19.3751L40.4084 18.6094C40.1156 19.1027 39.8542 19.5692 39.6665 19.9112L40.9814 20.6329L42.2964 21.3546C42.4735 21.0319 42.7176 20.5964 42.9881 20.1407L41.6982 19.3751ZM40.9814 20.6329L39.6665 19.9112C39.5715 20.0842 39.4956 20.2261 39.4448 20.321L40.7676 21.0284L42.0903 21.7357C42.1402 21.6425 42.2098 21.5125 42.2964 21.3545L40.9814 20.6329ZM40.7676 21.0284L39.4448 20.321C39.4351 20.3392 39.4261 20.3558 39.4163 20.3738C39.4084 20.3883 39.3948 20.4132 39.3831 20.4354L40.709 21.1368L42.0349 21.8382C42.0348 21.8383 42.0359 21.8363 42.0391 21.8304C42.0423 21.8245 42.0459 21.8179 42.0512 21.8082C42.0612 21.7898 42.0749 21.7646 42.0903 21.7357L40.7676 21.0284ZM40.709 21.1368L39.383 20.4354C39.3752 20.4503 39.3688 20.4626 39.3653 20.4696C39.3644 20.4713 39.3636 20.4729 39.3632 20.4738C39.3629 20.4743 39.3627 20.4746 39.3626 20.4749C39.3625 20.475 39.3625 20.4751 39.3624 20.4752C39.3624 20.4753 39.3624 20.4753 39.3624 20.4753C39.3624 20.4753 39.3624 20.4752 39.3624 20.4752C39.3625 20.4751 39.3625 20.475 39.3626 20.4748C39.3628 20.4745 39.363 20.474 39.3634 20.4733C39.364 20.4721 39.3653 20.4697 39.3669 20.4665L40.6943 21.1651L42.0217 21.8637C42.0263 21.855 42.0302 21.8475 42.0318 21.8444C42.0327 21.8425 42.0336 21.8407 42.0342 21.8396C42.0349 21.8383 42.0352 21.8376 42.0356 21.8369C42.0369 21.8343 42.0363 21.8356 42.0349 21.8381L40.709 21.1368ZM40.6943 21.1651L39.3572 20.4854C39.3401 20.5189 39.3268 20.5483 39.3168 20.5713C39.307 20.5939 39.2999 20.612 39.2968 20.6198C39.296 20.6218 39.2953 20.6234 39.295 20.6242C39.2949 20.6246 39.2948 20.625 39.2947 20.625C39.2947 20.6252 39.2947 20.625 39.2948 20.6248C39.295 20.6244 39.2956 20.6229 39.2963 20.6209C39.2971 20.6189 39.2984 20.6158 39.2999 20.6119C39.3015 20.6081 39.3035 20.6029 39.306 20.5969C39.3086 20.5908 39.3117 20.5833 39.3155 20.5746C39.3192 20.5659 39.3239 20.5555 39.3294 20.5436C39.3348 20.5318 39.3415 20.5177 39.3493 20.5019L40.6914 21.1719L42.0335 21.8419C42.0414 21.826 42.0482 21.8117 42.0537 21.7997C42.0593 21.7876 42.064 21.777 42.0679 21.7681C42.0717 21.7592 42.075 21.7514 42.0776 21.7452C42.0802 21.7389 42.0824 21.7335 42.084 21.7294C42.0857 21.7253 42.087 21.7219 42.0879 21.7197C42.0888 21.7174 42.0894 21.7157 42.0897 21.715C42.0898 21.7148 42.0898 21.7147 42.0899 21.7146C42.0899 21.7145 42.09 21.7144 42.09 21.7144C42.09 21.7143 42.0899 21.7145 42.0898 21.7148C42.0896 21.7153 42.0891 21.7166 42.0884 21.7183C42.0858 21.725 42.0791 21.7418 42.0699 21.7631C42.0605 21.7848 42.0478 21.8127 42.0315 21.8448L40.6943 21.1651ZM40.6914 21.1719L39.6307 20.1113L39.6298 20.1123L40.6904 21.1729L41.7511 22.2336L41.7521 22.2326L40.6914 21.1719ZM40.6904 21.1729L39.3488 20.5021L39.3361 20.5275L40.6777 21.1983L42.0194 21.8691L42.0321 21.8437L40.6904 21.1729ZM40.6777 21.1983L39.4143 20.3897L39.3987 20.4141L40.6621 21.2227L41.9255 22.0313L41.9411 22.0069L40.6777 21.1983ZM40.6621 21.2227L39.3891 20.4294C36.3196 25.3547 34.0821 28.5796 31.9045 30.9997L33.0195 32.003L34.1346 33.0063C36.4983 30.3795 38.8504 26.9658 41.9351 22.0161L40.6621 21.2227ZM33.0195 32.003L31.9045 30.9996C31.8278 31.0849 31.8316 31.0762 31.708 31.2107L32.8125 32.2256L33.917 33.2406C33.9315 33.2248 34.0768 33.0705 34.1346 33.0063L33.0195 32.003ZM32.8125 32.2256L31.9161 33.4283C32.5012 33.8644 33.0429 34.2752 33.5296 34.6587L34.458 33.4805L35.3865 32.3024C34.8698 31.8953 34.3041 31.4666 33.7089 31.023L32.8125 32.2256ZM34.458 33.4805L33.5296 34.6587C36.066 36.6575 38.3183 38.2702 40.481 40.3342L41.5166 39.2491L42.5522 38.164C40.2527 35.9693 37.7906 34.197 35.3864 32.3024L34.458 33.4805ZM41.5166 39.2491L40.4559 40.3097L40.496 40.3498L41.5566 39.2891L42.6173 38.2285L42.5773 38.1884L41.5166 39.2491ZM41.5566 39.2891L40.442 40.293C41.8115 41.8135 43.0238 43.1491 43.8255 44.1349L44.9893 43.1885L46.153 42.2422C45.2904 41.1813 44.0094 39.7711 42.6712 38.2853L41.5566 39.2891ZM44.9893 43.1885L43.8283 44.1384L43.8459 44.1599L45.0068 43.21L46.1678 42.2602L46.1502 42.2387L44.9893 43.1885ZM45.0068 43.21L43.7937 44.0923L43.8094 44.1138L45.0225 43.2315L46.2356 42.3492L46.2199 42.3278L45.0068 43.21ZM45.0225 43.2315L43.7926 44.0902C44.0255 44.4238 44.2127 44.7738 44.4623 45.4157L45.8604 44.8721L47.2584 44.3285C46.9494 43.5339 46.6593 42.9556 46.2523 42.3728L45.0225 43.2315ZM45.8604 44.8721L47.3603 44.8855C47.3648 44.3818 47.3599 43.7977 47.3473 43.1786L45.8477 43.209L44.348 43.2395C44.3601 43.8383 44.3646 44.392 44.3604 44.8587L45.8604 44.8721ZM45.8477 43.209L47.3473 43.1786C47.3343 42.536 47.3146 41.8694 47.2962 41.246L45.7969 41.2901L44.2975 41.3342C44.316 41.9606 44.3353 42.6131 44.348 43.2395L45.8477 43.209ZM45.7969 41.2901L47.2962 41.246C47.2778 40.6199 47.2604 40.036 47.2507 39.5538L45.751 39.584L44.2513 39.6143C44.2613 40.1137 44.2793 40.7138 44.2975 41.3342L45.7969 41.2901ZM45.751 39.584L47.2507 39.5548C47.2588 39.9699 46.9294 40.3108 46.5166 40.3191L46.4863 38.8194L46.4561 37.3197C45.2153 37.3447 44.227 38.3704 44.2513 39.6133L45.751 39.584ZM46.4863 38.8194L46.5156 40.3191C46.1018 40.3272 45.7599 39.9988 45.7513 39.5851L47.251 39.5538L48.7507 39.5225C48.7248 38.2813 47.6983 37.2954 46.457 37.3197L46.4863 38.8194ZM47.251 39.5538L45.7513 39.584C45.7612 40.0749 45.7792 40.6677 45.7975 41.2903L47.2969 41.2462L48.7962 41.202C48.7777 40.5718 48.7602 39.9969 48.7507 39.5235L47.251 39.5538ZM47.2969 41.2462L45.7975 41.2903C45.8159 41.9153 45.8351 42.5748 45.848 43.2092L47.3477 43.1788L48.8473 43.1483C48.8342 42.4983 48.8146 41.8257 48.7962 41.202L47.2969 41.2462ZM47.3477 43.1788L45.848 43.2092C45.8742 44.5039 45.8712 45.6201 45.8009 46.1349L47.2871 46.338L48.7733 46.541C48.8821 45.7445 48.8721 44.368 48.8473 43.1483L47.3477 43.1788ZM47.2871 46.338L45.8008 46.136L45.7519 46.4954L47.2383 46.6973L48.7246 46.8993L48.7735 46.5399L47.2871 46.338ZM47.2383 46.6973L46.4742 45.4065L46.1608 45.592L46.9248 46.8829L47.6888 48.1737L48.0023 47.9882L47.2383 46.6973ZM46.9248 46.8829L46.1633 45.5906C46.0757 45.6422 45.9011 45.7013 45.5965 45.7196L45.6865 47.2169L45.7765 48.7142C46.339 48.6804 47.0371 48.5578 47.6863 48.1752L46.9248 46.8829ZM45.6865 47.2169L45.5968 45.7195C45.3 45.7373 44.9229 45.7129 44.4687 45.6414L44.2354 47.1231L44.002 48.6048C44.5839 48.6965 45.1913 48.7492 45.7762 48.7142L45.6865 47.2169ZM44.2354 47.1231L44.4688 45.6414C43.5651 45.499 42.4421 45.1808 41.1988 44.7261L40.6836 46.1348L40.1684 47.5436C41.5099 48.0342 42.8339 48.4208 44.0019 48.6048L44.2354 47.1231ZM40.6836 46.1348L41.1579 44.7118L41.1462 44.7079L40.6719 46.1309L40.1975 47.5539L40.2093 47.5579L40.6836 46.1348ZM40.6719 46.1309L41.2109 44.7311C40.1903 44.3381 39.65 44.0804 39.0792 43.8092L38.4355 45.1641L37.7919 46.519C38.3895 46.8029 39.0084 47.0978 40.1329 47.5307L40.6719 46.1309ZM38.4355 45.1641L39.0801 43.8097C39.4531 43.9872 39.6131 44.4341 39.4355 44.8087L38.0801 44.1661L36.7247 43.5235C36.1926 44.6458 36.6707 45.9855 37.791 46.5186L38.4355 45.1641ZM38.0801 44.1661L39.435 44.8097C39.2585 45.1812 38.8124 45.3435 38.4357 45.1646L39.0791 43.8096L39.7226 42.4547C38.5976 41.9204 37.2571 42.4027 36.7252 43.5224L38.0801 44.1661ZM39.0791 43.8096L38.4355 45.1645C39.0197 45.4421 39.5992 45.7173 40.672 46.1304L41.2109 44.7305L41.7499 43.3307C40.7794 42.957 40.2775 42.7183 39.7228 42.4547L39.0791 43.8096ZM41.2109 44.7305L40.6963 46.1395C41.9846 46.6101 43.203 46.9608 44.2353 47.1234L44.4688 45.6417L44.7022 44.1599C43.9338 44.0389 42.9161 43.7565 41.7256 43.3216L41.2109 44.7305ZM44.4688 45.6417L44.2354 47.1234C44.2771 47.13 44.3137 47.1344 44.3269 47.136C44.3364 47.1372 44.338 47.1374 44.3402 47.1376C44.3413 47.1378 44.3376 47.1373 44.3312 47.1364L44.5498 45.6524L44.7684 44.1684C44.7487 44.1655 44.7316 44.1633 44.7193 44.1617C44.708 44.1603 44.6961 44.1588 44.6921 44.1583C44.686 44.1576 44.6854 44.1575 44.6864 44.1576C44.6879 44.1578 44.6936 44.1586 44.7021 44.1599L44.4688 45.6417ZM44.5498 45.6524L45.9557 45.1294C45.6405 44.2822 45.3918 43.7671 45.0442 43.2634L43.8096 44.1153L42.575 44.9672C42.7269 45.1874 42.8737 45.4489 43.1439 46.1754L44.5498 45.6524ZM43.8096 44.1153L44.9724 43.1678C44.1444 42.1516 42.9127 40.7953 41.5745 39.3097L40.46 40.3135L39.3454 41.3174C40.7146 42.8376 41.8787 44.1202 42.6467 45.0628L43.8096 44.1153ZM40.46 40.3135L41.4947 39.2275C39.2705 37.1084 36.9194 35.4201 34.4577 33.4801L33.5293 34.6583L32.6009 35.8364C35.1967 37.8821 37.3369 39.4098 39.4253 41.3995L40.46 40.3135ZM33.5293 34.6583L34.4577 33.4801C33.9098 33.0483 33.3044 32.5894 32.662 32.1123L31.7676 33.3165L30.8732 34.5206C31.5024 34.988 32.0832 35.4285 32.6009 35.8364L33.5293 34.6583ZM31.7676 33.3165L30.7054 32.2573C29.5863 33.3796 28.3097 34.5421 26.989 35.7241L27.9893 36.8419L28.9895 37.9596C30.3144 36.774 31.6458 35.5629 32.8298 34.3756L31.7676 33.3165ZM27.9893 36.8419L26.989 35.7241C25.1651 37.3562 23.2468 39.0392 21.5955 40.6788L22.6523 41.7432L23.7092 42.8077C25.2897 41.2385 27.1278 39.6257 28.9895 37.9596L27.9893 36.8419ZM22.6523 41.7432L21.5917 40.6826L21.5858 40.6884L22.6465 41.7491L23.7071 42.8097L23.713 42.8039L22.6523 41.7432ZM22.6465 41.7491L21.6016 40.6729C20.5608 41.6834 19.692 42.3618 18.7869 42.9085L19.5625 44.1924L20.3381 45.4764C21.4778 44.7879 22.5247 43.958 23.6914 42.8253L22.6465 41.7491ZM19.5625 44.1924L18.8183 42.8901L18.8046 42.8979L19.5488 44.2003L20.293 45.5026L20.3067 45.4948L19.5625 44.1924ZM19.5488 44.2003L18.8377 42.8795L18.825 42.8864L19.5361 44.2071L20.2473 45.5278L20.26 45.521L19.5488 44.2003ZM19.5361 44.2071L18.813 42.8929C18.6165 43.001 18.4109 43.1037 18.1924 43.208L18.8389 44.5616L19.4853 45.9151C19.7312 45.7977 19.9933 45.6677 20.2593 45.5213L19.5361 44.2071ZM18.8389 44.5616L18.3182 45.9683C18.7598 46.1318 19.2233 46.2824 19.6911 46.4128L20.0938 44.9678L20.4964 43.5229C20.1093 43.415 19.7246 43.29 19.3595 43.1548L18.8389 44.5616ZM20.0938 44.9678L19.6911 46.4128C20.9016 46.7501 22.1809 46.964 23.1456 46.8858L23.0244 45.3907L22.9032 43.8956C22.4616 43.9314 21.5836 43.8259 20.4964 43.5229L20.0938 44.9678ZM23.0244 45.3907L23.1459 46.8858C22.7342 46.9192 22.3725 46.6136 22.3389 46.1997L23.834 46.0782L25.3291 45.9567C25.2283 44.717 24.1404 43.7951 22.9029 43.8956L23.0244 45.3907ZM23.834 46.0782L22.3388 46.1988C22.3055 45.7858 22.6125 45.4253 23.0248 45.3917L23.1465 46.8868L23.2682 48.3818C24.5058 48.2811 25.4291 47.1959 25.3291 45.9575L23.834 46.0782ZM23.1465 46.8868L23.0251 45.3917C22.3223 45.4488 21.2437 45.2875 20.094 44.9672L19.6914 46.4122L19.2888 47.8571C20.5589 48.211 22.0402 48.4815 23.2679 48.3819L23.1465 46.8868ZM19.6914 46.4122L20.0941 44.9672C18.9573 44.6504 17.8433 44.2026 17.0811 43.7502L16.3154 45.0401L15.5498 46.33C16.6043 46.9559 17.9822 47.493 19.2887 47.8571L19.6914 46.4122ZM16.3154 45.0401L17.0804 43.7498L16.7494 43.5536L15.9844 44.8438L15.2194 46.1341L15.5504 46.3304L16.3154 45.0401ZM15.9844 44.8438L17.4788 44.7142L17.4456 44.3314L15.9512 44.461L14.4568 44.5906L14.49 44.9734L15.9844 44.8438ZM15.9512 44.461L17.4456 44.3316C17.4132 43.9571 17.5262 43.4256 17.7772 42.6891L16.3574 42.2051L14.9376 41.7212C14.6758 42.4893 14.3658 43.5402 14.4568 44.5904L15.9512 44.461ZM16.3574 42.2051L17.7772 42.6891C18.0296 41.9487 18.3489 41.1891 18.6874 40.2613L17.2783 39.7471L15.8692 39.2329C15.6109 39.9407 15.1862 40.9921 14.9376 41.7212L16.3574 42.2051ZM17.2783 39.7471L18.6986 40.2296C18.9794 39.4031 19.1504 38.7578 19.1955 37.8182L17.6973 37.7462L16.199 37.6741C16.1721 38.2343 16.0879 38.588 15.858 39.2646L17.2783 39.7471ZM17.6973 37.7462L19.1955 37.818C19.1757 38.2327 18.8244 38.5503 18.4116 38.5306L18.4834 37.0323L18.5552 35.534C17.315 35.4746 16.2585 36.4322 16.199 37.6743L17.6973 37.7462ZM18.4834 37.0323L18.4108 38.5305C17.998 38.5105 17.6785 38.1599 17.698 37.7459L19.1963 37.8165L20.6946 37.887C20.7531 36.6464 19.7954 35.5941 18.556 35.534L18.4834 37.0323ZM19.1963 37.8165L17.698 37.7446C17.662 38.4956 17.5341 38.9961 17.2789 39.7471L18.6992 40.2296L20.1195 40.712C20.4256 39.8109 20.6404 39.0188 20.6946 37.8883L19.1963 37.8165ZM18.6992 40.2296L17.2947 39.7029L17.2889 39.7185L18.6934 40.2452L20.0979 40.7719L20.1037 40.7562L18.6992 40.2296ZM18.6934 40.2452L17.2839 39.7318C16.9858 40.5504 16.6091 41.4668 16.3576 42.2045L17.7773 42.6885L19.1971 43.1725C19.4579 42.4076 19.714 41.8258 20.1028 40.7586L18.6934 40.2452ZM17.7773 42.6885L16.3575 42.2046C16.2419 42.5438 16.1453 42.8662 16.0747 43.1678L17.5352 43.5098L18.9956 43.8519C19.0373 43.6742 19.1024 43.4504 19.1971 43.1725L17.7773 42.6885ZM17.5352 43.5098L18.1468 44.8794C18.5931 44.6801 19.0565 44.4699 19.5164 44.218L18.7959 42.9024L18.0753 41.5868C17.7332 41.7742 17.3698 41.9409 16.9235 42.1402L17.5352 43.5098ZM18.7959 42.9024L19.5725 44.1857C20.5894 43.5703 21.5431 42.819 22.6403 41.7543L21.5957 40.6778L20.5511 39.6013C19.5792 40.5444 18.8027 41.145 18.0193 41.6191L18.7959 42.9024ZM21.5957 40.6778L22.6438 41.7508L23.2747 41.1346L22.2266 40.0616L21.1784 38.9885L20.5476 39.6048L21.5957 40.6778ZM22.2266 40.0616L23.2669 41.1422C24.7399 39.724 26.3789 38.2829 27.9895 36.8415L26.9893 35.7237L25.989 34.6059C24.4085 36.0202 22.7102 37.5137 21.1862 38.981L22.2266 40.0616ZM26.9893 35.7237L27.9895 36.8415C29.2561 35.7081 30.4973 34.5786 31.6006 33.4837L30.5439 32.419L29.4873 31.3543C28.4427 32.3911 27.2504 33.477 25.989 34.6059L26.9893 35.7237ZM30.5439 32.419L31.4246 31.2047C29.4204 29.7511 27.1365 28.1629 24.9822 26.6727L24.1289 27.9063L23.2756 29.1399C25.4301 30.6303 27.6891 32.2014 29.6633 33.6333L30.5439 32.419ZM24.1289 27.9063L24.9822 26.6727C21.614 24.3428 18.6216 22.2889 17.4622 21.3244L16.5029 22.4776L15.5436 23.6308C16.8371 24.7067 20.0001 26.8742 23.2756 29.1399L24.1289 27.9063ZM16.5029 22.4776L17.4623 21.3245C17.7792 21.5882 17.8247 22.0599 17.5588 22.3798L16.4053 21.421L15.2517 20.4621C14.4565 21.4188 14.5901 22.8373 15.5435 23.6307L16.5029 22.4776ZM16.4053 21.421L17.5583 22.3804C17.2952 22.6966 16.8231 22.7431 16.5026 22.4764L17.4619 21.3233L18.4213 20.1702C17.4639 19.3737 16.0452 19.5085 15.2522 20.4616L16.4053 21.421ZM17.4619 21.3233L16.5025 22.4764C17.7283 23.4963 20.8053 25.6081 24.1281 27.9065L24.9814 26.6729L25.8348 25.4393C22.4194 23.0768 19.513 21.0786 18.4213 20.1702L17.4619 21.3233ZM24.9814 26.6729L24.1281 27.9065C26.337 29.4345 28.6792 31.0625 30.7163 32.5442L31.5986 31.3311L32.4809 30.118C30.4116 28.6129 28.0424 26.9663 25.8348 25.4393L24.9814 26.6729ZM31.5986 31.3311L32.6975 32.3522C32.7857 32.2572 32.9105 32.1255 33.0203 32.0034L31.9053 31.0001L30.7902 29.9967C30.7014 30.0954 30.6187 30.1821 30.4998 30.3101L31.5986 31.3311ZM31.9053 31.0001L33.0203 32.0034C35.2872 29.4841 37.5777 26.1714 40.647 21.2477L39.374 20.4542L38.1011 19.6607C35.0469 24.5602 32.8711 27.6842 30.7902 29.9967L31.9053 31.0001ZM39.374 20.4542L40.7007 21.1541C40.7029 21.15 40.7053 21.1453 40.7065 21.1431C40.708 21.1402 40.709 21.1384 40.7097 21.137L39.3838 20.4356L38.0579 19.7343C38.055 19.7396 38.0524 19.7445 38.0507 19.7479C38.0485 19.752 38.0479 19.7532 38.0473 19.7542L39.374 20.4542ZM39.3838 20.4356L40.7097 21.1371C40.7266 21.1051 40.743 21.0738 40.7671 21.0287L39.4443 20.3214L38.1216 19.614C38.0933 19.6668 38.069 19.7131 38.0579 19.7342L39.3838 20.4356ZM39.4443 20.3214L40.7671 21.0287C40.8166 20.9361 40.8901 20.8002 40.982 20.6329L39.667 19.9112L38.352 19.1895C38.256 19.3644 38.1772 19.51 38.1216 19.614L39.4443 20.3214ZM39.667 19.9112L40.982 20.6329C41.1642 20.3009 41.4173 19.8498 41.6991 19.3751L40.4092 18.6094L39.1193 17.8438C38.8157 18.3553 38.5454 18.8371 38.352 19.1895L39.667 19.9112ZM40.4092 18.6094L41.6991 19.3751C41.9819 18.8985 42.289 18.4057 42.5805 17.9873L41.3496 17.1299L40.1188 16.2726C39.7687 16.7752 39.42 17.3371 39.1193 17.8438L40.4092 18.6094ZM41.3496 17.1299L42.5804 17.9873C42.8831 17.5529 43.1311 17.2538 43.2928 17.1171L42.3242 15.9717L41.3556 14.8264C40.8707 15.2365 40.4338 15.8203 40.1188 16.2726L41.3496 17.1299Z" fill="white" mask="url(#path-1-outside-1_34_86)"/>
</svg>
