<svg width="64" height="64" viewBox="0 0 64 64" fill="none" xmlns="http://www.w3.org/2000/svg">
<mask id="path-1-outside-1_34_91" maskUnits="userSpaceOnUse" x="17.5669" y="10.6304" width="30" height="42" fill="black">
<rect fill="white" x="17.5669" y="10.6304" width="30" height="42"/>
<path d="M36.8286 13.2281C37.0505 12.8784 37.515 12.7749 37.8647 12.9966C38.2141 13.2186 38.3169 13.6822 38.0952 14.0318C37.9821 14.2103 37.8355 14.5695 37.6763 15.0757C37.5231 15.5627 37.3767 16.125 37.2495 16.6636C37.1227 17.2005 37.0165 17.7061 36.9419 18.0777C36.9047 18.2627 36.8758 18.4143 36.856 18.5191C36.846 18.5715 36.8376 18.6128 36.8325 18.6402C36.83 18.6539 36.8279 18.6646 36.8267 18.6714C36.8261 18.6747 36.8269 18.6777 36.8267 18.6793L36.8257 18.6802L36.8208 18.7086L36.813 18.7359C35.5483 23.6155 34.4804 27.1601 33.2993 30.0279C34.1469 31.2383 34.9226 32.3797 35.562 33.3785C37.2579 36.0273 38.9303 38.3991 40.3403 41.1422L40.3521 41.1666L40.3638 41.1929C41.1502 43.0568 41.8788 44.762 42.3296 46.0015L42.3394 46.0269L42.3462 46.0533C42.4983 46.591 42.5726 47.1074 42.6011 47.8775C42.7642 47.4205 42.9464 46.8816 43.1343 46.3023C43.33 45.6987 43.5279 45.0695 43.7153 44.4732C43.9023 43.8784 44.0794 43.3132 44.231 42.8463C44.3589 42.4524 44.7824 42.236 45.1763 42.3638C45.5699 42.4918 45.7853 42.9154 45.6577 43.3091C45.5089 43.7678 45.3339 44.3246 45.146 44.9224C44.9587 45.5184 44.7592 46.1541 44.561 46.7652C44.1731 47.9613 43.7678 49.1399 43.4683 49.73L43.3042 50.0543L42.9478 50.1255C42.5283 50.21 42.0858 50.1533 41.6675 50.0357C41.2424 49.9162 40.7902 49.7191 40.3276 49.4722C39.4025 48.9786 38.3625 48.2437 37.2964 47.3736L37.2866 47.3668C36.4086 46.625 35.9517 46.174 35.4907 45.7203C35.1958 45.4298 35.1918 44.9559 35.4819 44.6607C35.7724 44.3656 36.2472 44.3607 36.5425 44.6509C36.9918 45.0932 37.4182 45.5138 38.2544 46.2203C39.2769 47.0542 40.2296 47.7199 41.0337 48.149C41.058 48.162 41.083 48.1736 41.1069 48.1861C41.0883 47.3467 41.029 46.9146 40.9116 46.4908C40.4786 45.3039 39.7791 43.664 38.9927 41.8004C37.6289 39.1529 36.0342 36.8985 34.2983 34.1871C33.8035 33.4141 33.223 32.5527 32.5894 31.6363C31.7301 33.4548 30.5772 35.4401 29.3921 37.4302C28.1268 39.555 26.8273 41.6895 25.7651 43.7037L25.7603 43.7105C25.0276 45.0631 24.3392 46.0694 23.5483 46.9644L23.5376 46.9761L23.5269 46.9859C23.3442 47.1766 23.1568 47.3584 22.9683 47.5338C23.3978 47.5556 23.8441 47.5596 24.2876 47.5455C25.4796 47.5074 26.5566 47.3375 27.2104 47.0728C27.5944 46.9173 28.0325 47.103 28.188 47.4869C28.3432 47.8707 28.1577 48.308 27.7739 48.4634C26.8764 48.8269 25.5907 49.0044 24.3354 49.0445C23.0679 49.085 21.7316 48.9875 20.7036 48.7447L20.3286 48.6558L20.1821 48.3004C19.9104 47.6392 19.8763 46.8213 19.896 46.0269C19.9152 45.2509 19.9994 44.2754 20.0396 43.4058C20.0584 42.6122 20.0313 42.0972 19.8413 41.3707C19.7365 40.9699 19.9767 40.5595 20.3774 40.4547C20.778 40.3501 21.1876 40.5903 21.2925 40.9908C21.5306 41.9017 21.5603 42.569 21.5396 43.441L21.5386 43.4498V43.4576C21.4928 44.4603 21.4147 45.2703 21.395 46.064C21.3869 46.3899 21.3916 46.6741 21.4097 46.9195C21.7759 46.5959 22.1142 46.2929 22.4312 45.9634C23.1273 45.1744 23.751 44.2709 24.438 43.0035L24.855 42.2261C25.8535 40.4013 27.0075 38.5023 28.103 36.6627C29.3635 34.546 30.5475 32.5081 31.3813 30.6851C31.4526 30.5293 31.522 30.3708 31.5923 30.2105C30.3385 28.4368 28.954 26.5362 27.6294 24.7261C25.2441 21.4666 23.0288 18.4639 22.2046 17.0982C21.9906 16.7436 22.1049 16.2829 22.4595 16.0689C22.8141 15.8551 23.2748 15.9682 23.4888 16.3228C24.2677 17.6136 26.4213 20.5347 28.8403 23.8404C29.971 25.3855 31.1532 27.0087 32.2651 28.5679C33.2686 25.96 34.2266 22.7351 35.354 18.3873C35.355 18.3816 35.3566 18.3751 35.3579 18.3677C35.3634 18.3383 35.372 18.2954 35.3823 18.2408C35.4031 18.1313 35.4328 17.9741 35.4712 17.7828C35.5481 17.4001 35.6587 16.8761 35.7905 16.3179C35.9219 15.7617 36.0763 15.1608 36.2446 14.6255C36.4068 14.11 36.6018 13.5858 36.8286 13.2281Z"/>
</mask>
<path d="M36.8286 13.2281C37.0505 12.8784 37.515 12.7749 37.8647 12.9966C38.2141 13.2186 38.3169 13.6822 38.0952 14.0318C37.9821 14.2103 37.8355 14.5695 37.6763 15.0757C37.5231 15.5627 37.3767 16.125 37.2495 16.6636C37.1227 17.2005 37.0165 17.7061 36.9419 18.0777C36.9047 18.2627 36.8758 18.4143 36.856 18.5191C36.846 18.5715 36.8376 18.6128 36.8325 18.6402C36.83 18.6539 36.8279 18.6646 36.8267 18.6714C36.8261 18.6747 36.8269 18.6777 36.8267 18.6793L36.8257 18.6802L36.8208 18.7086L36.813 18.7359C35.5483 23.6155 34.4804 27.1601 33.2993 30.0279C34.1469 31.2383 34.9226 32.3797 35.562 33.3785C37.2579 36.0273 38.9303 38.3991 40.3403 41.1422L40.3521 41.1666L40.3638 41.1929C41.1502 43.0568 41.8788 44.762 42.3296 46.0015L42.3394 46.0269L42.3462 46.0533C42.4983 46.591 42.5726 47.1074 42.6011 47.8775C42.7642 47.4205 42.9464 46.8816 43.1343 46.3023C43.33 45.6987 43.5279 45.0695 43.7153 44.4732C43.9023 43.8784 44.0794 43.3132 44.231 42.8463C44.3589 42.4524 44.7824 42.236 45.1763 42.3638C45.5699 42.4918 45.7853 42.9154 45.6577 43.3091C45.5089 43.7678 45.3339 44.3246 45.146 44.9224C44.9587 45.5184 44.7592 46.1541 44.561 46.7652C44.1731 47.9613 43.7678 49.1399 43.4683 49.73L43.3042 50.0543L42.9478 50.1255C42.5283 50.21 42.0858 50.1533 41.6675 50.0357C41.2424 49.9162 40.7902 49.7191 40.3276 49.4722C39.4025 48.9786 38.3625 48.2437 37.2964 47.3736L37.2866 47.3668C36.4086 46.625 35.9517 46.174 35.4907 45.7203C35.1958 45.4298 35.1918 44.9559 35.4819 44.6607C35.7724 44.3656 36.2472 44.3607 36.5425 44.6509C36.9918 45.0932 37.4182 45.5138 38.2544 46.2203C39.2769 47.0542 40.2296 47.7199 41.0337 48.149C41.058 48.162 41.083 48.1736 41.1069 48.1861C41.0883 47.3467 41.029 46.9146 40.9116 46.4908C40.4786 45.3039 39.7791 43.664 38.9927 41.8004C37.6289 39.1529 36.0342 36.8985 34.2983 34.1871C33.8035 33.4141 33.223 32.5527 32.5894 31.6363C31.7301 33.4548 30.5772 35.4401 29.3921 37.4302C28.1268 39.555 26.8273 41.6895 25.7651 43.7037L25.7603 43.7105C25.0276 45.0631 24.3392 46.0694 23.5483 46.9644L23.5376 46.9761L23.5269 46.9859C23.3442 47.1766 23.1568 47.3584 22.9683 47.5338C23.3978 47.5556 23.8441 47.5596 24.2876 47.5455C25.4796 47.5074 26.5566 47.3375 27.2104 47.0728C27.5944 46.9173 28.0325 47.103 28.188 47.4869C28.3432 47.8707 28.1577 48.308 27.7739 48.4634C26.8764 48.8269 25.5907 49.0044 24.3354 49.0445C23.0679 49.085 21.7316 48.9875 20.7036 48.7447L20.3286 48.6558L20.1821 48.3004C19.9104 47.6392 19.8763 46.8213 19.896 46.0269C19.9152 45.2509 19.9994 44.2754 20.0396 43.4058C20.0584 42.6122 20.0313 42.0972 19.8413 41.3707C19.7365 40.9699 19.9767 40.5595 20.3774 40.4547C20.778 40.3501 21.1876 40.5903 21.2925 40.9908C21.5306 41.9017 21.5603 42.569 21.5396 43.441L21.5386 43.4498V43.4576C21.4928 44.4603 21.4147 45.2703 21.395 46.064C21.3869 46.3899 21.3916 46.6741 21.4097 46.9195C21.7759 46.5959 22.1142 46.2929 22.4312 45.9634C23.1273 45.1744 23.751 44.2709 24.438 43.0035L24.855 42.2261C25.8535 40.4013 27.0075 38.5023 28.103 36.6627C29.3635 34.546 30.5475 32.5081 31.3813 30.6851C31.4526 30.5293 31.522 30.3708 31.5923 30.2105C30.3385 28.4368 28.954 26.5362 27.6294 24.7261C25.2441 21.4666 23.0288 18.4639 22.2046 17.0982C21.9906 16.7436 22.1049 16.2829 22.4595 16.0689C22.8141 15.8551 23.2748 15.9682 23.4888 16.3228C24.2677 17.6136 26.4213 20.5347 28.8403 23.8404C29.971 25.3855 31.1532 27.0087 32.2651 28.5679C33.2686 25.96 34.2266 22.7351 35.354 18.3873C35.355 18.3816 35.3566 18.3751 35.3579 18.3677C35.3634 18.3383 35.372 18.2954 35.3823 18.2408C35.4031 18.1313 35.4328 17.9741 35.4712 17.7828C35.5481 17.4001 35.6587 16.8761 35.7905 16.3179C35.9219 15.7617 36.0763 15.1608 36.2446 14.6255C36.4068 14.11 36.6018 13.5858 36.8286 13.2281Z" fill="black"/>
<path d="M36.8286 13.2281L35.5621 12.4245L35.5618 12.4248L36.8286 13.2281ZM37.8647 12.9966L38.669 11.7305L38.668 11.7299L37.8647 12.9966ZM38.0952 14.0318L36.8284 13.2286L36.8282 13.2289L38.0952 14.0318ZM37.6763 15.0757L36.2454 14.6257L36.2454 14.6258L37.6763 15.0757ZM37.2495 16.6636L35.7897 16.3188L35.7897 16.3188L37.2495 16.6636ZM36.9419 18.0777L35.4713 17.7823L35.4713 17.7823L36.9419 18.0777ZM36.856 18.5191L35.3822 18.2397L35.3822 18.2397L36.856 18.5191ZM36.8325 18.6402L35.3575 18.3675L35.3575 18.3675L36.8325 18.6402ZM36.8267 18.6714L35.3511 18.4018L35.3495 18.4104L35.3481 18.419L36.8267 18.6714ZM36.8267 18.6793L37.8873 19.7399L38.2187 19.4085L38.3025 18.9475L36.8267 18.6793ZM36.8257 18.6802L35.765 17.6196L35.4284 17.9562L35.3475 18.4254L36.8257 18.6802ZM36.8208 18.7086L38.2631 19.1206L38.2853 19.043L38.299 18.9634L36.8208 18.7086ZM36.813 18.7359L35.3707 18.3238L35.3656 18.3416L35.361 18.3596L36.813 18.7359ZM33.2993 30.0279L31.9123 29.4567L31.5997 30.2158L32.0706 30.8883L33.2993 30.0279ZM35.562 33.3785L34.2987 34.1873L34.2987 34.1873L35.562 33.3785ZM40.3403 41.1422L41.6926 40.4931L41.6838 40.4746L41.6744 40.4564L40.3403 41.1422ZM40.3521 41.1666L41.7228 40.5574L41.7138 40.5373L41.7043 40.5175L40.3521 41.1666ZM40.3638 41.1929L41.7458 40.6098L41.7403 40.5967L41.7345 40.5837L40.3638 41.1929ZM42.3296 46.0015L40.9199 46.5142L40.9246 46.5271L40.9296 46.54L42.3296 46.0015ZM42.3394 46.0269L43.7914 45.6505L43.77 45.568L43.7394 45.4884L42.3394 46.0269ZM42.3462 46.0533L40.8942 46.4297L40.8983 46.4457L40.9028 46.4615L42.3462 46.0533ZM42.6011 47.8775L41.1021 47.9329L44.0138 48.3817L42.6011 47.8775ZM43.1343 46.3023L44.5611 46.7651L44.5611 46.7651L43.1343 46.3023ZM43.7153 44.4732L45.1463 44.9229L45.1463 44.9229L43.7153 44.4732ZM44.231 42.8463L42.8044 42.3828L42.8042 42.3833L44.231 42.8463ZM45.1763 42.3638L45.6401 40.9374L45.6392 40.9371L45.1763 42.3638ZM45.6577 43.3091L47.0845 43.7721L47.0847 43.7715L45.6577 43.3091ZM45.146 44.9224L46.577 45.3721L46.577 45.3721L45.146 44.9224ZM44.561 46.7652L45.9879 47.228L45.9879 47.228L44.561 46.7652ZM43.4683 49.73L42.1307 49.0512L42.1299 49.0528L43.4683 49.73ZM43.3042 50.0543L43.5984 51.5251L44.3134 51.3821L44.6426 50.7315L43.3042 50.0543ZM42.9478 50.1255L42.6536 48.6547L42.6516 48.6551L42.9478 50.1255ZM41.6675 50.0357L41.2614 51.4797L41.2616 51.4798L41.6675 50.0357ZM40.3276 49.4722L39.6215 50.7956L39.6215 50.7956L40.3276 49.4722ZM37.2964 47.3736L38.2449 46.2115L38.202 46.1765L38.1566 46.1447L37.2964 47.3736ZM37.2866 47.3668L36.3186 48.5126L36.3706 48.5566L36.4264 48.5956L37.2866 47.3668ZM35.4907 45.7203L34.4381 46.7889L34.4386 46.7894L35.4907 45.7203ZM35.4819 44.6607L34.4128 43.6085L34.4123 43.6091L35.4819 44.6607ZM36.5425 44.6509L37.5946 43.5818L37.594 43.5812L36.5425 44.6509ZM38.2544 46.2203L37.2864 47.3661L37.2963 47.3745L37.3064 47.3827L38.2544 46.2203ZM41.0337 48.149L40.3275 49.4724L40.3276 49.4724L41.0337 48.149ZM41.1069 48.1861L40.4137 49.5163L42.6629 50.6886L42.6066 48.1528L41.1069 48.1861ZM40.9116 46.4908L42.3572 46.0906L42.3413 46.0329L42.3208 45.9767L40.9116 46.4908ZM38.9927 41.8004L40.3747 41.2172L40.3524 41.1644L40.3261 41.1134L38.9927 41.8004ZM34.2983 34.1871L35.5616 33.3783L35.5616 33.3783L34.2983 34.1871ZM32.5894 31.6363L33.8231 30.7832L32.3441 28.6442L31.2331 30.9955L32.5894 31.6363ZM29.3921 37.4302L30.6809 38.1977L30.6809 38.1977L29.3921 37.4302ZM25.7651 43.7037L26.9857 44.5755L27.0447 44.493L27.0919 44.4034L25.7651 43.7037ZM25.7603 43.7105L24.5397 42.8387L24.4856 42.9143L24.4413 42.9961L25.7603 43.7105ZM23.5483 46.9644L24.6541 47.978L24.6633 47.9679L24.6724 47.9577L23.5483 46.9644ZM23.5376 46.9761L24.5466 48.086L24.5972 48.0401L24.6433 47.9897L23.5376 46.9761ZM23.5269 46.9859L22.5178 45.876L22.4796 45.9108L22.4438 45.9482L23.5269 46.9859ZM22.9683 47.5338L21.9466 46.4355L19.349 48.8518L22.8922 49.0318L22.9683 47.5338ZM24.2876 47.5455L24.3355 49.0447L24.3355 49.0447L24.2876 47.5455ZM27.2104 47.0728L27.7732 48.4632L27.7735 48.4631L27.2104 47.0728ZM28.188 47.4869L29.5786 46.9246L29.5783 46.9239L28.188 47.4869ZM27.7739 48.4634L28.3369 49.8538L28.337 49.8538L27.7739 48.4634ZM24.3354 49.0445L24.3833 50.5437L24.3834 50.5437L24.3354 49.0445ZM20.7036 48.7447L20.3577 50.2043L20.3588 50.2045L20.7036 48.7447ZM20.3286 48.6558L18.9418 49.2273L19.2347 49.9381L19.9827 50.1154L20.3286 48.6558ZM20.1821 48.3004L18.7947 48.8705L18.7953 48.8719L20.1821 48.3004ZM19.896 46.0269L18.3965 45.9897L18.3965 45.9898L19.896 46.0269ZM20.0396 43.4058L21.538 43.4751L21.5387 43.4583L21.5391 43.4415L20.0396 43.4058ZM19.8413 41.3707L21.2925 40.9912L21.2925 40.9911L19.8413 41.3707ZM20.3774 40.4547L19.9987 39.0033L19.9979 39.0035L20.3774 40.4547ZM21.2925 40.9908L22.7437 40.6113L22.7435 40.6108L21.2925 40.9908ZM21.5396 43.441L23.0304 43.6066L23.0376 43.5418L23.0391 43.4766L21.5396 43.441ZM21.5386 43.4498L20.0477 43.2841L20.0386 43.3667V43.4498H21.5386ZM21.5386 43.4576L23.037 43.526L23.0386 43.4918V43.4576H21.5386ZM21.395 46.064L19.8955 46.0268L19.8955 46.0269L21.395 46.064ZM21.4097 46.9195L19.9137 47.0299L20.1363 50.0465L22.4029 48.0435L21.4097 46.9195ZM22.4312 45.9634L23.5121 47.0034L23.5346 46.98L23.556 46.9558L22.4312 45.9634ZM24.438 43.0035L25.7567 43.7183L25.7598 43.7125L24.438 43.0035ZM24.855 42.2261L23.539 41.5061L23.5332 41.5171L24.855 42.2261ZM28.103 36.6627L29.3918 37.4301L29.3918 37.4301L28.103 36.6627ZM31.3813 30.6851L32.7454 31.3091L32.7454 31.3091L31.3813 30.6851ZM31.5923 30.2105L32.966 30.813L33.3064 30.0368L32.8172 29.3447L31.5923 30.2105ZM27.6294 24.7261L28.8399 23.8403L28.8399 23.8403L27.6294 24.7261ZM22.2046 17.0982L20.9203 17.8731L20.9203 17.8732L22.2046 17.0982ZM22.4595 16.0689L21.6849 14.7844L21.6843 14.7847L22.4595 16.0689ZM23.4888 16.3228L22.2045 17.0978L22.2045 17.0978L23.4888 16.3228ZM28.8403 23.8404L30.0508 22.9546L30.0508 22.9546L28.8403 23.8404ZM32.2651 28.5679L31.0439 29.4388L32.6634 31.7099L33.6651 29.1066L32.2651 28.5679ZM35.354 18.3873L36.806 18.7638L36.8197 18.711L36.8295 18.6573L35.354 18.3873ZM35.3579 18.3677L33.8829 18.095L33.8828 18.0957L35.3579 18.3677ZM35.3823 18.2408L36.8561 18.5202L36.8561 18.5202L35.3823 18.2408ZM35.4712 17.7828L34.0006 17.4874L34.0006 17.4874L35.4712 17.7828ZM35.7905 16.3179L34.3307 15.9731L34.3307 15.9731L35.7905 16.3179ZM36.2446 14.6255L34.8137 14.1755L34.8137 14.1756L36.2446 14.6255ZM36.8286 13.2281L38.0952 14.0317C37.8726 14.3826 37.41 14.4845 37.0614 14.2634L37.8647 12.9966L38.668 11.7299C37.62 11.0652 36.2284 11.3742 35.5621 12.4245L36.8286 13.2281ZM37.8647 12.9966L37.0605 14.2628C36.7083 14.0391 36.6085 13.5755 36.8284 13.2286L38.0952 14.0318L39.3621 14.835C40.0253 13.7889 39.72 12.3981 38.669 11.7305L37.8647 12.9966ZM38.0952 14.0318L36.8282 13.2289C36.6007 13.588 36.4063 14.114 36.2454 14.6257L37.6763 15.0757L39.1072 15.5258C39.1785 15.299 39.242 15.1213 39.2943 14.9916C39.3522 14.8479 39.3774 14.8107 39.3623 14.8347L38.0952 14.0318ZM37.6763 15.0757L36.2454 14.6258C36.0771 15.1607 35.9213 15.7617 35.7897 16.3188L37.2495 16.6636L38.7093 17.0085C38.8322 16.4884 38.9692 15.9647 39.1072 15.5257L37.6763 15.0757ZM37.2495 16.6636L35.7897 16.3188C35.6578 16.877 35.548 17.4001 35.4713 17.7823L36.9419 18.0777L38.4125 18.3731C38.485 18.0121 38.5876 17.5239 38.7093 17.0085L37.2495 16.6636ZM36.9419 18.0777L35.4713 17.7823C35.4325 17.9752 35.4025 18.1329 35.3822 18.2397L36.856 18.5191L38.3297 18.7985C38.3492 18.6957 38.3769 18.5502 38.4125 18.3731L36.9419 18.0777ZM36.856 18.5191L35.3822 18.2397C35.3782 18.2607 35.3745 18.2799 35.3705 18.3001C35.3672 18.317 35.3619 18.3437 35.3575 18.3675L36.8325 18.6402L38.3075 18.9129C38.3075 18.913 38.3075 18.9128 38.3076 18.9123C38.3077 18.9118 38.3078 18.9112 38.308 18.9103C38.3084 18.9085 38.3088 18.9061 38.3094 18.903C38.3107 18.8963 38.3122 18.8887 38.3143 18.8779C38.3183 18.8576 38.3238 18.8299 38.3297 18.7985L36.856 18.5191ZM36.8325 18.6402L35.3575 18.3675C35.3568 18.3711 35.3562 18.3747 35.3552 18.3797C35.3548 18.3818 35.3542 18.3852 35.3536 18.3884C35.353 18.3915 35.3521 18.3963 35.3511 18.4018L36.8267 18.6714L38.3022 18.9411C38.3018 18.9432 38.3017 18.9441 38.3019 18.9429C38.3021 18.9416 38.3024 18.9402 38.303 18.9371C38.304 18.9316 38.3057 18.923 38.3075 18.9129L36.8325 18.6402ZM36.8267 18.6714L35.3481 18.419C35.3311 18.5183 35.3268 18.6033 35.3265 18.666C35.3263 18.6975 35.3272 18.7246 35.3282 18.7457C35.3291 18.7666 35.3304 18.7833 35.3311 18.7926C35.3315 18.7973 35.3318 18.8009 35.3319 18.8023C35.3319 18.8028 35.332 18.8036 35.332 18.8032C35.332 18.8032 35.3319 18.8024 35.3318 18.8013C35.3316 18.7994 35.3312 18.7945 35.3308 18.7881C35.3303 18.7817 35.3296 18.7721 35.329 18.7603C35.3283 18.7485 35.3276 18.7329 35.3272 18.7144C35.3267 18.696 35.3265 18.6726 35.3271 18.6456C35.3277 18.6186 35.3291 18.5853 35.3325 18.5472C35.3358 18.5092 35.3414 18.4631 35.3508 18.4111L36.8267 18.6793L38.3025 18.9475C38.312 18.8952 38.3175 18.8489 38.3209 18.8107C38.3243 18.7724 38.3258 18.7389 38.3264 18.7117C38.327 18.6844 38.3267 18.6608 38.3263 18.6421C38.3258 18.6234 38.3251 18.6074 38.3244 18.5954C38.3238 18.5833 38.3231 18.5734 38.3226 18.5667C38.3221 18.5601 38.3217 18.5548 38.3215 18.5526C38.3214 18.5514 38.3213 18.5505 38.3213 18.5502C38.3212 18.5497 38.3213 18.5503 38.3213 18.5507C38.3214 18.5517 38.3217 18.555 38.322 18.5594C38.3227 18.568 38.3239 18.584 38.3248 18.6042C38.3258 18.6246 38.3266 18.6509 38.3264 18.6817C38.3261 18.7428 38.3219 18.8263 38.3053 18.9239L36.8267 18.6714ZM36.8267 18.6793L35.766 17.6186L35.765 17.6196L36.8257 18.6802L37.8863 19.7409L37.8873 19.7399L36.8267 18.6793ZM36.8257 18.6802L35.3475 18.4254L35.3426 18.4537L36.8208 18.7086L38.299 18.9634L38.3039 18.9351L36.8257 18.6802ZM36.8208 18.7086L35.3785 18.2965L35.3707 18.3238L36.813 18.7359L38.2553 19.148L38.2631 19.1206L36.8208 18.7086ZM36.813 18.7359L35.361 18.3596C34.1002 23.2239 33.0528 26.6873 31.9123 29.4567L33.2993 30.0279L34.6863 30.5991C35.9079 27.6329 36.9963 24.0071 38.265 19.1122L36.813 18.7359ZM33.2993 30.0279L32.0706 30.8883C32.9121 32.09 33.6748 33.2127 34.2987 34.1873L35.562 33.3785L36.8253 32.5697C36.1703 31.5467 35.3817 30.3866 34.528 29.1675L33.2993 30.0279ZM35.562 33.3785L34.2987 34.1873C36.04 36.907 37.6395 39.169 39.0063 41.8279L40.3403 41.1422L41.6744 40.4564C40.2211 37.6293 38.4758 35.1477 36.8253 32.5697L35.562 33.3785ZM40.3403 41.1422L38.988 41.7912L38.9998 41.8157L40.3521 41.1666L41.7043 40.5175L41.6926 40.4931L40.3403 41.1422ZM40.3521 41.1666L38.9813 41.7758L38.9931 41.8021L40.3638 41.1929L41.7345 40.5837L41.7228 40.5574L40.3521 41.1666ZM40.3638 41.1929L38.9817 41.776C39.7776 43.6623 40.4857 45.3202 40.9199 46.5142L42.3296 46.0015L43.7393 45.4889C43.2719 44.2037 42.5228 42.4513 41.7458 40.6098L40.3638 41.1929ZM42.3296 46.0015L40.9296 46.54L40.9393 46.5654L42.3394 46.0269L43.7394 45.4884L43.7296 45.4631L42.3296 46.0015ZM42.3394 46.0269L40.8874 46.4034L40.8942 46.4297L42.3462 46.0533L43.7982 45.6768L43.7914 45.6505L42.3394 46.0269ZM42.3462 46.0533L40.9028 46.4615C41.0139 46.8544 41.0767 47.2466 41.1021 47.9329L42.6011 47.8775L44.1001 47.8221C44.0685 46.9683 43.9826 46.3276 43.7896 45.645L42.3462 46.0533ZM42.6011 47.8775L44.0138 48.3817C44.183 47.9076 44.37 47.3544 44.5611 46.7651L43.1343 46.3023L41.7074 45.8395C41.5228 46.4089 41.3454 46.9334 41.1884 47.3733L42.6011 47.8775ZM43.1343 46.3023L44.5611 46.7651C44.7593 46.1539 44.9592 45.5184 45.1463 44.9229L43.7153 44.4732L42.2843 44.0235C42.0967 44.6206 41.9008 45.2435 41.7074 45.8396L43.1343 46.3023ZM43.7153 44.4732L45.1463 44.9229C45.3343 44.3249 45.5089 43.7679 45.6577 43.3092L44.231 42.8463L42.8042 42.3833C42.65 42.8585 42.4703 43.4318 42.2843 44.0235L43.7153 44.4732ZM44.231 42.8463L45.6576 43.3097C45.5301 43.702 45.1088 43.9189 44.7133 43.7906L45.1763 42.3638L45.6392 40.9371C44.4559 40.5531 43.1877 41.2029 42.8044 42.3828L44.231 42.8463ZM45.1763 42.3638L44.7124 43.7903C44.317 43.6617 44.1037 43.2388 44.2307 42.8468L45.6577 43.3091L47.0847 43.7715C47.4668 42.592 46.8227 41.3219 45.6401 40.9374L45.1763 42.3638ZM45.6577 43.3091L44.2309 42.8462C44.0795 43.3129 43.9022 43.8769 43.715 44.4727L45.146 44.9224L46.577 45.3721C46.7655 44.7722 46.9382 44.2228 47.0845 43.7721L45.6577 43.3091ZM45.146 44.9224L43.715 44.4727C43.5272 45.0705 43.3299 45.6992 43.1342 46.3024L44.561 46.7652L45.9879 47.228C46.1886 46.609 46.3903 45.9663 46.577 45.3721L45.146 44.9224ZM44.561 46.7652L43.1342 46.3024C42.7348 47.534 42.3659 48.5877 42.1307 49.0512L43.4683 49.73L44.8058 50.4089C45.1697 49.6921 45.6114 48.3887 45.9879 47.228L44.561 46.7652ZM43.4683 49.73L42.1299 49.0528L41.9658 49.377L43.3042 50.0543L44.6426 50.7315L44.8067 50.4073L43.4683 49.73ZM43.3042 50.0543L43.01 48.5834L42.6536 48.6547L42.9478 50.1255L43.2419 51.5964L43.5984 51.5251L43.3042 50.0543ZM42.9478 50.1255L42.6516 48.6551C42.5509 48.6754 42.3657 48.6738 42.0733 48.5917L41.6675 50.0357L41.2616 51.4798C41.8058 51.6327 42.5058 51.7447 43.2439 51.596L42.9478 50.1255ZM41.6675 50.0357L42.0736 48.5917C41.7865 48.511 41.4382 48.3646 41.0338 48.1488L40.3276 49.4722L39.6215 50.7956C40.1423 51.0735 40.6982 51.3213 41.2614 51.4797L41.6675 50.0357ZM40.3276 49.4722L41.0338 48.1488C40.2272 47.7184 39.2712 47.0492 38.2449 46.2115L37.2964 47.3736L36.3479 48.5357C37.4538 49.4383 38.5778 50.2387 39.6215 50.7956L40.3276 49.4722ZM37.2964 47.3736L38.1566 46.1447L38.1468 46.1379L37.2866 47.3668L36.4264 48.5956L36.4362 48.6024L37.2964 47.3736ZM37.2866 47.3668L38.2546 46.2209C37.4192 45.5152 36.9935 45.0947 36.5429 44.6512L35.4907 45.7203L34.4386 46.7894C34.91 47.2533 35.3979 47.7349 36.3186 48.5126L37.2866 47.3668ZM35.4907 45.7203L36.5433 44.6516C36.8375 44.9414 36.8425 45.4164 36.5516 45.7123L35.4819 44.6607L34.4123 43.6091C33.541 44.4953 33.5541 45.9182 34.4381 46.7889L35.4907 45.7203ZM35.4819 44.6607L36.551 45.7129C36.2631 46.0054 35.7888 46.0134 35.491 45.7207L36.5425 44.6509L37.594 43.5812C36.7057 42.708 35.2816 42.7258 34.4128 43.6085L35.4819 44.6607ZM36.5425 44.6509L35.4903 45.72C35.9505 46.1729 36.4078 46.6239 37.2864 47.3661L38.2544 46.2203L39.2224 45.0744C38.4285 44.4038 38.0332 44.0134 37.5946 43.5818L36.5425 44.6509ZM38.2544 46.2203L37.3064 47.3827C38.3692 48.2494 39.4055 48.9804 40.3275 49.4724L41.0337 48.149L41.7399 46.8256C41.0537 46.4595 40.1847 45.8589 39.2024 45.0578L38.2544 46.2203ZM41.0337 48.149L40.3276 49.4724C40.3611 49.4903 40.3911 49.5051 40.4034 49.5113C40.4119 49.5155 40.4141 49.5165 40.417 49.518C40.419 49.519 40.4173 49.5182 40.4137 49.5163L41.1069 48.1861L41.8002 46.8559C41.7846 46.8478 41.7708 46.8408 41.7607 46.8357C41.7514 46.8311 41.7413 46.8261 41.7375 46.8242C41.7252 46.8181 41.7306 46.8206 41.7398 46.8256L41.0337 48.149ZM41.1069 48.1861L42.6066 48.1528C42.5865 47.2496 42.5206 46.6808 42.3572 46.0906L40.9116 46.4908L39.466 46.891C39.5373 47.1485 39.5901 47.4437 39.6073 48.2194L41.1069 48.1861ZM40.9116 46.4908L42.3208 45.9767C41.8715 44.7453 41.152 43.0595 40.3747 41.2172L38.9927 41.8004L37.6107 42.3835C38.4061 44.2686 39.0857 45.8626 39.5025 47.0049L40.9116 46.4908ZM38.9927 41.8004L40.3261 41.1134C38.9194 38.3826 37.2513 36.0175 35.5616 33.3783L34.2983 34.1871L33.0351 34.9958C34.8172 37.7795 36.3383 39.9232 37.6592 42.4873L38.9927 41.8004ZM34.2983 34.1871L35.5616 33.3783C35.0536 32.5847 34.4622 31.7074 33.8231 30.7832L32.5894 31.6363L31.3556 32.4894C31.9839 33.3981 32.5534 34.2435 33.0351 34.9959L34.2983 34.1871ZM32.5894 31.6363L31.2331 30.9955C30.4082 32.7414 29.2896 34.6707 28.1033 36.6628L29.3921 37.4302L30.6809 38.1977C31.8648 36.2096 33.0521 34.1681 33.9456 32.2771L32.5894 31.6363ZM29.3921 37.4302L28.1033 36.6628C26.851 38.7657 25.5238 40.9457 24.4383 43.004L25.7651 43.7037L27.0919 44.4034C28.1309 42.4333 29.4026 40.3443 30.6809 38.1977L29.3921 37.4302ZM25.7651 43.7037L24.5445 42.8318L24.5397 42.8387L25.7603 43.7105L26.9809 44.5824L26.9857 44.5755L25.7651 43.7037ZM25.7603 43.7105L24.4413 42.9961C23.7503 44.2717 23.1243 45.179 22.4243 45.9712L23.5483 46.9644L24.6724 47.9577C25.5542 46.9598 26.3048 45.8546 27.0792 44.4249L25.7603 43.7105ZM23.5483 46.9644L22.4426 45.9508L22.4319 45.9625L23.5376 46.9761L24.6433 47.9897L24.6541 47.978L23.5483 46.9644ZM23.5376 46.9761L22.5286 45.8662L22.5178 45.876L23.5269 46.9859L24.5359 48.0958L24.5466 48.086L23.5376 46.9761ZM23.5269 46.9859L22.4438 45.9482C22.2857 46.1131 22.1198 46.2744 21.9466 46.4355L22.9683 47.5338L23.9899 48.632C24.1937 48.4424 24.4026 48.24 24.6099 48.0236L23.5269 46.9859ZM22.9683 47.5338L22.8922 49.0318C23.364 49.0558 23.8516 49.0602 24.3355 49.0447L24.2876 47.5455L24.2397 46.0462C23.8365 46.0591 23.4317 46.0554 23.0444 46.0357L22.9683 47.5338ZM24.2876 47.5455L24.3355 49.0447C25.5911 49.0046 26.876 48.8264 27.7732 48.4632L27.2104 47.0728L26.6477 45.6824C26.2372 45.8485 25.3681 46.0102 24.2397 46.0462L24.2876 47.5455ZM27.2104 47.0728L27.7735 48.4631C27.3894 48.6187 26.9531 48.4337 26.7977 48.0499L28.188 47.4869L29.5783 46.9239C29.1119 45.7722 27.7994 45.216 26.6474 45.6825L27.2104 47.0728ZM28.188 47.4869L26.7973 48.0491C26.642 47.6649 26.8275 47.2284 27.2109 47.0731L27.7739 48.4634L28.337 49.8538C29.4879 49.3877 30.0443 48.0765 29.5786 46.9246L28.188 47.4869ZM27.7739 48.4634L27.211 47.0731C26.5571 47.3379 25.4795 47.5071 24.2875 47.5453L24.3354 49.0445L24.3834 50.5437C25.7019 50.5016 27.1957 50.3159 28.3369 49.8538L27.7739 48.4634ZM24.3354 49.0445L24.2876 47.5453C23.1082 47.5829 21.9112 47.4886 21.0484 47.2849L20.7036 48.7447L20.3588 50.2045C21.5521 50.4864 23.0276 50.587 24.3833 50.5437L24.3354 49.0445ZM20.7036 48.7447L21.0495 47.2851L20.6745 47.1962L20.3286 48.6558L19.9827 50.1154L20.3577 50.2043L20.7036 48.7447ZM20.3286 48.6558L21.7155 48.0843L21.569 47.7288L20.1821 48.3004L18.7953 48.8719L18.9418 49.2273L20.3286 48.6558ZM20.1821 48.3004L21.5695 47.7302C21.4269 47.383 21.3762 46.8429 21.3955 46.0641L19.896 46.0269L18.3965 45.9898C18.3764 46.7996 18.3939 47.8953 18.7947 48.8705L20.1821 48.3004ZM19.896 46.0269L21.3955 46.0641C21.4149 45.2824 21.4924 44.4611 21.538 43.4751L20.0396 43.4058L18.5412 43.3366C18.5063 44.0897 18.4156 45.2194 18.3965 45.9897L19.896 46.0269ZM20.0396 43.4058L21.5391 43.4415C21.5599 42.5697 21.5307 41.9022 21.2925 40.9912L19.8413 41.3707L18.3901 41.7501C18.5318 42.2923 18.557 42.6548 18.54 43.3702L20.0396 43.4058ZM19.8413 41.3707L21.2925 40.9911C21.3972 41.3917 21.1579 41.801 20.757 41.9058L20.3774 40.4547L19.9979 39.0035C18.7955 39.318 18.0758 40.5482 18.3901 41.7502L19.8413 41.3707ZM20.3774 40.4547L20.7562 41.906C20.3545 42.0109 19.946 41.7701 19.8414 41.3708L21.2925 40.9908L22.7435 40.6108C22.4292 39.4105 21.2014 38.6894 19.9987 39.0033L20.3774 40.4547ZM21.2925 40.9908L19.8413 41.3702C20.0314 42.0972 20.0588 42.6125 20.04 43.4053L21.5396 43.441L23.0391 43.4766C23.0617 42.5256 23.0299 41.7061 22.7437 40.6113L21.2925 40.9908ZM21.5396 43.441L20.0487 43.2753L20.0477 43.2841L21.5386 43.4498L23.0294 43.6154L23.0304 43.6066L21.5396 43.441ZM21.5386 43.4498H20.0386V43.4576H21.5386H23.0386V43.4498H21.5386ZM21.5386 43.4576L20.0401 43.3892C20.0004 44.2592 19.9148 45.2477 19.8955 46.0268L21.395 46.064L22.8946 46.1012C22.9146 45.293 22.9852 44.6615 23.037 43.526L21.5386 43.4576ZM21.395 46.064L19.8955 46.0269C19.8866 46.3857 19.891 46.7215 19.9137 47.0299L21.4097 46.9195L22.9056 46.8091C22.8921 46.6267 22.8873 46.3941 22.8946 46.1012L21.395 46.064ZM21.4097 46.9195L22.4029 48.0435C22.768 47.7209 23.1482 47.3817 23.5121 47.0034L22.4312 45.9634L21.3502 44.9235C21.0802 45.2042 20.7837 45.4709 20.4164 45.7955L21.4097 46.9195ZM22.4312 45.9634L23.556 46.9558C24.3422 46.0646 25.0279 45.0628 25.7567 43.7183L24.438 43.0035L23.1193 42.2886C22.4741 43.4789 21.9124 44.2841 21.3063 44.9711L22.4312 45.9634ZM24.438 43.0035L25.7598 43.7125L26.1768 42.9352L24.855 42.2261L23.5332 41.5171L23.1162 42.2944L24.438 43.0035ZM24.855 42.2261L26.1709 42.9461C27.1523 41.1525 28.2856 39.2877 29.3918 37.4301L28.103 36.6627L26.8142 35.8952C25.7294 37.717 24.5546 39.6502 23.5391 41.5061L24.855 42.2261ZM28.103 36.6627L29.3918 37.4301C30.6486 35.3197 31.8731 33.2161 32.7454 31.3091L31.3813 30.6851L30.0173 30.0611C29.2219 31.8 28.0785 33.7722 26.8142 35.8952L28.103 36.6627ZM31.3813 30.6851L32.7454 31.3091C32.8226 31.1404 32.897 30.9702 32.966 30.813L31.5923 30.2105L30.2186 29.608C30.1469 29.7714 30.0827 29.9183 30.0173 30.0612L31.3813 30.6851ZM31.5923 30.2105L32.8172 29.3447C31.5557 27.5601 30.1648 25.6509 28.8399 23.8403L27.6294 24.7261L26.4189 25.612C27.7431 27.4216 29.1213 29.3135 30.3674 31.0763L31.5923 30.2105ZM27.6294 24.7261L28.8399 23.8403C26.4214 20.5354 24.268 17.6142 23.4888 16.3232L22.2046 17.0982L20.9203 17.8732C21.7895 19.3135 24.0668 22.3977 26.4189 25.612L27.6294 24.7261ZM22.2046 17.0982L23.4889 16.3233C23.7036 16.679 23.5881 17.1398 23.2346 17.3531L22.4595 16.0689L21.6843 14.7847C20.6218 15.4261 20.2777 16.8082 20.9203 17.8731L22.2046 17.0982ZM22.4595 16.0689L23.2341 17.3534C22.882 17.5657 22.42 17.4549 22.2045 17.0978L23.4888 16.3228L24.7731 15.5479C24.1296 14.4815 22.7462 14.1444 21.6849 14.7844L22.4595 16.0689ZM23.4888 16.3228L22.2045 17.0978C23.0285 18.4633 25.2444 21.4665 27.6298 24.7262L28.8403 23.8404L30.0508 22.9546C27.5982 19.603 25.5069 16.7639 24.7731 15.5478L23.4888 16.3228ZM28.8403 23.8404L27.6298 24.7262C28.7596 26.2701 29.9375 27.8873 31.0439 29.4388L32.2651 28.5679L33.4864 27.697C32.369 26.1301 31.1824 24.5009 30.0508 22.9546L28.8403 23.8404ZM32.2651 28.5679L33.6651 29.1066C34.6995 26.4181 35.6744 23.1278 36.806 18.7638L35.354 18.3873L33.902 18.0108C32.7788 22.3423 31.8377 25.5018 30.8652 28.0293L32.2651 28.5679ZM35.354 18.3873L36.8295 18.6573C36.8274 18.6689 36.8256 18.6776 36.8249 18.6812C36.8245 18.6831 36.8242 18.6845 36.8242 18.6848C36.8241 18.6848 36.8241 18.6851 36.8244 18.6837C36.8248 18.6819 36.826 18.676 36.8274 18.669C36.8289 18.6617 36.8308 18.6517 36.833 18.6398L35.3579 18.3677L33.8828 18.0957C33.8843 18.0875 33.8856 18.081 33.8864 18.0772C33.8871 18.0737 33.8876 18.0711 33.8873 18.0726C33.8872 18.0728 33.8869 18.0747 33.8865 18.0763C33.8861 18.0782 33.8855 18.0811 33.8848 18.0846C33.8835 18.0912 33.8811 18.1028 33.8785 18.1172L35.354 18.3873ZM35.3579 18.3677L36.8329 18.6405C36.8393 18.6059 36.8396 18.6073 36.8561 18.5202L35.3823 18.2408L33.9086 17.9614C33.9044 17.9835 33.8874 18.0707 33.8829 18.095L35.3579 18.3677ZM35.3823 18.2408L36.8561 18.5202C36.8769 18.4103 36.9052 18.2605 36.9418 18.0782L35.4712 17.7828L34.0006 17.4874C33.9603 17.6877 33.9292 17.8524 33.9086 17.9614L35.3823 18.2408ZM35.4712 17.7828L36.9418 18.0782C37.0163 17.7074 37.1233 17.2006 37.2504 16.6628L35.7905 16.3179L34.3307 15.9731C34.194 16.5517 34.0798 17.0927 34.0006 17.4874L35.4712 17.7828ZM35.7905 16.3179L37.2503 16.6628C37.378 16.1223 37.5229 15.561 37.6755 15.0755L36.2446 14.6255L34.8137 14.1756C34.6298 14.7605 34.4658 15.4011 34.3307 15.9731L35.7905 16.3179ZM36.2446 14.6255L37.6755 15.0756C37.8344 14.5704 37.9819 14.2103 38.0954 14.0314L36.8286 13.2281L35.5618 12.4248C35.2216 12.9613 34.9792 13.6495 34.8137 14.1755L36.2446 14.6255Z" fill="white" mask="url(#path-1-outside-1_34_91)"/>
</svg>
