<svg width="64" height="64" viewBox="0 0 64 64" fill="none" xmlns="http://www.w3.org/2000/svg">
<mask id="path-1-outside-1_34_99" maskUnits="userSpaceOnUse" x="22.1604" y="9.10071" width="20" height="45" fill="black">
<rect fill="white" x="22.1604" y="9.10071" width="20" height="45"/>
<path d="M31.1487 11.9337C31.241 11.5301 31.6434 11.2771 32.0471 11.3693C32.4506 11.4617 32.7027 11.8641 32.6106 12.2677C32.5636 12.4736 32.5446 12.8611 32.5637 13.3917C32.5821 13.9018 32.6326 14.4803 32.6926 15.0304C32.7525 15.579 32.8214 16.0916 32.8752 16.4669C32.9021 16.6539 32.9254 16.8068 32.9417 16.9122C32.9498 16.9647 32.9558 17.0059 32.9602 17.0333C32.9624 17.0471 32.964 17.0577 32.9651 17.0646C32.9656 17.068 32.9668 17.0708 32.967 17.0724V17.0734L32.9719 17.1017L32.9739 17.13C33.4154 22.1877 33.5928 25.9026 33.4319 29.0138C33.7645 30.6524 34.0554 32.1895 34.261 33.4962C34.7497 36.6031 35.3287 39.4472 35.5178 42.5255L35.5188 42.5529V42.5812C35.4901 44.604 35.4722 46.4583 35.387 47.7745L35.385 47.8019L35.3811 47.8282C35.3043 48.3818 35.1645 48.885 34.8811 49.6017C35.2141 49.2488 35.5974 48.8282 36.0022 48.3732C36.424 47.8991 36.8586 47.4025 37.2698 46.9318C37.6799 46.4622 38.0694 46.0162 38.3958 45.6495C38.6711 45.3402 39.1449 45.3119 39.4543 45.587C39.7635 45.8623 39.7918 46.3372 39.5168 46.6466C39.1963 47.0069 38.8119 47.4461 38.3997 47.9181C37.9887 48.3886 37.5503 48.8903 37.1233 49.3702C36.2874 50.3098 35.4433 51.2265 34.9319 51.6466L34.6506 51.8771L34.2961 51.7999C33.8781 51.7088 33.4952 51.479 33.1594 51.2032C32.8182 50.923 32.4839 50.5604 32.1594 50.1486C32.0419 49.9994 31.9247 49.8408 31.8069 49.6749C31.6521 49.7408 31.4964 49.8052 31.3401 49.8663C30.1589 50.328 28.8668 50.6824 27.8167 50.797L27.4338 50.839L27.177 50.5529C26.6997 50.0203 26.3937 49.2606 26.1467 48.505C25.9056 47.7672 25.6601 46.8195 25.4075 45.9865C25.1601 45.2323 24.962 44.7562 24.5403 44.1349C24.3076 43.7922 24.3968 43.3256 24.7395 43.0929C25.082 42.8604 25.5477 42.949 25.7805 43.2911C26.3095 44.0702 26.5604 44.6899 26.8323 45.5187L26.8352 45.5275L26.8372 45.5353C27.129 46.4956 27.3269 47.2846 27.5735 48.0392C27.6747 48.3488 27.7733 48.6148 27.8723 48.84C28.1093 48.4126 28.3272 48.0142 28.5159 47.5978C28.8359 46.8015 29.0829 45.9494 29.2854 44.8898C29.2694 44.8497 29.2535 44.8097 29.2375 44.7697C29.1146 44.4617 29.2112 44.1227 29.4514 43.92L29.552 43.2657C29.8834 41.2122 30.3363 39.0366 30.7542 36.9366C31.2349 34.5205 31.6701 32.2039 31.8469 30.2072C31.8781 29.8547 31.9021 29.4941 31.9231 29.1241C31.4819 26.9616 30.9681 24.6182 30.4729 22.3859C29.5981 18.4424 28.7756 14.8025 28.5696 13.2208C28.5161 12.8101 28.8064 12.4335 29.217 12.38C29.6276 12.3268 30.0044 12.6159 30.0579 13.0265C30.2424 14.4436 30.9691 17.6994 31.8 21.4415C31.7186 20.1694 31.6137 18.7921 31.4827 17.2892C31.4818 17.2835 31.4799 17.277 31.4788 17.2697C31.4741 17.2401 31.4677 17.1966 31.4592 17.1417C31.4422 17.0316 31.4176 16.8731 31.3899 16.6798C31.3345 16.2935 31.2636 15.7635 31.2014 15.1935C31.1394 14.6251 31.0849 14.0063 31.0647 13.4454C31.0453 12.9054 31.0544 12.3466 31.1487 11.9337ZM33.5989 48.7491C33.4627 48.8358 33.3204 48.9207 33.1731 49.004C33.2285 49.0785 33.2825 49.1514 33.3372 49.2208C33.3542 49.2424 33.373 49.2623 33.3899 49.2833C33.4722 49.0839 33.5407 48.9078 33.5989 48.7491ZM30.2786 47.1105C30.1642 47.4748 30.0417 47.8253 29.9036 48.1681L29.8967 48.1827L29.8909 48.1964C29.7825 48.437 29.6661 48.6705 29.5471 48.8986C29.9592 48.7756 30.381 48.6304 30.7942 48.4689C30.8578 48.444 30.9201 48.4171 30.9827 48.3917C30.7453 47.9877 30.5098 47.5586 30.2786 47.1105ZM32.8284 34.0304C32.6466 35.0763 32.4395 36.1521 32.2249 37.2306C31.7422 39.6558 31.2307 42.1014 30.9026 44.3546L30.9016 44.3624C30.8823 44.4854 30.8604 44.6061 30.8401 44.7247C31.0174 45.1556 31.2254 45.64 31.5676 46.338C31.8274 46.8454 32.0885 47.3183 32.3459 47.7501C32.7747 47.5137 33.134 47.2747 33.3909 47.047C33.5444 46.9108 33.7388 46.8495 33.929 46.8595C33.9763 45.6892 33.9957 44.2161 34.0188 42.587C33.8395 39.709 33.3157 37.0814 32.8284 34.0304Z"/>
</mask>
<path d="M31.1487 11.9337C31.241 11.5301 31.6434 11.2771 32.0471 11.3693C32.4506 11.4617 32.7027 11.8641 32.6106 12.2677C32.5636 12.4736 32.5446 12.8611 32.5637 13.3917C32.5821 13.9018 32.6326 14.4803 32.6926 15.0304C32.7525 15.579 32.8214 16.0916 32.8752 16.4669C32.9021 16.6539 32.9254 16.8068 32.9417 16.9122C32.9498 16.9647 32.9558 17.0059 32.9602 17.0333C32.9624 17.0471 32.964 17.0577 32.9651 17.0646C32.9656 17.068 32.9668 17.0708 32.967 17.0724V17.0734L32.9719 17.1017L32.9739 17.13C33.4154 22.1877 33.5928 25.9026 33.4319 29.0138C33.7645 30.6524 34.0554 32.1895 34.261 33.4962C34.7497 36.6031 35.3287 39.4472 35.5178 42.5255L35.5188 42.5529V42.5812C35.4901 44.604 35.4722 46.4583 35.387 47.7745L35.385 47.8019L35.3811 47.8282C35.3043 48.3818 35.1645 48.885 34.8811 49.6017C35.2141 49.2488 35.5974 48.8282 36.0022 48.3732C36.424 47.8991 36.8586 47.4025 37.2698 46.9318C37.6799 46.4622 38.0694 46.0162 38.3958 45.6495C38.6711 45.3402 39.1449 45.3119 39.4543 45.587C39.7635 45.8623 39.7918 46.3372 39.5168 46.6466C39.1963 47.0069 38.8119 47.4461 38.3997 47.9181C37.9887 48.3886 37.5503 48.8903 37.1233 49.3702C36.2874 50.3098 35.4433 51.2265 34.9319 51.6466L34.6506 51.8771L34.2961 51.7999C33.8781 51.7088 33.4952 51.479 33.1594 51.2032C32.8182 50.923 32.4839 50.5604 32.1594 50.1486C32.0419 49.9994 31.9247 49.8408 31.8069 49.6749C31.6521 49.7408 31.4964 49.8052 31.3401 49.8663C30.1589 50.328 28.8668 50.6824 27.8167 50.797L27.4338 50.839L27.177 50.5529C26.6997 50.0203 26.3937 49.2606 26.1467 48.505C25.9056 47.7672 25.6601 46.8195 25.4075 45.9865C25.1601 45.2323 24.962 44.7562 24.5403 44.1349C24.3076 43.7922 24.3968 43.3256 24.7395 43.0929C25.082 42.8604 25.5477 42.949 25.7805 43.2911C26.3095 44.0702 26.5604 44.6899 26.8323 45.5187L26.8352 45.5275L26.8372 45.5353C27.129 46.4956 27.3269 47.2846 27.5735 48.0392C27.6747 48.3488 27.7733 48.6148 27.8723 48.84C28.1093 48.4126 28.3272 48.0142 28.5159 47.5978C28.8359 46.8015 29.0829 45.9494 29.2854 44.8898C29.2694 44.8497 29.2535 44.8097 29.2375 44.7697C29.1146 44.4617 29.2112 44.1227 29.4514 43.92L29.552 43.2657C29.8834 41.2122 30.3363 39.0366 30.7542 36.9366C31.2349 34.5205 31.6701 32.2039 31.8469 30.2072C31.8781 29.8547 31.9021 29.4941 31.9231 29.1241C31.4819 26.9616 30.9681 24.6182 30.4729 22.3859C29.5981 18.4424 28.7756 14.8025 28.5696 13.2208C28.5161 12.8101 28.8064 12.4335 29.217 12.38C29.6276 12.3268 30.0044 12.6159 30.0579 13.0265C30.2424 14.4436 30.9691 17.6994 31.8 21.4415C31.7186 20.1694 31.6137 18.7921 31.4827 17.2892C31.4818 17.2835 31.4799 17.277 31.4788 17.2697C31.4741 17.2401 31.4677 17.1966 31.4592 17.1417C31.4422 17.0316 31.4176 16.8731 31.3899 16.6798C31.3345 16.2935 31.2636 15.7635 31.2014 15.1935C31.1394 14.6251 31.0849 14.0063 31.0647 13.4454C31.0453 12.9054 31.0544 12.3466 31.1487 11.9337ZM33.5989 48.7491C33.4627 48.8358 33.3204 48.9207 33.1731 49.004C33.2285 49.0785 33.2825 49.1514 33.3372 49.2208C33.3542 49.2424 33.373 49.2623 33.3899 49.2833C33.4722 49.0839 33.5407 48.9078 33.5989 48.7491ZM30.2786 47.1105C30.1642 47.4748 30.0417 47.8253 29.9036 48.1681L29.8967 48.1827L29.8909 48.1964C29.7825 48.437 29.6661 48.6705 29.5471 48.8986C29.9592 48.7756 30.381 48.6304 30.7942 48.4689C30.8578 48.444 30.9201 48.4171 30.9827 48.3917C30.7453 47.9877 30.5098 47.5586 30.2786 47.1105ZM32.8284 34.0304C32.6466 35.0763 32.4395 36.1521 32.2249 37.2306C31.7422 39.6558 31.2307 42.1014 30.9026 44.3546L30.9016 44.3624C30.8823 44.4854 30.8604 44.6061 30.8401 44.7247C31.0174 45.1556 31.2254 45.64 31.5676 46.338C31.8274 46.8454 32.0885 47.3183 32.3459 47.7501C32.7747 47.5137 33.134 47.2747 33.3909 47.047C33.5444 46.9108 33.7388 46.8495 33.929 46.8595C33.9763 45.6892 33.9957 44.2161 34.0188 42.587C33.8395 39.709 33.3157 37.0814 32.8284 34.0304Z" fill="black"/>
<path d="M31.1487 11.9337L29.6864 11.5992L29.6863 11.5998L31.1487 11.9337ZM32.0471 11.3693L32.382 9.90712L32.3809 9.90686L32.0471 11.3693ZM32.6106 12.2677L34.073 12.6016L34.073 12.6014L32.6106 12.2677ZM32.5637 13.3917L31.0647 13.4456L31.0647 13.4457L32.5637 13.3917ZM32.6926 15.0304L31.2015 15.1931L31.2015 15.1931L32.6926 15.0304ZM32.8752 16.4669L31.3904 16.6799L31.3904 16.6799L32.8752 16.4669ZM32.9417 16.9122L31.4592 17.1413L31.4592 17.1413L32.9417 16.9122ZM32.9602 17.0333L31.4788 17.2691L31.4789 17.2691L32.9602 17.0333ZM32.9651 17.0646L31.4842 17.3034L31.4842 17.3035L32.9651 17.0646ZM32.967 17.0724H34.467V16.9514L34.4477 16.832L32.967 17.0724ZM32.967 17.0734H31.467V17.2017L31.4889 17.3282L32.967 17.0734ZM32.9719 17.1017L34.4684 16.9985L34.4631 16.9222L34.4501 16.8468L32.9719 17.1017ZM32.9739 17.13L31.4774 17.2332L31.4784 17.2468L31.4796 17.2605L32.9739 17.13ZM33.4319 29.0138L31.9339 28.9363L31.9241 29.126L31.9619 29.3122L33.4319 29.0138ZM34.261 33.4962L32.7792 33.7293L32.7792 33.7293L34.261 33.4962ZM35.5178 42.5255L37.0169 42.472L37.0162 42.4527L37.015 42.4335L35.5178 42.5255ZM35.5188 42.5529H37.0188V42.5261L37.0178 42.4993L35.5188 42.5529ZM35.5188 42.5812L37.0186 42.6025L37.0188 42.5918V42.5812H35.5188ZM35.387 47.7745L36.8832 47.8814L36.8838 47.8714L35.387 47.7745ZM35.385 47.8019L36.8688 48.0217L36.8771 47.9655L36.8812 47.9088L35.385 47.8019ZM35.3811 47.8282L33.8972 47.6084L33.8953 47.6222L35.3811 47.8282ZM34.8811 49.6017L33.4862 49.0502L35.9722 50.631L34.8811 49.6017ZM36.0022 48.3732L37.1229 49.3702L37.1229 49.3702L36.0022 48.3732ZM37.2698 46.9318L38.3995 47.9185L38.3995 47.9185L37.2698 46.9318ZM38.3958 45.6495L37.2753 44.6523L37.2752 44.6524L38.3958 45.6495ZM39.4543 45.587L40.4518 44.4667L40.4512 44.4662L39.4543 45.587ZM39.5168 46.6466L40.6374 47.6438L40.638 47.6431L39.5168 46.6466ZM38.3997 47.9181L39.5294 48.9048L39.5294 48.9048L38.3997 47.9181ZM37.1233 49.3702L38.244 50.3673L38.244 50.3673L37.1233 49.3702ZM34.9319 51.6466L35.8826 52.8068L35.884 52.8057L34.9319 51.6466ZM34.6506 51.8771L34.3317 53.3428L35.0404 53.497L35.6014 53.0373L34.6506 51.8771ZM34.2961 51.7999L33.9765 53.2655L33.9772 53.2656L34.2961 51.7999ZM33.1594 51.2032L32.2075 52.3625L32.2076 52.3626L33.1594 51.2032ZM32.1594 50.1486L30.9811 51.0767L30.9811 51.0768L32.1594 50.1486ZM31.8069 49.6749L33.0297 48.8062L32.3304 47.8218L31.2193 48.2948L31.8069 49.6749ZM31.3401 49.8663L31.8862 51.2634L31.8862 51.2634L31.3401 49.8663ZM27.8167 50.797L27.6539 49.3058L27.6531 49.3059L27.8167 50.797ZM27.4338 50.839L26.3176 51.841L26.8319 52.414L27.5974 52.33L27.4338 50.839ZM27.177 50.5529L26.06 51.554L26.0607 51.5548L27.177 50.5529ZM26.1467 48.505L24.7209 48.971L24.7209 48.971L26.1467 48.505ZM25.4075 45.9865L26.8429 45.5511L26.838 45.535L26.8328 45.519L25.4075 45.9865ZM24.5403 44.1349L25.7813 43.2924L25.7813 43.2923L24.5403 44.1349ZM24.7395 43.0929L23.897 41.8518L23.8969 41.852L24.7395 43.0929ZM25.7805 43.2911L27.0215 42.4485L27.0207 42.4473L25.7805 43.2911ZM26.8323 45.5187L25.407 45.9861L25.4093 45.993L26.8323 45.5187ZM26.8352 45.5275L28.2904 45.1637L28.2764 45.1078L28.2582 45.0531L26.8352 45.5275ZM26.8372 45.5353L25.3819 45.8991L25.3911 45.9355L25.402 45.9715L26.8372 45.5353ZM27.5735 48.0392L26.1477 48.5052L26.1477 48.5052L27.5735 48.0392ZM27.8723 48.84L26.4992 49.4438L27.7169 52.2129L29.1841 49.5675L27.8723 48.84ZM28.5159 47.5978L29.8822 48.2167L29.8956 48.1872L29.9077 48.1572L28.5159 47.5978ZM29.2854 44.8898L30.7587 45.1714L30.8411 44.7403L30.6782 44.3328L29.2854 44.8898ZM29.2375 44.7697L30.6306 44.2134L30.6306 44.2134L29.2375 44.7697ZM29.4514 43.92L30.4186 45.0666L30.8485 44.7039L30.934 44.148L29.4514 43.92ZM29.552 43.2657L28.0711 43.0268L28.0694 43.0378L29.552 43.2657ZM30.7542 36.9366L32.2253 37.2294L32.2253 37.2294L30.7542 36.9366ZM31.8469 30.2072L33.3411 30.3395L33.3411 30.3395L31.8469 30.2072ZM31.9231 29.1241L33.4207 29.2092L33.4317 29.0149L33.3928 28.8243L31.9231 29.1241ZM30.4729 22.3859L31.9373 22.061L31.9373 22.061L30.4729 22.3859ZM28.5696 13.2208L27.0821 13.4145L27.0821 13.4146L28.5696 13.2208ZM29.217 12.38L29.0243 10.8924L29.0231 10.8926L29.217 12.38ZM30.0579 13.0265L28.5704 13.2201L28.5704 13.2201L30.0579 13.0265ZM31.8 21.4415L30.3357 21.7667L33.297 21.3457L31.8 21.4415ZM31.4827 17.2892L32.977 17.1589L32.9723 17.1051L32.9638 17.0518L31.4827 17.2892ZM31.4788 17.2697L29.9974 17.5054L29.9976 17.5068L31.4788 17.2697ZM31.4592 17.1417L32.9416 16.9127L32.9416 16.9126L31.4592 17.1417ZM31.3899 16.6798L29.9051 16.8928L29.9051 16.8928L31.3899 16.6798ZM31.2014 15.1935L29.7103 15.3562L29.7103 15.3562L31.2014 15.1935ZM31.0647 13.4454L29.5657 13.4993L29.5657 13.4994L31.0647 13.4454ZM33.5989 48.7491L35.0071 49.2657L36.5341 45.1028L32.7934 47.4837L33.5989 48.7491ZM33.1731 49.004L32.4345 47.6985L30.9555 48.5352L31.9693 49.899L33.1731 49.004ZM33.3372 49.2208L32.1588 50.149L32.159 50.1492L33.3372 49.2208ZM33.3899 49.2833L32.2207 50.223L33.8095 52.2L34.7766 49.8553L33.3899 49.2833ZM30.2786 47.1105L31.6115 46.4226L29.9391 43.1818L28.8474 46.6614L30.2786 47.1105ZM29.9036 48.1681L31.2628 48.8024L31.2799 48.766L31.2949 48.7286L29.9036 48.1681ZM29.8967 48.1827L28.5375 47.5484L28.5274 47.57L28.518 47.5919L29.8967 48.1827ZM29.8909 48.1964L31.2584 48.8126L31.2641 48.8L31.2696 48.7873L29.8909 48.1964ZM29.5471 48.8986L28.2172 48.2048L26.5763 51.3503L29.976 50.3359L29.5471 48.8986ZM30.7942 48.4689L31.3403 49.8659L31.3403 49.8659L30.7942 48.4689ZM30.9827 48.3917L31.547 49.7815L33.1551 49.1286L32.276 47.632L30.9827 48.3917ZM32.8284 34.0304L34.3096 33.7938L31.3505 33.7736L32.8284 34.0304ZM32.2249 37.2306L33.696 37.5233L33.696 37.5233L32.2249 37.2306ZM30.9026 44.3546L29.4182 44.1385L29.4161 44.1535L29.4142 44.1686L30.9026 44.3546ZM30.9016 44.3624L32.3835 44.5951L32.3871 44.5718L32.39 44.5485L30.9016 44.3624ZM30.8401 44.7247L29.3616 44.4716L29.2888 44.8967L29.453 45.2956L30.8401 44.7247ZM31.5676 46.338L30.2208 46.9984L30.2266 47.0101L30.2325 47.0217L31.5676 46.338ZM32.3459 47.7501L31.0576 48.5184L31.8003 49.7639L33.0702 49.0637L32.3459 47.7501ZM33.3909 47.047L34.3858 48.1695L34.3861 48.1693L33.3909 47.047ZM33.929 46.8595L33.85 48.3574L35.3663 48.4374L35.4277 46.9202L33.929 46.8595ZM34.0188 42.587L35.5186 42.6083L35.5195 42.551L35.5159 42.4938L34.0188 42.587ZM31.1487 11.9337L32.6109 12.2682C32.5187 12.6712 32.1177 12.9239 31.7134 12.8317L32.0471 11.3693L32.3809 9.90686C31.1691 9.63032 29.9633 10.389 29.6864 11.5992L31.1487 11.9337ZM32.0471 11.3693L31.7122 12.8314C31.3069 12.7386 31.0565 12.3358 31.1482 11.934L32.6106 12.2677L34.073 12.6014C34.3489 11.3924 33.5943 10.1848 32.382 9.90713L32.0471 11.3693ZM32.6106 12.2677L31.1482 11.9338C31.0538 12.3473 31.0453 12.9067 31.0647 13.4456L32.5637 13.3917L34.0628 13.3378C34.0542 13.1009 34.0549 12.9125 34.0609 12.7732C34.0677 12.619 34.0791 12.5748 34.073 12.6016L32.6106 12.2677ZM32.5637 13.3917L31.0647 13.4457C31.0849 14.007 31.1395 14.6255 31.2015 15.1931L32.6926 15.0304L34.1838 14.8677C34.1256 14.335 34.0793 13.7966 34.0627 13.3377L32.5637 13.3917ZM32.6926 15.0304L31.2015 15.1931C31.2637 15.7635 31.3351 16.2938 31.3904 16.6799L32.8752 16.4669L34.36 16.254C34.3078 15.8895 34.2413 15.3944 34.1838 14.8676L32.6926 15.0304ZM32.8752 16.4669L31.3904 16.6799C31.4183 16.874 31.4424 17.0325 31.4592 17.1413L32.9417 16.9122L34.4241 16.6832C34.4083 16.581 34.3859 16.4339 34.36 16.2539L32.8752 16.4669ZM32.9417 16.9122L31.4592 17.1413C31.4645 17.1756 31.4743 17.2404 31.4788 17.2691L32.9602 17.0333L34.4416 16.7976C34.4374 16.7714 34.435 16.7538 34.4241 16.6831L32.9417 16.9122ZM32.9602 17.0333L31.4789 17.2691C31.4794 17.2724 31.4799 17.2757 31.4806 17.2805C31.481 17.2826 31.4815 17.2861 31.482 17.2893C31.4825 17.2925 31.4833 17.2976 31.4842 17.3034L32.9651 17.0646L34.446 16.8258C34.4463 16.8281 34.4465 16.8294 34.4463 16.8282C34.4462 16.827 34.446 16.8257 34.4455 16.8225C34.4446 16.8169 34.4432 16.808 34.4416 16.7975L32.9602 17.0333ZM32.9651 17.0646L31.4842 17.3035C31.4922 17.3529 31.5014 17.3944 31.509 17.4253C31.5128 17.4408 31.5164 17.4543 31.5193 17.4649C31.5222 17.4755 31.5247 17.484 31.5261 17.489C31.5269 17.4915 31.5275 17.4935 31.5277 17.4945C31.5279 17.4949 31.528 17.4953 31.528 17.4954C31.528 17.4955 31.5279 17.4952 31.5278 17.4949C31.5277 17.4942 31.527 17.4921 31.5262 17.4894C31.5254 17.4866 31.5242 17.4822 31.5227 17.4769C31.5212 17.4716 31.5192 17.4644 31.5169 17.4559C31.5147 17.4474 31.5119 17.4366 31.5089 17.424C31.5058 17.4114 31.5022 17.3959 31.4985 17.3779C31.4948 17.36 31.4905 17.338 31.4864 17.3127L32.967 17.0724L34.4477 16.832C34.4435 16.8065 34.4392 16.7843 34.4355 16.7662C34.4317 16.7481 34.428 16.7323 34.425 16.7195C34.4219 16.7067 34.419 16.6956 34.4167 16.6869C34.4144 16.6781 34.4123 16.6706 34.4107 16.665C34.4092 16.6594 34.4078 16.6548 34.4069 16.6517C34.406 16.6487 34.4053 16.6463 34.4051 16.6453C34.4049 16.6449 34.4048 16.6444 34.4048 16.6444C34.4047 16.6443 34.4048 16.6445 34.4049 16.6448C34.4051 16.6454 34.4056 16.6471 34.4062 16.6493C34.4075 16.6537 34.4097 16.6615 34.4124 16.6713C34.4152 16.6813 34.4185 16.6939 34.4222 16.7087C34.4294 16.7381 34.4382 16.7779 34.4459 16.8257L32.9651 17.0646ZM32.967 17.0724H31.467V17.0734H32.967H34.467V17.0724H32.967ZM32.967 17.0734L31.4889 17.3282L31.4937 17.3565L32.9719 17.1017L34.4501 16.8468L34.4452 16.8185L32.967 17.0734ZM32.9719 17.1017L31.4755 17.2049L31.4774 17.2332L32.9739 17.13L34.4703 17.0268L34.4684 16.9985L32.9719 17.1017ZM32.9739 17.13L31.4796 17.2605C31.9197 22.3026 32.0892 25.9329 31.9339 28.9363L33.4319 29.0138L34.9299 29.0913C35.0963 25.8723 34.9111 22.0729 34.4682 16.9996L32.9739 17.13ZM33.4319 29.0138L31.9619 29.3122C32.2927 30.942 32.5787 32.4544 32.7792 33.7293L34.261 33.4962L35.7428 33.2631C35.5322 31.9246 35.2363 30.3628 34.9019 28.7154L33.4319 29.0138ZM34.261 33.4962L32.7792 33.7293C33.281 36.9196 33.8373 39.6336 34.0206 42.6175L35.5178 42.5255L37.015 42.4335C36.82 39.2608 36.2184 36.2867 35.7428 33.2631L34.261 33.4962ZM35.5178 42.5255L34.0188 42.579L34.0198 42.6064L35.5188 42.5529L37.0178 42.4993L37.0169 42.472L35.5178 42.5255ZM35.5188 42.5529H34.0188V42.5812H35.5188H37.0188V42.5529H35.5188ZM35.5188 42.5812L34.0189 42.5599C33.9899 44.6069 33.9722 46.4098 33.8901 47.6776L35.387 47.7745L36.8838 47.8714C36.9722 46.5068 36.9903 44.6011 37.0186 42.6025L35.5188 42.5812ZM35.387 47.7745L33.8908 47.6677L33.8888 47.695L35.385 47.8019L36.8812 47.9088L36.8832 47.8814L35.387 47.7745ZM35.385 47.8019L33.9012 47.5821L33.8973 47.6084L35.3811 47.8282L36.8649 48.0481L36.8688 48.0217L35.385 47.8019ZM35.3811 47.8282L33.8953 47.6222C33.8393 48.0262 33.7389 48.4108 33.4862 49.0502L34.8811 49.6017L36.276 50.1532C36.59 49.3591 36.7694 48.7375 36.8669 48.0343L35.3811 47.8282ZM34.8811 49.6017L35.9722 50.631C36.3179 50.2646 36.7114 49.8327 37.1229 49.3702L36.0022 48.3732L34.8815 47.3761C34.4834 47.8237 34.1102 48.2329 33.79 48.5723L34.8811 49.6017ZM36.0022 48.3732L37.1229 49.3702C37.5496 48.8905 37.9881 48.3895 38.3995 47.9185L37.2698 46.9318L36.14 45.945C35.7291 46.4156 35.2984 46.9076 34.8815 47.3761L36.0022 48.3732ZM37.2698 46.9318L38.3995 47.9185C38.8111 47.4473 39.1956 47.0071 39.5163 46.6467L38.3958 45.6495L37.2752 44.6524C36.9433 45.0254 36.5488 45.477 36.14 45.945L37.2698 46.9318ZM38.3958 45.6495L39.5162 46.6468C39.2426 46.9542 38.7689 46.9848 38.4575 46.7079L39.4543 45.587L40.4512 44.4662C39.521 43.6389 38.0995 43.7262 37.2753 44.6523L38.3958 45.6495ZM39.4543 45.587L38.4569 46.7073C38.1493 46.4335 38.1192 45.9611 38.3957 45.6501L39.5168 46.6466L40.638 47.6431C41.4645 46.7133 41.3777 45.2911 40.4518 44.4667L39.4543 45.587ZM39.5168 46.6466L38.3963 45.6494C38.0704 46.0156 37.6816 46.46 37.2699 46.9313L38.3997 47.9181L39.5294 48.9048C39.9422 48.4322 40.3221 47.9981 40.6374 47.6438L39.5168 46.6466ZM38.3997 47.9181L37.2699 46.9313C36.8584 47.4024 36.4244 47.8991 36.0026 48.3732L37.1233 49.3702L38.244 50.3673C38.6762 49.8814 39.119 49.3747 39.5294 48.9048L38.3997 47.9181ZM37.1233 49.3702L36.0026 48.3732C35.1414 49.3412 34.3812 50.1578 33.9798 50.4875L34.9319 51.6466L35.884 52.8057C36.5054 52.2953 37.4335 51.2783 38.244 50.3673L37.1233 49.3702ZM34.9319 51.6466L33.9812 50.4864L33.6999 50.7169L34.6506 51.8771L35.6014 53.0373L35.8826 52.8068L34.9319 51.6466ZM34.6506 51.8771L34.9696 50.4114L34.6151 50.3342L34.2961 51.7999L33.9772 53.2656L34.3317 53.3428L34.6506 51.8771ZM34.2961 51.7999L34.6158 50.3344C34.515 50.3124 34.3456 50.2364 34.1113 50.0439L33.1594 51.2032L32.2076 52.3626C32.6449 52.7216 33.2412 53.1051 33.9765 53.2655L34.2961 51.7999ZM33.1594 51.2032L34.1114 50.044C33.8819 49.8556 33.6224 49.5818 33.3377 49.2203L32.1594 50.1486L30.9811 51.0768C31.3453 51.539 31.7544 51.9904 32.2075 52.3625L33.1594 51.2032ZM32.1594 50.1486L33.3378 49.2204C33.2395 49.0957 33.1374 48.9578 33.0297 48.8062L31.8069 49.6749L30.584 50.5436C30.712 50.7237 30.8443 50.9031 30.9811 51.0767L32.1594 50.1486ZM31.8069 49.6749L31.2193 48.2948C31.0736 48.3568 30.9324 48.4152 30.794 48.4693L31.3401 49.8663L31.8862 51.2634C32.0605 51.1953 32.2306 51.1248 32.3945 51.0551L31.8069 49.6749ZM31.3401 49.8663L30.794 48.4693C29.6952 48.8988 28.5354 49.2097 27.6539 49.3058L27.8167 50.797L27.9794 52.2881C29.1981 52.1551 30.6225 51.7573 31.8862 51.2634L31.3401 49.8663ZM27.8167 50.797L27.6531 49.3059L27.2703 49.3479L27.4338 50.839L27.5974 52.33L27.9802 52.2881L27.8167 50.797ZM27.4338 50.839L28.5501 49.837L28.2933 49.5509L27.177 50.5529L26.0607 51.5548L26.3176 51.841L27.4338 50.839ZM27.177 50.5529L28.294 49.5517C28.0432 49.2719 27.8144 48.779 27.5725 48.039L26.1467 48.505L24.7209 48.971C24.973 49.7421 25.3563 50.7688 26.06 51.554L27.177 50.5529ZM26.1467 48.505L27.5725 48.039C27.3289 47.2937 27.1308 46.5003 26.8429 45.5511L25.4075 45.9865L23.972 46.4218C24.1895 47.1386 24.4823 48.2407 24.7209 48.971L26.1467 48.505ZM25.4075 45.9865L26.8328 45.519C26.5608 44.6897 26.3098 44.0709 25.7813 43.2924L24.5403 44.1349L23.2992 44.9774C23.6143 45.4415 23.7595 45.7749 23.9822 46.4539L25.4075 45.9865ZM24.5403 44.1349L25.7813 43.2923C26.014 43.635 25.9248 44.1012 25.5821 44.3338L24.7395 43.0929L23.8969 41.852C22.8689 42.55 22.6013 43.9494 23.2993 44.9775L24.5403 44.1349ZM24.7395 43.0929L25.582 44.3339C25.2404 44.5658 24.7738 44.478 24.5404 44.135L25.7805 43.2911L27.0207 42.4473C26.3216 41.4199 24.9235 41.155 23.897 41.8518L24.7395 43.0929ZM25.7805 43.2911L24.5395 44.1337C24.9616 44.7554 25.1597 45.2322 25.407 45.9861L26.8323 45.5187L28.2576 45.0512C27.9612 44.1475 27.6573 43.385 27.0215 42.4485L25.7805 43.2911ZM26.8323 45.5187L25.4093 45.993L25.4122 46.0018L26.8352 45.5275L28.2582 45.0531L28.2553 45.0443L26.8323 45.5187ZM26.8352 45.5275L25.38 45.8913L25.3819 45.8991L26.8372 45.5353L28.2924 45.1715L28.2904 45.1637L26.8352 45.5275ZM26.8372 45.5353L25.402 45.9715C25.6564 46.8086 25.905 47.7625 26.1477 48.5052L27.5735 48.0392L28.9993 47.5732C28.7487 46.8067 28.6016 46.1825 28.2723 45.0991L26.8372 45.5353ZM27.5735 48.0392L26.1477 48.5052C26.2585 48.8441 26.3742 49.1594 26.4992 49.4438L27.8723 48.84L29.2454 48.2362C29.1725 48.0702 29.0909 47.8535 28.9993 47.5732L27.5735 48.0392ZM27.8723 48.84L29.1841 49.5675C29.4199 49.1423 29.6654 48.6953 29.8822 48.2167L28.5159 47.5978L27.1495 46.9788C26.989 47.3332 26.7988 47.6829 26.5606 48.1124L27.8723 48.84ZM28.5159 47.5978L29.9077 48.1572C30.2691 47.2579 30.5409 46.3108 30.7587 45.1714L29.2854 44.8898L27.8121 44.6082C27.6248 45.5879 27.4027 46.3452 27.1241 47.0384L28.5159 47.5978ZM29.2854 44.8898L30.6782 44.3328C30.6594 44.286 30.6516 44.2661 30.6306 44.2134L29.2375 44.7697L27.8445 45.326C27.8554 45.3532 27.8793 45.4134 27.8926 45.4468L29.2854 44.8898ZM29.2375 44.7697L30.6306 44.2134C30.7567 44.5292 30.6524 44.8693 30.4186 45.0666L29.4514 43.92L28.4842 42.7735C27.7699 43.3761 27.4724 44.3941 27.8445 45.326L29.2375 44.7697ZM29.4514 43.92L30.934 44.148L31.0346 43.4937L29.552 43.2657L28.0694 43.0378L27.9688 43.6921L29.4514 43.92ZM29.552 43.2657L31.0328 43.5047C31.3586 41.4861 31.8034 39.3495 32.2253 37.2294L30.7542 36.9366L29.283 36.6439C28.8691 38.7237 28.4082 40.9382 28.0712 43.0268L29.552 43.2657ZM30.7542 36.9366L32.2253 37.2294C32.7046 34.8205 33.1561 32.4283 33.3411 30.3395L31.8469 30.2072L30.3528 30.0748C30.1841 31.9794 29.7652 34.2205 29.283 36.6439L30.7542 36.9366ZM31.8469 30.2072L33.3411 30.3395C33.3742 29.9655 33.3992 29.5877 33.4207 29.2092L31.9231 29.1241L30.4255 29.0391C30.405 29.4005 30.3821 29.744 30.3528 30.0748L31.8469 30.2072ZM31.9231 29.1241L33.3928 28.8243C32.9489 26.6483 32.4327 24.2942 31.9373 22.061L30.4729 22.3859L29.0085 22.7107C29.5035 24.9422 30.0149 27.2749 30.4534 29.424L31.9231 29.1241ZM30.4729 22.3859L31.9373 22.061C31.0504 18.0626 30.2518 14.5223 30.057 13.0271L28.5696 13.2208L27.0821 13.4146C27.2994 15.0827 28.1459 18.8222 29.0085 22.7107L30.4729 22.3859ZM28.5696 13.2208L30.057 13.0272C30.1107 13.4392 29.8203 13.8141 29.4109 13.8674L29.217 12.38L29.0231 10.8926C27.7924 11.053 26.9216 12.181 27.0821 13.4145L28.5696 13.2208ZM29.217 12.38L29.4098 13.8676C29.0022 13.9204 28.6243 13.6337 28.5704 13.2201L30.0579 13.0265L31.5453 12.8328C31.3846 11.5981 30.253 10.7332 29.0243 10.8924L29.217 12.38ZM30.0579 13.0265L28.5704 13.2201C28.7661 14.7234 29.5159 18.0746 30.3357 21.7667L31.8 21.4415L33.2644 21.1164C32.4223 17.3242 31.7186 14.1639 31.5453 12.8328L30.0579 13.0265ZM31.8 21.4415L33.297 21.3457C33.2147 20.0606 33.1089 18.6717 32.977 17.1589L31.4827 17.2892L29.9883 17.4195C30.1185 18.9125 30.2225 20.2782 30.3031 21.5374L31.8 21.4415ZM31.4827 17.2892L32.9638 17.0518C32.961 17.0347 32.9584 17.0199 32.9561 17.0081C32.9539 16.9963 32.9519 16.9863 32.9504 16.9791C32.9489 16.9719 32.9476 16.966 32.9469 16.9628C32.9465 16.9612 32.9462 16.9598 32.9461 16.9591C32.946 16.9587 32.9459 16.9583 32.9459 16.9582C32.9458 16.958 32.9458 16.9579 32.9458 16.9579C32.9458 16.9579 32.9459 16.9585 32.9461 16.9593C32.9463 16.9602 32.9466 16.9615 32.947 16.9632C32.9477 16.9665 32.9487 16.9715 32.95 16.9778C32.9525 16.9902 32.9562 17.0092 32.9599 17.0325L31.4788 17.2697L29.9976 17.5068C30.002 17.5338 30.0063 17.5563 30.0095 17.5723C30.0111 17.5802 30.0125 17.587 30.0136 17.592C30.0146 17.5968 30.0155 17.6007 30.0158 17.6022C30.0159 17.6026 30.016 17.603 30.016 17.6032C30.0161 17.6033 30.0161 17.6034 30.0161 17.6034C30.0161 17.6035 30.0161 17.6035 30.0161 17.6035C30.0161 17.6035 30.0161 17.6035 30.0161 17.6034C30.0161 17.6033 30.016 17.6033 30.016 17.6031C30.016 17.6029 30.0159 17.6025 30.0158 17.6021C30.0154 17.6005 30.0145 17.5962 30.0133 17.5905C30.0121 17.5848 30.0104 17.5763 30.0084 17.566C30.0065 17.5556 30.0041 17.5422 30.0016 17.5266L31.4827 17.2892ZM31.4788 17.2697L32.9601 17.0339C32.9553 17.0035 32.9537 16.9911 32.9416 16.9127L31.4592 17.1417L29.9768 17.3708C29.9817 17.4021 29.9928 17.4767 29.9974 17.5054L31.4788 17.2697ZM31.4592 17.1417L32.9416 16.9126C32.9246 16.8022 32.9011 16.6511 32.8747 16.4668L31.3899 16.6798L29.9051 16.8928C29.9341 17.0951 29.9599 17.261 29.9768 17.3708L31.4592 17.1417ZM31.3899 16.6798L32.8747 16.4669C32.821 16.0923 32.7525 15.5797 32.6926 15.0307L31.2014 15.1935L29.7103 15.3562C29.7748 15.9473 29.848 16.4947 29.9051 16.8928L31.3899 16.6798ZM31.2014 15.1935L32.6926 15.0307C32.6325 14.4802 32.5821 13.9013 32.5637 13.3915L31.0647 13.4454L29.5657 13.4994C29.5877 14.1113 29.6463 14.77 29.7103 15.3562L31.2014 15.1935ZM31.0647 13.4454L32.5637 13.3915C32.5447 12.8637 32.5638 12.4747 32.6111 12.2676L31.1487 11.9337L29.6863 11.5998C29.5451 12.2185 29.5458 12.947 29.5657 13.4993L31.0647 13.4454ZM33.5989 48.7491L32.7934 47.4837C32.6822 47.5545 32.5625 47.6261 32.4345 47.6985L33.1731 49.004L33.9117 50.3096C34.0783 50.2153 34.2432 50.1171 34.4043 50.0146L33.5989 48.7491ZM33.1731 49.004L31.9693 49.899C32.0208 49.9682 32.0885 50.0597 32.1588 50.149L33.3372 49.2208L34.5155 48.2926C34.4765 48.2432 34.4362 48.1888 34.3769 48.1091L33.1731 49.004ZM33.3372 49.2208L32.159 50.1492C32.177 50.172 32.1929 50.1912 32.2048 50.2053C32.2162 50.2188 32.2265 50.2306 32.2311 50.2359C32.2376 50.2434 32.2371 50.2428 32.2365 50.2421C32.235 50.2404 32.229 50.2333 32.2207 50.223L33.3899 49.2833L34.5591 48.3437C34.5423 48.3228 34.5276 48.3054 34.5174 48.2934C34.508 48.2824 34.4985 48.2715 34.4961 48.2687C34.4917 48.2637 34.493 48.2652 34.4956 48.2683C34.4987 48.2718 34.5059 48.2804 34.5153 48.2924L33.3372 49.2208ZM33.3899 49.2833L34.7766 49.8553C34.8655 49.6396 34.9414 49.4449 35.0071 49.2657L33.5989 48.7491L32.1906 48.2326C32.14 48.3706 32.0788 48.5282 32.0032 48.7114L33.3899 49.2833ZM30.2786 47.1105L28.8474 46.6614C28.7424 46.9958 28.6329 47.3081 28.5122 47.6075L29.9036 48.1681L31.2949 48.7286C31.4505 48.3424 31.586 47.9539 31.7098 47.5595L30.2786 47.1105ZM29.9036 48.1681L28.5443 47.5338L28.5375 47.5484L29.8967 48.1827L31.256 48.8171L31.2628 48.8024L29.9036 48.1681ZM29.8967 48.1827L28.518 47.5919L28.5122 47.6055L29.8909 48.1964L31.2696 48.7873L31.2754 48.7736L29.8967 48.1827ZM29.8909 48.1964L28.5233 47.5802C28.4304 47.7863 28.3279 47.9927 28.2172 48.2048L29.5471 48.8986L30.877 49.5923C31.0044 49.3483 31.1345 49.0876 31.2584 48.8126L29.8909 48.1964ZM29.5471 48.8986L29.976 50.3359C30.4285 50.2009 30.8895 50.0421 31.3403 49.8659L30.7942 48.4689L30.2481 47.0718C29.8725 47.2186 29.4898 47.3503 29.1183 47.4612L29.5471 48.8986ZM30.7942 48.4689L31.3403 49.8659C31.408 49.8395 31.5324 49.7874 31.547 49.7815L30.9827 48.3917L30.4184 47.0019C30.3078 47.0468 30.3076 47.0486 30.2481 47.0718L30.7942 48.4689ZM30.9827 48.3917L32.276 47.632C32.0539 47.2539 31.8315 46.8489 31.6115 46.4226L30.2786 47.1105L28.9456 47.7984C29.1881 48.2682 29.4367 48.7215 29.6893 49.1515L30.9827 48.3917ZM32.8284 34.0304L31.3505 33.7736C31.1718 34.8021 30.9673 35.8644 30.7537 36.9378L32.2249 37.2306L33.696 37.5233C33.9116 36.4398 34.1215 35.3505 34.3062 34.2872L32.8284 34.0304ZM32.2249 37.2306L30.7537 36.9378C30.276 39.3382 29.7535 41.8359 29.4182 44.1385L30.9026 44.3546L32.3869 44.5708C32.7078 42.367 33.2084 39.9735 33.696 37.5233L32.2249 37.2306ZM30.9026 44.3546L29.4142 44.1686L29.4132 44.1764L30.9016 44.3624L32.39 44.5485L32.391 44.5407L30.9026 44.3546ZM30.9016 44.3624L29.4198 44.1297C29.4026 44.2394 29.3853 44.3333 29.3616 44.4716L30.8401 44.7247L32.3186 44.9779C32.3355 44.8789 32.362 44.7314 32.3835 44.5951L30.9016 44.3624ZM30.8401 44.7247L29.453 45.2956C29.6398 45.7495 29.8611 46.2648 30.2208 46.9984L31.5676 46.338L32.9144 45.6776C32.5896 45.0152 32.395 44.5616 32.2272 44.1539L30.8401 44.7247ZM31.5676 46.338L30.2325 47.0217C30.5055 47.5549 30.7821 48.0563 31.0576 48.5184L32.3459 47.7501L33.6343 46.9819C33.3949 46.5804 33.1493 46.1359 32.9028 45.6544L31.5676 46.338ZM32.3459 47.7501L33.0702 49.0637C33.55 48.7992 34.0143 48.4988 34.3858 48.1695L33.3909 47.047L32.3959 45.9245C32.2537 46.0505 31.9994 46.2283 31.6217 46.4366L32.3459 47.7501ZM33.3909 47.047L34.3861 48.1693C34.2306 48.3071 34.034 48.3671 33.85 48.3574L33.929 46.8595L34.0079 45.3616C33.4436 45.3318 32.8582 45.5145 32.3957 45.9247L33.3909 47.047ZM33.929 46.8595L35.4277 46.9202C35.4761 45.7253 35.4957 44.2287 35.5186 42.6083L34.0188 42.587L32.5189 42.5658C32.4958 44.2035 32.4766 45.653 32.4302 46.7988L33.929 46.8595ZM34.0188 42.587L35.5159 42.4938C35.3306 39.5205 34.7856 36.7738 34.3096 33.7938L32.8284 34.0304L31.3471 34.267C31.8458 37.3889 32.3483 39.8975 32.5217 42.6803L34.0188 42.587Z" fill="white" mask="url(#path-1-outside-1_34_99)"/>
</svg>
