<svg width="64" height="64" viewBox="0 0 64 64" fill="none" xmlns="http://www.w3.org/2000/svg">
<mask id="path-1-outside-1_34_104" maskUnits="userSpaceOnUse" x="17.2012" y="12.3986" width="29" height="40" fill="black">
<rect fill="white" x="17.2012" y="12.3986" width="29" height="40"/>
<path d="M39.4531 15.0363C39.6536 14.6738 40.1102 14.5429 40.4727 14.7433C40.8349 14.9438 40.9668 15.3995 40.7666 15.7618C40.037 17.081 38.5806 20.4059 36.9238 24.1525C35.756 26.7932 34.4942 29.6246 33.3457 32.0392C34.2944 33.5837 35.2338 35.3548 36.1631 37.1486C37.3006 39.3443 38.4274 41.5743 39.5781 43.5392L39.583 43.546C40.3455 44.8819 40.8366 45.9978 41.1797 47.1417L41.1836 47.1573L41.1875 47.171C41.2531 47.4267 41.3079 47.6822 41.3574 47.9347C41.6025 47.5814 41.8406 47.2046 42.0625 46.8204C42.659 45.7876 43.084 44.7832 43.2041 44.088C43.2746 43.6799 43.6632 43.4053 44.0713 43.4757C44.4791 43.5464 44.7529 43.935 44.6826 44.3429C44.5178 45.2972 43.9895 46.4837 43.3613 47.5714C42.7271 48.6695 41.9399 49.753 41.1914 50.4982L40.918 50.7697L40.5391 50.7062C39.8338 50.5883 39.1207 50.186 38.4561 49.7501C37.807 49.3244 37.0232 48.7381 36.3057 48.2452C35.6414 47.8106 35.1892 47.5629 34.4717 47.3409C34.0761 47.2186 33.8545 46.7981 33.9766 46.4025C34.0989 46.0069 34.5185 45.7853 34.9141 45.9073C35.8138 46.1856 36.3969 46.5126 37.127 46.9904L37.1406 47.0001C37.9681 47.5678 38.6146 48.0609 39.2783 48.4962C39.5508 48.6749 39.7947 48.8206 40.0127 48.9347C39.931 48.4529 39.852 48.0057 39.7393 47.5626C39.4361 46.5551 38.9974 45.5491 38.2832 44.297L37.8438 43.5314C36.8203 41.7205 35.815 39.7391 34.8301 37.838C34.066 36.3632 33.3121 34.9381 32.5635 33.6534C32.3752 34.0327 32.1933 34.396 32.0156 34.7384C30.5671 37.5301 29.3466 40.1629 27.6738 42.754L27.6582 42.7765L27.6416 42.7999C26.4192 44.4118 25.305 45.894 24.4561 46.9034L24.4385 46.9249L24.4199 46.9445C24.0299 47.3447 23.6189 47.6662 22.9658 48.0753C23.4432 47.9885 24.001 47.8775 24.5967 47.7511C25.2175 47.6194 25.8623 47.4763 26.4727 47.3409C27.0812 47.206 27.6586 47.0775 28.1387 46.9757C28.5438 46.8899 28.9423 47.1488 29.0283 47.5538C29.1141 47.9589 28.8552 48.3574 28.4502 48.4435C27.9785 48.5435 27.4087 48.6701 26.7969 48.8058C26.1871 48.941 25.5366 49.0846 24.9082 49.2179C23.6781 49.4789 22.4548 49.717 21.7939 49.7521L21.4307 49.7716L21.1904 49.4982C20.908 49.1769 20.7368 48.7649 20.6299 48.3439C20.5213 47.9158 20.4663 47.4255 20.4492 46.9015C20.4151 45.8535 20.5322 44.5857 20.7539 43.2277L20.7559 43.2159C20.9602 42.0849 21.1222 41.4639 21.2852 40.838C21.3895 40.4373 21.7985 40.1968 22.1992 40.3009C22.6001 40.4053 22.8417 40.8151 22.7373 41.2159C22.5785 41.826 22.427 42.4054 22.2324 43.4825C22.0204 44.7846 21.9186 45.9419 21.9482 46.8527C21.9491 46.8801 21.952 46.9078 21.9531 46.9347C22.6712 46.4994 23.0155 46.2324 23.3242 45.9191C24.1364 44.9514 25.2075 43.5269 26.4297 41.9152C28.0429 39.4117 29.2007 36.9048 30.6836 34.047C30.9854 33.4654 31.3028 32.8227 31.6348 32.1368C31.5832 32.0574 31.534 31.9772 31.4824 31.8995C29.6848 29.1918 27.1242 26.2271 23.1309 22.0372C23.1265 22.0333 23.1209 22.0287 23.1152 22.0236C23.0931 22.0034 23.0614 21.9732 23.0205 21.9357C22.9384 21.8603 22.821 21.7519 22.6787 21.6183C22.3941 21.3511 22.0072 20.9818 21.6025 20.5753C21.1992 20.1701 20.7703 19.7215 20.4043 19.296C20.0518 18.8863 19.7096 18.444 19.5254 18.0626C19.3455 17.6898 19.5023 17.2408 19.875 17.0607C20.2478 16.8809 20.6958 17.0377 20.876 17.4103C20.9679 17.6005 21.1957 17.9149 21.542 18.3175C21.8749 18.7045 22.2755 19.1255 22.666 19.5177C23.0552 19.9087 23.4288 20.2661 23.7051 20.5255C23.8425 20.6546 23.9556 20.759 24.0342 20.8312C24.0732 20.8671 24.1044 20.8954 24.125 20.9142C24.1352 20.9235 24.1433 20.931 24.1484 20.9357C24.151 20.938 24.1541 20.9395 24.1553 20.9406V20.9415L24.1768 20.9611L24.1963 20.9816C27.9706 24.9408 30.5323 27.8735 32.3857 30.5607C33.4118 28.3687 34.5134 25.8941 35.5518 23.546C37.1855 19.8515 38.6813 16.432 39.4531 15.0363Z"/>
</mask>
<path d="M39.4531 15.0363C39.6536 14.6738 40.1102 14.5429 40.4727 14.7433C40.8349 14.9438 40.9668 15.3995 40.7666 15.7618C40.037 17.081 38.5806 20.4059 36.9238 24.1525C35.756 26.7932 34.4942 29.6246 33.3457 32.0392C34.2944 33.5837 35.2338 35.3548 36.1631 37.1486C37.3006 39.3443 38.4274 41.5743 39.5781 43.5392L39.583 43.546C40.3455 44.8819 40.8366 45.9978 41.1797 47.1417L41.1836 47.1573L41.1875 47.171C41.2531 47.4267 41.3079 47.6822 41.3574 47.9347C41.6025 47.5814 41.8406 47.2046 42.0625 46.8204C42.659 45.7876 43.084 44.7832 43.2041 44.088C43.2746 43.6799 43.6632 43.4053 44.0713 43.4757C44.4791 43.5464 44.7529 43.935 44.6826 44.3429C44.5178 45.2972 43.9895 46.4837 43.3613 47.5714C42.7271 48.6695 41.9399 49.753 41.1914 50.4982L40.918 50.7697L40.5391 50.7062C39.8338 50.5883 39.1207 50.186 38.4561 49.7501C37.807 49.3244 37.0232 48.7381 36.3057 48.2452C35.6414 47.8106 35.1892 47.5629 34.4717 47.3409C34.0761 47.2186 33.8545 46.7981 33.9766 46.4025C34.0989 46.0069 34.5185 45.7853 34.9141 45.9073C35.8138 46.1856 36.3969 46.5126 37.127 46.9904L37.1406 47.0001C37.9681 47.5678 38.6146 48.0609 39.2783 48.4962C39.5508 48.6749 39.7947 48.8206 40.0127 48.9347C39.931 48.4529 39.852 48.0057 39.7393 47.5626C39.4361 46.5551 38.9974 45.5491 38.2832 44.297L37.8438 43.5314C36.8203 41.7205 35.815 39.7391 34.8301 37.838C34.066 36.3632 33.3121 34.9381 32.5635 33.6534C32.3752 34.0327 32.1933 34.396 32.0156 34.7384C30.5671 37.5301 29.3466 40.1629 27.6738 42.754L27.6582 42.7765L27.6416 42.7999C26.4192 44.4118 25.305 45.894 24.4561 46.9034L24.4385 46.9249L24.4199 46.9445C24.0299 47.3447 23.6189 47.6662 22.9658 48.0753C23.4432 47.9885 24.001 47.8775 24.5967 47.7511C25.2175 47.6194 25.8623 47.4763 26.4727 47.3409C27.0812 47.206 27.6586 47.0775 28.1387 46.9757C28.5438 46.8899 28.9423 47.1488 29.0283 47.5538C29.1141 47.9589 28.8552 48.3574 28.4502 48.4435C27.9785 48.5435 27.4087 48.6701 26.7969 48.8058C26.1871 48.941 25.5366 49.0846 24.9082 49.2179C23.6781 49.4789 22.4548 49.717 21.7939 49.7521L21.4307 49.7716L21.1904 49.4982C20.908 49.1769 20.7368 48.7649 20.6299 48.3439C20.5213 47.9158 20.4663 47.4255 20.4492 46.9015C20.4151 45.8535 20.5322 44.5857 20.7539 43.2277L20.7559 43.2159C20.9602 42.0849 21.1222 41.4639 21.2852 40.838C21.3895 40.4373 21.7985 40.1968 22.1992 40.3009C22.6001 40.4053 22.8417 40.8151 22.7373 41.2159C22.5785 41.826 22.427 42.4054 22.2324 43.4825C22.0204 44.7846 21.9186 45.9419 21.9482 46.8527C21.9491 46.8801 21.952 46.9078 21.9531 46.9347C22.6712 46.4994 23.0155 46.2324 23.3242 45.9191C24.1364 44.9514 25.2075 43.5269 26.4297 41.9152C28.0429 39.4117 29.2007 36.9048 30.6836 34.047C30.9854 33.4654 31.3028 32.8227 31.6348 32.1368C31.5832 32.0574 31.534 31.9772 31.4824 31.8995C29.6848 29.1918 27.1242 26.2271 23.1309 22.0372C23.1265 22.0333 23.1209 22.0287 23.1152 22.0236C23.0931 22.0034 23.0614 21.9732 23.0205 21.9357C22.9384 21.8603 22.821 21.7519 22.6787 21.6183C22.3941 21.3511 22.0072 20.9818 21.6025 20.5753C21.1992 20.1701 20.7703 19.7215 20.4043 19.296C20.0518 18.8863 19.7096 18.444 19.5254 18.0626C19.3455 17.6898 19.5023 17.2408 19.875 17.0607C20.2478 16.8809 20.6958 17.0377 20.876 17.4103C20.9679 17.6005 21.1957 17.9149 21.542 18.3175C21.8749 18.7045 22.2755 19.1255 22.666 19.5177C23.0552 19.9087 23.4288 20.2661 23.7051 20.5255C23.8425 20.6546 23.9556 20.759 24.0342 20.8312C24.0732 20.8671 24.1044 20.8954 24.125 20.9142C24.1352 20.9235 24.1433 20.931 24.1484 20.9357C24.151 20.938 24.1541 20.9395 24.1553 20.9406V20.9415L24.1768 20.9611L24.1963 20.9816C27.9706 24.9408 30.5323 27.8735 32.3857 30.5607C33.4118 28.3687 34.5134 25.8941 35.5518 23.546C37.1855 19.8515 38.6813 16.432 39.4531 15.0363Z" fill="black"/>
<path d="M39.4531 15.0363L38.1405 14.3102L38.1405 14.3103L39.4531 15.0363ZM40.4727 14.7433L41.199 13.4309L41.1984 13.4305L40.4727 14.7433ZM40.7666 15.7618L42.0792 16.4878L42.0796 16.4871L40.7666 15.7618ZM36.9238 24.1525L38.2957 24.7591L38.2957 24.7591L36.9238 24.1525ZM33.3457 32.0392L31.9911 31.3949L31.6413 32.1303L32.0675 32.8242L33.3457 32.0392ZM36.1631 37.1486L37.495 36.4586L37.495 36.4586L36.1631 37.1486ZM39.5781 43.5392L38.2838 44.2972L38.3181 44.3558L38.3575 44.411L39.5781 43.5392ZM39.583 43.546L40.8857 42.8024L40.8479 42.7362L40.8036 42.6742L39.583 43.546ZM41.1797 47.1417L42.6349 46.7779L42.6265 46.7441L42.6164 46.7108L41.1797 47.1417ZM41.1836 47.1573L39.7284 47.5212L39.7344 47.5454L39.7413 47.5694L41.1836 47.1573ZM41.1875 47.171L42.6405 46.7983L42.6354 46.7786L42.6298 46.7589L41.1875 47.171ZM41.3574 47.9347L39.8854 48.2232L40.5679 51.7048L42.59 48.7896L41.3574 47.9347ZM42.0625 46.8204L43.3614 47.5706L43.3614 47.5706L42.0625 46.8204ZM43.2041 44.088L41.726 43.8326L41.726 43.8327L43.2041 44.088ZM44.0713 43.4757L44.3276 41.9978L44.3264 41.9976L44.0713 43.4757ZM44.6826 44.3429L46.1607 44.5981L46.1608 44.5976L44.6826 44.3429ZM43.3613 47.5714L44.6602 48.3217L44.6602 48.3216L43.3613 47.5714ZM41.1914 50.4982L42.2483 51.5626L42.2497 51.5612L41.1914 50.4982ZM40.918 50.7697L40.6701 52.249L41.4289 52.3761L41.9748 51.8341L40.918 50.7697ZM40.5391 50.7062L40.7869 49.2268L40.7864 49.2267L40.5391 50.7062ZM38.4561 49.7501L37.6334 51.0044L37.6334 51.0044L38.4561 49.7501ZM36.3057 48.2452L37.155 47.0088L37.1411 46.9993L37.127 46.9901L36.3057 48.2452ZM34.4717 47.3409L34.0284 48.774L34.0284 48.774L34.4717 47.3409ZM33.9766 46.4025L32.5435 45.9593L32.5433 45.9601L33.9766 46.4025ZM34.9141 45.9073L35.3572 44.4743L35.3564 44.4741L34.9141 45.9073ZM37.127 46.9904L37.9988 45.7698L37.9739 45.752L37.9483 45.7352L37.127 46.9904ZM37.1406 47.0001L36.2688 48.2207L36.2803 48.229L36.292 48.237L37.1406 47.0001ZM39.2783 48.4962L38.4556 49.7505L38.4557 49.7505L39.2783 48.4962ZM40.0127 48.9347L39.3172 50.2637L41.9975 51.6662L41.4916 48.6838L40.0127 48.9347ZM39.7393 47.5626L41.193 47.1929L41.185 47.1615L41.1757 47.1305L39.7393 47.5626ZM38.2832 44.297L39.5861 43.5538L39.5841 43.5503L38.2832 44.297ZM37.8438 43.5314L36.5379 44.2695L36.5428 44.2781L37.8438 43.5314ZM34.8301 37.838L36.162 37.148L36.162 37.148L34.8301 37.838ZM32.5635 33.6534L33.8595 32.8982L32.4578 30.4929L31.2199 32.9865L32.5635 33.6534ZM32.0156 34.7384L30.6842 34.0476L30.6842 34.0476L32.0156 34.7384ZM27.6738 42.754L28.9052 43.6106L28.92 43.5894L28.934 43.5676L27.6738 42.754ZM27.6582 42.7765L28.8823 43.6435L28.8896 43.6331L27.6582 42.7765ZM27.6416 42.7999L28.8368 43.7063L28.8515 43.6869L28.8656 43.667L27.6416 42.7999ZM24.4561 46.9034L23.3081 45.9379L23.3016 45.9457L23.2951 45.9536L24.4561 46.9034ZM24.4385 46.9249L25.526 47.9581L25.5642 47.9178L25.5994 47.8748L24.4385 46.9249ZM24.4199 46.9445L25.4942 47.9913L25.5009 47.9845L25.5074 47.9776L24.4199 46.9445ZM22.9658 48.0753L22.1695 46.8041L23.2342 49.5511L22.9658 48.0753ZM24.5967 47.7511L24.908 49.2184L24.908 49.2184L24.5967 47.7511ZM26.4727 47.3409L26.7974 48.8054L26.7974 48.8054L26.4727 47.3409ZM28.1387 46.9757L27.8277 45.5083L27.8275 45.5083L28.1387 46.9757ZM29.0283 47.5538L30.4958 47.2431L30.4956 47.2421L29.0283 47.5538ZM28.4502 48.4435L28.7613 49.9109L28.762 49.9107L28.4502 48.4435ZM26.7969 48.8058L27.1216 50.2702L27.1216 50.2702L26.7969 48.8058ZM24.9082 49.2179L25.2195 50.6852L25.2195 50.6852L24.9082 49.2179ZM21.7939 49.7521L21.7144 48.2542L21.7134 48.2542L21.7939 49.7521ZM21.4307 49.7716L20.3038 50.7616L20.7843 51.3085L21.5112 51.2694L21.4307 49.7716ZM21.1904 49.4982L22.3173 48.5081L22.3169 48.5077L21.1904 49.4982ZM20.6299 48.3439L19.176 48.7129L19.176 48.7131L20.6299 48.3439ZM20.4492 46.9015L18.95 46.9502L18.95 46.9503L20.4492 46.9015ZM20.7539 43.2277L19.2743 42.9811L19.2735 42.986L20.7539 43.2277ZM20.7559 43.2159L19.2798 42.9492L19.2779 42.9593L19.2763 42.9693L20.7559 43.2159ZM21.2852 40.838L22.7368 41.216L22.7368 41.216L21.2852 40.838ZM22.1992 40.3009L22.5772 38.8493L22.5763 38.8491L22.1992 40.3009ZM22.7373 41.2159L24.1889 41.5939L24.1889 41.5939L22.7373 41.2159ZM22.2324 43.4825L20.7563 43.2158L20.754 43.2286L20.7519 43.2415L22.2324 43.4825ZM21.9482 46.8527L20.449 46.9014L20.449 46.9015L21.9482 46.8527ZM21.9531 46.9347L20.4545 46.9984L20.5621 49.5319L22.7307 48.2174L21.9531 46.9347ZM23.3242 45.9191L24.3927 46.9718L24.4347 46.9292L24.4731 46.8834L23.3242 45.9191ZM26.4297 41.9152L27.6249 42.8215L27.6595 42.7759L27.6906 42.7277L26.4297 41.9152ZM30.6836 34.047L29.3522 33.3561L29.3522 33.3561L30.6836 34.047ZM31.6348 32.1368L32.9849 32.7904L33.3533 32.0293L32.8929 31.3201L31.6348 32.1368ZM31.4824 31.8995L32.7321 31.0699L32.7321 31.0699L31.4824 31.8995ZM23.1309 22.0372L24.2167 21.0023L24.1794 20.9633L24.1395 20.927L23.1309 22.0372ZM23.1152 22.0236L22.1053 23.1327L22.1054 23.1327L23.1152 22.0236ZM23.0205 21.9357L22.0057 23.0403L22.0057 23.0403L23.0205 21.9357ZM22.6787 21.6183L21.652 22.7118L21.652 22.7118L22.6787 21.6183ZM21.6025 20.5753L20.5395 21.6336L20.5395 21.6336L21.6025 20.5753ZM20.4043 19.296L19.2671 20.2742L19.2672 20.2742L20.4043 19.296ZM19.5254 18.0626L18.1744 18.7144L18.1747 18.715L19.5254 18.0626ZM19.875 17.0607L19.2236 15.7095L19.2222 15.7102L19.875 17.0607ZM20.876 17.4103L22.2267 16.7579L22.2264 16.7573L20.876 17.4103ZM21.542 18.3175L20.4048 19.2957L20.4049 19.2957L21.542 18.3175ZM22.666 19.5177L21.6029 20.5759L21.603 20.576L22.666 19.5177ZM23.7051 20.5255L22.6783 21.619L22.6783 21.619L23.7051 20.5255ZM24.0342 20.8312L23.0193 21.9358L23.0194 21.9358L24.0342 20.8312ZM24.125 20.9142L23.1151 22.0233L23.1152 22.0234L24.125 20.9142ZM24.1484 20.9357L23.1404 22.0465L23.1409 22.047L24.1484 20.9357ZM24.1553 20.9406H25.6553V20.2749L25.1617 19.8283L24.1553 20.9406ZM24.1553 20.9415H22.6553V21.6051L23.1463 22.0514L24.1553 20.9415ZM24.1768 20.9611L25.263 19.9266L25.2257 19.8875L25.1858 19.8511L24.1768 20.9611ZM24.1963 20.9816L23.1101 22.0161L23.1106 22.0166L24.1963 20.9816ZM32.3857 30.5607L31.151 31.4123L32.6357 33.5649L33.7443 31.1966L32.3857 30.5607ZM35.5518 23.546L36.9236 24.1527L36.9236 24.1527L35.5518 23.546ZM39.4531 15.0363L40.7657 15.7623C40.5644 16.1262 40.1078 16.2556 39.7469 16.056L40.4727 14.7433L41.1984 13.4305C40.1126 12.8303 38.7428 13.2215 38.1405 14.3102L39.4531 15.0363ZM40.4727 14.7433L39.7463 16.0557C39.3863 15.8564 39.2522 15.4011 39.4536 15.0365L40.7666 15.7618L42.0796 16.4871C42.6813 15.3978 42.2834 14.0311 41.199 13.4309L40.4727 14.7433ZM40.7666 15.7618L39.454 15.0359C38.6822 16.4314 37.1858 19.8512 35.552 23.5458L36.9238 24.1525L38.2957 24.7591C39.9755 20.9606 41.3919 17.7305 42.0792 16.4878L40.7666 15.7618ZM36.9238 24.1525L35.552 23.5458C34.3839 26.1873 33.1296 29.0012 31.9911 31.3949L33.3457 32.0392L34.7003 32.6835C35.8587 30.2479 37.1282 27.3992 38.2957 24.7591L36.9238 24.1525ZM33.3457 32.0392L32.0675 32.8242C32.9849 34.3178 33.9025 36.0459 34.8312 37.8386L36.1631 37.1486L37.495 36.4586C36.5651 34.6637 35.6038 32.8496 34.6239 31.2541L33.3457 32.0392ZM36.1631 37.1486L34.8312 37.8386C35.9568 40.0112 37.1077 42.2892 38.2838 44.2972L39.5781 43.5392L40.8725 42.7811C39.747 40.8594 38.6445 38.6775 37.495 36.4586L36.1631 37.1486ZM39.5781 43.5392L38.3575 44.411L38.3624 44.4179L39.583 43.546L40.8036 42.6742L40.7987 42.6673L39.5781 43.5392ZM39.583 43.546L38.2803 44.2896C38.9991 45.5489 39.4391 46.5597 39.7429 47.5727L41.1797 47.1417L42.6164 46.7108C42.234 45.4358 41.692 44.2149 40.8857 42.8024L39.583 43.546ZM41.1797 47.1417L39.7245 47.5055L39.7284 47.5212L41.1836 47.1573L42.6388 46.7935L42.6349 46.7779L41.1797 47.1417ZM41.1836 47.1573L39.7413 47.5694L39.7452 47.5831L41.1875 47.171L42.6298 46.7589L42.6259 46.7453L41.1836 47.1573ZM41.1875 47.171L39.7345 47.5437C39.7906 47.7622 39.8393 47.9877 39.8854 48.2232L41.3574 47.9347L42.8294 47.6461C42.7766 47.3767 42.7156 47.0911 42.6405 46.7983L41.1875 47.171ZM41.3574 47.9347L42.59 48.7896C42.8598 48.4006 43.1199 47.9887 43.3614 47.5706L42.0625 46.8204L40.7636 46.0702C40.5613 46.4204 40.3452 46.7622 40.1249 47.0798L41.3574 47.9347ZM42.0625 46.8204L43.3614 47.5706C43.989 46.484 44.5173 45.2981 44.6822 44.3434L43.2041 44.088L41.726 43.8327C41.6508 44.2682 41.329 45.0912 40.7636 46.0702L42.0625 46.8204ZM43.2041 44.088L44.6822 44.3434C44.612 44.7499 44.2259 45.0246 43.8162 44.9539L44.0713 43.4757L44.3264 41.9976C43.1004 41.786 41.9373 42.6099 41.726 43.8326L43.2041 44.088ZM44.0713 43.4757L43.8149 44.9536C43.4065 44.8828 43.1342 44.4955 43.2044 44.0882L44.6826 44.3429L46.1608 44.5976C46.3716 43.3745 45.5516 42.2101 44.3276 41.9978L44.0713 43.4757ZM44.6826 44.3429L43.2045 44.0877C43.0845 44.7827 42.6592 45.7879 42.0624 46.8212L43.3613 47.5714L44.6602 48.3216C45.3198 47.1796 45.9512 45.8118 46.1607 44.5981L44.6826 44.3429ZM43.3613 47.5714L42.0624 46.8212C41.4721 47.8431 40.7612 48.8099 40.1332 49.4351L41.1914 50.4982L42.2497 51.5612C43.1187 50.6961 43.982 49.4958 44.6602 48.3217L43.3613 47.5714ZM41.1914 50.4982L40.1346 49.4337L39.8611 49.7052L40.918 50.7697L41.9748 51.8341L42.2483 51.5626L41.1914 50.4982ZM40.918 50.7697L41.1658 49.2903L40.7869 49.2268L40.5391 50.7062L40.2912 52.1856L40.6701 52.249L40.918 50.7697ZM40.5391 50.7062L40.7864 49.2267C40.4158 49.1647 39.9297 48.9228 39.2787 48.4958L38.4561 49.7501L37.6334 51.0044C38.3116 51.4492 39.2518 52.0118 40.2917 52.1856L40.5391 50.7062ZM38.4561 49.7501L39.2787 48.4958C38.6241 48.0665 37.9703 47.5689 37.155 47.0088L36.3057 48.2452L35.4564 49.4816C36.0761 49.9074 36.9898 50.5823 37.6334 51.0044L38.4561 49.7501ZM36.3057 48.2452L37.127 46.9901C36.3957 46.5115 35.8132 46.1858 34.9149 45.9079L34.4717 47.3409L34.0284 48.774C34.5651 48.9399 34.8871 49.1096 35.4843 49.5004L36.3057 48.2452ZM34.4717 47.3409L34.9149 45.9079C35.3115 46.0306 35.5317 46.4502 35.4098 46.8449L33.9766 46.4025L32.5433 45.9601C32.1773 47.1459 32.8408 48.4066 34.0284 48.774L34.4717 47.3409ZM33.9766 46.4025L35.4096 46.8456C35.2874 47.2408 34.8678 47.4629 34.4717 47.3406L34.9141 45.9073L35.3564 44.4741C34.1691 44.1076 32.9104 44.773 32.5435 45.9593L33.9766 46.4025ZM34.9141 45.9073L34.4709 47.3404C35.1892 47.5625 35.6419 47.8112 36.3056 48.2455L37.127 46.9904L37.9483 45.7352C37.152 45.2141 36.4385 44.8087 35.3572 44.4743L34.9141 45.9073ZM37.127 46.9904L36.2551 48.211L36.2688 48.2207L37.1406 47.0001L38.0125 45.7795L37.9988 45.7698L37.127 46.9904ZM37.1406 47.0001L36.292 48.237C37.0108 48.7302 37.8037 49.3228 38.4556 49.7505L39.2783 48.4962L40.101 47.2419C39.4256 46.7989 38.9253 46.4054 37.9892 45.7632L37.1406 47.0001ZM39.2783 48.4962L38.4557 49.7505C38.7567 49.9479 39.0441 50.1208 39.3172 50.2637L40.0127 48.9347L40.7081 47.6056C40.5453 47.5205 40.3449 47.4019 40.101 47.2419L39.2783 48.4962ZM40.0127 48.9347L41.4916 48.6838C41.41 48.2032 41.3223 47.7015 41.193 47.1929L39.7393 47.5626L38.2855 47.9324C38.3816 48.3099 38.4519 48.7026 38.5338 49.1856L40.0127 48.9347ZM39.7393 47.5626L41.1757 47.1305C40.8332 45.9923 40.3436 44.8818 39.5861 43.5538L38.2832 44.297L36.9803 45.0402C37.6512 46.2164 38.039 47.1179 38.3029 47.9948L39.7393 47.5626ZM38.2832 44.297L39.5841 43.5503L39.1447 42.7847L37.8438 43.5314L36.5428 44.2781L36.9823 45.0437L38.2832 44.297ZM37.8438 43.5314L39.1496 42.7933C38.1435 41.0133 37.156 39.0668 36.162 37.148L34.8301 37.838L33.4982 38.528C34.4739 40.4115 35.497 42.4278 36.5379 44.2694L37.8438 43.5314ZM34.8301 37.838L36.162 37.148C35.3961 35.6698 34.6279 34.2169 33.8595 32.8982L32.5635 33.6534L31.2675 34.4087C31.9963 35.6593 32.7359 37.0567 33.4982 38.528L34.8301 37.838ZM32.5635 33.6534L31.2199 32.9865C31.0326 33.3638 30.8555 33.7175 30.6842 34.0476L32.0156 34.7384L33.3471 35.4293C33.5311 35.0746 33.7179 34.7015 33.907 34.3204L32.5635 33.6534ZM32.0156 34.7384L30.6842 34.0476C29.197 36.9138 28.0352 39.4288 26.4136 41.9404L27.6738 42.754L28.934 43.5676C30.6581 40.8971 31.9372 38.1465 33.3471 35.4292L32.0156 34.7384ZM27.6738 42.754L26.4425 41.8974L26.4268 41.9199L27.6582 42.7765L28.8896 43.6331L28.9052 43.6106L27.6738 42.754ZM27.6582 42.7765L26.4342 41.9095L26.4176 41.9329L27.6416 42.7999L28.8656 43.667L28.8822 43.6435L27.6582 42.7765ZM27.6416 42.7999L26.4464 41.8935C25.2097 43.5243 24.1259 44.9656 23.3081 45.9379L24.4561 46.9034L25.604 47.8689C26.4842 46.8225 27.6287 45.2992 28.8368 43.7063L27.6416 42.7999ZM24.4561 46.9034L23.2951 45.9536L23.2775 45.9751L24.4385 46.9249L25.5994 47.8748L25.617 47.8533L24.4561 46.9034ZM24.4385 46.9249L23.351 45.8918L23.3324 45.9113L24.4199 46.9445L25.5074 47.9776L25.526 47.9581L24.4385 46.9249ZM24.4199 46.9445L23.3456 45.8976C23.0617 46.189 22.7531 46.4386 22.1695 46.8041L22.9658 48.0753L23.7621 49.3465C24.4847 48.8939 24.9982 48.5004 25.4942 47.9913L24.4199 46.9445ZM22.9658 48.0753L23.2342 49.5511C23.7293 49.4611 24.3018 49.347 24.908 49.2184L24.5967 47.7511L24.2854 46.2838C23.7001 46.4079 23.1571 46.516 22.6975 46.5995L22.9658 48.0753ZM24.5967 47.7511L24.908 49.2184C25.5368 49.085 26.1885 48.9404 26.7974 48.8054L26.4727 47.3409L26.1479 45.8765C25.5361 46.0122 24.8983 46.1537 24.2853 46.2838L24.5967 47.7511ZM26.4727 47.3409L26.7974 48.8054C27.4093 48.6697 27.9783 48.5431 28.4498 48.4431L28.1387 46.9757L27.8275 45.5083C27.3389 45.6119 26.753 45.7423 26.1479 45.8765L26.4727 47.3409ZM28.1387 46.9757L28.4497 48.4431C28.0448 48.5289 27.6471 48.2707 27.5611 47.8655L29.0283 47.5538L30.4956 47.2421C30.2374 46.0269 29.0428 45.2508 27.8277 45.5083L28.1387 46.9757ZM29.0283 47.5538L27.5609 47.8646C27.4752 47.46 27.733 47.0624 28.1384 46.9762L28.4502 48.4435L28.762 49.9107C29.9773 49.6525 30.753 48.4578 30.4958 47.2431L29.0283 47.5538ZM28.4502 48.4435L28.1391 46.9761C27.6589 47.0779 27.081 47.2063 26.4721 47.3414L26.7969 48.8058L27.1216 50.2702C27.7363 50.1339 28.298 50.0091 28.7613 49.9109L28.4502 48.4435ZM26.7969 48.8058L26.4721 47.3414C25.8626 47.4765 25.218 47.6188 24.5969 47.7506L24.9082 49.2179L25.2195 50.6852C25.8552 50.5504 26.5115 50.4055 27.1216 50.2702L26.7969 48.8058ZM24.9082 49.2179L24.5969 47.7506C23.3289 48.0196 22.2331 48.2267 21.7144 48.2542L21.7939 49.7521L21.8734 51.25C22.6766 51.2073 24.0272 50.9382 25.2195 50.6852L24.9082 49.2179ZM21.7939 49.7521L21.7134 48.2542L21.3501 48.2738L21.4307 49.7716L21.5112 51.2694L21.8745 51.2499L21.7939 49.7521ZM21.4307 49.7716L22.5575 48.7816L22.3173 48.5081L21.1904 49.4982L20.0636 50.4882L20.3038 50.7616L21.4307 49.7716ZM21.1904 49.4982L22.3169 48.5077C22.2498 48.4314 22.1589 48.2707 22.0837 47.9746L20.6299 48.3439L19.176 48.7131C19.3147 49.2591 19.5661 49.9225 20.0639 50.4886L21.1904 49.4982ZM20.6299 48.3439L22.0838 47.9749C22.0104 47.6858 21.9633 47.3108 21.9484 46.8527L20.4492 46.9015L18.95 46.9503C18.9692 47.5403 19.0321 48.1459 19.176 48.7129L20.6299 48.3439ZM20.4492 46.9015L21.9484 46.8527C21.9187 45.9387 22.0209 44.7763 22.2343 43.4694L20.7539 43.2277L19.2735 42.986C19.0434 44.3951 18.9116 45.7682 18.95 46.9502L20.4492 46.9015ZM20.7539 43.2277L22.2335 43.4743L22.2355 43.4625L20.7559 43.2159L19.2763 42.9693L19.2743 42.9811L20.7539 43.2277ZM20.7559 43.2159L22.232 43.4826C22.4265 42.4059 22.5778 41.8266 22.7368 41.216L21.2852 40.838L19.8336 40.4601C19.6666 41.1012 19.4939 41.764 19.2798 42.9492L20.7559 43.2159ZM21.2852 40.838L22.7368 41.216C22.6327 41.6156 22.2239 41.8571 21.8221 41.7527L22.1992 40.3009L22.5763 38.8491C21.3731 38.5366 20.1463 39.259 19.8336 40.4601L21.2852 40.838ZM22.1992 40.3009L21.8213 41.7525C21.4238 41.649 21.1805 41.2422 21.2857 40.838L22.7373 41.2159L24.1889 41.5939C24.5029 40.388 23.7763 39.1615 22.5772 38.8493L22.1992 40.3009ZM22.7373 41.2159L21.2857 40.838C21.123 41.4631 20.9608 42.0843 20.7563 43.2158L22.2324 43.4825L23.7085 43.7492C23.8933 42.7265 24.034 42.1889 24.1889 41.5939L22.7373 41.2159ZM22.2324 43.4825L20.7519 43.2415C20.5317 44.5941 20.4151 45.8566 20.449 46.9014L21.9482 46.8527L23.4475 46.8039C23.4222 46.0271 23.5092 44.975 23.7129 43.7236L22.2324 43.4825ZM21.9482 46.8527L20.449 46.9015C20.4505 46.9469 20.4534 46.9866 20.4543 46.9993C20.4546 47.0041 20.4548 47.0057 20.4549 47.0085C20.455 47.0095 20.4551 47.0103 20.4551 47.0108C20.4551 47.0113 20.4552 47.0115 20.4552 47.0115C20.4552 47.0115 20.4551 47.0112 20.4551 47.0106C20.4551 47.0101 20.455 47.0093 20.455 47.0082C20.4548 47.0061 20.4547 47.0027 20.4545 46.9984L21.9531 46.9347L23.4518 46.871C23.4508 46.8493 23.4497 46.8305 23.4489 46.8173C23.4481 46.8051 23.4472 46.7925 23.4469 46.7885C23.4464 46.7822 23.4465 46.7822 23.4466 46.7839C23.4467 46.7861 23.4471 46.7934 23.4474 46.8038L21.9482 46.8527ZM21.9531 46.9347L22.7307 48.2174C23.5036 47.7489 23.9631 47.4079 24.3927 46.9718L23.3242 45.9191L22.2557 44.8663C22.068 45.0569 21.8387 45.25 21.1756 45.6519L21.9531 46.9347ZM23.3242 45.9191L24.4731 46.8834C25.3159 45.8794 26.4169 44.4145 27.6249 42.8215L26.4297 41.9152L25.2345 41.0088C23.998 42.6393 22.957 44.0234 22.1753 44.9547L23.3242 45.9191ZM26.4297 41.9152L27.6906 42.7277C29.3546 40.1454 30.5715 37.5199 32.015 34.7378L30.6836 34.047L29.3522 33.3561C27.83 36.2897 26.7312 38.678 25.1688 41.1027L26.4297 41.9152ZM30.6836 34.047L32.015 34.7378C32.3261 34.1384 32.6504 33.4816 32.9849 32.7904L31.6348 32.1368L30.2846 31.4833C29.9552 32.1638 29.6447 32.7923 29.3522 33.3561L30.6836 34.047ZM31.6348 32.1368L32.8929 31.3201C32.8801 31.3004 32.7782 31.1393 32.7321 31.0699L31.4824 31.8995L30.2327 32.7292C30.2899 32.8152 30.2862 32.8144 30.3766 32.9536L31.6348 32.1368ZM31.4824 31.8995L32.7321 31.0699C30.8575 28.2462 28.2197 25.2024 24.2167 21.0023L23.1309 22.0372L22.045 23.0721C26.0287 27.2519 28.5121 30.1374 30.2327 32.7292L31.4824 31.8995ZM23.1309 22.0372L24.1395 20.927C24.1328 20.9209 24.1269 20.9156 24.1222 20.9115C24.1175 20.9073 24.1135 20.9038 24.1105 20.9013C24.1076 20.8987 24.1051 20.8966 24.1036 20.8953C24.1028 20.8946 24.1022 20.8941 24.1017 20.8937C24.1011 20.8931 24.1012 20.8932 24.1009 20.8929C24.0999 20.8921 24.1026 20.8944 24.1063 20.8977C24.1103 20.9011 24.1168 20.9069 24.125 20.9144L23.1152 22.0236L22.1054 23.1327C22.1164 23.1428 22.1259 23.1511 22.1326 23.1569C22.1391 23.1626 22.1445 23.1673 22.1462 23.1688C22.1466 23.1691 22.1473 23.1697 22.1473 23.1697C22.1476 23.1699 22.1475 23.1699 22.1474 23.1698C22.1472 23.1696 22.146 23.1686 22.1443 23.1671C22.1425 23.1655 22.1397 23.1631 22.1362 23.16C22.1326 23.1569 22.1279 23.1526 22.1222 23.1475L23.1309 22.0372ZM23.1152 22.0236L24.1251 20.9145C24.1253 20.9146 24.1248 20.9141 24.1235 20.913C24.1222 20.9118 24.1205 20.9101 24.1181 20.9079C24.1129 20.9031 24.1072 20.8977 24.0987 20.8898C24.0827 20.8749 24.0606 20.8543 24.0353 20.8311L23.0205 21.9357L22.0057 23.0403C22.0213 23.0546 22.0355 23.0679 22.0511 23.0825C22.0639 23.0944 22.0856 23.1147 22.1053 23.1327L23.1152 22.0236ZM23.0205 21.9357L24.0353 20.8311C23.9558 20.758 23.8426 20.6535 23.7055 20.5248L22.6787 21.6183L21.652 22.7118C21.7994 22.8503 21.921 22.9625 22.0057 23.0403L23.0205 21.9357ZM22.6787 21.6183L23.7055 20.5248C23.4283 20.2645 23.0544 19.9076 22.6656 19.5171L21.6025 20.5753L20.5395 21.6336C20.96 22.056 21.36 22.4377 21.652 22.7118L22.6787 21.6183ZM21.6025 20.5753L22.6656 19.5171C22.2743 19.124 21.8738 18.7042 21.5414 18.3178L20.4043 19.296L19.2672 20.2742C19.6668 20.7388 20.124 21.2162 20.5395 21.6336L21.6025 20.5753ZM20.4043 19.296L21.5415 18.3178C21.1965 17.9168 20.9684 17.6013 20.8761 17.4102L19.5254 18.0626L18.1747 18.715C18.4509 19.2868 18.9072 19.8558 19.2671 20.2742L20.4043 19.296ZM19.5254 18.0626L20.8764 17.4109C21.0566 17.7845 20.8998 18.2313 20.5278 18.4111L19.875 17.0607L19.2222 15.7102C18.1048 16.2504 17.6344 17.5951 18.1744 18.7144L19.5254 18.0626ZM19.875 17.0607L20.5264 18.4118C20.152 18.5924 19.705 18.4343 19.5256 18.0633L20.876 17.4103L22.2264 16.7573C21.6866 15.6411 20.3436 15.1695 19.2236 15.7095L19.875 17.0607ZM20.876 17.4103L19.5253 18.0627C19.7101 18.4454 20.0545 18.8885 20.4048 19.2957L21.542 18.3175L22.6792 17.3393C22.5242 17.1591 22.4067 17.0114 22.3241 16.8985C22.2326 16.7734 22.2143 16.7323 22.2267 16.7579L20.876 17.4103ZM21.542 18.3175L20.4049 19.2957C20.7707 19.721 21.1993 20.1705 21.6029 20.5759L22.666 19.5177L23.7291 18.4595C23.3518 18.0804 22.9791 17.6879 22.6791 17.3393L21.542 18.3175ZM22.666 19.5177L21.603 20.576C22.0073 20.9821 22.3935 21.3516 22.6783 21.619L23.7051 20.5255L24.7318 19.432C24.464 19.1805 24.1032 18.8352 23.7291 18.4594L22.666 19.5177ZM23.7051 20.5255L22.6783 21.619C22.8207 21.7527 22.938 21.861 23.0193 21.9358L24.0342 20.8312L25.049 19.7266C24.9733 19.657 24.8643 19.5564 24.7318 19.432L23.7051 20.5255ZM24.0342 20.8312L23.0194 21.9358C23.0611 21.9741 23.0944 22.0044 23.1151 22.0233L24.125 20.9142L25.1349 19.8051C25.1145 19.7865 25.0854 19.76 25.049 19.7266L24.0342 20.8312ZM24.125 20.9142L23.1152 22.0234C23.1172 22.0252 23.1194 22.0272 23.1229 22.0305C23.1243 22.0318 23.1271 22.0343 23.1294 22.0364C23.1318 22.0386 23.1358 22.0423 23.1404 22.0465L24.1484 20.9357L25.1565 19.8249C25.1585 19.8267 25.1596 19.8277 25.1587 19.8269C25.1577 19.826 25.1569 19.8252 25.1543 19.8229C25.15 19.8189 25.143 19.8125 25.1348 19.805L24.125 20.9142ZM24.1484 20.9357L23.1409 22.047C23.1673 22.0709 23.192 22.0915 23.2139 22.109C23.2357 22.1264 23.2556 22.1413 23.2726 22.1535C23.2895 22.1658 23.3043 22.1759 23.3159 22.1837C23.3274 22.1914 23.3368 22.1975 23.3422 22.201C23.3449 22.2027 23.3471 22.2041 23.3481 22.2047C23.3486 22.2051 23.349 22.2053 23.349 22.2053C23.3492 22.2054 23.3488 22.2052 23.3484 22.205C23.3477 22.2045 23.3454 22.203 23.3423 22.201C23.3392 22.199 23.3344 22.1959 23.3285 22.192C23.3226 22.1881 23.3146 22.1828 23.3052 22.1763C23.2958 22.1699 23.2838 22.1615 23.27 22.1514C23.2563 22.1414 23.239 22.1284 23.2195 22.1128C23.2001 22.0974 23.1759 22.0773 23.1489 22.0528L24.1553 20.9406L25.1617 19.8283C25.1345 19.8037 25.1101 19.7835 25.0906 19.7678C25.0708 19.7521 25.0534 19.739 25.0395 19.7288C25.0254 19.7186 25.0132 19.71 25.0036 19.7034C24.994 19.6968 24.9858 19.6913 24.9796 19.6873C24.9735 19.6832 24.9684 19.6799 24.965 19.6778C24.9617 19.6756 24.9591 19.674 24.9581 19.6733C24.9575 19.673 24.9571 19.6727 24.957 19.6727C24.9569 19.6726 24.9572 19.6728 24.9575 19.673C24.9582 19.6734 24.9601 19.6746 24.9625 19.6762C24.9673 19.6793 24.9761 19.6849 24.9869 19.6922C24.9979 19.6995 25.012 19.7092 25.0283 19.721C25.0445 19.7327 25.0638 19.7471 25.085 19.764C25.1062 19.7809 25.1302 19.801 25.1559 19.8244L24.1484 20.9357ZM24.1553 20.9406H22.6553V20.9415H24.1553H25.6553V20.9406H24.1553ZM24.1553 20.9415L23.1463 22.0514L23.1677 22.071L24.1768 20.9611L25.1858 19.8511L25.1643 19.8316L24.1553 20.9415ZM24.1768 20.9611L23.0906 21.9955L23.1101 22.0161L24.1963 20.9816L25.2825 19.9471L25.263 19.9266L24.1768 20.9611ZM24.1963 20.9816L23.1106 22.0166C26.8747 25.965 29.368 28.8273 31.151 31.4123L32.3857 30.5607L33.6205 29.709C31.6967 26.9197 29.0666 23.9166 25.282 19.9466L24.1963 20.9816ZM32.3857 30.5607L33.7443 31.1966C34.7779 28.9885 35.8853 26.5007 36.9236 24.1527L35.5518 23.546L34.1799 22.9394C33.1415 25.2875 32.0458 27.7488 31.0272 29.9247L32.3857 30.5607ZM35.5518 23.546L36.9236 24.1527C38.5802 20.4065 40.0361 17.0816 40.7658 15.7622L39.4531 15.0363L38.1405 14.3103C37.3264 15.7824 35.7909 19.2965 34.1799 22.9394L35.5518 23.546Z" fill="white" mask="url(#path-1-outside-1_34_104)"/>
</svg>
