<svg width="64" height="64" viewBox="0 0 64 64" fill="none" xmlns="http://www.w3.org/2000/svg">
<mask id="path-1-outside-1_34_109" maskUnits="userSpaceOnUse" x="12.0562" y="14.0672" width="38" height="36" fill="black">
<rect fill="white" x="12.0562" y="14.0672" width="38" height="36"/>
<path d="M43.0601 17.3904C43.4334 16.9839 44.0663 16.9568 44.4731 17.3299C44.88 17.7032 44.9069 18.336 44.5337 18.743C43.5246 19.8434 41.3381 22.7198 38.8423 25.9803C37.3831 27.8865 35.8278 29.9086 34.3755 31.7332C35.2976 32.4925 36.2354 33.3038 37.1704 34.1219C39.0347 35.753 40.8918 37.4108 42.6743 38.8143L42.6841 38.8211C43.8933 39.7952 44.7725 40.6674 45.5239 41.6248L45.5493 41.658C45.5883 41.712 45.6248 41.7678 45.6626 41.8221C45.7082 41.5908 45.7491 41.3554 45.7847 41.1199C45.961 39.9508 45.9845 38.8948 45.8511 38.2469C45.7398 37.7062 46.0878 37.1778 46.6284 37.0662C47.1693 36.9548 47.6976 37.3028 47.8091 37.8436C48.0133 38.835 47.9521 40.1663 47.7632 41.4188C47.5718 42.6872 47.2304 44.0066 46.7944 44.9998L46.5874 45.4705L46.0845 45.577C45.3296 45.7364 44.474 45.6105 43.6938 45.4471C42.9379 45.2887 41.9686 45.0247 41.1421 44.8328C40.3777 44.6735 39.8908 44.6106 39.1733 44.6639C38.6229 44.7044 38.1441 44.2914 38.103 43.741C38.0622 43.1904 38.4753 42.7098 39.0259 42.6688C39.9966 42.5967 40.6835 42.6932 41.5503 42.8738L41.561 42.8758L41.5718 42.8797C42.5706 43.1107 43.3249 43.3268 44.104 43.4901C44.2084 43.5119 44.3083 43.5294 44.4028 43.5467C44.2516 43.3043 44.1021 43.0721 43.9409 42.8475C43.3057 42.0402 42.5448 41.2787 41.437 40.3856L40.7466 39.8318C39.1266 38.5156 37.4626 37.0342 35.854 35.6268C34.921 34.8104 34.0065 34.019 33.1206 33.2889C32.5764 33.9539 32.0585 34.5745 31.5767 35.1287C29.5225 37.4917 27.7052 39.7819 25.4595 41.9188L25.4321 41.9442L25.4028 41.9686C23.8395 43.2457 22.4022 44.4309 21.3335 45.2176L21.3032 45.2401L21.272 45.2586C21.0679 45.3869 20.8634 45.5007 20.6421 45.6072C20.8005 45.6125 20.9633 45.6182 21.1294 45.6229C21.7625 45.6405 22.4213 45.6531 23.0464 45.6649C23.6691 45.6765 24.2623 45.6882 24.7544 45.702C25.3061 45.7176 25.7412 46.1766 25.7261 46.7283C25.7106 47.2804 25.2498 47.7165 24.6978 47.701C24.2173 47.6875 23.636 47.6766 23.0093 47.6649C22.3848 47.6531 21.7172 47.6398 21.0737 47.6219C19.9796 47.5914 18.8726 47.5452 18.1616 47.45L17.8813 47.4061L17.4058 47.3172L17.1802 46.8895C16.9554 46.4626 16.8828 45.9773 16.8774 45.5213C16.872 45.056 16.9367 44.5476 17.0454 44.0233C17.2628 42.9746 17.6806 41.7533 18.2183 40.4774L18.2212 40.4686L18.2251 40.4617C18.693 39.4018 18.9995 38.8293 19.3062 38.2567C19.5671 37.7703 20.173 37.5879 20.6597 37.8484C21.146 38.1093 21.3292 38.7143 21.0688 39.201C20.774 39.7515 20.4956 40.2705 20.061 41.2537C19.6149 42.3123 19.28 43.2769 19.0815 44.0858C19.5971 43.905 19.896 43.7601 20.1763 43.5867C21.1836 42.843 22.5461 41.7214 24.1069 40.4461C26.2493 38.4034 27.9477 36.2551 30.0679 33.8162C30.5306 33.284 31.0285 32.6875 31.5532 32.0467C31.2258 31.7983 30.9049 31.5603 30.5884 31.3387C27.9459 29.4891 24.4973 27.6728 19.2554 25.2342C19.2524 25.2331 19.2488 25.2325 19.2456 25.2313C19.2173 25.2205 19.1757 25.2036 19.1235 25.1834C19.0188 25.1429 18.869 25.0842 18.687 25.0115C18.3228 24.8661 17.8256 24.6624 17.2974 24.4305C16.7711 24.1995 16.2023 23.935 15.6987 23.6688C15.2195 23.4154 14.7133 23.1173 14.3765 22.8055C13.9712 22.4303 13.9476 21.7967 14.3228 21.3914C14.698 20.9867 15.3308 20.9627 15.7358 21.3377C15.8651 21.4572 16.1657 21.6539 16.6333 21.9012C17.077 22.1358 17.5972 22.3782 18.1011 22.5994C18.603 22.8198 19.0789 23.0142 19.4292 23.1541C19.6037 23.2238 19.7464 23.28 19.8452 23.3182C19.8946 23.3373 19.9338 23.3523 19.9595 23.3621C19.9721 23.3669 19.9815 23.3715 19.9878 23.3738C19.9909 23.375 19.9942 23.3753 19.9956 23.3758L19.9966 23.3768L20.0308 23.3895L20.0659 23.4051C25.3437 25.8595 28.9347 27.741 31.7349 29.701C32.0885 29.9485 32.446 30.2137 32.8091 30.4901C34.2419 28.6898 35.7873 26.681 37.2544 24.7645C39.7044 21.5638 41.9724 18.5765 43.0601 17.3904Z"/>
</mask>
<path d="M43.0601 17.3904C43.4334 16.9839 44.0663 16.9568 44.4731 17.3299C44.88 17.7032 44.9069 18.336 44.5337 18.743C43.5246 19.8434 41.3381 22.7198 38.8423 25.9803C37.3831 27.8865 35.8278 29.9086 34.3755 31.7332C35.2976 32.4925 36.2354 33.3038 37.1704 34.1219C39.0347 35.753 40.8918 37.4108 42.6743 38.8143L42.6841 38.8211C43.8933 39.7952 44.7725 40.6674 45.5239 41.6248L45.5493 41.658C45.5883 41.712 45.6248 41.7678 45.6626 41.8221C45.7082 41.5908 45.7491 41.3554 45.7847 41.1199C45.961 39.9508 45.9845 38.8948 45.8511 38.2469C45.7398 37.7062 46.0878 37.1778 46.6284 37.0662C47.1693 36.9548 47.6976 37.3028 47.8091 37.8436C48.0133 38.835 47.9521 40.1663 47.7632 41.4188C47.5718 42.6872 47.2304 44.0066 46.7944 44.9998L46.5874 45.4705L46.0845 45.577C45.3296 45.7364 44.474 45.6105 43.6938 45.4471C42.9379 45.2887 41.9686 45.0247 41.1421 44.8328C40.3777 44.6735 39.8908 44.6106 39.1733 44.6639C38.6229 44.7044 38.1441 44.2914 38.103 43.741C38.0622 43.1904 38.4753 42.7098 39.0259 42.6688C39.9966 42.5967 40.6835 42.6932 41.5503 42.8738L41.561 42.8758L41.5718 42.8797C42.5706 43.1107 43.3249 43.3268 44.104 43.4901C44.2084 43.5119 44.3083 43.5294 44.4028 43.5467C44.2516 43.3043 44.1021 43.0721 43.9409 42.8475C43.3057 42.0402 42.5448 41.2787 41.437 40.3856L40.7466 39.8318C39.1266 38.5156 37.4626 37.0342 35.854 35.6268C34.921 34.8104 34.0065 34.019 33.1206 33.2889C32.5764 33.9539 32.0585 34.5745 31.5767 35.1287C29.5225 37.4917 27.7052 39.7819 25.4595 41.9188L25.4321 41.9442L25.4028 41.9686C23.8395 43.2457 22.4022 44.4309 21.3335 45.2176L21.3032 45.2401L21.272 45.2586C21.0679 45.3869 20.8634 45.5007 20.6421 45.6072C20.8005 45.6125 20.9633 45.6182 21.1294 45.6229C21.7625 45.6405 22.4213 45.6531 23.0464 45.6649C23.6691 45.6765 24.2623 45.6882 24.7544 45.702C25.3061 45.7176 25.7412 46.1766 25.7261 46.7283C25.7106 47.2804 25.2498 47.7165 24.6978 47.701C24.2173 47.6875 23.636 47.6766 23.0093 47.6649C22.3848 47.6531 21.7172 47.6398 21.0737 47.6219C19.9796 47.5914 18.8726 47.5452 18.1616 47.45L17.8813 47.4061L17.4058 47.3172L17.1802 46.8895C16.9554 46.4626 16.8828 45.9773 16.8774 45.5213C16.872 45.056 16.9367 44.5476 17.0454 44.0233C17.2628 42.9746 17.6806 41.7533 18.2183 40.4774L18.2212 40.4686L18.2251 40.4617C18.693 39.4018 18.9995 38.8293 19.3062 38.2567C19.5671 37.7703 20.173 37.5879 20.6597 37.8484C21.146 38.1093 21.3292 38.7143 21.0688 39.201C20.774 39.7515 20.4956 40.2705 20.061 41.2537C19.6149 42.3123 19.28 43.2769 19.0815 44.0858C19.5971 43.905 19.896 43.7601 20.1763 43.5867C21.1836 42.843 22.5461 41.7214 24.1069 40.4461C26.2493 38.4034 27.9477 36.2551 30.0679 33.8162C30.5306 33.284 31.0285 32.6875 31.5532 32.0467C31.2258 31.7983 30.9049 31.5603 30.5884 31.3387C27.9459 29.4891 24.4973 27.6728 19.2554 25.2342C19.2524 25.2331 19.2488 25.2325 19.2456 25.2313C19.2173 25.2205 19.1757 25.2036 19.1235 25.1834C19.0188 25.1429 18.869 25.0842 18.687 25.0115C18.3228 24.8661 17.8256 24.6624 17.2974 24.4305C16.7711 24.1995 16.2023 23.935 15.6987 23.6688C15.2195 23.4154 14.7133 23.1173 14.3765 22.8055C13.9712 22.4303 13.9476 21.7967 14.3228 21.3914C14.698 20.9867 15.3308 20.9627 15.7358 21.3377C15.8651 21.4572 16.1657 21.6539 16.6333 21.9012C17.077 22.1358 17.5972 22.3782 18.1011 22.5994C18.603 22.8198 19.0789 23.0142 19.4292 23.1541C19.6037 23.2238 19.7464 23.28 19.8452 23.3182C19.8946 23.3373 19.9338 23.3523 19.9595 23.3621C19.9721 23.3669 19.9815 23.3715 19.9878 23.3738C19.9909 23.375 19.9942 23.3753 19.9956 23.3758L19.9966 23.3768L20.0308 23.3895L20.0659 23.4051C25.3437 25.8595 28.9347 27.741 31.7349 29.701C32.0885 29.9485 32.446 30.2137 32.8091 30.4901C34.2419 28.6898 35.7873 26.681 37.2544 24.7645C39.7044 21.5638 41.9724 18.5765 43.0601 17.3904Z" fill="black"/>
<path d="M43.0601 17.3904L41.5869 16.0378L41.586 16.0387L43.0601 17.3904ZM44.4731 17.3299L45.8253 15.8563L45.8248 15.8558L44.4731 17.3299ZM44.5337 18.743L46.0077 20.0947L46.0078 20.0947L44.5337 18.743ZM38.8423 25.9803L40.4304 27.196L40.4304 27.196L38.8423 25.9803ZM34.3755 31.7332L32.8107 30.4877L31.5857 32.0267L33.1042 33.2771L34.3755 31.7332ZM37.1704 34.1219L38.4874 32.6167L38.4874 32.6167L37.1704 34.1219ZM42.6743 38.8143L41.4371 40.3857L41.4813 40.4205L41.5274 40.4527L42.6743 38.8143ZM42.6841 38.8211L43.9387 37.2636L43.8862 37.2213L43.831 37.1826L42.6841 38.8211ZM45.5239 41.6248L47.1126 40.4099L47.105 40.3999L47.0972 40.39L45.5239 41.6248ZM45.5493 41.658L47.1713 40.4879L47.155 40.4653L47.138 40.4431L45.5493 41.658ZM45.6626 41.8221L44.021 42.9645L46.7133 46.8331L47.6248 42.2089L45.6626 41.8221ZM45.7847 41.1199L47.7623 41.4183L47.7623 41.4183L45.7847 41.1199ZM45.8511 38.2469L43.8921 38.6499L43.8922 38.6503L45.8511 38.2469ZM46.6284 37.0662L46.225 35.1073L46.2241 35.1075L46.6284 37.0662ZM47.8091 37.8436L49.768 37.4402L49.7679 37.4396L47.8091 37.8436ZM47.7632 41.4188L49.7408 41.7172L49.7408 41.7171L47.7632 41.4188ZM46.7944 44.9998L48.6252 45.805L48.6258 45.8037L46.7944 44.9998ZM46.5874 45.4705L47.0015 47.4272L48.0051 47.2148L48.4181 46.2757L46.5874 45.4705ZM46.0845 45.577L46.4978 47.5338L46.4986 47.5336L46.0845 45.577ZM43.6938 45.4471L43.2838 47.4046L43.2838 47.4046L43.6938 45.4471ZM41.1421 44.8328L41.5944 42.8846L41.5723 42.8795L41.5501 42.8749L41.1421 44.8328ZM39.1733 44.6639L39.3203 46.6585L39.3214 46.6584L39.1733 44.6639ZM38.103 43.741L36.1085 43.8889L36.1086 43.8899L38.103 43.741ZM39.0259 42.6688L38.8779 40.6742L38.8773 40.6743L39.0259 42.6688ZM41.5503 42.8738L41.1423 44.8318L41.1673 44.837L41.1925 44.8416L41.5503 42.8738ZM41.561 42.8758L42.2445 40.9962L42.0854 40.9383L41.9188 40.9081L41.561 42.8758ZM41.5718 42.8797L40.8883 44.7593L41.0026 44.8008L41.1211 44.8283L41.5718 42.8797ZM44.104 43.4901L43.6939 45.4476L43.694 45.4476L44.104 43.4901ZM44.4028 43.5467L44.0436 45.5142L48.4937 46.3268L46.0998 42.4883L44.4028 43.5467ZM43.9409 42.8475L45.5657 41.6813L45.54 41.6454L45.5127 41.6107L43.9409 42.8475ZM41.437 40.3856L42.6923 38.8286L42.6883 38.8253L41.437 40.3856ZM40.7466 39.8318L39.4853 41.3841L39.4953 41.3921L40.7466 39.8318ZM35.854 35.6268L37.171 34.1216L37.171 34.1216L35.854 35.6268ZM33.1206 33.2889L34.3926 31.7455L32.8438 30.4691L31.5728 32.0223L33.1206 33.2889ZM31.5767 35.1287L30.0673 33.8166L30.0673 33.8166L31.5767 35.1287ZM25.4595 41.9188L26.8204 43.3843L26.8293 43.3761L26.8381 43.3677L25.4595 41.9188ZM25.4321 41.9442L26.7125 43.4806L26.7537 43.4462L26.793 43.4097L25.4321 41.9442ZM25.4028 41.9686L26.6682 43.5174L26.6757 43.5113L26.6832 43.505L25.4028 41.9686ZM21.3335 45.2176L20.1478 43.6069L20.1418 43.6114L21.3335 45.2176ZM21.3032 45.2401L22.3243 46.9598L22.4125 46.9074L22.4949 46.8462L21.3032 45.2401ZM21.272 45.2586L20.2509 43.5389L20.229 43.5519L20.2074 43.5655L21.272 45.2586ZM20.6421 45.6072L19.7743 43.8053L20.5752 47.6061L20.6421 45.6072ZM21.1294 45.6229L21.0736 47.6221L21.0736 47.6221L21.1294 45.6229ZM23.0464 45.6649L23.0839 43.6652L23.0839 43.6652L23.0464 45.6649ZM24.7544 45.702L24.811 43.7028L24.8104 43.7028L24.7544 45.702ZM25.7261 46.7283L27.7253 46.7844L27.7253 46.7832L25.7261 46.7283ZM24.6978 47.701L24.7538 45.7018L24.7538 45.7018L24.6978 47.701ZM23.0093 47.6649L22.9718 49.6645L22.9718 49.6645L23.0093 47.6649ZM21.0737 47.6219L21.0179 49.6211L21.018 49.6211L21.0737 47.6219ZM18.1616 47.45L17.8518 49.4259L17.874 49.4294L17.8963 49.4323L18.1616 47.45ZM17.8813 47.4061L17.514 49.372L17.5427 49.3774L17.5715 49.3819L17.8813 47.4061ZM17.4058 47.3172L15.6367 48.2502L16.0878 49.1055L17.0384 49.2832L17.4058 47.3172ZM17.1802 46.8895L15.4105 47.8213L15.4111 47.8225L17.1802 46.8895ZM16.8774 45.5213L14.8776 45.5445L14.8776 45.5448L16.8774 45.5213ZM17.0454 44.0233L15.0871 43.6172L15.087 43.6173L17.0454 44.0233ZM18.2183 40.4774L20.0613 41.254L20.0912 41.1829L20.1156 41.1098L18.2183 40.4774ZM18.2212 40.4686L16.4847 39.4763L16.3865 39.6482L16.3238 39.8361L18.2212 40.4686ZM18.2251 40.4617L19.9616 41.454L20.0129 41.3641L20.0547 41.2694L18.2251 40.4617ZM19.3062 38.2567L17.5437 37.3112L17.5431 37.3124L19.3062 38.2567ZM20.6597 37.8484L21.6048 36.0859L21.6037 36.0853L20.6597 37.8484ZM21.0688 39.201L22.8319 40.1452L22.8323 40.1444L21.0688 39.201ZM20.061 41.2537L18.2317 40.4452L18.2247 40.4611L18.218 40.4771L20.061 41.2537ZM19.0815 44.0858L17.1392 43.6091L16.2593 47.1944L19.7432 45.9731L19.0815 44.0858ZM20.1763 43.5867L21.2286 45.2875L21.2983 45.2444L21.3642 45.1957L20.1763 43.5867ZM24.1069 40.4461L25.3723 41.9949L25.4316 41.9464L25.4871 41.8936L24.1069 40.4461ZM30.0679 33.8162L31.5773 35.1284L31.5773 35.1284L30.0679 33.8162ZM31.5532 32.0467L33.1007 33.3138L34.4156 31.7079L32.7621 30.4534L31.5532 32.0467ZM30.5884 31.3387L31.7353 29.7002L31.7353 29.7002L30.5884 31.3387ZM19.2554 25.2342L20.099 23.4208L20.0245 23.3861L19.9473 23.3577L19.2554 25.2342ZM19.2456 25.2313L18.5325 27.0998L18.5326 27.0998L19.2456 25.2313ZM19.1235 25.1834L18.4021 27.0487L18.4021 27.0488L19.1235 25.1834ZM18.687 25.0115L17.9453 26.8689L17.9453 26.8689L18.687 25.0115ZM17.2974 24.4305L16.4934 26.2618L16.4935 26.2618L17.2974 24.4305ZM15.6987 23.6688L14.7638 25.4368L14.7639 25.4368L15.6987 23.6688ZM14.3765 22.8055L13.0178 24.2731L13.0179 24.2732L14.3765 22.8055ZM14.3228 21.3914L12.8562 20.0315L12.8551 20.0328L14.3228 21.3914ZM15.7358 21.3377L14.3772 22.8054L14.3782 22.8064L15.7358 21.3377ZM16.6333 21.9012L15.6984 23.6692L15.6985 23.6693L16.6333 21.9012ZM18.1011 22.5994L17.2971 24.4307L17.2972 24.4307L18.1011 22.5994ZM19.4292 23.1541L20.1709 21.2967L20.1709 21.2967L19.4292 23.1541ZM19.8452 23.3182L19.1237 25.1835L19.1238 25.1835L19.8452 23.3182ZM19.9595 23.3621L20.6736 21.4939L20.6725 21.4935L19.9595 23.3621ZM19.9878 23.3738L19.2786 25.2439L19.2885 25.2477L19.2986 25.2513L19.9878 23.3738ZM19.9956 23.3758L21.4098 21.9616L21.1057 21.6575L20.7035 21.5053L19.9956 23.3758ZM19.9966 23.3768L18.5824 24.791L18.891 25.0996L19.3002 25.2516L19.9966 23.3768ZM20.0308 23.3895L20.843 21.5618L20.7858 21.5364L20.7271 21.5146L20.0308 23.3895ZM20.0659 23.4051L20.9093 21.5916L20.8938 21.5844L20.8782 21.5775L20.0659 23.4051ZM31.7349 29.701L32.8818 28.0625L32.8818 28.0625L31.7349 29.701ZM32.8091 30.4901L31.5978 32.0815L33.1552 33.2668L34.3739 31.7355L32.8091 30.4901ZM37.2544 24.7645L38.8425 25.9801L38.8425 25.9801L37.2544 24.7645ZM43.0601 17.3904L44.5332 18.7431C44.1595 19.1502 43.5279 19.1767 43.1214 18.804L44.4731 17.3299L45.8248 15.8558C44.6046 14.7369 42.7073 14.8175 41.5869 16.0378L43.0601 17.3904ZM44.4731 17.3299L43.121 18.8035C42.713 18.4292 42.6875 17.7971 43.0596 17.3913L44.5337 18.743L46.0078 20.0947C47.1263 18.8749 47.0469 16.9772 45.8253 15.8563L44.4731 17.3299ZM44.5337 18.743L43.0596 17.3913C41.9719 18.5774 39.704 21.5642 37.2542 24.7646L38.8423 25.9803L40.4304 27.196C42.9722 23.8754 45.0773 21.1094 46.0077 20.0947L44.5337 18.743ZM38.8423 25.9803L37.2542 24.7646C35.7953 26.6704 34.2501 28.6792 32.8107 30.4877L34.3755 31.7332L35.9403 32.9787C37.4055 31.1379 38.9709 29.1027 40.4304 27.196L38.8423 25.9803ZM34.3755 31.7332L33.1042 33.2771C34.0025 34.0168 34.9221 34.8122 35.8535 35.6271L37.1704 34.1219L38.4874 32.6167C37.5487 31.7955 36.5927 30.9682 35.6468 30.1893L34.3755 31.7332ZM37.1704 34.1219L35.8535 35.6271C37.6919 37.2356 39.6023 38.941 41.4371 40.3857L42.6743 38.8143L43.9116 37.2429C42.1814 35.8806 40.3775 34.2704 38.4874 32.6167L37.1704 34.1219ZM42.6743 38.8143L41.5274 40.4527L41.5372 40.4596L42.6841 38.8211L43.831 37.1826L43.8212 37.1758L42.6743 38.8143ZM42.6841 38.8211L41.4294 40.3786C42.5474 41.2792 43.3119 42.0458 43.9506 42.8596L45.5239 41.6248L47.0972 40.39C46.2331 39.289 45.2393 38.3113 43.9387 37.2636L42.6841 38.8211ZM45.5239 41.6248L43.9352 42.8397L43.9606 42.8729L45.5493 41.658L47.138 40.4431L47.1126 40.4099L45.5239 41.6248ZM45.5493 41.658L43.9273 42.8281C43.9618 42.8759 43.932 42.8367 44.021 42.9645L45.6626 41.8221L47.3042 40.6796C47.2927 40.6632 47.2843 40.6505 47.2591 40.6136C47.2383 40.5831 47.2071 40.5375 47.1713 40.4879L45.5493 41.658ZM45.6626 41.8221L47.6248 42.2089C47.6762 41.9481 47.7223 41.6833 47.7623 41.4183L45.7847 41.1199L43.8071 40.8216C43.776 41.0276 43.7402 41.2334 43.7004 41.4353L45.6626 41.8221ZM45.7847 41.1199L47.7623 41.4183C47.951 40.1671 48.0143 38.8356 47.81 37.8435L45.8511 38.2469L43.8922 38.6503C43.9547 38.9541 43.971 39.7346 43.807 40.8216L45.7847 41.1199ZM45.8511 38.2469L47.81 37.8438C47.9214 38.385 47.5729 38.9134 47.0327 39.0249L46.6284 37.0662L46.2241 35.1075C44.6027 35.4422 43.5583 37.0273 43.8921 38.6499L45.8511 38.2469ZM46.6284 37.0662L47.0318 39.0251C46.4905 39.1366 45.9617 38.7878 45.8503 38.2475L47.8091 37.8436L49.7679 37.4396C49.4334 35.8178 47.848 34.7731 46.225 35.1073L46.6284 37.0662ZM47.8091 37.8436L45.8502 38.247C45.9839 38.8964 45.9616 39.9537 45.7856 41.1204L47.7632 41.4188L49.7408 41.7171C49.9427 40.379 50.0426 38.7737 49.768 37.4402L47.8091 37.8436ZM47.7632 41.4188L45.7856 41.1204C45.6116 42.2732 45.3079 43.4105 44.9631 44.1959L46.7944 44.9998L48.6258 45.8037C49.153 44.6027 49.532 43.1012 49.7408 41.7172L47.7632 41.4188ZM46.7944 44.9998L44.9637 44.1946L44.7567 44.6653L46.5874 45.4705L48.4181 46.2757L48.6252 45.805L46.7944 44.9998ZM46.5874 45.4705L46.1733 43.5139L45.6703 43.6203L46.0845 45.577L46.4986 47.5336L47.0015 47.4272L46.5874 45.4705ZM46.0845 45.577L45.6711 43.6201C45.3594 43.686 44.8643 43.6488 44.1039 43.4896L43.6938 45.4471L43.2838 47.4046C44.0837 47.5721 45.2998 47.7868 46.4978 47.5338L46.0845 45.577ZM43.6938 45.4471L44.1039 43.4896C43.3439 43.3304 42.5659 43.1102 41.5944 42.8846L41.1421 44.8328L40.6898 46.781C41.3712 46.9392 42.5319 47.2471 43.2838 47.4046L43.6938 45.4471ZM41.1421 44.8328L41.5501 42.8749C40.6856 42.6947 39.9976 42.5972 39.0253 42.6694L39.1733 44.6639L39.3214 46.6584C39.784 46.624 40.0698 46.6523 40.7341 46.7908L41.1421 44.8328ZM39.1733 44.6639L39.0264 42.6693C39.5777 42.6287 40.0565 43.0426 40.0975 43.5922L38.103 43.741L36.1086 43.8899C36.2317 45.5402 37.6682 46.7802 39.3203 46.6585L39.1733 44.6639ZM38.103 43.741L40.0976 43.5932C40.1382 44.1409 39.728 44.622 39.1745 44.6632L39.0259 42.6688L38.8773 40.6743C37.2225 40.7976 35.9863 42.2399 36.1085 43.8889L38.103 43.741ZM39.0259 42.6688L39.1739 44.6633C39.8909 44.6101 40.3773 44.6724 41.1423 44.8318L41.5503 42.8738L41.9583 40.9159C40.9898 40.7141 40.1023 40.5834 38.8779 40.6742L39.0259 42.6688ZM41.5503 42.8738L41.1925 44.8416L41.2033 44.8435L41.561 42.8758L41.9188 40.9081L41.9081 40.9061L41.5503 42.8738ZM41.561 42.8758L40.8775 44.7554L40.8883 44.7593L41.5718 42.8797L42.2553 41.0001L42.2445 40.9962L41.561 42.8758ZM41.5718 42.8797L41.1211 44.8283C41.9484 45.0196 42.9333 45.2882 43.6939 45.4476L44.104 43.4901L44.5141 41.5325C43.7165 41.3655 43.1927 41.2018 42.0225 40.9311L41.5718 42.8797ZM44.104 43.4901L43.694 45.4476C43.831 45.4763 43.9668 45.5001 44.0436 45.5142L44.4028 43.5467L44.7621 41.5792C44.6497 41.5587 44.5857 41.5475 44.514 41.5325L44.104 43.4901ZM44.4028 43.5467L46.0998 42.4883C45.9406 42.2329 45.7644 41.9581 45.5657 41.6813L43.9409 42.8475L42.3161 44.0136C42.4398 44.186 42.5627 44.3756 42.7058 44.6051L44.4028 43.5467ZM43.9409 42.8475L45.5127 41.6107C44.7651 40.6606 43.8902 39.7944 42.6923 38.8286L41.437 40.3856L40.1817 41.9426C41.1994 42.7631 41.8464 43.4199 42.3692 44.0842L43.9409 42.8475ZM41.437 40.3856L42.6883 38.8253L41.9979 38.2716L40.7466 39.8318L39.4953 41.3921L40.1857 41.9458L41.437 40.3856ZM40.7466 39.8318L42.0078 38.2796C40.4245 36.9932 38.7997 35.5466 37.171 34.1216L35.854 35.6268L34.537 37.132C36.1254 38.5217 37.8288 40.038 39.4854 41.384L40.7466 39.8318ZM35.854 35.6268L37.171 34.1216C36.2348 33.3025 35.3022 32.4951 34.3926 31.7455L33.1206 33.2889L31.8486 34.8323C32.7108 35.5428 33.6071 36.3183 34.537 37.132L35.854 35.6268ZM33.1206 33.2889L31.5728 32.0223C31.0352 32.6793 30.531 33.2831 30.0673 33.8166L31.5767 35.1287L33.0861 36.4409C33.5859 35.8658 34.1177 35.2285 34.6684 34.5555L33.1206 33.2889ZM31.5767 35.1287L30.0673 33.8166C27.9391 36.2647 26.2352 38.4199 24.0808 40.4699L25.4595 41.9188L26.8381 43.3677C29.1753 41.1439 31.1059 38.7187 33.0861 36.4409L31.5767 35.1287ZM25.4595 41.9188L24.0986 40.4532L24.0712 40.4786L25.4321 41.9442L26.793 43.4097L26.8204 43.3843L25.4595 41.9188ZM25.4321 41.9442L24.1518 40.4077L24.1225 40.4321L25.4028 41.9686L26.6832 43.505L26.7125 43.4806L25.4321 41.9442ZM25.4028 41.9686L24.1375 40.4197C22.5492 41.7172 21.1645 42.8585 20.1478 43.6069L21.3335 45.2176L22.5192 46.8283C23.6399 46.0032 25.1298 44.7741 26.6682 43.5174L25.4028 41.9686ZM21.3335 45.2176L20.1418 43.6114L20.1115 43.6339L21.3032 45.2401L22.4949 46.8462L22.5252 46.8238L21.3335 45.2176ZM21.3032 45.2401L20.2821 43.5203L20.2509 43.5389L21.272 45.2586L22.2931 46.9783L22.3243 46.9598L21.3032 45.2401ZM21.272 45.2586L20.2074 43.5655C20.0646 43.6553 19.9258 43.7324 19.7743 43.8053L20.6421 45.6072L21.5099 47.4092C21.8011 47.2689 22.0712 47.1186 22.3366 46.9517L21.272 45.2586ZM20.6421 45.6072L20.5752 47.6061C20.7296 47.6113 20.9003 47.6173 21.0736 47.6221L21.1294 45.6229L21.1852 43.6236C21.0263 43.6192 20.8713 43.6138 20.709 43.6084L20.6421 45.6072ZM21.1294 45.6229L21.0736 47.6221C21.7172 47.64 22.3847 47.6528 23.0089 47.6645L23.0464 45.6649L23.0839 43.6652C22.4579 43.6535 21.8079 43.641 21.1852 43.6236L21.1294 45.6229ZM23.0464 45.6649L23.0089 47.6645C23.6327 47.6762 24.2169 47.6877 24.6984 47.7012L24.7544 45.702L24.8104 43.7028C24.3077 43.6887 23.7055 43.6769 23.0839 43.6652L23.0464 45.6649ZM24.7544 45.702L24.6978 47.7012C24.1487 47.6856 23.7116 47.2278 23.7268 46.6734L25.7261 46.7283L27.7253 46.7832C27.7709 45.1254 26.4636 43.7496 24.811 43.7028L24.7544 45.702ZM25.7261 46.7283L23.7269 46.6723C23.7423 46.1213 24.2006 45.6863 24.7538 45.7018L24.6978 47.701L24.6417 49.7002C26.299 49.7467 27.6789 48.4395 27.7253 46.7844L25.7261 46.7283ZM24.6978 47.701L24.7538 45.7018C24.2621 45.688 23.6706 45.6769 23.0468 45.6652L23.0093 47.6649L22.9718 49.6645C23.6015 49.6763 24.1725 49.6871 24.6417 49.7002L24.6978 47.701ZM23.0093 47.6649L23.0468 45.6652C22.423 45.6535 21.7632 45.6403 21.1295 45.6227L21.0737 47.6219L21.018 49.6211C21.6712 49.6393 22.3466 49.6528 22.9718 49.6645L23.0093 47.6649ZM21.0737 47.6219L21.1295 45.6227C20.0179 45.5916 19.0163 45.5466 18.4269 45.4677L18.1616 47.45L17.8963 49.4323C18.729 49.5438 19.9412 49.5911 21.0179 49.6211L21.0737 47.6219ZM18.1616 47.45L18.4714 45.4742L18.1912 45.4302L17.8813 47.4061L17.5715 49.3819L17.8518 49.4259L18.1616 47.45ZM17.8813 47.4061L18.2487 45.4401L17.7731 45.3512L17.4058 47.3172L17.0384 49.2832L17.514 49.372L17.8813 47.4061ZM17.4058 47.3172L19.1748 46.3842L18.9492 45.9565L17.1802 46.8895L15.4111 47.8225L15.6367 48.2502L17.4058 47.3172ZM17.1802 46.8895L18.9499 45.9577C18.9416 45.942 18.9231 45.9003 18.9067 45.8194C18.8902 45.7375 18.8789 45.6311 18.8773 45.4978L16.8774 45.5213L14.8776 45.5448C14.885 46.1715 14.9826 47.0085 15.4105 47.8213L17.1802 46.8895ZM16.8774 45.5213L18.8773 45.4981C18.8741 45.2235 18.9131 44.8668 19.0038 44.4292L17.0454 44.0233L15.087 43.6173C14.9604 44.2285 14.87 44.8885 14.8776 45.5445L16.8774 45.5213ZM17.0454 44.0233L19.0038 44.4293C19.1849 43.5556 19.5505 42.4661 20.0613 41.254L18.2183 40.4774L16.3752 39.7007C15.8107 41.0405 15.3408 42.3936 15.0871 43.6172L17.0454 44.0233ZM18.2183 40.4774L20.1156 41.1098L20.1186 41.101L18.2212 40.4686L16.3238 39.8361L16.3209 39.8449L18.2183 40.4774ZM18.2212 40.4686L19.9577 41.4608L19.9616 41.454L18.2251 40.4617L16.4886 39.4695L16.4847 39.4763L18.2212 40.4686ZM18.2251 40.4617L20.0547 41.2694C20.4932 40.2763 20.7729 39.7543 21.0692 39.2009L19.3062 38.2567L17.5431 37.3124C17.2261 37.9044 16.8928 38.5273 16.3954 39.654L18.2251 40.4617ZM19.3062 38.2567L21.0686 39.2021C20.8064 39.6907 20.2 39.871 19.7156 39.6116L20.6597 37.8484L21.6037 36.0853C20.146 35.3048 18.3277 35.8499 17.5437 37.3112L19.3062 38.2567ZM20.6597 37.8484L19.7145 39.611C19.2286 39.3505 19.0448 38.7446 19.3054 38.2575L21.0688 39.201L22.8323 40.1444C23.6136 38.6841 23.0635 36.868 21.6048 36.0859L20.6597 37.8484ZM21.0688 39.201L19.3058 38.2568C19.0012 38.8255 18.6959 39.3951 18.2317 40.4452L20.061 41.2537L21.8903 42.0622C22.2953 41.146 22.5468 40.6775 22.8319 40.1452L21.0688 39.201ZM20.061 41.2537L18.218 40.4771C17.7462 41.5966 17.3707 42.6655 17.1392 43.6091L19.0815 44.0858L21.0239 44.5624C21.1894 43.8882 21.4837 43.028 21.9041 42.0304L20.061 41.2537ZM19.0815 44.0858L19.7432 45.9731C20.361 45.7566 20.7978 45.5541 21.2286 45.2875L20.1763 43.5867L19.1239 41.886C18.9943 41.9662 18.8332 42.0535 18.4199 42.1984L19.0815 44.0858ZM20.1763 43.5867L21.3642 45.1957C22.4219 44.4148 23.8349 43.251 25.3723 41.9949L24.1069 40.4461L22.8415 38.8973C21.2572 40.1917 19.9452 41.2713 18.9883 41.9778L20.1763 43.5867ZM24.1069 40.4461L25.4871 41.8936C27.7198 39.7648 29.5327 37.4803 31.5773 35.1284L30.0679 33.8162L28.5585 32.5041C26.3627 35.0299 24.7789 37.042 22.7268 38.9986L24.1069 40.4461ZM30.0679 33.8162L31.5773 35.1284C32.0579 34.5755 32.5695 33.9624 33.1007 33.3138L31.5532 32.0467L30.0058 30.7796C29.4875 31.4126 29.0033 31.9924 28.5585 32.5041L30.0679 33.8162ZM31.5532 32.0467L32.7621 30.4534C32.4249 30.1975 32.0814 29.9425 31.7353 29.7002L30.5884 31.3387L29.4415 32.9772C29.7285 33.1781 30.0267 33.399 30.3444 33.64L31.5532 32.0467ZM30.5884 31.3387L31.7353 29.7002C28.9408 27.7442 25.3579 25.8673 20.099 23.4208L19.2554 25.2342L18.4118 27.0476C23.6367 29.4783 26.951 31.2339 29.4415 32.9772L30.5884 31.3387ZM19.2554 25.2342L19.9473 23.3577C19.9139 23.3454 19.8845 23.3356 19.861 23.3281C19.8374 23.3206 19.8175 23.3147 19.803 23.3105C19.7886 23.3064 19.7771 23.3033 19.771 23.3017C19.7679 23.3008 19.7653 23.3002 19.7642 23.2998C19.7635 23.2997 19.763 23.2995 19.7629 23.2995C19.7627 23.2994 19.7629 23.2995 19.7631 23.2996C19.7637 23.2997 19.7701 23.3014 19.7782 23.3036C19.7867 23.306 19.7998 23.3096 19.8157 23.3143C19.8318 23.3191 19.8522 23.3253 19.8758 23.3332C19.8994 23.341 19.9274 23.3508 19.9586 23.3627L19.2456 25.2313L18.5326 27.0998C18.5647 27.1121 18.5935 27.1221 18.6179 27.1302C18.6423 27.1383 18.6636 27.1449 18.6805 27.1498C18.6973 27.1548 18.7112 27.1587 18.7205 27.1613C18.7295 27.1637 18.7367 27.1656 18.7381 27.166C18.7383 27.1661 18.7385 27.1661 18.7387 27.1662C18.7387 27.1662 18.7388 27.1662 18.7388 27.1662C18.7389 27.1662 18.7389 27.1662 18.7389 27.1662C18.739 27.1662 18.7387 27.1662 18.7383 27.1661C18.7375 27.1659 18.7354 27.1653 18.7327 27.1646C18.7274 27.1631 18.7167 27.1602 18.7031 27.1564C18.6894 27.1524 18.6703 27.1468 18.6475 27.1396C18.6247 27.1323 18.5961 27.1227 18.5634 27.1107L19.2554 25.2342ZM19.2456 25.2313L19.9587 23.3627C19.9604 23.3634 19.9594 23.363 19.9532 23.3606C19.9471 23.3582 19.9401 23.3554 19.929 23.351C19.9085 23.3429 19.8788 23.3311 19.845 23.3181L19.1235 25.1834L18.4021 27.0488C18.4205 27.0559 18.4377 27.0627 18.458 27.0707C18.4737 27.0769 18.5044 27.0891 18.5325 27.0998L19.2456 25.2313ZM19.1235 25.1834L19.845 23.3181C19.7475 23.2804 19.6044 23.2243 19.4287 23.1541L18.687 25.0115L17.9453 26.8689C18.1335 26.9441 18.2902 27.0055 18.4021 27.0487L19.1235 25.1834ZM18.687 25.0115L19.4287 23.1541C19.0784 23.0142 18.603 22.8194 18.1013 22.5992L17.2974 24.4305L16.4935 26.2618C17.0482 26.5053 17.5673 26.718 17.9453 26.8689L18.687 25.0115ZM17.2974 24.4305L18.1013 22.5992C17.5982 22.3783 17.0778 22.1356 16.6336 21.9007L15.6987 23.6688L14.7639 25.4368C15.3268 25.7345 15.944 26.0206 16.4934 26.2618L17.2974 24.4305ZM15.6987 23.6688L16.6336 21.9007C16.1642 21.6525 15.8636 21.4568 15.735 21.3377L14.3765 22.8055L13.0179 24.2732C13.563 24.7778 14.2748 25.1782 14.7638 25.4368L15.6987 23.6688ZM14.3765 22.8055L15.7351 21.3378C16.1427 21.7151 16.1635 22.347 15.7904 22.75L14.3228 21.3914L12.8551 20.0328C11.7316 21.2464 11.7997 23.1455 13.0178 24.2731L14.3765 22.8055ZM14.3228 21.3914L15.7893 22.7513C15.4135 23.1565 14.7818 23.1799 14.3772 22.8054L15.7358 21.3377L17.0945 19.87C15.8798 18.7456 13.9825 18.8169 12.8562 20.0315L14.3228 21.3914ZM15.7358 21.3377L14.3782 22.8064C14.7157 23.1183 15.2218 23.4172 15.6984 23.6692L16.6333 21.9012L17.5682 20.1331C17.3689 20.0278 17.2243 19.9431 17.1292 19.8828C17.082 19.8528 17.0544 19.8335 17.0428 19.8251C17.0271 19.8136 17.05 19.8289 17.0934 19.8691L15.7358 21.3377ZM16.6333 21.9012L15.6985 23.6693C16.2019 23.9354 16.7707 24.1996 17.2971 24.4307L18.1011 22.5994L18.905 20.7681C18.4237 20.5568 17.9521 20.3361 17.5681 20.1331L16.6333 21.9012ZM18.1011 22.5994L17.2972 24.4307C17.8267 24.6632 18.3249 24.8667 18.6875 25.0115L19.4292 23.1541L20.1709 21.2967C19.8328 21.1617 19.3793 20.9763 18.905 20.7681L18.1011 22.5994ZM19.4292 23.1541L18.6875 25.0115C18.8661 25.0828 19.016 25.1418 19.1237 25.1835L19.8452 23.3182L20.5667 21.4528C20.4768 21.4181 20.3413 21.3648 20.1709 21.2967L19.4292 23.1541ZM19.8452 23.3182L19.1238 25.1835C19.1754 25.2035 19.2174 25.2196 19.2464 25.2307L19.9595 23.3621L20.6725 21.4935C20.6502 21.485 20.6139 21.4711 20.5666 21.4528L19.8452 23.3182ZM19.9595 23.3621L19.2454 25.2303C19.213 25.2179 19.1889 25.2075 19.1858 25.2062C19.1855 25.206 19.1854 25.206 19.1858 25.2062C19.1859 25.2062 19.1871 25.2067 19.188 25.2071C19.1899 25.208 19.195 25.2101 19.2011 25.2127C19.2072 25.2153 19.217 25.2195 19.229 25.2244C19.2409 25.2292 19.258 25.2361 19.2786 25.2439L19.9878 23.3738L20.697 21.5038C20.716 21.511 20.7314 21.5172 20.7416 21.5213C20.7518 21.5255 20.7598 21.5289 20.7639 21.5307C20.7662 21.5316 20.7679 21.5324 20.769 21.5328C20.77 21.5333 20.7707 21.5336 20.7708 21.5336C20.7708 21.5336 20.7708 21.5336 20.7706 21.5335C20.7705 21.5335 20.7704 21.5334 20.7702 21.5334C20.7701 21.5333 20.7699 21.5332 20.7697 21.5331C20.769 21.5328 20.7677 21.5323 20.7662 21.5316C20.7537 21.5262 20.7185 21.5111 20.6736 21.4939L19.9595 23.3621ZM19.9878 23.3738L19.2986 25.2513C19.3404 25.2667 19.3784 25.2791 19.4115 25.289C19.4445 25.299 19.474 25.307 19.4988 25.3133C19.5235 25.3195 19.5448 25.3244 19.5612 25.328C19.5775 25.3316 19.5906 25.3343 19.598 25.3358C19.6017 25.3365 19.6046 25.3371 19.6057 25.3373C19.6062 25.3374 19.6068 25.3375 19.6066 25.3375C19.6066 25.3375 19.6064 25.3375 19.6062 25.3374C19.606 25.3374 19.6057 25.3373 19.6053 25.3372C19.6039 25.337 19.6002 25.3362 19.5954 25.3353C19.5906 25.3343 19.5832 25.3327 19.5741 25.3308C19.5651 25.3289 19.5528 25.3262 19.5384 25.3228C19.524 25.3194 19.5055 25.3149 19.4839 25.3092C19.4625 25.3035 19.4353 25.296 19.4039 25.2862C19.388 25.2813 19.3703 25.2756 19.3512 25.2691C19.332 25.2626 19.3108 25.2551 19.2877 25.2463L19.9956 23.3758L20.7035 21.5053C20.6579 21.488 20.6181 21.4748 20.5868 21.4651C20.5552 21.4554 20.5277 21.4477 20.5061 21.442C20.4843 21.4362 20.4655 21.4317 20.4508 21.4282C20.4361 21.4248 20.4237 21.422 20.4144 21.42C20.405 21.418 20.3973 21.4165 20.3922 21.4154C20.3871 21.4144 20.383 21.4136 20.3813 21.4132C20.3804 21.4131 20.3797 21.4129 20.3796 21.4129C20.3792 21.4128 20.3796 21.4129 20.38 21.413C20.3808 21.4131 20.3833 21.4136 20.3867 21.4143C20.3933 21.4156 20.4057 21.4182 20.4213 21.4216C20.437 21.425 20.4575 21.4298 20.4815 21.4358C20.5054 21.4419 20.5342 21.4497 20.5665 21.4594C20.5987 21.4692 20.636 21.4813 20.677 21.4964L19.9878 23.3738ZM19.9956 23.3758L18.5814 24.79L18.5824 24.791L19.9966 23.3768L21.4108 21.9626L21.4098 21.9616L19.9956 23.3758ZM19.9966 23.3768L19.3002 25.2516L19.3344 25.2643L20.0308 23.3895L20.7271 21.5146L20.693 21.5019L19.9966 23.3768ZM20.0308 23.3895L19.2185 25.2171L19.2536 25.2327L20.0659 23.4051L20.8782 21.5775L20.843 21.5618L20.0308 23.3895ZM20.0659 23.4051L19.2226 25.2186C24.4829 27.6649 27.9398 29.4858 30.588 31.3395L31.7349 29.701L32.8818 28.0625C29.9296 25.9961 26.2044 24.0541 20.9093 21.5916L20.0659 23.4051ZM31.7349 29.701L30.588 31.3395C30.9118 31.5662 31.2464 31.8141 31.5978 32.0815L32.8091 30.4901L34.0203 28.8986C33.6457 28.6134 33.2651 28.3309 32.8818 28.0625L31.7349 29.701ZM32.8091 30.4901L34.3739 31.7355C35.8196 29.9192 37.3751 27.8971 38.8425 25.9801L37.2544 24.7645L35.6663 23.5488C34.1996 25.4648 32.6642 27.4605 31.2442 29.2446L32.8091 30.4901ZM37.2544 24.7645L38.8425 25.9801C41.338 22.7201 43.525 19.8425 44.5341 18.7422L43.0601 17.3904L41.586 16.0387C40.4198 17.3104 38.0708 20.4076 35.6663 23.5488L37.2544 24.7645Z" fill="white" mask="url(#path-1-outside-1_34_109)"/>
</svg>
