<svg width="64" height="64" viewBox="0 0 64 64" fill="none" xmlns="http://www.w3.org/2000/svg">
<mask id="path-1-outside-1_34_117" maskUnits="userSpaceOnUse" x="8.99316" y="20.2246" width="43" height="26" fill="black">
<rect fill="white" x="8.99316" y="20.2246" width="43" height="26"/>
<path d="M48.3164 23.2939C48.8302 23.0922 49.4112 23.3456 49.6133 23.8594C49.8151 24.3733 49.5618 24.9542 49.0479 25.1562C47.6583 25.7025 44.4318 27.3278 40.7588 29.1631C38.6507 30.2165 36.4102 31.3293 34.3369 32.3184C35.3059 32.8012 36.2944 33.3193 37.2822 33.8428C39.4711 35.0027 41.6598 36.1894 43.7168 37.1465L43.7266 37.1523C45.1272 37.8231 46.1836 38.4699 47.1348 39.2295L47.1504 39.2422L47.167 39.2559C47.2171 39.2994 47.2654 39.3446 47.3145 39.3887C47.3058 39.1532 47.2919 38.915 47.2725 38.6777C47.1759 37.4995 46.9572 36.4663 46.6787 35.8662C46.4462 35.3653 46.6632 34.7706 47.1641 34.5381C47.6649 34.3057 48.2596 34.5237 48.4922 35.0244C48.9183 35.9426 49.1632 37.2525 49.2666 38.5146C49.3713 39.7932 49.342 41.1559 49.1455 42.2227L49.0527 42.7275L48.5869 42.9473C47.8888 43.2756 47.0273 43.3502 46.2305 43.3701C45.4585 43.3894 44.4549 43.3536 43.6064 43.3564C42.8259 43.3768 42.3374 43.4272 41.6514 43.6436C41.1249 43.8095 40.5628 43.5176 40.3965 42.9912C40.2306 42.4646 40.5233 41.9024 41.0498 41.7363C41.9781 41.4435 42.6686 41.3795 43.5537 41.3564H43.5762C44.6012 41.3522 45.385 41.39 46.1807 41.3701C46.2872 41.3674 46.3884 41.3613 46.4844 41.3564C46.2817 41.1553 46.0834 40.9638 45.875 40.7822C45.0716 40.1423 44.1561 39.5761 42.873 38.9609L42.0732 38.5801C40.1945 37.6706 38.2352 36.6102 36.3467 35.6094C34.836 34.8088 33.3698 34.0479 31.9971 33.4102C31.3686 33.6959 30.7723 33.9626 30.2168 34.1982C27.3341 35.4208 24.6959 36.6819 21.7402 37.6172L21.7051 37.6279L21.668 37.6367C19.7029 38.0987 17.8914 38.5333 16.5859 38.7715L16.5488 38.7783L16.5127 38.7812C16.273 38.8071 16.0396 38.8197 15.7939 38.8184C15.9339 38.8926 16.0775 38.9689 16.2246 39.0459C16.7858 39.3395 17.3721 39.6401 17.9287 39.9248C18.4831 40.2084 19.0111 40.4788 19.4473 40.707C19.9365 40.9631 20.127 41.5673 19.8711 42.0566C19.615 42.5458 19.0098 42.7345 18.5205 42.4785C18.0947 42.2557 17.5767 41.9915 17.0186 41.7061C16.4625 41.4216 15.8682 41.1167 15.2979 40.8184C14.328 40.311 13.3541 39.7831 12.7568 39.3857L12.5244 39.2246L12.1357 38.9355L12.1201 38.4521C12.1054 37.9698 12.2529 37.5011 12.4482 37.0889C12.6475 36.6685 12.9282 36.2408 13.2559 35.8174C13.9112 34.9704 14.8224 34.0563 15.8652 33.1455L15.8721 33.1387L15.8789 33.1338C16.7642 32.3866 17.2906 32.007 17.8174 31.627C18.2652 31.3042 18.8898 31.4058 19.2129 31.8535C19.5357 32.3014 19.434 32.926 18.9863 33.249C18.4801 33.6143 18.0031 33.9587 17.1816 34.6514C16.3163 35.4071 15.5918 36.1267 15.0586 36.7666C15.6012 36.8303 15.9338 36.8308 16.2617 36.7979C17.4931 36.5714 19.2091 36.1615 21.1709 35.7002C23.9922 34.8042 26.4614 33.6192 29.4365 32.3574C29.4441 32.3542 29.4513 32.3499 29.459 32.3467C26.5886 31.2846 22.9893 30.3746 17.8066 29.3027C17.8034 29.3023 17.7995 29.3022 17.7959 29.3018C17.7659 29.2977 17.7222 29.2909 17.667 29.2832C17.5558 29.2678 17.3962 29.2448 17.2021 29.2158C16.8143 29.1578 16.2842 29.0733 15.7168 28.9688C15.1515 28.8646 14.5367 28.7384 13.9854 28.5947C13.461 28.4581 12.9003 28.2837 12.501 28.0576C12.0205 27.7855 11.851 27.1749 12.123 26.6943C12.3952 26.214 13.0059 26.0445 13.4863 26.3164C13.6394 26.4031 13.9772 26.5257 14.4893 26.6592C14.9751 26.7858 15.5377 26.9032 16.0791 27.0029C16.618 27.1022 17.1251 27.1825 17.498 27.2383C17.6842 27.2661 17.8364 27.2872 17.9414 27.3018C17.9936 27.309 18.0343 27.3147 18.0615 27.3184C18.0748 27.3201 18.0851 27.3223 18.0918 27.3232C18.0948 27.3236 18.098 27.3232 18.0996 27.3232L18.1016 27.3242L18.1387 27.3281L18.1758 27.3359C23.8758 28.514 27.8024 29.5218 30.9775 30.7871C31.3097 30.9195 31.6471 31.0635 31.9902 31.2139C34.4101 30.0904 37.2208 28.6964 39.8652 27.375C43.4707 25.5734 46.8187 23.8828 48.3164 23.2939Z"/>
</mask>
<path d="M48.3164 23.2939C48.8302 23.0922 49.4112 23.3456 49.6133 23.8594C49.8151 24.3733 49.5618 24.9542 49.0479 25.1562C47.6583 25.7025 44.4318 27.3278 40.7588 29.1631C38.6507 30.2165 36.4102 31.3293 34.3369 32.3184C35.3059 32.8012 36.2944 33.3193 37.2822 33.8428C39.4711 35.0027 41.6598 36.1894 43.7168 37.1465L43.7266 37.1523C45.1272 37.8231 46.1836 38.4699 47.1348 39.2295L47.1504 39.2422L47.167 39.2559C47.2171 39.2994 47.2654 39.3446 47.3145 39.3887C47.3058 39.1532 47.2919 38.915 47.2725 38.6777C47.1759 37.4995 46.9572 36.4663 46.6787 35.8662C46.4462 35.3653 46.6632 34.7706 47.1641 34.5381C47.6649 34.3057 48.2596 34.5237 48.4922 35.0244C48.9183 35.9426 49.1632 37.2525 49.2666 38.5146C49.3713 39.7932 49.342 41.1559 49.1455 42.2227L49.0527 42.7275L48.5869 42.9473C47.8888 43.2756 47.0273 43.3502 46.2305 43.3701C45.4585 43.3894 44.4549 43.3536 43.6064 43.3564C42.8259 43.3768 42.3374 43.4272 41.6514 43.6436C41.1249 43.8095 40.5628 43.5176 40.3965 42.9912C40.2306 42.4646 40.5233 41.9024 41.0498 41.7363C41.9781 41.4435 42.6686 41.3795 43.5537 41.3564H43.5762C44.6012 41.3522 45.385 41.39 46.1807 41.3701C46.2872 41.3674 46.3884 41.3613 46.4844 41.3564C46.2817 41.1553 46.0834 40.9638 45.875 40.7822C45.0716 40.1423 44.1561 39.5761 42.873 38.9609L42.0732 38.5801C40.1945 37.6706 38.2352 36.6102 36.3467 35.6094C34.836 34.8088 33.3698 34.0479 31.9971 33.4102C31.3686 33.6959 30.7723 33.9626 30.2168 34.1982C27.3341 35.4208 24.6959 36.6819 21.7402 37.6172L21.7051 37.6279L21.668 37.6367C19.7029 38.0987 17.8914 38.5333 16.5859 38.7715L16.5488 38.7783L16.5127 38.7812C16.273 38.8071 16.0396 38.8197 15.7939 38.8184C15.9339 38.8926 16.0775 38.9689 16.2246 39.0459C16.7858 39.3395 17.3721 39.6401 17.9287 39.9248C18.4831 40.2084 19.0111 40.4788 19.4473 40.707C19.9365 40.9631 20.127 41.5673 19.8711 42.0566C19.615 42.5458 19.0098 42.7345 18.5205 42.4785C18.0947 42.2557 17.5767 41.9915 17.0186 41.7061C16.4625 41.4216 15.8682 41.1167 15.2979 40.8184C14.328 40.311 13.3541 39.7831 12.7568 39.3857L12.5244 39.2246L12.1357 38.9355L12.1201 38.4521C12.1054 37.9698 12.2529 37.5011 12.4482 37.0889C12.6475 36.6685 12.9282 36.2408 13.2559 35.8174C13.9112 34.9704 14.8224 34.0563 15.8652 33.1455L15.8721 33.1387L15.8789 33.1338C16.7642 32.3866 17.2906 32.007 17.8174 31.627C18.2652 31.3042 18.8898 31.4058 19.2129 31.8535C19.5357 32.3014 19.434 32.926 18.9863 33.249C18.4801 33.6143 18.0031 33.9587 17.1816 34.6514C16.3163 35.4071 15.5918 36.1267 15.0586 36.7666C15.6012 36.8303 15.9338 36.8308 16.2617 36.7979C17.4931 36.5714 19.2091 36.1615 21.1709 35.7002C23.9922 34.8042 26.4614 33.6192 29.4365 32.3574C29.4441 32.3542 29.4513 32.3499 29.459 32.3467C26.5886 31.2846 22.9893 30.3746 17.8066 29.3027C17.8034 29.3023 17.7995 29.3022 17.7959 29.3018C17.7659 29.2977 17.7222 29.2909 17.667 29.2832C17.5558 29.2678 17.3962 29.2448 17.2021 29.2158C16.8143 29.1578 16.2842 29.0733 15.7168 28.9688C15.1515 28.8646 14.5367 28.7384 13.9854 28.5947C13.461 28.4581 12.9003 28.2837 12.501 28.0576C12.0205 27.7855 11.851 27.1749 12.123 26.6943C12.3952 26.214 13.0059 26.0445 13.4863 26.3164C13.6394 26.4031 13.9772 26.5257 14.4893 26.6592C14.9751 26.7858 15.5377 26.9032 16.0791 27.0029C16.618 27.1022 17.1251 27.1825 17.498 27.2383C17.6842 27.2661 17.8364 27.2872 17.9414 27.3018C17.9936 27.309 18.0343 27.3147 18.0615 27.3184C18.0748 27.3201 18.0851 27.3223 18.0918 27.3232C18.0948 27.3236 18.098 27.3232 18.0996 27.3232L18.1016 27.3242L18.1387 27.3281L18.1758 27.3359C23.8758 28.514 27.8024 29.5218 30.9775 30.7871C31.3097 30.9195 31.6471 31.0635 31.9902 31.2139C34.4101 30.0904 37.2208 28.6964 39.8652 27.375C43.4707 25.5734 46.8187 23.8828 48.3164 23.2939Z" fill="black"/>
<path d="M48.3164 23.2939L47.5856 21.4322L47.5847 21.4326L48.3164 23.2939ZM49.6133 23.8594L51.4748 23.1282L51.4745 23.1274L49.6133 23.8594ZM49.0479 25.1562L48.3161 23.2949L48.3161 23.2949L49.0479 25.1562ZM40.7588 29.1631L39.8648 27.374L39.8648 27.374L40.7588 29.1631ZM34.3369 32.3184L33.4758 30.5133L29.7741 32.2792L33.4449 34.1084L34.3369 32.3184ZM37.2822 33.8428L38.2187 32.0756L38.2187 32.0756L37.2822 33.8428ZM43.7168 37.1465L44.7458 35.4315L44.6557 35.3775L44.5605 35.3332L43.7168 37.1465ZM43.7266 37.1523L42.6976 38.8673L42.7781 38.9156L42.8627 38.9562L43.7266 37.1523ZM47.1348 39.2295L48.396 37.6773L48.3894 37.672L48.3828 37.6667L47.1348 39.2295ZM47.1504 39.2422L48.4218 37.6983L48.4116 37.69L47.1504 39.2422ZM47.167 39.2559L48.4774 37.745L48.4581 37.7282L48.4384 37.712L47.167 39.2559ZM47.3145 39.3887L45.9786 40.8772L49.4869 44.0256L49.3131 39.3149L47.3145 39.3887ZM47.2725 38.6777L49.2658 38.5144L49.2658 38.5144L47.2725 38.6777ZM46.6787 35.8662L48.4929 35.0243L48.4928 35.0242L46.6787 35.8662ZM47.1641 34.5381L46.3223 32.7239L46.3218 32.7241L47.1641 34.5381ZM48.4922 35.0244L50.3064 34.1825L50.306 34.1819L48.4922 35.0244ZM49.2666 38.5146L51.2599 38.3514L51.2599 38.3513L49.2666 38.5146ZM49.1455 42.2227L47.1786 41.8603L47.1784 41.8612L49.1455 42.2227ZM49.0527 42.7275L49.906 44.5364L50.8343 44.0985L51.0198 43.089L49.0527 42.7275ZM48.5869 42.9473L49.4381 44.7571L49.4402 44.7561L48.5869 42.9473ZM46.2305 43.3701L46.2805 45.3695L46.2805 45.3695L46.2305 43.3701ZM43.6064 43.3564L43.5997 41.3565L43.5771 41.3565L43.5544 41.3571L43.6064 43.3564ZM41.6514 43.6436L42.2526 45.551L42.253 45.5509L41.6514 43.6436ZM40.3965 42.9912L38.4889 43.5921L38.4894 43.5936L40.3965 42.9912ZM41.0498 41.7363L40.4482 39.829L40.4481 39.829L41.0498 41.7363ZM43.5537 41.3564V39.3564H43.5277L43.5017 39.3571L43.5537 41.3564ZM43.5762 41.3564L43.5762 43.3565L43.5845 43.3564L43.5762 41.3564ZM46.1807 41.3701L46.2306 43.3695L46.2307 43.3695L46.1807 41.3701ZM46.4844 41.3564L46.5861 43.3539L51.104 43.1238L47.8933 39.937L46.4844 41.3564ZM45.875 40.7822L47.189 39.2744L47.1557 39.2454L47.1211 39.2179L45.875 40.7822ZM42.873 38.9609L43.7377 37.1575L43.7329 37.1552L42.873 38.9609ZM42.0732 38.5801L41.2018 40.3803L41.2134 40.3858L42.0732 38.5801ZM36.3467 35.6094L37.2832 33.8422L37.2832 33.8422L36.3467 35.6094ZM31.9971 33.4102L32.8397 31.5963L32.006 31.209L31.1692 31.5895L31.9971 33.4102ZM30.2168 34.1982L29.4359 32.357L29.4359 32.357L30.2168 34.1982ZM21.7402 37.6172L22.3247 39.5299L22.3342 39.527L22.3436 39.524L21.7402 37.6172ZM21.7051 37.6279L22.166 39.5741L22.2283 39.5593L22.2895 39.5406L21.7051 37.6279ZM21.668 37.6367L22.1257 39.5836L22.1289 39.5829L21.668 37.6367ZM16.5859 38.7715L16.2269 36.804L16.2236 36.8046L16.5859 38.7715ZM16.5488 38.7783L16.7105 40.7718L16.8115 40.7636L16.9112 40.7452L16.5488 38.7783ZM16.5127 38.7812L16.3511 36.7878L16.3248 36.7899L16.2986 36.7927L16.5127 38.7812ZM15.7939 38.8184L15.8045 36.8184L14.857 40.5853L15.7939 38.8184ZM16.2246 39.0459L15.2975 40.8181L15.2976 40.8181L16.2246 39.0459ZM17.9287 39.9248L18.8395 38.1442L17.9287 39.9248ZM19.4473 40.707L20.3746 38.935L20.3745 38.935L19.4473 40.707ZM19.8711 42.0566L21.6429 42.9843L21.6433 42.9836L19.8711 42.0566ZM18.5205 42.4785L19.4478 40.7065L19.4478 40.7065L18.5205 42.4785ZM17.0186 41.7061L16.1077 43.4866L16.1077 43.4866L17.0186 41.7061ZM15.2979 40.8184L14.3708 42.5905L14.3708 42.5905L15.2979 40.8184ZM12.7568 39.3857L11.6173 41.0294L11.633 41.0403L11.649 41.0509L12.7568 39.3857ZM12.5244 39.2246L11.3309 40.8294L11.3576 40.8493L11.3849 40.8682L12.5244 39.2246ZM12.1357 38.9355L10.1368 39.0002L10.168 39.9646L10.9422 40.5404L12.1357 38.9355ZM12.1201 38.4521L10.121 38.5133L10.1212 38.5168L12.1201 38.4521ZM12.4482 37.0889L10.6409 36.2324L10.6408 36.2326L12.4482 37.0889ZM13.2559 35.8174L11.674 34.5935L11.674 34.5936L13.2559 35.8174ZM15.8652 33.1455L17.1809 34.6518L17.2317 34.6074L17.2794 34.5597L15.8652 33.1455ZM15.8721 33.1387L14.7096 31.5112L14.5749 31.6074L14.4579 31.7245L15.8721 33.1387ZM15.8789 33.1338L17.0414 34.7613L17.1071 34.7143L17.1689 34.6622L15.8789 33.1338ZM17.8174 31.627L16.648 30.0045L16.6471 30.0051L17.8174 31.627ZM19.2129 31.8535L20.8354 30.6841L20.8348 30.6833L19.2129 31.8535ZM18.9863 33.249L17.8161 31.6271L17.8161 31.6271L18.9863 33.249ZM17.1816 34.6514L15.8923 33.1224L15.8791 33.1336L15.866 33.145L17.1816 34.6514ZM15.0586 36.7666L13.5221 35.4863L11.1588 38.3223L14.8253 38.7529L15.0586 36.7666ZM16.2617 36.7979L16.4615 38.7879L16.543 38.7797L16.6235 38.7649L16.2617 36.7979ZM21.1709 35.7002L21.6287 37.6471L21.7033 37.6296L21.7763 37.6064L21.1709 35.7002ZM29.4365 32.3574L30.2174 34.1987L30.2174 34.1987L29.4365 32.3574ZM29.459 32.3467L30.2407 34.1876L34.8768 32.2188L30.153 30.471L29.459 32.3467ZM17.8066 29.3027L18.2117 27.3442L18.1391 27.3292L18.0656 27.3196L17.8066 29.3027ZM17.7959 29.3018L17.5303 31.284L17.5306 31.2841L17.7959 29.3018ZM17.667 29.2832L17.9413 27.3021L17.9412 27.3021L17.667 29.2832ZM17.2021 29.2158L16.9064 31.1938L16.9064 31.1938L17.2021 29.2158ZM15.7168 28.9688L15.3545 30.9357L15.3545 30.9357L15.7168 28.9688ZM13.9854 28.5947L13.481 30.5301L13.4811 30.5301L13.9854 28.5947ZM12.501 28.0576L11.5153 29.7979L11.5157 29.7981L12.501 28.0576ZM12.123 26.6943L10.383 25.7082L10.3826 25.7091L12.123 26.6943ZM13.4863 26.3164L14.4716 24.576L14.4714 24.5758L13.4863 26.3164ZM14.4893 26.6592L13.9849 28.5945L13.985 28.5946L14.4893 26.6592ZM16.0791 27.0029L15.7168 28.9698L15.7168 28.9698L16.0791 27.0029ZM17.498 27.2383L17.2023 29.2163L17.2023 29.2163L17.498 27.2383ZM17.9414 27.3018L17.6672 29.2829L17.6672 29.2829L17.9414 27.3018ZM18.0615 27.3184L17.7962 29.3007L17.7965 29.3007L18.0615 27.3184ZM18.0918 27.3232L17.8212 29.3049L17.831 29.3062L18.0918 27.3232ZM18.0996 27.3232L18.994 25.5344L18.6214 25.3481L18.2053 25.326L18.0996 27.3232ZM18.1016 27.3242L17.2071 29.1131L17.5315 29.2753L17.8922 29.3132L18.1016 27.3242ZM18.1387 27.3281L18.5507 25.371L18.4502 25.3499L18.348 25.3391L18.1387 27.3281ZM18.1758 27.3359L17.7638 29.2931L17.771 29.2945L18.1758 27.3359ZM30.9775 30.7871L31.718 28.9292L31.7179 28.9292L30.9775 30.7871ZM31.9902 31.2139L31.1874 33.0456L32.0139 33.4079L32.8324 33.0279L31.9902 31.2139ZM39.8652 27.375L40.7592 29.1641L40.7592 29.1641L39.8652 27.375ZM48.3164 23.2939L49.0472 25.1556C48.5327 25.3576 47.9539 25.1045 47.7521 24.5914L49.6133 23.8594L51.4745 23.1274C50.8686 21.5868 49.1278 20.8269 47.5856 21.4322L48.3164 23.2939ZM49.6133 23.8594L47.7517 24.5906C47.5496 24.0759 47.803 23.4966 48.3161 23.2949L49.0479 25.1562L49.7796 27.0176C51.3205 26.4118 52.0807 24.6708 51.4748 23.1282L49.6133 23.8594ZM49.0479 25.1562L48.3161 23.2949C46.8183 23.8838 43.4705 25.5723 39.8648 27.374L40.7588 29.1631L41.6528 30.9522C45.393 29.0832 48.4983 27.5213 49.7796 27.0176L49.0479 25.1562ZM40.7588 29.1631L39.8648 27.374C37.7575 28.427 35.5312 29.5327 33.4758 30.5133L34.3369 32.3184L35.1981 34.1235C37.2892 33.1258 39.5438 32.006 41.6528 30.9522L40.7588 29.1631ZM34.3369 32.3184L33.4449 34.1084C34.3908 34.5798 35.3614 35.0884 36.3457 35.61L37.2822 33.8428L38.2187 32.0756C37.2274 31.5502 36.221 31.0227 35.2289 30.5283L34.3369 32.3184ZM37.2822 33.8428L36.3457 35.61C38.5052 36.7543 40.7559 37.9747 42.8731 38.9598L43.7168 37.1465L44.5605 35.3332C42.5638 34.4041 40.437 33.2511 38.2187 32.0756L37.2822 33.8428ZM43.7168 37.1465L42.6878 38.8615L42.6976 38.8673L43.7266 37.1523L44.7556 35.4374L44.7458 35.4315L43.7168 37.1465ZM43.7266 37.1523L42.8627 38.9562C44.1583 39.5766 45.0788 40.147 45.8867 40.7923L47.1348 39.2295L48.3828 37.6667C47.2885 36.7928 46.0961 36.0696 44.5904 35.3485L43.7266 37.1523ZM47.1348 39.2295L45.8736 40.7817L45.8892 40.7944L47.1504 39.2422L48.4116 37.69L48.396 37.6773L47.1348 39.2295ZM47.1504 39.2422L45.879 40.786L45.8956 40.7997L47.167 39.2559L48.4384 37.712L48.4218 37.6983L47.1504 39.2422ZM47.167 39.2559L45.8566 40.7667C45.8954 40.8004 45.8797 40.7884 45.9786 40.8772L47.3145 39.3887L48.6503 37.9002C48.6326 37.8843 48.6202 37.8728 48.5872 37.8429C48.5598 37.8179 48.521 37.7828 48.4774 37.745L47.167 39.2559ZM47.3145 39.3887L49.3131 39.3149C49.3034 39.051 49.2878 38.7828 49.2658 38.5144L47.2725 38.6777L45.2791 38.841C45.296 39.0471 45.3082 39.2554 45.3158 39.4624L47.3145 39.3887ZM47.2725 38.6777L49.2658 38.5144C49.1625 37.2546 48.9195 35.9436 48.4929 35.0243L46.6787 35.8662L44.8646 36.7082C44.9949 36.989 45.1893 37.7444 45.2791 38.8411L47.2725 38.6777ZM46.6787 35.8662L48.4928 35.0242C48.7244 35.5232 48.5092 36.1186 48.0063 36.3521L47.1641 34.5381L46.3218 32.7241C44.8173 33.4227 44.168 35.2074 44.8646 36.7082L46.6787 35.8662ZM47.1641 34.5381L48.0059 36.3523C47.5038 36.5853 46.9103 36.3665 46.6783 35.867L48.4922 35.0244L50.306 34.1819C49.6088 32.6809 47.826 32.0261 46.3223 32.7239L47.1641 34.5381ZM48.4922 35.0244L46.678 35.8663C46.9568 36.467 47.1768 37.5008 47.2733 38.678L49.2666 38.5146L51.2599 38.3513C51.1495 37.0042 50.8798 35.4181 50.3064 34.1825L48.4922 35.0244ZM49.2666 38.5146L47.2733 38.6779C47.3685 39.8403 47.334 41.017 47.1786 41.8603L49.1455 42.2227L51.1124 42.585C51.3501 41.2947 51.3742 39.7461 51.2599 38.3514L49.2666 38.5146ZM49.1455 42.2227L47.1784 41.8612L47.0857 42.3661L49.0527 42.7275L51.0198 43.089L51.1126 42.5841L49.1455 42.2227ZM49.0527 42.7275L48.1995 40.9187L47.7337 41.1384L48.5869 42.9473L49.4402 44.7561L49.906 44.5364L49.0527 42.7275ZM48.5869 42.9473L47.7357 41.1374C47.4466 41.2734 46.9551 41.3514 46.1805 41.3707L46.2305 43.3701L46.2805 45.3695C47.0994 45.349 48.331 45.2778 49.4381 44.7571L48.5869 42.9473ZM46.2305 43.3701L46.1805 41.3707C45.4017 41.3902 44.6034 41.3531 43.5997 41.3565L43.6064 43.3564L43.6132 45.3564C44.3064 45.3541 45.5153 45.3886 46.2805 45.3695L46.2305 43.3701ZM43.6064 43.3564L43.5544 41.3571C42.6718 41.3801 41.9796 41.4429 41.0498 41.7362L41.6514 43.6436L42.253 45.5509C42.6952 45.4115 42.98 45.3734 43.6585 45.3558L43.6064 43.3564ZM41.6514 43.6436L41.0501 41.7361C41.5749 41.5707 42.1368 41.8607 42.3036 42.3888L40.3965 42.9912L38.4894 43.5936C38.9888 45.1745 40.6748 46.0484 42.2526 45.551L41.6514 43.6436ZM40.3965 42.9912L42.3041 42.3903C42.4699 42.9168 42.1782 43.4775 41.6515 43.6437L41.0498 41.7363L40.4481 39.829C38.8683 40.3274 37.9913 42.0125 38.4889 43.5921L40.3965 42.9912ZM41.0498 41.7363L41.6515 43.6437C42.3376 43.4273 42.8253 43.3761 43.6058 43.3558L43.5537 41.3564L43.5017 39.3571C42.5119 39.3829 41.6186 39.4598 40.4482 39.829L41.0498 41.7363ZM43.5537 41.3564V43.3564H43.5762V41.3564V39.3564H43.5537V41.3564ZM43.5762 41.3564L43.5845 43.3564C44.4303 43.3529 45.4553 43.3889 46.2306 43.3695L46.1807 41.3701L46.1307 39.3707C45.3146 39.3911 44.7721 39.3514 43.5678 39.3565L43.5762 41.3564ZM46.1807 41.3701L46.2307 43.3695C46.3713 43.366 46.514 43.3575 46.5861 43.3539L46.4844 41.3564L46.3827 39.359C46.2627 39.3651 46.2032 39.3689 46.1306 39.3707L46.1807 41.3701ZM46.4844 41.3564L47.8933 39.937C47.6804 39.7257 47.4462 39.4986 47.189 39.2744L45.875 40.7822L44.561 42.29C44.7205 42.429 44.8829 42.5848 45.0754 42.7759L46.4844 41.3564ZM45.875 40.7822L47.1211 39.2179C46.1751 38.4643 45.1245 37.8224 43.7377 37.1575L42.873 38.9609L42.0084 40.7644C43.1877 41.3298 43.9681 41.8202 44.6289 42.3466L45.875 40.7822ZM42.873 38.9609L43.7329 37.1552L42.9331 36.7744L42.0732 38.5801L41.2134 40.3858L42.0132 40.7667L42.873 38.9609ZM42.0732 38.5801L42.9447 36.7799C41.1086 35.891 39.1957 34.8557 37.2832 33.8422L36.3467 35.6094L35.4102 37.3766C37.2747 38.3646 39.2805 39.4501 41.2018 40.3802L42.0732 38.5801ZM36.3467 35.6094L37.2832 33.8422C35.7688 33.0396 34.2633 32.2577 32.8397 31.5963L31.9971 33.4102L31.1544 35.224C32.4764 35.8381 33.9033 36.578 35.4102 37.3766L36.3467 35.6094ZM31.9971 33.4102L31.1692 31.5895C30.5458 31.873 29.9678 32.1314 29.4359 32.357L30.2168 34.1982L30.9977 36.0395C31.5769 35.7939 32.1914 35.5189 32.8249 35.2308L31.9971 33.4102ZM30.2168 34.1982L29.4359 32.357C26.4495 33.6236 23.9723 34.8131 21.1368 35.7104L21.7402 37.6172L22.3436 39.524C25.4195 38.5507 28.2188 37.2181 30.9977 36.0395L30.2168 34.1982ZM21.7402 37.6172L21.1558 35.7045L21.1206 35.7152L21.7051 37.6279L22.2895 39.5406L22.3247 39.5299L21.7402 37.6172ZM21.7051 37.6279L21.2441 35.6818L21.207 35.6906L21.668 37.6367L22.1289 39.5829L22.166 39.5741L21.7051 37.6279ZM21.668 37.6367L21.2102 35.6898C19.2138 36.1592 17.4689 36.5774 16.2269 36.804L16.5859 38.7715L16.945 40.739C18.314 40.4892 20.1919 40.0383 22.1257 39.5836L21.668 37.6367ZM16.5859 38.7715L16.2236 36.8046L16.1865 36.8114L16.5488 38.7783L16.9112 40.7452L16.9483 40.7384L16.5859 38.7715ZM16.5488 38.7783L16.3872 36.7849L16.3511 36.7878L16.5127 38.7812L16.6743 40.7747L16.7105 40.7718L16.5488 38.7783ZM16.5127 38.7812L16.2986 36.7927C16.1304 36.8109 15.972 36.8193 15.8045 36.8184L15.7939 38.8184L15.7834 40.8183C16.1072 40.82 16.4156 40.8033 16.7268 40.7698L16.5127 38.7812ZM15.7939 38.8184L14.857 40.5853C14.9939 40.6579 15.1441 40.7378 15.2975 40.8181L16.2246 39.0459L17.1517 37.2737C17.0108 37.2001 16.8739 37.1272 16.7309 37.0514L15.7939 38.8184ZM16.2246 39.0459L15.2976 40.8181C15.8676 41.1163 16.4611 41.4206 17.0179 41.7054L17.9287 39.9248L18.8395 38.1442C18.2831 37.8596 17.704 37.5627 17.1517 37.2737L16.2246 39.0459ZM17.9287 39.9248L17.0179 41.7054C17.574 41.9899 18.0935 42.2559 18.52 42.4791L19.4473 40.707L20.3745 38.935C19.9287 38.7017 19.3923 38.427 18.8395 38.1442L17.9287 39.9248ZM19.4473 40.707L18.52 42.4791C18.0348 42.2252 17.8408 41.6231 18.0989 41.1297L19.8711 42.0566L21.6433 42.9836C22.4132 41.5116 21.8383 39.7009 20.3746 38.935L19.4473 40.707ZM19.8711 42.0566L18.0993 41.1289C18.3564 40.6378 18.9604 40.4514 19.4478 40.7065L18.5205 42.4785L17.5932 44.2506C19.0591 45.0176 20.8735 44.4538 21.6429 42.9843L19.8711 42.0566ZM18.5205 42.4785L19.4478 40.7065C19.0114 40.4781 18.4822 40.2083 17.9294 39.9255L17.0186 41.7061L16.1077 43.4866C16.6711 43.7748 17.1779 44.0332 17.5932 44.2506L18.5205 42.4785ZM17.0186 41.7061L17.9294 39.9255C17.374 39.6414 16.7866 39.34 16.2249 39.0462L15.2979 40.8184L14.3708 42.5905C14.9498 42.8934 15.5511 43.2019 16.1077 43.4866L17.0186 41.7061ZM15.2979 40.8184L16.2249 39.0462C15.2413 38.5317 14.3604 38.0504 13.8647 37.7206L12.7568 39.3857L11.649 41.0509C12.3478 41.5158 13.4146 42.0903 14.3708 42.5905L15.2979 40.8184ZM12.7568 39.3857L13.8963 37.7421L13.6639 37.581L12.5244 39.2246L11.3849 40.8682L11.6173 41.0294L12.7568 39.3857ZM12.5244 39.2246L13.718 37.6198L13.3293 37.3307L12.1357 38.9355L10.9422 40.5404L11.3309 40.8294L12.5244 39.2246ZM12.1357 38.9355L14.1347 38.8709L14.1191 38.3875L12.1201 38.4521L10.1212 38.5168L10.1368 39.0002L12.1357 38.9355ZM12.1201 38.4521L14.1192 38.391C14.1186 38.373 14.1204 38.3271 14.1412 38.2469C14.1623 38.1658 14.1988 38.0652 14.2557 37.9451L12.4482 37.0889L10.6408 36.2326C10.372 36.8 10.093 37.5955 10.1211 38.5133L12.1201 38.4521ZM12.4482 37.0889L14.2556 37.9454C14.373 37.6976 14.564 37.395 14.8377 37.0412L13.2559 35.8174L11.674 34.5936C11.2925 35.0867 10.922 35.6394 10.6409 36.2324L12.4482 37.0889ZM13.2559 35.8174L14.8377 37.0412C15.3835 36.3357 16.1899 35.5174 17.1809 34.6518L15.8652 33.1455L14.5496 31.6392C13.4549 32.5953 12.4388 33.605 11.674 34.5935L13.2559 35.8174ZM15.8652 33.1455L17.2794 34.5597L17.2863 34.5529L15.8721 33.1387L14.4579 31.7245L14.451 31.7313L15.8652 33.1455ZM15.8721 33.1387L17.0345 34.7661L17.0414 34.7613L15.8789 33.1338L14.7164 31.5063L14.7096 31.5112L15.8721 33.1387ZM15.8789 33.1338L17.1689 34.6622C17.9981 33.9623 18.478 33.6165 18.9876 33.2488L17.8174 31.627L16.6471 30.0051C16.1032 30.3975 15.5304 30.8108 14.589 31.6054L15.8789 33.1338ZM17.8174 31.627L18.9868 33.2494C18.5376 33.5732 17.9131 33.4701 17.591 33.0238L19.2129 31.8535L20.8348 30.6833C19.8666 29.3414 17.9929 29.0351 16.648 30.0045L17.8174 31.627ZM19.2129 31.8535L17.5904 33.0229C17.2666 32.5737 17.3697 31.9493 17.8161 31.6271L18.9863 33.249L20.1566 34.8709C21.4984 33.9027 21.8047 32.029 20.8354 30.6841L19.2129 31.8535ZM18.9863 33.249L17.8161 31.6271C17.292 32.0053 16.7691 32.3831 15.8923 33.1224L17.1816 34.6514L18.4709 36.1803C19.237 35.5343 19.6683 35.2233 20.1566 34.8709L18.9863 33.249ZM17.1816 34.6514L15.866 33.145C14.9516 33.9437 14.1445 34.7394 13.5221 35.4863L15.0586 36.7666L16.5951 38.0469C17.0391 37.5141 17.6811 36.8705 18.4973 36.1577L17.1816 34.6514ZM15.0586 36.7666L14.8253 38.7529C15.4774 38.8295 15.9587 38.8383 16.4615 38.7879L16.2617 36.7979L16.062 34.8079C15.9088 34.8232 15.7251 34.8311 15.2919 34.7803L15.0586 36.7666ZM16.2617 36.7979L16.6235 38.7649C17.9164 38.527 19.6959 38.1016 21.6287 37.6471L21.1709 35.7002L20.7131 33.7533C18.7224 34.2214 17.0697 34.6157 15.8999 34.8309L16.2617 36.7979ZM21.1709 35.7002L21.7763 37.6064C24.7165 36.6726 27.3477 35.4158 30.2174 34.1987L29.4365 32.3574L28.6556 30.5162C25.5751 31.8227 23.2679 32.9358 20.5655 33.794L21.1709 35.7002ZM29.4365 32.3574L30.2174 34.1987C30.2598 34.1807 30.2938 34.1646 30.315 34.1543C30.3258 34.1491 30.3347 34.1447 30.3404 34.1418C30.3457 34.1391 30.3504 34.1368 30.3507 34.1366C30.3523 34.1358 30.3495 34.1372 30.3461 34.1389C30.3423 34.1409 30.3353 34.1443 30.3265 34.1486C30.3091 34.157 30.2791 34.1713 30.2407 34.1876L29.459 32.3467L28.6772 30.5058C28.6351 30.5237 28.6012 30.5397 28.5802 30.5499C28.5695 30.5551 28.5606 30.5595 28.555 30.5624C28.5497 30.565 28.5451 30.5674 28.5448 30.5675C28.5433 30.5683 28.5461 30.5668 28.5495 30.5651C28.5534 30.5632 28.5604 30.5597 28.5694 30.5553C28.5784 30.551 28.5903 30.5453 28.6046 30.5387C28.6188 30.5322 28.636 30.5245 28.6556 30.5162L29.4365 32.3574ZM29.459 32.3467L30.153 30.471C27.1354 29.3544 23.4145 28.4202 18.2117 27.3442L17.8066 29.3027L17.4016 31.2613C22.5641 32.329 26.0418 33.2148 28.7649 34.2224L29.459 32.3467ZM17.8066 29.3027L18.0656 27.3196C18.0433 27.3167 18.0239 27.3145 18.0088 27.313C17.9936 27.3114 17.9808 27.3103 17.9716 27.3095C17.9624 27.3087 17.955 27.3082 17.9509 27.3079C17.9488 27.3077 17.947 27.3076 17.9461 27.3075C17.9455 27.3075 17.9442 27.3074 17.9448 27.3074C17.9449 27.3074 17.9458 27.3075 17.947 27.3076C17.9482 27.3077 17.9502 27.3078 17.9525 27.308C17.9572 27.3083 17.9647 27.3089 17.9739 27.3097C17.9832 27.3106 17.9954 27.3117 18.0097 27.3132C18.0239 27.3148 18.0413 27.3168 18.0612 27.3194L17.7959 29.3018L17.5306 31.2841C17.5513 31.2869 17.5697 31.289 17.5848 31.2906C17.6 31.2922 17.6131 31.2935 17.6233 31.2944C17.6335 31.2953 17.642 31.2959 17.6475 31.2963C17.6529 31.2968 17.6572 31.2971 17.658 31.2971C17.659 31.2972 17.6582 31.2971 17.6581 31.2971C17.6576 31.2971 17.6564 31.297 17.6547 31.2969C17.6515 31.2966 17.645 31.2961 17.6367 31.2954C17.6283 31.2947 17.6164 31.2937 17.602 31.2922C17.5877 31.2908 17.5692 31.2887 17.5476 31.2859L17.8066 29.3027ZM17.7959 29.3018L18.0615 27.3195C18.0643 27.3198 18.064 27.3198 18.0579 27.3189C18.0516 27.318 18.0446 27.317 18.0326 27.3152C18.0106 27.312 17.9783 27.3072 17.9413 27.3021L17.667 29.2832L17.3927 31.2643C17.4109 31.2668 17.4281 31.2693 17.4492 31.2725C17.4588 31.2739 17.4717 31.2758 17.4839 31.2775C17.4961 31.2793 17.5125 31.2817 17.5303 31.284L17.7959 29.3018ZM17.667 29.2832L17.9412 27.3021C17.839 27.2879 17.6868 27.2661 17.4979 27.2378L17.2021 29.2158L16.9064 31.1938C17.1056 31.2236 17.2726 31.2477 17.3927 31.2643L17.667 29.2832ZM17.2021 29.2158L17.4979 27.2378C17.1261 27.1822 16.6189 27.1013 16.0791 27.0018L15.7168 28.9688L15.3545 30.9357C15.9494 31.0452 16.5025 31.1334 16.9064 31.1938L17.2021 29.2158ZM15.7168 28.9688L16.0791 27.0018C15.5367 26.9019 14.9748 26.7857 14.4896 26.6593L13.9854 28.5947L13.4811 30.5301C14.0987 30.691 14.7662 30.8273 15.3545 30.9357L15.7168 28.9688ZM13.9854 28.5947L14.4897 26.6594C13.9778 26.526 13.6395 26.4039 13.4863 26.3171L12.501 28.0576L11.5157 29.7981C12.1611 30.1635 12.9442 30.3902 13.481 30.5301L13.9854 28.5947ZM12.501 28.0576L13.4866 26.3174C13.966 26.5889 14.1362 27.1979 13.8635 27.6796L12.123 26.6943L10.3826 25.7091C9.56589 27.1518 10.075 28.9821 11.5153 29.7979L12.501 28.0576ZM12.123 26.6943L13.8631 27.6804C13.5917 28.1592 12.9832 28.3297 12.5012 28.057L13.4863 26.3164L14.4714 24.5758C13.0286 23.7593 11.1988 24.2688 10.383 25.7082L12.123 26.6943ZM13.4863 26.3164L12.501 28.0568C12.9011 28.2834 13.4628 28.4585 13.9849 28.5945L14.4893 26.6592L14.9936 24.7238C14.7755 24.667 14.6154 24.6178 14.5091 24.5809C14.4562 24.5625 14.425 24.5501 14.4119 24.5445C14.3939 24.537 14.42 24.5467 14.4716 24.576L13.4863 26.3164ZM14.4893 26.6592L13.985 28.5946C14.5351 28.7379 15.1493 28.8653 15.7168 28.9698L16.0791 27.0029L16.4414 25.036C15.9261 24.9411 15.4152 24.8337 14.9935 24.7238L14.4893 26.6592ZM16.0791 27.0029L15.7168 28.9698C16.2847 29.0744 16.8152 29.1584 17.2023 29.2163L17.498 27.2383L17.7938 25.2603C17.4349 25.2066 16.9514 25.13 16.4414 25.036L16.0791 27.0029ZM17.498 27.2383L17.2023 29.2163C17.3997 29.2458 17.561 29.2682 17.6672 29.2829L17.9414 27.3018L18.2157 25.3207C18.1119 25.3063 17.9686 25.2864 17.7938 25.2603L17.498 27.2383ZM17.9414 27.3018L17.6672 29.2829C17.7108 29.2889 17.7632 29.2963 17.7962 29.3007L18.0615 27.3184L18.3268 25.336C18.3054 25.3332 18.2764 25.3291 18.2156 25.3206L17.9414 27.3018ZM18.0615 27.3184L17.7965 29.3007C17.7638 29.2964 17.7393 29.292 17.7356 29.2914C17.7354 29.2914 17.7342 29.2912 17.737 29.2917C17.7386 29.2919 17.7433 29.2927 17.7488 29.2937C17.7545 29.2947 17.7636 29.2962 17.7748 29.298C17.7859 29.2998 17.8019 29.3022 17.8212 29.3049L18.0918 27.3232L18.3624 25.3416C18.38 25.344 18.3943 25.3462 18.4034 25.3477C18.4127 25.3492 18.4199 25.3504 18.4234 25.351C18.4268 25.3516 18.4293 25.352 18.4285 25.3519C18.4284 25.3519 18.4283 25.3518 18.4279 25.3518C18.4277 25.3517 18.4272 25.3516 18.4268 25.3516C18.4258 25.3514 18.4243 25.3511 18.4226 25.3508C18.4088 25.3484 18.3724 25.3421 18.3266 25.336L18.0615 27.3184ZM18.0918 27.3232L17.831 29.3062C17.9261 29.3187 18.006 29.3222 18.0622 29.3231C18.1184 29.324 18.1629 29.3224 18.1846 29.3214C18.1954 29.3209 18.2041 29.3204 18.2052 29.3204C18.2096 29.3202 18.2009 29.3206 18.1925 29.321C18.1834 29.3215 18.1612 29.3225 18.1327 29.3229C18.1056 29.3234 18.056 29.3237 17.9939 29.3204L18.0996 27.3232L18.2053 25.326C18.1428 25.3227 18.0928 25.3231 18.0652 25.3235C18.0362 25.324 18.0134 25.325 18.0037 25.3255C17.9948 25.3259 17.9855 25.3264 17.9892 25.3262C17.9897 25.3262 17.9977 25.3258 18.0079 25.3253C18.0282 25.3244 18.0712 25.3228 18.126 25.3237C18.1806 25.3245 18.259 25.328 18.3526 25.3403L18.0918 27.3232ZM18.0996 27.3232L17.2052 29.1121L17.2071 29.1131L18.1016 27.3242L18.996 25.5354L18.994 25.5344L18.0996 27.3232ZM18.1016 27.3242L17.8922 29.3132L17.9293 29.3171L18.1387 27.3281L18.348 25.3391L18.3109 25.3352L18.1016 27.3242ZM18.1387 27.3281L17.7267 29.2852L17.7638 29.293L18.1758 27.3359L18.5878 25.3788L18.5507 25.371L18.1387 27.3281ZM18.1758 27.3359L17.771 29.2945C23.452 30.4687 27.2342 31.4483 30.2371 32.645L30.9775 30.7871L31.7179 28.9292C28.3706 27.5953 24.2995 26.5593 18.5806 25.3773L18.1758 27.3359ZM30.9775 30.7871L30.2371 32.645C30.5399 32.7657 30.8545 32.8998 31.1874 33.0456L31.9902 31.2139L32.7931 29.3821C32.4396 29.2271 32.0794 29.0733 31.718 28.9292L30.9775 30.7871ZM31.9902 31.2139L32.8324 33.0279C35.2817 31.8908 38.1162 30.4847 40.7592 29.1641L39.8652 27.375L38.9713 25.5859C36.3254 26.908 33.5386 28.29 31.1481 29.3998L31.9902 31.2139ZM39.8652 27.375L40.7592 29.1641C44.4323 27.3287 47.6587 25.7015 49.0482 25.1553L48.3164 23.2939L47.5847 21.4326C45.9786 22.064 42.5092 23.8181 38.9713 25.5859L39.8652 27.375Z" fill="white" mask="url(#path-1-outside-1_34_117)"/>
</svg>
