<svg width="64" height="64" viewBox="0 0 64 64" fill="none" xmlns="http://www.w3.org/2000/svg">
<mask id="path-1-outside-1_34_67" maskUnits="userSpaceOnUse" x="12.1052" y="18.5037" width="42" height="26" fill="black">
<rect fill="white" x="12.1052" y="18.5037" width="42" height="26"/>
<path d="M44.8855 21.2166C45.0441 20.8342 45.4834 20.6521 45.866 20.8104C46.3114 20.9949 46.8523 21.2136 47.4333 21.4481C48.0126 21.6818 48.6308 21.9308 49.2244 22.1766C50.3861 22.6577 51.5288 23.1546 52.0935 23.4998L52.4041 23.6893L52.448 24.0506C52.499 24.4753 52.4068 24.9115 52.2566 25.3192C52.1038 25.7336 51.8713 26.1694 51.5886 26.6111C51.0235 27.4943 50.209 28.4727 49.2576 29.4666L49.2498 29.4754C48.441 30.2921 47.9562 30.7128 47.4675 31.1365C47.1547 31.4078 46.6803 31.374 46.4089 31.0613C46.1381 30.7485 46.1716 30.275 46.4841 30.0037C46.9605 29.5907 47.4131 29.1986 48.1833 28.4207C49.0954 27.4672 49.8347 26.5703 50.3259 25.8026C50.3408 25.7794 50.3536 25.7551 50.3679 25.7322C49.5297 25.6846 49.0946 25.7093 48.6628 25.7928C47.4455 26.1307 45.7556 26.699 43.8357 27.3358C41.0889 28.4862 38.7157 29.8975 35.8757 31.4139C35.484 31.623 35.0696 31.8503 34.6375 32.0926C37.5147 32.9646 41.0843 33.6703 46.1042 34.451C46.1099 34.4514 46.1165 34.4523 46.1238 34.4529C46.1536 34.4554 46.1974 34.4588 46.2527 34.4637C46.3637 34.4735 46.5232 34.4884 46.7175 34.5076C47.1059 34.5461 47.6374 34.6037 48.2058 34.6795C48.7725 34.7551 49.3868 34.8493 49.9363 34.9637C50.4653 35.0739 51.0061 35.2159 51.3845 35.4061C51.7543 35.5922 51.9034 36.0439 51.7175 36.4139C51.5314 36.7836 51.0806 36.9318 50.7107 36.7459C50.522 36.6511 50.1495 36.5407 49.6296 36.4324C49.1299 36.3284 48.5561 36.239 48.0076 36.1658C47.4609 36.0929 46.9472 36.0372 46.5701 35.9998C46.3821 35.9812 46.2281 35.9672 46.1218 35.9578C46.0687 35.9531 46.0265 35.9494 45.9988 35.9471C45.9851 35.9459 45.9744 35.9447 45.9675 35.9442H45.9587L45.9304 35.9422L45.9021 35.9373C40.1531 35.0439 36.1991 34.2353 32.9871 33.1365C32.9525 33.1247 32.9183 33.1115 32.8835 33.0994C30.6982 34.3753 28.2381 35.884 25.9177 37.3152C22.4796 39.436 19.3109 41.4083 17.8845 42.1219C17.5142 42.3069 17.064 42.1562 16.8787 41.7859C16.6935 41.4156 16.8423 40.9644 17.2126 40.7791C18.5608 40.1047 21.644 38.1895 25.1306 36.0389C27.0843 34.8338 29.1546 33.5621 31.0837 32.4178C29.6303 31.828 28.0988 31.1266 26.5632 30.408C24.3234 29.3599 22.0704 28.2787 19.9607 27.4217L19.9539 27.4188C18.5351 26.8239 17.465 26.238 16.4958 25.5399L16.4832 25.5301L16.4724 25.5213C16.2647 25.3585 16.0659 25.1894 15.8728 25.0193C15.8937 25.4489 15.9338 25.8929 15.9919 26.3328C16.1482 27.5153 16.4234 28.5707 16.7517 29.1951C16.9444 29.5617 16.8037 30.016 16.4373 30.2088C16.0707 30.4014 15.6163 30.2599 15.4236 29.8934C14.9729 29.0362 14.6691 27.7742 14.5046 26.5291C14.3385 25.2718 14.3025 23.9326 14.4421 22.8856L14.4929 22.5037L14.8328 22.3231C15.4638 21.987 16.2746 21.8716 17.0671 21.8123C17.8412 21.7545 18.82 21.7414 19.6892 21.6951C20.4806 21.6351 20.9901 21.5568 21.6941 21.2957C22.0824 21.1517 22.5148 21.3499 22.6589 21.7381C22.803 22.1264 22.6047 22.5578 22.2166 22.702C21.3336 23.0295 20.6724 23.1253 19.8025 23.1912L19.7937 23.1922H19.7859C18.7836 23.2462 17.9702 23.2492 17.1785 23.3084C16.8535 23.3327 16.5712 23.3647 16.3289 23.407C16.6873 23.7394 17.0222 24.0462 17.3816 24.3289C18.2359 24.9433 19.1968 25.4742 20.5261 26.032L21.3416 26.3699C23.2564 27.1823 25.2597 28.1422 27.199 29.0496C29.1441 29.9598 31.0246 30.8169 32.7312 31.452C33.6023 30.9492 34.4241 30.4882 35.1687 30.0906C37.9433 28.6092 40.44 27.1293 43.2859 25.9402L43.3113 25.9305L43.3376 25.9207C45.2578 25.2839 47.0156 24.6922 48.2869 24.3406L48.3132 24.3338L48.3396 24.3279C48.8876 24.2188 49.4087 24.1862 50.1785 24.2186C49.7358 24.0199 49.2128 23.7963 48.6501 23.5633C48.0638 23.3205 47.4525 23.0726 46.8728 22.8387C46.2946 22.6054 45.7453 22.384 45.2917 22.1961C44.9095 22.0374 44.7272 21.5991 44.8855 21.2166Z"/>
</mask>
<path d="M44.8855 21.2166C45.0441 20.8342 45.4834 20.6521 45.866 20.8104C46.3114 20.9949 46.8523 21.2136 47.4333 21.4481C48.0126 21.6818 48.6308 21.9308 49.2244 22.1766C50.3861 22.6577 51.5288 23.1546 52.0935 23.4998L52.4041 23.6893L52.448 24.0506C52.499 24.4753 52.4068 24.9115 52.2566 25.3192C52.1038 25.7336 51.8713 26.1694 51.5886 26.6111C51.0235 27.4943 50.209 28.4727 49.2576 29.4666L49.2498 29.4754C48.441 30.2921 47.9562 30.7128 47.4675 31.1365C47.1547 31.4078 46.6803 31.374 46.4089 31.0613C46.1381 30.7485 46.1716 30.275 46.4841 30.0037C46.9605 29.5907 47.4131 29.1986 48.1833 28.4207C49.0954 27.4672 49.8347 26.5703 50.3259 25.8026C50.3408 25.7794 50.3536 25.7551 50.3679 25.7322C49.5297 25.6846 49.0946 25.7093 48.6628 25.7928C47.4455 26.1307 45.7556 26.699 43.8357 27.3358C41.0889 28.4862 38.7157 29.8975 35.8757 31.4139C35.484 31.623 35.0696 31.8503 34.6375 32.0926C37.5147 32.9646 41.0843 33.6703 46.1042 34.451C46.1099 34.4514 46.1165 34.4523 46.1238 34.4529C46.1536 34.4554 46.1974 34.4588 46.2527 34.4637C46.3637 34.4735 46.5232 34.4884 46.7175 34.5076C47.1059 34.5461 47.6374 34.6037 48.2058 34.6795C48.7725 34.7551 49.3868 34.8493 49.9363 34.9637C50.4653 35.0739 51.0061 35.2159 51.3845 35.4061C51.7543 35.5922 51.9034 36.0439 51.7175 36.4139C51.5314 36.7836 51.0806 36.9318 50.7107 36.7459C50.522 36.6511 50.1495 36.5407 49.6296 36.4324C49.1299 36.3284 48.5561 36.239 48.0076 36.1658C47.4609 36.0929 46.9472 36.0372 46.5701 35.9998C46.3821 35.9812 46.2281 35.9672 46.1218 35.9578C46.0687 35.9531 46.0265 35.9494 45.9988 35.9471C45.9851 35.9459 45.9744 35.9447 45.9675 35.9442H45.9587L45.9304 35.9422L45.9021 35.9373C40.1531 35.0439 36.1991 34.2353 32.9871 33.1365C32.9525 33.1247 32.9183 33.1115 32.8835 33.0994C30.6982 34.3753 28.2381 35.884 25.9177 37.3152C22.4796 39.436 19.3109 41.4083 17.8845 42.1219C17.5142 42.3069 17.064 42.1562 16.8787 41.7859C16.6935 41.4156 16.8423 40.9644 17.2126 40.7791C18.5608 40.1047 21.644 38.1895 25.1306 36.0389C27.0843 34.8338 29.1546 33.5621 31.0837 32.4178C29.6303 31.828 28.0988 31.1266 26.5632 30.408C24.3234 29.3599 22.0704 28.2787 19.9607 27.4217L19.9539 27.4188C18.5351 26.8239 17.465 26.238 16.4958 25.5399L16.4832 25.5301L16.4724 25.5213C16.2647 25.3585 16.0659 25.1894 15.8728 25.0193C15.8937 25.4489 15.9338 25.8929 15.9919 26.3328C16.1482 27.5153 16.4234 28.5707 16.7517 29.1951C16.9444 29.5617 16.8037 30.016 16.4373 30.2088C16.0707 30.4014 15.6163 30.2599 15.4236 29.8934C14.9729 29.0362 14.6691 27.7742 14.5046 26.5291C14.3385 25.2718 14.3025 23.9326 14.4421 22.8856L14.4929 22.5037L14.8328 22.3231C15.4638 21.987 16.2746 21.8716 17.0671 21.8123C17.8412 21.7545 18.82 21.7414 19.6892 21.6951C20.4806 21.6351 20.9901 21.5568 21.6941 21.2957C22.0824 21.1517 22.5148 21.3499 22.6589 21.7381C22.803 22.1264 22.6047 22.5578 22.2166 22.702C21.3336 23.0295 20.6724 23.1253 19.8025 23.1912L19.7937 23.1922H19.7859C18.7836 23.2462 17.9702 23.2492 17.1785 23.3084C16.8535 23.3327 16.5712 23.3647 16.3289 23.407C16.6873 23.7394 17.0222 24.0462 17.3816 24.3289C18.2359 24.9433 19.1968 25.4742 20.5261 26.032L21.3416 26.3699C23.2564 27.1823 25.2597 28.1422 27.199 29.0496C29.1441 29.9598 31.0246 30.8169 32.7312 31.452C33.6023 30.9492 34.4241 30.4882 35.1687 30.0906C37.9433 28.6092 40.44 27.1293 43.2859 25.9402L43.3113 25.9305L43.3376 25.9207C45.2578 25.2839 47.0156 24.6922 48.2869 24.3406L48.3132 24.3338L48.3396 24.3279C48.8876 24.2188 49.4087 24.1862 50.1785 24.2186C49.7358 24.0199 49.2128 23.7963 48.6501 23.5633C48.0638 23.3205 47.4525 23.0726 46.8728 22.8387C46.2946 22.6054 45.7453 22.384 45.2917 22.1961C44.9095 22.0374 44.7272 21.5991 44.8855 21.2166Z" fill="black"/>
<path d="M44.8855 21.2166L43.4999 20.6421L43.4995 20.643L44.8855 21.2166ZM45.866 20.8104L46.4401 19.4246L46.4394 19.4243L45.866 20.8104ZM47.4333 21.4481L47.9946 20.057L47.9946 20.057L47.4333 21.4481ZM49.2244 22.1766L49.7983 20.7907L49.7983 20.7907L49.2244 22.1766ZM52.0935 23.4998L51.3112 24.7797L51.3123 24.7803L52.0935 23.4998ZM52.4041 23.6893L53.8931 23.5082L53.8054 22.7871L53.1853 22.4088L52.4041 23.6893ZM52.448 24.0506L53.9373 23.8717L53.937 23.8695L52.448 24.0506ZM52.2566 25.3192L53.664 25.8379L53.6641 25.8377L52.2566 25.3192ZM51.5886 26.6111L52.8521 27.4196L52.8521 27.4195L51.5886 26.6111ZM49.2576 29.4666L48.174 28.4293L48.1549 28.4494L48.1365 28.4701L49.2576 29.4666ZM49.2498 29.4754L50.3156 30.5308L50.344 30.5021L50.3709 30.4719L49.2498 29.4754ZM47.4675 31.1365L46.4848 30.0033L46.4848 30.0033L47.4675 31.1365ZM46.4089 31.0613L45.2748 32.0431L45.2762 32.0446L46.4089 31.0613ZM46.4841 30.0037L45.5014 28.8704L45.5008 28.871L46.4841 30.0037ZM48.1833 28.4207L49.2492 29.4762L49.2583 29.4669L49.2673 29.4575L48.1833 28.4207ZM50.3259 25.8026L51.5894 26.611L51.5894 26.611L50.3259 25.8026ZM50.3679 25.7322L51.6393 26.5282L52.985 24.3786L50.4531 24.2347L50.3679 25.7322ZM48.6628 25.7928L48.3781 24.3201L48.3193 24.3314L48.2616 24.3474L48.6628 25.7928ZM43.8357 27.3358L43.3635 25.912L43.3091 25.9301L43.2562 25.9522L43.8357 27.3358ZM35.8757 31.4139L36.5822 32.7371L36.5822 32.7371L35.8757 31.4139ZM34.6375 32.0926L33.9041 30.7841L30.8312 32.5064L34.2024 33.5281L34.6375 32.0926ZM46.1042 34.451L45.8737 35.9332L45.9279 35.9416L45.9826 35.946L46.1042 34.451ZM46.1238 34.4529L46.2487 32.9582L46.2475 32.9581L46.1238 34.4529ZM46.2527 34.4637L46.1209 35.9579L46.121 35.9579L46.2527 34.4637ZM46.7175 34.5076L46.8655 33.0149L46.8655 33.0149L46.7175 34.5076ZM48.2058 34.6795L48.4041 33.1927L48.404 33.1927L48.2058 34.6795ZM49.9363 34.9637L50.2421 33.4952L50.242 33.4952L49.9363 34.9637ZM51.3845 35.4061L52.059 34.0663L52.0581 34.0658L51.3845 35.4061ZM51.7175 36.4139L53.0573 37.0884L53.0578 37.0874L51.7175 36.4139ZM50.7107 36.7459L50.0371 38.0862L50.0373 38.0863L50.7107 36.7459ZM49.6296 36.4324L49.9354 34.9639L49.9353 34.9639L49.6296 36.4324ZM48.0076 36.1658L48.2058 34.679L48.2058 34.679L48.0076 36.1658ZM46.5701 35.9998L46.718 34.5071L46.718 34.5071L46.5701 35.9998ZM46.1218 35.9578L46.2536 34.4636L46.2535 34.4636L46.1218 35.9578ZM45.9988 35.9471L45.8734 37.4418L45.8738 37.4419L45.9988 35.9471ZM45.9675 35.9442L46.0894 34.4491L46.0286 34.4442H45.9675V35.9442ZM45.9587 35.9442L45.8555 37.4406L45.9071 37.4442H45.9587V35.9442ZM45.9304 35.9422L45.6756 37.4204L45.7509 37.4334L45.8272 37.4386L45.9304 35.9422ZM45.9021 35.9373L46.157 34.4591L46.1447 34.457L46.1324 34.4551L45.9021 35.9373ZM32.9871 33.1365L32.5016 34.5558L32.5016 34.5558L32.9871 33.1365ZM32.8835 33.0994L33.3746 31.6821L32.7229 31.4563L32.1273 31.804L32.8835 33.0994ZM25.9177 37.3152L25.1302 36.0386L25.1302 36.0386L25.9177 37.3152ZM17.8845 42.1219L18.555 43.4637L18.5557 43.4634L17.8845 42.1219ZM16.8787 41.7859L15.537 42.4567L15.5373 42.4573L16.8787 41.7859ZM17.2126 40.7791L16.5415 39.4376L16.5414 39.4377L17.2126 40.7791ZM25.1306 36.0389L24.3431 34.7622L24.3431 34.7622L25.1306 36.0389ZM31.0837 32.4178L31.849 33.7079L34.45 32.165L31.6478 31.0279L31.0837 32.4178ZM26.5632 30.408L25.9275 31.7666L25.9275 31.7666L26.5632 30.408ZM19.9607 27.4217L19.3698 28.8004L19.3829 28.806L19.3962 28.8114L19.9607 27.4217ZM19.9539 27.4188L20.5448 26.04L20.5338 26.0354L19.9539 27.4188ZM16.4958 25.5399L15.5813 26.7288L15.6 26.7432L15.6191 26.7569L16.4958 25.5399ZM16.4832 25.5301L15.5333 26.691L15.5507 26.7053L15.5686 26.719L16.4832 25.5301ZM16.4724 25.5213L17.4223 24.3604L17.41 24.3503L17.3975 24.3405L16.4724 25.5213ZM15.8728 25.0193L16.8642 23.8937L14.202 21.5488L14.3746 25.0923L15.8728 25.0193ZM15.9919 26.3328L14.5049 26.5293L14.5049 26.5293L15.9919 26.3328ZM16.7517 29.1951L18.0794 28.4971L18.0794 28.4971L16.7517 29.1951ZM16.4373 30.2088L17.1349 31.5367L17.1357 31.5363L16.4373 30.2088ZM15.4236 29.8934L14.0959 30.5914L14.096 30.5916L15.4236 29.8934ZM14.5046 26.5291L13.0176 26.7256L13.0176 26.7256L14.5046 26.5291ZM14.4421 22.8856L15.929 23.0838L15.929 23.0833L14.4421 22.8856ZM14.4929 22.5037L13.7888 21.1792L13.1077 21.5413L13.006 22.306L14.4929 22.5037ZM14.8328 22.3231L15.5369 23.6475L15.5378 23.647L14.8328 22.3231ZM17.0671 21.8123L16.9553 20.3165L16.9553 20.3165L17.0671 21.8123ZM19.6892 21.6951L19.769 23.193L19.7858 23.1921L19.8026 23.1908L19.6892 21.6951ZM21.6941 21.2957L22.2157 22.7021L22.2158 22.7021L21.6941 21.2957ZM22.6589 21.7381L24.0653 21.2164L24.0652 21.2161L22.6589 21.7381ZM22.2166 22.702L22.7382 24.1083L22.7387 24.1081L22.2166 22.702ZM19.8025 23.1912L19.6891 21.6955L19.6629 21.6975L19.6368 21.7004L19.8025 23.1912ZM19.7937 23.1922V24.6922H19.8768L19.9593 24.683L19.7937 23.1922ZM19.7859 23.1922V21.6922H19.7455L19.7052 21.6944L19.7859 23.1922ZM17.1785 23.3084L17.0666 21.8126L17.0666 21.8126L17.1785 23.3084ZM16.3289 23.407L16.0705 21.9295L13.0909 22.4504L15.309 24.507L16.3289 23.407ZM17.3816 24.3289L16.4541 25.5078L16.4796 25.5278L16.5058 25.5467L17.3816 24.3289ZM20.5261 26.032L19.9457 27.4152L19.9519 27.4178L20.5261 26.032ZM21.3416 26.3699L21.9274 24.989L21.9158 24.9842L21.3416 26.3699ZM27.199 29.0496L26.5632 30.4082L26.5632 30.4082L27.199 29.0496ZM32.7312 31.452L32.2081 32.8578L32.8697 33.104L33.481 32.7511L32.7312 31.452ZM35.1687 30.0906L35.8752 31.4138L35.8752 31.4138L35.1687 30.0906ZM43.2859 25.9402L42.7474 24.5402L42.7274 24.5479L42.7076 24.5562L43.2859 25.9402ZM43.3113 25.9305L42.7903 24.5239L42.7815 24.5271L42.7728 24.5305L43.3113 25.9305ZM43.3376 25.9207L42.8655 24.497L42.8409 24.5051L42.8167 24.5141L43.3376 25.9207ZM48.2869 24.3406L47.9104 22.8886L47.8987 22.8917L47.8871 22.8949L48.2869 24.3406ZM48.3132 24.3338L47.9878 22.8695L47.9622 22.8752L47.9368 22.8818L48.3132 24.3338ZM48.3396 24.3279L48.0466 22.8568L48.0304 22.8601L48.0142 22.8637L48.3396 24.3279ZM50.1785 24.2186L50.1154 25.7172L50.7927 22.8501L50.1785 24.2186ZM48.6501 23.5633L49.2241 22.1775L49.2241 22.1775L48.6501 23.5633ZM46.8728 22.8387L47.4341 21.4477L47.4341 21.4477L46.8728 22.8387ZM45.2917 22.1961L44.7168 23.5815L44.7176 23.5819L45.2917 22.1961ZM44.8855 21.2166L46.2711 21.7911C46.1127 22.1733 45.6753 22.3548 45.2925 22.1964L45.866 20.8104L46.4394 19.4243C45.2916 18.9494 43.9755 19.4951 43.4999 20.6421L44.8855 21.2166ZM45.866 20.8104L45.2918 22.1961C45.7447 22.3838 46.2921 22.6051 46.8721 22.8391L47.4333 21.4481L47.9946 20.057C47.4125 19.8221 46.8781 19.606 46.4401 19.4246L45.866 20.8104ZM47.4333 21.4481L46.8721 22.8391C47.4535 23.0737 48.0646 23.3198 48.6504 23.5624L49.2244 22.1766L49.7983 20.7907C49.1971 20.5417 48.5718 20.2899 47.9946 20.057L47.4333 21.4481ZM49.2244 22.1766L48.6504 23.5624C49.8466 24.0578 50.8677 24.5086 51.3112 24.7797L52.0935 23.4998L52.8758 22.22C52.1899 21.8007 50.9255 21.2576 49.7983 20.7907L49.2244 22.1766ZM52.0935 23.4998L51.3123 24.7803L51.6229 24.9698L52.4041 23.6893L53.1853 22.4088L52.8747 22.2193L52.0935 23.4998ZM52.4041 23.6893L50.915 23.8704L50.959 24.2317L52.448 24.0506L53.937 23.8695L53.8931 23.5082L52.4041 23.6893ZM52.448 24.0506L50.9587 24.2295C50.9708 24.33 50.9549 24.5135 50.8491 24.8006L52.2566 25.3192L53.6641 25.8377C53.8587 25.3096 54.0273 24.6206 53.9373 23.8717L52.448 24.0506ZM52.2566 25.3192L50.8491 24.8004C50.746 25.0802 50.5723 25.4163 50.3251 25.8027L51.5886 26.6111L52.8521 27.4195C53.1702 26.9224 53.4617 26.387 53.664 25.8379L52.2566 25.3192ZM51.5886 26.6111L50.3252 25.8026C49.8324 26.5726 49.09 27.4725 48.174 28.4293L49.2576 29.4666L50.3411 30.5039C51.328 29.4729 52.2145 28.416 52.8521 27.4196L51.5886 26.6111ZM49.2576 29.4666L48.1365 28.4701L48.1286 28.4789L49.2498 29.4754L50.3709 30.4719L50.3787 30.4632L49.2576 29.4666ZM49.2498 29.4754L48.1839 28.42C47.4136 29.1978 46.9609 29.5904 46.4848 30.0033L47.4675 31.1365L48.4502 32.2698C48.9514 31.8352 49.4685 31.3863 50.3156 30.5308L49.2498 29.4754ZM47.4675 31.1365L46.4848 30.0033C46.7981 29.7316 47.2706 29.7658 47.5417 30.0781L46.4089 31.0613L45.2762 32.0446C46.0901 32.9822 47.5113 33.084 48.4502 32.2698L47.4675 31.1365ZM46.4089 31.0613L47.543 30.0796C47.8133 30.3918 47.7806 30.8646 47.4674 31.1365L46.4841 30.0037L45.5008 28.871C44.5626 29.6854 44.4629 31.1052 45.2748 32.0431L46.4089 31.0613ZM46.4841 30.0037L47.4668 31.137C47.9553 30.7135 48.4403 30.2931 49.2492 29.4762L48.1833 28.4207L47.1175 27.3653C46.3859 28.1041 45.9657 28.4679 45.5014 28.8704L46.4841 30.0037ZM48.1833 28.4207L49.2673 29.4575C50.2149 28.4668 51.026 27.4916 51.5894 26.611L50.3259 25.8026L49.0624 24.9941C48.6434 25.649 47.9759 26.4675 47.0994 27.3839L48.1833 28.4207ZM50.3259 25.8026L51.5894 26.611C51.604 26.5882 51.6161 26.5683 51.625 26.5533C51.6337 26.5388 51.6411 26.5259 51.6448 26.5197C51.6471 26.5156 51.6479 26.5143 51.6491 26.5122C51.65 26.5107 51.6501 26.5106 51.6497 26.5112C51.6491 26.5121 51.6453 26.5187 51.6393 26.5282L50.3679 25.7322L49.0965 24.9363C49.0834 24.9572 49.0726 24.9754 49.0651 24.988C49.0583 24.9997 49.0514 25.0115 49.0495 25.0148C49.0463 25.0204 49.0468 25.0194 49.0484 25.0167C49.0503 25.0135 49.0553 25.0053 49.0624 24.9941L50.3259 25.8026ZM50.3679 25.7322L50.4531 24.2347C49.552 24.1834 48.9797 24.2037 48.3781 24.3201L48.6628 25.7928L48.9476 27.2655C49.2095 27.2149 49.5075 27.1857 50.2828 27.2298L50.3679 25.7322ZM48.6628 25.7928L48.2616 24.3474C46.9985 24.6981 45.261 25.2827 43.3635 25.912L43.8357 27.3358L44.3079 28.7595C46.2502 28.1153 47.8925 27.5633 49.0641 27.2381L48.6628 25.7928ZM43.8357 27.3358L43.2562 25.9522C40.4229 27.1389 37.9337 28.6146 35.1692 30.0907L35.8757 31.4139L36.5822 32.7371C39.4976 31.1804 41.7549 29.8336 44.4152 28.7193L43.8357 27.3358ZM35.8757 31.4139L35.1692 30.0907C34.7671 30.3054 34.3436 30.5377 33.9041 30.7841L34.6375 32.0926L35.3709 33.4011C35.7956 33.163 36.201 32.9407 36.5822 32.7371L35.8757 31.4139ZM34.6375 32.0926L34.2024 33.5281C37.1839 34.4317 40.8383 35.1501 45.8737 35.9332L46.1042 34.451L46.3348 32.9688C41.3303 32.1905 37.8456 31.4975 35.0725 30.6571L34.6375 32.0926ZM46.1042 34.451L45.9826 35.946C45.9691 35.945 45.9589 35.9439 45.9546 35.9435C45.9523 35.9432 45.9506 35.943 45.9501 35.943C45.95 35.943 45.9495 35.9429 45.9511 35.9431C45.9529 35.9433 45.9594 35.944 45.9672 35.9448C45.9754 35.9456 45.9867 35.9467 46.0001 35.9478L46.1238 34.4529L46.2475 32.9581C46.2572 32.9589 46.2649 32.9596 46.2696 32.9601C46.274 32.9605 46.2772 32.9609 46.2757 32.9607C46.2756 32.9607 46.2736 32.9605 46.2718 32.9603C46.2698 32.9601 46.2666 32.9597 46.2627 32.9593C46.2554 32.9586 46.2422 32.9573 46.2259 32.9559L46.1042 34.451ZM46.1238 34.4529L45.9988 35.9477C46.0151 35.9491 46.0397 35.9511 46.0565 35.9524C46.0763 35.9541 46.0976 35.9558 46.1209 35.9579L46.2527 34.4637L46.3844 32.9695C46.3261 32.9643 46.2651 32.9595 46.2487 32.9582L46.1238 34.4529ZM46.2527 34.4637L46.121 35.9579C46.2254 35.9671 46.3794 35.9815 46.5696 36.0003L46.7175 34.5076L46.8655 33.0149C46.667 32.9953 46.502 32.9798 46.3844 32.9695L46.2527 34.4637ZM46.7175 34.5076L46.5696 36.0003C46.9466 36.0377 47.4606 36.0934 48.0076 36.1664L48.2058 34.6795L48.404 33.1927C47.8143 33.114 47.2652 33.0546 46.8655 33.0149L46.7175 34.5076ZM48.2058 34.6795L48.0076 36.1663C48.5581 36.2397 49.132 36.3284 49.6305 36.4322L49.9363 34.9637L50.242 33.4952C49.6417 33.3702 48.987 33.2704 48.4041 33.1927L48.2058 34.6795ZM49.9363 34.9637L49.6305 36.4322C50.1487 36.5401 50.5216 36.6512 50.7109 36.7463L51.3845 35.4061L52.0581 34.0658C51.4906 33.7806 50.782 33.6076 50.2421 33.4952L49.9363 34.9637ZM51.3845 35.4061L50.7101 36.7459C50.3394 36.5593 50.1918 36.1094 50.3772 35.7404L51.7175 36.4139L53.0578 37.0874C53.6151 35.9784 53.1692 34.6251 52.059 34.0663L51.3845 35.4061ZM51.7175 36.4139L50.3777 35.7393C50.5654 35.3666 51.0171 35.2212 51.3841 35.4056L50.7107 36.7459L50.0373 38.0863C51.1441 38.6423 52.4974 38.2005 53.0573 37.0884L51.7175 36.4139ZM50.7107 36.7459L51.3843 35.4057C51.0042 35.2146 50.4606 35.0733 49.9354 34.9639L49.6296 36.4324L49.3239 37.9009C49.5567 37.9494 49.7401 37.995 49.8744 38.0342C50.0235 38.0777 50.0628 38.0991 50.0371 38.0862L50.7107 36.7459ZM49.6296 36.4324L49.9353 34.9639C49.3859 34.8495 48.7724 34.7545 48.2058 34.679L48.0076 36.1658L47.8093 37.6527C48.3398 37.7234 48.874 37.8073 49.324 37.901L49.6296 36.4324ZM48.0076 36.1658L48.2058 34.679C47.6378 34.6033 47.1067 34.5457 46.718 34.5071L46.5701 35.9998L46.4221 37.4925C46.7878 37.5288 47.284 37.5826 47.8093 37.6527L48.0076 36.1658ZM46.5701 35.9998L46.718 34.5071C46.5234 34.4878 46.3638 34.4733 46.2536 34.4636L46.1218 35.9578L45.9901 37.452C46.0924 37.461 46.2408 37.4745 46.4221 37.4925L46.5701 35.9998ZM46.1218 35.9578L46.2535 34.4636C46.203 34.4592 46.1559 34.455 46.1237 34.4523L45.9988 35.9471L45.8738 37.4419C45.8972 37.4438 45.9343 37.4471 45.9901 37.452L46.1218 35.9578ZM45.9988 35.9471L46.1242 34.4523C46.1288 34.4527 46.1316 34.453 46.1283 34.4527C46.1279 34.4526 46.1274 34.4526 46.1268 34.4525C46.1262 34.4525 46.1254 34.4524 46.1246 34.4523C46.1231 34.4522 46.1206 34.4519 46.1179 34.4517C46.1133 34.4512 46.1024 34.4502 46.0894 34.4491L45.9675 35.9442L45.8457 37.4392C45.8404 37.4388 45.8362 37.4384 45.8338 37.4382C45.8312 37.4379 45.8294 37.4378 45.8289 37.4377C45.8283 37.4377 45.8281 37.4376 45.829 37.4377C45.8294 37.4378 45.8298 37.4378 45.8305 37.4379C45.8311 37.4379 45.832 37.438 45.8329 37.4381C45.8401 37.4388 45.8551 37.4403 45.8734 37.4418L45.9988 35.9471ZM45.9675 35.9442V34.4442H45.9587V35.9442V37.4442H45.9675V35.9442ZM45.9587 35.9442L46.0619 34.4477L46.0336 34.4458L45.9304 35.9422L45.8272 37.4386L45.8555 37.4406L45.9587 35.9442ZM45.9304 35.9422L46.1853 34.464L46.157 34.4591L45.9021 35.9373L45.6472 37.4155L45.6756 37.4204L45.9304 35.9422ZM45.9021 35.9373L46.1324 34.4551C40.3975 33.5638 36.5529 32.771 33.4725 31.7173L32.9871 33.1365L32.5016 34.5558C35.8453 35.6996 39.9086 36.5239 45.6717 37.4195L45.9021 35.9373ZM32.9871 33.1365L33.4726 31.7173C33.4732 31.7175 33.4721 31.7171 33.4683 31.7157C33.4641 31.7143 33.4591 31.7124 33.4505 31.7093C33.4366 31.7042 33.4065 31.6931 33.3746 31.6821L32.8835 33.0994L32.3925 34.5168C32.3954 34.5178 32.3997 34.5193 32.4202 34.5268C32.4363 34.5327 32.4674 34.5441 32.5016 34.5558L32.9871 33.1365ZM32.8835 33.0994L32.1273 31.804C29.9244 33.0901 27.4502 34.6076 25.1302 36.0386L25.9177 37.3152L26.7052 38.5919C29.0261 37.1604 31.472 35.6604 33.6398 34.3948L32.8835 33.0994ZM25.9177 37.3152L25.1302 36.0386C21.644 38.189 18.5617 40.1058 17.2134 40.7804L17.8845 42.1219L18.5557 43.4634C20.06 42.7107 23.3151 40.683 26.7052 38.5919L25.9177 37.3152ZM17.8845 42.1219L17.2141 40.7801C17.5867 40.5939 18.0358 40.7466 18.22 41.1146L16.8787 41.7859L15.5373 42.4573C16.0921 43.5658 17.4417 44.0199 18.555 43.4637L17.8845 42.1219ZM16.8787 41.7859L18.2203 41.1152C18.4032 41.481 18.2588 41.9329 17.8839 42.1205L17.2126 40.7791L16.5414 39.4377C15.4259 39.9959 14.9837 41.3501 15.537 42.4567L16.8787 41.7859ZM17.2126 40.7791L17.8838 42.1206C19.3099 41.4071 22.4791 39.4368 25.9181 37.3155L25.1306 36.0389L24.3431 34.7622C20.8088 36.9423 17.8117 38.8022 16.5415 39.4376L17.2126 40.7791ZM25.1306 36.0389L25.9181 37.3155C27.8717 36.1105 29.9322 34.8449 31.849 33.7079L31.0837 32.4178L30.3185 31.1277C28.3771 32.2793 26.2969 33.5571 24.3431 34.7622L25.1306 36.0389ZM31.0837 32.4178L31.6478 31.0279C30.2331 30.4538 28.7315 29.7665 27.199 29.0494L26.5632 30.408L25.9275 31.7666C27.4661 32.4866 29.0276 33.2022 30.5197 33.8077L31.0837 32.4178ZM26.5632 30.408L27.199 29.0494C24.9821 28.012 22.6811 26.9077 20.5252 26.032L19.9607 27.4217L19.3962 28.8114C21.4596 29.6496 23.6646 30.7077 25.9275 31.7666L26.5632 30.408ZM19.9607 27.4217L20.5516 26.043L20.5447 26.04L19.9539 27.4188L19.363 28.7975L19.3698 28.8004L19.9607 27.4217ZM19.9539 27.4188L20.5338 26.0354C19.1962 25.4746 18.2307 24.9409 17.3726 24.3228L16.4958 25.5399L15.6191 26.7569C16.6993 27.5351 17.874 28.1733 19.3739 28.8021L19.9539 27.4188ZM16.4958 25.5399L17.4104 24.3509L17.3977 24.3412L16.4832 25.5301L15.5686 26.719L15.5813 26.7288L16.4958 25.5399ZM16.4832 25.5301L17.433 24.3692L17.4223 24.3604L16.4724 25.5213L15.5226 26.6822L15.5333 26.691L16.4832 25.5301ZM16.4724 25.5213L17.3975 24.3405C17.2204 24.2018 17.045 24.053 16.8642 23.8937L15.8728 25.0193L14.8814 26.145C15.0868 26.3259 15.3089 26.5153 15.5473 26.7021L16.4724 25.5213ZM15.8728 25.0193L14.3746 25.0923C14.3975 25.5639 14.4414 26.0491 14.5049 26.5293L15.9919 26.3328L17.479 26.1363C17.4262 25.7368 17.3899 25.334 17.371 24.9464L15.8728 25.0193ZM15.9919 26.3328L14.5049 26.5293C14.6693 27.7737 14.9732 29.0358 15.424 29.8932L16.7517 29.1951L18.0794 28.4971C17.8736 28.1057 17.6271 27.2569 17.479 26.1363L15.9919 26.3328ZM16.7517 29.1951L15.424 29.8932C15.232 29.528 15.3709 29.0749 15.7388 28.8813L16.4373 30.2088L17.1357 31.5363C18.2366 30.9571 18.6568 29.5953 18.0794 28.4971L16.7517 29.1951ZM16.4373 30.2088L15.7396 28.8809C16.107 28.6879 16.5588 28.8295 16.7512 29.1951L15.4236 29.8934L14.096 30.5916C14.6739 31.6903 16.0344 32.1149 17.1349 31.5367L16.4373 30.2088ZM15.4236 29.8934L16.7512 29.1953C16.423 28.571 16.148 27.5155 15.9917 26.3326L14.5046 26.5291L13.0176 26.7256C13.1903 28.0329 13.5228 29.5014 14.0959 30.5914L15.4236 29.8934ZM14.5046 26.5291L15.9917 26.3327C15.8371 25.1624 15.8118 23.9623 15.929 23.0838L14.4421 22.8856L12.9553 22.6873C12.7932 23.903 12.8399 25.3811 13.0176 26.7256L14.5046 26.5291ZM14.4421 22.8856L15.929 23.0833L15.9798 22.7015L14.4929 22.5037L13.006 22.306L12.9552 22.6878L14.4421 22.8856ZM14.4929 22.5037L15.197 23.8282L15.5369 23.6475L14.8328 22.3231L14.1287 20.9986L13.7888 21.1792L14.4929 22.5037ZM14.8328 22.3231L15.5378 23.647C15.8694 23.4704 16.4024 23.3662 17.179 23.3081L17.0671 21.8123L16.9553 20.3165C16.1468 20.3769 15.0583 20.5035 14.1277 20.9991L14.8328 22.3231ZM17.0671 21.8123L17.179 23.3081C17.959 23.2498 18.7828 23.2456 19.769 23.193L19.6892 21.6951L19.6094 20.1973C18.8571 20.2373 17.7234 20.2591 16.9553 20.3165L17.0671 21.8123ZM19.6892 21.6951L19.8026 23.1908C20.6724 23.1249 21.3333 23.0293 22.2157 22.7021L21.6941 21.2957L21.1725 19.8893C20.647 20.0842 20.2887 20.1454 19.5758 20.1994L19.6892 21.6951ZM21.6941 21.2957L22.2158 22.7021C21.8281 22.8459 21.397 22.649 21.2527 22.2601L22.6589 21.7381L24.0652 21.2161C23.6326 20.0507 22.3367 19.4575 21.1724 19.8894L21.6941 21.2957ZM22.6589 21.7381L21.2526 22.2598C21.1082 21.8705 21.3072 21.4396 21.6944 21.2958L22.2166 22.702L22.7387 24.1081C23.9023 23.6761 24.4978 22.3823 24.0653 21.2164L22.6589 21.7381ZM22.2166 22.702L21.6949 21.2956C20.9901 21.557 20.48 21.6356 19.6891 21.6955L19.8025 23.1912L19.9159 24.6869C20.8647 24.615 21.6772 24.5019 22.7382 24.1083L22.2166 22.702ZM19.8025 23.1912L19.6368 21.7004L19.6281 21.7014L19.7937 23.1922L19.9593 24.683L19.9681 24.682L19.8025 23.1912ZM19.7937 23.1922V21.6922H19.7859V23.1922V24.6922H19.7937V23.1922ZM19.7859 23.1922L19.7052 21.6944C18.834 21.7413 17.8446 21.7544 17.0666 21.8126L17.1785 23.3084L17.2903 24.8042C18.0958 24.744 18.7332 24.7511 19.8666 24.69L19.7859 23.1922ZM17.1785 23.3084L17.0666 21.8126C16.7121 21.8391 16.3775 21.8758 16.0705 21.9295L16.3289 23.407L16.5872 24.8846C16.7649 24.8536 16.9948 24.8263 17.2903 24.8042L17.1785 23.3084ZM16.3289 23.407L15.309 24.507C15.6657 24.8377 16.0412 25.183 16.4541 25.5078L17.3816 24.3289L18.3091 23.15C18.0032 22.9094 17.7088 22.641 17.3487 22.3071L16.3289 23.407ZM17.3816 24.3289L16.5058 25.5467C17.4706 26.2405 18.5355 26.8234 19.9457 27.4152L20.5261 26.032L21.1065 24.6489C19.8581 24.125 19.0012 23.646 18.2573 23.1111L17.3816 24.3289ZM20.5261 26.032L19.9519 27.4178L20.7673 27.7557L21.3416 26.3699L21.9158 24.9842L21.1003 24.6463L20.5261 26.032ZM21.3416 26.3699L20.7557 27.7508C22.6378 28.5493 24.6049 29.4918 26.5632 30.4082L27.199 29.0496L27.8347 27.691C25.9146 26.7925 23.8749 25.8153 21.9274 24.9891L21.3416 26.3699ZM27.199 29.0496L26.5632 30.4082C28.5072 31.3179 30.4377 32.1991 32.2081 32.8578L32.7312 31.452L33.2543 30.0461C31.6114 29.4348 29.781 28.6018 27.8347 27.691L27.199 29.0496ZM32.7312 31.452L33.481 32.7511C34.3433 32.2534 35.1498 31.8012 35.8752 31.4138L35.1687 30.0906L34.4622 28.7674C33.6984 29.1753 32.8614 29.6449 31.9814 30.1528L32.7312 31.452ZM35.1687 30.0906L35.8752 31.4138C38.7239 29.8928 41.1056 28.4769 43.8642 27.3243L43.2859 25.9402L42.7076 24.5562C39.7745 25.7817 37.1626 27.3256 34.4622 28.7674L35.1687 30.0906ZM43.2859 25.9402L43.8244 27.3403L43.8497 27.3305L43.3113 25.9305L42.7728 24.5305L42.7474 24.5402L43.2859 25.9402ZM43.3113 25.9305L43.8323 27.3371L43.8586 27.3273L43.3376 25.9207L42.8167 24.5141L42.7903 24.5239L43.3113 25.9305ZM43.3376 25.9207L43.8098 27.3445C45.753 26.7001 47.4621 26.125 48.6866 25.7864L48.2869 24.3406L47.8871 22.8949C46.5691 23.2593 44.7627 23.8678 42.8655 24.497L43.3376 25.9207ZM48.2869 24.3406L48.6633 25.7926L48.6897 25.7858L48.3132 24.3338L47.9368 22.8818L47.9104 22.8886L48.2869 24.3406ZM48.3132 24.3338L48.6386 25.7981L48.665 25.7922L48.3396 24.3279L48.0142 22.8637L47.9878 22.8695L48.3132 24.3338ZM48.3396 24.3279L48.6326 25.799C49.032 25.7195 49.428 25.6883 50.1154 25.7172L50.1785 24.2186L50.2416 22.7199C49.3894 22.684 48.7432 22.7181 48.0466 22.8568L48.3396 24.3279ZM50.1785 24.2186L50.7927 22.8501C50.3325 22.6436 49.7952 22.414 49.2241 22.1775L48.6501 23.5633L48.0762 24.9491C48.6303 25.1786 49.1391 25.3962 49.5643 25.5871L50.1785 24.2186ZM48.6501 23.5633L49.2241 22.1775C48.6313 21.9319 48.0149 21.682 47.4341 21.4477L46.8728 22.8387L46.3115 24.2297C46.8901 24.4632 47.4963 24.709 48.0762 24.9491L48.6501 23.5633ZM46.8728 22.8387L47.4341 21.4477C46.8531 21.2132 46.3115 20.9949 45.8659 20.8103L45.2917 22.1961L44.7176 23.5819C45.1791 23.7731 45.736 23.9975 46.3115 24.2297L46.8728 22.8387ZM45.2917 22.1961L45.8667 20.8107C46.2466 20.9683 46.4308 21.4053 46.2715 21.7903L44.8855 21.2166L43.4995 20.643C43.0236 21.7928 43.5723 23.1065 44.7168 23.5815L45.2917 22.1961Z" fill="white" mask="url(#path-1-outside-1_34_67)"/>
</svg>
