<svg width="64" height="64" viewBox="0 0 64 64" fill="none" xmlns="http://www.w3.org/2000/svg">
<mask id="path-1-outside-1_34_122" maskUnits="userSpaceOnUse" x="7.74609" y="25.0703" width="47" height="17" fill="black">
<rect fill="white" x="7.74609" y="25.0703" width="47" height="17"/>
<path d="M18.1846 28.1318C18.7026 27.9414 19.2769 28.2077 19.4678 28.7256C19.6347 29.18 19.4509 29.6768 19.0537 29.9209C24.2739 29.6761 28.0212 29.6854 31.1904 30.0801C32.5834 30.2536 34.1047 30.5497 35.6699 30.8945C37.2845 30.5979 38.952 30.2821 40.5635 29.9707C44.521 29.2059 48.2009 28.4794 49.8018 28.3154C50.351 28.2595 50.8422 28.6597 50.8984 29.209C50.9543 29.7581 50.554 30.2484 50.0049 30.3047C49.8924 30.3162 49.7683 30.334 49.6328 30.3516C50.1008 31.0866 50.5143 32.0152 50.8379 32.9385C51.2621 34.1491 51.578 35.4748 51.6572 36.5566L51.6953 37.0693L51.2998 37.3984C50.7073 37.8924 49.8928 38.1818 49.127 38.4023C48.3848 38.616 47.4042 38.8357 46.584 39.0527C45.8337 39.2696 45.374 39.4414 44.7646 39.8242C44.2971 40.1178 43.6805 39.9771 43.3867 39.5098C43.0932 39.0422 43.2338 38.4247 43.7012 38.1309C44.5254 37.6131 45.1777 37.3767 46.0283 37.1309L46.0381 37.1279L46.0498 37.125C47.0405 36.862 47.8084 36.7007 48.5732 36.4805C48.6757 36.451 48.7726 36.4196 48.8643 36.3906C48.6173 36.2471 48.3764 36.1123 48.1289 35.9893C47.1899 35.5729 46.1615 35.2555 44.7646 34.9844L43.8945 34.8184C41.8471 34.4128 39.6835 33.882 37.6035 33.3906C36.9364 33.233 36.2774 33.0794 35.6318 32.9346C33.359 33.3488 31.1902 33.7182 29.4346 33.9453C26.3294 34.347 23.4497 34.8517 20.3516 34.957L20.3145 34.958L20.2764 34.957C18.2594 34.8731 16.3976 34.8036 15.0762 34.6816L15.0391 34.6787L15.0029 34.6719C14.7651 34.6322 14.537 34.581 14.3008 34.5137C14.4156 34.6228 14.5332 34.7358 14.6543 34.8496C15.1158 35.2834 15.6001 35.7303 16.0596 36.1543C16.5172 36.5767 16.9529 36.9792 17.3115 37.3164C17.7137 37.6947 17.7336 38.3272 17.3555 38.7295C16.9771 39.1316 16.3437 39.1517 15.9414 38.7734C15.5912 38.4441 15.164 38.0493 14.7031 37.624C14.244 37.2003 13.7533 36.7476 13.2842 36.3066C12.4866 35.557 11.6909 34.7866 11.2227 34.2432L11.043 34.0244L10.7461 33.6426L10.8613 33.1719C10.9769 32.7035 11.245 32.2927 11.5439 31.9482C11.6689 31.8043 11.8086 31.6642 11.958 31.5254C11.8753 31.3286 11.855 31.1041 11.9141 30.8818C12.0562 30.3483 12.6041 30.0299 13.1377 30.1719C13.2497 30.2016 13.4429 30.225 13.7129 30.2383C14.3671 29.8391 15.1066 29.4464 15.8965 29.0693L15.9043 29.0654L15.9121 29.0625C16.9659 28.5811 17.5749 28.3561 18.1846 28.1318ZM47.4824 30.6934C45.7348 31.003 43.4318 31.4527 40.9434 31.9336C40.7965 31.962 40.6489 31.989 40.501 32.0176C42.0858 32.3904 43.6439 32.7473 45.1221 33.0166L45.1338 33.0186C46.6584 33.3139 47.844 33.6732 48.9561 34.168L48.9932 34.1855C49.0528 34.215 49.1112 34.2471 49.1699 34.2773C49.102 34.0516 49.0289 33.8243 48.9502 33.5996C48.5592 32.4838 48.0861 31.5395 47.665 31.0293C47.5805 30.9269 47.52 30.8126 47.4824 30.6934ZM29.5049 31.917C26.5741 31.6747 23.0089 31.7159 18.0713 31.9697C18.0682 31.9701 18.0649 31.9712 18.0615 31.9717C18.0315 31.9754 17.9872 31.9798 17.9316 31.9863C17.8201 31.9995 17.66 32.0181 17.4648 32.0391C17.0749 32.0809 16.5403 32.1326 15.9648 32.1748C15.4195 32.2148 14.8263 32.2448 14.2793 32.248C14.2336 32.2786 14.1886 32.3095 14.1445 32.3398C14.65 32.5472 14.9702 32.6368 15.2949 32.6934C16.5419 32.8066 18.3055 32.8743 20.3193 32.958C23.2776 32.8543 25.9739 32.3774 29.1787 31.9629C29.2859 31.949 29.3945 31.9319 29.5049 31.917Z"/>
</mask>
<path d="M18.1846 28.1318C18.7026 27.9414 19.2769 28.2077 19.4678 28.7256C19.6347 29.18 19.4509 29.6768 19.0537 29.9209C24.2739 29.6761 28.0212 29.6854 31.1904 30.0801C32.5834 30.2536 34.1047 30.5497 35.6699 30.8945C37.2845 30.5979 38.952 30.2821 40.5635 29.9707C44.521 29.2059 48.2009 28.4794 49.8018 28.3154C50.351 28.2595 50.8422 28.6597 50.8984 29.209C50.9543 29.7581 50.554 30.2484 50.0049 30.3047C49.8924 30.3162 49.7683 30.334 49.6328 30.3516C50.1008 31.0866 50.5143 32.0152 50.8379 32.9385C51.2621 34.1491 51.578 35.4748 51.6572 36.5566L51.6953 37.0693L51.2998 37.3984C50.7073 37.8924 49.8928 38.1818 49.127 38.4023C48.3848 38.616 47.4042 38.8357 46.584 39.0527C45.8337 39.2696 45.374 39.4414 44.7646 39.8242C44.2971 40.1178 43.6805 39.9771 43.3867 39.5098C43.0932 39.0422 43.2338 38.4247 43.7012 38.1309C44.5254 37.6131 45.1777 37.3767 46.0283 37.1309L46.0381 37.1279L46.0498 37.125C47.0405 36.862 47.8084 36.7007 48.5732 36.4805C48.6757 36.451 48.7726 36.4196 48.8643 36.3906C48.6173 36.2471 48.3764 36.1123 48.1289 35.9893C47.1899 35.5729 46.1615 35.2555 44.7646 34.9844L43.8945 34.8184C41.8471 34.4128 39.6835 33.882 37.6035 33.3906C36.9364 33.233 36.2774 33.0794 35.6318 32.9346C33.359 33.3488 31.1902 33.7182 29.4346 33.9453C26.3294 34.347 23.4497 34.8517 20.3516 34.957L20.3145 34.958L20.2764 34.957C18.2594 34.8731 16.3976 34.8036 15.0762 34.6816L15.0391 34.6787L15.0029 34.6719C14.7651 34.6322 14.537 34.581 14.3008 34.5137C14.4156 34.6228 14.5332 34.7358 14.6543 34.8496C15.1158 35.2834 15.6001 35.7303 16.0596 36.1543C16.5172 36.5767 16.9529 36.9792 17.3115 37.3164C17.7137 37.6947 17.7336 38.3272 17.3555 38.7295C16.9771 39.1316 16.3437 39.1517 15.9414 38.7734C15.5912 38.4441 15.164 38.0493 14.7031 37.624C14.244 37.2003 13.7533 36.7476 13.2842 36.3066C12.4866 35.557 11.6909 34.7866 11.2227 34.2432L11.043 34.0244L10.7461 33.6426L10.8613 33.1719C10.9769 32.7035 11.245 32.2927 11.5439 31.9482C11.6689 31.8043 11.8086 31.6642 11.958 31.5254C11.8753 31.3286 11.855 31.1041 11.9141 30.8818C12.0562 30.3483 12.6041 30.0299 13.1377 30.1719C13.2497 30.2016 13.4429 30.225 13.7129 30.2383C14.3671 29.8391 15.1066 29.4464 15.8965 29.0693L15.9043 29.0654L15.9121 29.0625C16.9659 28.5811 17.5749 28.3561 18.1846 28.1318ZM47.4824 30.6934C45.7348 31.003 43.4318 31.4527 40.9434 31.9336C40.7965 31.962 40.6489 31.989 40.501 32.0176C42.0858 32.3904 43.6439 32.7473 45.1221 33.0166L45.1338 33.0186C46.6584 33.3139 47.844 33.6732 48.9561 34.168L48.9932 34.1855C49.0528 34.215 49.1112 34.2471 49.1699 34.2773C49.102 34.0516 49.0289 33.8243 48.9502 33.5996C48.5592 32.4838 48.0861 31.5395 47.665 31.0293C47.5805 30.9269 47.52 30.8126 47.4824 30.6934ZM29.5049 31.917C26.5741 31.6747 23.0089 31.7159 18.0713 31.9697C18.0682 31.9701 18.0649 31.9712 18.0615 31.9717C18.0315 31.9754 17.9872 31.9798 17.9316 31.9863C17.8201 31.9995 17.66 32.0181 17.4648 32.0391C17.0749 32.0809 16.5403 32.1326 15.9648 32.1748C15.4195 32.2148 14.8263 32.2448 14.2793 32.248C14.2336 32.2786 14.1886 32.3095 14.1445 32.3398C14.65 32.5472 14.9702 32.6368 15.2949 32.6934C16.5419 32.8066 18.3055 32.8743 20.3193 32.958C23.2776 32.8543 25.9739 32.3774 29.1787 31.9629C29.2859 31.949 29.3945 31.9319 29.5049 31.917Z" fill="black"/>
<path d="M18.1846 28.1318L17.4945 26.2547L17.494 26.2548L18.1846 28.1318ZM19.4678 28.7256L21.3451 28.036L21.3444 28.0339L19.4678 28.7256ZM19.0537 29.9209L18.0066 28.2169L19.1474 31.9187L19.0537 29.9209ZM31.1904 30.0801L31.4376 28.0954L31.4376 28.0954L31.1904 30.0801ZM35.6699 30.8945L35.2397 32.8477L35.6341 32.9346L36.0313 32.8616L35.6699 30.8945ZM40.5635 29.9707L40.943 31.9344L40.943 31.9344L40.5635 29.9707ZM49.8018 28.3154L49.599 26.3257L49.598 26.3258L49.8018 28.3154ZM50.8984 29.209L52.8882 29.0065L52.888 29.0052L50.8984 29.209ZM50.0049 30.3047L50.2087 32.2943L50.209 32.2942L50.0049 30.3047ZM49.6328 30.3516L49.3754 28.3682L46.2569 28.773L47.9457 31.4256L49.6328 30.3516ZM50.8379 32.9385L52.7254 32.2771L52.7253 32.277L50.8379 32.9385ZM51.6572 36.5566L49.6626 36.7028L49.6627 36.7048L51.6572 36.5566ZM51.6953 37.0693L52.9746 38.6067L53.7661 37.9481L53.6898 36.9212L51.6953 37.0693ZM51.2998 37.3984L50.0206 35.8611L50.0191 35.8623L51.2998 37.3984ZM49.127 38.4023L49.6803 40.3243L49.6803 40.3243L49.127 38.4023ZM46.584 39.0527L46.0723 37.1193L46.0505 37.1251L46.0287 37.1314L46.584 39.0527ZM44.7646 39.8242L45.8281 41.518L45.8285 41.5178L44.7646 39.8242ZM43.3867 39.5098L41.6929 40.5732L41.6936 40.5743L43.3867 39.5098ZM43.7012 38.1309L42.6373 36.4373L42.6368 36.4376L43.7012 38.1309ZM46.0283 37.1309L46.5836 39.0522L46.5933 39.0494L46.603 39.0465L46.0283 37.1309ZM46.0381 37.1279L45.553 35.1876L45.5079 35.1989L45.4634 35.2123L46.0381 37.1279ZM46.0498 37.125L46.5349 39.0653L46.549 39.0618L46.563 39.058L46.0498 37.125ZM48.5732 36.4805L49.1265 38.4024L49.1266 38.4024L48.5732 36.4805ZM48.8643 36.3906L49.4671 38.2976L53.7805 36.934L49.869 34.6613L48.8643 36.3906ZM48.1289 35.9893L49.0195 34.1985L48.9799 34.1788L48.9396 34.1609L48.1289 35.9893ZM44.7646 34.9844L45.1458 33.021L45.1395 33.0198L44.7646 34.9844ZM43.8945 34.8184L43.5059 36.7803L43.5197 36.7829L43.8945 34.8184ZM37.6035 33.3906L38.0634 31.4442L38.0633 31.4442L37.6035 33.3906ZM35.6318 32.9346L36.0695 30.983L35.673 30.8941L35.2733 30.967L35.6318 32.9346ZM29.4346 33.9453L29.178 31.9618L29.178 31.9618L29.4346 33.9453ZM20.3516 34.957L20.4042 36.9563L20.4119 36.9561L20.4195 36.9559L20.3516 34.957ZM20.3145 34.958L20.2632 36.9574L20.3151 36.9587L20.3671 36.9573L20.3145 34.958ZM20.2764 34.957L20.1932 36.9553L20.2092 36.956L20.2251 36.9564L20.2764 34.957ZM15.0762 34.6816L15.2599 32.6901L15.2468 32.6889L15.2336 32.6878L15.0762 34.6816ZM15.0391 34.6787L14.6673 36.6439L14.7737 36.664L14.8817 36.6725L15.0391 34.6787ZM15.0029 34.6719L15.3747 32.7067L15.3534 32.7027L15.3319 32.6991L15.0029 34.6719ZM14.3008 34.5137L14.8492 32.5903L12.9229 35.9633L14.3008 34.5137ZM14.6543 34.8496L13.2845 36.3069L13.2845 36.3069L14.6543 34.8496ZM16.0596 36.1543L17.416 34.6845L17.416 34.6845L16.0596 36.1543ZM17.3115 37.3164L18.6819 35.8597L18.6815 35.8593L17.3115 37.3164ZM17.3555 38.7295L18.8121 40.1L18.8128 40.0992L17.3555 38.7295ZM15.9414 38.7734L14.5714 40.2305L14.5714 40.2306L15.9414 38.7734ZM14.7031 37.624L13.3467 39.0938L13.3467 39.0938L14.7031 37.624ZM13.2842 36.3066L11.9144 37.7639L11.9144 37.7639L13.2842 36.3066ZM11.2227 34.2432L9.6772 35.5126L9.69214 35.5308L9.7075 35.5487L11.2227 34.2432ZM11.043 34.0244L9.46405 35.252L9.4805 35.2732L9.49752 35.2939L11.043 34.0244ZM10.7461 33.6426L8.80346 33.167L8.57345 34.1065L9.16717 34.8702L10.7461 33.6426ZM10.8613 33.1719L8.91959 32.6926L8.9187 32.6963L10.8613 33.1719ZM11.5439 31.9482L10.0337 30.6371L10.0336 30.6372L11.5439 31.9482ZM11.958 31.5254L13.3194 32.9906L14.3433 32.0392L13.8019 30.7507L11.958 31.5254ZM11.9141 30.8818L9.98142 30.3672L9.9812 30.368L11.9141 30.8818ZM13.1377 30.1719L12.6235 32.1046L12.6245 32.1049L13.1377 30.1719ZM13.7129 30.2383L13.6149 32.2359L14.2294 32.266L14.7547 31.9455L13.7129 30.2383ZM15.8965 29.0693L16.7582 30.8742L16.7746 30.8663L16.7909 30.8582L15.8965 29.0693ZM15.9043 29.0654L15.202 27.1928L15.1038 27.2296L15.0099 27.2766L15.9043 29.0654ZM15.9121 29.0625L16.6144 30.9352L16.6797 30.9107L16.7431 30.8817L15.9121 29.0625ZM47.4824 30.6934L49.3902 30.0929L48.8628 28.4176L47.1335 28.724L47.4824 30.6934ZM40.9434 31.9336L40.5639 29.9699L40.5639 29.9699L40.9434 31.9336ZM40.501 32.0176L40.1221 30.0538L40.043 33.9644L40.501 32.0176ZM45.1221 33.0166L44.7636 34.9842L44.7784 34.9869L44.7933 34.9894L45.1221 33.0166ZM45.1338 33.0186L45.5141 31.055L45.4884 31.0501L45.4626 31.0458L45.1338 33.0186ZM48.9561 34.168L49.8122 32.3605L49.7907 32.3503L49.769 32.3406L48.9561 34.168ZM48.9932 34.1855L49.8792 32.3925L49.8643 32.3852L49.8493 32.3781L48.9932 34.1855ZM49.1699 34.2773L48.2533 36.0549L52.4429 38.2152L51.0852 33.7013L49.1699 34.2773ZM48.9502 33.5996L50.8377 32.9382L50.8376 32.9381L48.9502 33.5996ZM47.665 31.0293L46.1224 32.3021L46.1224 32.3022L47.665 31.0293ZM29.5049 31.917L29.7728 33.899L29.6697 29.9238L29.5049 31.917ZM18.0713 31.9697L17.9686 29.9724L17.8892 29.9764L17.8104 29.9868L18.0713 31.9697ZM18.0615 31.9717L18.3055 33.9568L18.3156 33.9555L18.0615 31.9717ZM17.9316 31.9863L17.6967 30.0002L17.6967 30.0002L17.9316 31.9863ZM17.4648 32.0391L17.6782 34.0276L17.6782 34.0276L17.4648 32.0391ZM15.9648 32.1748L16.111 34.1695L16.111 34.1695L15.9648 32.1748ZM14.2793 32.248L14.2675 30.2481L13.667 30.2516L13.1678 30.5854L14.2793 32.248ZM14.1445 32.3398L13.0093 30.6932L9.96997 32.7887L13.3853 34.1901L14.1445 32.3398ZM15.2949 32.6934L14.9517 34.6637L15.0324 34.6777L15.114 34.6852L15.2949 32.6934ZM20.3193 32.958L20.2363 34.9563L20.3128 34.9595L20.3894 34.9568L20.3193 32.958ZM29.1787 31.9629L29.4353 33.9464L29.4353 33.9464L29.1787 31.9629ZM18.1846 28.1318L18.8746 30.009C18.3532 30.2007 17.7808 29.9318 17.5912 29.4173L19.4678 28.7256L21.3444 28.0339C20.773 26.4836 19.052 25.6821 17.4945 26.2547L18.1846 28.1318ZM19.4678 28.7256L17.5904 29.4152C17.4222 28.9572 17.6096 28.4609 18.0066 28.2169L19.0537 29.9209L20.1009 31.6249C21.2922 30.8927 21.8472 29.4028 21.3451 28.036L19.4678 28.7256ZM19.0537 29.9209L19.1474 31.9187C24.3406 31.6752 27.9491 31.6918 30.9433 32.0647L31.1904 30.0801L31.4376 28.0954C28.0933 27.6789 24.2072 27.6771 18.96 27.9231L19.0537 29.9209ZM31.1904 30.0801L30.9432 32.0647C32.2458 32.227 33.6975 32.508 35.2397 32.8477L35.6699 30.8945L36.1002 28.9414C34.5119 28.5915 32.921 28.2802 31.4376 28.0954L31.1904 30.0801ZM35.6699 30.8945L36.0313 32.8616C37.653 32.5637 39.3266 32.2467 40.943 31.9344L40.5635 29.9707L40.184 28.007C38.5773 28.3175 36.9159 28.6322 35.3086 28.9274L35.6699 30.8945ZM40.5635 29.9707L40.943 31.9344C44.9741 31.1553 48.5204 30.4571 50.0055 30.305L49.8018 28.3154L49.598 26.3258C47.8814 26.5017 44.0679 27.2564 40.184 28.007L40.5635 29.9707ZM49.8018 28.3154L50.0045 30.3051C49.4548 30.3611 48.9651 29.9615 48.9088 29.4128L50.8984 29.209L52.888 29.0052C52.7193 27.358 51.2471 26.1578 49.599 26.3257L49.8018 28.3154ZM50.8984 29.209L48.9087 29.4115C48.8525 28.8595 49.2545 28.3712 49.8008 28.3151L50.0049 30.3047L50.209 32.2942C51.8535 32.1256 53.0561 30.6566 52.8882 29.0065L50.8984 29.209ZM50.0049 30.3047L49.801 28.3151C49.6527 28.3303 49.4727 28.3556 49.3754 28.3682L49.6328 30.3516L49.8903 32.3349C50.0639 32.3124 50.132 32.3021 50.2087 32.2943L50.0049 30.3047ZM49.6328 30.3516L47.9457 31.4256C48.3043 31.989 48.6578 32.7649 48.9504 33.5999L50.8379 32.9385L52.7253 32.277C52.3709 31.2656 51.8972 30.1842 51.3199 29.2775L49.6328 30.3516ZM50.8379 32.9385L48.9504 33.5999C49.3361 34.7006 49.5999 35.8477 49.6626 36.7028L51.6572 36.5566L53.6519 36.4105C53.556 35.102 53.1881 33.5976 52.7254 32.2771L50.8379 32.9385ZM51.6572 36.5566L49.6627 36.7048L49.7008 37.2175L51.6953 37.0693L53.6898 36.9212L53.6517 36.4085L51.6572 36.5566ZM51.6953 37.0693L50.4161 35.532L50.0206 35.8611L51.2998 37.3984L52.5791 38.9358L52.9746 38.6067L51.6953 37.0693ZM51.2998 37.3984L50.0191 35.8623C49.7739 36.0667 49.3187 36.2659 48.5736 36.4804L49.127 38.4023L49.6803 40.3243C50.4669 40.0978 51.6407 39.7181 52.5805 38.9346L51.2998 37.3984ZM49.127 38.4023L48.5736 36.4804C47.8265 36.6955 47.039 36.8635 46.0723 37.1193L46.584 39.0527L47.0956 40.9862C47.7695 40.8079 48.9431 40.5365 49.6803 40.3243L49.127 38.4023ZM46.584 39.0527L46.0287 37.1314C45.1808 37.3764 44.5268 37.6117 43.7007 38.1307L44.7646 39.8242L45.8285 41.5178C46.2211 41.2712 46.4866 41.1627 47.1393 40.9741L46.584 39.0527ZM44.7646 39.8242L43.7012 38.1304C44.1684 37.837 44.7859 37.9776 45.0799 38.4452L43.3867 39.5098L41.6936 40.5743C42.5752 41.9766 44.4258 42.3985 45.8281 41.518L44.7646 39.8242ZM43.3867 39.5098L45.0805 38.4463C45.3734 38.9127 45.2341 39.5296 44.7656 39.8241L43.7012 38.1309L42.6368 36.4376C41.2334 37.3198 40.8129 39.1717 41.6929 40.5732L43.3867 39.5098ZM43.7012 38.1309L44.765 39.8244C45.3742 39.4418 45.8335 39.269 46.5836 39.0522L46.0283 37.1309L45.473 35.2095C44.522 35.4843 43.6767 35.7844 42.6373 36.4373L43.7012 38.1309ZM46.0283 37.1309L46.603 39.0465L46.6128 39.0436L46.0381 37.1279L45.4634 35.2123L45.4536 35.2152L46.0283 37.1309ZM46.0381 37.1279L46.5232 39.0682L46.5349 39.0653L46.0498 37.125L45.5647 35.1847L45.553 35.1876L46.0381 37.1279ZM46.0498 37.125L46.563 39.058C47.3806 38.841 48.3812 38.617 49.1265 38.4024L48.5732 36.4805L48.0199 34.5585C47.2355 34.7844 46.7005 34.883 45.5366 35.192L46.0498 37.125ZM48.5732 36.4805L49.1266 38.4024C49.2611 38.3637 49.3925 38.3212 49.4671 38.2976L48.8643 36.3906L48.2614 34.4836C48.1527 34.518 48.0903 34.5383 48.0199 34.5585L48.5732 36.4805ZM48.8643 36.3906L49.869 34.6613C49.6063 34.5087 49.323 34.3494 49.0195 34.1985L48.1289 35.9893L47.2383 37.78C47.4298 37.8753 47.6283 37.9856 47.8595 38.1199L48.8643 36.3906ZM48.1289 35.9893L48.9396 34.1609C47.8347 33.6711 46.6567 33.3143 45.1458 33.021L44.7646 34.9844L44.3835 36.9477C45.6663 37.1967 46.5451 37.4748 47.3183 37.8176L48.1289 35.9893ZM44.7646 34.9844L45.1395 33.0198L44.2694 32.8538L43.8945 34.8184L43.5197 36.7829L44.3898 36.9489L44.7646 34.9844ZM43.8945 34.8184L44.2831 32.8565C42.282 32.4601 40.1694 31.9418 38.0634 31.4442L37.6035 33.3906L37.1437 35.337C39.1976 35.8223 41.4122 36.3655 43.5059 36.7802L43.8945 34.8184ZM37.6035 33.3906L38.0633 31.4442C37.3931 31.2859 36.7258 31.1302 36.0695 30.983L35.6318 32.9346L35.1942 34.8861C35.8291 35.0285 36.4797 35.1802 37.1437 35.337L37.6035 33.3906ZM35.6318 32.9346L35.2733 30.967C33.0063 31.3801 30.8798 31.7417 29.178 31.9618L29.4346 33.9453L29.6911 35.9288C31.5007 35.6947 33.7116 35.3175 35.9904 34.9022L35.6318 32.9346ZM29.4346 33.9453L29.178 31.9618C25.9609 32.378 23.2557 32.8571 20.2836 32.9582L20.3516 34.957L20.4195 36.9559C23.6437 36.8462 26.6979 36.316 29.6911 35.9288L29.4346 33.9453ZM20.3516 34.957L20.2989 32.9577L20.2618 32.9587L20.3145 34.958L20.3671 36.9573L20.4042 36.9563L20.3516 34.957ZM20.3145 34.958L20.3657 32.9587L20.3276 32.9577L20.2764 34.957L20.2251 36.9564L20.2632 36.9574L20.3145 34.958ZM20.2764 34.957L20.3595 32.9588C18.311 32.8735 16.5171 32.8061 15.2599 32.6901L15.0762 34.6816L14.8924 36.6732C16.2781 36.801 18.2077 36.8727 20.1932 36.9553L20.2764 34.957ZM15.0762 34.6816L15.2336 32.6878L15.1965 32.6849L15.0391 34.6787L14.8817 36.6725L14.9188 36.6754L15.0762 34.6816ZM15.0391 34.6787L15.4108 32.7136L15.3747 32.7067L15.0029 34.6719L14.6311 36.637L14.6673 36.6439L15.0391 34.6787ZM15.0029 34.6719L15.3319 32.6991C15.1678 32.6718 15.013 32.637 14.8492 32.5903L14.3008 34.5137L13.7524 36.437C14.061 36.525 14.3624 36.5927 14.674 36.6446L15.0029 34.6719ZM14.3008 34.5137L12.9229 35.9633C13.027 36.0623 13.1586 36.1885 13.2845 36.3069L14.6543 34.8496L16.0241 33.3923C15.9079 33.2831 15.8042 33.1834 15.6787 33.064L14.3008 34.5137ZM14.6543 34.8496L13.2845 36.3069C13.7539 36.7481 14.2451 37.2013 14.7032 37.624L16.0596 36.1543L17.416 34.6845C16.9551 34.2593 16.4777 33.8187 16.0241 33.3923L14.6543 34.8496ZM16.0596 36.1543L14.7032 37.624C15.162 38.0475 15.5908 38.4438 15.9415 38.7735L17.3115 37.3164L18.6815 35.8593C18.315 35.5147 17.8724 35.1058 17.416 34.6845L16.0596 36.1543ZM17.3115 37.3164L15.9412 38.7731C15.5402 38.396 15.5189 37.7633 15.8981 37.3598L17.3555 38.7295L18.8128 40.0992C19.9483 38.8911 19.8871 36.9934 18.6819 35.8597L17.3115 37.3164ZM17.3555 38.7295L15.8988 37.359C16.2756 36.9585 16.9074 36.9366 17.3114 37.3163L15.9414 38.7734L14.5714 40.2306C15.7799 41.3668 17.6786 41.3047 18.8121 40.1L17.3555 38.7295ZM15.9414 38.7734L17.3114 37.3163C16.9533 36.9796 16.5193 36.5785 16.0595 36.1543L14.7031 37.624L13.3467 39.0938C13.8087 39.5201 14.2291 39.9086 14.5714 40.2305L15.9414 38.7734ZM14.7031 37.624L16.0595 36.1543C15.599 35.7293 15.1152 35.2829 14.654 34.8493L13.2842 36.3066L11.9144 37.7639C12.3914 38.2123 12.8891 38.6714 13.3467 39.0938L14.7031 37.624ZM13.2842 36.3066L14.654 34.8494C13.8452 34.0891 13.1264 33.3887 12.7378 32.9377L11.2227 34.2432L9.7075 35.5487C10.2554 36.1845 11.1281 37.0248 11.9144 37.7639L13.2842 36.3066ZM11.2227 34.2432L12.7681 32.9737L12.5884 32.7549L11.043 34.0244L9.49752 35.2939L9.6772 35.5126L11.2227 34.2432ZM11.043 34.0244L12.6219 32.7968L12.325 32.415L10.7461 33.6426L9.16717 34.8702L9.46405 35.252L11.043 34.0244ZM10.7461 33.6426L12.6887 34.1182L12.804 33.6475L10.8613 33.1719L8.9187 32.6963L8.80346 33.167L10.7461 33.6426ZM10.8613 33.1719L12.8031 33.6511C12.8073 33.6338 12.8213 33.5904 12.8627 33.5191C12.9046 33.447 12.9669 33.36 13.0543 33.2593L11.5439 31.9482L10.0336 30.6372C9.62268 31.1106 9.1397 31.8008 8.91959 32.6926L10.8613 33.1719ZM11.5439 31.9482L13.0542 33.2594C13.1184 33.1855 13.2041 33.0977 13.3194 32.9906L11.958 31.5254L10.5967 30.0602C10.4131 30.2307 10.2194 30.4232 10.0337 30.6371L11.5439 31.9482ZM11.958 31.5254L13.8019 30.7507C13.8851 30.9488 13.9051 31.177 13.8469 31.3957L11.9141 30.8818L9.9812 30.368C9.80491 31.0311 9.86552 31.7084 10.1142 32.3001L11.958 31.5254ZM11.9141 30.8818L13.8467 31.3965C13.7053 31.9276 13.1596 32.2473 12.6235 32.1046L13.1377 30.1719L13.6519 28.2391C12.0485 27.8125 10.4071 28.7689 9.98142 30.3672L11.9141 30.8818ZM13.1377 30.1719L12.6245 32.1049C12.9528 32.1921 13.3243 32.2216 13.6149 32.2359L13.7129 30.2383L13.8109 28.2407C13.7076 28.2356 13.6383 28.2295 13.5983 28.2248C13.5788 28.2225 13.5727 28.2213 13.5776 28.2222C13.5807 28.2227 13.6076 28.2273 13.6509 28.2389L13.1377 30.1719ZM13.7129 30.2383L14.7547 31.9455C15.3377 31.5898 16.0146 31.2292 16.7582 30.8742L15.8965 29.0693L15.0348 27.2645C14.1986 27.6637 13.3966 28.0883 12.6711 28.531L13.7129 30.2383ZM15.8965 29.0693L16.7909 30.8582L16.7987 30.8543L15.9043 29.0654L15.0099 27.2766L15.0021 27.2805L15.8965 29.0693ZM15.9043 29.0654L16.6065 30.9381L16.6144 30.9352L15.9121 29.0625L15.2099 27.1898L15.202 27.1928L15.9043 29.0654ZM15.9121 29.0625L16.7431 30.8817C17.7314 30.4302 18.2875 30.2251 18.8752 30.0088L18.1846 28.1318L17.494 26.2548C16.8624 26.4872 16.2004 26.732 15.0811 27.2433L15.9121 29.0625ZM47.4824 30.6934L47.1335 28.724C45.3662 29.0372 43.042 29.491 40.5639 29.9699L40.9434 31.9336L41.3229 33.8973C43.8215 33.4144 46.1034 32.9689 47.8314 32.6627L47.4824 30.6934ZM40.9434 31.9336L40.5639 29.9699C40.496 29.983 40.4271 29.996 40.3526 30.01C40.2797 30.0238 40.2013 30.0385 40.1221 30.0538L40.501 32.0176L40.8799 33.9814C40.9486 33.9681 41.0179 33.9551 41.0925 33.941C41.1656 33.9273 41.2439 33.9125 41.3229 33.8973L40.9434 31.9336ZM40.501 32.0176L40.043 33.9644C41.6283 34.3374 43.2304 34.7049 44.7636 34.9842L45.1221 33.0166L45.4805 31.049C44.0575 30.7898 42.5433 30.4434 40.9589 30.0707L40.501 32.0176ZM45.1221 33.0166L44.7933 34.9894L44.805 34.9913L45.1338 33.0186L45.4626 31.0458L45.4509 31.0438L45.1221 33.0166ZM45.1338 33.0186L44.7535 34.9821C46.1634 35.2551 47.1982 35.5749 48.1431 35.9953L48.9561 34.168L49.769 32.3406C48.4897 31.7715 47.1534 31.3726 45.5141 31.055L45.1338 33.0186ZM48.9561 34.168L48.0999 35.9754L48.137 35.993L48.9932 34.1855L49.8493 32.3781L49.8122 32.3605L48.9561 34.168ZM48.9932 34.1855L48.1072 35.9786C48.1568 36.0031 48.1228 35.9876 48.2533 36.0549L49.1699 34.2773L50.0865 32.4997C50.0674 32.4899 50.0535 32.4824 50.0139 32.4616C49.9811 32.4443 49.933 32.4191 49.8792 32.3925L48.9932 34.1855ZM49.1699 34.2773L51.0852 33.7013C51.01 33.4514 50.9277 33.1953 50.8377 32.9382L48.9502 33.5996L47.0627 34.261C47.1301 34.4534 47.194 34.6518 47.2547 34.8534L49.1699 34.2773ZM48.9502 33.5996L50.8376 32.9381C50.4192 31.7443 49.8524 30.5377 49.2077 29.7564L47.665 31.0293L46.1224 32.3022C46.3197 32.5414 46.6991 33.2234 47.0627 34.2611L48.9502 33.5996ZM47.665 31.0293L49.2077 29.7565C49.2906 29.857 49.3521 29.9721 49.3902 30.0929L47.4824 30.6934L45.5747 31.2938C45.6878 31.6532 45.8704 31.9968 46.1224 32.3021L47.665 31.0293ZM29.5049 31.917L29.6697 29.9238C26.6013 29.6701 22.9276 29.7174 17.9686 29.9724L18.0713 31.9697L18.174 33.9671C23.0901 33.7143 26.5469 33.6792 29.3401 33.9102L29.5049 31.917ZM18.0713 31.9697L17.8104 29.9868C17.7741 29.9916 17.7426 29.9967 17.7172 30.0013C17.6918 30.0059 17.6704 30.0102 17.6547 30.0135C17.639 30.0168 17.6265 30.0197 17.6196 30.0213C17.616 30.0221 17.6131 30.0228 17.6116 30.0231C17.6105 30.0234 17.6087 30.0238 17.6097 30.0236C17.6099 30.0235 17.6115 30.0231 17.6137 30.0226C17.6159 30.0221 17.6194 30.0213 17.6236 30.0204C17.6318 30.0185 17.6448 30.0156 17.6609 30.0123C17.6771 30.009 17.6978 30.0049 17.7219 30.0007C17.7462 29.9966 17.7749 29.992 17.8075 29.9879L18.0615 31.9717L18.3156 33.9555C18.3489 33.9512 18.3786 33.9466 18.4036 33.9422C18.4287 33.9379 18.4502 33.9337 18.4672 33.9302C18.4841 33.9267 18.4979 33.9236 18.507 33.9216C18.5156 33.9196 18.5226 33.918 18.5234 33.9178C18.5247 33.9175 18.5234 33.9178 18.5227 33.918C18.5216 33.9182 18.5191 33.9188 18.5159 33.9195C18.5098 33.921 18.4981 33.9236 18.4832 33.9268C18.4683 33.9299 18.4477 33.9341 18.4231 33.9385C18.3984 33.9429 18.3677 33.948 18.3322 33.9526L18.0713 31.9697ZM18.0615 31.9717L17.8176 29.9866C17.8206 29.9862 17.8204 29.9863 17.8143 29.987C17.808 29.9877 17.8009 29.9884 17.7889 29.9898C17.7667 29.9922 17.7341 29.9958 17.6967 30.0002L17.9316 31.9863L18.1666 33.9725C18.1847 33.9703 18.202 33.9684 18.2234 33.9661C18.2331 33.965 18.2462 33.9636 18.2585 33.9622C18.2708 33.9609 18.2874 33.959 18.3055 33.9567L18.0615 31.9717ZM17.9316 31.9863L17.6967 30.0002C17.5895 30.0129 17.437 30.0306 17.2515 30.0505L17.4648 32.0391L17.6782 34.0276C17.8829 34.0057 18.0507 33.9862 18.1666 33.9725L17.9316 31.9863ZM17.4648 32.0391L17.2515 30.0505C16.8787 30.0905 16.367 30.14 15.8187 30.1802L15.9648 32.1748L16.111 34.1695C16.7136 34.1253 17.2711 34.0713 17.6782 34.0276L17.4648 32.0391ZM15.9648 32.1748L15.8187 30.1802C15.3013 30.2181 14.7556 30.2452 14.2675 30.2481L14.2793 32.248L14.2911 34.248C14.897 34.2445 15.5376 34.2115 16.111 34.1695L15.9648 32.1748ZM14.2793 32.248L13.1678 30.5854C13.1097 30.6242 13.0552 30.6616 13.0093 30.6932L14.1445 32.3398L15.2797 33.9864C15.322 33.9573 15.3574 33.9331 15.3908 33.9107L14.2793 32.248ZM14.1445 32.3398L13.3853 34.1901C13.9941 34.4399 14.4552 34.5772 14.9517 34.6637L15.2949 32.6934L15.6382 30.723C15.4853 30.6964 15.3059 30.6546 14.9038 30.4896L14.1445 32.3398ZM15.2949 32.6934L15.114 34.6852C16.4232 34.8041 18.2514 34.8738 20.2363 34.9563L20.3193 32.958L20.4024 30.9597C18.3596 30.8748 16.6606 30.8092 15.4758 30.7016L15.2949 32.6934ZM20.3193 32.958L20.3894 34.9568C23.4723 34.8488 26.3442 34.3462 29.4353 33.9464L29.1787 31.9629L28.9222 29.9794C25.6035 30.4087 23.0828 30.8599 20.2493 30.9592L20.3193 32.958ZM29.1787 31.9629L29.4353 33.9464C29.508 33.937 29.7625 33.9004 29.7728 33.899L29.5049 31.917L29.2369 29.935C29.0264 29.9635 29.0638 29.9611 28.9221 29.9794L29.1787 31.9629Z" fill="white" mask="url(#path-1-outside-1_34_122)"/>
</svg>
