<svg width="64" height="64" viewBox="0 0 64 64" fill="none" xmlns="http://www.w3.org/2000/svg">
<mask id="path-1-outside-1_34_122" maskUnits="userSpaceOnUse" x="8.74609" y="26.0703" width="45" height="16" fill="black">
<rect fill="white" x="8.74609" y="26.0703" width="45" height="16"/>
<path d="M18.2705 28.3672C18.6591 28.2242 19.0902 28.423 19.2334 28.8115C19.3763 29.2001 19.1776 29.6313 18.7891 29.7744C18.3947 29.9195 18.014 30.0614 17.5088 30.2734C17.594 30.2638 17.667 30.2559 17.7256 30.249C17.7784 30.2428 17.82 30.2378 17.8477 30.2344C17.8613 30.2327 17.872 30.2313 17.8789 30.2305C17.8823 30.23 17.8851 30.2287 17.8867 30.2285H17.8887L17.917 30.2256L17.9453 30.2246C23.7554 29.9251 27.7906 29.9086 31.1592 30.3281C32.5569 30.5022 34.0873 30.801 35.666 31.1494C37.2983 30.8498 38.985 30.5303 40.6123 30.2158C44.5784 29.4493 48.2396 28.727 49.8262 28.5645C50.2381 28.5223 50.606 28.8216 50.6484 29.2334C50.6906 29.6455 50.3915 30.0144 49.9795 30.0566C49.7613 30.079 49.4997 30.1141 49.1992 30.1582C49.741 30.9032 50.2294 31.9568 50.6025 33.0215C51.0219 34.2183 51.33 35.5218 51.4072 36.5752L51.4355 36.959L51.1406 37.2061C50.5915 37.6641 49.8205 37.9422 49.0566 38.1621C48.3108 38.3768 47.356 38.5897 46.5146 38.8125C45.752 39.0329 45.2688 39.2138 44.6328 39.6133C44.2822 39.8334 43.819 39.7274 43.5986 39.377C43.3783 39.0263 43.4834 38.5632 43.834 38.3428C44.6315 37.8418 45.2595 37.6133 46.0977 37.3711L46.1133 37.3672C47.0835 37.1096 47.8796 36.9404 48.6426 36.7207C48.9557 36.6305 49.2255 36.5412 49.4541 36.4502C49.0354 36.1981 48.6449 35.9661 48.2354 35.7627C47.2736 35.3358 46.2239 35.0128 44.8086 34.7383L43.9424 34.5732C41.9019 34.1691 39.744 33.6398 37.6602 33.1475C36.9764 32.9859 36.3006 32.8281 35.6377 32.6797C33.3491 33.0973 31.1658 33.4701 29.4023 33.6982C26.2833 34.1017 23.425 34.6022 20.3428 34.707H20.2861C18.2649 34.6229 16.412 34.5538 15.0986 34.4326L15.0713 34.4307L15.0449 34.4258C14.4937 34.3339 13.9948 34.1798 13.2861 33.877C13.6298 34.2195 14.0396 34.6141 14.4834 35.0312C14.9458 35.4659 15.4303 35.9139 15.8896 36.3379C16.3478 36.7607 16.783 37.1618 17.1406 37.498C17.4423 37.7818 17.4575 38.2568 17.1738 38.5586C16.8902 38.8601 16.415 38.8751 16.1133 38.5918C15.7619 38.2615 15.3326 37.8654 14.8721 37.4404C14.4131 37.0169 13.924 36.5649 13.4561 36.125C12.5398 35.2637 11.6462 34.3948 11.2402 33.8721L11.0176 33.585L11.1045 33.2314C11.2071 32.8161 11.4476 32.4404 11.7324 32.1123C11.8904 31.9304 12.0731 31.7515 12.2744 31.5752C12.1477 31.399 12.0951 31.1713 12.1553 30.9453C12.262 30.5456 12.6724 30.308 13.0723 30.4141C13.2187 30.453 13.4593 30.4798 13.7793 30.4922C14.4394 30.0853 15.1933 29.6824 16.0049 29.2949L16.0156 29.2891C17.0611 28.8115 17.6635 28.5905 18.2705 28.3672ZM47.6895 30.4043C45.9067 30.7157 43.498 31.1857 40.8965 31.6885C40.3719 31.7899 39.8398 31.8906 39.3047 31.9932C41.2789 32.4625 43.2407 32.927 45.0781 33.2617L45.0869 33.2637C46.5971 33.5562 47.7633 33.911 48.8545 34.3965L48.8691 34.4033L48.8818 34.4102C49.1183 34.527 49.3476 34.6513 49.5713 34.7783C49.4631 34.3623 49.3332 33.9361 49.1865 33.5176C48.7921 32.3919 48.3063 31.4153 47.8574 30.8711C47.7446 30.7343 47.6918 30.569 47.6895 30.4043ZM30.9736 31.8154C27.7485 31.4138 23.8311 31.4233 18.0508 31.7207C18.0452 31.7214 18.0385 31.7218 18.0312 31.7227C18.0015 31.7263 17.9576 31.7317 17.9023 31.7383C17.7917 31.7514 17.6326 31.7702 17.4385 31.791C17.0504 31.8327 16.5182 31.8849 15.9463 31.9268C15.3785 31.9684 14.7615 31.9995 14.2021 32C14.0264 32.116 13.8615 32.2312 13.709 32.3447C13.687 32.3611 13.6659 32.3783 13.6445 32.3945C14.4118 32.7359 14.8282 32.8667 15.2617 32.9414C16.5198 33.0562 18.3005 33.123 20.3213 33.207C23.2976 33.1033 26.017 32.624 29.21 32.2109C29.897 32.1221 30.6503 32.0082 31.4512 31.8809C31.2902 31.858 31.1308 31.835 30.9736 31.8154Z"/>
</mask>
<path d="M18.2705 28.3672C18.6591 28.2242 19.0902 28.423 19.2334 28.8115C19.3763 29.2001 19.1776 29.6313 18.7891 29.7744C18.3947 29.9195 18.014 30.0614 17.5088 30.2734C17.594 30.2638 17.667 30.2559 17.7256 30.249C17.7784 30.2428 17.82 30.2378 17.8477 30.2344C17.8613 30.2327 17.872 30.2313 17.8789 30.2305C17.8823 30.23 17.8851 30.2287 17.8867 30.2285H17.8887L17.917 30.2256L17.9453 30.2246C23.7554 29.9251 27.7906 29.9086 31.1592 30.3281C32.5569 30.5022 34.0873 30.801 35.666 31.1494C37.2983 30.8498 38.985 30.5303 40.6123 30.2158C44.5784 29.4493 48.2396 28.727 49.8262 28.5645C50.2381 28.5223 50.606 28.8216 50.6484 29.2334C50.6906 29.6455 50.3915 30.0144 49.9795 30.0566C49.7613 30.079 49.4997 30.1141 49.1992 30.1582C49.741 30.9032 50.2294 31.9568 50.6025 33.0215C51.0219 34.2183 51.33 35.5218 51.4072 36.5752L51.4355 36.959L51.1406 37.2061C50.5915 37.6641 49.8205 37.9422 49.0566 38.1621C48.3108 38.3768 47.356 38.5897 46.5146 38.8125C45.752 39.0329 45.2688 39.2138 44.6328 39.6133C44.2822 39.8334 43.819 39.7274 43.5986 39.377C43.3783 39.0263 43.4834 38.5632 43.834 38.3428C44.6315 37.8418 45.2595 37.6133 46.0977 37.3711L46.1133 37.3672C47.0835 37.1096 47.8796 36.9404 48.6426 36.7207C48.9557 36.6305 49.2255 36.5412 49.4541 36.4502C49.0354 36.1981 48.6449 35.9661 48.2354 35.7627C47.2736 35.3358 46.2239 35.0128 44.8086 34.7383L43.9424 34.5732C41.9019 34.1691 39.744 33.6398 37.6602 33.1475C36.9764 32.9859 36.3006 32.8281 35.6377 32.6797C33.3491 33.0973 31.1658 33.4701 29.4023 33.6982C26.2833 34.1017 23.425 34.6022 20.3428 34.707H20.2861C18.2649 34.6229 16.412 34.5538 15.0986 34.4326L15.0713 34.4307L15.0449 34.4258C14.4937 34.3339 13.9948 34.1798 13.2861 33.877C13.6298 34.2195 14.0396 34.6141 14.4834 35.0312C14.9458 35.4659 15.4303 35.9139 15.8896 36.3379C16.3478 36.7607 16.783 37.1618 17.1406 37.498C17.4423 37.7818 17.4575 38.2568 17.1738 38.5586C16.8902 38.8601 16.415 38.8751 16.1133 38.5918C15.7619 38.2615 15.3326 37.8654 14.8721 37.4404C14.4131 37.0169 13.924 36.5649 13.4561 36.125C12.5398 35.2637 11.6462 34.3948 11.2402 33.8721L11.0176 33.585L11.1045 33.2314C11.2071 32.8161 11.4476 32.4404 11.7324 32.1123C11.8904 31.9304 12.0731 31.7515 12.2744 31.5752C12.1477 31.399 12.0951 31.1713 12.1553 30.9453C12.262 30.5456 12.6724 30.308 13.0723 30.4141C13.2187 30.453 13.4593 30.4798 13.7793 30.4922C14.4394 30.0853 15.1933 29.6824 16.0049 29.2949L16.0156 29.2891C17.0611 28.8115 17.6635 28.5905 18.2705 28.3672ZM47.6895 30.4043C45.9067 30.7157 43.498 31.1857 40.8965 31.6885C40.3719 31.7899 39.8398 31.8906 39.3047 31.9932C41.2789 32.4625 43.2407 32.927 45.0781 33.2617L45.0869 33.2637C46.5971 33.5562 47.7633 33.911 48.8545 34.3965L48.8691 34.4033L48.8818 34.4102C49.1183 34.527 49.3476 34.6513 49.5713 34.7783C49.4631 34.3623 49.3332 33.9361 49.1865 33.5176C48.7921 32.3919 48.3063 31.4153 47.8574 30.8711C47.7446 30.7343 47.6918 30.569 47.6895 30.4043ZM30.9736 31.8154C27.7485 31.4138 23.8311 31.4233 18.0508 31.7207C18.0452 31.7214 18.0385 31.7218 18.0312 31.7227C18.0015 31.7263 17.9576 31.7317 17.9023 31.7383C17.7917 31.7514 17.6326 31.7702 17.4385 31.791C17.0504 31.8327 16.5182 31.8849 15.9463 31.9268C15.3785 31.9684 14.7615 31.9995 14.2021 32C14.0264 32.116 13.8615 32.2312 13.709 32.3447C13.687 32.3611 13.6659 32.3783 13.6445 32.3945C14.4118 32.7359 14.8282 32.8667 15.2617 32.9414C16.5198 33.0562 18.3005 33.123 20.3213 33.207C23.2976 33.1033 26.017 32.624 29.21 32.2109C29.897 32.1221 30.6503 32.0082 31.4512 31.8809C31.2902 31.858 31.1308 31.835 30.9736 31.8154Z" fill="black"/>
<path d="M18.2705 28.3672L18.7885 29.7749L18.7885 29.7749L18.2705 28.3672ZM19.2334 28.8115L20.6412 28.2937L20.6409 28.2928L19.2334 28.8115ZM18.7891 29.7744L19.307 31.1822L19.3077 31.1819L18.7891 29.7744ZM17.5088 30.2734L16.9284 28.8903L17.6771 31.764L17.5088 30.2734ZM17.7256 30.249L17.9018 31.7386L17.9018 31.7386L17.7256 30.249ZM17.8477 30.2344L18.0306 31.7232L18.0306 31.7232L17.8477 30.2344ZM17.8789 30.2305L18.0638 31.719L18.065 31.7189L17.8789 30.2305ZM17.8867 30.2285V28.7285H17.7837L17.6817 28.7426L17.8867 30.2285ZM17.8887 30.2285V31.7285H17.9661L18.043 31.7206L17.8887 30.2285ZM17.917 30.2256L17.8653 28.7265L17.8138 28.7283L17.7626 28.7335L17.917 30.2256ZM17.9453 30.2246L17.997 31.7237L18.0098 31.7233L18.0225 31.7226L17.9453 30.2246ZM31.1592 30.3281L31.3446 28.8396L31.3445 28.8396L31.1592 30.3281ZM35.666 31.1494L35.3427 32.6142L35.6387 32.6795L35.9368 32.6248L35.666 31.1494ZM40.6123 30.2158L40.8969 31.6886L40.8969 31.6886L40.6123 30.2158ZM49.8262 28.5645L49.6733 27.0723L49.6733 27.0723L49.8262 28.5645ZM50.6484 29.2334L52.1406 29.0806L52.1405 29.0795L50.6484 29.2334ZM49.9795 30.0566L49.8267 28.5644L49.8266 28.5644L49.9795 30.0566ZM49.1992 30.1582L48.9816 28.6741L46.5271 29.034L47.986 31.0403L49.1992 30.1582ZM50.6025 33.0215L52.0182 32.5255L52.0181 32.5254L50.6025 33.0215ZM51.4072 36.5752L49.9112 36.6848L49.9113 36.6856L51.4072 36.5752ZM51.4355 36.959L52.3988 38.1088L52.988 37.6152L52.9315 36.8486L51.4355 36.959ZM51.1406 37.2061L52.1014 38.3579L52.1039 38.3559L51.1406 37.2061ZM49.0566 38.1621L49.4716 39.6036L49.4716 39.6036L49.0566 38.1621ZM46.5146 38.8125L46.1306 37.3625L46.1143 37.3668L46.0982 37.3715L46.5146 38.8125ZM44.6328 39.6133L45.4305 40.8836L45.4307 40.8835L44.6328 39.6133ZM43.5986 39.377L42.3285 40.1749L42.3289 40.1755L43.5986 39.377ZM43.834 38.3428L43.0361 37.0726L43.0356 37.0729L43.834 38.3428ZM46.0977 37.3711L45.7339 35.9159L45.7074 35.9225L45.6812 35.9301L46.0977 37.3711ZM46.1133 37.3672L46.4771 38.8224L46.4877 38.8198L46.4982 38.817L46.1133 37.3672ZM48.6426 36.7207L49.0576 38.1622L49.0576 38.1621L48.6426 36.7207ZM49.4541 36.4502L50.0088 37.8439L52.8192 36.7254L50.2278 35.1651L49.4541 36.4502ZM48.2354 35.7627L48.9025 34.4192L48.8735 34.4048L48.8439 34.3917L48.2354 35.7627ZM44.8086 34.7383L45.0943 33.2657L45.0893 33.2648L44.8086 34.7383ZM43.9424 34.5732L43.6509 36.0447L43.6616 36.0467L43.9424 34.5732ZM37.6602 33.1475L38.005 31.6876L38.005 31.6876L37.6602 33.1475ZM35.6377 32.6797L35.9654 31.2159L35.6682 31.1494L35.3685 31.204L35.6377 32.6797ZM29.4023 33.6982L29.2099 32.2106L29.2099 32.2106L29.4023 33.6982ZM20.3428 34.707V36.207H20.3683L20.3938 36.2062L20.3428 34.707ZM20.2861 34.707L20.2238 36.2057L20.2549 36.207H20.2861V34.707ZM15.0986 34.4326L15.2365 32.939L15.221 32.9375L15.2055 32.9364L15.0986 34.4326ZM15.0713 34.4307L14.7982 35.9056L14.8807 35.9209L14.9644 35.9269L15.0713 34.4307ZM15.0449 34.4258L15.3181 32.9509L15.3048 32.9484L15.2916 32.9462L15.0449 34.4258ZM13.2861 33.877L13.8756 32.4976L12.2273 34.9394L13.2861 33.877ZM14.4834 35.0312L13.4561 36.1242L13.4561 36.1242L14.4834 35.0312ZM15.8896 36.3379L14.8723 37.4402L14.8723 37.4402L15.8896 36.3379ZM17.1406 37.498L18.1682 36.4053L18.1681 36.4052L17.1406 37.498ZM17.1738 38.5586L18.2664 39.5864L18.2668 39.5859L17.1738 38.5586ZM16.1133 38.5918L15.0858 39.6846L15.0866 39.6854L16.1133 38.5918ZM14.8721 37.4404L13.8548 38.5427L13.8548 38.5427L14.8721 37.4404ZM13.4561 36.125L12.4287 37.218L12.4287 37.218L13.4561 36.125ZM11.2402 33.8721L10.0549 34.7913L10.0555 34.7921L11.2402 33.8721ZM11.0176 33.585L9.56096 33.2268L9.38781 33.9311L9.83225 34.5042L11.0176 33.585ZM11.1045 33.2314L9.64827 32.8717L9.64787 32.8733L11.1045 33.2314ZM11.7324 32.1123L10.5997 31.1289L10.5996 31.1291L11.7324 32.1123ZM12.2744 31.5752L13.2624 32.7038L14.288 31.806L13.4922 30.6994L12.2744 31.5752ZM12.1553 30.9453L10.7061 30.5583L10.7057 30.5597L12.1553 30.9453ZM13.0723 30.4141L13.4579 28.9645L13.4568 28.9642L13.0723 30.4141ZM13.7793 30.4922L13.7212 31.9911L14.1776 32.0087L14.5664 31.7691L13.7793 30.4922ZM16.0049 29.2949L16.6511 30.6486L16.6877 30.6311L16.7232 30.6118L16.0049 29.2949ZM16.0156 29.2891L15.3923 27.9247L15.344 27.9468L15.2973 27.9722L16.0156 29.2891ZM47.6895 30.4043L49.1893 30.3827L49.164 28.624L47.4313 28.9267L47.6895 30.4043ZM40.8965 31.6885L41.1811 33.1612L41.1811 33.1612L40.8965 31.6885ZM39.3047 31.9932L39.0223 30.52L38.9578 33.4525L39.3047 31.9932ZM45.0781 33.2617L45.4035 31.7974L45.3753 31.7912L45.3469 31.786L45.0781 33.2617ZM45.0869 33.2637L44.7615 34.728L44.7815 34.7324L44.8017 34.7363L45.0869 33.2637ZM48.8545 34.3965L49.4888 33.0372L49.4766 33.0315L49.4642 33.026L48.8545 34.3965ZM48.8691 34.4033L49.5803 33.0826L49.5424 33.0622L49.5035 33.044L48.8691 34.4033ZM48.8818 34.4102L48.1707 35.7309L48.1938 35.7433L48.2174 35.755L48.8818 34.4102ZM49.5713 34.7783L48.8307 36.0827L51.9159 37.8345L51.023 34.4008L49.5713 34.7783ZM49.1865 33.5176L50.6021 33.0215L50.6021 33.0215L49.1865 33.5176ZM47.8574 30.8711L49.0145 29.9166L49.0145 29.9165L47.8574 30.8711ZM30.9736 31.8154L31.159 30.3269L31.159 30.3269L30.9736 31.8154ZM18.0508 31.7207L17.9737 30.2227L17.9193 30.2255L17.8652 30.2322L18.0508 31.7207ZM18.0312 31.7227L18.2142 33.2115L18.2159 33.2113L18.0312 31.7227ZM17.9023 31.7383L18.0786 33.2279L18.0786 33.2279L17.9023 31.7383ZM17.4385 31.791L17.5985 33.2825L17.5985 33.2825L17.4385 31.791ZM15.9463 31.9268L16.0559 33.4227L16.0559 33.4227L15.9463 31.9268ZM14.2021 32L14.2008 30.5L13.7512 30.5004L13.3759 30.7481L14.2021 32ZM13.709 32.3447L12.8134 31.1414L12.8125 31.1421L13.709 32.3447ZM13.6445 32.3945L12.7373 31.2L10.7174 32.734L13.0348 33.765L13.6445 32.3945ZM15.2617 32.9414L15.0069 34.4196L15.0658 34.4298L15.1254 34.4352L15.2617 32.9414ZM20.3213 33.207L20.259 34.7057L20.3163 34.7081L20.3735 34.7061L20.3213 33.207ZM29.21 32.2109L29.0175 30.7233L29.0175 30.7233L29.21 32.2109ZM31.4512 31.8809L31.6867 33.3623L31.6619 30.3957L31.4512 31.8809ZM18.2705 28.3672L18.7885 29.7749C18.4007 29.9176 17.9694 29.7196 17.8259 29.3302L19.2334 28.8115L20.6409 28.2928C20.211 27.1265 18.9176 26.5308 17.7526 26.9594L18.2705 28.3672ZM19.2334 28.8115L17.8256 29.3294C17.6831 28.9419 17.8808 28.5105 18.2705 28.3669L18.7891 29.7744L19.3077 31.1819C20.4743 30.7521 21.0696 29.4584 20.6412 28.2937L19.2334 28.8115ZM18.7891 29.7744L18.2711 28.3667C17.8701 28.5142 17.4646 28.6652 16.9284 28.8903L17.5088 30.2734L18.0892 31.6566C18.5633 31.4576 18.9193 31.3248 19.307 31.1822L18.7891 29.7744ZM17.5088 30.2734L17.6771 31.764C17.75 31.7557 17.8389 31.7461 17.9018 31.7386L17.7256 30.249L17.5494 28.7594C17.4952 28.7658 17.438 28.7719 17.3404 28.7829L17.5088 30.2734ZM17.7256 30.249L17.9018 31.7386C17.9557 31.7323 17.9998 31.727 18.0306 31.7232L17.8477 30.2344L17.6647 28.7456C17.6402 28.7486 17.6011 28.7533 17.5494 28.7594L17.7256 30.249ZM17.8477 30.2344L18.0306 31.7232C18.0395 31.7221 18.0471 31.7211 18.0531 31.7204C18.0603 31.7195 18.0619 31.7193 18.0638 31.719L17.8789 30.2305L17.694 28.7419C17.691 28.7423 17.688 28.7427 17.6857 28.743C17.6827 28.7433 17.6813 28.7435 17.6786 28.7438C17.674 28.7444 17.6695 28.745 17.6647 28.7456L17.8477 30.2344ZM17.8789 30.2305L18.065 31.7189C18.1345 31.7102 18.1925 31.698 18.2352 31.6877C18.2567 31.6825 18.2752 31.6775 18.2899 31.6733C18.3044 31.6692 18.3161 31.6657 18.3232 31.6635C18.3268 31.6624 18.3296 31.6615 18.331 31.6611C18.3317 31.6609 18.3323 31.6607 18.3324 31.6607C18.3327 31.6606 18.3323 31.6607 18.332 31.6608C18.3314 31.661 18.3287 31.6618 18.3253 31.6629C18.3218 31.6639 18.3162 31.6657 18.3093 31.6677C18.3024 31.6697 18.293 31.6724 18.2819 31.6755C18.2708 31.6785 18.2565 31.6823 18.2399 31.6863C18.2234 31.6903 18.2027 31.695 18.1788 31.6998C18.155 31.7045 18.1256 31.7098 18.0917 31.7144L17.8867 30.2285L17.6817 28.7426C17.6477 28.7473 17.618 28.7526 17.594 28.7573C17.5699 28.7621 17.549 28.7669 17.5322 28.771C17.5153 28.7751 17.5009 28.7789 17.4895 28.782C17.4781 28.7851 17.4685 28.7879 17.4613 28.79C17.4541 28.7921 17.4483 28.7939 17.4445 28.7951C17.4407 28.7962 17.4378 28.7972 17.4368 28.7975C17.4363 28.7976 17.4358 28.7978 17.436 28.7977C17.436 28.7977 17.4361 28.7977 17.4362 28.7976C17.4364 28.7976 17.4366 28.7975 17.4369 28.7974C17.438 28.7971 17.4405 28.7963 17.4437 28.7953C17.4501 28.7934 17.4611 28.79 17.475 28.7861C17.4889 28.7822 17.5067 28.7774 17.5275 28.7724C17.5686 28.7624 17.625 28.7505 17.6928 28.7421L17.8789 30.2305ZM17.8867 30.2285V31.7285H17.8887V30.2285V28.7285H17.8867V30.2285ZM17.8887 30.2285L18.043 31.7206L18.0713 31.7176L17.917 30.2256L17.7626 28.7335L17.7343 28.7365L17.8887 30.2285ZM17.917 30.2256L17.9687 31.7247L17.997 31.7237L17.9453 30.2246L17.8936 28.7255L17.8653 28.7265L17.917 30.2256ZM17.9453 30.2246L18.0225 31.7226C23.8185 31.4238 27.7433 31.4143 30.9738 31.8166L31.1592 30.3281L31.3445 28.8396C27.8378 28.4029 23.6923 28.4263 17.8681 28.7266L17.9453 30.2246ZM31.1592 30.3281L30.9738 31.8166C32.3031 31.9822 33.781 32.2695 35.3427 32.6142L35.666 31.1494L35.9893 29.6847C34.3937 29.3325 32.8106 29.0222 31.3446 28.8396L31.1592 30.3281ZM35.666 31.1494L35.9368 32.6248C37.5746 32.3242 39.2661 32.0037 40.8969 31.6886L40.6123 30.2158L40.3277 28.7431C38.7039 29.0569 37.0219 29.3755 35.3952 29.6741L35.666 31.1494ZM40.6123 30.2158L40.8969 31.6886C44.9181 30.9114 48.4792 30.2103 49.9791 30.0566L49.8262 28.5645L49.6733 27.0723C47.9999 27.2437 44.2386 27.9873 40.3277 28.7431L40.6123 30.2158ZM49.8262 28.5645L49.979 30.0566C49.5672 30.0988 49.1988 29.7992 49.1564 29.3873L50.6484 29.2334L52.1405 29.0795C52.0131 27.844 50.9089 26.9457 49.6733 27.0723L49.8262 28.5645ZM50.6484 29.2334L49.1562 29.3862C49.1144 28.9779 49.4108 28.607 49.8267 28.5644L49.9795 30.0566L50.1323 31.5488C51.3723 31.4218 52.2669 30.313 52.1406 29.0806L50.6484 29.2334ZM49.9795 30.0566L49.8266 28.5644C49.5756 28.5902 49.2885 28.6291 48.9816 28.6741L49.1992 30.1582L49.4168 31.6423C49.7109 31.5992 49.947 31.5678 50.1323 31.5488L49.9795 30.0566ZM49.1992 30.1582L47.986 31.0403C48.4071 31.6194 48.8377 32.5209 49.1869 33.5176L50.6025 33.0215L52.0181 32.5254C51.6212 31.3927 51.0748 30.187 50.4124 29.2761L49.1992 30.1582ZM50.6025 33.0215L49.1869 33.5175C49.577 34.6309 49.8465 35.8006 49.9112 36.6848L51.4072 36.5752L52.9032 36.4656C52.8136 35.2429 52.4667 33.8057 52.0182 32.5255L50.6025 33.0215ZM51.4072 36.5752L49.9113 36.6856L49.9396 37.0694L51.4355 36.959L52.9315 36.8486L52.9032 36.4648L51.4072 36.5752ZM51.4355 36.959L50.4723 35.8092L50.1774 36.0562L51.1406 37.2061L52.1039 38.3559L52.3988 38.1088L51.4355 36.959ZM51.1406 37.2061L50.1798 36.0542C49.8918 36.2944 49.3916 36.5048 48.6417 36.7207L49.0566 38.1621L49.4716 39.6036C50.2495 39.3796 51.2911 39.0339 52.1014 38.3579L51.1406 37.2061ZM49.0566 38.1621L48.6417 36.7206C47.8907 36.9368 47.0837 37.1101 46.1306 37.3625L46.5146 38.8125L46.8987 40.2625C47.6282 40.0693 48.7309 39.8168 49.4716 39.6036L49.0566 38.1621ZM46.5146 38.8125L46.0982 37.3715C45.2599 37.6137 44.6321 37.8424 43.835 38.3431L44.6328 39.6133L45.4307 40.8835C45.9055 40.5852 46.244 40.4521 46.9311 40.2535L46.5146 38.8125ZM44.6328 39.6133L43.8352 38.3429C44.1868 38.1221 44.6486 38.229 44.8684 38.5784L43.5986 39.377L42.3289 40.1755C42.9894 41.2258 44.3776 41.5447 45.4305 40.8836L44.6328 39.6133ZM43.5986 39.377L44.8688 38.579C45.0879 38.9279 44.9848 39.3911 44.6324 39.6127L43.834 38.3428L43.0356 37.0729C41.9821 37.7352 41.6687 39.1247 42.3285 40.1749L43.5986 39.377ZM43.834 38.3428L44.6319 39.6129C45.2681 39.2133 45.7514 39.0325 46.5141 38.8121L46.0977 37.3711L45.6812 35.9301C44.7677 36.1941 43.9948 36.4703 43.0361 37.0726L43.834 38.3428ZM46.0977 37.3711L46.4615 38.8263L46.4771 38.8224L46.1133 37.3672L45.7495 35.912L45.7339 35.9159L46.0977 37.3711ZM46.1133 37.3672L46.4982 38.817C47.3416 38.593 48.3078 38.378 49.0576 38.1622L48.6426 36.7207L48.2276 35.2792C47.4514 35.5027 46.8253 35.6262 45.7284 35.9174L46.1133 37.3672ZM48.6426 36.7207L49.0576 38.1621C49.4008 38.0633 49.7203 37.9587 50.0088 37.8439L49.4541 36.4502L48.8994 35.0565C48.7307 35.1237 48.5107 35.1977 48.2275 35.2793L48.6426 36.7207ZM49.4541 36.4502L50.2278 35.1651C49.8113 34.9144 49.3731 34.6529 48.9025 34.4192L48.2354 35.7627L47.5682 37.1062C47.9166 37.2792 48.2595 37.4818 48.6804 37.7352L49.4541 36.4502ZM48.2354 35.7627L48.8439 34.3917C47.7573 33.9093 46.595 33.5569 45.0943 33.2657L44.8086 34.7383L44.5229 36.2108C45.8528 36.4688 46.7899 36.7622 47.6268 37.1337L48.2354 35.7627ZM44.8086 34.7383L45.0893 33.2648L44.2231 33.0997L43.9424 34.5732L43.6616 36.0467L44.5278 36.2118L44.8086 34.7383ZM43.9424 34.5732L44.2338 33.1018C42.2281 32.7045 40.1083 32.1845 38.005 31.6876L37.6602 33.1475L37.3153 34.6073C39.3796 35.095 41.5757 35.6336 43.6509 36.0447L43.9424 34.5732ZM37.6602 33.1475L38.005 31.6876C37.3193 31.5256 36.6369 31.3663 35.9654 31.2159L35.6377 32.6797L35.31 34.1434C35.9643 34.29 36.6334 34.4462 37.3153 34.6073L37.6602 33.1475ZM35.6377 32.6797L35.3685 31.204C33.0839 31.6209 30.9326 31.9878 29.2099 32.2106L29.4023 33.6982L29.5948 35.1858C31.399 34.9525 33.6143 34.5736 35.9069 34.1553L35.6377 32.6797ZM29.4023 33.6982L29.2099 32.2106C26.0074 32.6249 23.2795 33.1063 20.2918 33.2079L20.3428 34.707L20.3938 36.2062C23.5705 36.0981 26.5592 35.5785 29.5948 35.1858L29.4023 33.6982ZM20.3428 34.707V33.207H20.2861V34.707V36.207H20.3428V34.707ZM20.2861 34.707L20.3485 33.2083C18.3035 33.1233 16.5016 33.0557 15.2365 32.939L15.0986 34.4326L14.9608 35.9263C16.3224 36.0519 18.2263 36.1226 20.2238 36.2057L20.2861 34.707ZM15.0986 34.4326L15.2055 32.9364L15.1782 32.9345L15.0713 34.4307L14.9644 35.9269L14.9918 35.9288L15.0986 34.4326ZM15.0713 34.4307L15.3444 32.9557L15.3181 32.9509L15.0449 34.4258L14.7718 35.9007L14.7982 35.9056L15.0713 34.4307ZM15.0449 34.4258L15.2916 32.9462C14.89 32.8793 14.5087 32.7682 13.8756 32.4976L13.2861 33.877L12.6966 35.2563C13.4809 35.5915 14.0973 35.7885 14.7983 35.9054L15.0449 34.4258ZM13.2861 33.877L12.2273 34.9394C12.5841 35.295 13.0049 35.7001 13.4561 36.1242L14.4834 35.0312L15.5107 33.9383C15.0744 33.5281 14.6756 33.1439 14.345 32.8145L13.2861 33.877ZM14.4834 35.0312L13.4561 36.1242C13.9239 36.564 14.4127 37.016 14.8723 37.4402L15.8896 36.3379L16.907 35.2356C16.4478 34.8118 15.9677 34.3678 15.5107 33.9383L14.4834 35.0312ZM15.8896 36.3379L14.8723 37.4402C15.3329 37.8653 15.7619 38.2606 16.1131 38.5909L17.1406 37.498L18.1681 36.4052C17.8042 36.063 17.3627 35.6561 16.907 35.2356L15.8896 36.3379ZM17.1406 37.498L16.113 38.5908C15.8126 38.3083 15.796 37.8343 16.0808 37.5313L17.1738 38.5586L18.2668 39.5859C19.1189 38.6793 19.072 37.2552 18.1682 36.4053L17.1406 37.498ZM17.1738 38.5586L16.0813 37.5308C16.3643 37.23 16.8375 37.2143 17.1399 37.4982L16.1133 38.5918L15.0866 39.6854C15.9926 40.5359 17.4162 40.4902 18.2664 39.5864L17.1738 38.5586ZM16.1133 38.5918L17.1408 37.499C16.7832 37.1628 16.3479 36.7613 15.8894 36.3381L14.8721 37.4404L13.8548 38.5427C14.3173 38.9696 14.7407 39.3602 15.0858 39.6846L16.1133 38.5918ZM14.8721 37.4404L15.8894 36.3381C15.4303 35.9144 14.9458 35.4667 14.4834 35.032L13.4561 36.125L12.4287 37.218C12.9023 37.6631 13.3959 38.1193 13.8548 38.5427L14.8721 37.4404ZM13.4561 36.125L14.4834 35.032C13.5391 34.1444 12.7435 33.3623 12.425 32.952L11.2402 33.8721L10.0555 34.7921C10.5488 35.4273 11.5404 36.383 12.4287 37.218L13.4561 36.125ZM11.2402 33.8721L12.4256 32.9528L12.2029 32.6657L11.0176 33.585L9.83225 34.5042L10.0549 34.7913L11.2402 33.8721ZM11.0176 33.585L12.4742 33.9431L12.5611 33.5896L11.1045 33.2314L9.64787 32.8733L9.56096 33.2268L11.0176 33.585ZM11.1045 33.2314L12.5607 33.5912C12.5851 33.4923 12.6652 33.326 12.8652 33.0955L11.7324 32.1123L10.5996 31.1291C10.23 31.5549 9.82905 32.1399 9.64827 32.8717L11.1045 33.2314ZM11.7324 32.1123L12.8651 33.0957C12.9682 32.9769 13.0997 32.8463 13.2624 32.7038L12.2744 31.5752L11.2864 30.4466C11.0465 30.6566 10.8125 30.8838 10.5997 31.1289L11.7324 32.1123ZM12.2744 31.5752L13.4922 30.6994C13.6068 30.8588 13.669 31.0897 13.6048 31.331L12.1553 30.9453L10.7057 30.5597C10.5213 31.2529 10.6885 31.9391 11.0566 32.451L12.2744 31.5752ZM12.1553 30.9453L13.6045 31.3323C13.4976 31.7327 13.0869 31.9698 12.6877 31.8639L13.0723 30.4141L13.4568 28.9642C12.2578 28.6462 11.0265 29.3585 10.7061 30.5583L12.1553 30.9453ZM13.0723 30.4141L12.6866 31.8636C13.0027 31.9477 13.3831 31.978 13.7212 31.9911L13.7793 30.4922L13.8374 28.9933C13.7025 28.9881 13.5994 28.9803 13.5257 28.9722C13.4444 28.9632 13.4298 28.957 13.4579 28.9645L13.0723 30.4141ZM13.7793 30.4922L14.5664 31.7691C15.1712 31.3963 15.8763 31.0185 16.6511 30.6486L16.0049 29.2949L15.3586 27.9413C14.5104 28.3463 13.7076 28.7743 12.9922 29.2153L13.7793 30.4922ZM16.0049 29.2949L16.7232 30.6118L16.7339 30.6059L16.0156 29.2891L15.2973 27.9722L15.2866 27.9781L16.0049 29.2949ZM16.0156 29.2891L16.6389 30.6534C17.6339 30.1989 18.1957 29.993 18.7885 29.7749L18.2705 28.3672L17.7526 26.9594C17.1313 27.188 16.4882 27.4241 15.3923 27.9247L16.0156 29.2891ZM47.6895 30.4043L47.4313 28.9267C45.6316 29.241 43.2049 29.7146 40.6119 30.2157L40.8965 31.6885L41.1811 33.1612C43.791 32.6568 46.1818 32.1904 47.9476 31.8819L47.6895 30.4043ZM40.8965 31.6885L40.6119 30.2157C40.0881 30.317 39.5625 30.4164 39.0223 30.52L39.3047 31.9932L39.587 33.4663C40.117 33.3648 40.6557 33.2628 41.1811 33.1612L40.8965 31.6885ZM39.3047 31.9932L38.9578 33.4525C40.9245 33.92 42.9257 34.3943 44.8093 34.7374L45.0781 33.2617L45.3469 31.786C43.5556 31.4597 41.6332 31.0049 39.6516 30.5338L39.3047 31.9932ZM45.0781 33.2617L44.7527 34.726L44.7615 34.728L45.0869 33.2637L45.4123 31.7994L45.4035 31.7974L45.0781 33.2617ZM45.0869 33.2637L44.8017 34.7363C46.2253 35.0121 47.2786 35.3371 48.2448 35.767L48.8545 34.3965L49.4642 33.026C48.248 32.4849 46.9688 32.1003 45.3722 31.791L45.0869 33.2637ZM48.8545 34.3965L48.2202 35.7558L48.2348 35.7626L48.8691 34.4033L49.5035 33.044L49.4888 33.0372L48.8545 34.3965ZM48.8691 34.4033L48.158 35.724L48.1707 35.7309L48.8818 34.4102L49.593 33.0894L49.5803 33.0826L48.8691 34.4033ZM48.8818 34.4102L48.2174 35.755C48.4208 35.8555 48.6237 35.9652 48.8307 36.0827L49.5713 34.7783L50.3119 33.4739C50.0715 33.3374 49.8159 33.1986 49.5463 33.0654L48.8818 34.4102ZM49.5713 34.7783L51.023 34.4008C50.9042 33.944 50.7622 33.4783 50.6021 33.0215L49.1865 33.5176L47.7709 34.0136C47.9042 34.3939 48.022 34.7806 48.1196 35.1558L49.5713 34.7783ZM49.1865 33.5176L50.6021 33.0215C50.1867 31.8359 49.6306 30.6634 49.0145 29.9166L47.8574 30.8711L46.7003 31.8256C46.9821 32.1672 47.3975 32.948 47.7709 34.0136L49.1865 33.5176ZM47.8574 30.8711L49.0145 29.9165C49.1399 30.0685 49.1873 30.2415 49.1893 30.3827L47.6895 30.4043L46.1896 30.4259C46.1964 30.8965 46.3493 31.4001 46.7004 31.8257L47.8574 30.8711ZM30.9736 31.8154L31.159 30.3269C27.7957 29.9081 23.768 29.9246 17.9737 30.2227L18.0508 31.7207L18.1278 33.2187C23.8942 32.9221 27.7013 32.9195 30.7883 33.3039L30.9736 31.8154ZM18.0508 31.7207L17.8652 30.2322C17.8748 30.231 17.883 30.2301 17.8893 30.2294C17.8956 30.2288 17.9007 30.2283 17.9041 30.2279C17.9075 30.2276 17.91 30.2274 17.9108 30.2273C17.9112 30.2273 17.912 30.2272 17.9101 30.2274C17.9081 30.2276 17.8997 30.2283 17.8896 30.2293C17.8789 30.2303 17.8642 30.2319 17.8466 30.2341L18.0312 31.7227L18.2159 33.2113C18.202 33.213 18.1908 33.2141 18.1836 33.2148C18.177 33.2155 18.172 33.2159 18.1732 33.2158C18.1733 33.2158 18.1734 33.2158 18.1736 33.2158C18.1738 33.2158 18.1741 33.2157 18.1744 33.2157C18.1751 33.2157 18.1761 33.2156 18.1773 33.2155C18.1797 33.2152 18.1838 33.2149 18.1887 33.2144C18.1936 33.2139 18.2002 33.2133 18.208 33.2125C18.2158 33.2116 18.2254 33.2105 18.2363 33.2092L18.0508 31.7207ZM18.0312 31.7227L17.8483 30.2339C17.8177 30.2376 17.7774 30.2426 17.7261 30.2487L17.9023 31.7383L18.0786 33.2279C18.1379 33.2209 18.1854 33.215 18.2142 33.2115L18.0312 31.7227ZM17.9023 31.7383L17.7261 30.2487C17.6161 30.2617 17.4639 30.2797 17.2784 30.2996L17.4385 31.791L17.5985 33.2825C17.8014 33.2607 17.9673 33.2411 18.0786 33.2279L17.9023 31.7383ZM17.4385 31.791L17.2785 30.2996C16.9017 30.34 16.387 30.3904 15.8367 30.4308L15.9463 31.9268L16.0559 33.4227C16.6493 33.3793 17.1991 33.3253 17.5985 33.2825L17.4385 31.791ZM15.9463 31.9268L15.8367 30.4308C15.2892 30.4709 14.7111 30.4995 14.2008 30.5L14.2021 32L14.2035 33.5C14.8119 33.4994 15.4678 33.4658 16.0559 33.4227L15.9463 31.9268ZM14.2021 32L13.3759 30.7481C13.1793 30.8779 12.991 31.0092 12.8134 31.1414L13.709 32.3447L14.6046 33.548C14.732 33.4532 14.8735 33.3541 15.0284 33.2519L14.2021 32ZM13.709 32.3447L12.8125 31.1421C12.7859 31.1619 12.7628 31.18 12.7517 31.1887C12.7366 31.2006 12.7369 31.2003 12.7373 31.2L13.6445 32.3945L14.5517 33.5891C14.5637 33.58 14.5743 33.5718 14.5824 33.5655C14.5897 33.5598 14.5978 33.5534 14.6013 33.5507C14.6117 33.5426 14.6101 33.5439 14.6054 33.5474L13.709 32.3447ZM13.6445 32.3945L13.0348 33.765C13.8604 34.1323 14.4033 34.3155 15.0069 34.4196L15.2617 32.9414L15.5165 31.4632C15.2532 31.4178 14.9633 31.3395 14.2543 31.024L13.6445 32.3945ZM15.2617 32.9414L15.1254 34.4352C16.4308 34.5543 18.2616 34.6227 20.259 34.7057L20.3213 33.207L20.3836 31.7083C18.3394 31.6234 16.6088 31.5581 15.398 31.4476L15.2617 32.9414ZM20.3213 33.207L20.3735 34.7061C23.4436 34.5991 26.2939 34.1006 29.4024 33.6985L29.21 32.2109L29.0175 30.7233C25.7402 31.1473 23.1517 31.6075 20.269 31.7079L20.3213 33.207ZM29.21 32.2109L29.4024 33.6985C30.1107 33.6069 30.8806 33.4904 31.6867 33.3623L31.4512 31.8809L31.2157 30.3995C30.42 30.5259 29.6833 30.6372 29.0175 30.7233L29.21 32.2109ZM31.4512 31.8809L31.6619 30.3957C31.5071 30.3738 31.3321 30.3485 31.159 30.3269L30.9736 31.8154L30.7882 33.3039C30.9296 33.3215 31.0733 33.3423 31.2405 33.366L31.4512 31.8809Z" fill="white" mask="url(#path-1-outside-1_34_122)"/>
</svg>
