<svg width="64" height="64" viewBox="0 0 64 64" fill="none" xmlns="http://www.w3.org/2000/svg">
<g clip-path="url(#clip0_30_45)">
<path d="M51.3175 18.7157C51.4828 18.9536 51.2942 20.7965 48.6372 25.3969C47.7513 26.9308 46.2326 28.5493 44.7313 30.1821C41.7465 33.4283 38.7204 35.8544 36.2633 37.5597C35.082 38.3796 33.9093 38.9674 32.7779 39.2621C31.6465 39.5569 30.5601 39.5051 29.5679 38.7592C28.5757 38.0133 27.7106 36.5749 26.4563 33.426C25.2021 30.2771 23.585 25.4613 22.601 21.8858C21.0363 16.1999 21.0239 13.5638 21.112 13.2178C21.1294 13.1496 21.2982 13.3949 22.2309 17.7132C23.1637 22.0316 24.9082 30.4399 26.0338 35.4304C27.1594 40.4209 27.6132 41.7389 28.4492 42.7346C29.2852 43.7303 30.4897 44.3639 32.44 44.4945C34.3904 44.625 37.0501 44.2334 39.95 43.5213C42.8499 42.8091 45.9094 41.7884 48.7362 40.7173C51.5629 39.6462 54.0642 38.5556 56.1354 37.4622C62.6446 34.026 64.174 31.2357 64.6542 30.2776C64.8476 29.8918 64.5502 29.6518 63.8336 29.6648C63.117 29.6777 61.8909 29.9361 57.2243 31.3603C52.5577 32.7844 44.4878 35.3666 39.0976 36.8756C33.7074 38.3847 31.2415 38.7423 28.9565 38.7846C24.5801 38.8655 21.4866 37.3063 19.635 35.3032C17.8676 33.3913 18.0082 30.8571 18.5793 28.7941C19.1461 26.7467 21.8474 25.1602 24.6118 23.8103C27.4858 22.4068 30.7911 22.7974 33.5521 23.5949C36.283 24.3838 37.8783 26.4753 39.2418 28.2672C40.5181 29.9443 40.7986 31.564 40.8234 32.5964C40.8345 33.0584 40.6105 33.4157 40.3929 33.6917C40.1754 33.9676 39.9117 34.1567 39.5868 34.1226C38.7766 34.0377 38.0546 32.7561 37.2491 31.0207C35.5259 27.3082 36.5915 24.1923 37.2507 22.6743C37.4816 22.1424 37.8082 22.1741 38.0299 22.5087C38.2516 22.8434 38.4367 23.5003 38.4917 24.557C38.5467 25.6137 38.466 27.0502 37.4777 32.4405C36.4893 37.8308 34.5958 47.1314 33.6125 52.1383C32.6291 57.1452 32.6132 57.5765 32.6577 56.5194C32.7021 55.4622 32.8074 52.9034 32.7651 50.9469C32.6947 47.6892 31.9045 45.3986 30.8352 43.6692C30.333 42.857 29.3458 42.5102 28.2999 42.368C26.1139 42.0708 23.3183 43.0817 19.8415 44.5742C15.1311 46.5962 11.6407 48.7237 9.522 49.3068C8.46701 49.5972 7.37884 49.3414 6.27018 48.7329C3.74044 47.3445 2.12597 44.5058 0.790647 41.8936C-0.282734 39.7939 -0.440181 38.0333 -0.317181 36.7684C-0.261443 36.1952 0.0168839 35.7585 0.355919 35.6526C1.16926 35.3988 2.33236 36.9278 5.20273 41.2475C7.44392 44.6204 10.9106 50.5853 12.8097 53.3484C14.7088 56.1114 14.8413 55.5416 14.2415 52.8901C13.6418 50.2386 12.3056 45.5226 12.3826 44.7788C12.4596 44.035 13.9904 47.4064 15.9452 50.74C17.9 54.0735 20.2325 57.2671 21.7857 59.2171C23.898 61.8691 25.4723 62.7842 26.8405 63.0924C28.1117 63.3787 29.1729 60.0447 29.9886 55.7408C30.4453 53.3309 30.5918 50.4618 30.6234 47.575C30.6549 44.6882 30.4655 41.8706 30.1335 39.3204C29.8015 36.7702 29.3326 34.573 28.7738 32.6986C27.7548 29.281 25.9489 26.9991 23.7841 25.696C21.6711 24.4241 18.2439 25.2087 15.1583 25.9892C13.6299 26.3758 12.2571 27.0666 10.2481 28.2845C5.52361 31.1486 2.78358 33.276 2.58481 33.2467C1.98071 33.1575 4.15761 31.288 7.59729 28.3242C9.88523 26.3527 13.5872 23.696 16.1038 21.9717C19.7863 19.4486 22.2026 18.5822 24.0093 18.1725C25.677 17.7944 26.948 19.3218 27.9837 20.7635C29.0904 22.3043 29.5201 24.4878 29.8465 26.9332C30.1974 29.5619 28.9033 32.3134 27.5593 34.5443C26.4467 36.3911 24.5598 37.4246 22.9012 38.08C22.0714 38.408 21.1282 38.2835 20.1894 37.8647C19.2507 37.4458 18.3099 36.6232 17.1996 35.0389C16.0893 33.4546 14.8381 31.1336 14.0019 29.3815C13.1657 27.6294 12.7825 26.5164 12.7897 26.2985C12.8595 24.1764 15.2 29.3273 16.1935 29.8112C16.702 30.0589 17.4204 30.0181 18.2269 29.6461C19.0335 29.2741 19.9578 28.4972 20.9804 27.2372C22.003 25.9773 23.0958 24.2578 25.1984 20.2047C27.301 16.1516 30.3802 9.81701 32.1048 6.35869C33.8293 2.90036 34.106 2.51027 34.4041 2.40315C34.7022 2.29604 35.0134 2.48372 36.3515 4.9267C37.6896 7.36969 40.0451 12.0623 41.3306 14.5695C42.6161 17.0768 42.7601 17.2565 42.9194 17.2379C43.0786 17.2193 43.2486 16.997 43.4368 14.4891C43.6249 11.9812 43.8261 7.19452 44.0702 4.77855C44.3143 2.36259 44.5952 2.46241 46.0484 5.8962C47.5017 9.33 50.1186 16.0947 51.4876 19.9983C53.1241 24.6644 52.6554 26.3229 51.8132 27.7198C51.3759 28.4451 50.4394 29.0049 47.7968 29.9689C45.1542 30.9329 40.7115 32.2333 35.6446 33.3685C30.5777 34.5036 25.0213 35.434 21.8582 35.935C18.695 36.436 18.0935 36.4793 18.2094 36.3059C18.7813 35.4499 21.6145 35.0952 25.0265 34.7274C26.8812 34.5275 28.9737 34.6012 31.1749 34.7551C33.3762 34.909 35.6194 35.2177 37.8218 35.6714C40.0242 36.1252 42.1176 36.7148 44.0792 37.4351C47.9077 38.841 50.792 40.7237 52.8836 42.4635C56.1269 45.1613 56.3149 47.3346 56.5407 48.0501C56.636 48.3521 56.6491 48.5439 56.2749 48.4136C55.9006 48.2834 55.1277 47.8288 52.8569 44.6031C50.5861 41.3773 46.841 35.3942 44.6538 32.0404C42.4666 28.6866 41.9508 28.1434 41.5029 27.8118C41.0549 27.4801 40.6904 27.3763 40.3629 27.633C40.0353 27.8897 39.7558 28.5101 39.2986 32.7541C38.8415 36.998 38.2152 44.8468 37.8295 49.1247C37.4439 53.4026 37.3178 53.8719 37.1444 54.2165C36.971 54.5611 36.7542 54.7668 35.836 54.3806C33.1241 53.2399 30.1044 51.3464 27.049 50.1693C24.1993 49.0714 21.4391 48.7311 19.3358 48.5793C16.4422 48.3704 14.6952 49.2941 13.8654 49.416C13.2317 49.5091 13.704 47.6599 14.9007 44.9561C15.6201 43.3308 17.0448 41.3037 18.9315 38.8771C20.8183 36.4504 23.2461 33.7144 25.9549 31.0493C28.6637 28.3843 31.58 25.8732 34.2205 23.8273C36.8611 21.7815 39.1376 20.2769 41.1701 19.0747C44.8405 16.9038 47.9799 15.6955 50.336 15.0153C52.1828 14.482 53.5971 14.9814 54.6876 15.5624C55.2692 15.8723 55.8018 16.3318 56.0033 16.7796" stroke="white" stroke-width="1.5" stroke-linecap="round"/>
</g>
<defs>
<clipPath id="clip0_30_45">
<rect width="64" height="64" fill="white"/>
</clipPath>
</defs>
</svg>
