<svg width="64" height="64" viewBox="0 0 64 64" fill="none" xmlns="http://www.w3.org/2000/svg">
<mask id="path-1-outside-1_34_127" maskUnits="userSpaceOnUse" x="10.3691" y="19.5259" width="44" height="25" fill="black">
<rect fill="white" x="10.3691" y="19.5259" width="44" height="25"/>
<path d="M45.0117 22.2837C45.1453 21.892 45.5719 21.6827 45.9639 21.8159C46.8807 22.1276 47.9701 22.8335 48.9463 23.6235C49.9321 24.4214 50.8797 25.3684 51.499 26.2241L51.7246 26.5366L51.6025 26.9009C51.376 27.5791 50.8673 28.2206 50.333 28.8091C49.8112 29.3838 49.1105 30.0669 48.5117 30.6987C47.9787 31.2871 47.6622 31.6946 47.3311 32.3687C47.1484 32.7403 46.6989 32.894 46.3271 32.7114C45.9554 32.5289 45.8019 32.0793 45.9844 31.7075C46.3995 30.8624 46.8138 30.3383 47.3994 29.6919L47.4053 29.6851L47.4111 29.6792C48.101 28.9505 48.6891 28.3889 49.2227 27.8013C49.4418 27.5599 49.6238 27.3416 49.7705 27.144C49.2819 27.1496 48.8282 27.1575 48.373 27.1997C47.3305 27.3419 46.2681 27.6183 44.9199 28.1284L44.0957 28.4438C42.1473 29.1723 40.0325 29.8555 38.001 30.5317C36.2336 31.12 34.5289 31.703 33.0146 32.313C35.5384 32.9116 38.4672 33.535 41.2305 34.1147C45.1841 34.9442 48.8405 35.696 50.3662 36.1606C50.7622 36.2815 50.9848 36.7011 50.8643 37.0972C50.7434 37.4931 50.3248 37.7168 49.9287 37.5962C48.4865 37.157 44.9319 36.4246 40.9229 35.5835C37.4603 34.857 33.6879 34.0544 30.7793 33.3101C28.0277 34.6617 24.8875 36.6385 20.5684 39.6235C20.5639 39.6272 20.5586 39.6315 20.5527 39.6362C20.5294 39.655 20.4948 39.6817 20.4512 39.7163C20.3639 39.7856 20.2382 39.8846 20.084 40.0044C19.7757 40.2438 19.3503 40.5686 18.8857 40.9048C18.4227 41.2399 17.9127 41.5931 17.4355 41.8882C16.9758 42.1724 16.4856 42.4415 16.0801 42.564C15.6836 42.6835 15.2652 42.4584 15.1455 42.062C15.0263 41.6658 15.2504 41.2482 15.6465 41.1284C15.8487 41.0673 16.1948 40.8911 16.6465 40.6118C17.0805 40.3434 17.5586 40.0143 18.0068 39.6899C18.4539 39.3664 18.8656 39.0523 19.165 38.8198C19.3141 38.7041 19.4351 38.6088 19.5186 38.5425C19.5603 38.5093 19.5935 38.4827 19.6152 38.4653C19.6259 38.4568 19.6343 38.4501 19.6396 38.4458C19.6419 38.444 19.6434 38.442 19.6445 38.4409L19.6465 38.4399L19.6689 38.4214L19.6924 38.4058C23.2961 35.9146 26.1281 34.0891 28.625 32.7358C25.9371 32.0139 23.3921 31.39 20.8037 30.4048L20.7783 30.395L20.752 30.3833C18.9213 29.5231 17.2401 28.7419 16.0762 28.1216L16.0518 28.1089L16.0283 28.0942C15.5557 27.796 15.1552 27.4614 14.6191 26.9077C14.8033 27.3565 15.0288 27.8787 15.2764 28.4351C15.5344 29.0149 15.8081 29.6153 16.0674 30.1841C16.3261 30.7514 16.572 31.2902 16.7715 31.7388C16.9395 32.1172 16.769 32.5607 16.3906 32.729C16.0123 32.8971 15.5688 32.7263 15.4004 32.3481C15.2045 31.9076 14.962 31.3771 14.7021 30.8071C14.443 30.2388 14.1674 29.6323 13.9062 29.0454C13.395 27.8965 12.9081 26.749 12.7363 26.1099L12.6416 25.7593L12.8584 25.4673C13.1139 25.1241 13.4814 24.8704 13.8711 24.6782C14.2671 24.4829 14.7352 24.3274 15.2441 24.2017C16.2622 23.9503 17.5268 23.8015 18.9014 23.7358L18.9131 23.7349C20.062 23.6995 20.7035 23.7291 21.3496 23.7583C21.7631 23.7772 22.0839 24.127 22.0654 24.5405C22.0466 24.9541 21.6958 25.2748 21.2822 25.2563C20.6524 25.2279 20.0542 25.2002 18.96 25.2339C17.6419 25.2974 16.4884 25.4392 15.6035 25.6577C15.5768 25.6643 15.5505 25.6725 15.5244 25.6792C16.0996 26.291 16.4321 26.5733 16.8027 26.8101C17.9182 27.4032 19.5346 28.154 21.3652 29.0142C24.1495 30.0713 26.8426 30.6818 29.9463 31.5376C30.1661 31.5982 30.3946 31.6565 30.6289 31.7183C30.7496 31.6613 30.8696 31.6051 30.9893 31.5503C32.8957 30.6773 35.1974 29.8838 37.5283 29.1079C39.8746 28.3269 42.2528 27.561 44.373 26.731L44.3809 26.728C45.8194 26.1833 46.9982 25.8729 48.1816 25.7124L48.1973 25.7104L48.2119 25.7095C48.4748 25.6846 48.7359 25.6701 48.9932 25.6606C48.6823 25.3634 48.3469 25.0687 48.002 24.7896C47.075 24.0393 46.1493 23.463 45.4814 23.2358C45.0893 23.1026 44.8784 22.6759 45.0117 22.2837Z"/>
</mask>
<path d="M45.0117 22.2837C45.1453 21.892 45.5719 21.6827 45.9639 21.8159C46.8807 22.1276 47.9701 22.8335 48.9463 23.6235C49.9321 24.4214 50.8797 25.3684 51.499 26.2241L51.7246 26.5366L51.6025 26.9009C51.376 27.5791 50.8673 28.2206 50.333 28.8091C49.8112 29.3838 49.1105 30.0669 48.5117 30.6987C47.9787 31.2871 47.6622 31.6946 47.3311 32.3687C47.1484 32.7403 46.6989 32.894 46.3271 32.7114C45.9554 32.5289 45.8019 32.0793 45.9844 31.7075C46.3995 30.8624 46.8138 30.3383 47.3994 29.6919L47.4053 29.6851L47.4111 29.6792C48.101 28.9505 48.6891 28.3889 49.2227 27.8013C49.4418 27.5599 49.6238 27.3416 49.7705 27.144C49.2819 27.1496 48.8282 27.1575 48.373 27.1997C47.3305 27.3419 46.2681 27.6183 44.9199 28.1284L44.0957 28.4438C42.1473 29.1723 40.0325 29.8555 38.001 30.5317C36.2336 31.12 34.5289 31.703 33.0146 32.313C35.5384 32.9116 38.4672 33.535 41.2305 34.1147C45.1841 34.9442 48.8405 35.696 50.3662 36.1606C50.7622 36.2815 50.9848 36.7011 50.8643 37.0972C50.7434 37.4931 50.3248 37.7168 49.9287 37.5962C48.4865 37.157 44.9319 36.4246 40.9229 35.5835C37.4603 34.857 33.6879 34.0544 30.7793 33.3101C28.0277 34.6617 24.8875 36.6385 20.5684 39.6235C20.5639 39.6272 20.5586 39.6315 20.5527 39.6362C20.5294 39.655 20.4948 39.6817 20.4512 39.7163C20.3639 39.7856 20.2382 39.8846 20.084 40.0044C19.7757 40.2438 19.3503 40.5686 18.8857 40.9048C18.4227 41.2399 17.9127 41.5931 17.4355 41.8882C16.9758 42.1724 16.4856 42.4415 16.0801 42.564C15.6836 42.6835 15.2652 42.4584 15.1455 42.062C15.0263 41.6658 15.2504 41.2482 15.6465 41.1284C15.8487 41.0673 16.1948 40.8911 16.6465 40.6118C17.0805 40.3434 17.5586 40.0143 18.0068 39.6899C18.4539 39.3664 18.8656 39.0523 19.165 38.8198C19.3141 38.7041 19.4351 38.6088 19.5186 38.5425C19.5603 38.5093 19.5935 38.4827 19.6152 38.4653C19.6259 38.4568 19.6343 38.4501 19.6396 38.4458C19.6419 38.444 19.6434 38.442 19.6445 38.4409L19.6465 38.4399L19.6689 38.4214L19.6924 38.4058C23.2961 35.9146 26.1281 34.0891 28.625 32.7358C25.9371 32.0139 23.3921 31.39 20.8037 30.4048L20.7783 30.395L20.752 30.3833C18.9213 29.5231 17.2401 28.7419 16.0762 28.1216L16.0518 28.1089L16.0283 28.0942C15.5557 27.796 15.1552 27.4614 14.6191 26.9077C14.8033 27.3565 15.0288 27.8787 15.2764 28.4351C15.5344 29.0149 15.8081 29.6153 16.0674 30.1841C16.3261 30.7514 16.572 31.2902 16.7715 31.7388C16.9395 32.1172 16.769 32.5607 16.3906 32.729C16.0123 32.8971 15.5688 32.7263 15.4004 32.3481C15.2045 31.9076 14.962 31.3771 14.7021 30.8071C14.443 30.2388 14.1674 29.6323 13.9062 29.0454C13.395 27.8965 12.9081 26.749 12.7363 26.1099L12.6416 25.7593L12.8584 25.4673C13.1139 25.1241 13.4814 24.8704 13.8711 24.6782C14.2671 24.4829 14.7352 24.3274 15.2441 24.2017C16.2622 23.9503 17.5268 23.8015 18.9014 23.7358L18.9131 23.7349C20.062 23.6995 20.7035 23.7291 21.3496 23.7583C21.7631 23.7772 22.0839 24.127 22.0654 24.5405C22.0466 24.9541 21.6958 25.2748 21.2822 25.2563C20.6524 25.2279 20.0542 25.2002 18.96 25.2339C17.6419 25.2974 16.4884 25.4392 15.6035 25.6577C15.5768 25.6643 15.5505 25.6725 15.5244 25.6792C16.0996 26.291 16.4321 26.5733 16.8027 26.8101C17.9182 27.4032 19.5346 28.154 21.3652 29.0142C24.1495 30.0713 26.8426 30.6818 29.9463 31.5376C30.1661 31.5982 30.3946 31.6565 30.6289 31.7183C30.7496 31.6613 30.8696 31.6051 30.9893 31.5503C32.8957 30.6773 35.1974 29.8838 37.5283 29.1079C39.8746 28.3269 42.2528 27.561 44.373 26.731L44.3809 26.728C45.8194 26.1833 46.9982 25.8729 48.1816 25.7124L48.1973 25.7104L48.2119 25.7095C48.4748 25.6846 48.7359 25.6701 48.9932 25.6606C48.6823 25.3634 48.3469 25.0687 48.002 24.7896C47.075 24.0393 46.1493 23.463 45.4814 23.2358C45.0893 23.1026 44.8784 22.6759 45.0117 22.2837Z" fill="black"/>
<path d="M45.0117 22.2837L43.592 21.7997L43.5915 21.8011L45.0117 22.2837ZM45.9639 21.8159L46.4467 20.3957L46.4465 20.3957L45.9639 21.8159ZM48.9463 23.6235L49.89 22.4576L49.89 22.4576L48.9463 23.6235ZM51.499 26.2241L52.7152 25.3462L52.7142 25.3447L51.499 26.2241ZM51.7246 26.5366L53.1469 27.0132L53.3916 26.2831L52.9408 25.6587L51.7246 26.5366ZM51.6025 26.9009L50.1803 26.4242L50.1798 26.4257L51.6025 26.9009ZM50.333 28.8091L51.4436 29.8174L51.4436 29.8174L50.333 28.8091ZM48.5117 30.6987L47.423 29.6669L47.4114 29.6791L47.4001 29.6916L48.5117 30.6987ZM47.3311 32.3687L48.6772 33.0303L48.6774 33.03L47.3311 32.3687ZM46.3271 32.7114L45.6659 34.0578L45.666 34.0578L46.3271 32.7114ZM45.9844 31.7075L44.638 31.0462L44.6378 31.0467L45.9844 31.7075ZM47.3994 29.6919L48.511 30.699L48.5249 30.6837L48.5383 30.6681L47.3994 29.6919ZM47.4053 29.6851L46.3446 28.6244L46.3039 28.6651L46.2664 28.7089L47.4053 29.6851ZM47.4111 29.6792L48.4718 30.7399L48.4863 30.7253L48.5005 30.7104L47.4111 29.6792ZM49.2227 27.8013L50.3332 28.8096L50.3332 28.8095L49.2227 27.8013ZM49.7705 27.144L50.9748 28.0383L52.7781 25.6097L49.7534 25.6441L49.7705 27.144ZM48.373 27.1997L48.2346 25.7061L48.2024 25.7091L48.1703 25.7135L48.373 27.1997ZM44.9199 28.1284L44.3891 26.7255L44.3838 26.7275L44.9199 28.1284ZM44.0957 28.4438L44.621 29.8489L44.6318 29.8448L44.0957 28.4438ZM38.001 30.5317L37.5272 29.1085L37.5272 29.1085L38.001 30.5317ZM33.0146 32.313L32.4541 30.9216L28.0796 32.684L32.6684 33.7725L33.0146 32.313ZM41.2305 34.1147L40.9225 35.5828L40.9225 35.5828L41.2305 34.1147ZM50.3662 36.1606L50.8039 34.7259L50.8032 34.7257L50.3662 36.1606ZM50.8643 37.0972L52.2989 37.535L52.2993 37.5339L50.8643 37.0972ZM49.9287 37.5962L50.3657 36.1613L50.3657 36.1612L49.9287 37.5962ZM40.9229 35.5835L40.6149 37.0515L40.6149 37.0515L40.9229 35.5835ZM30.7793 33.3101L31.1512 31.8569L30.6148 31.7196L30.1179 31.9637L30.7793 33.3101ZM20.5684 39.6235L19.7155 38.3896L19.6706 38.4206L19.6281 38.4548L20.5684 39.6235ZM20.5527 39.6362L21.4908 40.8067L21.4908 40.8067L20.5527 39.6362ZM20.4512 39.7163L21.3839 40.891L21.3839 40.891L20.4512 39.7163ZM20.084 40.0044L21.0039 41.1892L21.0039 41.1892L20.084 40.0044ZM18.8857 40.9048L19.7652 42.12L19.7652 42.1199L18.8857 40.9048ZM17.4355 41.8882L18.2243 43.164L18.2244 43.164L17.4355 41.8882ZM16.0801 42.564L16.5132 44.0001L16.5138 43.9999L16.0801 42.564ZM15.1455 42.062L13.7091 42.4943L13.7096 42.4957L15.1455 42.062ZM15.6465 41.1284L15.2128 39.6925L15.2122 39.6927L15.6465 41.1284ZM16.6465 40.6118L17.4353 41.8877L17.4353 41.8876L16.6465 40.6118ZM18.0068 39.6899L18.8863 40.9051L18.8863 40.9051L18.0068 39.6899ZM19.165 38.8198L20.085 40.0046L20.085 40.0046L19.165 38.8198ZM19.5186 38.5425L20.4513 39.7172L20.4513 39.7172L19.5186 38.5425ZM19.6152 38.4653L18.6777 37.2944L18.6772 37.2948L19.6152 38.4653ZM19.6396 38.4458L20.5801 39.6143L20.5899 39.6065L20.5996 39.5984L19.6396 38.4458ZM19.6445 38.4409L18.9737 37.0993L18.7706 37.2008L18.6067 37.3579L19.6445 38.4409ZM19.6465 38.4399L20.3173 39.7816L20.4701 39.7052L20.6018 39.5964L19.6465 38.4399ZM19.6689 38.4214L18.8369 37.1733L18.7729 37.216L18.7136 37.2649L19.6689 38.4214ZM19.6924 38.4058L20.5244 39.6538L20.5349 39.6468L20.5453 39.6397L19.6924 38.4058ZM28.625 32.7358L29.3397 34.0546L32.646 32.2627L29.0141 31.2872L28.625 32.7358ZM20.8037 30.4048L20.2652 31.8048L20.2701 31.8067L20.8037 30.4048ZM20.7783 30.395L20.1691 31.7657L20.2041 31.7813L20.2399 31.795L20.7783 30.395ZM20.752 30.3833L20.114 31.7409L20.1283 31.7476L20.1427 31.754L20.752 30.3833ZM16.0762 28.1216L16.7817 26.7979L16.775 26.7943L16.7682 26.7908L16.0762 28.1216ZM16.0518 28.1089L15.2568 29.3809L15.3071 29.4123L15.3597 29.4397L16.0518 28.1089ZM16.0283 28.0942L15.2279 29.3628L15.2333 29.3662L16.0283 28.0942ZM14.6191 26.9077L15.6968 25.8644L13.2315 27.4772L14.6191 26.9077ZM15.2764 28.4351L13.9059 29.0448L13.9059 29.0448L15.2764 28.4351ZM16.0674 30.1841L14.7025 30.8064L14.7025 30.8064L16.0674 30.1841ZM16.7715 31.7388L18.1424 31.1299L18.142 31.1292L16.7715 31.7388ZM16.3906 32.729L16.9996 34.0998L17.0002 34.0996L16.3906 32.729ZM15.4004 32.3481L14.0298 32.9577L14.0301 32.9583L15.4004 32.3481ZM14.7021 30.8071L13.3373 31.4294L13.3373 31.4294L14.7021 30.8071ZM13.9062 29.0454L12.5358 29.6552L12.5358 29.6552L13.9062 29.0454ZM12.7363 26.1099L14.1849 25.7205L14.1844 25.7186L12.7363 26.1099ZM12.6416 25.7593L11.4373 24.8651L11.0039 25.4488L11.1935 26.1505L12.6416 25.7593ZM12.8584 25.4673L11.6551 24.5717L11.6541 24.5731L12.8584 25.4673ZM13.8711 24.6782L13.2078 23.3329L13.2075 23.333L13.8711 24.6782ZM15.2441 24.2017L14.8845 22.7454L14.8845 22.7454L15.2441 24.2017ZM18.9014 23.7358L18.9729 25.2341L18.9995 25.2329L19.0259 25.2307L18.9014 23.7358ZM18.9131 23.7349L18.8669 22.2356L18.8276 22.2368L18.7885 22.24L18.9131 23.7349ZM21.3496 23.7583L21.4181 22.2599L21.4173 22.2598L21.3496 23.7583ZM22.0654 24.5405L23.5639 24.6087L23.5639 24.6074L22.0654 24.5405ZM21.2822 25.2563L21.2145 26.7548L21.2153 26.7549L21.2822 25.2563ZM18.96 25.2339L18.9138 23.7346L18.9008 23.735L18.8878 23.7356L18.96 25.2339ZM15.6035 25.6577L15.2439 24.2015L15.2439 24.2015L15.6035 25.6577ZM15.5244 25.6792L15.1507 24.2265L12.6942 24.8584L14.4315 26.7066L15.5244 25.6792ZM16.8027 26.8101L15.9953 28.0742L16.0457 28.1064L16.0985 28.1345L16.8027 26.8101ZM21.3652 29.0142L20.7273 30.3718L20.7792 30.3961L20.8328 30.4165L21.3652 29.0142ZM29.9463 31.5376L30.345 30.0916L30.345 30.0916L29.9463 31.5376ZM30.6289 31.7183L30.2467 33.1688L30.7751 33.308L31.2692 33.0747L30.6289 31.7183ZM30.9893 31.5503L30.3647 30.1865L30.3647 30.1865L30.9893 31.5503ZM37.5283 29.1079L37.0546 27.6847L37.0546 27.6847L37.5283 29.1079ZM44.373 26.731L43.8464 25.3265L43.8363 25.3303L43.8262 25.3342L44.373 26.731ZM44.3809 26.728L44.9075 28.1325L44.9121 28.1308L44.3809 26.728ZM48.1816 25.7124L47.9956 24.224L47.9878 24.225L47.9801 24.226L48.1816 25.7124ZM48.1973 25.7104L48.0975 24.2138L48.0542 24.2167L48.0112 24.222L48.1973 25.7104ZM48.2119 25.7095L48.3117 27.2062L48.3325 27.2048L48.3533 27.2028L48.2119 25.7095ZM48.9932 25.6606L49.0485 27.1596L52.5939 27.0287L50.0299 24.5766L48.9932 25.6606ZM48.002 24.7896L48.9456 23.6236L48.9456 23.6236L48.002 24.7896ZM45.4814 23.2358L45.9644 21.8157L45.9641 21.8156L45.4814 23.2358ZM45.0117 22.2837L46.4315 22.7677C46.2971 23.162 45.8707 23.3685 45.4812 23.2362L45.9639 21.8159L46.4465 20.3957C45.2731 19.997 43.9934 20.622 43.592 21.7997L45.0117 22.2837ZM45.9639 21.8159L45.481 23.2361C46.1493 23.4633 47.0759 24.0395 48.0026 24.7895L48.9463 23.6235L49.89 22.4576C48.8642 21.6274 47.6122 20.792 46.4467 20.3957L45.9639 21.8159ZM48.9463 23.6235L48.0026 24.7895C48.92 25.532 49.7642 26.3855 50.2838 27.1035L51.499 26.2241L52.7142 25.3447C51.9953 24.3513 50.9442 23.3109 49.89 22.4576L48.9463 23.6235ZM51.499 26.2241L50.2828 27.1021L50.5084 27.4146L51.7246 26.5366L52.9408 25.6587L52.7152 25.3462L51.499 26.2241ZM51.7246 26.5366L50.3023 26.06L50.1803 26.4243L51.6025 26.9009L53.0248 27.3775L53.1469 27.0132L51.7246 26.5366ZM51.6025 26.9009L50.1798 26.4257C50.0608 26.7819 49.746 27.2241 49.2224 27.8008L50.333 28.8091L51.4436 29.8174C51.9885 29.2172 52.6912 28.3763 53.0253 27.3761L51.6025 26.9009ZM50.333 28.8091L49.2224 27.8008C48.6971 28.3794 48.1013 28.9511 47.423 29.6669L48.5117 30.6987L49.6005 31.7305C50.1197 31.1827 50.9254 30.3881 51.4436 29.8174L50.333 28.8091ZM48.5117 30.6987L47.4001 29.6916C46.815 30.3374 46.4001 30.8617 45.9847 31.7073L47.3311 32.3687L48.6774 33.03C48.9243 32.5274 49.1424 32.2367 49.6233 31.7059L48.5117 30.6987ZM47.3311 32.3687L45.9849 31.707C46.167 31.3363 46.6156 31.182 46.9883 31.365L46.3271 32.7114L45.666 34.0578C46.7821 34.6059 48.1297 34.1442 48.6772 33.0303L47.3311 32.3687ZM46.3271 32.7114L46.9884 31.3651C47.3601 31.5476 47.5134 31.9966 47.331 32.3683L45.9844 31.7075L44.6378 31.0467C44.0905 32.162 44.5508 33.5101 45.6659 34.0578L46.3271 32.7114ZM45.9844 31.7075L47.3307 32.3689C47.6618 31.6949 47.9779 31.2875 48.511 30.699L47.3994 29.6919L46.2878 28.6848C45.6497 29.3891 45.1372 30.0299 44.638 31.0462L45.9844 31.7075ZM47.3994 29.6919L48.5383 30.6681L48.5442 30.6612L47.4053 29.6851L46.2664 28.7089L46.2605 28.7157L47.3994 29.6919ZM47.4053 29.6851L48.4659 30.7457L48.4718 30.7399L47.4111 29.6792L46.3505 28.6185L46.3446 28.6244L47.4053 29.6851ZM47.4111 29.6792L48.5005 30.7104C49.0988 30.0783 49.8095 29.3864 50.3332 28.8096L49.2227 27.8013L48.1121 26.793C47.5687 27.3915 47.1031 27.8226 46.3218 28.648L47.4111 29.6792ZM49.2227 27.8013L50.3332 28.8095C50.5753 28.5429 50.791 28.2858 50.9748 28.0383L49.7705 27.144L48.5662 26.2498C48.4566 26.3974 48.3082 26.577 48.1121 26.793L49.2227 27.8013ZM49.7705 27.144L49.7534 25.6441C49.2671 25.6497 48.7576 25.6576 48.2346 25.7061L48.373 27.1997L48.5115 28.6933C48.8989 28.6574 49.2968 28.6495 49.7876 28.6439L49.7705 27.144ZM48.373 27.1997L48.1703 25.7135C46.9927 25.8741 45.819 26.1845 44.3891 26.7255L44.9199 28.1284L45.4507 29.5314C46.7172 29.0522 47.6684 28.8097 48.5758 28.6859L48.373 27.1997ZM44.9199 28.1284L44.3838 26.7275L43.5596 27.0429L44.0957 28.4438L44.6318 29.8448L45.4561 29.5293L44.9199 28.1284ZM44.0957 28.4438L43.5704 27.0388C41.6552 27.7549 39.5784 28.4257 37.5272 29.1085L38.001 30.5317L38.4747 31.955C40.4867 31.2852 42.6394 30.5898 44.621 29.8489L44.0957 28.4438ZM38.001 30.5317L37.5272 29.1085C35.7592 29.697 34.0155 30.2926 32.4541 30.9216L33.0146 32.313L33.5752 33.7043C35.0423 33.1133 36.708 32.543 38.4747 31.955L38.001 30.5317ZM33.0146 32.313L32.6684 33.7725C35.2135 34.3762 38.1597 35.0031 40.9225 35.5828L41.2305 34.1147L41.5385 32.6467C38.7747 32.0669 35.8634 31.4471 33.3608 30.8535L33.0146 32.313ZM41.2305 34.1147L40.9225 35.5828C44.9313 36.4238 48.4869 37.1564 49.9293 37.5956L50.3662 36.1606L50.8032 34.7257C49.194 34.2357 45.4368 33.4646 41.5385 32.6467L41.2305 34.1147ZM50.3662 36.1606L49.9285 37.5954C49.5294 37.4736 49.3097 37.0534 49.4293 36.6604L50.8643 37.0972L52.2993 37.5339C52.66 36.3488 51.995 35.0893 50.8039 34.7259L50.3662 36.1606ZM50.8643 37.0972L49.4296 36.6593C49.5498 36.2654 49.9676 36.04 50.3657 36.1613L49.9287 37.5962L49.4917 39.0311C50.6821 39.3937 51.937 38.7209 52.2989 37.535L50.8643 37.0972ZM49.9287 37.5962L50.3657 36.1612C48.84 35.6966 45.1841 34.9449 41.2308 34.1155L40.9229 35.5835L40.6149 37.0515C44.6796 37.9043 48.133 38.6174 49.4917 39.0311L49.9287 37.5962ZM40.9229 35.5835L41.2308 34.1155C37.7624 33.3878 34.0225 32.5917 31.1512 31.8569L30.7793 33.3101L30.4074 34.7632C33.3533 35.5171 37.1581 36.3263 40.6149 37.0515L40.9229 35.5835ZM30.7793 33.3101L30.1179 31.9637C27.2624 33.3664 24.0475 35.3957 19.7155 38.3896L20.5684 39.6235L21.4212 40.8575C25.7276 37.8813 28.793 35.957 31.4407 34.6564L30.7793 33.3101ZM20.5684 39.6235L19.6281 38.4548C19.6234 38.4586 19.6194 38.4618 19.617 38.4638C19.6148 38.4656 19.6122 38.4677 19.6118 38.468C19.6096 38.4698 19.6116 38.4682 19.6147 38.4657L20.5527 39.6362L21.4908 40.8067C21.4998 40.7995 21.5073 40.7934 21.5103 40.7909C21.5107 40.7906 21.5111 40.7902 21.5114 40.79C21.5118 40.7897 21.512 40.7895 21.5122 40.7894C21.5127 40.789 21.5128 40.7889 21.5127 40.789C21.5127 40.789 21.5111 40.7903 21.5087 40.7922L20.5684 39.6235ZM20.5527 39.6362L19.6147 38.4657C19.5828 38.4913 19.5961 38.4799 19.5184 38.5416L20.4512 39.7163L21.3839 40.891C21.4019 40.8768 21.4183 40.8639 21.4353 40.8505C21.45 40.839 21.4716 40.8221 21.4908 40.8067L20.5527 39.6362ZM20.4512 39.7163L19.5184 38.5416C19.4352 38.6077 19.3138 38.7034 19.164 38.8196L20.084 40.0044L21.0039 41.1892C21.1627 41.0659 21.2926 40.9635 21.3839 40.891L20.4512 39.7163ZM20.084 40.0044L19.1641 38.8196C18.8637 39.0528 18.4527 39.3666 18.0063 39.6896L18.8857 40.9048L19.7652 42.1199C20.248 41.7705 20.6876 41.4348 21.0039 41.1892L20.084 40.0044ZM18.8857 40.9048L18.0063 39.6896C17.5576 40.0143 17.0804 40.3442 16.6467 40.6124L17.4355 41.8882L18.2244 43.164C18.7451 42.8421 19.2878 42.4654 19.7652 42.12L18.8857 40.9048ZM17.4355 41.8882L16.6468 40.6123C16.1967 40.8906 15.8494 41.0667 15.6464 41.128L16.0801 42.564L16.5138 43.9999C17.1217 43.8163 17.7549 43.4543 18.2243 43.164L17.4355 41.8882ZM16.0801 42.564L15.6469 41.1279C16.0456 41.0076 16.4624 41.2341 16.5814 41.6283L15.1455 42.062L13.7096 42.4957C14.0681 43.6828 15.3216 44.3595 16.5132 44.0001L16.0801 42.564ZM15.1455 42.062L16.5819 41.6297C16.7013 42.0265 16.4764 42.4445 16.0808 42.5642L15.6465 41.1284L15.2122 39.6927C14.0244 40.0519 13.3513 41.3052 13.7091 42.4943L15.1455 42.062ZM15.6465 41.1284L16.0802 42.5644C16.4875 42.4413 16.9792 42.1696 17.4353 41.8877L16.6465 40.6118L15.8577 39.336C15.6553 39.4611 15.4909 39.5542 15.3664 39.6182C15.2284 39.6893 15.1852 39.7008 15.2128 39.6925L15.6465 41.1284ZM16.6465 40.6118L17.4353 41.8876C17.9116 41.5932 18.4218 41.2413 18.8863 40.9051L18.0068 39.6899L17.1274 38.4748C16.6955 38.7874 16.2495 39.0937 15.8576 39.336L16.6465 40.6118ZM18.0068 39.6899L18.8863 40.9051C19.3513 40.5685 19.7772 40.2436 20.085 40.0046L19.165 38.8198L18.2451 37.635C17.954 37.8611 17.5565 38.1642 17.1274 38.4748L18.0068 39.6899ZM19.165 38.8198L20.085 40.0046C20.2385 39.8854 20.3637 39.7867 20.4513 39.7172L19.5186 38.5425L18.5858 37.3678C18.5064 37.4308 18.3897 37.5228 18.2451 37.6351L19.165 38.8198ZM19.5186 38.5425L20.4513 39.7172C20.4957 39.682 20.5308 39.6538 20.5533 39.6358L19.6152 38.4653L18.6772 37.2948C18.6562 37.3117 18.625 37.3366 18.5858 37.3678L19.5186 38.5425ZM19.6152 38.4653L20.5528 39.6362C20.5573 39.6326 20.5614 39.6294 20.5658 39.6259C20.5694 39.623 20.575 39.6185 20.5801 39.6143L19.6396 38.4458L18.6992 37.2773C18.6993 37.2771 18.699 37.2774 18.6978 37.2784C18.6966 37.2793 18.6952 37.2805 18.6931 37.2821C18.6893 37.2852 18.6838 37.2896 18.6777 37.2945L19.6152 38.4653ZM19.6396 38.4458L20.5996 39.5984C20.6681 39.5413 20.7165 39.4906 20.7362 39.4696C20.7411 39.4644 20.7449 39.4602 20.7461 39.459C20.7489 39.456 20.7454 39.4597 20.7436 39.4617C20.7409 39.4646 20.7339 39.4721 20.7248 39.4816C20.7158 39.491 20.7011 39.506 20.6823 39.524L19.6445 38.4409L18.6067 37.3579C18.5877 37.3761 18.5727 37.3914 18.5634 37.4012C18.554 37.4109 18.5467 37.4188 18.5436 37.4221C18.5414 37.4244 18.5376 37.4286 18.54 37.426C18.5408 37.4251 18.5442 37.4214 18.5487 37.4166C18.5668 37.3973 18.6134 37.3484 18.6797 37.2932L19.6396 38.4458ZM19.6445 38.4409L20.3154 39.7826L20.3173 39.7816L19.6465 38.4399L18.9757 37.0983L18.9737 37.0993L19.6445 38.4409ZM19.6465 38.4399L20.6018 39.5964L20.6243 39.5778L19.6689 38.4214L18.7136 37.2649L18.6912 37.2835L19.6465 38.4399ZM19.6689 38.4214L20.501 39.6695L20.5244 39.6538L19.6924 38.4058L18.8603 37.1577L18.8369 37.1733L19.6689 38.4214ZM19.6924 38.4058L20.5453 39.6397C24.1359 37.1576 26.915 35.3687 29.3397 34.0546L28.625 32.7358L27.9103 31.4171C25.3411 32.8095 22.4563 34.6716 18.8394 37.1719L19.6924 38.4058ZM28.625 32.7358L29.0141 31.2872C26.2829 30.5536 23.8352 29.9537 21.3373 29.0029L20.8037 30.4048L20.2701 31.8067C22.9489 32.8263 25.5913 33.4742 28.2359 34.1845L28.625 32.7358ZM20.8037 30.4048L21.3422 29.0048L21.3168 28.995L20.7783 30.395L20.2399 31.795L20.2652 31.8048L20.8037 30.4048ZM20.7783 30.395L21.3875 29.0243L21.3612 29.0126L20.752 30.3833L20.1427 31.754L20.1691 31.7657L20.7783 30.395ZM20.752 30.3833L21.3899 29.0257C19.5377 28.1553 17.9029 27.3955 16.7817 26.7979L16.0762 28.1216L15.3706 29.4453C16.5772 30.0884 18.305 30.8908 20.114 31.7409L20.752 30.3833ZM16.0762 28.1216L16.7682 26.7908L16.7438 26.7781L16.0518 28.1089L15.3597 29.4397L15.3841 29.4524L16.0762 28.1216ZM16.0518 28.1089L16.8468 26.8369L16.8233 26.8222L16.0283 28.0942L15.2333 29.3662L15.2568 29.3809L16.0518 28.1089ZM16.0283 28.0942L16.8288 26.8257C16.4837 26.6079 16.1748 26.3581 15.6968 25.8644L14.6191 26.9077L13.5414 27.9511C14.1355 28.5647 14.6277 28.9841 15.2279 29.3628L16.0283 28.0942ZM14.6191 26.9077L13.2315 27.4772C13.423 27.944 13.6548 28.4804 13.9059 29.0448L15.2764 28.4351L16.6468 27.8253C16.4029 27.277 16.1836 26.7691 16.0068 26.3382L14.6191 26.9077ZM15.2764 28.4351L13.9059 29.0448C14.1671 29.632 14.4437 30.2386 14.7025 30.8064L16.0674 30.1841L17.4322 29.5618C17.1724 28.992 16.9016 28.3978 16.6468 27.8253L15.2764 28.4351ZM16.0674 30.1841L14.7025 30.8064C14.9624 31.3763 15.2049 31.9077 15.4009 32.3484L16.7715 31.7388L18.142 31.1292C17.939 30.6728 17.6897 30.1265 17.4322 29.5618L16.0674 30.1841ZM16.7715 31.7388L15.4006 32.3476C15.2326 31.9692 15.4027 31.5267 15.781 31.3585L16.3906 32.729L17.0002 34.0996C18.1352 33.5947 18.6465 32.2651 18.1424 31.1299L16.7715 31.7388ZM16.3906 32.729L15.7816 31.3582C16.1609 31.1897 16.6027 31.3608 16.7707 31.738L15.4004 32.3481L14.0301 32.9583C14.5348 34.0918 15.8637 34.6045 16.9996 34.0998L16.3906 32.729ZM15.4004 32.3481L16.7709 31.7385C16.5714 31.29 16.3253 30.7515 16.067 30.1849L14.7021 30.8071L13.3373 31.4294C13.5987 32.0028 13.8375 32.5252 14.0298 32.9577L15.4004 32.3481ZM14.7021 30.8071L16.067 30.1849C15.8081 29.6171 15.5349 29.0158 15.2767 28.4356L13.9062 29.0454L12.5358 29.6552C12.7999 30.2487 13.078 30.8606 13.3373 31.4294L14.7021 30.8071ZM13.9062 29.0454L15.2767 28.4356C14.7502 27.2522 14.3198 26.2223 14.1849 25.7205L12.7363 26.1099L11.2877 26.4992C11.4965 27.2757 12.0399 28.5407 12.5358 29.6552L13.9062 29.0454ZM12.7363 26.1099L14.1844 25.7186L14.0897 25.368L12.6416 25.7593L11.1935 26.1505L11.2883 26.5011L12.7363 26.1099ZM12.6416 25.7593L13.8459 26.6535L14.0627 26.3615L12.8584 25.4673L11.6541 24.5731L11.4373 24.8651L12.6416 25.7593ZM12.8584 25.4673L14.0617 26.3629C14.1226 26.281 14.2614 26.1583 14.5347 26.0235L13.8711 24.6782L13.2075 23.333C12.7015 23.5826 12.1051 23.9671 11.6551 24.5717L12.8584 25.4673ZM13.8711 24.6782L14.5344 26.0236C14.8017 25.8918 15.1586 25.7679 15.6038 25.6579L15.2441 24.2017L14.8845 22.7454C14.3118 22.8869 13.7325 23.0741 13.2078 23.3329L13.8711 24.6782ZM15.2441 24.2017L15.6037 25.6579C16.4913 25.4387 17.6496 25.2973 18.9729 25.2341L18.9014 23.7358L18.8298 22.2375C17.404 22.3056 16.0331 22.4618 14.8845 22.7454L15.2441 24.2017ZM18.9014 23.7358L19.0259 25.2307L19.0377 25.2297L18.9131 23.7349L18.7885 22.24L18.7768 22.241L18.9014 23.7358ZM18.9131 23.7349L18.9593 25.2342C20.0527 25.2004 20.6509 25.2283 21.2819 25.2568L21.3496 23.7583L21.4173 22.2598C20.756 22.23 20.0712 22.1985 18.8669 22.2356L18.9131 23.7349ZM21.3496 23.7583L21.2811 25.2567C20.871 25.238 20.5483 24.8905 20.5669 24.4736L22.0654 24.5405L23.5639 24.6074C23.6195 23.3636 22.6552 22.3164 21.4181 22.2599L21.3496 23.7583ZM22.0654 24.5405L20.567 24.4723C20.5858 24.0593 20.9351 23.7394 21.3491 23.7578L21.2822 25.2563L21.2153 26.7549C22.4564 26.8103 23.5074 25.8488 23.5639 24.6087L22.0654 24.5405ZM21.2822 25.2563L21.3499 23.7579C20.7048 23.7287 20.0633 23.6992 18.9138 23.7346L18.96 25.2339L19.0062 26.7332C20.045 26.7012 20.6 26.7271 21.2145 26.7548L21.2822 25.2563ZM18.96 25.2339L18.8878 23.7356C17.5179 23.8016 16.2585 23.9509 15.2439 24.2015L15.6035 25.6577L15.9631 27.114C16.7182 26.9275 17.766 26.7931 19.0321 26.7321L18.96 25.2339ZM15.6035 25.6577L15.2439 24.2015C15.2045 24.2112 15.1703 24.2209 15.1574 24.2245C15.1482 24.2271 15.1464 24.2276 15.1439 24.2283C15.1424 24.2287 15.1453 24.2279 15.1507 24.2265L15.5244 25.6792L15.8981 27.1319C15.9166 27.1272 15.9325 27.1228 15.9442 27.1196C15.9548 27.1166 15.9661 27.1135 15.9701 27.1123C15.976 27.1107 15.9769 27.1104 15.9764 27.1106C15.9755 27.1108 15.9706 27.1121 15.9632 27.114L15.6035 25.6577ZM15.5244 25.6792L14.4315 26.7066C15.0491 27.3636 15.4782 27.7439 15.9953 28.0742L16.8027 26.8101L17.6102 25.5459C17.386 25.4027 17.15 25.2185 16.6174 24.6518L15.5244 25.6792ZM16.8027 26.8101L16.0985 28.1345C17.2559 28.7499 18.9184 29.5218 20.7273 30.3718L21.3652 29.0142L22.0031 27.6566C20.1507 26.7862 18.5804 26.0564 17.507 25.4857L16.8027 26.8101ZM21.3652 29.0142L20.8328 30.4165C23.7047 31.5069 26.5265 32.1506 29.5475 32.9836L29.9463 31.5376L30.345 30.0916C27.1587 29.2129 24.5942 28.6357 21.8977 27.6118L21.3652 29.0142ZM29.9463 31.5376L29.5475 32.9836C29.7782 33.0472 30.028 33.1111 30.2467 33.1688L30.6289 31.7183L31.0111 30.2678C30.7613 30.2019 30.554 30.1492 30.345 30.0916L29.9463 31.5376ZM30.6289 31.7183L31.2692 33.0747C31.3876 33.0189 31.5017 32.9654 31.6138 32.9141L30.9893 31.5503L30.3647 30.1865C30.2376 30.2447 30.1117 30.3037 29.9886 30.3618L30.6289 31.7183ZM30.9893 31.5503L31.6138 32.9141C33.4366 32.0794 35.6653 31.309 38.0021 30.5311L37.5283 29.1079L37.0546 27.6847C34.7295 28.4587 32.3549 29.2752 30.3647 30.1865L30.9893 31.5503ZM37.5283 29.1079L38.0021 30.5311C40.3242 29.7582 42.7532 28.976 44.9199 28.1277L44.373 26.731L43.8262 25.3342C41.7524 26.1461 39.425 26.8956 37.0546 27.6847L37.5283 29.1079ZM44.373 26.731L44.8997 28.1355L44.9075 28.1325L44.3809 26.728L43.8542 25.3235L43.8464 25.3265L44.373 26.731ZM44.3809 26.728L44.9121 28.1308C46.2677 27.6174 47.3348 27.3409 48.3832 27.1988L48.1816 25.7124L47.9801 24.226C46.6615 24.4048 45.371 24.7491 43.8496 25.3252L44.3809 26.728ZM48.1816 25.7124L48.3677 27.2008L48.3833 27.1989L48.1973 25.7104L48.0112 24.222L47.9956 24.224L48.1816 25.7124ZM48.1973 25.7104L48.297 27.2071L48.3117 27.2062L48.2119 25.7095L48.1121 24.2128L48.0975 24.2138L48.1973 25.7104ZM48.2119 25.7095L48.3533 27.2028C48.5784 27.1815 48.809 27.1685 49.0485 27.1596L48.9932 25.6606L48.9378 24.1617C48.6628 24.1718 48.3712 24.1877 48.0705 24.2162L48.2119 25.7095ZM48.9932 25.6606L50.0299 24.5766C49.688 24.2496 49.3214 23.9277 48.9456 23.6236L48.002 24.7896L47.0583 25.9555C47.3724 26.2097 47.6766 26.4771 47.9564 26.7447L48.9932 25.6606ZM48.002 24.7896L48.9456 23.6236C47.9702 22.8342 46.8816 22.1276 45.9644 21.8157L45.4814 23.2358L44.9985 24.656C45.4171 24.7983 46.1797 25.2444 47.0583 25.9555L48.002 24.7896ZM45.4814 23.2358L45.9641 21.8156C46.3545 21.9483 46.5658 22.3724 46.432 22.7663L45.0117 22.2837L43.5915 21.8011C43.1911 22.9794 43.824 24.2569 44.9988 24.6561L45.4814 23.2358Z" fill="white" mask="url(#path-1-outside-1_34_127)"/>
</svg>
