<svg width="64" height="64" viewBox="0 0 64 64" fill="none" xmlns="http://www.w3.org/2000/svg">
<g clip-path="url(#clip0_30_53)">
<path d="M44.8033 9.14357C45.5832 11.4086 47.2497 17.5261 46.8666 23.2978C46.4923 28.9359 41.9453 31.6333 39.2151 32.9584C37.9581 33.5685 36.1786 31.1904 33.5282 27.0283C31.6714 24.1125 29.1644 19.2955 27.4664 16.4512C25.2226 12.6927 23.7194 11.6558 22.5223 11.2673C21.94 11.0782 21.3509 11.4642 20.7714 12.1103C19.4301 13.6058 18.561 16.6621 17.6571 20.9853C16.4856 26.5891 16.6754 31.4713 17.1661 33.6784C17.3393 34.4576 18.0012 34.3304 18.7325 33.6839C19.4638 33.0373 20.4087 31.8204 22.8704 27.6654C25.3321 23.5104 29.282 16.4543 31.9236 12.0902C35.5562 6.08917 37.9786 3.94371 39.7297 2.71411C40.4707 2.19381 41.1588 2.33833 41.8265 2.78087C43.3595 3.7969 44.585 6.4495 45.8169 9.44449C48.0847 14.958 46.3733 19.1007 45.3022 20.9442C44.779 21.8446 43.8362 22.2797 42.8219 22.5089C38.4547 23.4957 33.1435 18.841 30.7805 17.7747C30.5437 17.6678 30.5693 18.3885 31.6715 22.3002C32.7738 26.2119 34.999 33.5689 36.6939 38.1853C39.0615 44.6341 41.8235 46.9805 44.0796 48.2532C45.8445 49.2488 48.0971 48.4346 49.9773 48.0852C50.6051 47.9685 50.6421 48.5504 50.3819 49.1421C49.75 50.5789 47.9819 52.0225 45.6109 53.5639C42.8969 55.3283 39.2442 55.543 35.7506 54.8037C32.2864 54.0707 30.0789 49.3614 28.3219 44.975C26.6256 40.7401 27.306 36.6966 28.0415 33.7469C28.7015 31.0999 29.6827 29.265 30.405 28.1412C30.711 27.6651 31.0285 27.4973 31.3166 27.7433C31.6046 27.9893 31.8879 28.6843 31.9559 29.3911C32.0924 30.8087 31.0189 32.1971 29.5154 33.3654C28.7614 33.9513 27.7807 34.1181 26.8384 34.0455C24.9336 33.8988 23.0168 32.0691 21.1616 29.8388C17.6064 25.5649 17.3346 21.9129 17.23 20.3256C17.134 18.8687 18.5391 17.6903 20.2429 16.5287C22.2925 15.1315 25.41 14.5679 29.0654 14.1798C31.0134 13.973 33.2249 14.3611 35.5457 14.9391C37.8666 15.5171 40.2489 16.4304 42.6211 17.6706C44.9934 18.9109 47.2833 20.4504 49.4558 22.338C51.6284 24.2256 53.614 26.4147 55.2923 28.6789C56.9705 30.9431 58.2811 33.2161 59.5509 36.114C60.8207 39.0118 62.01 42.4658 61.5999 41.4025C61.1897 40.3392 59.1442 34.654 57.5868 30.7099C55.1977 24.6595 52.9435 21.6639 50.7405 20.0247C49.6527 19.2153 48.3272 19.0523 47.0488 19.1593C44.4173 19.3795 42.1557 21.8017 40.1313 25.19C39.0247 27.0421 38.2545 29.518 37.1445 33.8447C36.0345 38.1715 34.7352 44.3645 33.9607 47.8883C33.1862 51.412 32.9758 52.0788 32.5817 51.9759C31.3197 51.6462 30.4401 47.5875 29.3284 41.6641C28.6836 38.2282 28.3605 33.8584 28.1883 31.0756C27.9489 27.208 28.5094 25.4663 29.0681 24.4484C29.3039 24.0188 29.6766 23.9582 30.047 24.2517C32.8511 26.4737 33.0943 32.8153 33.1281 37.3448C33.1459 39.7431 32.3663 42.2473 31.4671 44.7468C30.5679 47.2463 29.3685 49.6406 28.0726 51.6523C26.7768 53.664 25.4209 55.2205 23.5095 56.5886C21.5981 57.9567 19.1722 59.0892 17.449 59.1918C15.7258 59.2943 14.7787 58.3326 13.973 56.6588C13.1674 54.9849 12.5318 52.6281 12.8693 48.3618C13.2068 44.0954 14.5366 37.9909 16.7811 32.9224C19.0256 27.8538 22.1444 24.0062 24.6328 21.6461C27.1213 19.2861 28.8849 18.5302 30.7654 18.1529C34.516 17.4003 38.4401 18.9715 42.096 21.6031C43.9816 22.9604 45.6202 24.8745 47.676 27.7937C49.7317 30.7129 52.0761 34.7102 53.6204 37.6194C57.4343 44.804 57.4821 48.7919 56.918 50.5727C56.8042 50.9318 56.3591 50.9437 55.7921 50.7179C55.2251 50.4922 54.4152 49.929 51.6833 46.6219C48.9514 43.3149 44.322 37.2811 41.3259 33.7393C38.3298 30.1975 37.1074 29.3306 35.7721 28.8793C34.4368 28.428 33.0256 28.4186 28.9008 29.5342C24.7759 30.6498 17.9801 32.8908 14.0643 33.9899C10.1484 35.0891 9.31842 34.9787 8.58989 34.431C7.86136 33.8833 7.25942 32.9019 7.00358 31.6594C6.45071 28.9743 8.25407 25.7931 11.0913 22.6435C12.5521 21.0218 14.4197 19.7706 17.1109 18.2878C19.8021 16.8051 23.3534 15.2355 25.7857 14.5166C28.2179 13.7977 29.4235 13.977 30.541 14.6166C31.6585 15.2562 32.6514 16.3507 34.5612 21.0395C36.471 25.7283 39.2676 33.9782 40.8062 38.6403C42.3448 43.3023 42.5406 44.1264 41.1729 45.2053C39.8052 46.2841 36.868 47.5926 34.6401 48.8101C32.4121 50.0275 30.9824 51.1141 29.1983 52.9758C27.4141 54.8374 25.3189 57.441 24.1717 58.9047C22.8565 60.5827 25.5019 55.9551 29.6785 48.3398C31.1455 45.6651 31.1136 45.2843 30.9372 44.894C30.7608 44.5037 30.3964 44.0843 29.7383 43.4606C29.0803 42.8369 28.1396 42.0216 27.1704 41.1816" stroke="white" stroke-width="1.5" stroke-linecap="round"/>
</g>
<defs>
<clipPath id="clip0_30_53">
<rect width="64" height="64" fill="white"/>
</clipPath>
</defs>
</svg>
