<svg width="64" height="64" viewBox="0 0 64 64" fill="none" xmlns="http://www.w3.org/2000/svg">
<mask id="path-1-outside-1_34_157" maskUnits="userSpaceOnUse" x="20.0715" y="9.82324" width="26" height="41" fill="black">
<rect fill="white" x="20.0715" y="9.82324" width="26" height="41"/>
<path d="M27.3567 12.2168C28.0383 12.433 28.6879 12.9326 29.2844 13.458C29.8669 13.971 30.5606 14.6618 31.2014 15.251C31.7976 15.7749 32.21 16.0844 32.8889 16.4053C33.2633 16.5823 33.4233 17.0298 33.2463 17.4043C33.0694 17.7787 32.6227 17.9385 32.2483 17.7617C31.397 17.3594 30.8663 16.9537 30.2112 16.3779L30.2043 16.3721L30.1985 16.3662C29.4593 15.6874 28.889 15.1077 28.2932 14.583C28.0486 14.3676 27.828 14.1886 27.6282 14.0449C27.6411 14.5335 27.6562 14.9877 27.7053 15.4424C27.8633 16.4826 28.1554 17.5405 28.6858 18.8809L29.0139 19.7002C29.7717 21.6373 30.4867 23.7407 31.1936 25.7617C31.4124 26.3873 31.6303 27.0054 31.8489 27.6094C32.9171 25.1692 33.894 22.8419 35.2063 20.5254L35.22 20.502L35.2356 20.4775C36.3626 18.7979 37.3889 17.254 38.178 16.1973L38.1946 16.1748L38.2122 16.1543C38.5783 15.7323 38.9698 15.3875 39.5979 14.9414C39.1264 15.0557 38.5759 15.1987 37.9885 15.3594C37.3763 15.5268 36.7414 15.7065 36.1399 15.877C35.54 16.0469 34.9708 16.2085 34.4973 16.3379C34.0979 16.447 33.6848 16.2118 33.5754 15.8125C33.4664 15.4131 33.7025 14.9999 34.1018 14.8906C34.5669 14.7635 35.128 14.6044 35.7307 14.4336C36.3318 14.2633 36.9733 14.0816 37.593 13.9121C38.8059 13.5804 40.0135 13.2725 40.6711 13.1992L41.0325 13.1592L41.2874 13.418C41.588 13.7223 41.7832 14.123 41.9143 14.5371C42.0475 14.9581 42.1306 15.4446 42.178 15.9668C42.2726 17.0111 42.229 18.2838 42.0862 19.6523L42.0852 19.665C41.9466 20.8059 41.8211 21.4351 41.6946 22.0693C41.6136 22.4754 41.2188 22.739 40.8127 22.6582C40.4067 22.5771 40.1421 22.1824 40.2229 21.7764C40.3462 21.1581 40.4639 20.5711 40.5959 19.4844C40.7324 18.172 40.7671 17.0102 40.6848 16.1025C40.6823 16.075 40.6777 16.0474 40.675 16.0205C39.9833 16.4966 39.6546 16.7836 39.3645 17.1143C38.6096 18.1273 37.6223 19.6113 36.4954 21.291C35.0297 23.8835 34.0194 26.4538 32.7043 29.3926C32.6707 29.4677 32.6378 29.5441 32.6038 29.6211C32.9523 30.5095 33.3056 31.3478 33.6702 32.1133C35.0679 35.0475 37.1847 38.3442 40.5471 43.0557C40.5508 43.0601 40.555 43.0655 40.5598 43.0713C40.5789 43.0944 40.6066 43.1288 40.6418 43.1719C40.7125 43.2581 40.8138 43.3819 40.9358 43.5342C41.1798 43.8388 41.5106 44.2594 41.8538 44.7188C42.1958 45.1767 42.5564 45.6816 42.8586 46.1543C43.1498 46.6097 43.4263 47.0954 43.5549 47.499C43.6805 47.8936 43.4622 48.3157 43.0676 48.4414C42.6732 48.5667 42.2519 48.3485 42.1262 47.9541C42.0621 47.7529 41.8809 47.4101 41.595 46.9629C41.32 46.5328 40.9829 46.0587 40.6516 45.6152C40.3215 45.1733 40.0018 44.7675 39.7649 44.4717C39.6468 44.3242 39.5493 44.2046 39.4817 44.1221C39.4479 44.0808 39.4213 44.0478 39.4036 44.0264C39.3949 44.0158 39.3884 44.0072 39.384 44.002C39.3819 43.9995 39.3792 43.9983 39.3782 43.9971V43.9961L39.3596 43.9736L39.343 43.9502C35.9628 39.2149 33.7765 35.8226 32.3167 32.7578C32.1337 32.3737 31.9559 31.9723 31.7786 31.5586C30.7239 34.1174 29.5468 37.2336 28.4514 40.1572C27.0341 43.9398 25.7389 47.4397 25.0491 48.8779C24.87 49.2513 24.4225 49.4084 24.0491 49.2295C23.6756 49.0503 23.5165 48.6029 23.6956 48.2295C24.3476 46.8704 25.6098 43.467 27.0471 39.6309C28.3434 36.1712 29.7733 32.3904 30.9827 29.5859C30.5726 28.5116 30.1722 27.3878 29.7766 26.2568C28.9602 23.9226 28.1592 21.5558 27.2971 19.4482L27.2942 19.4404C26.7277 18.0102 26.3983 16.8363 26.22 15.6553L26.218 15.6396L26.217 15.626C26.1882 15.3636 26.1699 15.1027 26.1565 14.8457C25.8639 15.161 25.574 15.5005 25.3 15.8496C24.5639 16.7879 24.0023 17.7224 23.7854 18.3936C23.6581 18.7877 23.2342 19.0043 22.8401 18.877C22.4464 18.7493 22.2304 18.3265 22.3577 17.9326C22.6554 17.0111 23.345 15.911 24.1204 14.9229C24.9033 13.9251 25.8356 12.9632 26.6819 12.3311L26.9905 12.1016L27.3567 12.2168Z"/>
</mask>
<path d="M27.3567 12.2168C28.0383 12.433 28.6879 12.9326 29.2844 13.458C29.8669 13.971 30.5606 14.6618 31.2014 15.251C31.7976 15.7749 32.21 16.0844 32.8889 16.4053C33.2633 16.5823 33.4233 17.0298 33.2463 17.4043C33.0694 17.7787 32.6227 17.9385 32.2483 17.7617C31.397 17.3594 30.8663 16.9537 30.2112 16.3779L30.2043 16.3721L30.1985 16.3662C29.4593 15.6874 28.889 15.1077 28.2932 14.583C28.0486 14.3676 27.828 14.1886 27.6282 14.0449C27.6411 14.5335 27.6562 14.9877 27.7053 15.4424C27.8633 16.4826 28.1554 17.5405 28.6858 18.8809L29.0139 19.7002C29.7717 21.6373 30.4867 23.7407 31.1936 25.7617C31.4124 26.3873 31.6303 27.0054 31.8489 27.6094C32.9171 25.1692 33.894 22.8419 35.2063 20.5254L35.22 20.502L35.2356 20.4775C36.3626 18.7979 37.3889 17.254 38.178 16.1973L38.1946 16.1748L38.2122 16.1543C38.5783 15.7323 38.9698 15.3875 39.5979 14.9414C39.1264 15.0557 38.5759 15.1987 37.9885 15.3594C37.3763 15.5268 36.7414 15.7065 36.1399 15.877C35.54 16.0469 34.9708 16.2085 34.4973 16.3379C34.0979 16.447 33.6848 16.2118 33.5754 15.8125C33.4664 15.4131 33.7025 14.9999 34.1018 14.8906C34.5669 14.7635 35.128 14.6044 35.7307 14.4336C36.3318 14.2633 36.9733 14.0816 37.593 13.9121C38.8059 13.5804 40.0135 13.2725 40.6711 13.1992L41.0325 13.1592L41.2874 13.418C41.588 13.7223 41.7832 14.123 41.9143 14.5371C42.0475 14.9581 42.1306 15.4446 42.178 15.9668C42.2726 17.0111 42.229 18.2838 42.0862 19.6523L42.0852 19.665C41.9466 20.8059 41.8211 21.4351 41.6946 22.0693C41.6136 22.4754 41.2188 22.739 40.8127 22.6582C40.4067 22.5771 40.1421 22.1824 40.2229 21.7764C40.3462 21.1581 40.4639 20.5711 40.5959 19.4844C40.7324 18.172 40.7671 17.0102 40.6848 16.1025C40.6823 16.075 40.6777 16.0474 40.675 16.0205C39.9833 16.4966 39.6546 16.7836 39.3645 17.1143C38.6096 18.1273 37.6223 19.6113 36.4954 21.291C35.0297 23.8835 34.0194 26.4538 32.7043 29.3926C32.6707 29.4677 32.6378 29.5441 32.6038 29.6211C32.9523 30.5095 33.3056 31.3478 33.6702 32.1133C35.0679 35.0475 37.1847 38.3442 40.5471 43.0557C40.5508 43.0601 40.555 43.0655 40.5598 43.0713C40.5789 43.0944 40.6066 43.1288 40.6418 43.1719C40.7125 43.2581 40.8138 43.3819 40.9358 43.5342C41.1798 43.8388 41.5106 44.2594 41.8538 44.7188C42.1958 45.1767 42.5564 45.6816 42.8586 46.1543C43.1498 46.6097 43.4263 47.0954 43.5549 47.499C43.6805 47.8936 43.4622 48.3157 43.0676 48.4414C42.6732 48.5667 42.2519 48.3485 42.1262 47.9541C42.0621 47.7529 41.8809 47.4101 41.595 46.9629C41.32 46.5328 40.9829 46.0587 40.6516 45.6152C40.3215 45.1733 40.0018 44.7675 39.7649 44.4717C39.6468 44.3242 39.5493 44.2046 39.4817 44.1221C39.4479 44.0808 39.4213 44.0478 39.4036 44.0264C39.3949 44.0158 39.3884 44.0072 39.384 44.002C39.3819 43.9995 39.3792 43.9983 39.3782 43.9971V43.9961L39.3596 43.9736L39.343 43.9502C35.9628 39.2149 33.7765 35.8226 32.3167 32.7578C32.1337 32.3737 31.9559 31.9723 31.7786 31.5586C30.7239 34.1174 29.5468 37.2336 28.4514 40.1572C27.0341 43.9398 25.7389 47.4397 25.0491 48.8779C24.87 49.2513 24.4225 49.4084 24.0491 49.2295C23.6756 49.0503 23.5165 48.6029 23.6956 48.2295C24.3476 46.8704 25.6098 43.467 27.0471 39.6309C28.3434 36.1712 29.7733 32.3904 30.9827 29.5859C30.5726 28.5116 30.1722 27.3878 29.7766 26.2568C28.9602 23.9226 28.1592 21.5558 27.2971 19.4482L27.2942 19.4404C26.7277 18.0102 26.3983 16.8363 26.22 15.6553L26.218 15.6396L26.217 15.626C26.1882 15.3636 26.1699 15.1027 26.1565 14.8457C25.8639 15.161 25.574 15.5005 25.3 15.8496C24.5639 16.7879 24.0023 17.7224 23.7854 18.3936C23.6581 18.7877 23.2342 19.0043 22.8401 18.877C22.4464 18.7493 22.2304 18.3265 22.3577 17.9326C22.6554 17.0111 23.345 15.911 24.1204 14.9229C24.9033 13.9251 25.8356 12.9632 26.6819 12.3311L26.9905 12.1016L27.3567 12.2168Z" fill="black"/>
<path d="M27.3567 12.2168L27.8102 10.787L27.8069 10.786L27.3567 12.2168ZM29.2844 13.458L30.2758 12.3323L30.2758 12.3323L29.2844 13.458ZM31.2014 15.251L30.1862 16.3552L30.1986 16.3666L30.2112 16.3777L31.2014 15.251ZM32.8889 16.4053L33.53 15.0492L33.5299 15.0491L32.8889 16.4053ZM33.2463 17.4043L34.6025 18.0452L34.6026 18.0451L33.2463 17.4043ZM32.2483 17.7617L31.6074 19.1179L31.6079 19.1181L32.2483 17.7617ZM30.2112 16.3779L31.2014 15.2512L31.1944 15.2451L31.1874 15.239L30.2112 16.3779ZM30.2043 16.3721L29.1437 17.4327L29.1844 17.4735L29.2282 17.511L30.2043 16.3721ZM30.1985 16.3662L31.2591 15.3056L31.2366 15.283L31.2131 15.2614L30.1985 16.3662ZM28.2932 14.583L29.2846 13.4573L29.2846 13.4573L28.2932 14.583ZM27.6282 14.0449L28.5041 12.8272L26.0486 11.0609L26.1287 14.0847L27.6282 14.0449ZM27.7053 15.4424L26.214 15.6034L26.2175 15.6356L26.2223 15.6676L27.7053 15.4424ZM28.6858 18.8809L27.291 19.4328L27.2933 19.4385L28.6858 18.8809ZM29.0139 19.7002L30.4109 19.1537L30.4064 19.1425L29.0139 19.7002ZM31.1936 25.7617L29.7777 26.2569L29.7777 26.2569L31.1936 25.7617ZM31.8489 27.6094L30.4384 28.1197L31.7166 31.6522L33.223 28.2109L31.8489 27.6094ZM35.2063 20.5254L33.9106 19.7696L33.9058 19.7778L33.9012 19.7861L35.2063 20.5254ZM35.22 20.502L33.9566 19.6934L33.9399 19.7194L33.9243 19.7461L35.22 20.502ZM35.2356 20.4775L33.99 19.6418L33.9809 19.6553L33.9722 19.669L35.2356 20.4775ZM38.178 16.1973L39.3799 17.0948L39.3842 17.0889L38.178 16.1973ZM38.1946 16.1748L37.0557 15.1986L37.0205 15.2397L36.9883 15.2832L38.1946 16.1748ZM38.2122 16.1543L37.0791 15.1713L37.0733 15.1781L38.2122 16.1543ZM39.5979 14.9414L40.4664 16.1644L39.2446 13.4836L39.5979 14.9414ZM37.9885 15.3594L37.5928 13.9125L37.5928 13.9125L37.9885 15.3594ZM36.1399 15.877L35.731 14.4338L35.731 14.4338L36.1399 15.877ZM34.4973 16.3379L34.8927 17.7848L34.8928 17.7848L34.4973 16.3379ZM33.5754 15.8125L32.1284 16.2076L32.1287 16.2087L33.5754 15.8125ZM34.1018 14.8906L33.7063 13.4437L33.7057 13.4439L34.1018 14.8906ZM35.7307 14.4336L35.3218 12.9904L35.3218 12.9904L35.7307 14.4336ZM37.593 13.9121L37.1973 12.4652L37.1973 12.4652L37.593 13.9121ZM40.6711 13.1992L40.5059 11.7083L40.5051 11.7084L40.6711 13.1992ZM41.0325 13.1592L42.1012 12.1066L41.5905 11.5882L40.8673 11.6683L41.0325 13.1592ZM41.2874 13.418L40.2187 14.4705L40.2202 14.4721L41.2874 13.418ZM41.9143 14.5371L43.3444 14.0845L43.3443 14.0843L41.9143 14.5371ZM42.178 15.9668L43.6719 15.8314L43.6718 15.8313L42.178 15.9668ZM42.0862 19.6523L40.5943 19.4967L40.5922 19.517L40.5906 19.5373L42.0862 19.6523ZM42.0852 19.665L43.5743 19.8459L43.5782 19.8131L43.5808 19.7801L42.0852 19.665ZM41.6946 22.0693L43.1656 22.3628L43.1656 22.3627L41.6946 22.0693ZM40.8127 22.6582L40.519 24.1292L40.5202 24.1294L40.8127 22.6582ZM40.2229 21.7764L38.7519 21.483L38.7518 21.4835L40.2229 21.7764ZM40.5959 19.4844L42.085 19.6653L42.0866 19.6524L42.0879 19.6394L40.5959 19.4844ZM40.6848 16.1025L42.1787 15.9671L42.1787 15.9671L40.6848 16.1025ZM40.675 16.0205L42.1676 15.8709L41.9146 13.3465L39.8246 14.7849L40.675 16.0205ZM39.3645 17.1143L38.2369 16.1251L38.1975 16.17L38.1617 16.218L39.3645 17.1143ZM36.4954 21.291L35.2497 20.4553L35.2178 20.5029L35.1896 20.5528L36.4954 21.291ZM32.7043 29.3926L31.3352 28.7799L31.3352 28.7799L32.7043 29.3926ZM32.6038 29.6211L31.2319 29.0144L30.9789 29.5866L31.2074 30.1689L32.6038 29.6211ZM33.6702 32.1133L32.3159 32.7583L32.316 32.7583L33.6702 32.1133ZM40.5471 43.0557L39.3262 43.927L39.3576 43.9711L39.3921 44.0127L40.5471 43.0557ZM40.5598 43.0713L41.716 42.1157L41.7157 42.1153L40.5598 43.0713ZM40.6418 43.1719L41.8023 42.2215L41.8023 42.2215L40.6418 43.1719ZM40.9358 43.5342L42.1065 42.5965L42.1065 42.5964L40.9358 43.5342ZM41.8538 44.7188L43.0555 43.8211L43.0555 43.821L41.8538 44.7188ZM42.8586 46.1543L44.1224 45.3463L44.1224 45.3463L42.8586 46.1543ZM43.5549 47.499L44.9843 47.0441L44.9841 47.0437L43.5549 47.499ZM43.0676 48.4414L43.5217 49.871L43.523 49.8706L43.0676 48.4414ZM42.1262 47.9541L40.697 48.4095L40.697 48.4096L42.1262 47.9541ZM41.595 46.9629L42.8588 46.1549L42.8587 46.1549L41.595 46.9629ZM40.6516 45.6152L41.8533 44.7175L41.8533 44.7175L40.6516 45.6152ZM39.7649 44.4717L40.9356 43.5339L40.9356 43.5339L39.7649 44.4717ZM39.4817 44.1221L40.6422 43.1717L40.6422 43.1717L39.4817 44.1221ZM39.4036 44.0264L38.247 44.9815L38.2474 44.982L39.4036 44.0264ZM39.384 44.002L40.5382 43.0439L40.5309 43.0351L40.5235 43.0264L39.384 44.002ZM39.3782 43.9971H37.8782V44.5393L38.2249 44.9563L39.3782 43.9971ZM39.3782 43.9961H40.8782V43.4567L40.5346 43.0408L39.3782 43.9961ZM39.3596 43.9736L38.1356 44.8407L38.1677 44.8861L38.2032 44.929L39.3596 43.9736ZM39.343 43.9502L40.5671 43.0832L40.5639 43.0787L39.343 43.9502ZM32.3167 32.7578L30.9624 33.4028L30.9624 33.4029L32.3167 32.7578ZM31.7786 31.5586L33.1572 30.9676L31.7514 27.6881L30.3917 30.987L31.7786 31.5586ZM28.4514 40.1572L27.0468 39.6309L27.0468 39.6309L28.4514 40.1572ZM25.0491 48.8779L26.4015 49.5268L26.4015 49.5267L25.0491 48.8779ZM24.0491 49.2295L23.4002 50.5819L23.4009 50.5822L24.0491 49.2295ZM23.6956 48.2295L22.3431 47.5807L22.3431 47.5809L23.6956 48.2295ZM27.0471 39.6309L25.6425 39.1046L25.6425 39.1046L27.0471 39.6309ZM30.9827 29.5859L32.3601 30.1799L32.6014 29.6203L32.384 29.051L30.9827 29.5859ZM29.7766 26.2568L28.3607 26.752L28.3607 26.752L29.7766 26.2568ZM27.2971 19.4482L25.8926 19.9749L25.9004 19.9956L25.9088 20.0161L27.2971 19.4482ZM27.2942 19.4404L28.6987 18.9137L28.6939 18.9009L28.6888 18.8881L27.2942 19.4404ZM26.22 15.6553L24.7316 15.8413L24.7339 15.8603L24.7368 15.8792L26.22 15.6553ZM26.218 15.6396L24.7218 15.7465L24.7247 15.7862L24.7296 15.8257L26.218 15.6396ZM26.217 15.626L27.7132 15.5191L27.7112 15.4905L27.7081 15.462L26.217 15.626ZM26.1565 14.8457L27.6545 14.7677L27.47 11.2248L25.0569 13.8254L26.1565 14.8457ZM25.3 15.8496L24.1199 14.9237L24.1199 14.9237L25.3 15.8496ZM23.7854 18.3936L22.3581 17.9322L22.358 17.9325L23.7854 18.3936ZM22.8401 18.877L22.3775 20.3039L22.379 20.3043L22.8401 18.877ZM22.3577 17.9326L20.9303 17.4714L20.9303 17.4715L22.3577 17.9326ZM24.1204 14.9229L22.9403 13.9969L22.9403 13.9969L24.1204 14.9229ZM26.6819 12.3311L25.7868 11.1274L25.7842 11.1293L26.6819 12.3311ZM26.9905 12.1016L27.4407 10.6707L26.71 10.4408L26.0954 10.8979L26.9905 12.1016ZM27.3567 12.2168L26.9032 13.6466C27.2609 13.7601 27.708 14.0684 28.293 14.5837L29.2844 13.458L30.2758 12.3323C29.6678 11.7968 28.8158 11.1059 27.8102 10.787L27.3567 12.2168ZM29.2844 13.458L28.293 14.5837C28.88 15.1006 29.4593 15.6869 30.1862 16.3552L31.2014 15.251L32.2166 14.1467C31.6619 13.6367 30.8539 12.8415 30.2758 12.3323L29.2844 13.458ZM31.2014 15.251L30.2112 16.3777C30.8667 16.9538 31.3972 17.3593 32.248 17.7614L32.8889 16.4053L33.5299 15.0491C33.0228 14.8095 32.7284 14.596 32.1916 14.1243L31.2014 15.251ZM32.8889 16.4053L32.2479 17.7614C31.8723 17.5838 31.7137 17.1368 31.8901 16.7635L33.2463 17.4043L34.6026 18.0451C35.1328 16.9229 34.6544 15.5807 33.53 15.0492L32.8889 16.4053ZM33.2463 17.4043L31.8902 16.7633C32.0675 16.3882 32.515 16.2289 32.8887 16.4053L32.2483 17.7617L31.6079 19.1181C32.7305 19.6482 34.0713 19.1692 34.6025 18.0452L33.2463 17.4043ZM32.2483 17.7617L32.8892 16.4055C32.2097 16.0844 31.797 15.7747 31.2014 15.2512L30.2112 16.3779L29.221 17.5046C29.9357 18.1328 30.5844 18.6344 31.6074 19.1179L32.2483 17.7617ZM30.2112 16.3779L31.1874 15.239L31.1805 15.2332L30.2043 16.3721L29.2282 17.511L29.235 17.5168L30.2112 16.3779ZM30.2043 16.3721L31.265 15.3114L31.2591 15.3056L30.1985 16.3662L29.1378 17.4269L29.1437 17.4327L30.2043 16.3721ZM30.1985 16.3662L31.2131 15.2614C30.5722 14.6728 29.8692 13.9722 29.2846 13.4573L28.2932 14.583L27.3018 15.7087C27.9087 16.2431 28.3464 16.702 29.1839 17.471L30.1985 16.3662ZM28.2932 14.583L29.2846 13.4573C29.0156 13.2204 28.7555 13.008 28.5041 12.8272L27.6282 14.0449L26.7523 15.2626C26.9004 15.3692 27.0816 15.5147 27.3019 15.7087L28.2932 14.583ZM27.6282 14.0449L26.1287 14.0847C26.1416 14.572 26.1576 15.0814 26.214 15.6034L27.7053 15.4424L29.1967 15.2814C29.1548 14.894 29.1406 14.4951 29.1276 14.0052L27.6282 14.0449ZM27.7053 15.4424L26.2223 15.6676C26.4007 16.8424 26.7284 18.011 27.291 19.4328L28.6858 18.8809L30.0805 18.3289C29.5824 17.0701 29.3258 16.1228 29.1883 15.2172L27.7053 15.4424ZM28.6858 18.8809L27.2933 19.4385L27.6214 20.2579L29.0139 19.7002L30.4064 19.1425L30.0783 18.3232L28.6858 18.8809ZM29.0139 19.7002L27.617 20.2467C28.3619 22.1507 29.0641 24.2166 29.7777 26.2569L31.1936 25.7617L32.6095 25.2665C31.9094 23.2648 31.1815 21.1238 30.4108 19.1537L29.0139 19.7002ZM31.1936 25.7617L29.7777 26.2569C29.9972 26.8845 30.2171 27.5083 30.4384 28.1197L31.8489 27.6094L33.2594 27.099C33.0435 26.5024 32.8276 25.8902 32.6095 25.2665L31.1936 25.7617ZM31.8489 27.6094L33.223 28.2109C34.3048 25.7396 35.2464 23.4978 36.5114 21.2647L35.2063 20.5254L33.9012 19.7861C32.5416 22.186 31.5293 24.5988 30.4748 27.0079L31.8489 27.6094ZM35.2063 20.5254L36.502 21.2812L36.5156 21.2578L35.22 20.502L33.9243 19.7461L33.9106 19.7696L35.2063 20.5254ZM35.22 20.502L36.4834 21.3105L36.499 21.2861L35.2356 20.4775L33.9722 19.669L33.9566 19.6934L35.22 20.502ZM35.2356 20.4775L36.4812 21.3133C37.6214 19.6139 38.6197 18.1127 39.3799 17.0948L38.178 16.1973L36.9761 15.2998C36.158 16.3953 35.1037 17.9819 33.99 19.6418L35.2356 20.4775ZM38.178 16.1973L39.3842 17.0889L39.4008 17.0664L38.1946 16.1748L36.9883 15.2832L36.9717 15.3057L38.178 16.1973ZM38.1946 16.1748L39.3335 17.151L39.351 17.1305L38.2122 16.1543L37.0733 15.1781L37.0557 15.1986L38.1946 16.1748ZM38.2122 16.1543L39.3452 17.1373C39.612 16.8298 39.9054 16.5628 40.4664 16.1644L39.5979 14.9414L38.7294 13.7184C38.0341 14.2122 37.5446 14.6347 37.0791 15.1713L38.2122 16.1543ZM39.5979 14.9414L39.2446 13.4836C38.7556 13.6021 38.1906 13.749 37.5928 13.9125L37.9885 15.3594L38.3842 16.8062C38.9612 16.6485 39.4971 16.5092 39.9512 16.3992L39.5979 14.9414ZM37.9885 15.3594L37.5928 13.9125C36.973 14.082 36.3316 14.2636 35.731 14.4338L36.1399 15.877L36.5488 17.3201C37.1511 17.1495 37.7797 16.9716 38.3842 16.8062L37.9885 15.3594ZM36.1399 15.877L35.731 14.4338C35.1283 14.6045 34.567 14.7638 34.1018 14.891L34.4973 16.3379L34.8928 17.7848C35.3746 17.6531 35.9518 17.4893 36.5488 17.3201L36.1399 15.877ZM34.4973 16.3379L34.102 14.8909C34.5 14.7822 34.9124 15.0156 35.0222 15.4163L33.5754 15.8125L32.1287 16.2087C32.4572 17.4081 33.6958 18.1119 34.8927 17.7848L34.4973 16.3379ZM33.5754 15.8125L35.0225 15.4174C35.1318 15.8179 34.8961 16.2284 34.4979 16.3374L34.1018 14.8906L33.7057 13.4439C32.5089 13.7715 31.8009 15.0083 32.1284 16.2076L33.5754 15.8125ZM34.1018 14.8906L34.4973 16.3375C34.9706 16.2082 35.5395 16.0468 36.1396 15.8768L35.7307 14.4336L35.3218 12.9904C34.7165 13.1619 34.1631 13.3188 33.7063 13.4437L34.1018 14.8906ZM35.7307 14.4336L36.1396 15.8768C36.7417 15.7062 37.3767 15.5263 37.9887 15.359L37.593 13.9121L37.1973 12.4652C36.5699 12.6368 35.9218 12.8204 35.3218 12.9904L35.7307 14.4336ZM37.593 13.9121L37.9887 15.359C39.2381 15.0173 40.3209 14.7475 40.8371 14.69L40.6711 13.1992L40.5051 11.7084C39.7061 11.7974 38.3736 12.1436 37.1973 12.4652L37.593 13.9121ZM40.6711 13.1992L40.8363 14.6901L41.1977 14.6501L41.0325 13.1592L40.8673 11.6683L40.5059 11.7083L40.6711 13.1992ZM41.0325 13.1592L39.9638 14.2117L40.2187 14.4705L41.2874 13.418L42.356 12.3654L42.1012 12.1066L41.0325 13.1592ZM41.2874 13.418L40.2202 14.4721C40.2926 14.5454 40.3927 14.7008 40.4843 14.9899L41.9143 14.5371L43.3443 14.0843C43.1736 13.5452 42.8833 12.8992 42.3545 12.3638L41.2874 13.418ZM41.9143 14.5371L40.4842 14.9897C40.5741 15.2736 40.6427 15.6453 40.6841 16.1023L42.178 15.9668L43.6718 15.8313C43.6186 15.2439 43.521 14.6426 43.3444 14.0845L41.9143 14.5371ZM42.178 15.9668L40.6841 16.1022C40.7666 17.0129 40.7317 18.1795 40.5943 19.4967L42.0862 19.6523L43.5781 19.808C43.7262 18.3881 43.7786 17.0093 43.6719 15.8314L42.178 15.9668ZM42.0862 19.6523L40.5906 19.5373L40.5896 19.55L42.0852 19.665L43.5808 19.7801L43.5818 19.7674L42.0862 19.6523ZM42.0852 19.665L40.5962 19.4841C40.4642 20.5705 40.3469 21.1575 40.2235 21.776L41.6946 22.0693L43.1656 22.3627C43.2953 21.7126 43.4291 21.0412 43.5743 19.8459L42.0852 19.665ZM41.6946 22.0693L40.2236 21.7758C40.3046 21.3698 40.6993 21.1063 41.1053 21.187L40.8127 22.6582L40.5202 24.1294C41.7383 24.3717 42.9225 23.581 43.1656 22.3628L41.6946 22.0693ZM40.8127 22.6582L41.1064 21.1872C41.509 21.2676 41.7756 21.6596 41.694 22.0692L40.2229 21.7764L38.7518 21.4835C38.5086 22.7052 39.3045 23.8867 40.519 24.1292L40.8127 22.6582ZM40.2229 21.7764L41.6939 22.0697C41.8202 21.4364 41.9463 20.8069 42.085 19.6653L40.5959 19.4844L39.1069 19.3035C38.9816 20.3352 38.8722 20.8798 38.7519 21.483L40.2229 21.7764ZM40.5959 19.4844L42.0879 19.6394C42.2296 18.2761 42.2731 17.0084 42.1787 15.9671L40.6848 16.1025L39.1909 16.238C39.2611 17.0121 39.2351 18.0679 39.104 19.3293L40.5959 19.4844ZM40.6848 16.1025L42.1787 15.9671C42.1764 15.942 42.174 15.9203 42.172 15.9039C42.1701 15.8881 42.1683 15.8741 42.1673 15.8668C42.1667 15.8621 42.1665 15.8604 42.1662 15.8579C42.1659 15.8558 42.1658 15.8553 42.1659 15.8555C42.1659 15.8556 42.1666 15.8616 42.1676 15.8709L40.675 16.0205L39.1825 16.1701C39.1848 16.1929 39.1871 16.2124 39.1889 16.2261C39.1904 16.2388 39.1921 16.2517 39.1927 16.2558C39.1935 16.2622 39.1935 16.2619 39.1932 16.2599C39.1929 16.2573 39.192 16.2494 39.1909 16.238L40.6848 16.1025ZM40.675 16.0205L39.8246 14.7849C39.0797 15.2975 38.6405 15.6649 38.2369 16.1251L39.3645 17.1143L40.4921 18.1035C40.6686 17.9022 40.8868 17.6957 41.5255 17.2561L40.675 16.0205ZM39.3645 17.1143L38.1617 16.218C37.3785 17.269 36.3638 18.7948 35.2497 20.4553L36.4954 21.291L37.741 22.1267C38.8808 20.4278 39.8407 18.9855 40.5673 18.0105L39.3645 17.1143ZM36.4954 21.291L35.1896 20.5528C33.6778 23.2269 32.6151 25.9196 31.3352 28.7799L32.7043 29.3926L34.0735 30.0053C35.4236 26.9881 36.3816 24.5401 37.8011 22.0292L36.4954 21.291ZM32.7043 29.3926L31.3352 28.7799C31.3022 28.8535 31.2558 28.9604 31.2319 29.0144L32.6038 29.6211L33.9756 30.2277C34.0198 30.1279 34.0392 30.0818 34.0735 30.0053L32.7043 29.3926ZM32.6038 29.6211L31.2074 30.1689C31.5638 31.0775 31.9312 31.9507 32.3159 32.7583L33.6702 32.1133L35.0244 31.4682C34.6799 30.745 34.3407 29.9414 34.0002 29.0733L32.6038 29.6211ZM33.6702 32.1133L32.316 32.7583C33.7735 35.8182 35.9556 39.2042 39.3262 43.927L40.5471 43.0557L41.7681 42.1843C38.4138 37.4843 36.3622 34.2768 35.0244 31.4682L33.6702 32.1133ZM40.5471 43.0557L39.3921 44.0127C39.3881 44.0079 39.3852 44.0043 39.3843 44.0032C39.3836 44.0023 39.3829 44.0015 39.3846 44.0036C39.3857 44.005 39.3884 44.0083 39.3915 44.0121C39.3947 44.0161 39.399 44.0213 39.4039 44.0273L40.5598 43.0713L41.7157 42.1153C41.7183 42.1184 41.7202 42.1208 41.7212 42.122C41.722 42.123 41.7225 42.1236 41.7215 42.1223C41.721 42.1218 41.7184 42.1185 41.7157 42.1152C41.7128 42.1116 41.708 42.1057 41.7021 42.0986L40.5471 43.0557ZM40.5598 43.0713L39.4036 44.0269C39.424 44.0516 39.4293 44.0587 39.4814 44.1223L40.6418 43.1719L41.8023 42.2215C41.7839 42.1989 41.7338 42.1372 41.716 42.1157L40.5598 43.0713ZM40.6418 43.1719L39.4814 44.1223C39.5515 44.2079 39.6485 44.3264 39.765 44.4719L40.9358 43.5342L42.1065 42.5964C41.9792 42.4374 41.8734 42.3083 41.8023 42.2215L40.6418 43.1719ZM40.9358 43.5342L39.765 44.4719C40.0022 44.768 40.322 45.1746 40.652 45.6165L41.8538 44.7188L43.0555 43.821C42.6992 43.3441 42.3574 42.9097 42.1065 42.5965L40.9358 43.5342ZM41.8538 44.7188L40.652 45.6164C40.9829 46.0594 41.3199 46.5322 41.5949 46.9623L42.8586 46.1543L44.1224 45.3463C43.7929 44.831 43.4087 44.294 43.0555 43.8211L41.8538 44.7188ZM42.8586 46.1543L41.5949 46.9623C41.8802 47.4086 42.0614 47.7526 42.1257 47.9544L43.5549 47.499L44.9841 47.0437C44.7913 46.4383 44.4193 45.8107 44.1224 45.3463L42.8586 46.1543ZM43.5549 47.499L42.1256 47.954C41.9998 47.5589 42.2181 47.1378 42.6123 47.0122L43.0676 48.4414L43.523 49.8706C44.7063 49.4936 45.3612 48.2284 44.9843 47.0441L43.5549 47.499ZM43.0676 48.4414L42.6135 47.0118C43.0091 46.8861 43.43 47.1053 43.5554 47.4986L42.1262 47.9541L40.697 48.4096C41.0738 49.5917 42.3372 50.2473 43.5217 49.871L43.0676 48.4414ZM42.1262 47.9541L43.5554 47.4987C43.4263 47.0933 43.1473 46.6063 42.8588 46.1549L41.595 46.9629L40.3312 47.7708C40.4593 47.9713 40.5548 48.1342 40.6207 48.2574C40.6937 48.3942 40.7058 48.437 40.697 48.4095L42.1262 47.9541ZM41.595 46.9629L42.8587 46.1549C42.557 45.6829 42.1966 45.177 41.8533 44.7175L40.6516 45.6152L39.4499 46.5129C39.7692 46.9404 40.083 47.3827 40.3312 47.7709L41.595 46.9629ZM40.6516 45.6152L41.8533 44.7175C41.5097 44.2576 41.1789 43.8376 40.9356 43.5339L39.7649 44.4717L38.5941 45.4094C38.8247 45.6973 39.1333 46.0891 39.4499 46.513L40.6516 45.6152ZM39.7649 44.4717L40.9356 43.5339C40.8132 43.381 40.7121 43.257 40.6422 43.1717L39.4817 44.1221L38.3212 45.0725C38.3865 45.1522 38.4804 45.2674 38.5941 45.4094L39.7649 44.4717ZM39.4817 44.1221L40.6422 43.1717C40.6219 43.1469 40.5776 43.0923 40.5597 43.0707L39.4036 44.0264L38.2474 44.982C38.265 45.0033 38.2739 45.0147 38.3212 45.0725L39.4817 44.1221ZM39.4036 44.0264L40.5601 43.0712C40.5672 43.0798 40.5722 43.0861 40.5709 43.0845C40.5699 43.0833 40.5707 43.0842 40.5688 43.0819C40.5678 43.0805 40.5659 43.0781 40.5636 43.0753C40.5614 43.0725 40.5581 43.0683 40.5541 43.0634C40.5502 43.0585 40.5448 43.0518 40.5382 43.0439L39.384 44.002L38.2298 44.96C38.2244 44.9534 38.2201 44.9481 38.2174 44.9448C38.2147 44.9414 38.2126 44.9388 38.2118 44.9377C38.2109 44.9366 38.2104 44.936 38.2109 44.9366C38.2111 44.9368 38.2113 44.9371 38.2118 44.9377C38.2122 44.9382 38.2128 44.939 38.2134 44.9398C38.2187 44.9465 38.2312 44.9624 38.247 44.9815L39.4036 44.0264ZM39.384 44.002L40.5235 43.0264C40.4587 42.9508 40.3965 42.8933 40.3479 42.8524C40.3235 42.8319 40.302 42.8151 40.2848 42.8021C40.2679 42.7894 40.2541 42.7795 40.2465 42.7741C40.2427 42.7714 40.2397 42.7693 40.2386 42.7686C40.2383 42.7684 40.2376 42.7679 40.238 42.7682C40.2381 42.7682 40.2388 42.7687 40.2398 42.7694C40.2415 42.7706 40.2458 42.7736 40.2512 42.7775C40.2567 42.7814 40.2649 42.7873 40.2747 42.7946C40.2845 42.8019 40.2974 42.8117 40.3123 42.8235C40.3271 42.8353 40.3456 42.8505 40.3663 42.8686C40.387 42.8867 40.4119 42.9095 40.4391 42.9367C40.4663 42.9639 40.4979 42.9976 40.5314 43.0379L39.3782 43.9971L38.2249 44.9563C38.2586 44.9967 38.2903 45.0306 38.3177 45.0579C38.345 45.0853 38.3701 45.1082 38.3909 45.1264C38.4118 45.1447 38.4305 45.16 38.4455 45.172C38.4606 45.184 38.4737 45.1939 38.4837 45.2014C38.4938 45.2088 38.5022 45.2149 38.5079 45.219C38.5136 45.223 38.5181 45.2262 38.5201 45.2276C38.5211 45.2283 38.522 45.2289 38.5222 45.2291C38.5227 45.2295 38.5222 45.229 38.5219 45.2289C38.5212 45.2284 38.5184 45.2264 38.5149 45.2239C38.5078 45.2189 38.4945 45.2095 38.4782 45.1971C38.4616 45.1846 38.4406 45.1682 38.4168 45.1482C38.3693 45.1083 38.3083 45.0519 38.2446 44.9775L39.384 44.002ZM39.3782 43.9971H40.8782V43.9961H39.3782H37.8782V43.9971H39.3782ZM39.3782 43.9961L40.5346 43.0408L40.5161 43.0183L39.3596 43.9736L38.2032 44.929L38.2217 44.9514L39.3782 43.9961ZM39.3596 43.9736L40.5837 43.1066L40.5671 43.0832L39.343 43.9502L38.119 44.8172L38.1356 44.8407L39.3596 43.9736ZM39.343 43.9502L40.5639 43.0787C37.1919 38.355 35.0709 35.0519 33.6709 32.1127L32.3167 32.7578L30.9624 33.4029C32.4822 36.5933 34.7337 40.0749 38.1222 44.8217L39.343 43.9502ZM32.3167 32.7578L33.6709 32.1128C33.4996 31.7532 33.3304 31.3716 33.1572 30.9676L31.7786 31.5586L30.3999 32.1496C30.5814 32.573 30.7677 32.9941 30.9624 33.4028L32.3167 32.7578ZM31.7786 31.5586L30.3917 30.987C29.3265 33.5717 28.1413 36.7099 27.0468 39.6309L28.4514 40.1572L29.8561 40.6835C30.9524 37.7574 32.1214 34.6632 33.1654 32.1302L31.7786 31.5586ZM28.4514 40.1572L27.0468 39.6309C25.6097 43.4664 24.3488 46.8696 23.6966 48.2292L25.0491 48.8779L26.4015 49.5267C27.1291 48.0098 28.4586 44.4132 29.8561 40.6835L28.4514 40.1572ZM25.0491 48.8779L23.6967 48.2291C23.8762 47.8549 24.3247 47.6983 24.6973 47.8768L24.0491 49.2295L23.4009 50.5822C24.5202 51.1186 25.8637 50.6477 26.4015 49.5268L25.0491 48.8779ZM24.0491 49.2295L24.6979 47.8771C25.0655 48.0534 25.23 48.4989 25.0481 48.8781L23.6956 48.2295L22.3431 47.5809C21.803 48.707 22.2858 50.0472 23.4002 50.5819L24.0491 49.2295ZM23.6956 48.2295L25.048 48.8783C25.7378 47.4405 27.0342 43.9404 28.4518 40.1572L27.0471 39.6309L25.6425 39.1046C24.1853 42.9936 22.9574 46.3002 22.3431 47.5807L23.6956 48.2295ZM27.0471 39.6309L28.4518 40.1572C29.7507 36.6904 31.1677 32.9449 32.3601 30.1799L30.9827 29.5859L29.6053 28.992C28.3789 31.836 26.9361 35.6519 25.6425 39.1046L27.0471 39.6309ZM30.9827 29.5859L32.384 29.051C31.9816 27.9967 31.5867 26.8887 31.1925 25.7616L29.7766 26.2568L28.3607 26.752C28.7577 27.887 29.1636 29.0266 29.5813 30.1209L30.9827 29.5859ZM29.7766 26.2568L31.1925 25.7616C30.3847 23.4519 29.5664 21.0342 28.6855 18.8804L27.2971 19.4482L25.9088 20.0161C26.7519 22.0774 27.5357 24.3933 28.3607 26.752L29.7766 26.2568ZM27.2971 19.4482L28.7016 18.9216L28.6987 18.9137L27.2942 19.4404L25.8897 19.9671L25.8926 19.9749L27.2971 19.4482ZM27.2942 19.4404L28.6888 18.8881C28.1546 17.5393 27.861 16.4766 27.7032 15.4313L26.22 15.6553L24.7368 15.8792C24.9356 17.1959 25.3009 18.4812 25.8996 19.9928L27.2942 19.4404ZM26.22 15.6553L27.7084 15.4692L27.7064 15.4536L26.218 15.6396L24.7296 15.8257L24.7316 15.8413L26.22 15.6553ZM26.218 15.6396L27.7142 15.5328L27.7132 15.5191L26.217 15.626L24.7209 15.7328L24.7218 15.7465L26.218 15.6396ZM26.217 15.626L27.7081 15.462C27.6834 15.2376 27.6669 15.0073 27.6545 14.7677L26.1565 14.8457L24.6585 14.9237C24.6728 15.1982 24.693 15.4896 24.726 15.79L26.217 15.626ZM26.1565 14.8457L25.0569 13.8254C24.736 14.1714 24.4192 14.5423 24.1199 14.9237L25.3 15.8496L26.4801 16.7755C26.7288 16.4586 26.9919 16.1507 27.2561 15.866L26.1565 14.8457ZM25.3 15.8496L24.1199 14.9237C23.3448 15.9116 22.6559 17.0109 22.3581 17.9322L23.7854 18.3936L25.2127 18.8549C25.3488 18.4338 25.783 17.6641 26.4802 16.7755L25.3 15.8496ZM23.7854 18.3936L22.358 17.9325C22.4856 17.5374 22.9079 17.3225 23.3012 17.4496L22.8401 18.877L22.379 20.3043C23.5606 20.686 24.8305 20.038 25.2128 18.8547L23.7854 18.3936ZM22.8401 18.877L23.3027 17.4501C23.6968 17.5778 23.9121 18.0002 23.785 18.3937L22.3577 17.9326L20.9303 17.4715C20.5487 18.6528 21.196 19.9208 22.3775 20.3039L22.8401 18.877ZM22.3577 17.9326L23.785 18.3938C24.002 17.7223 24.5643 16.787 25.3005 15.8488L24.1204 14.9229L22.9403 13.9969C22.1258 15.035 21.3089 16.2998 20.9303 17.4714L22.3577 17.9326ZM24.1204 14.9229L25.3004 15.8488C26.0291 14.9202 26.8696 14.0631 27.5795 13.5328L26.6819 12.3311L25.7842 11.1293C24.8017 11.8632 23.7774 12.93 22.9403 13.9969L24.1204 14.9229ZM26.6819 12.3311L27.577 13.5347L27.8856 13.3052L26.9905 12.1016L26.0954 10.8979L25.7868 11.1274L26.6819 12.3311ZM26.9905 12.1016L26.5402 13.5324L26.9065 13.6476L27.3567 12.2168L27.8069 10.786L27.4407 10.6707L26.9905 12.1016Z" fill="white" mask="url(#path-1-outside-1_34_157)"/>
</svg>
