<svg width="64" height="64" viewBox="0 0 64 64" fill="none" xmlns="http://www.w3.org/2000/svg">
<g clip-path="url(#clip0_30_57)">
<path d="M38.7562 22.0151C38.8049 22.1564 39.076 23.2511 39.3812 25.679C39.5552 27.0628 39.3053 28.8442 38.8965 30.763C38.4877 32.6819 37.8092 34.7072 37.0349 36.4633C36.2605 38.2194 35.4108 39.6449 34.4361 40.9199C32.5741 43.3554 29.9425 45.1144 27.2023 46.0882C25.8478 46.5696 24.3747 46.091 22.9307 45.286C21.4866 44.4809 20.0674 43.1253 18.253 41.0741C16.4387 39.0228 14.2724 36.3172 12.75 34.5626C10.5352 32.0103 8.91047 31.0462 7.65188 30.6943C7.10806 30.5423 6.56361 30.8371 6.16548 31.3962C5.17105 32.7925 5.2263 35.3544 5.57392 38.947C5.77466 41.0217 6.46764 43.5109 7.24066 45.0512C8.01369 46.5914 8.95896 47.0827 10.365 47.0852C11.7711 47.0877 13.6093 46.5865 15.7975 45.374C17.9857 44.1614 20.4682 42.2527 25.6319 36.928C30.7957 31.6034 38.5656 22.9206 42.7255 18.3409C46.8854 13.7611 47.1998 13.5474 47.4776 13.5687C49.5027 13.7241 47.8515 18.1783 46.3853 21.1926C45.6387 22.7274 44.4523 24.1832 43.1271 25.5784C41.802 26.9737 40.263 28.2414 38.6236 29.3045C36.9842 30.3676 35.291 31.1877 33.615 31.4786C31.939 31.7694 30.3314 31.5062 28.7513 30.8259C27.1712 30.1455 25.6672 29.0562 24.0823 27.1667C22.4974 25.2772 20.8771 22.6206 19.8396 20.6632C18.8022 18.7058 18.3966 17.528 19.2313 19.1836C20.0659 20.8392 22.153 25.3638 21.8864 24.3099C21.6197 23.256 18.9359 16.4864 17.1966 12.4237C15.4572 8.36099 14.7435 7.21029 14.4903 7.05236C14.237 6.89443 14.4659 7.76414 15.0727 8.96603C15.6795 10.1679 16.6573 11.6756 19.1885 14.1914C21.7198 16.7072 25.7748 20.1853 30.2162 23.3276C34.6575 26.4699 39.3623 29.1711 42.2721 31.0012C45.1819 32.8313 46.1542 33.7085 46.9363 34.6696C48.464 36.5471 48.9231 38.5988 48.8246 40.3725C48.7311 42.0543 47.1059 43.647 45.2614 44.7899C44.3027 45.384 42.8258 45.2405 41.0746 44.467C39.3234 43.6935 37.222 42.0984 35.0504 39.702C32.8788 37.3055 30.7008 34.1559 28.9524 30.9706C27.204 27.7853 25.9514 24.6596 25.1862 21.984C24.421 19.3085 24.1812 17.1778 24.2879 15.2632C24.3946 13.3485 24.855 11.7145 25.4197 10.3384C26.436 7.8619 28.0136 6.26188 29.452 5.38018C30.1404 4.95819 30.9489 4.87352 31.7052 5.03629C32.4614 5.19906 33.1931 5.68486 33.9846 6.78044C34.7761 7.87602 35.6052 9.56666 36.3346 11.5719C37.0641 13.577 37.6688 15.8455 37.9155 18.209C38.1622 20.5724 38.0325 22.9621 37.4981 25.4476C36.9637 27.933 36.0284 30.442 35.0281 32.5849C34.0277 34.7278 32.9906 36.4286 31.95 37.7295C30.1385 39.9939 27.7266 41.2744 25.4974 41.9781C24.4199 42.3183 23.3492 41.9952 22.3552 41.3546C21.3612 40.714 20.4502 39.6049 19.6258 38.2073C18.8014 36.8097 18.0912 35.1571 17.6835 33.5693C16.9164 30.5821 17.3749 28.1341 17.9074 26.5822C18.1466 25.885 18.4192 25.38 18.6374 25.0218C18.8556 24.6636 19.0359 24.4698 19.2382 24.688C19.4405 24.9062 19.6595 25.5422 20.5776 30.7699C21.4958 35.9977 23.1064 45.7979 24.1506 51.4182C25.1948 57.0385 25.6238 58.1819 26.1493 59.2456C26.6749 60.3094 27.2841 61.259 28.1368 61.8788C28.9895 62.4986 30.0672 62.7599 31.4608 62.4608C32.8545 62.1618 34.5314 61.2946 36.4261 59.7946C38.3208 58.2947 40.3824 56.1884 42.2824 53.695C44.1825 51.2016 45.8584 48.3849 46.9673 45.5978C48.0761 42.8107 48.5671 40.1386 48.561 37.5997C48.5548 35.0608 48.0366 32.7362 47.0983 30.7159C46.1599 28.6956 44.8172 27.0501 42.9442 25.845C41.0711 24.64 38.7084 23.9254 35.867 23.6554C33.0257 23.3854 29.7772 23.5818 24.2309 24.832C18.6845 26.0823 10.9388 28.3805 6.69126 29.5344C2.44375 30.6884 1.92922 30.6284 1.82274 30.1872C1.53752 29.0055 3.68474 26.7017 6.88198 23.7161C8.66668 22.0495 11.1353 20.3141 13.8295 18.5812C16.5238 16.8483 19.4595 15.2314 22.3749 13.8627C25.2902 12.494 28.0962 11.4225 30.7888 10.5991C33.4814 9.77575 35.9756 9.2331 38.3054 9.06806C40.6351 8.90301 42.7248 9.13202 44.6627 9.65159C46.6007 10.1712 48.3236 10.9744 49.8095 11.9989C51.2955 13.0234 52.4922 14.245 53.4516 15.6652C54.4109 17.0854 55.0967 18.6673 55.4181 20.3627C55.7394 22.0581 55.6755 23.8191 55.2267 25.5676C54.778 27.3162 53.9463 28.999 52.9574 30.441C51.9686 31.8829 50.8476 33.033 49.5457 33.9803C46.99 35.8399 43.6206 36.7103 40.1898 37.0712C38.418 37.2576 36.6744 36.7762 33.9024 36.1754C31.1304 35.5745 27.4061 34.6963 24.8271 34.2211C21.0106 33.5178 18.5711 33.8373 16.6822 34.3404C14.9145 34.8113 13.6124 36.3097 12.2463 38.1186C10.4616 40.482 9.67286 42.2731 9.59552 42.7253C9.44028 43.6329 12.9033 41.3508 14.9802 40.8984C15.9835 40.6798 16.9876 43.0384 18.158 45.9177C18.9815 47.9433 18.7149 49.6942 18.3829 51.3083C18.2111 52.1436 17.8697 53.0112 20.8387 49.3657C23.8076 45.7202 30.0555 37.5351 33.7562 32.8232C37.4569 28.1113 38.4211 27.1206 39.2949 26.3223C40.8524 24.8994 42.2748 24.0779 43.3522 23.7452C43.8442 23.5933 44.2674 23.8636 44.653 24.3021C45.5637 25.3377 46.0522 27.3674 46.4791 30.0464C46.7093 31.4906 46.507 33.2054 46.0943 35.0589C45.6817 36.9124 44.9474 38.8779 44.1249 40.6494C43.3024 42.4209 42.414 43.9388 41.6004 45.1726C40.1704 47.3413 38.6035 48.8645 37.0952 49.9559C36.3755 50.4768 35.5445 50.7194 34.6303 50.6131C33.716 50.5067 32.6914 49.99 31.4801 48.8657C30.2688 47.7414 28.9017 46.0253 27.5203 43.6354C26.1388 41.2455 24.7843 38.2339 23.5711 33.7509C22.3578 29.2679 21.3267 23.4048 21.1154 19.4179C20.9041 15.4311 21.5438 13.4982 22.3342 11.8431C23.7806 8.81455 25.8287 6.85532 27.4453 5.76615C28.1778 5.27256 28.9393 5.14074 29.6425 5.20239C31.143 5.33393 32.2775 6.8289 33.3746 8.82606C33.9584 9.88873 34.4033 11.1366 34.6171 12.6255C34.831 14.1144 34.7509 15.8283 34.2636 17.7211C33.7763 19.6139 32.8843 21.6336 31.8544 23.4765C30.8245 25.3194 29.6838 26.9242 28.4879 28.2897C26.2634 30.8297 23.4923 32.5908 20.7418 33.7398C19.3804 34.3086 17.8508 34.1732 16.3494 33.6686C14.8479 33.164 13.3601 32.1217 12.0584 30.9523C9.68619 28.518 7.51623 25.4478 7.4969 25.0533C8.54453 26.4256 11.7391 30.9904 15.0305 35.6936" stroke="white" stroke-width="1.5" stroke-linecap="round"/>
</g>
<defs>
<clipPath id="clip0_30_57">
<rect width="64" height="64" fill="white"/>
</clipPath>
</defs>
</svg>
