<svg width="64" height="64" viewBox="0 0 64 64" fill="none" xmlns="http://www.w3.org/2000/svg">
<g clip-path="url(#clip0_30_61)">
<path d="M43.1249 13.1865C43.3012 13.2719 43.706 14.1211 44.0273 15.9057C44.4042 18.0002 42.6401 20.6841 40.778 23.9197C39.7571 25.6934 38.2825 27.5559 36.7503 29.3837C35.2182 31.2114 33.5966 32.9023 32.0186 34.2299C30.4405 35.5576 28.9552 36.4709 27.3968 37.2511C24.3189 38.7919 20.9579 39.0563 17.747 38.0675C16.0958 37.559 14.8018 36.0373 12.9504 33.6891C11.0989 31.341 8.83182 27.957 7.4651 26.063C6.09838 24.169 5.70074 23.8675 5.4039 23.8717C4.82466 23.88 4.72005 25.5513 4.81567 27.8719C4.93266 30.7112 5.79233 33.7372 6.72745 36.6178C7.64454 39.4429 9.74033 41.4598 12.2198 42.5965C13.4993 43.1831 16.8003 43.4188 18.7827 42.6515C20.7652 41.8842 21.466 39.8821 23.8295 37.9812C26.1929 36.0803 28.5117 33.7476 31.8418 29.9474C35.1718 26.1472 39.4428 20.9504 41.9977 18.0232C44.5526 15.096 45.262 14.5961 45.8793 14.27C46.4966 13.944 47.0004 13.8071 47.4489 14.0185C48.4755 14.5026 49.0581 16.5182 49.7325 19.0635C50.5162 22.0212 50.1008 25.2356 49.5274 28.0296C49.0063 30.5689 47.4951 32.6344 45.7188 34.2977C44.8238 35.1357 43.4989 35.4196 42.1461 35.3375C40.7933 35.2553 39.3395 34.6599 37.4006 33.1373C35.4616 31.6147 33.0816 29.1828 31.4285 27.383C29.7753 25.5832 28.9211 24.4892 28.4932 24.0675C28.0653 23.6458 28.0896 23.9297 29.5125 28.0655C30.9355 32.2012 33.7563 40.1802 34.5766 42.0792C35.3968 43.9781 34.131 39.5552 33.14 36.7724C32.149 33.9897 31.4711 32.981 30.6763 32.3408C29.8816 31.7006 28.9905 31.4595 28.083 31.5262C26.2292 31.6625 24.5276 33.274 22.6677 35.5495C18.4023 40.7679 17.7755 42.1359 17.5139 42.081C15.1276 41.5796 20.0374 35.7268 21.6446 33.5206C21.9194 33.1434 22.2051 32.939 22.5434 32.8934C23.3007 32.7913 24.5937 33.9476 26.9789 36.102C28.4916 37.4683 30.6573 39.3454 32.1571 40.9146C34.6317 43.5039 35.8855 46.3638 37.0491 49.2034C38.9223 53.7746 38.6005 56.0685 38.3869 56.953C38.2925 57.3438 38.0833 57.5761 37.8396 57.6263C37.5959 57.6764 37.2873 57.527 35.9446 55.6656C34.602 53.8043 32.2345 50.2357 29.9772 46.3435C27.7199 42.4513 25.6444 38.3438 23.8569 34.3015C22.0693 30.2592 20.6326 26.4066 19.8315 23.0182C19.0304 19.6298 18.9085 16.8223 19.3249 14.2611C19.7414 11.7 20.7 9.47026 21.8694 7.72366C24.0238 4.50603 27.0292 3.01007 29.615 2.13632C32.2383 1.24987 35.1807 2.11067 37.9739 3.50242C39.4367 4.23126 40.7172 5.49588 42.0993 6.90748C43.4813 8.31909 44.856 9.9646 46.1867 11.7669C47.5174 13.5693 48.7625 15.4786 49.8004 17.2937C50.8384 19.1089 51.6314 20.772 52.2986 22.3799C53.5741 25.454 54.1946 28.7301 54.2459 31.9904C54.2933 35.0024 52.5112 37.2914 50.89 39.0286C50.0516 39.927 48.9161 40.595 47.6249 41.0634C46.3337 41.5318 44.8533 41.7128 42.9367 40.9613C41.0201 40.2097 38.7121 38.5203 36.1687 35.7966C33.6253 33.0728 30.9164 29.366 28.0746 24.4292C25.2327 19.4923 22.3399 13.4377 20.4336 9.11032C18.5272 4.78289 17.6951 2.36608 18.9885 9.64275C20.282 16.9194 23.7263 33.9628 25.7425 43.4449C27.7586 52.9271 28.2422 54.3314 28.8289 55.3953C29.4156 56.4592 30.0908 57.14 31.002 57.2602C31.9132 57.3804 33.04 56.9193 34.3694 55.6567C35.6988 54.3942 37.1967 52.3441 38.7461 49.7598C40.2955 47.1756 41.8509 44.1193 43.2091 40.8553C44.5673 37.5913 45.681 34.2122 46.5287 31.0802C47.3764 27.9483 47.9242 25.1659 48.2382 22.9179C49.1449 16.4254 47.8891 13.8763 47.3427 13.1977C46.8216 12.5505 45.2343 13.8949 43.3066 15.8622C42.1163 17.0769 40.6853 18.9085 38.688 21.0404C36.6907 23.1722 34.2189 25.5942 31.7075 27.7796C29.196 29.965 26.7198 31.8406 24.5101 33.3476C22.3004 34.8546 20.4323 35.9362 18.6387 36.8527C15.2342 38.5923 12.0775 39.4517 9.54232 39.4075C8.36751 39.387 7.54786 38.3734 6.9909 36.9417C6.43394 35.51 6.19732 33.4361 6.31698 31.0425C6.43663 28.6489 6.91973 25.9983 7.78394 23.3799C8.64816 20.7614 9.87885 18.2554 11.2993 15.835C12.7198 13.4147 14.2929 11.1561 15.8769 9.30604C17.4609 7.45599 19.0083 6.08296 20.6038 5.02765C23.6403 3.01932 27.0541 2.44244 30.2257 2.72696C31.8303 2.8709 33.2412 4.05158 34.6573 5.3939C36.0733 6.73622 37.4048 8.46967 38.61 10.4442C39.8153 12.4187 40.8539 14.5818 41.738 16.7632C42.6222 18.9446 43.3203 21.0787 43.7425 23.1065C44.1646 25.1342 44.2897 26.9908 44.1085 28.7807C43.754 32.283 42.1388 35.1772 40.2799 37.5122C39.3198 38.7181 37.892 39.5909 36.337 40.4811C34.782 41.3713 33.0322 42.1565 28.9321 43.3518C24.832 44.5472 18.4347 46.1289 14.7732 47.1611C11.1117 48.1933 10.3798 48.6279 9.8296 49.1489C8.78999 50.1334 8.439 51.5445 8.28872 52.8843C8.14037 54.2067 8.7015 55.549 9.23632 56.8372C9.79139 58.1742 11.5501 59.1059 15.1264 60.3896C17.6767 61.305 21.9014 62.2159 24.2577 62.7573C26.614 63.2988 27.0202 63.3051 27.3223 63.258C27.6244 63.211 27.8102 63.1105 27.9041 62.8402C28.1384 62.1658 27.0884 58.7417 25.2347 53.1933C24.3551 50.5606 23.3104 48.4 20.6712 43.5716C18.0319 38.7432 13.7559 31.3383 11.2223 26.6695C7.81994 20.3999 7.25343 18.0523 7.1515 17.1664C7.06849 16.4449 7.42157 15.8512 7.74875 15.3517C8.0952 14.8227 8.83911 14.586 9.61108 14.3567C10.4548 14.1061 11.4951 14.2217 12.6372 14.5823C15.4182 15.4605 17.1419 18.7612 18.6221 22.0353C19.556 24.101 20.414 27.1748 20.8806 29.4397C22.1272 35.4915 19.9304 38.364 19.1649 39.4202C18.8167 39.9007 18.3967 40.1486 17.9947 40.0152C16.9831 39.6798 16.5397 37.4835 16.36 34.712C16.2633 33.2197 16.704 31.5409 17.3147 29.809C17.9255 28.0771 18.8332 26.3398 19.8662 24.7935C21.853 21.8196 24.2752 19.7921 26.3817 18.3295C28.2411 17.0384 30.0401 16.5838 31.477 16.456C32.8794 16.3313 34.271 17.3344 35.653 18.6054C37.2404 20.0653 38.2069 22.504 39.1696 25.1349C40.1953 27.938 40.1683 31.09 39.9283 34.6841C39.7887 36.7751 39.3352 39.3862 39.4499 40.736C39.5647 42.0858 40.1904 42.0896 44.0447 40.4552C47.899 38.8209 54.9629 35.5483 58.8379 33.8543C62.7128 32.1603 61.1847 32.1439 61.5604 32.2542C61.9362 32.3645 62.2016 32.6019 62.3842 32.9641C63.4449 35.0682 62.8923 38.7683 60.7934 41.5345C59.6929 42.9849 58.2114 44.2845 56.6091 45.5802" stroke="white" stroke-width="1.5" stroke-linecap="round"/>
</g>
<defs>
<clipPath id="clip0_30_61">
<rect width="64" height="64" fill="white"/>
</clipPath>
</defs>
</svg>
