<svg width="64" height="64" viewBox="0 0 64 64" fill="none" xmlns="http://www.w3.org/2000/svg">
<mask id="path-1-outside-1_34_91" maskUnits="userSpaceOnUse" x="16.5669" y="9.63043" width="32" height="43" fill="black">
<rect fill="white" x="16.5669" y="9.63043" width="32" height="43"/>
<path d="M36.6177 13.0943C36.9135 12.6281 37.5322 12.49 37.9985 12.7857C38.4644 13.0815 38.6025 13.6994 38.3071 14.1656C38.2129 14.3142 38.0734 14.646 37.9146 15.1509C37.764 15.6298 37.6192 16.1856 37.4927 16.7213C37.3667 17.2545 37.2613 17.7568 37.187 18.1265C37.15 18.3109 37.1208 18.4619 37.1011 18.566C37.0912 18.618 37.0836 18.6591 37.0786 18.6861C37.0761 18.6994 37.074 18.7098 37.0728 18.7164C37.0722 18.7195 37.072 18.7227 37.0718 18.7242V18.7252L37.0649 18.7613L37.0552 18.7984C35.8083 23.609 34.7482 27.134 33.5806 29.9966C34.3995 31.1681 35.1502 32.2725 35.772 33.2437C37.4602 35.8807 39.1457 38.2698 40.563 41.0269L40.5796 41.0601L40.5942 41.0953C41.379 42.9552 42.1104 44.6685 42.564 45.9156L42.5776 45.9507L42.5864 45.9859C42.652 46.2178 42.7028 46.4457 42.7427 46.688C42.7924 46.5376 42.8447 46.3832 42.896 46.2252C43.0914 45.6227 43.2896 44.9944 43.4771 44.398C43.6637 43.804 43.8408 43.2382 43.9927 42.7701C44.1631 42.2449 44.7272 41.9563 45.2524 42.1265C45.7778 42.297 46.0655 42.8619 45.895 43.3873C45.7467 43.8445 45.5732 44.3996 45.3853 44.9976C45.198 45.5935 44.9969 46.23 44.7983 46.8423C44.4607 47.8835 44.1037 48.9321 43.812 49.5875L43.6919 49.8443L43.4722 50.275L42.9976 50.3716C42.5245 50.467 42.0383 50.3994 41.5991 50.2759C41.1513 50.15 40.6828 49.9449 40.2104 49.6929C39.2655 49.1887 38.211 48.4435 37.1382 47.5679L37.1313 47.563L37.1255 47.5572C36.2406 46.8096 35.7779 46.3546 35.3149 45.899C34.9216 45.5116 34.9171 44.8785 35.3042 44.4849C35.6916 44.0917 36.3238 44.0869 36.7173 44.4742C37.1623 44.9121 37.5822 45.3243 38.4028 46.0181C39.2929 46.7446 40.1241 47.3389 40.8442 47.7574C40.8162 47.2118 40.7607 46.8837 40.6733 46.566C40.2437 45.3899 39.5516 43.7667 38.7681 41.9097C37.412 39.2785 35.8298 37.0434 34.0874 34.3218C33.6588 33.6523 33.1659 32.9158 32.6294 32.1343C31.7875 33.8567 30.7068 35.7095 29.606 37.5582C28.3386 39.6863 27.0441 41.8123 25.9858 43.8189L25.98 43.8297C25.2404 45.195 24.5417 46.2174 23.7358 47.1295L23.7222 47.1451L23.7075 47.1607C23.6615 47.2087 23.6134 47.2545 23.5669 47.3013C23.8025 47.3044 24.0409 47.3031 24.2788 47.2955C25.4607 47.2577 26.5044 47.0897 27.1177 46.8414C27.6293 46.6344 28.212 46.8807 28.4194 47.3922C28.6267 47.904 28.3794 48.4875 27.8677 48.6949C26.9295 49.0747 25.609 49.254 24.3433 49.2945C23.0611 49.3355 21.7017 49.2382 20.646 48.9888L20.146 48.8707L19.9507 48.3951C19.6574 47.6814 19.6253 46.817 19.645 46.0201C19.6642 45.248 19.7502 44.2474 19.7896 43.4C19.8081 42.6192 19.7812 42.1293 19.5991 41.4332C19.4596 40.8991 19.78 40.3533 20.314 40.2134C20.8481 40.074 21.3948 40.3933 21.5347 40.9273C21.7809 41.8689 21.8106 42.5618 21.7896 43.4468V43.4586L21.7876 43.4693C21.7409 44.4933 21.6648 45.2742 21.645 46.0699C21.6424 46.1765 21.6439 46.2784 21.644 46.3746C21.8551 46.1821 22.0558 45.9926 22.2476 45.7935C22.9267 45.023 23.5381 44.1372 24.2163 42.8863L24.6362 42.107C25.6381 40.2758 26.7946 38.3712 27.8882 36.5347C29.1492 34.4171 30.3264 32.3895 31.1538 30.5806C31.2052 30.4682 31.2542 30.3536 31.3052 30.2388C30.0755 28.5017 28.7245 26.646 27.4282 24.8746C25.048 21.6219 22.8211 18.6039 21.9897 17.2261C21.7048 16.7533 21.8569 16.1383 22.3296 15.8531C22.8024 15.568 23.4174 15.7211 23.7026 16.1939C24.4741 17.4724 26.6169 20.3805 29.0415 23.6939C30.0805 25.1138 31.1634 26.6016 32.1968 28.0455C33.1352 25.5302 34.0456 22.4363 35.1099 18.3326C35.1105 18.3294 35.1112 18.3254 35.1118 18.3218C35.1173 18.2921 35.1258 18.2487 35.1362 18.1939C35.1571 18.0836 35.1874 17.9253 35.2261 17.733C35.3033 17.3485 35.4147 16.8229 35.5474 16.2613C35.6795 15.7019 35.8364 15.0948 36.0073 14.5513C36.17 14.0341 36.3718 13.482 36.6177 13.0943Z"/>
</mask>
<path d="M36.6177 13.0943C36.9135 12.6281 37.5322 12.49 37.9985 12.7857C38.4644 13.0815 38.6025 13.6994 38.3071 14.1656C38.2129 14.3142 38.0734 14.646 37.9146 15.1509C37.764 15.6298 37.6192 16.1856 37.4927 16.7213C37.3667 17.2545 37.2613 17.7568 37.187 18.1265C37.15 18.3109 37.1208 18.4619 37.1011 18.566C37.0912 18.618 37.0836 18.6591 37.0786 18.6861C37.0761 18.6994 37.074 18.7098 37.0728 18.7164C37.0722 18.7195 37.072 18.7227 37.0718 18.7242V18.7252L37.0649 18.7613L37.0552 18.7984C35.8083 23.609 34.7482 27.134 33.5806 29.9966C34.3995 31.1681 35.1502 32.2725 35.772 33.2437C37.4602 35.8807 39.1457 38.2698 40.563 41.0269L40.5796 41.0601L40.5942 41.0953C41.379 42.9552 42.1104 44.6685 42.564 45.9156L42.5776 45.9507L42.5864 45.9859C42.652 46.2178 42.7028 46.4457 42.7427 46.688C42.7924 46.5376 42.8447 46.3832 42.896 46.2252C43.0914 45.6227 43.2896 44.9944 43.4771 44.398C43.6637 43.804 43.8408 43.2382 43.9927 42.7701C44.1631 42.2449 44.7272 41.9563 45.2524 42.1265C45.7778 42.297 46.0655 42.8619 45.895 43.3873C45.7467 43.8445 45.5732 44.3996 45.3853 44.9976C45.198 45.5935 44.9969 46.23 44.7983 46.8423C44.4607 47.8835 44.1037 48.9321 43.812 49.5875L43.6919 49.8443L43.4722 50.275L42.9976 50.3716C42.5245 50.467 42.0383 50.3994 41.5991 50.2759C41.1513 50.15 40.6828 49.9449 40.2104 49.6929C39.2655 49.1887 38.211 48.4435 37.1382 47.5679L37.1313 47.563L37.1255 47.5572C36.2406 46.8096 35.7779 46.3546 35.3149 45.899C34.9216 45.5116 34.9171 44.8785 35.3042 44.4849C35.6916 44.0917 36.3238 44.0869 36.7173 44.4742C37.1623 44.9121 37.5822 45.3243 38.4028 46.0181C39.2929 46.7446 40.1241 47.3389 40.8442 47.7574C40.8162 47.2118 40.7607 46.8837 40.6733 46.566C40.2437 45.3899 39.5516 43.7667 38.7681 41.9097C37.412 39.2785 35.8298 37.0434 34.0874 34.3218C33.6588 33.6523 33.1659 32.9158 32.6294 32.1343C31.7875 33.8567 30.7068 35.7095 29.606 37.5582C28.3386 39.6863 27.0441 41.8123 25.9858 43.8189L25.98 43.8297C25.2404 45.195 24.5417 46.2174 23.7358 47.1295L23.7222 47.1451L23.7075 47.1607C23.6615 47.2087 23.6134 47.2545 23.5669 47.3013C23.8025 47.3044 24.0409 47.3031 24.2788 47.2955C25.4607 47.2577 26.5044 47.0897 27.1177 46.8414C27.6293 46.6344 28.212 46.8807 28.4194 47.3922C28.6267 47.904 28.3794 48.4875 27.8677 48.6949C26.9295 49.0747 25.609 49.254 24.3433 49.2945C23.0611 49.3355 21.7017 49.2382 20.646 48.9888L20.146 48.8707L19.9507 48.3951C19.6574 47.6814 19.6253 46.817 19.645 46.0201C19.6642 45.248 19.7502 44.2474 19.7896 43.4C19.8081 42.6192 19.7812 42.1293 19.5991 41.4332C19.4596 40.8991 19.78 40.3533 20.314 40.2134C20.8481 40.074 21.3948 40.3933 21.5347 40.9273C21.7809 41.8689 21.8106 42.5618 21.7896 43.4468V43.4586L21.7876 43.4693C21.7409 44.4933 21.6648 45.2742 21.645 46.0699C21.6424 46.1765 21.6439 46.2784 21.644 46.3746C21.8551 46.1821 22.0558 45.9926 22.2476 45.7935C22.9267 45.023 23.5381 44.1372 24.2163 42.8863L24.6362 42.107C25.6381 40.2758 26.7946 38.3712 27.8882 36.5347C29.1492 34.4171 30.3264 32.3895 31.1538 30.5806C31.2052 30.4682 31.2542 30.3536 31.3052 30.2388C30.0755 28.5017 28.7245 26.646 27.4282 24.8746C25.048 21.6219 22.8211 18.6039 21.9897 17.2261C21.7048 16.7533 21.8569 16.1383 22.3296 15.8531C22.8024 15.568 23.4174 15.7211 23.7026 16.1939C24.4741 17.4724 26.6169 20.3805 29.0415 23.6939C30.0805 25.1138 31.1634 26.6016 32.1968 28.0455C33.1352 25.5302 34.0456 22.4363 35.1099 18.3326C35.1105 18.3294 35.1112 18.3254 35.1118 18.3218C35.1173 18.2921 35.1258 18.2487 35.1362 18.1939C35.1571 18.0836 35.1874 17.9253 35.2261 17.733C35.3033 17.3485 35.4147 16.8229 35.5474 16.2613C35.6795 15.7019 35.8364 15.0948 36.0073 14.5513C36.17 14.0341 36.3718 13.482 36.6177 13.0943Z" fill="black"/>
<path d="M36.6177 13.0943L34.9289 12.0228L34.9286 12.0233L36.6177 13.0943ZM37.9985 12.7857L39.0706 11.0973L39.0696 11.0967L37.9985 12.7857ZM38.3071 14.1656L39.9964 15.2363L39.9966 15.236L38.3071 14.1656ZM37.9146 15.1509L36.0067 14.5509L36.0067 14.551L37.9146 15.1509ZM37.4927 16.7213L35.5462 16.2615L35.5462 16.2615L37.4927 16.7213ZM37.187 18.1265L35.2262 17.7326L35.2262 17.7327L37.187 18.1265ZM37.1011 18.566L35.1361 18.1934L35.1361 18.1935L37.1011 18.566ZM37.0786 18.6861L39.0451 19.0507L39.0453 19.0498L37.0786 18.6861ZM37.0728 18.7164L35.1054 18.3567L35.102 18.3749L35.0991 18.3931L37.0728 18.7164ZM37.0718 18.7242L35.1041 18.366L35.0718 18.5436V18.7242H37.0718ZM37.0718 18.7252L39.0369 19.0969L39.0718 18.9127V18.7252H37.0718ZM37.0649 18.7613L38.9991 19.2703L39.017 19.2022L39.0301 19.1331L37.0649 18.7613ZM37.0552 18.7984L35.121 18.2894L35.1191 18.2966L37.0552 18.7984ZM33.5806 29.9966L31.7287 29.2413L31.3173 30.2498L31.9414 31.1425L33.5806 29.9966ZM35.772 33.2437L34.0876 34.3221L34.0876 34.3221L35.772 33.2437ZM40.563 41.0269L42.3518 40.1325L42.3468 40.1225L42.3417 40.1126L40.563 41.0269ZM40.5796 41.0601L42.4257 40.2909L42.3992 40.2273L42.3684 40.1657L40.5796 41.0601ZM40.5942 41.0953L38.7481 41.8645L38.7515 41.8727L40.5942 41.0953ZM42.564 45.9156L40.6844 46.5992L40.692 46.6199L40.7 46.6405L42.564 45.9156ZM42.5776 45.9507L44.5179 45.4657L44.4873 45.3434L44.4416 45.2259L42.5776 45.9507ZM42.5864 45.9859L40.6461 46.471L40.6536 46.5007L40.6619 46.5301L42.5864 45.9859ZM42.7427 46.688L40.7692 47.0128L44.6417 47.3157L42.7427 46.688ZM42.896 46.2252L44.7984 46.8422L44.7984 46.8422L42.896 46.2252ZM43.4771 44.398L41.569 43.7984L41.569 43.7984L43.4771 44.398ZM43.9927 42.7701L42.0903 42.1528L42.0903 42.1528L43.9927 42.7701ZM45.2524 42.1265L45.8697 40.2242L45.8691 40.224L45.2524 42.1265ZM45.895 43.3873L43.9927 42.77L43.9927 42.77L45.895 43.3873ZM45.3853 44.9976L47.2933 45.5972L47.2933 45.5972L45.3853 44.9976ZM44.7983 46.8423L46.7008 47.4594L46.7008 47.4594L44.7983 46.8423ZM43.812 49.5875L45.6237 50.4347L45.6316 50.4178L45.6392 50.4007L43.812 49.5875ZM43.6919 49.8443L45.4734 50.7532L45.489 50.7227L45.5036 50.6916L43.6919 49.8443ZM43.4722 50.275L43.8714 52.2347L44.8157 52.0424L45.2537 51.1839L43.4722 50.275ZM42.9976 50.3716L43.3927 52.3322L43.3968 52.3314L42.9976 50.3716ZM41.5991 50.2759L41.0575 52.2012L41.0578 52.2013L41.5991 50.2759ZM40.2104 49.6929L39.269 51.4575L39.269 51.4575L40.2104 49.6929ZM37.1382 47.5679L38.4028 46.0185L38.353 45.9778L38.3007 45.9405L37.1382 47.5679ZM37.1313 47.563L35.7171 48.9773L35.8342 49.0943L35.9689 49.1905L37.1313 47.563ZM37.1255 47.5572L38.5397 46.143L38.4803 46.0836L38.4161 46.0294L37.1255 47.5572ZM35.3149 45.899L33.9117 47.3241L33.9121 47.3245L35.3149 45.899ZM35.3042 44.4849L33.8795 43.0813L33.8783 43.0825L35.3042 44.4849ZM36.7173 44.4742L35.3144 45.8997L35.3144 45.8997L36.7173 44.4742ZM38.4028 46.0181L37.1115 47.5454L37.1248 47.5566L37.1382 47.5675L38.4028 46.0181ZM40.8442 47.7574L39.8394 49.4867L43.0314 51.3413L42.8416 47.6546L40.8442 47.7574ZM40.6733 46.566L42.6018 46.0357L42.58 45.9567L42.5519 45.8797L40.6733 46.566ZM38.7681 41.9097L40.6107 41.1322L40.581 41.0616L40.5459 40.9935L38.7681 41.9097ZM34.0874 34.3218L35.7718 33.2435L35.7718 33.2435L34.0874 34.3218ZM32.6294 32.1343L34.2782 31.0023L32.3379 28.1762L30.8325 31.2561L32.6294 32.1343ZM29.606 37.5582L31.3243 38.5815L31.3243 38.5815L29.606 37.5582ZM25.9858 43.8189L27.7416 44.7766L27.7484 44.7643L27.7549 44.7519L25.9858 43.8189ZM25.98 43.8297L24.2242 42.8719L24.2214 42.8771L25.98 43.8297ZM23.7358 47.1295L22.2371 45.8052L22.2307 45.8124L23.7358 47.1295ZM23.7222 47.1451L25.1812 48.513L25.2047 48.4879L25.2273 48.4621L23.7222 47.1451ZM23.7075 47.1607L25.1513 48.5447L25.159 48.5367L25.1666 48.5286L23.7075 47.1607ZM23.5669 47.3013L22.1466 45.8932L18.8282 49.2401L23.541 49.3012L23.5669 47.3013ZM24.2788 47.2955L24.3426 49.2945L24.3427 49.2945L24.2788 47.2955ZM27.1177 46.8414L26.3676 44.9873L26.367 44.9876L27.1177 46.8414ZM28.4194 47.3922L30.2732 46.6414L30.2728 46.6406L28.4194 47.3922ZM27.8677 48.6949L28.6182 50.5487L28.6189 50.5484L27.8677 48.6949ZM24.3433 49.2945L24.4071 51.2935L24.4072 51.2935L24.3433 49.2945ZM20.646 48.9888L20.186 50.9352L20.1862 50.9353L20.646 48.9888ZM20.146 48.8707L18.2959 49.6304L18.6862 50.5808L19.686 50.8171L20.146 48.8707ZM19.9507 48.3951L21.8007 47.6353L21.8006 47.6349L19.9507 48.3951ZM19.645 46.0201L17.6456 45.9704L17.6456 45.9705L19.645 46.0201ZM19.7896 43.4L21.7874 43.4928L21.7884 43.4702L21.789 43.4475L19.7896 43.4ZM19.5991 41.4332L17.6641 41.9387L17.6642 41.9392L19.5991 41.4332ZM20.314 40.2134L19.8086 38.2783L19.8072 38.2787L20.314 40.2134ZM21.5347 40.9273L23.4696 40.4214L23.4694 40.4207L21.5347 40.9273ZM21.7896 43.4468L19.7901 43.3993L19.7896 43.4231V43.4468H21.7896ZM21.7896 43.4586L23.7573 43.8163L23.7896 43.6389V43.4586H21.7896ZM21.7876 43.4693L19.8199 43.1115L19.7958 43.2438L19.7897 43.3781L21.7876 43.4693ZM21.645 46.0699L19.6456 46.0202L19.6456 46.0203L21.645 46.0699ZM21.644 46.3746L19.644 46.3767L19.6489 50.9005L22.9916 47.8524L21.644 46.3746ZM22.2476 45.7935L23.6881 47.1809L23.7188 47.1491L23.748 47.1159L22.2476 45.7935ZM24.2163 42.8863L25.9745 43.8396L25.977 43.835L24.2163 42.8863ZM24.6362 42.107L22.8817 41.147L22.8756 41.1583L24.6362 42.107ZM27.8882 36.5347L29.6066 37.558L29.6066 37.558L27.8882 36.5347ZM31.1538 30.5806L32.9726 31.4126L32.9726 31.4126L31.1538 30.5806ZM31.3052 30.2388L33.1333 31.0499L33.5943 30.0109L32.9376 29.0833L31.3052 30.2388ZM27.4282 24.8746L29.0422 23.6935L29.0422 23.6935L27.4282 24.8746ZM21.9897 17.2261L20.2767 18.2584L20.2773 18.2594L21.9897 17.2261ZM22.3296 15.8531L21.2969 14.1403L21.2963 14.1407L22.3296 15.8531ZM23.7026 16.1939L21.9902 17.2272L21.9903 17.2272L23.7026 16.1939ZM29.0415 23.6939L27.4275 24.875L27.4275 24.875L29.0415 23.6939ZM32.1968 28.0455L30.5704 29.2095L32.7572 32.2648L34.0706 28.7446L32.1968 28.0455ZM35.1099 18.3326L37.0458 18.8346L37.0638 18.7655L37.0767 18.6952L35.1099 18.3326ZM35.1118 18.3218L33.1452 17.9581L33.1452 17.9582L35.1118 18.3218ZM35.1362 18.1939L37.1012 18.5665L37.1012 18.5664L35.1362 18.1939ZM35.2261 17.733L33.2652 17.3391L33.2652 17.3391L35.2261 17.733ZM35.5474 16.2613L33.6009 15.8015L33.6009 15.8015L35.5474 16.2613ZM36.0073 14.5513L34.0994 13.9513L34.0994 13.9514L36.0073 14.5513ZM36.6177 13.0943L38.3064 14.1658C38.0099 14.6332 37.3927 14.7697 36.9275 14.4747L37.9985 12.7857L39.0696 11.0967C37.6717 10.2102 35.8171 10.623 34.9289 12.0228L36.6177 13.0943ZM37.9985 12.7857L36.9265 14.4741C36.46 14.1779 36.3227 13.5608 36.6177 13.0951L38.3071 14.1656L39.9966 15.236C40.8824 13.838 40.4689 11.9852 39.0706 11.0973L37.9985 12.7857ZM38.3071 14.1656L36.6179 13.0949C36.3717 13.4832 36.1686 14.036 36.0067 14.5509L37.9146 15.1509L39.8224 15.751C39.89 15.536 39.9472 15.3783 39.9894 15.2738C40.0105 15.2218 40.0245 15.1912 40.0307 15.1782C40.0392 15.1606 40.0282 15.1861 39.9964 15.2363L38.3071 14.1656ZM37.9146 15.1509L36.0067 14.551C35.8359 15.094 35.6786 15.7013 35.5462 16.2615L37.4927 16.7213L39.4391 17.181C39.5598 16.67 39.692 16.1657 39.8224 15.7509L37.9146 15.1509ZM37.4927 16.7213L35.5462 16.2615C35.4135 16.8233 35.3033 17.3489 35.2262 17.7326L37.187 18.1265L39.1478 18.5204C39.2193 18.1647 39.3199 17.6856 39.4391 17.181L37.4927 16.7213ZM37.187 18.1265L35.2262 17.7327C35.1876 17.9248 35.157 18.0829 35.1361 18.1934L37.1011 18.566L39.0661 18.9385C39.0846 18.8408 39.1124 18.697 39.1478 18.5204L37.187 18.1265ZM37.1011 18.566L35.1361 18.1935C35.1253 18.25 35.1171 18.2946 35.112 18.3224L37.0786 18.6861L39.0453 19.0498C39.0501 19.0235 39.0571 18.986 39.0661 18.9385L37.1011 18.566ZM37.0786 18.6861L35.1121 18.3215C35.1132 18.3159 35.1139 18.3122 35.1133 18.3154C35.1132 18.3158 35.1131 18.3162 35.113 18.3168C35.1129 18.3174 35.1127 18.3182 35.1126 18.319C35.1122 18.3206 35.1117 18.3232 35.1112 18.3261C35.1102 18.3309 35.1079 18.3426 35.1054 18.3567L37.0728 18.7164L39.0402 19.076C39.0391 19.082 39.0382 19.0867 39.0376 19.0895C39.0371 19.0924 39.0367 19.0946 39.0365 19.0954C39.0363 19.0962 39.0363 19.0965 39.0364 19.0958C39.0365 19.0954 39.0366 19.095 39.0367 19.0944C39.0368 19.0938 39.037 19.093 39.0371 19.0921C39.0385 19.0851 39.0416 19.0696 39.0451 19.0507L37.0786 18.6861ZM37.0728 18.7164L35.0991 18.3931C35.0936 18.4264 35.0899 18.4541 35.0876 18.4727C35.0853 18.4911 35.0838 18.5056 35.0834 18.5097C35.0832 18.5108 35.0831 18.5118 35.0831 18.5118C35.0831 18.5121 35.0832 18.5114 35.0833 18.5104C35.0834 18.5089 35.0841 18.5028 35.085 18.4947C35.0859 18.487 35.0876 18.4722 35.0902 18.4536C35.0915 18.444 35.0932 18.4319 35.0954 18.4179C35.0975 18.404 35.1004 18.3864 35.1041 18.366L37.0718 18.7242L39.0394 19.0824C39.0432 19.0618 39.0461 19.044 39.0483 19.0299C39.0505 19.0157 39.0522 19.0033 39.0536 18.9935C39.0562 18.9744 39.058 18.9592 39.0589 18.9509C39.0599 18.9423 39.0606 18.9355 39.0609 18.9334C39.061 18.9321 39.0611 18.931 39.0611 18.931C39.0611 18.9307 39.0611 18.9313 39.061 18.9321C39.0607 18.9348 39.0593 18.9479 39.0572 18.9648C39.0551 18.9818 39.0517 19.0079 39.0465 19.0396L37.0728 18.7164ZM37.0718 18.7242H35.0718V18.7252H37.0718H39.0718V18.7242H37.0718ZM37.0718 18.7252L35.1066 18.3534L35.0998 18.3895L37.0649 18.7613L39.0301 19.1331L39.0369 19.0969L37.0718 18.7252ZM37.0649 18.7613L35.1308 18.2523L35.121 18.2894L37.0552 18.7984L38.9893 19.3074L38.9991 19.2703L37.0649 18.7613ZM37.0552 18.7984L35.1191 18.2966C33.8778 23.086 32.8444 26.5061 31.7287 29.2413L33.5806 29.9966L35.4324 30.752C36.6521 27.7618 37.7389 24.1319 38.9912 19.3002L37.0552 18.7984ZM33.5806 29.9966L31.9414 31.1425C32.7529 32.3034 33.4864 33.3831 34.0876 34.3221L35.772 33.2437L37.4564 32.1653C36.8139 31.1619 36.0461 30.0329 35.2198 28.8508L33.5806 29.9966ZM35.772 33.2437L34.0876 34.3221C35.8368 37.0543 37.4246 39.2963 38.7842 41.9413L40.563 41.0269L42.3417 40.1126C40.8668 37.2433 39.0836 34.7071 37.4563 32.1653L35.772 33.2437ZM40.563 41.0269L38.7741 41.9213L38.7907 41.9545L40.5796 41.0601L42.3684 40.1657L42.3518 40.1325L40.563 41.0269ZM40.5796 41.0601L38.7334 41.8294L38.7481 41.8645L40.5942 41.0953L42.4404 40.326L42.4257 40.2909L40.5796 41.0601ZM40.5942 41.0953L38.7515 41.8727C39.5485 43.7617 40.2529 45.4127 40.6844 46.5992L42.564 45.9156L44.4435 45.232C43.9679 43.9243 43.2095 42.1488 42.4369 40.3178L40.5942 41.0953ZM42.564 45.9156L40.7 46.6405L40.7136 46.6756L42.5776 45.9507L44.4416 45.2259L44.428 45.1907L42.564 45.9156ZM42.5776 45.9507L40.6374 46.4358L40.6461 46.471L42.5864 45.9859L44.5267 45.5008L44.5179 45.4657L42.5776 45.9507ZM42.5864 45.9859L40.6619 46.5301C40.7068 46.6891 40.7414 46.8437 40.7692 47.0128L42.7427 46.688L44.7161 46.3633C44.6642 46.0478 44.5972 45.7465 44.511 45.4417L42.5864 45.9859ZM42.7427 46.688L44.6417 47.3157C44.6842 47.187 44.7457 47.0047 44.7984 46.8422L42.896 46.2252L40.9936 45.6081C40.9437 45.7617 40.9006 45.8881 40.8437 46.0604L42.7427 46.688ZM42.896 46.2252L44.7984 46.8422C44.9969 46.2304 45.1974 45.5946 45.3851 44.9976L43.4771 44.398L41.569 43.7984C41.3818 44.3943 41.1859 45.0151 40.9935 45.6082L42.896 46.2252ZM43.4771 44.398L45.3851 44.9976C45.5734 44.3983 45.7468 43.8442 45.895 43.3873L43.9927 42.7701L42.0903 42.1528C41.9348 42.6322 41.754 43.2097 41.569 43.7984L43.4771 44.398ZM43.9927 42.7701L45.895 43.3874C45.7254 43.9101 45.1635 44.2001 44.6357 44.0291L45.2524 42.1265L45.8691 40.224C44.2909 39.7124 42.6008 40.5796 42.0903 42.1528L43.9927 42.7701ZM45.2524 42.1265L44.6352 44.0289C44.1085 43.858 43.8226 43.2939 43.9927 42.77L45.895 43.3873L47.7974 44.0045C48.3083 42.4299 47.4471 40.736 45.8697 40.2242L45.2524 42.1265ZM45.895 43.3873L43.9927 42.77C43.8406 43.2386 43.6632 43.8063 43.4772 44.398L45.3853 44.9976L47.2933 45.5972C47.4832 44.9929 47.6527 44.4503 47.7974 44.0045L45.895 43.3873ZM45.3853 44.9976L43.4772 44.398C43.2904 44.9927 43.0915 45.6221 42.8959 46.2253L44.7983 46.8423L46.7008 47.4594C46.9023 46.838 47.1056 46.1943 47.2933 45.5972L45.3853 44.9976ZM44.7983 46.8423L42.8959 46.2253C42.5533 47.2817 42.2268 48.2305 41.9848 48.7742L43.812 49.5875L45.6392 50.4007C45.9806 49.6337 46.368 48.4853 46.7008 47.4594L44.7983 46.8423ZM43.812 49.5875L42.0003 48.7402L41.8802 48.997L43.6919 49.8443L45.5036 50.6916L45.6237 50.4347L43.812 49.5875ZM43.6919 49.8443L41.9104 48.9354L41.6906 49.366L43.4722 50.275L45.2537 51.1839L45.4734 50.7532L43.6919 49.8443ZM43.4722 50.275L43.073 48.3152L42.5983 48.4119L42.9976 50.3716L43.3968 52.3314L43.8714 52.2347L43.4722 50.275ZM42.9976 50.3716L42.6024 48.4111C42.5855 48.4145 42.5406 48.4204 42.4583 48.4133C42.3749 48.4061 42.2693 48.3868 42.1404 48.3506L41.5991 50.2759L41.0578 52.2013C41.66 52.3706 42.4912 52.5139 43.3927 52.3322L42.9976 50.3716ZM41.5991 50.2759L42.1407 48.3507C41.8766 48.2764 41.5463 48.1388 41.1519 47.9284L40.2104 49.6929L39.269 51.4575C39.8192 51.7511 40.426 52.0236 41.0575 52.2012L41.5991 50.2759ZM40.2104 49.6929L41.1519 47.9284C40.3645 47.5083 39.4218 46.8502 38.4028 46.0185L37.1382 47.5679L35.8736 49.1174C37.0002 50.0369 38.1665 50.8692 39.269 51.4575L40.2104 49.6929ZM37.1382 47.5679L38.3007 45.9405L38.2938 45.9356L37.1313 47.563L35.9689 49.1905L35.9757 49.1954L37.1382 47.5679ZM37.1313 47.563L38.5456 46.1488L38.5397 46.143L37.1255 47.5572L35.7113 48.9714L35.7171 48.9773L37.1313 47.563ZM37.1255 47.5572L38.4161 46.0294C37.5869 45.3288 37.165 44.9136 36.7178 44.4735L35.3149 45.899L33.9121 47.3245C34.3907 47.7955 34.8943 48.2904 35.8348 49.085L37.1255 47.5572ZM35.3149 45.899L36.7182 44.4739C37.1131 44.8627 37.1157 45.4953 36.7301 45.8874L35.3042 44.4849L33.8783 43.0825C32.7185 44.2617 32.7301 46.1606 33.9117 47.3241L35.3149 45.899ZM35.3042 44.4849L36.7289 45.8885C36.341 46.2823 35.7075 46.2865 35.3144 45.8997L36.7173 44.4742L38.1202 43.0487C36.9401 41.8874 35.0422 41.9011 33.8795 43.0813L35.3042 44.4849ZM36.7173 44.4742L35.3144 45.8997C35.7762 46.3541 36.2363 46.8054 37.1115 47.5454L38.4028 46.0181L39.6942 44.4909C38.9281 43.8432 38.5484 43.4702 38.1202 43.0487L36.7173 44.4742ZM38.4028 46.0181L37.1382 47.5675C38.0784 48.3349 38.9985 48.9981 39.8394 49.4867L40.8442 47.7574L41.849 46.0281C41.2496 45.6798 40.5073 45.1542 39.6675 44.4687L38.4028 46.0181ZM40.8442 47.7574L42.8416 47.6546C42.8078 46.9984 42.7356 46.5224 42.6018 46.0357L40.6733 46.566L38.7449 47.0963C38.7858 47.2451 38.8245 47.4252 38.8469 47.8602L40.8442 47.7574ZM40.6733 46.566L42.5519 45.8797C42.1008 44.6448 41.3825 42.9612 40.6107 41.1322L38.7681 41.9097L36.9254 42.6873C37.7207 44.5721 38.3867 46.1351 38.7948 47.2522L40.6733 46.566ZM38.7681 41.9097L40.5459 40.9935C39.1327 38.2513 37.4522 35.8682 35.7718 33.2435L34.0874 34.3218L32.403 35.4002C34.2074 38.2187 35.6914 40.3056 36.9903 42.8259L38.7681 41.9097ZM34.0874 34.3218L35.7718 33.2435C35.3279 32.5502 34.8222 31.7947 34.2782 31.0023L32.6294 32.1343L30.9806 33.2663C31.5095 34.0368 31.9896 34.7545 32.403 35.4002L34.0874 34.3218ZM32.6294 32.1343L30.8325 31.2561C30.0311 32.8958 28.9896 34.6842 27.8876 36.5349L29.606 37.5582L31.3243 38.5815C32.4241 36.7348 33.544 34.8177 34.4263 33.0126L32.6294 32.1343ZM29.606 37.5582L27.8876 36.5349C26.6377 38.6337 25.306 40.8205 24.2168 42.886L25.9858 43.8189L27.7549 44.7519C28.7821 42.8041 30.0396 40.7389 31.3243 38.5815L29.606 37.5582ZM25.9858 43.8189L24.23 42.8612L24.2242 42.8719L25.98 43.8297L27.7358 44.7874L27.7416 44.7766L25.9858 43.8189ZM25.98 43.8297L24.2214 42.8771C23.5375 44.1396 22.9219 45.0302 22.2371 45.8052L23.7358 47.1295L25.2346 48.4537C26.1615 47.4047 26.9433 46.2504 27.7386 44.7822L25.98 43.8297ZM23.7358 47.1295L22.2307 45.8124L22.217 45.8281L23.7222 47.1451L25.2273 48.4621L25.241 48.4465L23.7358 47.1295ZM23.7222 47.1451L22.2631 45.7772L22.2484 45.7928L23.7075 47.1607L25.1666 48.5286L25.1812 48.513L23.7222 47.1451ZM23.7075 47.1607L22.2638 45.7767C22.2209 45.8214 22.2615 45.7774 22.1466 45.8932L23.5669 47.3013L24.9871 48.7095C25.0004 48.6961 25.0108 48.6859 25.0426 48.6546C25.0686 48.6289 25.1084 48.5895 25.1513 48.5447L23.7075 47.1607ZM23.5669 47.3013L23.541 49.3012C23.8011 49.3045 24.0699 49.3032 24.3426 49.2945L24.2788 47.2955L24.215 45.2965C24.0119 45.303 23.8039 45.3042 23.5928 45.3015L23.5669 47.3013ZM24.2788 47.2955L24.3427 49.2945C25.6078 49.254 26.9296 49.0753 27.8684 48.6951L27.1177 46.8414L26.367 44.9876C26.0793 45.1041 25.3136 45.2614 24.2149 45.2965L24.2788 47.2955ZM27.1177 46.8414L27.8677 48.6954C27.3575 48.9018 26.774 48.6567 26.566 48.1437L28.4194 47.3922L30.2728 46.6406C29.65 45.1047 27.9012 44.3669 26.3676 44.9873L27.1177 46.8414ZM28.4194 47.3922L26.5657 48.1429C26.3581 47.6303 26.6055 47.0484 27.1165 46.8413L27.8677 48.6949L28.6189 50.5484C30.1533 49.9265 30.8953 48.1776 30.2732 46.6414L28.4194 47.3922ZM27.8677 48.6949L27.1172 46.841C26.5034 47.0895 25.46 47.2578 24.2794 47.2955L24.3433 49.2945L24.4072 51.2935C25.758 51.2503 27.3556 51.0599 28.6182 50.5487L27.8677 48.6949ZM24.3433 49.2945L24.2794 47.2955C23.1139 47.3327 21.9404 47.2396 21.1058 47.0424L20.646 48.9888L20.1862 50.9353C21.4629 51.2368 23.0082 51.3382 24.4071 51.2935L24.3433 49.2945ZM20.646 48.9888L21.106 47.0424L20.606 46.9243L20.146 48.8707L19.686 50.8171L20.186 50.9352L20.646 48.9888ZM20.146 48.8707L21.9961 48.1109L21.8007 47.6353L19.9507 48.3951L18.1006 49.1549L18.2959 49.6304L20.146 48.8707ZM19.9507 48.3951L21.8006 47.6349C21.6789 47.3389 21.6252 46.8432 21.6444 46.0697L19.645 46.0201L17.6456 45.9705C17.6253 46.7907 17.6359 48.024 18.1008 49.1553L19.9507 48.3951ZM19.645 46.0201L21.6444 46.0697C21.6638 45.2901 21.7408 44.4968 21.7874 43.4928L19.7896 43.4L17.7917 43.3072C17.7596 43.9981 17.6646 45.206 17.6456 45.9704L19.645 46.0201ZM19.7896 43.4L21.789 43.4475C21.81 42.5622 21.7804 41.8691 21.534 40.9271L19.5991 41.4332L17.6642 41.9392C17.782 42.3896 17.8062 42.6762 17.7901 43.3524L19.7896 43.4ZM19.5991 41.4332L21.5342 40.9276C21.6745 41.4646 21.3519 42.009 20.8207 42.1482L20.314 40.2134L19.8072 38.2787C18.208 38.6976 17.2447 40.3335 17.6641 41.9387L19.5991 41.4332ZM20.314 40.2134L20.8193 42.1485C20.2876 42.2874 19.7403 41.9703 19.5999 41.4339L21.5347 40.9273L23.4694 40.4207C23.0494 38.8163 21.4086 37.8605 19.8086 38.2783L20.314 40.2134ZM21.5347 40.9273L19.5997 41.4333C19.7817 42.1294 19.8087 42.6192 19.7901 43.3993L21.7896 43.4468L23.789 43.4944C23.8125 42.5045 23.78 41.6085 23.4696 40.4214L21.5347 40.9273ZM21.7896 43.4468H19.7896V43.4586H21.7896H23.7896V43.4468H21.7896ZM21.7896 43.4586L19.8218 43.1008L19.8199 43.1115L21.7876 43.4693L23.7553 43.8271L23.7573 43.8163L21.7896 43.4586ZM21.7876 43.4693L19.7897 43.3781C19.7509 44.2273 19.6649 45.243 19.6456 46.0202L21.645 46.0699L23.6444 46.1195C23.6646 45.3055 23.7308 44.7592 23.7855 43.5605L21.7876 43.4693ZM21.645 46.0699L19.6456 46.0203C19.6421 46.1614 19.644 46.317 19.644 46.3767L21.644 46.3746L23.644 46.3724C23.6439 46.2399 23.6426 46.1916 23.6444 46.1194L21.645 46.0699ZM21.644 46.3746L22.9916 47.8524C23.2176 47.6464 23.4537 47.4243 23.6881 47.1809L22.2476 45.7935L20.807 44.4062C20.6579 44.561 20.4927 44.7178 20.2965 44.8967L21.644 46.3746ZM22.2476 45.7935L23.748 47.1159C24.5473 46.209 25.2411 45.1922 25.9745 43.8396L24.2163 42.8863L22.4581 41.933C21.8351 43.0821 21.3061 43.8369 20.7471 44.4711L22.2476 45.7935ZM24.2163 42.8863L25.977 43.835L26.3969 43.0557L24.6362 42.107L22.8756 41.1583L22.4556 41.9376L24.2163 42.8863ZM24.6362 42.107L26.3908 43.067C27.37 41.2773 28.4993 39.4174 29.6066 37.558L27.8882 36.5347L26.1698 35.5114C25.0899 37.3249 23.9063 39.2744 22.8817 41.147L24.6362 42.107ZM27.8882 36.5347L29.6066 37.558C30.8627 35.4486 32.0939 33.3335 32.9726 31.4126L31.1538 30.5806L29.3351 29.7487C28.5589 31.4455 27.4357 33.3857 26.1698 35.5114L27.8882 36.5347ZM31.1538 30.5806L32.9726 31.4126C33.0289 31.2893 33.0982 31.129 33.1333 31.0499L31.3052 30.2388L29.477 29.4278C29.4102 29.5783 29.3815 29.6471 29.3351 29.7487L31.1538 30.5806ZM31.3052 30.2388L32.9376 29.0833C31.6982 27.3325 30.3394 25.4662 29.0422 23.6935L27.4282 24.8746L25.8142 26.0557C27.1096 27.8258 28.4527 29.6709 29.6728 31.3944L31.3052 30.2388ZM27.4282 24.8746L29.0422 23.6935C26.6178 20.3804 24.4734 17.4711 23.7022 16.1929L21.9897 17.2261L20.2773 18.2594C21.1688 19.7368 23.4782 22.8634 25.8142 26.0557L27.4282 24.8746ZM21.9897 17.2261L23.7027 16.1938C23.9873 16.666 23.8362 17.2799 23.3628 17.5655L22.3296 15.8531L21.2963 14.1407C19.8776 14.9967 19.4224 16.8406 20.2767 18.2584L21.9897 17.2261ZM22.3296 15.8531L23.3622 17.5659C22.8866 17.8527 22.2738 17.6971 21.9902 17.2272L23.7026 16.1939L25.4151 15.1607C24.561 13.7452 22.7183 13.2834 21.2969 14.1403L22.3296 15.8531ZM23.7026 16.1939L21.9903 17.2272C22.8218 18.6053 25.0473 21.6224 27.4275 24.875L29.0415 23.6939L30.6555 22.5128C28.1864 19.1387 26.1264 16.3395 25.415 15.1606L23.7026 16.1939ZM29.0415 23.6939L27.4275 24.875C28.4648 26.2925 29.5429 27.7739 30.5704 29.2095L32.1968 28.0455L33.8231 26.8814C32.7838 25.4293 31.6963 23.9351 30.6555 22.5128L29.0415 23.6939ZM32.1968 28.0455L34.0706 28.7446C35.0453 26.1322 35.976 22.9597 37.0458 18.8346L35.1099 18.3326L33.1739 17.8305C32.1152 21.9129 31.2251 24.9283 30.3229 27.3464L32.1968 28.0455ZM35.1099 18.3326L37.0767 18.6952C37.0774 18.6917 37.0779 18.6887 37.0783 18.6868C37.0786 18.685 37.0789 18.6832 37.079 18.6826C37.0794 18.6804 37.079 18.6825 37.0785 18.6855L35.1118 18.3218L33.1452 17.9582C33.1439 17.9648 33.1429 17.9706 33.1426 17.9721C33.1424 17.9734 33.1424 17.9734 33.1424 17.9733C33.1424 17.9732 33.1427 17.9719 33.143 17.9699L35.1099 18.3326ZM35.1118 18.3218L37.0785 18.6856C37.0836 18.658 37.0865 18.6443 37.1012 18.5665L35.1362 18.1939L33.1712 17.8213C33.1652 17.8531 33.1511 17.9262 33.1452 17.9581L35.1118 18.3218ZM35.1362 18.1939L37.1012 18.5664C37.1214 18.4599 37.1502 18.3094 37.1869 18.1268L35.2261 17.733L33.2652 17.3391C33.2246 17.5413 33.1929 17.7073 33.1712 17.8214L35.1362 18.1939ZM35.2261 17.733L37.1869 18.1268C37.2607 17.7595 37.3673 17.2565 37.4938 16.7211L35.5474 16.2613L33.6009 15.8015C33.4621 16.3893 33.3459 16.9374 33.2652 17.3391L35.2261 17.733ZM35.5474 16.2613L37.4938 16.7211C37.6203 16.1854 37.7646 15.6302 37.9152 15.1513L36.0073 14.5513L34.0994 13.9514C33.9082 14.5595 33.7387 15.2184 33.6009 15.8015L35.5474 16.2613ZM36.0073 14.5513L37.9152 15.1513C38.0745 14.6447 38.2129 14.3133 38.3067 14.1653L36.6177 13.0943L34.9286 12.0233C34.5308 12.6507 34.2654 13.4236 34.0994 13.9513L36.0073 14.5513Z" fill="white" mask="url(#path-1-outside-1_34_91)"/>
</svg>
