<svg width="64" height="64" viewBox="0 0 64 64" fill="none" xmlns="http://www.w3.org/2000/svg">
<mask id="path-1-outside-1_34_99" maskUnits="userSpaceOnUse" x="22.1604" y="8.10071" width="20" height="47" fill="black">
<rect fill="white" x="22.1604" y="8.10071" width="20" height="47"/>
<path d="M30.9045 11.8781C31.0276 11.3398 31.5645 11.0032 32.1028 11.1261C32.6408 11.2493 32.9774 11.7852 32.8547 12.3234C32.8156 12.4949 32.7947 12.8539 32.8137 13.3829C32.8318 13.8847 32.8809 14.4568 32.9407 15.004C33.0001 15.5488 33.0697 16.0574 33.1233 16.4308C33.15 16.6171 33.1725 16.7694 33.1887 16.8741C33.1968 16.9264 33.203 16.9671 33.2073 16.9943C33.2094 17.0076 33.2101 17.0179 33.2112 17.0245C33.2117 17.0279 33.2139 17.0308 33.2141 17.0323V17.0333L33.22 17.0704L33.2229 17.1085C33.6631 22.1515 33.842 25.8725 33.6829 28.9962C34.0133 30.6257 34.3023 32.155 34.5071 33.4572C34.9936 36.5501 35.5767 39.4148 35.7668 42.5089L35.7698 42.547L35.7688 42.5851C35.7401 44.6035 35.7217 46.466 35.636 47.7902L35.634 47.8273L35.6282 47.8634C35.595 48.1022 35.5504 48.3315 35.4895 48.5695C35.5955 48.4517 35.7052 48.3313 35.8157 48.2072C36.2367 47.7339 36.67 47.2376 37.0813 46.7667C37.4909 46.2977 37.881 45.8512 38.2083 45.4835C38.5754 45.071 39.2078 45.0335 39.6204 45.4005C40.0328 45.7677 40.0695 46.4001 39.7024 46.8126C39.3829 47.1717 39.0006 47.6099 38.5881 48.0822C38.1773 48.5526 37.7377 49.0553 37.3098 49.5363C36.5823 50.354 35.8344 51.1715 35.304 51.6544L35.0901 51.84L34.7161 52.1476L34.2424 52.0441C33.7711 51.9413 33.3527 51.685 33.0002 51.3956C32.6409 51.1004 32.2944 50.7243 31.9631 50.3038C31.8816 50.2004 31.7995 50.0928 31.718 49.9816C31.6221 50.021 31.5269 50.0622 31.4309 50.0997C30.2361 50.5667 28.9223 50.9284 27.844 51.046L27.3333 51.1027L26.9905 50.7189C26.4757 50.1443 26.157 49.3407 25.9094 48.5831C25.6695 47.849 25.4153 46.8766 25.1692 46.0646C24.9259 45.3227 24.7374 44.8697 24.3333 44.2745C24.0233 43.8177 24.1423 43.1961 24.5989 42.8859C25.0558 42.5759 25.6784 42.6947 25.9885 43.1515C26.5352 43.9567 26.7947 44.6003 27.0706 45.4415L27.0735 45.4513L27.0764 45.462C27.3746 46.4429 27.5625 47.2054 27.8098 47.962C27.8429 48.0634 27.8782 48.1586 27.9104 48.2491C28.0451 47.9972 28.1722 47.7519 28.2864 47.5001C28.5912 46.7408 28.8288 45.9264 29.0256 44.9161C29.0185 44.8982 29.0113 44.8803 29.0042 44.8624C28.8532 44.4842 28.9502 44.0683 29.217 43.7941L29.3059 43.2267C29.6384 41.1661 30.0919 38.985 30.509 36.8888C30.99 34.4715 31.4224 32.1671 31.5979 30.1857C31.628 29.8456 31.6506 29.4975 31.6711 29.1407C31.2323 26.9915 30.7226 24.6634 30.2297 22.4415C29.3569 18.5065 28.5293 14.848 28.3215 13.2521C28.2505 12.7046 28.6373 12.2023 29.1848 12.131C29.7322 12.06 30.2336 12.4469 30.3049 12.9943C30.4285 13.9431 30.8011 15.7311 31.2854 17.9484C31.2679 17.7411 31.2521 17.5308 31.2336 17.3185C31.2331 17.3154 31.2322 17.3121 31.2317 17.3087C31.2269 17.2788 31.2207 17.2342 31.2122 17.1788C31.195 17.0679 31.1706 16.909 31.1428 16.715C31.0871 16.3268 31.016 15.7945 30.9534 15.2208C30.891 14.6494 30.8362 14.0246 30.8157 13.4552C30.7962 12.9134 30.8024 12.3256 30.9045 11.8781ZM30.3303 47.7433C30.2676 47.9181 30.2038 48.0911 30.135 48.2618L30.1272 48.2804L30.1194 48.2999C30.092 48.3607 30.0617 48.4198 30.0334 48.4796C30.2296 48.4129 30.4259 48.3408 30.6213 48.2657C30.524 48.0952 30.4265 47.9211 30.3303 47.7433ZM32.47 37.2784C31.9865 39.708 31.4766 42.1447 31.1497 44.3898L31.1477 44.4015C31.1321 44.501 31.1142 44.5987 31.0979 44.6954C31.267 45.103 31.4668 45.5636 31.7844 46.212C32.0024 46.6383 32.2232 47.0379 32.4387 47.4093C32.759 47.2211 33.0275 47.0362 33.2258 46.8605C33.3626 46.7392 33.5236 46.6618 33.6907 46.6281C33.7314 45.5043 33.7482 44.1218 33.7698 42.5958C33.6194 40.1904 33.2276 37.9651 32.8157 35.4982C32.7041 36.0883 32.5884 36.6833 32.47 37.2784Z"/>
</mask>
<path d="M30.9045 11.8781C31.0276 11.3398 31.5645 11.0032 32.1028 11.1261C32.6408 11.2493 32.9774 11.7852 32.8547 12.3234C32.8156 12.4949 32.7947 12.8539 32.8137 13.3829C32.8318 13.8847 32.8809 14.4568 32.9407 15.004C33.0001 15.5488 33.0697 16.0574 33.1233 16.4308C33.15 16.6171 33.1725 16.7694 33.1887 16.8741C33.1968 16.9264 33.203 16.9671 33.2073 16.9943C33.2094 17.0076 33.2101 17.0179 33.2112 17.0245C33.2117 17.0279 33.2139 17.0308 33.2141 17.0323V17.0333L33.22 17.0704L33.2229 17.1085C33.6631 22.1515 33.842 25.8725 33.6829 28.9962C34.0133 30.6257 34.3023 32.155 34.5071 33.4572C34.9936 36.5501 35.5767 39.4148 35.7668 42.5089L35.7698 42.547L35.7688 42.5851C35.7401 44.6035 35.7217 46.466 35.636 47.7902L35.634 47.8273L35.6282 47.8634C35.595 48.1022 35.5504 48.3315 35.4895 48.5695C35.5955 48.4517 35.7052 48.3313 35.8157 48.2072C36.2367 47.7339 36.67 47.2376 37.0813 46.7667C37.4909 46.2977 37.881 45.8512 38.2083 45.4835C38.5754 45.071 39.2078 45.0335 39.6204 45.4005C40.0328 45.7677 40.0695 46.4001 39.7024 46.8126C39.3829 47.1717 39.0006 47.6099 38.5881 48.0822C38.1773 48.5526 37.7377 49.0553 37.3098 49.5363C36.5823 50.354 35.8344 51.1715 35.304 51.6544L35.0901 51.84L34.7161 52.1476L34.2424 52.0441C33.7711 51.9413 33.3527 51.685 33.0002 51.3956C32.6409 51.1004 32.2944 50.7243 31.9631 50.3038C31.8816 50.2004 31.7995 50.0928 31.718 49.9816C31.6221 50.021 31.5269 50.0622 31.4309 50.0997C30.2361 50.5667 28.9223 50.9284 27.844 51.046L27.3333 51.1027L26.9905 50.7189C26.4757 50.1443 26.157 49.3407 25.9094 48.5831C25.6695 47.849 25.4153 46.8766 25.1692 46.0646C24.9259 45.3227 24.7374 44.8697 24.3333 44.2745C24.0233 43.8177 24.1423 43.1961 24.5989 42.8859C25.0558 42.5759 25.6784 42.6947 25.9885 43.1515C26.5352 43.9567 26.7947 44.6003 27.0706 45.4415L27.0735 45.4513L27.0764 45.462C27.3746 46.4429 27.5625 47.2054 27.8098 47.962C27.8429 48.0634 27.8782 48.1586 27.9104 48.2491C28.0451 47.9972 28.1722 47.7519 28.2864 47.5001C28.5912 46.7408 28.8288 45.9264 29.0256 44.9161C29.0185 44.8982 29.0113 44.8803 29.0042 44.8624C28.8532 44.4842 28.9502 44.0683 29.217 43.7941L29.3059 43.2267C29.6384 41.1661 30.0919 38.985 30.509 36.8888C30.99 34.4715 31.4224 32.1671 31.5979 30.1857C31.628 29.8456 31.6506 29.4975 31.6711 29.1407C31.2323 26.9915 30.7226 24.6634 30.2297 22.4415C29.3569 18.5065 28.5293 14.848 28.3215 13.2521C28.2505 12.7046 28.6373 12.2023 29.1848 12.131C29.7322 12.06 30.2336 12.4469 30.3049 12.9943C30.4285 13.9431 30.8011 15.7311 31.2854 17.9484C31.2679 17.7411 31.2521 17.5308 31.2336 17.3185C31.2331 17.3154 31.2322 17.3121 31.2317 17.3087C31.2269 17.2788 31.2207 17.2342 31.2122 17.1788C31.195 17.0679 31.1706 16.909 31.1428 16.715C31.0871 16.3268 31.016 15.7945 30.9534 15.2208C30.891 14.6494 30.8362 14.0246 30.8157 13.4552C30.7962 12.9134 30.8024 12.3256 30.9045 11.8781ZM30.3303 47.7433C30.2676 47.9181 30.2038 48.0911 30.135 48.2618L30.1272 48.2804L30.1194 48.2999C30.092 48.3607 30.0617 48.4198 30.0334 48.4796C30.2296 48.4129 30.4259 48.3408 30.6213 48.2657C30.524 48.0952 30.4265 47.9211 30.3303 47.7433ZM32.47 37.2784C31.9865 39.708 31.4766 42.1447 31.1497 44.3898L31.1477 44.4015C31.1321 44.501 31.1142 44.5987 31.0979 44.6954C31.267 45.103 31.4668 45.5636 31.7844 46.212C32.0024 46.6383 32.2232 47.0379 32.4387 47.4093C32.759 47.2211 33.0275 47.0362 33.2258 46.8605C33.3626 46.7392 33.5236 46.6618 33.6907 46.6281C33.7314 45.5043 33.7482 44.1218 33.7698 42.5958C33.6194 40.1904 33.2276 37.9651 32.8157 35.4982C32.7041 36.0883 32.5884 36.6833 32.47 37.2784Z" fill="black"/>
<path d="M30.9045 11.8781L28.9549 11.4323L28.9547 11.433L30.9045 11.8781ZM32.1028 11.1261L32.5491 9.17654L32.5479 9.17627L32.1028 11.1261ZM32.8547 12.3234L34.8047 12.7681L34.8047 12.7679L32.8547 12.3234ZM32.8137 13.3829L30.815 13.4549L30.815 13.4549L32.8137 13.3829ZM32.9407 15.004L30.9525 15.221L30.9525 15.221L32.9407 15.004ZM33.1233 16.4308L31.1435 16.7147L31.1436 16.7147L33.1233 16.4308ZM33.1887 16.8741L31.2122 17.1796L31.2122 17.1797L33.1887 16.8741ZM33.2073 16.9943L31.2321 17.3086L31.2322 17.3089L33.2073 16.9943ZM33.2112 17.0245L31.2361 17.3392L31.2368 17.3434L33.2112 17.0245ZM33.2141 17.0323H35.2141V16.8714L35.1884 16.7125L33.2141 17.0323ZM33.2141 17.0333H31.2141V17.1902L31.2386 17.3453L33.2141 17.0333ZM33.22 17.0704L35.2141 16.917L35.208 16.8374L35.1955 16.7585L33.22 17.0704ZM33.2229 17.1085L31.2288 17.2619L31.2296 17.2722L31.2305 17.2825L33.2229 17.1085ZM33.6829 28.9962L31.6855 28.8945L31.6726 29.1464L31.7228 29.3937L33.6829 28.9962ZM34.5071 33.4572L32.5314 33.7679L32.5314 33.7679L34.5071 33.4572ZM35.7668 42.5089L33.7706 42.6316L33.7716 42.647L33.7727 42.6623L35.7668 42.5089ZM35.7698 42.547L37.7691 42.5983L37.7717 42.4958L37.7639 42.3936L35.7698 42.547ZM35.7688 42.5851L33.7695 42.5338L33.7692 42.5453L33.769 42.5567L35.7688 42.5851ZM35.636 47.7902L33.6402 47.661L33.6394 47.673L33.6388 47.685L35.636 47.7902ZM35.634 47.8273L37.6082 48.1474L37.6256 48.0405L37.6313 47.9324L35.634 47.8273ZM35.6282 47.8634L33.654 47.5433L33.6503 47.5659L33.6471 47.5886L35.6282 47.8634ZM35.4895 48.5695L33.5519 48.0739L36.9763 49.9071L35.4895 48.5695ZM35.8157 48.2072L37.3099 49.5365L37.3099 49.5365L35.8157 48.2072ZM37.0813 46.7667L35.575 45.4511L35.575 45.4511L37.0813 46.7667ZM38.2083 45.4835L36.7142 44.1539L36.7142 44.154L38.2083 45.4835ZM39.6204 45.4005L40.9502 43.9067L40.9496 43.9062L39.6204 45.4005ZM39.7024 46.8126L41.1965 48.1422L41.1965 48.1422L39.7024 46.8126ZM38.5881 48.0822L40.0945 49.3978L40.0945 49.3978L38.5881 48.0822ZM37.3098 49.5363L38.8041 50.8656L38.8041 50.8656L37.3098 49.5363ZM35.304 51.6544L36.6146 53.1651L36.6327 53.1494L36.6504 53.1333L35.304 51.6544ZM35.0901 51.84L36.3605 53.3846L36.3808 53.3679L36.4007 53.3507L35.0901 51.84ZM34.7161 52.1476L34.289 54.1015L35.237 54.3087L35.9865 53.6923L34.7161 52.1476ZM34.2424 52.0441L34.6695 50.0902L34.6686 50.09L34.2424 52.0441ZM33.0002 51.3956L31.7308 52.9411L31.731 52.9413L33.0002 51.3956ZM31.9631 50.3038L30.392 51.5414L30.3921 51.5415L31.9631 50.3038ZM31.718 49.9816L33.3311 48.7992L32.405 47.5358L30.9565 48.1322L31.718 49.9816ZM31.4309 50.0997L32.159 51.9625L32.159 51.9625L31.4309 50.0997ZM27.844 51.046L27.627 49.0578L27.6235 49.0582L27.844 51.046ZM27.3333 51.1027L25.8416 52.4349L26.5286 53.2042L27.5537 53.0905L27.3333 51.1027ZM26.9905 50.7189L28.4822 49.3866L28.4801 49.3843L26.9905 50.7189ZM25.9094 48.5831L24.0084 49.2044L24.0084 49.2045L25.9094 48.5831ZM25.1692 46.0646L27.0832 45.4845L27.0767 45.4628L27.0696 45.4413L25.1692 46.0646ZM24.3333 44.2745L22.6783 45.3976L22.6786 45.398L24.3333 44.2745ZM24.5989 42.8859L23.476 41.2308L23.4748 41.2316L24.5989 42.8859ZM25.9885 43.1515L27.6432 42.0281L27.6432 42.028L25.9885 43.1515ZM27.0706 45.4415L28.9862 44.8668L28.9789 44.8425L28.971 44.8183L27.0706 45.4415ZM27.0735 45.4513L29.003 44.9251L28.9964 44.9007L28.9891 44.8766L27.0735 45.4513ZM27.0764 45.462L25.1469 45.9883L25.1545 46.0161L25.1629 46.0436L27.0764 45.462ZM27.8098 47.962L25.9088 48.5833L25.9088 48.5835L27.8098 47.962ZM27.9104 48.2491L26.0261 48.9194L27.5422 53.1816L29.6743 49.1918L27.9104 48.2491ZM28.2864 47.5001L30.1077 48.3264L30.1259 48.2862L30.1424 48.2452L28.2864 47.5001ZM29.0256 44.9161L30.9887 45.2986L31.1013 44.7208L30.8829 44.1741L29.0256 44.9161ZM29.0042 44.8624L27.1466 45.6036L27.1468 45.6042L29.0042 44.8624ZM29.217 43.7941L30.6505 45.1888L31.0944 44.7325L31.193 44.1035L29.217 43.7941ZM29.3059 43.2267L27.3314 42.9081L27.33 42.9172L29.3059 43.2267ZM30.509 36.8888L32.4706 37.2791L32.4706 37.2791L30.509 36.8888ZM31.5979 30.1857L33.5901 30.3621L33.5901 30.3621L31.5979 30.1857ZM31.6711 29.1407L33.6678 29.2558L33.6828 28.9958L33.6307 28.7406L31.6711 29.1407ZM30.2297 22.4415L32.1823 22.0084L32.1823 22.0084L30.2297 22.4415ZM28.3215 13.2521L26.3381 13.5093L26.3383 13.5103L28.3215 13.2521ZM29.1848 12.131L28.9276 10.1476L28.9266 10.1477L29.1848 12.131ZM30.3049 12.9943L32.2882 12.736L32.2882 12.7357L30.3049 12.9943ZM31.2854 17.9484L29.3315 18.3752L33.2783 17.7798L31.2854 17.9484ZM31.2336 17.3185L33.2261 17.1448L33.2192 17.0656L33.206 16.9871L31.2336 17.3185ZM31.2317 17.3087L29.2565 17.6231L29.2581 17.6324L31.2317 17.3087ZM31.2122 17.1788L29.2356 17.4843L29.2356 17.4843L31.2122 17.1788ZM31.1428 16.715L29.1631 16.9989L29.1631 16.9989L31.1428 16.715ZM30.9534 15.2208L28.9652 15.4378L28.9652 15.4378L30.9534 15.2208ZM30.8157 13.4552L28.817 13.5272L28.817 13.5272L30.8157 13.4552ZM30.3303 47.7433L32.0893 46.7915L29.9591 42.8546L28.4478 47.068L30.3303 47.7433ZM30.135 48.2618L31.9783 49.038L31.9843 49.0237L31.9901 49.0093L30.135 48.2618ZM30.1272 48.2804L28.2839 47.5043L28.2769 47.5209L28.2702 47.5376L30.1272 48.2804ZM30.1194 48.2999L31.9428 49.1216L31.9604 49.0825L31.9763 49.0427L30.1194 48.2999ZM30.0334 48.4796L28.2243 47.6269L26.2148 51.8904L30.6772 50.3732L30.0334 48.4796ZM30.6213 48.2657L31.3382 50.1329L33.5133 49.2978L32.3583 47.2743L30.6213 48.2657ZM32.47 37.2784L34.4315 37.6688L34.4315 37.6688L32.47 37.2784ZM31.1497 44.3898L33.1224 44.7186L33.1258 44.6983L33.1288 44.678L31.1497 44.3898ZM31.1477 44.4015L29.1749 44.0727L29.1734 44.082L29.1719 44.0912L31.1477 44.4015ZM31.0979 44.6954L29.1256 44.3635L29.0302 44.9307L29.2506 45.462L31.0979 44.6954ZM31.7844 46.212L29.9883 47.0918L29.9959 47.1074L30.0038 47.1228L31.7844 46.212ZM32.4387 47.4093L30.7089 48.4132L31.7183 50.1525L33.4521 49.1336L32.4387 47.4093ZM33.2258 46.8605L34.5525 48.3571L34.5527 48.3569L33.2258 46.8605ZM33.6907 46.6281L34.0866 48.5885L35.6322 48.2763L35.6894 46.7006L33.6907 46.6281ZM33.7698 42.5958L35.7696 42.6241L35.7707 42.5475L35.7659 42.4711L33.7698 42.5958ZM32.8157 35.4982L34.7884 35.1688L30.8505 35.1265L32.8157 35.4982ZM30.9045 11.8781L32.8542 12.3239C32.7308 12.8638 32.1942 13.1984 31.6576 13.0759L32.1028 11.1261L32.5479 9.17627C30.9347 8.80796 29.3245 9.81578 28.9549 11.4323L30.9045 11.8781ZM32.1028 11.1261L31.6564 13.0757C31.1185 12.9525 30.7821 12.417 30.9048 11.8788L32.8547 12.3234L34.8047 12.7679C35.1727 11.1535 34.1631 9.54604 32.5491 9.17654L32.1028 11.1261ZM32.8547 12.3234L30.9048 11.8786C30.8027 12.3263 30.7956 12.9141 30.815 13.4549L32.8137 13.3829L34.8124 13.311C34.8043 13.0861 34.8056 12.9187 34.8105 12.8063C34.813 12.7505 34.8159 12.7169 34.8175 12.7026C34.8196 12.6832 34.8178 12.7106 34.8047 12.7681L32.8547 12.3234ZM32.8137 13.3829L30.815 13.4549C30.8355 14.0236 30.89 14.6484 30.9525 15.221L32.9407 15.004L34.9289 14.787C34.8719 14.2652 34.8281 13.7458 34.8124 13.311L32.8137 13.3829ZM32.9407 15.004L30.9525 15.221C31.0154 15.7975 31.0885 16.3309 31.1435 16.7147L33.1233 16.4308L35.103 16.1469C35.051 15.7839 34.9849 15.3001 34.9289 14.787L32.9407 15.004ZM33.1233 16.4308L31.1436 16.7147C31.1707 16.9044 31.1944 17.0647 31.2122 17.1796L33.1887 16.8741L35.1653 16.5687C35.1506 16.4741 35.1293 16.3298 35.103 16.1468L33.1233 16.4308ZM33.1887 16.8741L31.2122 17.1797C31.2186 17.2208 31.227 17.2761 31.2321 17.3086L33.2073 16.9943L35.1824 16.6799C35.179 16.6582 35.175 16.632 35.1652 16.5686L33.1887 16.8741ZM33.2073 16.9943L31.2322 17.3089C31.2263 17.2719 31.2231 17.2435 31.2225 17.2386C31.2225 17.2381 31.2224 17.2378 31.2225 17.2381C31.2225 17.2383 31.2225 17.2384 31.2225 17.2388C31.2226 17.2392 31.2226 17.2397 31.2227 17.2403C31.2229 17.2422 31.2235 17.2477 31.2243 17.2543C31.2251 17.2611 31.2264 17.2719 31.2282 17.2851C31.2299 17.2982 31.2325 17.3169 31.2361 17.3392L33.2112 17.0245L35.1863 16.7099C35.1896 16.7305 35.1919 16.7474 35.1934 16.7586C35.1949 16.7699 35.196 16.7788 35.1965 16.7834C35.1968 16.7859 35.197 16.7878 35.1972 16.789C35.1972 16.7896 35.1973 16.79 35.1973 16.7903C35.1974 16.7906 35.1974 16.7908 35.1974 16.7908C35.1974 16.7908 35.1974 16.7908 35.1973 16.7905C35.1973 16.7903 35.1973 16.7898 35.1972 16.7894C35.1971 16.7885 35.1969 16.787 35.1967 16.7852C35.195 16.7701 35.1904 16.73 35.1824 16.6797L33.2073 16.9943ZM33.2112 17.0245L31.2368 17.3434C31.2497 17.4237 31.2662 17.4949 31.2829 17.5556C31.2996 17.6164 31.3172 17.6691 31.333 17.7124C31.3488 17.7557 31.3638 17.7922 31.3758 17.82C31.3877 17.8477 31.3979 17.8696 31.4038 17.8822C31.4068 17.8886 31.4092 17.8936 31.4104 17.8959C31.4109 17.8971 31.4114 17.898 31.4114 17.8981C31.4116 17.8984 31.4112 17.8976 31.4108 17.8968C31.41 17.8952 31.4074 17.8898 31.4041 17.8827C31.4007 17.8756 31.3954 17.8643 31.3891 17.8503C31.3829 17.8363 31.3744 17.8169 31.3648 17.7937C31.3552 17.7706 31.3431 17.74 31.3302 17.7036C31.3236 17.6852 31.3165 17.6644 31.3092 17.6416C31.3019 17.6187 31.2941 17.593 31.2863 17.5647C31.2785 17.5364 31.2704 17.5046 31.2625 17.4696C31.2547 17.4347 31.2468 17.3954 31.2398 17.3522L33.2141 17.0323L35.1884 16.7125C35.1814 16.6692 35.1735 16.6298 35.1657 16.5948C35.1578 16.5597 35.1496 16.5277 35.1418 16.4994C35.134 16.471 35.1261 16.4452 35.1188 16.4222C35.1115 16.3992 35.1043 16.3783 35.0977 16.3598C35.0846 16.3232 35.0724 16.2924 35.0628 16.269C35.0531 16.2455 35.0445 16.2259 35.0381 16.2116C35.0317 16.1973 35.0263 16.1857 35.0228 16.1783C35.0193 16.171 35.0166 16.1653 35.0157 16.1634C35.0152 16.1624 35.0147 16.1614 35.0148 16.1616C35.0148 16.1616 35.0148 16.1616 35.0148 16.1616C35.0148 16.1616 35.0148 16.1616 35.0148 16.1616C35.0148 16.1617 35.0149 16.1617 35.0149 16.1617C35.0149 16.1618 35.015 16.1619 35.015 16.162C35.0152 16.1623 35.0154 16.1627 35.0156 16.1633C35.0166 16.1653 35.0188 16.17 35.0217 16.176C35.0273 16.188 35.0372 16.2092 35.0488 16.2361C35.0605 16.2632 35.0752 16.2989 35.0907 16.3415C35.1062 16.384 35.1235 16.436 35.14 16.4959C35.1565 16.5559 35.1728 16.6262 35.1856 16.7057L33.2112 17.0245ZM33.2141 17.0323H31.2141V17.0333H33.2141H35.2141V17.0323H33.2141ZM33.2141 17.0333L31.2386 17.3453L31.2444 17.3824L33.22 17.0704L35.1955 16.7585L35.1896 16.7214L33.2141 17.0333ZM33.22 17.0704L31.2259 17.2238L31.2288 17.2619L33.2229 17.1085L35.217 16.9551L35.2141 16.917L33.22 17.0704ZM33.2229 17.1085L31.2305 17.2825C31.6689 22.3045 31.8373 25.9135 31.6855 28.8945L33.6829 28.9962L35.6803 29.098C35.8467 25.8315 35.6574 21.9985 35.2153 16.9346L33.2229 17.1085ZM33.6829 28.9962L31.7228 29.3937C32.0508 31.0112 32.3332 32.5078 32.5314 33.7679L34.5071 33.4572L36.4828 33.1464C36.2713 31.8021 35.9758 30.2402 35.643 28.5987L33.6829 28.9962ZM34.5071 33.4572L32.5314 33.7679C33.0354 36.9722 33.5882 39.6634 33.7706 42.6316L35.7668 42.5089L37.7631 42.3862C37.5652 39.1663 36.9518 36.1281 36.4828 33.1464L34.5071 33.4572ZM35.7668 42.5089L33.7727 42.6623L33.7757 42.7004L35.7698 42.547L37.7639 42.3936L37.761 42.3555L35.7668 42.5089ZM35.7698 42.547L33.7704 42.4957L33.7695 42.5338L35.7688 42.5851L37.7681 42.6363L37.7691 42.5983L35.7698 42.547ZM35.7688 42.5851L33.769 42.5567C33.7399 44.6067 33.7217 46.4012 33.6402 47.661L35.636 47.7902L37.6318 47.9193C37.7217 46.5308 37.7404 44.6003 37.7686 42.6135L35.7688 42.5851ZM35.636 47.7902L33.6388 47.685L33.6368 47.7222L35.634 47.8273L37.6313 47.9324L37.6332 47.8953L35.636 47.7902ZM35.634 47.8273L33.6598 47.5071L33.654 47.5433L35.6282 47.8634L37.6024 48.1835L37.6082 48.1474L35.634 47.8273ZM35.6282 47.8634L33.6471 47.5886C33.6241 47.7545 33.5938 47.91 33.5519 48.0739L35.4895 48.5695L37.4271 49.065C37.507 48.7529 37.566 48.4499 37.6092 48.1382L35.6282 47.8634ZM35.4895 48.5695L36.9763 49.9071C37.0694 49.8037 37.1957 49.6649 37.3099 49.5365L35.8157 48.2072L34.3214 46.8778C34.2148 46.9977 34.1216 47.0996 34.0027 47.2318L35.4895 48.5695ZM35.8157 48.2072L37.3099 49.5365C37.7381 49.0552 38.1777 48.5517 38.5876 48.0824L37.0813 46.7667L35.575 45.4511C35.1623 45.9235 34.7352 46.4127 34.3214 46.8778L35.8157 48.2072ZM37.0813 46.7667L38.5876 48.0824C38.999 47.6114 39.3825 47.1725 39.7023 46.8131L38.2083 45.4835L36.7142 44.154C36.3796 44.53 35.9829 44.984 35.575 45.4511L37.0813 46.7667ZM38.2083 45.4835L39.7023 46.8131C39.3367 47.224 38.7053 47.2633 38.2911 46.8948L39.6204 45.4005L40.9496 43.9062C39.7103 42.8037 37.814 42.918 36.7142 44.1539L38.2083 45.4835ZM39.6204 45.4005L38.2905 46.8943C37.8778 46.5269 37.8415 45.8953 38.2083 45.4831L39.7024 46.8126L41.1965 48.1422C42.2975 46.9049 42.1879 45.0085 40.9502 43.9067L39.6204 45.4005ZM39.7024 46.8126L38.2083 45.4831C37.8811 45.8508 37.4914 46.2976 37.0818 46.7665L38.5881 48.0822L40.0945 49.3978C40.5098 48.9223 40.8846 48.4926 41.1965 48.1422L39.7024 46.8126ZM38.5881 48.0822L37.0818 46.7665C36.6706 47.2373 36.2366 47.7337 35.8156 48.2069L37.3098 49.5363L38.8041 50.8656C39.2388 50.377 39.684 49.8678 40.0945 49.3978L38.5881 48.0822ZM37.3098 49.5363L35.8156 48.2069C35.0766 49.0376 34.3972 49.7752 33.9575 50.1756L35.304 51.6544L36.6504 53.1333C37.2715 52.5678 38.088 51.6705 38.8041 50.8656L37.3098 49.5363ZM35.304 51.6544L33.9933 50.1437L33.7794 50.3293L35.0901 51.84L36.4007 53.3507L36.6146 53.1651L35.304 51.6544ZM35.0901 51.84L33.8197 50.2953L33.4456 50.6029L34.7161 52.1476L35.9865 53.6923L36.3605 53.3846L35.0901 51.84ZM34.7161 52.1476L35.1431 50.1937L34.6695 50.0902L34.2424 52.0441L33.8154 53.9979L34.289 54.1015L34.7161 52.1476ZM34.2424 52.0441L34.6686 50.09C34.6504 50.086 34.606 50.073 34.5336 50.0335C34.4602 49.9936 34.3718 49.934 34.2695 49.85L33.0002 51.3956L31.731 52.9413C32.2171 53.3404 32.9204 53.8028 33.8163 53.9981L34.2424 52.0441ZM33.0002 51.3956L34.2697 49.8502C34.0582 49.6764 33.8113 49.4179 33.5342 49.0662L31.9631 50.3038L30.3921 51.5415C30.7775 52.0307 31.2235 52.5244 31.7308 52.9411L33.0002 51.3956ZM31.9631 50.3038L33.5342 49.0662C33.4657 48.9793 33.3977 48.8901 33.3311 48.7992L31.718 49.9816L30.1049 51.1639C30.2013 51.2954 30.2975 51.4215 30.392 51.5414L31.9631 50.3038ZM31.718 49.9816L30.9565 48.1322C30.8152 48.1904 30.779 48.2072 30.7028 48.237L31.4309 50.0997L32.159 51.9625C32.2749 51.9172 32.4291 51.8517 32.4795 51.8309L31.718 49.9816ZM31.4309 50.0997L30.7028 48.237C29.6178 48.6611 28.4804 48.9647 27.627 49.0578L27.844 51.046L28.061 53.0342C29.3642 52.892 30.8544 52.4724 32.159 51.9625L31.4309 50.0997ZM27.844 51.046L27.6235 49.0582L27.1128 49.1148L27.3333 51.1027L27.5537 53.0905L28.0644 53.0338L27.844 51.046ZM27.3333 51.1027L28.8249 49.7704L28.4822 49.3866L26.9905 50.7189L25.4988 52.0511L25.8416 52.4349L27.3333 51.1027ZM26.9905 50.7189L28.4801 49.3843C28.2667 49.1462 28.051 48.6978 27.8105 47.9618L25.9094 48.5831L24.0084 49.2045C24.2631 49.9836 24.6846 51.1424 25.5009 52.0535L26.9905 50.7189ZM25.9094 48.5831L27.8105 47.9618C27.5687 47.2222 27.3736 46.4428 27.0832 45.4845L25.1692 46.0646L23.2552 46.6446C23.4569 47.3105 23.7703 48.4758 24.0084 49.2044L25.9094 48.5831ZM25.1692 46.0646L27.0696 45.4413C26.7942 44.6016 26.5353 43.9573 25.9879 43.1511L24.3333 44.2745L22.6786 45.398C22.9394 45.7821 23.0576 46.0438 23.2688 46.6878L25.1692 46.0646ZM24.3333 44.2745L25.9882 43.1515C26.2986 43.6089 26.179 44.2302 25.723 44.5401L24.5989 42.8859L23.4748 41.2316C22.1056 42.162 21.748 44.0266 22.6783 45.3976L24.3333 44.2745ZM24.5989 42.8859L25.7217 44.5409C25.2659 44.8502 24.6448 44.7328 24.3339 44.2749L25.9885 43.1515L27.6432 42.028C26.712 40.6565 24.8457 40.3016 23.476 41.2308L24.5989 42.8859ZM25.9885 43.1515L24.3338 44.2749C24.7378 44.8699 24.9268 45.3228 25.1701 46.0648L27.0706 45.4415L28.971 44.8183C28.6625 43.8777 28.3326 43.0435 27.6432 42.0281L25.9885 43.1515ZM27.0706 45.4415L25.1549 46.0162L25.1578 46.026L27.0735 45.4513L28.9891 44.8766L28.9862 44.8668L27.0706 45.4415ZM27.0735 45.4513L25.144 45.9775L25.1469 45.9883L27.0764 45.462L29.0059 44.9358L29.003 44.9251L27.0735 45.4513ZM27.0764 45.462L25.1629 46.0436C25.4075 46.8487 25.6685 47.8482 25.9088 48.5833L27.8098 47.962L29.7109 47.3407C29.4566 46.5626 29.3416 46.0372 28.99 44.8804L27.0764 45.462ZM27.8098 47.962L25.9088 48.5835C25.9526 48.7175 26.0047 48.8594 26.0261 48.9194L27.9104 48.2491L29.7947 47.5789C29.7517 47.4578 29.7333 47.4092 29.7108 47.3406L27.8098 47.962ZM27.9104 48.2491L29.6743 49.1918C29.8148 48.929 29.9662 48.6382 30.1077 48.3264L28.2864 47.5001L26.4651 46.6738C26.3781 46.8656 26.2753 47.0654 26.1465 47.3065L27.9104 48.2491ZM28.2864 47.5001L30.1424 48.2452C30.5012 47.3515 30.7716 46.4132 30.9887 45.2986L29.0256 44.9161L27.0625 44.5337C26.8861 45.4395 26.6813 46.1301 26.4304 46.755L28.2864 47.5001ZM29.0256 44.9161L30.8829 44.1741C30.8719 44.1466 30.8711 44.1446 30.8615 44.1207L29.0042 44.8624L27.1468 45.6042C27.1515 45.616 27.1651 45.6499 27.1684 45.6582L29.0256 44.9161ZM29.0042 44.8624L30.8617 44.1212C31.0148 44.5049 30.9124 44.9197 30.6505 45.1888L29.217 43.7941L27.7836 42.3993C26.988 43.217 26.6916 44.4635 27.1466 45.6036L29.0042 44.8624ZM29.217 43.7941L31.193 44.1035L31.2818 43.5362L29.3059 43.2267L27.33 42.9172L27.2411 43.4846L29.217 43.7941ZM29.3059 43.2267L31.2804 43.5453C31.6053 41.5313 32.0482 39.4016 32.4706 37.2791L30.509 36.8888L28.5475 36.4985C28.1356 38.5684 27.6714 40.8009 27.3314 42.9081L29.3059 43.2267ZM30.509 36.8888L32.4706 37.2791C32.9497 34.8715 33.4037 32.4663 33.5901 30.3621L31.5979 30.1857L29.6057 30.0092C29.4411 31.8678 29.0304 34.0716 28.5475 36.4985L30.509 36.8888ZM31.5979 30.1857L33.5901 30.3621C33.6229 29.9918 33.6468 29.6201 33.6678 29.2558L31.6711 29.1407L29.6745 29.0257C29.6543 29.3749 29.6331 29.6994 29.6057 30.0092L31.5979 30.1857ZM31.6711 29.1407L33.6307 28.7406C33.1883 26.5739 32.6755 24.2321 32.1823 22.0084L30.2297 22.4415L28.2772 22.8746C28.7697 25.0948 29.2763 27.4091 29.7116 29.5409L31.6711 29.1407ZM30.2297 22.4415L32.1823 22.0084C31.2931 17.9998 30.4976 14.4744 30.3048 12.9939L28.3215 13.2521L26.3383 13.5103C26.5611 15.2215 27.4207 19.0133 28.2772 22.8746L30.2297 22.4415ZM28.3215 13.2521L30.3049 12.9949C30.3759 13.5424 29.9905 14.043 29.443 14.1142L29.1848 12.131L28.9266 10.1477C27.2842 10.3615 26.1251 11.8668 26.3381 13.5093L28.3215 13.2521ZM29.1848 12.131L29.442 14.1144C28.8919 14.1857 28.3927 13.7976 28.3217 13.2528L30.3049 12.9943L32.2882 12.7357C32.0744 11.0962 30.5725 9.93429 28.9276 10.1476L29.1848 12.131ZM30.3049 12.9943L28.3217 13.2525C28.4588 14.3056 28.8541 16.1897 29.3315 18.3752L31.2854 17.9484L33.2393 17.5216C32.7481 15.2726 32.3982 13.5806 32.2882 12.736L30.3049 12.9943ZM31.2854 17.9484L33.2783 17.7798C33.2645 17.6171 33.2433 17.3418 33.2261 17.1448L31.2336 17.3185L29.2412 17.4921C29.261 17.7197 29.2712 17.8651 29.2925 18.1169L31.2854 17.9484ZM31.2336 17.3185L33.206 16.9871C33.2031 16.9697 33.2003 16.9546 33.198 16.9424C33.1956 16.9301 33.1935 16.9198 33.192 16.9121C33.1904 16.9046 33.1891 16.8984 33.1884 16.895C33.188 16.8933 33.1877 16.8919 33.1875 16.8911C33.1874 16.8908 33.1872 16.8895 33.1873 16.8901C33.1873 16.8902 33.1875 16.891 33.1877 16.892C33.188 16.8931 33.1883 16.8948 33.1887 16.8968C33.1896 16.9008 33.1909 16.907 33.1925 16.9148C33.1955 16.9299 33.2003 16.9545 33.2053 16.985L31.2317 17.3087L29.2581 17.6324C29.2633 17.6647 29.2685 17.6909 29.2718 17.7077C29.2736 17.7163 29.2751 17.7234 29.2761 17.7282C29.2771 17.7328 29.2779 17.7365 29.2781 17.7373C29.2781 17.7375 29.2781 17.7376 29.2781 17.7377C29.2782 17.7382 29.2781 17.7373 29.2782 17.7378C29.2782 17.7379 29.2781 17.7378 29.2781 17.7376C29.278 17.7372 29.2778 17.7362 29.2775 17.7348C29.277 17.7323 29.2758 17.727 29.2744 17.7202C29.273 17.7133 29.2711 17.7037 29.2689 17.6923C29.2667 17.6808 29.2641 17.6665 29.2613 17.6499L31.2336 17.3185ZM31.2317 17.3087L33.2068 16.9943C33.207 16.9956 33.2068 16.994 33.2058 16.9873C33.2048 16.9807 33.2036 16.9731 33.2019 16.9614C33.1987 16.9396 33.1941 16.9085 33.1887 16.8734L31.2122 17.1788L29.2356 17.4843C29.2387 17.5045 29.2415 17.5234 29.2448 17.5452C29.2473 17.5624 29.252 17.5943 29.2566 17.6231L31.2317 17.3087ZM31.2122 17.1788L33.1887 16.8734C33.172 16.7653 33.1489 16.6145 33.1226 16.431L31.1428 16.715L29.1631 16.9989C29.1924 17.2034 29.218 17.3705 29.2356 17.4843L31.2122 17.1788ZM31.1428 16.715L33.1226 16.431C33.0691 16.0585 33.0011 15.5494 32.9416 15.0038L30.9534 15.2208L28.9652 15.4378C29.0309 16.0396 29.1051 16.595 29.1631 16.9989L31.1428 16.715ZM30.9534 15.2208L32.9416 15.0038C32.8819 14.457 32.8325 13.8852 32.8144 13.3832L30.8157 13.4552L28.817 13.5272C28.8399 14.164 28.9001 14.8417 28.9652 15.4378L30.9534 15.2208ZM30.8157 13.4552L32.8144 13.3832C32.7953 12.854 32.8152 12.4946 32.8544 12.3231L30.9045 11.8781L28.9547 11.433C28.7895 12.1566 28.797 12.9728 28.817 13.5272L30.8157 13.4552ZM30.3303 47.7433L28.4478 47.068C28.3884 47.2334 28.3346 47.3786 28.2799 47.5144L30.135 48.2618L31.9901 49.0093C32.073 48.8035 32.1468 48.6028 32.2129 48.4185L30.3303 47.7433ZM30.135 48.2618L28.2917 47.4857L28.2839 47.5043L30.1272 48.2804L31.9705 49.0565L31.9783 49.038L30.135 48.2618ZM30.1272 48.2804L28.2702 47.5376L28.2624 47.5571L30.1194 48.2999L31.9763 49.0427L31.9842 49.0232L30.1272 48.2804ZM30.1194 48.2999L28.296 47.4782C28.296 47.4781 28.2949 47.4806 28.2919 47.4868C28.2889 47.4933 28.2849 47.5016 28.2786 47.5144C28.2692 47.5337 28.2456 47.5818 28.2243 47.6269L30.0334 48.4796L31.8426 49.3323C31.8495 49.3176 31.8551 49.3062 31.8748 49.2658C31.8908 49.233 31.9162 49.1807 31.9428 49.1216L30.1194 48.2999ZM30.0334 48.4796L30.6772 50.3732C30.904 50.2961 31.1255 50.2145 31.3382 50.1329L30.6213 48.2657L29.9045 46.3986C29.7264 46.467 29.5552 46.5298 29.3897 46.5861L30.0334 48.4796ZM30.6213 48.2657L32.3583 47.2743C32.2665 47.1134 32.1767 46.9529 32.0893 46.7915L30.3303 47.7433L28.5713 48.6951C28.6764 48.8893 28.7815 49.0769 28.8844 49.2572L30.6213 48.2657ZM32.47 37.2784L30.5084 36.8881C30.0316 39.2842 29.5071 41.7906 29.1705 44.1015L31.1497 44.3898L33.1288 44.678C33.4461 42.4988 33.9414 40.1318 34.4315 37.6688L32.47 37.2784ZM31.1497 44.3898L29.1769 44.061L29.1749 44.0727L31.1477 44.4015L33.1205 44.7303L33.1224 44.7186L31.1497 44.3898ZM31.1477 44.4015L29.1719 44.0912C29.1578 44.181 29.1491 44.2242 29.1256 44.3635L31.0979 44.6954L33.0702 45.0273C33.0793 44.9732 33.1064 44.8209 33.1235 44.7117L31.1477 44.4015ZM31.0979 44.6954L29.2506 45.462C29.4324 45.9001 29.6491 46.3994 29.9883 47.0918L31.7844 46.212L33.5805 45.3323C33.2845 44.7279 33.1016 44.3059 32.9452 43.9289L31.0979 44.6954ZM31.7844 46.212L30.0038 47.1228C30.2402 47.585 30.4783 48.0158 30.7089 48.4132L32.4387 47.4093L34.1685 46.4054C33.968 46.0599 33.7647 45.6916 33.565 45.3013L31.7844 46.212ZM32.4387 47.4093L33.4521 49.1336C33.8303 48.9113 34.2199 48.6519 34.5525 48.3571L33.2258 46.8605L31.8991 45.3639C31.8352 45.4206 31.6877 45.5309 31.4254 45.685L32.4387 47.4093ZM33.2258 46.8605L34.5527 48.3569C34.4201 48.4746 34.2581 48.5538 34.0866 48.5885L33.6907 46.6281L33.2947 44.6676C32.7891 44.7698 32.3052 45.0038 31.8989 45.364L33.2258 46.8605ZM33.6907 46.6281L35.6894 46.7006C35.7311 45.5489 35.7482 44.138 35.7696 42.6241L33.7698 42.5958L31.77 42.5675C31.7482 44.1056 31.7317 45.4598 31.692 46.5555L33.6907 46.6281ZM33.7698 42.5958L35.7659 42.4711C35.6078 39.941 35.1949 37.6038 34.7884 35.1688L32.8157 35.4982L30.843 35.8275C31.2602 38.3264 31.6311 40.4397 31.7737 42.7206L33.7698 42.5958ZM32.8157 35.4982L30.8505 35.1265C30.7402 35.7099 30.6257 36.2988 30.5084 36.8881L32.47 37.2784L34.4315 37.6688C34.5511 37.0679 34.668 36.4666 34.7808 35.8699L32.8157 35.4982Z" fill="white" mask="url(#path-1-outside-1_34_99)"/>
</svg>
