<svg width="64" height="64" viewBox="0 0 64 64" fill="none" xmlns="http://www.w3.org/2000/svg">
<mask id="path-1-outside-1_34_109" maskUnits="userSpaceOnUse" x="12.0562" y="15.0672" width="38" height="34" fill="black">
<rect fill="white" x="12.0562" y="15.0672" width="38" height="34"/>
<path d="M43.2437 17.5604C43.5236 17.2551 43.9979 17.2347 44.3032 17.5145C44.6084 17.7944 44.6298 18.2687 44.3501 18.574C43.3313 19.685 41.135 22.575 38.645 25.8279C37.1331 27.8031 35.5195 29.899 34.0259 31.7703C35.0051 32.5705 36.0062 33.4343 37.0063 34.3094C38.8675 35.9378 40.7319 37.6019 42.521 39.0106L42.5269 39.0154C43.7248 39.9804 44.5903 40.8396 45.3276 41.7791L45.3374 41.7918L45.3452 41.8045C45.4997 42.0185 45.6444 42.2359 45.7827 42.4529C45.8818 42.0345 45.9665 41.5967 46.0327 41.158C46.2107 39.9786 46.2384 38.8881 46.0962 38.1971C46.0127 37.7915 46.2737 37.3941 46.6792 37.3104C47.0848 37.227 47.4814 37.4888 47.5649 37.8943C47.7602 38.8429 47.7025 40.1397 47.5151 41.3817C47.3259 42.6357 46.9886 43.932 46.564 44.8992L46.4097 45.2518L46.0337 45.3318C45.334 45.4798 44.5227 45.3659 43.7446 45.2029C42.985 45.0438 42.0417 44.7843 41.1938 44.5877C40.4166 44.4257 39.9048 44.3593 39.1558 44.4149C38.7428 44.4454 38.3828 44.1354 38.3521 43.7225C38.3214 43.3095 38.6315 42.9496 39.0444 42.9188C39.9835 42.8491 40.6455 42.941 41.4995 43.119L41.5151 43.1229C42.4929 43.349 43.2753 43.5714 44.0522 43.7342C44.3711 43.801 44.6514 43.8483 44.896 43.8748C44.6439 43.4561 44.4079 43.0684 44.1411 42.6971C43.4908 41.8699 42.7146 41.0939 41.5923 40.1893L40.9028 39.6375C39.2885 38.3258 37.6295 36.8482 36.0181 35.4383C35.0181 34.5634 34.0361 33.7151 33.0864 32.9383C32.4861 33.6751 31.9148 34.3599 31.3882 34.9656C29.3248 37.3392 27.5209 39.6122 25.2866 41.7381L25.2661 41.7567L25.2446 41.7752C23.6781 43.055 22.2473 44.2345 21.1851 45.0164L21.1626 45.033L21.1401 45.0477C20.667 45.3452 20.1914 45.5611 19.4604 45.8055C19.9449 45.8332 20.5137 45.8559 21.1226 45.8729C21.7569 45.8906 22.4165 45.9031 23.0415 45.9149C23.6649 45.9265 24.2568 45.9372 24.7476 45.951C25.1616 45.9626 25.4877 46.3085 25.4761 46.7225C25.4642 47.1361 25.1193 47.4624 24.7056 47.451C24.2237 47.4375 23.6405 47.4266 23.0142 47.4149C22.3896 47.4031 21.7228 47.3908 21.0806 47.3729C19.8236 47.3378 18.5788 47.281 17.9282 47.16L17.5708 47.0936L17.4019 46.7723C17.2026 46.3937 17.1325 45.9528 17.1274 45.5184C17.1223 45.0768 17.1841 44.5875 17.2905 44.074C17.5034 43.0472 17.9144 41.8421 18.4487 40.574L18.4536 40.5633C18.9178 39.5118 19.2215 38.946 19.5269 38.3758C19.7224 38.0109 20.1765 37.8729 20.5415 38.0682C20.9064 38.2638 21.0446 38.7188 20.8491 39.0838C20.5515 39.6396 20.2688 40.1672 19.8267 41.1688C19.3148 42.3849 18.9443 43.4863 18.7593 44.3787C18.7537 44.4057 18.7499 44.4333 18.7446 44.4598C19.5448 44.2053 19.9423 44.0258 20.3159 43.7938C21.3326 43.0438 22.7086 41.9113 24.2749 40.6317C26.4308 38.5769 28.144 36.4111 30.2563 33.9813C30.769 33.3916 31.3259 32.7245 31.9126 32.0047C31.5114 31.696 31.1179 31.4038 30.7319 31.1336C28.0693 29.2698 24.6021 27.446 19.354 25.0047C19.3486 25.0026 19.3425 24.9996 19.3354 24.9969C19.3075 24.9862 19.2663 24.9701 19.2144 24.95C19.1104 24.9098 18.961 24.8524 18.7798 24.7801C18.4174 24.6354 17.9229 24.4324 17.3979 24.202C16.8744 23.9721 16.3111 23.7104 15.8149 23.4481C15.3373 23.1955 14.8572 22.9096 14.5464 22.6219C14.2426 22.3406 14.2242 21.8653 14.5054 21.5613C14.7868 21.2578 15.2611 21.2401 15.5649 21.5213C15.7199 21.6648 16.0468 21.8737 16.5161 22.1219C16.9674 22.3605 17.4937 22.6064 18.0005 22.8289C18.5058 23.0507 18.9843 23.2469 19.3364 23.3875C19.5118 23.4575 19.6559 23.5131 19.7554 23.5516C19.8048 23.5707 19.8437 23.5856 19.8696 23.5955C19.8824 23.6004 19.8924 23.6048 19.8989 23.6072C19.9021 23.6084 19.9052 23.6086 19.9067 23.6092L19.9077 23.6102L19.9351 23.6199L19.9604 23.6326C25.2359 26.0859 28.8102 27.9594 31.5913 29.9061C32.005 30.1957 32.426 30.5078 32.853 30.8367C34.3311 28.9849 35.9355 26.8991 37.4536 24.9158C39.909 21.7082 42.1657 18.7359 43.2437 17.5604Z"/>
</mask>
<path d="M43.2437 17.5604C43.5236 17.2551 43.9979 17.2347 44.3032 17.5145C44.6084 17.7944 44.6298 18.2687 44.3501 18.574C43.3313 19.685 41.135 22.575 38.645 25.8279C37.1331 27.8031 35.5195 29.899 34.0259 31.7703C35.0051 32.5705 36.0062 33.4343 37.0063 34.3094C38.8675 35.9378 40.7319 37.6019 42.521 39.0106L42.5269 39.0154C43.7248 39.9804 44.5903 40.8396 45.3276 41.7791L45.3374 41.7918L45.3452 41.8045C45.4997 42.0185 45.6444 42.2359 45.7827 42.4529C45.8818 42.0345 45.9665 41.5967 46.0327 41.158C46.2107 39.9786 46.2384 38.8881 46.0962 38.1971C46.0127 37.7915 46.2737 37.3941 46.6792 37.3104C47.0848 37.227 47.4814 37.4888 47.5649 37.8943C47.7602 38.8429 47.7025 40.1397 47.5151 41.3817C47.3259 42.6357 46.9886 43.932 46.564 44.8992L46.4097 45.2518L46.0337 45.3318C45.334 45.4798 44.5227 45.3659 43.7446 45.2029C42.985 45.0438 42.0417 44.7843 41.1938 44.5877C40.4166 44.4257 39.9048 44.3593 39.1558 44.4149C38.7428 44.4454 38.3828 44.1354 38.3521 43.7225C38.3214 43.3095 38.6315 42.9496 39.0444 42.9188C39.9835 42.8491 40.6455 42.941 41.4995 43.119L41.5151 43.1229C42.4929 43.349 43.2753 43.5714 44.0522 43.7342C44.3711 43.801 44.6514 43.8483 44.896 43.8748C44.6439 43.4561 44.4079 43.0684 44.1411 42.6971C43.4908 41.8699 42.7146 41.0939 41.5923 40.1893L40.9028 39.6375C39.2885 38.3258 37.6295 36.8482 36.0181 35.4383C35.0181 34.5634 34.0361 33.7151 33.0864 32.9383C32.4861 33.6751 31.9148 34.3599 31.3882 34.9656C29.3248 37.3392 27.5209 39.6122 25.2866 41.7381L25.2661 41.7567L25.2446 41.7752C23.6781 43.055 22.2473 44.2345 21.1851 45.0164L21.1626 45.033L21.1401 45.0477C20.667 45.3452 20.1914 45.5611 19.4604 45.8055C19.9449 45.8332 20.5137 45.8559 21.1226 45.8729C21.7569 45.8906 22.4165 45.9031 23.0415 45.9149C23.6649 45.9265 24.2568 45.9372 24.7476 45.951C25.1616 45.9626 25.4877 46.3085 25.4761 46.7225C25.4642 47.1361 25.1193 47.4624 24.7056 47.451C24.2237 47.4375 23.6405 47.4266 23.0142 47.4149C22.3896 47.4031 21.7228 47.3908 21.0806 47.3729C19.8236 47.3378 18.5788 47.281 17.9282 47.16L17.5708 47.0936L17.4019 46.7723C17.2026 46.3937 17.1325 45.9528 17.1274 45.5184C17.1223 45.0768 17.1841 44.5875 17.2905 44.074C17.5034 43.0472 17.9144 41.8421 18.4487 40.574L18.4536 40.5633C18.9178 39.5118 19.2215 38.946 19.5269 38.3758C19.7224 38.0109 20.1765 37.8729 20.5415 38.0682C20.9064 38.2638 21.0446 38.7188 20.8491 39.0838C20.5515 39.6396 20.2688 40.1672 19.8267 41.1688C19.3148 42.3849 18.9443 43.4863 18.7593 44.3787C18.7537 44.4057 18.7499 44.4333 18.7446 44.4598C19.5448 44.2053 19.9423 44.0258 20.3159 43.7938C21.3326 43.0438 22.7086 41.9113 24.2749 40.6317C26.4308 38.5769 28.144 36.4111 30.2563 33.9813C30.769 33.3916 31.3259 32.7245 31.9126 32.0047C31.5114 31.696 31.1179 31.4038 30.7319 31.1336C28.0693 29.2698 24.6021 27.446 19.354 25.0047C19.3486 25.0026 19.3425 24.9996 19.3354 24.9969C19.3075 24.9862 19.2663 24.9701 19.2144 24.95C19.1104 24.9098 18.961 24.8524 18.7798 24.7801C18.4174 24.6354 17.9229 24.4324 17.3979 24.202C16.8744 23.9721 16.3111 23.7104 15.8149 23.4481C15.3373 23.1955 14.8572 22.9096 14.5464 22.6219C14.2426 22.3406 14.2242 21.8653 14.5054 21.5613C14.7868 21.2578 15.2611 21.2401 15.5649 21.5213C15.7199 21.6648 16.0468 21.8737 16.5161 22.1219C16.9674 22.3605 17.4937 22.6064 18.0005 22.8289C18.5058 23.0507 18.9843 23.2469 19.3364 23.3875C19.5118 23.4575 19.6559 23.5131 19.7554 23.5516C19.8048 23.5707 19.8437 23.5856 19.8696 23.5955C19.8824 23.6004 19.8924 23.6048 19.8989 23.6072C19.9021 23.6084 19.9052 23.6086 19.9067 23.6092L19.9077 23.6102L19.9351 23.6199L19.9604 23.6326C25.2359 26.0859 28.8102 27.9594 31.5913 29.9061C32.005 30.1957 32.426 30.5078 32.853 30.8367C34.3311 28.9849 35.9355 26.8991 37.4536 24.9158C39.909 21.7082 42.1657 18.7359 43.2437 17.5604Z" fill="black"/>
<path d="M43.2437 17.5604L42.1381 16.5465L42.1381 16.5466L43.2437 17.5604ZM44.3032 17.5145L45.317 16.409L45.3167 16.4086L44.3032 17.5145ZM44.3501 18.574L45.4556 19.5879L45.456 19.5874L44.3501 18.574ZM38.645 25.8279L39.8361 26.7397L39.8361 26.7397L38.645 25.8279ZM34.0259 31.7703L32.8535 30.8346L31.9285 31.9936L33.0768 32.9319L34.0259 31.7703ZM37.0063 34.3094L37.9941 33.1805L37.9941 33.1805L37.0063 34.3094ZM42.521 39.0106L43.4813 37.8582L43.4653 37.8449L43.4489 37.832L42.521 39.0106ZM42.5269 39.0154L41.5666 40.1678L41.5762 40.1758L41.5859 40.1836L42.5269 39.0154ZM45.3276 41.7791L46.5166 40.8645L46.5121 40.8588L46.5076 40.853L45.3276 41.7791ZM45.3374 41.7918L46.6149 41.0057L46.574 40.9391L46.5263 40.8772L45.3374 41.7918ZM45.3452 41.8045L44.0677 42.5907L44.0966 42.6376L44.1288 42.6822L45.3452 41.8045ZM45.7827 42.4529L44.5179 43.2593L46.4251 46.2508L47.2424 42.7985L45.7827 42.4529ZM46.0327 41.158L47.5159 41.3818L47.5159 41.3818L46.0327 41.158ZM46.0962 38.1971L47.5654 37.8948L47.5654 37.8945L46.0962 38.1971ZM46.6792 37.3104L46.3773 35.841L46.376 35.8413L46.6792 37.3104ZM47.5649 37.8943L49.0341 37.5919L49.0341 37.5918L47.5649 37.8943ZM47.5151 41.3817L48.9983 41.6055L48.9984 41.6054L47.5151 41.3817ZM46.564 44.8992L45.1905 44.2962L45.1898 44.2978L46.564 44.8992ZM46.4097 45.2518L46.7221 46.7189L47.4751 46.5585L47.7838 45.8532L46.4097 45.2518ZM46.0337 45.3318L46.344 46.7994L46.3462 46.7989L46.0337 45.3318ZM43.7446 45.2029L43.4371 46.6711L43.4371 46.6711L43.7446 45.2029ZM41.1938 44.5877L41.5327 43.1265L41.5163 43.1227L41.4999 43.1193L41.1938 44.5877ZM39.1558 44.4149L39.2664 45.9108L39.2667 45.9107L39.1558 44.4149ZM38.3521 43.7225L36.8562 43.8335L36.8562 43.8339L38.3521 43.7225ZM39.0444 42.9188L38.9334 41.4229L38.9329 41.4229L39.0444 42.9188ZM41.4995 43.119L41.8633 41.6637L41.8346 41.6566L41.8055 41.6505L41.4995 43.119ZM41.5151 43.1229L41.1513 44.5781L41.1642 44.5813L41.1771 44.5843L41.5151 43.1229ZM44.0522 43.7342L43.7447 45.2023L43.7447 45.2023L44.0522 43.7342ZM44.896 43.8748L44.7342 45.3661L47.7416 45.6925L46.181 43.101L44.896 43.8748ZM44.1411 42.6971L45.3592 41.8218L45.3403 41.7955L45.3203 41.77L44.1411 42.6971ZM41.5923 40.1893L42.5336 39.0214L42.5295 39.0181L41.5923 40.1893ZM40.9028 39.6375L39.9569 40.8017L39.9656 40.8087L40.9028 39.6375ZM36.0181 35.4383L37.0058 34.3094L37.0058 34.3094L36.0181 35.4383ZM33.0864 32.9383L34.0361 31.7772L32.8729 30.8258L31.9236 31.9908L33.0864 32.9383ZM31.3882 34.9656L30.2561 33.9815L30.2561 33.9815L31.3882 34.9656ZM25.2866 41.7381L26.293 42.8504L26.307 42.8378L26.3206 42.8248L25.2866 41.7381ZM25.2661 41.7567L26.2465 42.8919L26.2596 42.8806L26.2725 42.869L25.2661 41.7567ZM25.2446 41.7752L26.1936 42.9369L26.2095 42.9239L26.2251 42.9104L25.2446 41.7752ZM21.1851 45.0164L20.2958 43.8084L20.2935 43.8102L21.1851 45.0164ZM21.1626 45.033L21.982 46.2894L22.0188 46.2654L22.0542 46.2393L21.1626 45.033ZM21.1401 45.0477L21.9387 46.3175L21.9492 46.3109L21.9595 46.3041L21.1401 45.0477ZM19.4604 45.8055L18.9848 44.3829L19.3748 47.303L19.4604 45.8055ZM21.1226 45.8729L21.0807 47.3723L21.0807 47.3723L21.1226 45.8729ZM23.0415 45.9149L23.0134 47.4146L23.0134 47.4146L23.0415 45.9149ZM24.7476 45.951L24.7898 44.4516L24.7896 44.4516L24.7476 45.951ZM25.4761 46.7225L26.9755 46.7656L26.9755 46.7645L25.4761 46.7225ZM24.7056 47.451L24.6635 48.9504L24.6642 48.9504L24.7056 47.451ZM23.0142 47.4149L22.986 48.9146L22.986 48.9146L23.0142 47.4149ZM21.0806 47.3729L21.0387 48.8723L21.0387 48.8723L21.0806 47.3729ZM17.9282 47.16L18.2026 45.6853L18.2022 45.6852L17.9282 47.16ZM17.5708 47.0936L16.2432 47.7917L16.5817 48.4355L17.2968 48.5683L17.5708 47.0936ZM17.4019 46.7723L18.7295 46.0742L18.7293 46.0737L17.4019 46.7723ZM17.1274 45.5184L15.6275 45.5358L15.6275 45.536L17.1274 45.5184ZM17.2905 44.074L15.8218 43.7695L15.8218 43.7696L17.2905 44.074ZM18.4487 40.574L17.0832 39.9533L17.0745 39.9723L17.0664 39.9916L18.4487 40.574ZM18.4536 40.5633L19.8192 41.184L19.8225 41.1765L19.8259 41.1691L18.4536 40.5633ZM19.5269 38.3758L18.2047 37.6673L18.2045 37.6676L19.5269 38.3758ZM20.5415 38.0682L21.2504 36.7462L21.249 36.7455L20.5415 38.0682ZM20.8491 39.0838L22.1714 39.792L22.1714 39.7919L20.8491 39.0838ZM19.8267 41.1688L18.4544 40.563L18.4492 40.5749L18.4441 40.5869L19.8267 41.1688ZM18.7593 44.3787L17.2905 44.0742L17.2905 44.0743L18.7593 44.3787ZM18.7446 44.4598L17.273 44.1692L16.7815 46.6583L19.1993 45.8892L18.7446 44.4598ZM20.3159 43.7938L21.1074 45.0679L21.1582 45.0364L21.2064 45.0009L20.3159 43.7938ZM24.2749 40.6317L25.2239 41.7933L25.2683 41.757L25.3098 41.7175L24.2749 40.6317ZM30.2563 33.9813L29.1243 32.9972L29.1243 32.9972L30.2563 33.9813ZM31.9126 32.0047L33.0753 32.9524L34.05 31.7566L32.8273 30.8158L31.9126 32.0047ZM30.7319 31.1336L31.5921 29.9047L31.5921 29.9047L30.7319 31.1336ZM19.354 25.0047L19.9867 23.6446L19.9377 23.6219L19.8873 23.6027L19.354 25.0047ZM19.3354 24.9969L18.8007 26.3983L18.8013 26.3986L19.3354 24.9969ZM19.2144 24.95L18.6733 26.349L18.6733 26.349L19.2144 24.95ZM18.7798 24.7801L18.2235 26.1731L18.2235 26.1731L18.7798 24.7801ZM17.3979 24.202L16.795 25.5754L16.795 25.5755L17.3979 24.202ZM15.8149 23.4481L15.1138 24.7741L15.1138 24.7741L15.8149 23.4481ZM14.5464 22.6219L13.5271 23.7224L13.5275 23.7228L14.5464 22.6219ZM14.5054 21.5613L13.4053 20.5416L13.4042 20.5428L14.5054 21.5613ZM15.5649 21.5213L16.5839 20.4205L16.5837 20.4203L15.5649 21.5213ZM16.5161 22.1219L15.8149 23.4479L15.815 23.4479L16.5161 22.1219ZM18.0005 22.8289L17.3975 24.2024L17.3975 24.2024L18.0005 22.8289ZM19.3364 23.3875L18.7802 24.7806L18.7802 24.7806L19.3364 23.3875ZM19.7554 23.5516L19.2143 24.9506L19.2143 24.9506L19.7554 23.5516ZM19.8696 23.5955L19.3348 24.9969L19.3349 24.997L19.8696 23.5955ZM19.8989 23.6072L19.3657 25.0093L19.3671 25.0098L19.8989 23.6072ZM19.9067 23.6092L20.9674 22.5485L20.7255 22.3067L20.4027 22.1936L19.9067 23.6092ZM19.9077 23.6102L18.8471 24.6708L19.0856 24.9093L19.4032 25.0228L19.9077 23.6102ZM19.9351 23.6199L20.6059 22.2783L20.5249 22.2378L20.4396 22.2073L19.9351 23.6199ZM19.9604 23.6326L19.2896 24.9743L19.3087 24.9838L19.3279 24.9927L19.9604 23.6326ZM31.5913 29.9061L32.4515 28.6772L32.4515 28.6772L31.5913 29.9061ZM32.853 30.8367L31.9376 32.025L33.1057 32.9248L34.0254 31.7725L32.853 30.8367ZM37.4536 24.9158L38.6447 25.8276L38.6447 25.8276L37.4536 24.9158ZM43.2437 17.5604L44.3492 18.5742C44.069 18.8797 43.5947 18.8998 43.2897 18.6203L44.3032 17.5145L45.3167 16.4086C44.4011 15.5695 42.9781 15.6306 42.1381 16.5465L43.2437 17.5604ZM44.3032 17.5145L43.2894 18.62C42.9864 18.3421 42.9624 17.8682 43.2442 17.5607L44.3501 18.574L45.456 19.5874C46.2973 18.6693 46.2305 17.2466 45.317 16.409L44.3032 17.5145ZM44.3501 18.574L43.2446 17.5602C42.1668 18.7355 39.9094 21.7083 37.4539 24.9162L38.645 25.8279L39.8361 26.7397C42.3607 23.4417 44.4958 20.6345 45.4556 19.5879L44.3501 18.574ZM38.645 25.8279L37.4539 24.9162C35.9425 26.8907 34.3368 28.9761 32.8535 30.8346L34.0259 31.7703L35.1983 32.706C36.7021 30.8218 38.3237 28.7155 39.8361 26.7397L38.645 25.8279ZM34.0259 31.7703L33.0768 32.9319C34.0361 33.7158 35.022 34.5663 36.0186 35.4383L37.0063 34.3094L37.9941 33.1805C36.9904 32.3023 35.9742 31.4252 34.975 30.6088L34.0259 31.7703ZM37.0063 34.3094L36.0186 35.4383C37.8605 37.0498 39.7647 38.7496 41.5931 40.1891L42.521 39.0106L43.4489 37.832C41.699 36.4543 39.8745 34.8258 37.9941 33.1805L37.0063 34.3094ZM42.521 39.0106L41.5607 40.1629L41.5666 40.1678L42.5269 39.0154L43.4871 37.8631L43.4813 37.8582L42.521 39.0106ZM42.5269 39.0154L41.5859 40.1836C42.7155 41.0936 43.495 41.8736 44.1476 42.7052L45.3276 41.7791L46.5076 40.853C45.6855 39.8056 44.734 38.8673 43.4678 37.8473L42.5269 39.0154ZM45.3276 41.7791L44.1387 42.6937L44.1485 42.7064L45.3374 41.7918L46.5263 40.8772L46.5166 40.8645L45.3276 41.7791ZM45.3374 41.7918L44.0599 42.578L44.0677 42.5907L45.3452 41.8045L46.6227 41.0184L46.6149 41.0057L45.3374 41.7918ZM45.3452 41.8045L44.1288 42.6822C44.2617 42.8664 44.39 43.0587 44.5179 43.2593L45.7827 42.4529L47.0475 41.6466C46.8988 41.4132 46.7376 41.1706 46.5616 40.9268L45.3452 41.8045ZM45.7827 42.4529L47.2424 42.7985C47.3511 42.3393 47.4436 41.8609 47.5159 41.3818L46.0327 41.158L44.5495 40.9342C44.4894 41.3325 44.4125 41.7297 44.3231 42.1074L45.7827 42.4529ZM46.0327 41.158L47.5159 41.3818C47.7033 40.1398 47.7605 38.8431 47.5654 37.8948L46.0962 38.1971L44.627 38.4994C44.7162 38.933 44.718 39.8175 44.5495 40.9342L46.0327 41.158ZM46.0962 38.1971L47.5654 37.8945C47.6485 38.2983 47.3897 38.6953 46.9824 38.7794L46.6792 37.3104L46.376 35.8413C45.1577 36.0928 44.3768 37.2846 44.627 38.4996L46.0962 38.1971ZM46.6792 37.3104L46.9811 38.7797C46.5741 38.8633 46.179 38.6011 46.0958 38.1969L47.5649 37.8943L49.0341 37.5918C48.7838 36.3764 47.5954 35.5908 46.3773 35.8411L46.6792 37.3104ZM47.5649 37.8943L46.0958 38.1968C46.238 38.8879 46.2099 39.9785 46.0319 41.1579L47.5151 41.3817L48.9984 41.6054C49.1952 40.3008 49.2824 38.7979 49.0341 37.5919L47.5649 37.8943ZM47.5151 41.3817L46.0319 41.1578C45.8559 42.3246 45.5469 43.4845 45.1905 44.2962L46.564 44.8992L47.9374 45.5022C48.4303 44.3795 48.7959 42.9469 48.9983 41.6055L47.5151 41.3817ZM46.564 44.8992L45.1898 44.2978L45.0355 44.6503L46.4097 45.2518L47.7838 45.8532L47.9381 45.5007L46.564 44.8992ZM46.4097 45.2518L46.0972 43.7847L45.7212 43.8648L46.0337 45.3318L46.3462 46.7989L46.7221 46.7189L46.4097 45.2518ZM46.0337 45.3318L45.7234 43.8643C45.3557 43.9421 44.8142 43.8944 44.0522 43.7348L43.7446 45.2029L43.4371 46.6711C44.2311 46.8374 45.3124 47.0175 46.344 46.7994L46.0337 45.3318ZM43.7446 45.2029L44.0522 43.7348C43.2858 43.5742 42.4969 43.3501 41.5327 43.1265L41.1938 44.5877L40.855 46.0489C41.5866 46.2186 42.6843 46.5134 43.4371 46.6711L43.7446 45.2029ZM41.1938 44.5877L41.4999 43.1193C40.6461 42.9413 39.9839 42.8493 39.0448 42.919L39.1558 44.4149L39.2667 45.9107C39.8256 45.8693 40.1871 45.9101 40.8878 46.0562L41.1938 44.5877ZM39.1558 44.4149L39.0451 42.9189C39.4574 42.8884 39.8171 43.1975 39.8479 43.611L38.3521 43.7225L36.8562 43.8339C36.9486 45.0733 38.0283 46.0024 39.2664 45.9108L39.1558 44.4149ZM38.3521 43.7225L39.8479 43.6114C39.8786 44.0244 39.5689 44.3838 39.156 44.4146L39.0444 42.9188L38.9329 41.4229C37.694 41.5153 36.7642 42.5945 36.8562 43.8335L38.3521 43.7225ZM39.0444 42.9188L39.1554 44.4146C39.9045 44.3591 40.4163 44.4254 41.1935 44.5874L41.4995 43.119L41.8055 41.6505C40.8747 41.4565 40.0625 41.3391 38.9334 41.4229L39.0444 42.9188ZM41.4995 43.119L41.1357 44.5742L41.1513 44.5781L41.5151 43.1229L41.8789 41.6677L41.8633 41.6637L41.4995 43.119ZM41.5151 43.1229L41.1771 44.5843C42.0284 44.7812 42.9806 45.0422 43.7447 45.2023L44.0522 43.7342L44.3598 42.2661C43.57 42.1006 42.9574 41.9168 41.8532 41.6614L41.5151 43.1229ZM44.0522 43.7342L43.7447 45.2023C44.094 45.2755 44.4255 45.3326 44.7342 45.3661L44.896 43.8748L45.0578 42.3836C44.8774 42.364 44.6483 42.3265 44.3598 42.2661L44.0522 43.7342ZM44.896 43.8748L46.181 43.101C45.9311 42.686 45.6663 42.249 45.3592 41.8218L44.1411 42.6971L42.923 43.5724C43.1496 43.8878 43.3566 44.2262 43.611 44.6486L44.896 43.8748ZM44.1411 42.6971L45.3203 41.77C44.5856 40.8354 43.7237 39.9807 42.5336 39.0214L41.5923 40.1893L40.6509 41.3571C41.7055 42.2072 42.3961 42.9044 42.9619 43.6241L44.1411 42.6971ZM41.5923 40.1893L42.5295 39.0181L41.8401 38.4664L40.9028 39.6375L39.9656 40.8087L40.655 41.3604L41.5923 40.1893ZM40.9028 39.6375L41.8488 38.4734C40.2619 37.184 38.6326 35.7328 37.0058 34.3094L36.0181 35.4383L35.0304 36.5672C36.6263 37.9635 38.315 39.4675 39.9569 40.8017L40.9028 39.6375ZM36.0181 35.4383L37.0058 34.3094C36.003 33.432 35.0058 32.5704 34.0361 31.7772L33.0864 32.9383L32.1367 34.0994C33.0664 34.8598 34.0332 35.6947 35.0304 36.5672L36.0181 35.4383ZM33.0864 32.9383L31.9236 31.9908C31.3293 32.7201 30.7688 33.3918 30.2561 33.9815L31.3882 34.9656L32.5202 35.9497C33.0607 35.328 33.6428 34.6301 34.2493 33.8858L33.0864 32.9383ZM31.3882 34.9656L30.2561 33.9815C28.1375 36.4187 26.4184 38.5907 24.2526 40.6514L25.2866 41.7381L26.3206 42.8248C28.6234 40.6337 30.5121 38.2597 32.5202 35.9497L31.3882 34.9656ZM25.2866 41.7381L24.2803 40.6258L24.2597 40.6443L25.2661 41.7567L26.2725 42.869L26.293 42.8504L25.2866 41.7381ZM25.2661 41.7567L24.2857 40.6214L24.2642 40.64L25.2446 41.7752L26.2251 42.9104L26.2465 42.8919L25.2661 41.7567ZM25.2446 41.7752L24.2956 40.6136C22.7105 41.9086 21.319 43.0552 20.2958 43.8084L21.1851 45.0164L22.0743 46.2244C23.1755 45.4138 24.6457 44.2014 26.1936 42.9369L25.2446 41.7752ZM21.1851 45.0164L20.2935 43.8102L20.271 43.8268L21.1626 45.033L22.0542 46.2393L22.0766 46.2227L21.1851 45.0164ZM21.1626 45.033L20.3432 43.7766L20.3207 43.7913L21.1401 45.0477L21.9595 46.3041L21.982 46.2894L21.1626 45.033ZM21.1401 45.0477L20.3416 43.7779C19.9976 43.9942 19.6387 44.1643 18.9848 44.3829L19.4604 45.8055L19.9361 47.2281C20.7441 46.9579 21.3365 46.6961 21.9387 46.3175L21.1401 45.0477ZM19.4604 45.8055L19.3748 47.303C19.8778 47.3318 20.4619 47.355 21.0807 47.3723L21.1226 45.8729L21.1644 44.3734C20.5655 44.3567 20.012 44.3346 19.5461 44.3079L19.4604 45.8055ZM21.1226 45.8729L21.0807 47.3723C21.7229 47.3902 22.3892 47.4029 23.0134 47.4146L23.0415 45.9149L23.0696 44.4151C22.4439 44.4034 21.7909 44.3909 21.1644 44.3734L21.1226 45.8729ZM23.0415 45.9149L23.0134 47.4146C23.6402 47.4263 24.2235 47.4369 24.7055 47.4504L24.7476 45.951L24.7896 44.4516C24.2902 44.4376 23.6897 44.4267 23.0696 44.4151L23.0415 45.9149ZM24.7476 45.951L24.7054 47.4504C24.2892 47.4387 23.9651 47.0923 23.9767 46.6804L25.4761 46.7225L26.9755 46.7645C27.0102 45.5246 26.034 44.4866 24.7898 44.4516L24.7476 45.951ZM25.4761 46.7225L23.9767 46.6793C23.9886 46.2663 24.3325 45.9401 24.747 45.9516L24.7056 47.451L24.6642 48.9504C25.906 48.9847 26.9398 48.006 26.9755 46.7656L25.4761 46.7225ZM24.7056 47.451L24.7476 45.9516C24.2572 45.9378 23.6662 45.9268 23.0423 45.9151L23.0142 47.4149L22.986 48.9146C23.6148 48.9264 24.1901 48.9371 24.6635 48.9504L24.7056 47.451ZM23.0142 47.4149L23.0423 45.9151C22.4161 45.9034 21.7565 45.8911 21.1224 45.8734L21.0806 47.3729L21.0387 48.8723C21.6891 48.8904 22.363 48.9029 22.986 48.9146L23.0142 47.4149ZM21.0806 47.3729L21.1224 45.8734C19.8284 45.8373 18.7135 45.7803 18.2026 45.6853L17.9282 47.16L17.6539 48.6347C18.4441 48.7817 19.8189 48.8382 21.0387 48.8723L21.0806 47.3729ZM17.9282 47.16L18.2022 45.6852L17.8448 45.6188L17.5708 47.0936L17.2968 48.5683L17.6542 48.6347L17.9282 47.16ZM17.5708 47.0936L18.8984 46.3954L18.7295 46.0742L17.4019 46.7723L16.0742 47.4704L16.2432 47.7917L17.5708 47.0936ZM17.4019 46.7723L18.7293 46.0737C18.6816 45.9832 18.6309 45.8053 18.6273 45.5008L17.1274 45.5184L15.6275 45.536C15.6342 46.1004 15.7236 46.8041 16.0745 47.4709L17.4019 46.7723ZM17.1274 45.5184L18.6273 45.501C18.6239 45.203 18.6662 44.8277 18.7593 44.3785L17.2905 44.074L15.8218 43.7696C15.702 44.3473 15.6207 44.9506 15.6275 45.5358L17.1274 45.5184ZM17.2905 44.074L18.7593 44.3786C18.945 43.4828 19.317 42.3764 19.831 41.1565L18.4487 40.574L17.0664 39.9916C16.5118 41.3078 16.0618 42.6117 15.8218 43.7695L17.2905 44.074ZM18.4487 40.574L19.8143 41.1947L19.8192 41.184L18.4536 40.5633L17.0881 39.9426L17.0832 39.9533L18.4487 40.574ZM18.4536 40.5633L19.8259 41.1691C20.2677 40.1682 20.551 39.6407 20.8492 39.0839L19.5269 38.3758L18.2045 37.6676C17.892 38.2513 17.5679 38.8553 17.0814 39.9575L18.4536 40.5633ZM19.5269 38.3758L20.849 39.0843C20.6544 39.4474 20.2009 39.5871 19.834 39.3909L20.5415 38.0682L21.249 36.7455C20.1521 36.1588 18.7904 36.5744 18.2047 37.6673L19.5269 38.3758ZM20.5415 38.0682L19.8326 39.3901C19.47 39.1956 19.3301 38.7429 19.5268 38.3757L20.8491 39.0838L22.1714 39.7919C22.7591 38.6946 22.3428 37.332 21.2504 36.7462L20.5415 38.0682ZM20.8491 39.0838L19.5268 38.3756C19.2214 38.9459 18.9187 39.5113 18.4544 40.563L19.8267 41.1688L21.1989 41.7745C21.6189 40.8231 21.8815 40.3333 22.1714 39.792L20.8491 39.0838ZM19.8267 41.1688L18.4441 40.5869C17.9122 41.8505 17.5027 43.0506 17.2905 44.0742L18.7593 44.3787L20.228 44.6832C20.3859 43.9219 20.7173 42.9194 21.2092 41.7507L19.8267 41.1688ZM18.7593 44.3787L17.2905 44.0743C17.2816 44.1173 17.2752 44.1553 17.273 44.168C17.2714 44.1774 17.2712 44.1788 17.2709 44.1805C17.2708 44.1811 17.2716 44.1766 17.273 44.1692L18.7446 44.4598L20.2162 44.7504C20.2203 44.7297 20.2235 44.7118 20.2258 44.699C20.2278 44.6873 20.2299 44.675 20.2306 44.6709C20.2317 44.6646 20.2317 44.6643 20.2315 44.6656C20.2312 44.6673 20.23 44.6737 20.2281 44.6831L18.7593 44.3787ZM18.7446 44.4598L19.1993 45.8892C20.0618 45.6148 20.5881 45.3905 21.1074 45.0679L20.3159 43.7938L19.5244 42.5196C19.2965 42.6612 19.0277 42.7957 18.2899 43.0304L18.7446 44.4598ZM20.3159 43.7938L21.2064 45.0009C22.2611 44.2228 23.6751 43.0586 25.2239 41.7933L24.2749 40.6317L23.3259 39.47C21.742 40.764 20.4041 41.8648 19.4255 42.5866L20.3159 43.7938ZM24.2749 40.6317L25.3098 41.7175C27.5336 39.598 29.3325 37.3303 31.3884 34.9654L30.2563 33.9813L29.1243 32.9972C26.9556 35.4919 25.328 37.5558 23.24 39.5458L24.2749 40.6317ZM30.2563 33.9813L31.3884 34.9654C31.9147 34.3599 32.4824 33.6798 33.0753 32.9524L31.9126 32.0047L30.7499 31.057C30.1695 31.7691 29.6232 32.4232 29.1243 32.9972L30.2563 33.9813ZM31.9126 32.0047L32.8273 30.8158C32.4136 30.4976 32.0014 30.1912 31.5921 29.9047L30.7319 31.1336L29.8718 32.3625C30.2344 32.6163 30.6091 32.8944 30.9979 33.1936L31.9126 32.0047ZM30.7319 31.1336L31.5921 29.9047C28.8154 27.9611 25.2474 26.0918 19.9867 23.6446L19.354 25.0047L18.7213 26.3648C23.9569 28.8002 27.3232 30.5786 29.8718 32.3625L30.7319 31.1336ZM19.354 25.0047L19.8873 23.6027C19.9006 23.6078 19.912 23.6123 19.9207 23.6159C19.9295 23.6195 19.9366 23.6225 19.9414 23.6246C19.9462 23.6266 19.9498 23.6282 19.9511 23.6288C19.9518 23.6291 19.9523 23.6293 19.9522 23.6293C19.9522 23.6293 19.9521 23.6292 19.9519 23.6291C19.9517 23.6291 19.9514 23.6289 19.9511 23.6288C19.9497 23.6282 19.9464 23.6267 19.9423 23.6249C19.938 23.6231 19.9323 23.6206 19.9255 23.6177C19.9119 23.6119 19.8927 23.604 19.8696 23.5952L19.3354 24.9969L18.8013 26.3986C18.7817 26.3911 18.7659 26.3846 18.7557 26.3802C18.7505 26.378 18.7464 26.3762 18.7437 26.3751C18.7412 26.374 18.7394 26.3732 18.7396 26.3733C18.7397 26.3733 18.7397 26.3733 18.7399 26.3734C18.7401 26.3735 18.7404 26.3736 18.7408 26.3738C18.7415 26.3741 18.7427 26.3746 18.7441 26.3753C18.747 26.3765 18.752 26.3787 18.7582 26.3814C18.7645 26.3841 18.773 26.3877 18.7832 26.3919C18.7933 26.396 18.806 26.4011 18.8208 26.4067L19.354 25.0047ZM19.3354 24.9969L19.8702 23.5954C19.8458 23.5861 19.8167 23.5747 19.7554 23.551L19.2144 24.95L18.6733 26.349C18.7159 26.3655 18.7691 26.3863 18.8007 26.3983L19.3354 24.9969ZM19.2144 24.95L19.7554 23.551C19.6485 23.5096 19.5079 23.4557 19.336 23.387L18.7798 24.7801L18.2235 26.1731C18.4141 26.2492 18.5724 26.31 18.6733 26.349L19.2144 24.95ZM18.7798 24.7801L19.3361 23.387C18.9847 23.2467 18.5064 23.0504 18.0009 22.8285L17.3979 24.202L16.795 25.5755C17.3393 25.8144 17.85 26.024 18.2235 26.1731L18.7798 24.7801ZM17.3979 24.202L18.0009 22.8285C17.4943 22.6061 16.9674 22.3607 16.5161 22.122L15.8149 23.4481L15.1138 24.7741C15.6548 25.0601 16.2545 25.3382 16.795 25.5754L17.3979 24.202ZM15.8149 23.4481L16.5161 22.122C16.0473 21.8741 15.7205 21.6647 15.5652 21.521L14.5464 22.6219L13.5275 23.7228C13.994 24.1544 14.6273 24.5168 15.1138 24.7741L15.8149 23.4481ZM14.5464 22.6219L15.5656 21.5214C15.8694 21.8027 15.8877 22.2759 15.6065 22.5799L14.5054 21.5613L13.4042 20.5428C12.5608 21.4546 12.6159 22.8784 13.5271 23.7224L14.5464 22.6219ZM14.5054 21.5613L15.6054 22.5811C15.3226 22.8862 14.8485 22.902 14.5462 22.6223L15.5649 21.5213L16.5837 20.4203C15.6737 19.5783 14.2509 19.6294 13.4053 20.5416L14.5054 21.5613ZM15.5649 21.5213L14.546 22.6221C14.8583 22.9112 15.3414 23.1975 15.8149 23.4479L16.5161 22.1219L17.2173 20.7959C17.0069 20.6846 16.8434 20.59 16.7253 20.5151C16.5942 20.4321 16.5626 20.4008 16.5839 20.4205L15.5649 21.5213ZM16.5161 22.1219L15.815 23.4479C16.3102 23.7098 16.8724 23.9719 17.3975 24.2024L18.0005 22.8289L18.6034 21.4554C18.1149 21.241 17.6246 21.0112 17.2172 20.7958L16.5161 22.1219ZM18.0005 22.8289L17.3975 24.2024C17.9227 24.4329 18.4176 24.6358 18.7802 24.7806L19.3364 23.3875L19.8927 21.9945C19.5511 21.8581 19.0889 21.6686 18.6034 21.4554L18.0005 22.8289ZM19.3364 23.3875L18.7802 24.7806C18.9642 24.8541 19.1156 24.9124 19.2143 24.9506L19.7554 23.5516L20.2965 22.1526C20.1961 22.1138 20.0594 22.061 19.8927 21.9945L19.3364 23.3875ZM19.7554 23.5516L19.2143 24.9506C19.2654 24.9703 19.3064 24.9861 19.3348 24.9969L19.8696 23.5955L20.4045 22.1941C20.3809 22.1851 20.3442 22.171 20.2965 22.1526L19.7554 23.5516ZM19.8696 23.5955L19.3349 24.997C19.3243 24.9929 19.3168 24.9898 19.3185 24.9905C19.3196 24.991 19.3192 24.9908 19.3215 24.9918C19.323 24.9924 19.3258 24.9935 19.329 24.9948C19.3323 24.9961 19.3371 24.9981 19.3428 25.0004C19.3484 25.0026 19.3563 25.0057 19.3657 25.0093L19.8989 23.6072L20.4321 22.2052C20.4399 22.2082 20.4461 22.2106 20.4499 22.2121C20.4537 22.2136 20.4566 22.2148 20.4578 22.2153C20.459 22.2158 20.4596 22.216 20.4589 22.2157C20.4585 22.2156 20.4582 22.2154 20.4574 22.2151C20.4567 22.2148 20.4558 22.2145 20.4548 22.214C20.4467 22.2107 20.4278 22.203 20.4044 22.1941L19.8696 23.5955ZM19.8989 23.6072L19.3671 25.0098C19.4302 25.0337 19.4848 25.0496 19.5252 25.0601C19.5652 25.0704 19.5971 25.0769 19.6109 25.0796C19.617 25.0809 19.6233 25.0821 19.6209 25.0816C19.6207 25.0816 19.6184 25.0811 19.6156 25.0806C19.6126 25.08 19.6077 25.079 19.6016 25.0778C19.5907 25.0755 19.5683 25.0708 19.5401 25.0637C19.5254 25.06 19.5072 25.0551 19.4862 25.049C19.4654 25.043 19.4398 25.035 19.4107 25.0248L19.9067 23.6092L20.4027 22.1936C20.3735 22.1833 20.3476 22.1753 20.3266 22.1691C20.3055 22.163 20.287 22.1581 20.2721 22.1543C20.2572 22.1506 20.2442 22.1476 20.2341 22.1453C20.2239 22.143 20.2153 22.1412 20.209 22.1399C20.2026 22.1386 20.1974 22.1375 20.1942 22.1369C20.191 22.1363 20.1885 22.1358 20.1879 22.1357C20.1864 22.1354 20.188 22.1357 20.1888 22.1358C20.1901 22.1361 20.1927 22.1366 20.196 22.1373C20.2025 22.1386 20.2134 22.1408 20.2269 22.1438C20.2404 22.1468 20.2575 22.1508 20.2773 22.1559C20.3162 22.1659 20.3693 22.1814 20.4308 22.2047L19.8989 23.6072ZM19.9067 23.6092L18.8461 24.6699L18.8471 24.6708L19.9077 23.6102L20.9684 22.5495L20.9674 22.5485L19.9067 23.6092ZM19.9077 23.6102L19.4032 25.0228L19.4306 25.0325L19.9351 23.6199L20.4396 22.2073L20.4122 22.1976L19.9077 23.6102ZM19.9351 23.6199L19.2642 24.9616L19.2896 24.9743L19.9604 23.6326L20.6313 22.291L20.6059 22.2783L19.9351 23.6199ZM19.9604 23.6326L19.3279 24.9927C24.5905 27.4401 28.0641 29.2681 30.7311 31.1349L31.5913 29.9061L32.4515 28.6772C29.5563 26.6507 25.8813 24.7318 20.593 22.2725L19.9604 23.6326ZM31.5913 29.9061L30.7311 31.1349C31.1221 31.4086 31.5243 31.7067 31.9376 32.025L32.853 30.8367L33.7684 29.6484C33.3276 29.3089 32.8879 28.9827 32.4515 28.6772L31.5913 29.9061ZM32.853 30.8367L34.0254 31.7725C35.5139 29.9075 37.1266 27.8109 38.6447 25.8276L37.4536 24.9158L36.2625 24.0041C34.7445 25.9873 33.1483 28.0623 31.6807 29.901L32.853 30.8367ZM37.4536 24.9158L38.6447 25.8276C41.1343 22.5752 43.3302 19.6854 44.3492 18.5741L43.2437 17.5604L42.1381 16.5466C41.0012 17.7864 38.6837 20.8411 36.2625 24.0041L37.4536 24.9158Z" fill="white" mask="url(#path-1-outside-1_34_109)"/>
</svg>
