<svg width="64" height="64" viewBox="0 0 64 64" fill="none" xmlns="http://www.w3.org/2000/svg">
<mask id="path-1-outside-1_34_117" maskUnits="userSpaceOnUse" x="9.99316" y="21.2246" width="41" height="24" fill="black">
<rect fill="white" x="9.99316" y="21.2246" width="41" height="24"/>
<path d="M48.4072 23.5273C48.7927 23.3758 49.2283 23.5658 49.3799 23.9512C49.5312 24.3365 49.3423 24.7722 48.957 24.9238C47.5542 25.4753 44.3128 27.1084 40.6484 28.9395C38.3799 30.073 35.9617 31.2749 33.7646 32.3154C34.8757 32.859 36.02 33.4562 37.166 34.0635C39.3509 35.2213 41.5469 36.4125 43.6113 37.373L43.6191 37.377C45.0065 38.0414 46.0453 38.6795 46.9785 39.4248L46.9912 39.4346L47.002 39.4443C47.2014 39.6173 47.3917 39.7961 47.5762 39.9756C47.5766 39.5455 47.5587 39.0995 47.5225 38.6572C47.4251 37.4688 47.2021 36.4016 46.9053 35.7617C46.7309 35.386 46.8939 34.9391 47.2695 34.7646C47.6452 34.5905 48.0913 34.7543 48.2656 35.1299C48.6733 36.0083 48.915 37.2835 49.0176 38.5352C49.1211 39.7992 49.0898 41.1389 48.8984 42.1777L48.8291 42.5566L48.4814 42.7197C47.8344 43.0243 47.0183 43.0993 46.2236 43.1191C45.4477 43.1385 44.47 43.1033 43.5996 43.1064C42.8061 43.1271 42.2933 43.1804 41.5771 43.4062C41.1822 43.5308 40.7604 43.3109 40.6357 42.916C40.5111 42.5211 40.7301 42.1003 41.125 41.9756C42.023 41.6923 42.6885 41.6291 43.5605 41.6064H43.5771C44.5807 41.6023 45.393 41.6399 46.1865 41.6201C46.5124 41.612 46.7958 41.5928 47.04 41.5625C46.6986 41.2129 46.379 40.89 46.0342 40.5898C45.2115 39.934 44.2783 39.3564 42.9785 38.7334L42.1807 38.3555C40.3084 37.4491 38.3548 36.3913 36.4629 35.3887C34.9154 34.5686 33.4093 33.7858 31.999 33.1348C31.3337 33.4382 30.7037 33.7208 30.1191 33.9688C27.2235 35.1968 24.6046 36.4474 21.6641 37.3779L21.6377 37.3857L21.6104 37.3936C19.6411 37.8565 17.8376 38.2887 16.54 38.5254L16.5137 38.5303L16.4863 38.5332C15.9308 38.593 15.4093 38.5795 14.6455 38.4785C15.0687 38.7159 15.5698 38.9853 16.1094 39.2676C16.6717 39.5617 17.2589 39.8628 17.8154 40.1475C18.3705 40.4314 18.8971 40.7011 19.332 40.9287C19.6989 41.1207 19.8412 41.5735 19.6494 41.9404C19.4574 42.3072 19.0036 42.4496 18.6367 42.2578C18.2095 42.0342 17.6897 41.7688 17.1318 41.4834C16.5759 41.199 15.9832 40.8954 15.4141 40.5977C14.2998 40.0148 13.2054 39.4176 12.6738 39.0234L12.3818 38.8066L12.3701 38.4434C12.3572 38.0159 12.488 37.5898 12.6738 37.1973C12.8629 36.7981 13.1332 36.3845 13.4541 35.9697C14.0958 35.1404 14.9939 34.2381 16.0303 33.333L16.04 33.3252C16.9183 32.584 17.4384 32.2085 17.9629 31.8301C18.2987 31.5878 18.7673 31.6634 19.0098 31.999C19.2521 32.3349 19.1767 32.8045 18.8408 33.0469C18.3297 33.4157 17.8443 33.7657 17.0078 34.4717C16.0145 35.3399 15.1984 36.1669 14.6406 36.8877C14.6238 36.9095 14.6081 36.9326 14.5918 36.9541C15.4226 37.0764 15.8583 37.0906 16.2959 37.0459C17.5384 36.8179 19.2713 36.4024 21.2402 35.9395C24.0789 35.0385 26.5692 33.845 29.5332 32.5879C29.7245 32.5068 29.9198 32.4189 30.1211 32.3311C27.1358 31.1651 23.3884 30.201 17.8496 29.0557C17.8439 29.0549 17.8366 29.0547 17.8291 29.0537C17.7994 29.0497 17.7561 29.0428 17.7012 29.0352C17.5908 29.0199 17.4322 28.9976 17.2393 28.9688C16.8533 28.911 16.3254 28.8275 15.7617 28.7236C15.1994 28.62 14.591 28.495 14.0479 28.3535C13.5248 28.2172 12.9916 28.0486 12.623 27.8398C12.2631 27.6356 12.137 27.1776 12.3408 26.8174C12.545 26.4574 13.0021 26.3313 13.3623 26.5352C13.5461 26.6393 13.9129 26.7675 14.4268 26.9014C14.9207 27.03 15.489 27.1488 16.0332 27.249C16.5759 27.349 17.087 27.4293 17.4619 27.4854C17.6483 27.5132 17.8006 27.5352 17.9062 27.5498C17.9589 27.5571 18.0007 27.5627 18.0283 27.5664C18.042 27.5682 18.0527 27.5704 18.0596 27.5713H18.0693L18.0977 27.5752L18.125 27.5811C23.8226 28.7586 27.7312 29.7628 30.8848 31.0195C31.2475 31.1641 31.6169 31.3221 31.9932 31.4883C34.4415 30.3543 37.2976 28.9368 39.9775 27.5977C43.5911 25.7921 46.9229 24.1109 48.4072 23.5273Z"/>
</mask>
<path d="M48.4072 23.5273C48.7927 23.3758 49.2283 23.5658 49.3799 23.9512C49.5312 24.3365 49.3423 24.7722 48.957 24.9238C47.5542 25.4753 44.3128 27.1084 40.6484 28.9395C38.3799 30.073 35.9617 31.2749 33.7646 32.3154C34.8757 32.859 36.02 33.4562 37.166 34.0635C39.3509 35.2213 41.5469 36.4125 43.6113 37.373L43.6191 37.377C45.0065 38.0414 46.0453 38.6795 46.9785 39.4248L46.9912 39.4346L47.002 39.4443C47.2014 39.6173 47.3917 39.7961 47.5762 39.9756C47.5766 39.5455 47.5587 39.0995 47.5225 38.6572C47.4251 37.4688 47.2021 36.4016 46.9053 35.7617C46.7309 35.386 46.8939 34.9391 47.2695 34.7646C47.6452 34.5905 48.0913 34.7543 48.2656 35.1299C48.6733 36.0083 48.915 37.2835 49.0176 38.5352C49.1211 39.7992 49.0898 41.1389 48.8984 42.1777L48.8291 42.5566L48.4814 42.7197C47.8344 43.0243 47.0183 43.0993 46.2236 43.1191C45.4477 43.1385 44.47 43.1033 43.5996 43.1064C42.8061 43.1271 42.2933 43.1804 41.5771 43.4062C41.1822 43.5308 40.7604 43.3109 40.6357 42.916C40.5111 42.5211 40.7301 42.1003 41.125 41.9756C42.023 41.6923 42.6885 41.6291 43.5605 41.6064H43.5771C44.5807 41.6023 45.393 41.6399 46.1865 41.6201C46.5124 41.612 46.7958 41.5928 47.04 41.5625C46.6986 41.2129 46.379 40.89 46.0342 40.5898C45.2115 39.934 44.2783 39.3564 42.9785 38.7334L42.1807 38.3555C40.3084 37.4491 38.3548 36.3913 36.4629 35.3887C34.9154 34.5686 33.4093 33.7858 31.999 33.1348C31.3337 33.4382 30.7037 33.7208 30.1191 33.9688C27.2235 35.1968 24.6046 36.4474 21.6641 37.3779L21.6377 37.3857L21.6104 37.3936C19.6411 37.8565 17.8376 38.2887 16.54 38.5254L16.5137 38.5303L16.4863 38.5332C15.9308 38.593 15.4093 38.5795 14.6455 38.4785C15.0687 38.7159 15.5698 38.9853 16.1094 39.2676C16.6717 39.5617 17.2589 39.8628 17.8154 40.1475C18.3705 40.4314 18.8971 40.7011 19.332 40.9287C19.6989 41.1207 19.8412 41.5735 19.6494 41.9404C19.4574 42.3072 19.0036 42.4496 18.6367 42.2578C18.2095 42.0342 17.6897 41.7688 17.1318 41.4834C16.5759 41.199 15.9832 40.8954 15.4141 40.5977C14.2998 40.0148 13.2054 39.4176 12.6738 39.0234L12.3818 38.8066L12.3701 38.4434C12.3572 38.0159 12.488 37.5898 12.6738 37.1973C12.8629 36.7981 13.1332 36.3845 13.4541 35.9697C14.0958 35.1404 14.9939 34.2381 16.0303 33.333L16.04 33.3252C16.9183 32.584 17.4384 32.2085 17.9629 31.8301C18.2987 31.5878 18.7673 31.6634 19.0098 31.999C19.2521 32.3349 19.1767 32.8045 18.8408 33.0469C18.3297 33.4157 17.8443 33.7657 17.0078 34.4717C16.0145 35.3399 15.1984 36.1669 14.6406 36.8877C14.6238 36.9095 14.6081 36.9326 14.5918 36.9541C15.4226 37.0764 15.8583 37.0906 16.2959 37.0459C17.5384 36.8179 19.2713 36.4024 21.2402 35.9395C24.0789 35.0385 26.5692 33.845 29.5332 32.5879C29.7245 32.5068 29.9198 32.4189 30.1211 32.3311C27.1358 31.1651 23.3884 30.201 17.8496 29.0557C17.8439 29.0549 17.8366 29.0547 17.8291 29.0537C17.7994 29.0497 17.7561 29.0428 17.7012 29.0352C17.5908 29.0199 17.4322 28.9976 17.2393 28.9688C16.8533 28.911 16.3254 28.8275 15.7617 28.7236C15.1994 28.62 14.591 28.495 14.0479 28.3535C13.5248 28.2172 12.9916 28.0486 12.623 27.8398C12.2631 27.6356 12.137 27.1776 12.3408 26.8174C12.545 26.4574 13.0021 26.3313 13.3623 26.5352C13.5461 26.6393 13.9129 26.7675 14.4268 26.9014C14.9207 27.03 15.489 27.1488 16.0332 27.249C16.5759 27.349 17.087 27.4293 17.4619 27.4854C17.6483 27.5132 17.8006 27.5352 17.9062 27.5498C17.9589 27.5571 18.0007 27.5627 18.0283 27.5664C18.042 27.5682 18.0527 27.5704 18.0596 27.5713H18.0693L18.0977 27.5752L18.125 27.5811C23.8226 28.7586 27.7312 29.7628 30.8848 31.0195C31.2475 31.1641 31.6169 31.3221 31.9932 31.4883C34.4415 30.3543 37.2976 28.9368 39.9775 27.5977C43.5911 25.7921 46.9229 24.1109 48.4072 23.5273Z" fill="black"/>
<path d="M48.4072 23.5273L47.8584 22.1313L47.8584 22.1314L48.4072 23.5273ZM49.3799 23.9512L50.7761 23.4029L50.7758 23.4021L49.3799 23.9512ZM48.957 24.9238L49.5058 26.3198L49.5063 26.3196L48.957 24.9238ZM40.6484 28.9395L41.3189 30.2813L41.3189 30.2813L40.6484 28.9395ZM33.7646 32.3154L33.1226 30.9598L30.3066 32.2935L33.1054 33.6628L33.7646 32.3154ZM37.166 34.0635L37.8684 32.7381L37.8684 32.7381L37.166 34.0635ZM43.6113 37.373L44.2821 36.0314L44.2633 36.022L44.2441 36.0131L43.6113 37.373ZM43.6191 37.377L42.9483 38.7186L42.9597 38.7243L42.9712 38.7298L43.6191 37.377ZM46.9785 39.4248L46.0425 40.5969L46.0531 40.6054L46.0639 40.6137L46.9785 39.4248ZM46.9912 39.4346L48.0002 38.3247L47.9546 38.2832L47.9058 38.2456L46.9912 39.4346ZM47.002 39.4443L45.9929 40.5542L46.006 40.5661L46.0194 40.5777L47.002 39.4443ZM47.5762 39.9756L46.5301 41.0506L49.0728 43.5248L49.0762 39.977L47.5762 39.9756ZM47.5225 38.6572L49.0175 38.5348L49.0174 38.5347L47.5225 38.6572ZM46.9053 35.7617L48.266 35.1305L48.2658 35.1302L46.9053 35.7617ZM47.2695 34.7646L46.6386 33.4038L46.6379 33.4041L47.2695 34.7646ZM48.2656 35.1299L49.6263 34.4985L49.6262 34.4983L48.2656 35.1299ZM49.0176 38.5352L50.5126 38.4127L50.5126 38.4127L49.0176 38.5352ZM48.8984 42.1777L47.4233 41.9059L47.4229 41.9077L48.8984 42.1777ZM48.8291 42.5566L49.4661 43.9146L50.1655 43.5866L50.3046 42.8266L48.8291 42.5566ZM48.4814 42.7197L47.8444 41.3617L47.8427 41.3625L48.4814 42.7197ZM46.2236 43.1191L46.2611 44.6187L46.2611 44.6187L46.2236 43.1191ZM43.5996 43.1064L43.5942 41.6065L43.5774 41.6065L43.5606 41.607L43.5996 43.1064ZM41.5771 43.4062L41.126 41.9757L41.1259 41.9757L41.5771 43.4062ZM40.6357 42.916L39.2052 43.3673L39.2054 43.3677L40.6357 42.916ZM41.125 41.9756L40.6738 40.5451L40.6732 40.5452L41.125 41.9756ZM43.5605 41.6064V40.1064H43.541L43.5215 40.107L43.5605 41.6064ZM43.5771 41.6064L43.5771 43.1065L43.5834 43.1064L43.5771 41.6064ZM46.1865 41.6201L46.224 43.1196L46.224 43.1196L46.1865 41.6201ZM47.04 41.5625L47.2248 43.0511L50.2265 42.6786L48.1132 40.5145L47.04 41.5625ZM46.0342 40.5898L47.019 39.4584L46.9946 39.4371L46.9692 39.4169L46.0342 40.5898ZM42.9785 38.7334L43.6268 37.3807L43.6206 37.3778L42.9785 38.7334ZM42.1807 38.3555L41.527 39.7056L41.5385 39.7111L42.1807 38.3555ZM36.4629 35.3887L37.1653 34.0633L37.1653 34.0633L36.4629 35.3887ZM31.999 33.1348L32.6277 31.7729L32.0028 31.4844L31.3766 31.77L31.999 33.1348ZM30.1191 33.9688L29.5335 32.5878L29.5335 32.5878L30.1191 33.9688ZM21.6641 37.3779L22.0902 38.8161L22.1034 38.8122L22.1166 38.808L21.6641 37.3779ZM21.6377 37.3857L22.0498 38.828L22.0568 38.826L22.0638 38.8239L21.6377 37.3857ZM21.6104 37.3936L21.9536 38.8537L21.9882 38.8456L22.0224 38.8358L21.6104 37.3936ZM16.54 38.5254L16.2708 37.0497L16.2669 37.0505L16.54 38.5254ZM16.5137 38.5303L16.6735 40.0217L16.7305 40.0156L16.7868 40.0052L16.5137 38.5303ZM16.4863 38.5332L16.3265 37.0417L16.3257 37.0418L16.4863 38.5332ZM14.6455 38.4785L14.842 36.9914L13.9117 39.7868L14.6455 38.4785ZM16.1094 39.2676L15.4141 40.5967L15.4141 40.5967L16.1094 39.2676ZM17.8154 40.1475L17.1323 41.4829L17.1323 41.4829L17.8154 40.1475ZM19.332 40.9287L20.0277 39.5998L20.0275 39.5997L19.332 40.9287ZM19.6494 41.9404L20.9783 42.6362L20.9788 42.6353L19.6494 41.9404ZM18.6367 42.2578L17.9413 43.5868L17.9418 43.5871L18.6367 42.2578ZM17.1318 41.4834L16.4487 42.8188L16.4487 42.8188L17.1318 41.4834ZM15.4141 40.5977L14.7188 41.9268L14.7188 41.9268L15.4141 40.5977ZM12.6738 39.0234L11.7796 40.2278L11.7804 40.2284L12.6738 39.0234ZM12.3818 38.8066L10.8826 38.855L10.906 39.5791L11.4876 40.011L12.3818 38.8066ZM12.3701 38.4434L10.8708 38.4887L10.8709 38.4917L12.3701 38.4434ZM12.6738 37.1973L11.3182 36.5551L11.3181 36.5553L12.6738 37.1973ZM13.4541 35.9697L12.2678 35.0518L12.2677 35.0519L13.4541 35.9697ZM16.0303 33.333L15.0932 32.1617L15.0679 32.1819L15.0436 32.2032L16.0303 33.333ZM16.04 33.3252L16.9771 34.4965L16.9925 34.4842L17.0075 34.4715L16.04 33.3252ZM17.9629 31.8301L17.0852 30.6137L17.0852 30.6137L17.9629 31.8301ZM19.0098 31.999L20.2263 31.1215L20.2257 31.1207L19.0098 31.999ZM18.8408 33.0469L19.7185 34.2633L19.7185 34.2633L18.8408 33.0469ZM17.0078 34.4717L16.0403 33.3254L16.0304 33.3338L16.0206 33.3423L17.0078 34.4717ZM14.6406 36.8877L13.4543 35.9697L13.4542 35.9698L14.6406 36.8877ZM14.5918 36.9541L13.3965 36.0478L11.8642 38.0688L14.3734 38.4381L14.5918 36.9541ZM16.2959 37.0459L16.4483 38.5381L16.5078 38.5321L16.5666 38.5213L16.2959 37.0459ZM21.2402 35.9395L21.5836 37.3996L21.6394 37.3865L21.694 37.3692L21.2402 35.9395ZM29.5332 32.5879L28.9475 31.207L28.9475 31.207L29.5332 32.5879ZM30.1211 32.3311L30.7213 33.7058L34.0467 32.2539L30.6668 30.9338L30.1211 32.3311ZM17.8496 29.0557L18.1534 27.5867L18.1001 27.5757L18.0462 27.5686L17.8496 29.0557ZM17.8291 29.0537L17.6299 30.5404L17.6301 30.5405L17.8291 29.0537ZM17.7012 29.0352L17.4955 30.521L17.4955 30.521L17.7012 29.0352ZM17.2393 28.9688L17.0174 30.4523L17.0174 30.4523L17.2393 28.9688ZM15.7617 28.7236L15.49 30.1988L15.49 30.1988L15.7617 28.7236ZM14.0479 28.3535L13.6696 29.805L13.6696 29.8051L14.0479 28.3535ZM12.623 27.8398L11.8829 29.1445L11.8838 29.145L12.623 27.8398ZM12.3408 26.8174L11.0362 26.0772L11.0354 26.0786L12.3408 26.8174ZM13.3623 26.5352L14.1016 25.23L14.1011 25.2297L13.3623 26.5352ZM14.4268 26.9014L14.0485 28.3529L14.0486 28.3529L14.4268 26.9014ZM16.0332 27.249L15.7615 28.7242L15.7615 28.7242L16.0332 27.249ZM17.4619 27.4854L17.2401 28.9689L17.2401 28.9689L17.4619 27.4854ZM17.9062 27.5498L17.7005 29.0356L17.7006 29.0356L17.9062 27.5498ZM18.0283 27.5664L17.8293 29.0531L17.8294 29.0532L18.0283 27.5664ZM18.0596 27.5713L17.8629 29.0583L17.9608 29.0713H18.0596V27.5713ZM18.0693 27.5713L18.2743 26.0854L18.1723 26.0713H18.0693V27.5713ZM18.0977 27.5752L18.4119 26.1085L18.3576 26.0969L18.3026 26.0893L18.0977 27.5752ZM18.125 27.5811L17.8107 29.0478L17.8214 29.05L18.125 27.5811ZM30.8848 31.0195L31.4401 29.6261L31.4401 29.6261L30.8848 31.0195ZM31.9932 31.4883L31.3871 32.8604L32.0078 33.1346L32.6236 32.8494L31.9932 31.4883ZM39.9775 27.5977L40.648 28.9395L40.648 28.9395L39.9775 27.5977ZM48.4072 23.5273L48.956 24.9233C48.5699 25.0751 48.1353 24.885 47.984 24.5002L49.3799 23.9512L50.7758 23.4021C50.3213 22.2466 49.0155 21.6765 47.8584 22.1313L48.4072 23.5273ZM49.3799 23.9512L47.9837 24.4994C47.8334 24.1168 48.0197 23.6807 48.4077 23.528L48.957 24.9238L49.5063 26.3196C50.6648 25.8637 51.2289 24.5562 50.7761 23.4029L49.3799 23.9512ZM48.957 24.9238L48.4082 23.5278C46.9242 24.1112 43.5919 25.7918 39.978 27.5976L40.6484 28.9395L41.3189 30.2813C45.0338 28.425 48.1842 26.8394 49.5058 26.3198L48.957 24.9238ZM40.6484 28.9395L39.978 27.5976C37.7091 28.7314 35.3037 29.9268 33.1226 30.9598L33.7646 32.3154L34.4067 33.6711C36.6196 32.623 39.0506 31.4147 41.3189 30.2813L40.6484 28.9395ZM33.7646 32.3154L33.1054 33.6628C34.1942 34.1955 35.3214 34.7835 36.4636 35.3889L37.166 34.0635L37.8684 32.7381C36.7186 32.1288 35.5572 31.5225 34.4239 30.968L33.7646 32.3154ZM37.166 34.0635L36.4636 35.3889C38.6262 36.5349 40.8689 37.7515 42.9785 38.733L43.6113 37.373L44.2441 36.0131C42.2249 35.0735 40.0756 33.9078 37.8684 32.7381L37.166 34.0635ZM43.6113 37.373L42.9405 38.7147L42.9483 38.7186L43.6191 37.377L44.29 36.0353L44.2821 36.0314L43.6113 37.373ZM43.6191 37.377L42.9712 38.7298C44.279 39.3561 45.216 39.9369 46.0425 40.5969L46.9785 39.4248L47.9146 38.2527C46.8745 37.4221 45.7341 36.7267 44.267 36.0241L43.6191 37.377ZM46.9785 39.4248L46.0639 40.6137L46.0766 40.6235L46.9912 39.4346L47.9058 38.2456L47.8931 38.2359L46.9785 39.4248ZM46.9912 39.4346L45.9822 40.5445L45.9929 40.5542L47.002 39.4443L48.011 38.3344L48.0002 38.3247L46.9912 39.4346ZM47.002 39.4443L46.0194 40.5777C46.1896 40.7253 46.3575 40.8827 46.5301 41.0506L47.5762 39.9756L48.6222 38.9005C48.4258 38.7094 48.2133 38.5093 47.9845 38.3109L47.002 39.4443ZM47.5762 39.9756L49.0762 39.977C49.0766 39.5052 49.057 39.0179 49.0175 38.5348L47.5225 38.6572L46.0275 38.7797C46.0604 39.1811 46.0765 39.5857 46.0762 39.9742L47.5762 39.9756ZM47.5225 38.6572L49.0174 38.5347C48.9149 37.2833 48.6734 36.0087 48.266 35.1305L46.9053 35.7617L45.5445 36.3929C45.7308 36.7945 45.9352 37.6543 46.0275 38.7797L47.5225 38.6572ZM46.9053 35.7617L48.2658 35.1302C48.4394 35.5041 48.2787 35.9499 47.9012 36.1252L47.2695 34.7646L46.6379 33.4041C45.5091 33.9282 45.0224 35.268 45.5447 36.3933L46.9053 35.7617ZM47.2695 34.7646L47.9004 36.1255C47.5234 36.3003 47.0788 36.1357 46.9051 35.7614L48.2656 35.1299L49.6262 34.4983C49.1038 33.3729 47.7669 32.8807 46.6386 33.4038L47.2695 34.7646ZM48.2656 35.1299L46.905 35.7613C47.2021 36.4016 47.4252 37.4696 47.5226 38.6577L49.0176 38.5352L50.5126 38.4127C50.4048 37.0973 50.1444 35.615 49.6263 34.4985L48.2656 35.1299ZM49.0176 38.5352L47.5226 38.6576C47.6189 39.8334 47.584 41.0338 47.4233 41.9059L48.8984 42.1777L50.3736 42.4495C50.5957 41.2439 50.6234 39.7651 50.5126 38.4127L49.0176 38.5352ZM48.8984 42.1777L47.4229 41.9077L47.3536 42.2866L48.8291 42.5566L50.3046 42.8266L50.3739 42.4477L48.8984 42.1777ZM48.8291 42.5566L48.1921 41.1986L47.8444 41.3617L48.4814 42.7197L49.1185 44.0777L49.4661 43.9146L48.8291 42.5566ZM48.4814 42.7197L47.8427 41.3625C47.5029 41.5224 46.9651 41.6001 46.1861 41.6196L46.2236 43.1191L46.2611 44.6187C47.0716 44.5984 48.1659 44.5261 49.1202 44.0769L48.4814 42.7197ZM46.2236 43.1191L46.1862 41.6196C45.4049 41.6391 44.5803 41.6029 43.5942 41.6065L43.5996 43.1064L43.605 44.6064C44.3597 44.6037 45.4905 44.6379 46.2611 44.6187L46.2236 43.1191ZM43.5996 43.1064L43.5606 41.607C42.6877 41.6297 42.0232 41.6928 41.126 41.9757L41.5771 43.4062L42.0283 44.8368C42.5633 44.6681 42.9244 44.6245 43.6386 44.6059L43.5996 43.1064ZM41.5771 43.4062L41.1259 41.9757C41.5225 41.8506 41.9419 42.0711 42.0661 42.4643L40.6357 42.916L39.2054 43.3677C39.5789 44.5508 40.8419 45.2111 42.0284 44.8368L41.5771 43.4062ZM40.6357 42.916L42.0662 42.4647C42.1909 42.86 41.9713 43.2813 41.5768 43.4059L41.125 41.9756L40.6732 40.5452C39.4889 40.9193 38.8314 42.1822 39.2052 43.3673L40.6357 42.916ZM41.125 41.9756L41.5762 43.4061C42.2933 43.1799 42.8071 43.1266 43.5996 43.1059L43.5605 41.6064L43.5215 40.107C42.5699 40.1317 41.7527 40.2047 40.6738 40.5451L41.125 41.9756ZM43.5605 41.6064V43.1064H43.5771V41.6064V40.1064H43.5605V41.6064ZM43.5771 41.6064L43.5834 43.1064C44.454 43.1028 45.445 43.1391 46.224 43.1196L46.1865 41.6201L46.149 40.1206C45.3409 40.1408 44.7074 40.1017 43.5709 40.1065L43.5771 41.6064ZM46.1865 41.6201L46.224 43.1196C46.5846 43.1106 46.9191 43.089 47.2248 43.0511L47.04 41.5625L46.8553 40.0739C46.6725 40.0966 46.4403 40.1133 46.149 40.1206L46.1865 41.6201ZM47.04 41.5625L48.1132 40.5145C47.7727 40.1658 47.4149 39.803 47.019 39.4584L46.0342 40.5898L45.0494 41.7213C45.3432 41.977 45.6245 42.2599 45.9669 42.6105L47.04 41.5625ZM46.0342 40.5898L46.9692 39.4169C46.0401 38.6762 45.0056 38.0415 43.6268 37.3807L42.9785 38.7334L42.3302 40.0861C43.5511 40.6712 44.383 41.1918 45.0991 41.7627L46.0342 40.5898ZM42.9785 38.7334L43.6206 37.3778L42.8228 36.9999L42.1807 38.3555L41.5385 39.7111L42.3364 40.089L42.9785 38.7334ZM42.1807 38.3555L42.8343 37.0054C40.994 36.1144 39.0755 35.0756 37.1653 34.0633L36.4629 35.3887L35.7605 36.7141C37.634 37.7069 39.6229 38.7837 41.5271 39.7056L42.1807 38.3555ZM36.4629 35.3887L37.1653 34.0633C35.616 33.2423 34.0785 32.4426 32.6277 31.7729L31.999 33.1348L31.3703 34.4966C32.7402 35.129 34.2147 35.8949 35.7605 36.7141L36.4629 35.3887ZM31.999 33.1348L31.3766 31.77C30.7148 32.0718 30.0993 32.3478 29.5335 32.5878L30.1191 33.9688L30.7048 35.3497C31.3081 35.0938 31.9525 34.8046 32.6214 34.4995L31.999 33.1348ZM30.1191 33.9688L29.5335 32.5878C26.5609 33.8485 24.0619 35.0458 21.2115 35.9478L21.6641 37.3779L22.1166 38.808C25.1473 37.849 27.8862 36.5451 30.7048 35.3497L30.1191 33.9688ZM21.6641 37.3779L21.2379 35.9397L21.2116 35.9475L21.6377 37.3857L22.0638 38.8239L22.0902 38.8161L21.6641 37.3779ZM21.6377 37.3857L21.2256 35.9435L21.1983 35.9513L21.6104 37.3936L22.0224 38.8358L22.0498 38.828L21.6377 37.3857ZM21.6104 37.3936L21.2671 35.9334C19.2747 36.4018 17.5207 36.8217 16.2708 37.0497L16.54 38.5254L16.8093 40.001C18.1544 39.7556 20.0075 39.3113 21.9536 38.8537L21.6104 37.3936ZM16.54 38.5254L16.2669 37.0505L16.2405 37.0554L16.5137 38.5303L16.7868 40.0052L16.8132 40.0003L16.54 38.5254ZM16.5137 38.5303L16.3539 37.0388L16.3265 37.0417L16.4863 38.5332L16.6461 40.0247L16.6735 40.0217L16.5137 38.5303ZM16.4863 38.5332L16.3257 37.0418C15.9203 37.0855 15.5233 37.0815 14.842 36.9914L14.6455 38.4785L14.449 39.9656C15.2953 40.0774 15.9413 40.1006 16.6469 40.0246L16.4863 38.5332ZM14.6455 38.4785L13.9117 39.7868C14.3515 40.0335 14.8663 40.3101 15.4141 40.5967L16.1094 39.2676L16.8047 37.9385C16.2733 37.6605 15.7858 37.3983 15.3793 37.1703L14.6455 38.4785ZM16.1094 39.2676L15.4141 40.5967C15.9831 40.8944 16.5757 41.1982 17.1323 41.4829L17.8154 40.1475L18.4985 38.812C17.9421 38.5274 17.3603 38.2291 16.8047 37.9384L16.1094 39.2676ZM17.8154 40.1475L17.1323 41.4829C17.6886 41.7674 18.2089 42.034 18.6366 42.2577L19.332 40.9287L20.0275 39.5997C19.5854 39.3683 19.0524 39.0953 18.4985 38.812L17.8154 40.1475ZM19.332 40.9287L18.6364 42.2577C18.2713 42.0666 18.1273 41.6143 18.3201 41.2456L19.6494 41.9404L20.9788 42.6353C21.5551 41.5327 21.1264 40.1749 20.0277 39.5998L19.332 40.9287ZM19.6494 41.9404L18.3206 41.2446C18.512 40.879 18.9636 40.7361 19.3316 40.9285L18.6367 42.2578L17.9418 43.5871C19.0436 44.1631 20.4027 43.7354 20.9783 42.6362L19.6494 41.9404ZM18.6367 42.2578L19.3322 40.9288C18.8972 40.7012 18.3699 40.4319 17.8149 40.148L17.1318 41.4834L16.4487 42.8188C17.0095 43.1057 17.5217 43.3673 17.9413 43.5868L18.6367 42.2578ZM17.1318 41.4834L17.8149 40.148C17.2587 39.8634 16.6716 39.5627 16.1093 39.2685L15.4141 40.5977L14.7188 41.9268C15.2947 42.228 15.893 42.5346 16.4487 42.8188L17.1318 41.4834ZM15.4141 40.5977L16.1093 39.2685C14.9619 38.6683 13.9847 38.128 13.5672 37.8185L12.6738 39.0234L11.7804 40.2284C12.4262 40.7072 13.6376 41.3612 14.7188 41.9268L15.4141 40.5977ZM12.6738 39.0234L13.568 37.8191L13.276 37.6023L12.3818 38.8066L11.4876 40.011L11.7796 40.2278L12.6738 39.0234ZM12.3818 38.8066L13.8811 38.7583L13.8693 38.395L12.3701 38.4434L10.8709 38.4917L10.8826 38.855L12.3818 38.8066ZM12.3701 38.4434L13.8694 38.398C13.8664 38.2969 13.8986 38.1157 14.0295 37.8392L12.6738 37.1973L11.3181 36.5553C11.0773 37.0638 10.848 37.7349 10.8708 38.4887L12.3701 38.4434ZM12.6738 37.1973L14.0294 37.8394C14.1573 37.5695 14.3603 37.2497 14.6405 36.8876L13.4541 35.9697L12.2677 35.0519C11.906 35.5194 11.5685 36.0267 11.3182 36.5551L12.6738 37.1973ZM13.4541 35.9697L14.6404 36.8877C15.2001 36.1644 16.0197 35.3338 17.017 34.4628L16.0303 33.333L15.0436 32.2032C13.9682 33.1425 12.9915 34.1165 12.2678 35.0518L13.4541 35.9697ZM16.0303 33.333L16.9673 34.5043L16.9771 34.4965L16.04 33.3252L15.103 32.1539L15.0932 32.1617L16.0303 33.333ZM16.04 33.3252L17.0075 34.4715C17.8439 33.7656 18.3295 33.4153 18.8406 33.0465L17.9629 31.8301L17.0852 30.6137C16.5474 31.0017 15.9926 31.4024 15.0726 32.1789L16.04 33.3252ZM17.9629 31.8301L18.8406 33.0465C18.5051 33.2886 18.0365 33.2133 17.7938 32.8774L19.0098 31.999L20.2257 31.1207C19.4982 30.1135 18.0923 29.887 17.0852 30.6137L17.9629 31.8301ZM19.0098 31.999L17.7932 32.8766C17.5522 32.5424 17.6254 32.0741 17.9631 31.8305L18.8408 33.0469L19.7185 34.2633C20.7279 33.5349 20.9519 32.1274 20.2263 31.1215L19.0098 31.999ZM18.8408 33.0469L17.9631 31.8305C17.4388 32.2088 16.9187 32.584 16.0403 33.3254L17.0078 34.4717L17.9753 35.618C18.7698 34.9474 19.2205 34.6226 19.7185 34.2633L18.8408 33.0469ZM17.0078 34.4717L16.0206 33.3423C14.9887 34.2443 14.0941 35.1429 13.4543 35.9697L14.6406 36.8877L15.8269 37.8057C16.3027 37.1909 17.0403 36.4356 17.995 35.601L17.0078 34.4717ZM14.6406 36.8877L13.4542 35.9698C13.4283 36.0033 13.4067 36.0335 13.399 36.0442C13.3933 36.052 13.3924 36.0534 13.391 36.0552C13.3903 36.0561 13.3926 36.0531 13.3965 36.0478L14.5918 36.9541L15.7871 37.8604C15.7992 37.8444 15.8095 37.8304 15.8168 37.8203C15.8235 37.811 15.8306 37.8012 15.833 37.7978C15.8367 37.7927 15.8371 37.7922 15.8366 37.7929C15.8358 37.794 15.8323 37.7987 15.827 37.8056L14.6406 36.8877ZM14.5918 36.9541L14.3734 38.4381C15.2665 38.5696 15.8385 38.6004 16.4483 38.5381L16.2959 37.0459L16.1435 35.5537C15.8782 35.5808 15.5787 35.5832 14.8102 35.4701L14.5918 36.9541ZM16.2959 37.0459L16.5666 38.5213C17.856 38.2847 19.6381 37.8571 21.5836 37.3996L21.2402 35.9395L20.8969 34.4793C18.9046 34.9477 17.2209 35.3511 16.0252 35.5705L16.2959 37.0459ZM21.2402 35.9395L21.694 37.3692C24.622 36.4399 27.2332 35.1927 30.1189 33.9688L29.5332 32.5879L28.9475 31.207C25.9052 32.4973 23.5358 33.6372 20.7865 34.5097L21.2402 35.9395ZM29.5332 32.5879L30.1189 33.9688C30.3183 33.8842 30.5418 33.7841 30.7213 33.7058L30.1211 32.3311L29.5209 30.9564C29.2978 31.0538 29.1306 31.1293 28.9475 31.207L29.5332 32.5879ZM30.1211 32.3311L30.6668 30.9338C27.5576 29.7195 23.7068 28.7351 18.1534 27.5867L17.8496 29.0557L17.5459 30.5246C23.0699 31.6669 26.714 32.6107 29.5754 33.7283L30.1211 32.3311ZM17.8496 29.0557L18.0462 27.5686C18.0294 27.5664 18.0149 27.5647 18.0035 27.5635C17.9921 27.5624 17.9825 27.5615 17.9756 27.5609C17.9687 27.5603 17.9631 27.5598 17.9601 27.5596C17.9586 27.5595 17.9572 27.5594 17.9565 27.5593C17.9562 27.5593 17.9558 27.5593 17.9557 27.5592C17.9555 27.5592 17.9554 27.5592 17.9554 27.5592C17.9555 27.5592 17.956 27.5593 17.9568 27.5593C17.9576 27.5594 17.9589 27.5595 17.9604 27.5596C17.9635 27.5599 17.9684 27.5603 17.9744 27.5609C17.9862 27.562 18.005 27.5639 18.0281 27.567L17.8291 29.0537L17.6301 30.5405C17.657 30.544 17.6794 30.5464 17.6949 30.5478C17.7027 30.5485 17.7094 30.5491 17.7143 30.5495C17.7191 30.5499 17.723 30.5502 17.7246 30.5503C17.725 30.5504 17.7254 30.5504 17.7256 30.5504C17.7259 30.5504 17.726 30.5504 17.7261 30.5504C17.7262 30.5505 17.7258 30.5504 17.725 30.5504C17.7237 30.5503 17.7197 30.5499 17.7145 30.5495C17.7092 30.549 17.7012 30.5483 17.6913 30.5473C17.6814 30.5462 17.6684 30.5448 17.653 30.5427L17.8496 29.0557ZM17.8291 29.0537L18.0283 27.567C18.0297 27.5672 18.0283 27.567 18.0217 27.566C18.015 27.5651 18.0076 27.564 17.9958 27.5622C17.9738 27.5589 17.9426 27.5543 17.9069 27.5493L17.7012 29.0352L17.4955 30.521C17.5146 30.5236 17.5326 30.5263 17.5534 30.5294C17.5694 30.5318 17.6013 30.5366 17.6299 30.5404L17.8291 29.0537ZM17.7012 29.0352L17.9069 27.5493C17.7996 27.5345 17.6468 27.513 17.4611 27.4852L17.2393 28.9688L17.0174 30.4523C17.2176 30.4822 17.382 30.5053 17.4955 30.521L17.7012 29.0352ZM17.2393 28.9688L17.4611 27.4852C17.0857 27.4291 16.5755 27.3483 16.0334 27.2485L15.7617 28.7236L15.49 30.1988C16.0754 30.3067 16.6209 30.393 17.0174 30.4523L17.2393 28.9688ZM15.7617 28.7236L16.0335 27.2485C15.4883 27.148 14.9195 27.0305 14.4261 26.902L14.0479 28.3535L13.6696 29.8051C14.2624 29.9595 14.9105 30.0921 15.49 30.1988L15.7617 28.7236ZM14.0479 28.3535L14.4261 26.902C13.9136 26.7684 13.5466 26.639 13.3623 26.5347L12.623 27.8398L11.8838 29.145C12.4366 29.4581 13.1361 29.666 13.6696 29.805L14.0479 28.3535ZM12.623 27.8398L13.3632 26.5352C13.7251 26.7405 13.8491 27.1978 13.6463 27.5561L12.3408 26.8174L11.0354 26.0786C10.4249 27.1574 10.801 28.5307 11.8829 29.1445L12.623 27.8398ZM12.3408 26.8174L13.6455 27.5575C13.4406 27.9187 12.9827 28.0438 12.6236 27.8406L13.3623 26.5352L14.1011 25.2297C13.0215 24.6188 11.6495 24.9962 11.0362 26.0772L12.3408 26.8174ZM13.3623 26.5352L12.6231 27.8403C12.994 28.0504 13.5315 28.2182 14.0485 28.3529L14.4268 26.9014L14.805 25.4498C14.5743 25.3897 14.393 25.3351 14.2605 25.2893C14.1133 25.2384 14.0757 25.2153 14.1016 25.23L13.3623 26.5352ZM14.4268 26.9014L14.0486 28.3529C14.5904 28.4941 15.1972 28.6203 15.7615 28.7242L16.0332 27.249L16.305 25.7738C15.7808 25.6773 15.251 25.566 14.8049 25.4498L14.4268 26.9014ZM16.0332 27.249L15.7615 28.7242C16.3269 28.8284 16.8561 28.9114 17.2401 28.9689L17.4619 27.4854L17.6837 26.0018C17.3178 25.9471 16.8249 25.8696 16.3049 25.7738L16.0332 27.249ZM17.4619 27.4854L17.2401 28.9689C17.4301 28.9973 17.588 29.0201 17.7005 29.0356L17.9062 27.5498L18.112 26.064C18.0133 26.0503 17.8665 26.0292 17.6837 26.0018L17.4619 27.4854ZM17.9062 27.5498L17.7006 29.0356C17.7564 29.0434 17.8007 29.0493 17.8293 29.0531L18.0283 27.5664L18.2273 26.0797C18.2007 26.0761 18.1614 26.0708 18.1119 26.064L17.9062 27.5498ZM18.0283 27.5664L17.8294 29.0532C17.8115 29.0508 17.7983 29.0485 17.7987 29.0486C17.7997 29.0488 17.7987 29.0486 17.8017 29.0491C17.8034 29.0494 17.8071 29.05 17.8114 29.0507C17.8157 29.0514 17.8224 29.0525 17.8304 29.0537C17.8383 29.0549 17.8495 29.0566 17.8629 29.0583L18.0596 27.5713L18.2562 26.0842C18.2679 26.0858 18.2773 26.0872 18.2832 26.0881C18.2893 26.089 18.2939 26.0898 18.296 26.0901C18.2982 26.0905 18.2996 26.0907 18.2989 26.0906C18.2985 26.0905 18.2983 26.0905 18.2974 26.0903C18.2967 26.0902 18.2956 26.09 18.2943 26.0898C18.2842 26.0881 18.2589 26.0839 18.2273 26.0797L18.0283 27.5664ZM18.0596 27.5713V29.0713H18.0693V27.5713V26.0713H18.0596V27.5713ZM18.0693 27.5713L17.8644 29.0572L17.8927 29.0611L18.0977 27.5752L18.3026 26.0893L18.2743 26.0854L18.0693 27.5713ZM18.0977 27.5752L17.7834 29.0419L17.8107 29.0478L18.125 27.5811L18.4393 26.1144L18.4119 26.1085L18.0977 27.5752ZM18.125 27.5811L17.8214 29.05C23.5048 30.2246 27.3051 31.2077 30.3295 32.413L30.8848 31.0195L31.4401 29.6261C28.1573 28.3179 24.1404 27.2926 18.4286 26.1121L18.125 27.5811ZM30.8848 31.0195L30.3295 32.413C30.6692 32.5483 31.0206 32.6985 31.3871 32.8604L31.9932 31.4883L32.5993 30.1162C32.2133 29.9457 31.8257 29.7798 31.4401 29.6261L30.8848 31.0195ZM31.9932 31.4883L32.6236 32.8494C35.0948 31.7047 37.9697 30.2778 40.648 28.9395L39.9775 27.5977L39.3071 26.2558C36.6255 27.5958 33.7882 29.0038 31.3627 30.1272L31.9932 31.4883ZM39.9775 27.5977L40.648 28.9395C44.3118 27.1088 47.5529 25.475 48.9561 24.9233L48.4072 23.5273L47.8584 22.1314C46.2929 22.7469 42.8703 24.4754 39.3071 26.2558L39.9775 27.5977Z" fill="white" mask="url(#path-1-outside-1_34_117)"/>
</svg>
